<?xml version="1.0" encoding="UTF-8" standalone="no"?><svg xmlns="http://www.w3.org/2000/svg" xmlns:xlink="http://www.w3.org/1999/xlink" contentStyleType="text/css" height="718px" preserveAspectRatio="none" style="width:265px;height:718px;background:#FFFFFF;" version="1.1" viewBox="0 0 265 718" width="265px" zoomAndPan="magnify"><defs/><g><!--MD5=[b15c6396bcb9f26cc92beaa0e6ac6eef]
class OpenCVCam--><g id="elem_OpenCVCam"><rect codeLine="8" fill="#FFFFFF" height="488.0156" id="OpenCVCam" rx="2.5" ry="2.5" style="stroke:#555555;stroke-width:0.5;" width="249" x="9" y="115"/><rect fill="#808080" height="32" rx="2.5" ry="2.5" style="stroke:#808080;stroke-width:0.5;" width="249" x="9" y="115"/><rect fill="#808080" height="2.5" style="stroke:#808080;stroke-width:0.5;" width="249" x="9" y="144.5"/><rect codeLine="8" fill="none" height="488.0156" id="OpenCVCam" rx="2.5" ry="2.5" style="stroke:#555555;stroke-width:0.5;" width="249" x="9" y="115"/><ellipse cx="85.25" cy="131" fill="#ADD1B2" rx="11" ry="11" style="stroke:#181818;stroke-width:1.0;"/><path d="M88.2188,136.6406 Q87.6406,136.9375 87,137.0781 Q86.3594,137.2344 85.6563,137.2344 Q83.1563,137.2344 81.8281,135.5938 Q80.5156,133.9375 80.5156,130.8125 Q80.5156,127.6875 81.8281,126.0313 Q83.1563,124.375 85.6563,124.375 Q86.3594,124.375 87,124.5313 Q87.6563,124.6875 88.2188,124.9844 L88.2188,127.7031 Q87.5938,127.125 87,126.8594 Q86.4063,126.5781 85.7813,126.5781 Q84.4375,126.5781 83.75,127.6563 Q83.0625,128.7188 83.0625,130.8125 Q83.0625,132.9063 83.75,133.9844 Q84.4375,135.0469 85.7813,135.0469 Q86.4063,135.0469 87,134.7813 Q87.5938,134.5 88.2188,133.9219 L88.2188,136.6406 Z " fill="#000000"/><text fill="#000000" font-family="sans-serif" font-size="14" lengthAdjust="spacing" textLength="88" x="105.75" y="135.8467">OpenCVCam</text><line style="stroke:#555555;stroke-width:0.5;" x1="10" x2="257" y1="147" y2="147"/><rect fill="none" height="6" style="stroke:#C82930;stroke-width:1.0;" width="6" x="17" y="157.6484"/><text fill="#000000" font-family="sans-serif" font-size="14" lengthAdjust="spacing" textLength="185" x="29" y="163.9951">ExternalInterfaces : Cluster</text><rect fill="none" height="6" style="stroke:#C82930;stroke-width:1.0;" width="6" x="17" y="173.9453"/><text fill="#000000" font-family="sans-serif" font-size="14" lengthAdjust="spacing" textLength="97" x="29" y="180.292">Local : Cluster</text><rect fill="none" height="6" style="stroke:#C82930;stroke-width:1.0;" width="6" x="17" y="190.2422"/><text fill="#000000" font-family="sans-serif" font-size="14" lengthAdjust="spacing" textLength="132" x="29" y="196.5889">Persistent : Cluster</text><line style="stroke:#555555;stroke-width:0.5;" x1="10" x2="257" y1="203.8906" y2="203.8906"/><rect fill="#F24D5C" height="6" style="stroke:#C82930;stroke-width:1.0;" width="6" x="17" y="214.5391"/><text fill="#000000" font-family="sans-serif" font-size="14" lengthAdjust="spacing" text-decoration="underline" textLength="188" x="29" y="220.8857">OpenCVCam_CastUIEvent()</text><rect fill="#F24D5C" height="6" style="stroke:#C82930;stroke-width:1.0;" width="6" x="17" y="230.8359"/><text fill="#000000" font-family="sans-serif" font-size="14" lengthAdjust="spacing" text-decoration="underline" textLength="173" x="29" y="237.1826">OpenCVCam_ClassCast()</text><rect fill="#F24D5C" height="6" style="stroke:#C82930;stroke-width:1.0;" width="6" x="17" y="247.1328"/><text fill="#000000" font-family="sans-serif" font-size="14" lengthAdjust="spacing" text-decoration="underline" textLength="172" x="29" y="253.4795">OpenCVCam_GetImage()</text><polygon fill="#FFFF44" points="20,261.4297,24,265.4297,20,269.4297,16,265.4297" style="stroke:#B38D22;stroke-width:1.0;"/><text fill="#000000" font-family="sans-serif" font-size="14" lengthAdjust="spacing" text-decoration="underline" textLength="193" x="29" y="269.7764">OpenCVCam_SendUiEvent()</text><ellipse cx="20" cy="282.7266" fill="#84BE84" rx="3" ry="3" style="stroke:#038048;stroke-width:1.0;"/><text fill="#000000" font-family="sans-serif" font-size="14" lengthAdjust="spacing" text-decoration="underline" textLength="223" x="29" y="286.0732">OpenCVCam_TemplateMethod()</text><ellipse cx="20" cy="299.0234" fill="#84BE84" rx="3" ry="3" style="stroke:#038048;stroke-width:1.0;"/><text fill="#000000" font-family="sans-serif" font-size="14" lengthAdjust="spacing" text-decoration="underline" textLength="186" x="29" y="302.3701">OpenCVCam_LiveCapture()</text><ellipse cx="20" cy="315.3203" fill="#84BE84" rx="3" ry="3" style="stroke:#038048;stroke-width:1.0;"/><text fill="#000000" font-family="sans-serif" font-size="14" lengthAdjust="spacing" text-decoration="underline" textLength="178" x="29" y="318.667">OpenCVCam_GetPicture()</text><ellipse cx="20" cy="331.6172" fill="#84BE84" rx="3" ry="3" style="stroke:#038048;stroke-width:1.0;"/><text fill="#000000" font-family="sans-serif" font-size="14" lengthAdjust="spacing" text-decoration="underline" textLength="137" x="29" y="334.9639">OpenCVCam_Stop()</text><ellipse cx="20" cy="347.9141" fill="#84BE84" rx="3" ry="3" style="stroke:#038048;stroke-width:1.0;"/><text fill="#000000" font-family="sans-serif" font-size="14" lengthAdjust="spacing" text-decoration="underline" textLength="144" x="29" y="351.2607">OpenCVCam_Close()</text><ellipse cx="20" cy="364.2109" fill="#84BE84" rx="3" ry="3" style="stroke:#038048;stroke-width:1.0;"/><text fill="#000000" font-family="sans-serif" font-size="14" lengthAdjust="spacing" text-decoration="underline" textLength="125" x="29" y="367.5576">OpenCVCam_Init()</text><ellipse cx="20" cy="380.5078" fill="#84BE84" rx="3" ry="3" style="stroke:#038048;stroke-width:1.0;"/><text fill="#000000" font-family="sans-serif" font-size="14" lengthAdjust="spacing" text-decoration="underline" textLength="137" x="29" y="383.8545">OpenCVCam_Start()</text><polygon fill="#FFFF44" points="20,391.8047,24,395.8047,20,399.8047,16,395.8047" style="stroke:#B38D22;stroke-width:1.0;"/><text fill="#000000" font-family="sans-serif" font-size="14" lengthAdjust="spacing" textLength="84" x="29" y="400.1514">Destructor()</text><polygon fill="#FFFF44" points="20,408.1016,24,412.1016,20,416.1016,16,412.1016" style="stroke:#B38D22;stroke-width:1.0;"/><text fill="#000000" font-family="sans-serif" font-size="14" lengthAdjust="spacing" textLength="207" x="29" y="416.4482">WritePersistentConfiguration()</text><polygon fill="#FFFF44" points="20,424.3984,24,428.3984,20,432.3984,16,428.3984" style="stroke:#B38D22;stroke-width:1.0;"/><text fill="#000000" font-family="sans-serif" font-size="14" lengthAdjust="spacing" textLength="208" x="29" y="432.7451">ReadPersistentConfiguration()</text><polygon fill="#FFFF44" points="20,440.6953,24,444.6953,20,448.6953,16,444.6953" style="stroke:#B38D22;stroke-width:1.0;"/><text fill="#000000" font-family="sans-serif" font-size="14" lengthAdjust="spacing" textLength="169" x="29" y="449.042">ReadExternalInterfaces()</text><polygon fill="#FFFF44" points="20,456.9922,24,460.9922,20,464.9922,16,460.9922" style="stroke:#B38D22;stroke-width:1.0;"/><text fill="#000000" font-family="sans-serif" font-size="14" lengthAdjust="spacing" textLength="168" x="29" y="465.3389">WriteExternalInterfaces()</text><polygon fill="#FFFF44" points="20,473.2891,24,477.2891,20,481.2891,16,477.2891" style="stroke:#B38D22;stroke-width:1.0;"/><text fill="#000000" font-family="sans-serif" font-size="14" lengthAdjust="spacing" textLength="91" x="29" y="481.6357">LiveCapture()</text><ellipse cx="20" cy="494.5859" fill="#84BE84" rx="3" ry="3" style="stroke:#038048;stroke-width:1.0;"/><text fill="#000000" font-family="sans-serif" font-size="14" lengthAdjust="spacing" textLength="128" x="29" y="497.9326">TemplateMethod()</text><ellipse cx="20" cy="510.8828" fill="#84BE84" rx="3" ry="3" style="stroke:#038048;stroke-width:1.0;"/><text fill="#000000" font-family="sans-serif" font-size="14" lengthAdjust="spacing" textLength="42" x="29" y="514.2295">Start()</text><ellipse cx="20" cy="527.1797" fill="#84BE84" rx="3" ry="3" style="stroke:#038048;stroke-width:1.0;"/><text fill="#000000" font-family="sans-serif" font-size="14" lengthAdjust="spacing" textLength="83" x="29" y="530.5264">GetPicture()</text><ellipse cx="20" cy="543.4766" fill="#84BE84" rx="3" ry="3" style="stroke:#038048;stroke-width:1.0;"/><text fill="#000000" font-family="sans-serif" font-size="14" lengthAdjust="spacing" textLength="42" x="29" y="546.8232">Stop()</text><ellipse cx="20" cy="559.7734" fill="#84BE84" rx="3" ry="3" style="stroke:#038048;stroke-width:1.0;"/><text fill="#000000" font-family="sans-serif" font-size="14" lengthAdjust="spacing" textLength="30" x="29" y="563.1201">Init()</text><ellipse cx="20" cy="576.0703" fill="#84BE84" rx="3" ry="3" style="stroke:#038048;stroke-width:1.0;"/><text fill="#000000" font-family="sans-serif" font-size="14" lengthAdjust="spacing" textLength="49" x="29" y="579.417">Close()</text><polygon fill="#FFFF44" points="20,587.3672,24,591.3672,20,595.3672,16,591.3672" style="stroke:#B38D22;stroke-width:1.0;"/><text fill="#000000" font-family="sans-serif" font-size="14" lengthAdjust="spacing" textLength="66" x="29" y="595.7139">MainGUI()</text></g><!--MD5=[36b646c945f5a836f61c707856d30646]
class YAFTAF--><g id="elem_YAFTAF"><rect fill="#FFFFFF" height="48" id="YAFTAF" rx="2.5" ry="2.5" style="stroke:#555555;stroke-width:0.5;" width="84" x="91.5" y="7"/><rect fill="#808080" height="32" rx="2.5" ry="2.5" style="stroke:#808080;stroke-width:0.5;" width="84" x="91.5" y="7"/><rect fill="#808080" height="2.5" style="stroke:#808080;stroke-width:0.5;" width="84" x="91.5" y="36.5"/><rect fill="none" height="48" id="YAFTAF" rx="2.5" ry="2.5" style="stroke:#555555;stroke-width:0.5;" width="84" x="91.5" y="7"/><ellipse cx="106.5" cy="23" fill="#ADD1B2" rx="11" ry="11" style="stroke:#181818;stroke-width:1.0;"/><path d="M109.4688,28.6406 Q108.8906,28.9375 108.25,29.0781 Q107.6094,29.2344 106.9063,29.2344 Q104.4063,29.2344 103.0781,27.5938 Q101.7656,25.9375 101.7656,22.8125 Q101.7656,19.6875 103.0781,18.0313 Q104.4063,16.375 106.9063,16.375 Q107.6094,16.375 108.25,16.5313 Q108.9063,16.6875 109.4688,16.9844 L109.4688,19.7031 Q108.8438,19.125 108.25,18.8594 Q107.6563,18.5781 107.0313,18.5781 Q105.6875,18.5781 105,19.6563 Q104.3125,20.7188 104.3125,22.8125 Q104.3125,24.9063 105,25.9844 Q105.6875,27.0469 107.0313,27.0469 Q107.6563,27.0469 108.25,26.7813 Q108.8438,26.5 109.4688,25.9219 L109.4688,28.6406 Z " fill="#000000"/><text fill="#000000" font-family="sans-serif" font-size="14" lengthAdjust="spacing" textLength="52" x="120.5" y="27.8467">YAFTAF</text><line style="stroke:#555555;stroke-width:0.5;" x1="92.5" x2="174.5" y1="39" y2="39"/><line style="stroke:#555555;stroke-width:0.5;" x1="92.5" x2="174.5" y1="47" y2="47"/></g><!--MD5=[26c5dd049598b62355777e60caa556cf]
class INewOpenCVMat--><g id="elem_INewOpenCVMat"><rect fill="#FFFFFF" height="48" id="INewOpenCVMat" rx="2.5" ry="2.5" style="stroke:#555555;stroke-width:0.5;" width="147" x="60" y="663"/><rect fill="#808080" height="32" rx="2.5" ry="2.5" style="stroke:#808080;stroke-width:0.5;" width="147" x="60" y="663"/><rect fill="#808080" height="2.5" style="stroke:#808080;stroke-width:0.5;" width="147" x="60" y="692.5"/><rect fill="none" height="48" id="INewOpenCVMat" rx="2.5" ry="2.5" style="stroke:#555555;stroke-width:0.5;" width="147" x="60" y="663"/><ellipse cx="75" cy="679" fill="#ADD1B2" rx="11" ry="11" style="stroke:#181818;stroke-width:1.0;"/><path d="M77.9688,684.6406 Q77.3906,684.9375 76.75,685.0781 Q76.1094,685.2344 75.4063,685.2344 Q72.9063,685.2344 71.5781,683.5938 Q70.2656,681.9375 70.2656,678.8125 Q70.2656,675.6875 71.5781,674.0313 Q72.9063,672.375 75.4063,672.375 Q76.1094,672.375 76.75,672.5313 Q77.4063,672.6875 77.9688,672.9844 L77.9688,675.7031 Q77.3438,675.125 76.75,674.8594 Q76.1563,674.5781 75.5313,674.5781 Q74.1875,674.5781 73.5,675.6563 Q72.8125,676.7188 72.8125,678.8125 Q72.8125,680.9063 73.5,681.9844 Q74.1875,683.0469 75.5313,683.0469 Q76.1563,683.0469 76.75,682.7813 Q77.3438,682.5 77.9688,681.9219 L77.9688,684.6406 Z " fill="#000000"/><text fill="#000000" font-family="sans-serif" font-size="14" lengthAdjust="spacing" textLength="115" x="89" y="683.8467">INewOpenCVMat</text><line style="stroke:#555555;stroke-width:0.5;" x1="61" x2="206" y1="695" y2="695"/><line style="stroke:#555555;stroke-width:0.5;" x1="61" x2="206" y1="703" y2="703"/></g><!--MD5=[955979d0a60ae902208b111d89bbda7d]
reverse link YAFTAF to OpenCVCam--><g id="link_YAFTAF_OpenCVCam"><path codeLine="38" d="M133.5,75.19 C133.5,86.85 133.5,100.35 133.5,114.99 " fill="none" id="YAFTAF-backto-OpenCVCam" style="stroke:#181818;stroke-width:1.0;"/><polygon fill="none" points="126.5,75.18,133.5,55.18,140.5,75.18,126.5,75.18" style="stroke:#181818;stroke-width:1.0;"/></g><!--MD5=[365b1187619ef7c6767c6080f4118b59]
reverse link OpenCVCam to INewOpenCVMat--><g id="link_OpenCVCam_INewOpenCVMat"><path codeLine="39" d="M133.5,616.4 C133.5,634.78 133.5,650.77 133.5,662.77 " fill="none" id="OpenCVCam-backto-INewOpenCVMat" style="stroke:#181818;stroke-width:1.0;"/><polygon fill="#181818" points="133.5,603.32,129.5066,609.3244,133.5132,615.32,137.5066,609.3156,133.5,603.32" style="stroke:#181818;stroke-width:1.0;"/></g><!--MD5=[64ee1d8e7c7f9c3f88bb68f3ce344336]
@startuml
set namespaceSeparator :
skinparam ClassBackgroundColor #FFFFFF
skinparam ClassBorderColor #555555
skinparam ClassFontColor #000000
skinparam ClassHeaderBackgroundColor #808080

skinparam top to bottom direction
class "OpenCVCam" {
{field} -ExternalInterfaces : Cluster
{field} -Local : Cluster
{field} -Persistent : Cluster
{static} {method} -OpenCVCam_CastUIEvent()
{static} {method} -OpenCVCam_ClassCast()
{static} {method} -OpenCVCam_GetImage()
{static} {method} #OpenCVCam_SendUiEvent()
{static} {method} +OpenCVCam_TemplateMethod()
{static} {method} +OpenCVCam_LiveCapture()
{static} {method} +OpenCVCam_GetPicture()
{static} {method} +OpenCVCam_Stop()
{static} {method} +OpenCVCam_Close()
{static} {method} +OpenCVCam_Init()
{static} {method} +OpenCVCam_Start()
{method} #Destructor()
{method} #WritePersistentConfiguration()
{method} #ReadPersistentConfiguration()
{method} #ReadExternalInterfaces()
{method} #WriteExternalInterfaces()
{method} #LiveCapture()
{method} +TemplateMethod()
{method} +Start()
{method} +GetPicture()
{method} +Stop()
{method} +Init()
{method} +Close()
{method} #MainGUI()

}
"YAFTAF" <|- - "OpenCVCam"
"OpenCVCam" *- - "INewOpenCVMat"



@enduml

PlantUML version 1.2022.12(Sun Oct 23 18:12:26 GMT 2022)
(GPL source distribution)
Java Runtime: OpenJDK Runtime Environment
JVM: OpenJDK 64-Bit Server VM
Default Encoding: UTF-8
Language: en
Country: US
--></g></svg>