<?xml version="1.0" encoding="UTF-8" standalone="no"?><svg xmlns="http://www.w3.org/2000/svg" xmlns:xlink="http://www.w3.org/1999/xlink" contentStyleType="text/css" height="218px" preserveAspectRatio="none" style="width:305px;height:218px;background:#FFFFFF;" version="1.1" viewBox="0 0 305 218" width="305px" zoomAndPan="magnify"><defs/><g><!--MD5=[b3e729a7385093b3f78d7854b6c88e5f]
class FooterTriekselSoft--><g id="elem_FooterTriekselSoft"><rect codeLine="8" fill="#FFFFFF" height="96.8906" id="FooterTriekselSoft" rx="2.5" ry="2.5" style="stroke:#555555;stroke-width:0.5;" width="158" x="67.5" y="115"/><rect fill="#808080" height="32" rx="2.5" ry="2.5" style="stroke:#808080;stroke-width:0.5;" width="158" x="67.5" y="115"/><rect fill="#808080" height="2.5" style="stroke:#808080;stroke-width:0.5;" width="158" x="67.5" y="144.5"/><rect codeLine="8" fill="none" height="96.8906" id="FooterTriekselSoft" rx="2.5" ry="2.5" style="stroke:#555555;stroke-width:0.5;" width="158" x="67.5" y="115"/><ellipse cx="82.5" cy="131" fill="#ADD1B2" rx="11" ry="11" style="stroke:#181818;stroke-width:1.0;"/><path d="M85.4688,136.6406 Q84.8906,136.9375 84.25,137.0781 Q83.6094,137.2344 82.9063,137.2344 Q80.4063,137.2344 79.0781,135.5938 Q77.7656,133.9375 77.7656,130.8125 Q77.7656,127.6875 79.0781,126.0313 Q80.4063,124.375 82.9063,124.375 Q83.6094,124.375 84.25,124.5313 Q84.9063,124.6875 85.4688,124.9844 L85.4688,127.7031 Q84.8438,127.125 84.25,126.8594 Q83.6563,126.5781 83.0313,126.5781 Q81.6875,126.5781 81,127.6563 Q80.3125,128.7188 80.3125,130.8125 Q80.3125,132.9063 81,133.9844 Q81.6875,135.0469 83.0313,135.0469 Q83.6563,135.0469 84.25,134.7813 Q84.8438,134.5 85.4688,133.9219 L85.4688,136.6406 Z " fill="#000000"/><text fill="#000000" font-family="sans-serif" font-size="14" lengthAdjust="spacing" textLength="126" x="96.5" y="135.8467">FooterTriekselSoft</text><line style="stroke:#555555;stroke-width:0.5;" x1="68.5" x2="224.5" y1="147" y2="147"/><rect fill="none" height="6" style="stroke:#C82930;stroke-width:1.0;" width="6" x="75.5" y="157.6484"/><text fill="#000000" font-family="sans-serif" font-size="14" lengthAdjust="spacing" textLength="107" x="87.5" y="163.9951">None : Boolean</text><line style="stroke:#555555;stroke-width:0.5;" x1="68.5" x2="224.5" y1="171.2969" y2="171.2969"/><ellipse cx="78.5" cy="184.9453" fill="#84BE84" rx="3" ry="3" style="stroke:#038048;stroke-width:1.0;"/><text fill="#000000" font-family="sans-serif" font-size="14" lengthAdjust="spacing" text-decoration="underline" textLength="79" x="87.5" y="188.292">FooterGUI()</text><ellipse cx="78.5" cy="201.2422" fill="#84BE84" rx="3" ry="3" style="stroke:#038048;stroke-width:1.0;"/><text fill="#000000" font-family="sans-serif" font-size="14" lengthAdjust="spacing" textLength="109" x="87.5" y="204.5889">GetFrontPanel()</text></g><!--MD5=[0598474d39ed4a9017b81a2a55acc3b1]
class TAFBaseGUI--><g id="elem_TAFBaseGUI"><rect fill="#FFFFFF" height="48" id="TAFBaseGUI" rx="2.5" ry="2.5" style="stroke:#555555;stroke-width:0.5;" width="117" x="7" y="7"/><rect fill="#808080" height="32" rx="2.5" ry="2.5" style="stroke:#808080;stroke-width:0.5;" width="117" x="7" y="7"/><rect fill="#808080" height="2.5" style="stroke:#808080;stroke-width:0.5;" width="117" x="7" y="36.5"/><rect fill="none" height="48" id="TAFBaseGUI" rx="2.5" ry="2.5" style="stroke:#555555;stroke-width:0.5;" width="117" x="7" y="7"/><ellipse cx="22" cy="23" fill="#ADD1B2" rx="11" ry="11" style="stroke:#181818;stroke-width:1.0;"/><path d="M24.9688,28.6406 Q24.3906,28.9375 23.75,29.0781 Q23.1094,29.2344 22.4063,29.2344 Q19.9063,29.2344 18.5781,27.5938 Q17.2656,25.9375 17.2656,22.8125 Q17.2656,19.6875 18.5781,18.0313 Q19.9063,16.375 22.4063,16.375 Q23.1094,16.375 23.75,16.5313 Q24.4063,16.6875 24.9688,16.9844 L24.9688,19.7031 Q24.3438,19.125 23.75,18.8594 Q23.1563,18.5781 22.5313,18.5781 Q21.1875,18.5781 20.5,19.6563 Q19.8125,20.7188 19.8125,22.8125 Q19.8125,24.9063 20.5,25.9844 Q21.1875,27.0469 22.5313,27.0469 Q23.1563,27.0469 23.75,26.7813 Q24.3438,26.5 24.9688,25.9219 L24.9688,28.6406 Z " fill="#000000"/><text fill="#000000" font-family="sans-serif" font-size="14" lengthAdjust="spacing" textLength="85" x="36" y="27.8467">TAFBaseGUI</text><line style="stroke:#555555;stroke-width:0.5;" x1="8" x2="123" y1="39" y2="39"/><line style="stroke:#555555;stroke-width:0.5;" x1="8" x2="123" y1="47" y2="47"/></g><!--MD5=[279d10572fd96349ac6b0a9cb9c87a2e]
class ITAFGUIActions--><g id="elem_ITAFGUIActions"><rect codeLine="16" fill="#FFFFFF" height="48" id="ITAFGUIActions" rx="2.5" ry="2.5" style="stroke:#555555;stroke-width:0.5;" width="139" x="159" y="7"/><rect fill="#808080" height="32" rx="2.5" ry="2.5" style="stroke:#808080;stroke-width:0.5;" width="139" x="159" y="7"/><rect fill="#808080" height="2.5" style="stroke:#808080;stroke-width:0.5;" width="139" x="159" y="36.5"/><rect codeLine="16" fill="none" height="48" id="ITAFGUIActions" rx="2.5" ry="2.5" style="stroke:#555555;stroke-width:0.5;" width="139" x="159" y="7"/><ellipse cx="174" cy="23" fill="#B4A7E5" rx="11" ry="11" style="stroke:#181818;stroke-width:1.0;"/><path d="M169.9219,18.7656 L169.9219,16.6094 L177.3125,16.6094 L177.3125,18.7656 L174.8438,18.7656 L174.8438,26.8438 L177.3125,26.8438 L177.3125,29 L169.9219,29 L169.9219,26.8438 L172.3906,26.8438 L172.3906,18.7656 L169.9219,18.7656 Z " fill="#000000"/><text fill="#000000" font-family="sans-serif" font-size="14" font-style="italic" lengthAdjust="spacing" textLength="107" x="188" y="27.8467">ITAFGUIActions</text><line style="stroke:#555555;stroke-width:0.5;" x1="160" x2="297" y1="39" y2="39"/><line style="stroke:#555555;stroke-width:0.5;" x1="160" x2="297" y1="47" y2="47"/></g><!--MD5=[81f9d692154a014bbc1c6fb3ffccb17f]
reverse link TAFBaseGUI to FooterTriekselSoft--><g id="link_TAFBaseGUI_FooterTriekselSoft"><path codeLine="14" d="M90.4,72.12 C98.78,85.62 108.22,100.82 116.92,114.84 " fill="none" id="TAFBaseGUI-backto-FooterTriekselSoft" style="stroke:#181818;stroke-width:1.0;"/><polygon fill="none" points="84.39,75.71,79.79,55.03,96.29,68.33,84.39,75.71" style="stroke:#181818;stroke-width:1.0;"/></g><!--MD5=[182f77eedbfba9fccd92986855c94fdb]
reverse link ITAFGUIActions to FooterTriekselSoft--><g id="link_ITAFGUIActions_FooterTriekselSoft"><path codeLine="15" d="M203.29,72.12 C194.81,85.62 185.26,100.82 176.45,114.84 " fill="none" id="ITAFGUIActions-backto-FooterTriekselSoft" style="stroke:#181818;stroke-width:1.0;stroke-dasharray:7.0,7.0;"/><polygon fill="none" points="197.46,68.24,214.03,55.03,209.32,75.69,197.46,68.24" style="stroke:#181818;stroke-width:1.0;"/></g><!--MD5=[c09d0c1cd6b40413cbc6f06c809559fd]
@startuml
set namespaceSeparator :
skinparam ClassBackgroundColor #FFFFFF
skinparam ClassBorderColor #555555
skinparam ClassFontColor #000000
skinparam ClassHeaderBackgroundColor #808080

skinparam top to bottom direction
class "FooterTriekselSoft" {
{field} -None : Boolean
{static} {method} +FooterGUI()
{method} +GetFrontPanel()

}
"TAFBaseGUI" <|- - "FooterTriekselSoft"
"ITAFGUIActions" <|.. "FooterTriekselSoft"
interface "ITAFGUIActions" {}




@enduml

PlantUML version 1.2022.12(Sun Oct 23 18:12:26 GMT 2022)
(GPL source distribution)
Java Runtime: OpenJDK Runtime Environment
JVM: OpenJDK 64-Bit Server VM
Default Encoding: UTF-8
Language: en
Country: US
--></g></svg>