<?xml version="1.0" encoding="UTF-8" standalone="no"?><svg xmlns="http://www.w3.org/2000/svg" xmlns:xlink="http://www.w3.org/1999/xlink" contentStyleType="text/css" height="152px" preserveAspectRatio="none" style="width:177px;height:152px;background:#FFFFFF;" version="1.1" viewBox="0 0 177 152" width="177px" zoomAndPan="magnify"><defs/><g><!--MD5=[045e9719c13f5725a72c984fa863a9a1]
class FrontPanelControl--><g id="elem_FrontPanelControl"><rect codeLine="8" fill="#FFFFFF" height="131.9996" id="FrontPanelControl" rx="2.5" ry="2.5" style="stroke:#555555;stroke-width:0.5;" width="156" x="7" y="7"/><rect fill="#808080" height="32" rx="2.5" ry="2.5" style="stroke:#808080;stroke-width:0.5;" width="156" x="7" y="7"/><rect fill="#808080" height="2.5" style="stroke:#808080;stroke-width:0.5;" width="156" x="7" y="36.5"/><rect codeLine="8" fill="none" height="131.9996" id="FrontPanelControl" rx="2.5" ry="2.5" style="stroke:#555555;stroke-width:0.5;" width="156" x="7" y="7"/><ellipse cx="27.85" cy="23" fill="#ADD1B2" rx="11" ry="11" style="stroke:#181818;stroke-width:1.0;"/><path d="M27.2094,26.7813 Q28.0063,26.7813 28.5688,26.5938 Q29.1469,26.3906 29.3813,26.1719 Q29.6313,25.9375 29.8656,25.75 Q30.1156,25.5469 30.3344,25.5469 Q30.6781,25.5469 30.9281,25.8125 Q31.1938,26.0625 31.1938,26.3906 Q31.1938,27.125 30.0219,27.8125 Q28.8656,28.4844 27.1625,28.4844 Q25.0063,28.4844 23.5844,27.2188 Q22.1625,25.9531 22.1625,24.0156 L22.1625,22.8906 Q22.1625,20.8594 23.4906,19.4844 Q24.8188,18.0938 26.7875,18.0938 Q27.975,18.0938 29.1938,18.6719 L29.3656,18.75 Q29.6625,18.3438 30.0844,18.3438 Q30.5688,18.3438 30.7406,18.6406 Q30.9281,18.9219 30.9281,19.4688 L30.9281,20.8906 Q30.9281,22.0156 30.0844,22.0156 Q29.7719,22.0156 29.5688,21.8438 Q29.3813,21.6719 29.3344,21.5313 Q29.3031,21.375 29.2563,21.1094 Q29.1469,20.5938 28.6313,20.2813 Q28.1156,19.9688 27.6625,19.8906 Q27.225,19.7969 26.85,19.7969 Q25.5688,19.7969 24.7094,20.6719 Q23.8656,21.5469 23.8656,22.8906 L23.8656,23.9844 Q23.8656,25.2656 24.7719,26.0313 Q25.6781,26.7813 27.2094,26.7813 Z " fill="#000000"/><text fill="#000000" font-family="sans-serif" font-size="14" lengthAdjust="spacing" textLength="111" x="43.15" y="28.6">FrontPanelControl</text><line style="stroke:#555555;stroke-width:0.5;" x1="8" x2="162" y1="39" y2="39"/><rect fill="none" height="6" style="stroke:#C82930;stroke-width:1.0;" width="6" x="15" y="47"/><text fill="#000000" font-family="sans-serif" font-size="14" lengthAdjust="spacing" textLength="105" x="27" y="56.9999">VIRef : kLVObjVI</text><line style="stroke:#555555;stroke-width:0.5;" x1="8" x2="162" y1="63.7999" y2="63.7999"/><ellipse cx="18" cy="74.7999" fill="#84BE84" rx="3" ry="3" style="stroke:#038048;stroke-width:1.0;"/><text fill="#000000" font-family="sans-serif" font-size="14" lengthAdjust="spacing" text-decoration="underline" textLength="51" x="27" y="81.7999">Create()</text><ellipse cx="18" cy="91.5999" fill="#84BE84" rx="3" ry="3" style="stroke:#038048;stroke-width:1.0;"/><text fill="#000000" font-family="sans-serif" font-size="14" lengthAdjust="spacing" textLength="128" x="27" y="98.5998">InsertIntoSubPanel()</text><ellipse cx="18" cy="108.3998" fill="#84BE84" rx="3" ry="3" style="stroke:#038048;stroke-width:1.0;"/><text fill="#000000" font-family="sans-serif" font-size="14" lengthAdjust="spacing" textLength="111" x="27" y="115.3997">OpenFrontPanel()</text><ellipse cx="18" cy="125.1997" fill="#84BE84" rx="3" ry="3" style="stroke:#038048;stroke-width:1.0;"/><text fill="#000000" font-family="sans-serif" font-size="14" lengthAdjust="spacing" textLength="130" x="27" y="132.1996">OpenBlockDiagram()</text></g><!--MD5=[466f9a66eafa09296da9d299c0ff8984]
@startuml
set namespaceSeparator :
skinparam ClassBackgroundColor #FFFFFF
skinparam ClassBorderColor #555555
skinparam ClassFontColor #000000
skinparam ClassHeaderBackgroundColor #808080

skinparam top to bottom direction
class "FrontPanelControl" {
{field} -VIRef : kLVObjVI
{static} {method} +Create()
{method} +InsertIntoSubPanel()
{method} +OpenFrontPanel()
{method} +OpenBlockDiagram()

}



@enduml

PlantUML version 1.2022.5(Sat Apr 30 10:55:52 GMT 2022)
(GPL source distribution)
Java Runtime: OpenJDK Runtime Environment
JVM: OpenJDK 64-Bit Server VM
Default Encoding: UTF-8
Language: en
Country: US
--></g></svg>