<?xml version="1.0" encoding="UTF-8" standalone="no"?><svg xmlns="http://www.w3.org/2000/svg" xmlns:xlink="http://www.w3.org/1999/xlink" contentStyleType="text/css" height="489px" preserveAspectRatio="none" style="width:423px;height:489px;background:#FFFFFF;" version="1.1" viewBox="0 0 423 489" width="423px" zoomAndPan="magnify"><defs/><g><!--MD5=[8358aa38cc38c2e27f998167d3bbf70c]
class UsedInTestClass--><g id="elem_UsedInTestClass"><rect codeLine="8" fill="#FFFFFF" height="367.1986" id="UsedInTestClass" rx="2.5" ry="2.5" style="stroke:#555555;stroke-width:0.5;" width="231" x="96" y="115"/><rect fill="#808080" height="32" rx="2.5" ry="2.5" style="stroke:#808080;stroke-width:0.5;" width="231" x="96" y="115"/><rect fill="#808080" height="2.5" style="stroke:#808080;stroke-width:0.5;" width="231" x="96" y="144.5"/><rect codeLine="8" fill="none" height="367.1986" id="UsedInTestClass" rx="2.5" ry="2.5" style="stroke:#555555;stroke-width:0.5;" width="231" x="96" y="115"/><ellipse cx="154.25" cy="131" fill="#ADD1B2" rx="11" ry="11" style="stroke:#181818;stroke-width:1.0;"/><path d="M153.6094,134.7813 Q154.4063,134.7813 154.9688,134.5938 Q155.5469,134.3906 155.7813,134.1719 Q156.0313,133.9375 156.2656,133.75 Q156.5156,133.5469 156.7344,133.5469 Q157.0781,133.5469 157.3281,133.8125 Q157.5938,134.0625 157.5938,134.3906 Q157.5938,135.125 156.4219,135.8125 Q155.2656,136.4844 153.5625,136.4844 Q151.4063,136.4844 149.9844,135.2188 Q148.5625,133.9531 148.5625,132.0156 L148.5625,130.8906 Q148.5625,128.8594 149.8906,127.4844 Q151.2188,126.0938 153.1875,126.0938 Q154.375,126.0938 155.5938,126.6719 L155.7656,126.75 Q156.0625,126.3438 156.4844,126.3438 Q156.9688,126.3438 157.1406,126.6406 Q157.3281,126.9219 157.3281,127.4688 L157.3281,128.8906 Q157.3281,130.0156 156.4844,130.0156 Q156.1719,130.0156 155.9688,129.8438 Q155.7813,129.6719 155.7344,129.5313 Q155.7031,129.375 155.6563,129.1094 Q155.5469,128.5938 155.0313,128.2813 Q154.5156,127.9688 154.0625,127.8906 Q153.625,127.7969 153.25,127.7969 Q151.9688,127.7969 151.1094,128.6719 Q150.2656,129.5469 150.2656,130.8906 L150.2656,131.9844 Q150.2656,133.2656 151.1719,134.0313 Q152.0781,134.7813 153.6094,134.7813 Z " fill="#000000"/><text fill="#000000" font-family="sans-serif" font-size="14" lengthAdjust="spacing" textLength="106" x="174.75" y="136.6">UsedInTestClass</text><line style="stroke:#555555;stroke-width:0.5;" x1="97" x2="326" y1="147" y2="147"/><rect fill="none" height="6" style="stroke:#C82930;stroke-width:1.0;" width="6" x="104" y="155"/><text fill="#000000" font-family="sans-serif" font-size="14" lengthAdjust="spacing" textLength="59" x="116" y="164.9999">Ref : U32</text><line style="stroke:#555555;stroke-width:0.5;" x1="97" x2="326" y1="171.7999" y2="171.7999"/><polygon fill="#FFFF44" points="107,177.7999,111,181.7999,107,185.7999,103,181.7999" style="stroke:#B38D22;stroke-width:1.0;"/><text fill="#000000" font-family="sans-serif" font-size="14" lengthAdjust="spacing" text-decoration="underline" textLength="59" x="116" y="189.7999">Process()</text><polygon fill="#FFFF44" points="107,194.5999,111,198.5999,107,202.5999,103,198.5999" style="stroke:#B38D22;stroke-width:1.0;"/><text fill="#000000" font-family="sans-serif" font-size="14" lengthAdjust="spacing" text-decoration="underline" textLength="89" x="116" y="206.5998">StartProcess()</text><polygon fill="#FFFF44" points="107,211.3998,111,215.3998,107,219.3998,103,215.3998" style="stroke:#B38D22;stroke-width:1.0;"/><text fill="#000000" font-family="sans-serif" font-size="14" lengthAdjust="spacing" text-decoration="underline" textLength="87" x="116" y="223.3997">StopProcess()</text><polygon fill="#FFFF44" points="107,228.1997,111,232.1997,107,236.1997,103,232.1997" style="stroke:#B38D22;stroke-width:1.0;"/><text fill="#000000" font-family="sans-serif" font-size="14" lengthAdjust="spacing" text-decoration="underline" textLength="124" x="116" y="240.1996">ProcessRepository()</text><polygon fill="#FFFF44" points="107,244.9996,111,248.9996,107,252.9996,103,248.9996" style="stroke:#B38D22;stroke-width:1.0;"/><text fill="#000000" font-family="sans-serif" font-size="14" lengthAdjust="spacing" text-decoration="underline" textLength="151" x="116" y="256.9996">UsedInTestClass_New()</text><polygon fill="#FFFF44" points="107,261.7996,111,265.7996,107,269.7996,103,265.7996" style="stroke:#B38D22;stroke-width:1.0;"/><text fill="#000000" font-family="sans-serif" font-size="14" lengthAdjust="spacing" text-decoration="underline" textLength="205" x="116" y="273.7995">UsedInTestClass_GetAttributes()</text><ellipse cx="107" cy="283.5995" fill="#84BE84" rx="3" ry="3" style="stroke:#038048;stroke-width:1.0;"/><text fill="#000000" font-family="sans-serif" font-size="14" lengthAdjust="spacing" text-decoration="underline" textLength="165" x="116" y="290.5994">UsedInTestClass_Create()</text><ellipse cx="107" cy="300.3994" fill="#84BE84" rx="3" ry="3" style="stroke:#038048;stroke-width:1.0;"/><text fill="#000000" font-family="sans-serif" font-size="14" lengthAdjust="spacing" text-decoration="underline" textLength="152" x="116" y="307.3994">ControlProcessWindow()</text><ellipse cx="107" cy="317.1993" fill="#84BE84" rx="3" ry="3" style="stroke:#038048;stroke-width:1.0;"/><text fill="#000000" font-family="sans-serif" font-size="14" lengthAdjust="spacing" textLength="51" x="116" y="324.1993">Create()</text><ellipse cx="107" cy="333.9993" fill="#84BE84" rx="3" ry="3" style="stroke:#038048;stroke-width:1.0;"/><text fill="#000000" font-family="sans-serif" font-size="14" lengthAdjust="spacing" textLength="57" x="116" y="340.9992">Destroy()</text><ellipse cx="107" cy="350.7992" fill="#84BE84" rx="3" ry="3" style="stroke:#038048;stroke-width:1.0;"/><text fill="#000000" font-family="sans-serif" font-size="14" lengthAdjust="spacing" textLength="176" x="116" y="357.7991">GetPersistentConfiguration()</text><ellipse cx="107" cy="367.5991" fill="#84BE84" rx="3" ry="3" style="stroke:#038048;stroke-width:1.0;"/><text fill="#000000" font-family="sans-serif" font-size="14" lengthAdjust="spacing" textLength="174" x="116" y="374.5991">SetPersistentConfiguration()</text><ellipse cx="107" cy="384.399" fill="#84BE84" rx="3" ry="3" style="stroke:#038048;stroke-width:1.0;"/><text fill="#000000" font-family="sans-serif" font-size="14" lengthAdjust="spacing" textLength="68" x="116" y="391.399">SetImage()</text><ellipse cx="107" cy="401.199" fill="#84BE84" rx="3" ry="3" style="stroke:#038048;stroke-width:1.0;"/><text fill="#000000" font-family="sans-serif" font-size="14" lengthAdjust="spacing" textLength="99" x="116" y="408.1989">RequestImage()</text><ellipse cx="107" cy="417.9989" fill="#84BE84" rx="3" ry="3" style="stroke:#038048;stroke-width:1.0;"/><text fill="#000000" font-family="sans-serif" font-size="14" lengthAdjust="spacing" textLength="68" x="116" y="424.9988">GetName()</text><ellipse cx="107" cy="434.7988" fill="#84BE84" rx="3" ry="3" style="stroke:#038048;stroke-width:1.0;"/><text fill="#000000" font-family="sans-serif" font-size="14" lengthAdjust="spacing" textLength="144" x="116" y="441.7988">GetExternalInterfaces()</text><ellipse cx="107" cy="451.5988" fill="#84BE84" rx="3" ry="3" style="stroke:#038048;stroke-width:1.0;"/><text fill="#000000" font-family="sans-serif" font-size="14" lengthAdjust="spacing" textLength="142" x="116" y="458.5987">SetExternalInterfaces()</text><ellipse cx="107" cy="468.3987" fill="#84BE84" rx="3" ry="3" style="stroke:#038048;stroke-width:1.0;"/><text fill="#000000" font-family="sans-serif" font-size="14" lengthAdjust="spacing" textLength="137" x="116" y="475.3986">ExecuteButtonAction()</text></g><!--MD5=[38411256ab6f26cc867bd2e76bbfff3d]
class INewImage--><g id="elem_INewImage"><rect codeLine="31" fill="#FFFFFF" height="48" id="INewImage" rx="2.5" ry="2.5" style="stroke:#555555;stroke-width:0.5;" width="103" x="7" y="7"/><rect fill="#808080" height="32" rx="2.5" ry="2.5" style="stroke:#808080;stroke-width:0.5;" width="103" x="7" y="7"/><rect fill="#808080" height="2.5" style="stroke:#808080;stroke-width:0.5;" width="103" x="7" y="36.5"/><rect codeLine="31" fill="none" height="48" id="INewImage" rx="2.5" ry="2.5" style="stroke:#555555;stroke-width:0.5;" width="103" x="7" y="7"/><ellipse cx="22" cy="23" fill="#B4A7E5" rx="11" ry="11" style="stroke:#181818;stroke-width:1.0;"/><path d="M24.6719,26.2969 Q25.2188,26.2969 25.5,26.4844 Q25.7813,26.6563 25.7813,27.1563 Q25.7813,28 24.6719,28 L19.5313,28 Q18.4063,28 18.4063,27.1563 Q18.4063,26.6563 18.6875,26.4844 Q18.9844,26.2969 19.5313,26.2969 L21.25,26.2969 L21.25,19.7813 L19.5313,19.7813 Q18.4063,19.7813 18.4063,18.9375 Q18.4063,18.4531 18.6875,18.2813 Q18.9844,18.0938 19.5313,18.0938 L24.6719,18.0938 Q25.2188,18.0938 25.5,18.2813 Q25.7813,18.4531 25.7813,18.9375 Q25.7813,19.7813 24.6719,19.7813 L22.9531,19.7813 L22.9531,26.2969 L24.6719,26.2969 Z " fill="#000000"/><text fill="#000000" font-family="sans-serif" font-size="14" font-style="italic" lengthAdjust="spacing" textLength="71" x="36" y="28.6">INewImage</text><line style="stroke:#555555;stroke-width:0.5;" x1="8" x2="109" y1="39" y2="39"/><line style="stroke:#555555;stroke-width:0.5;" x1="8" x2="109" y1="47" y2="47"/></g><!--MD5=[279d10572fd96349ac6b0a9cb9c87a2e]
class ITAFGUIActions--><g id="elem_ITAFGUIActions"><rect codeLine="33" fill="#FFFFFF" height="48" id="ITAFGUIActions" rx="2.5" ry="2.5" style="stroke:#555555;stroke-width:0.5;" width="133" x="145" y="7"/><rect fill="#808080" height="32" rx="2.5" ry="2.5" style="stroke:#808080;stroke-width:0.5;" width="133" x="145" y="7"/><rect fill="#808080" height="2.5" style="stroke:#808080;stroke-width:0.5;" width="133" x="145" y="36.5"/><rect codeLine="33" fill="none" height="48" id="ITAFGUIActions" rx="2.5" ry="2.5" style="stroke:#555555;stroke-width:0.5;" width="133" x="145" y="7"/><ellipse cx="160" cy="23" fill="#B4A7E5" rx="11" ry="11" style="stroke:#181818;stroke-width:1.0;"/><path d="M162.6719,26.2969 Q163.2188,26.2969 163.5,26.4844 Q163.7813,26.6563 163.7813,27.1563 Q163.7813,28 162.6719,28 L157.5313,28 Q156.4063,28 156.4063,27.1563 Q156.4063,26.6563 156.6875,26.4844 Q156.9844,26.2969 157.5313,26.2969 L159.25,26.2969 L159.25,19.7813 L157.5313,19.7813 Q156.4063,19.7813 156.4063,18.9375 Q156.4063,18.4531 156.6875,18.2813 Q156.9844,18.0938 157.5313,18.0938 L162.6719,18.0938 Q163.2188,18.0938 163.5,18.2813 Q163.7813,18.4531 163.7813,18.9375 Q163.7813,19.7813 162.6719,19.7813 L160.9531,19.7813 L160.9531,26.2969 L162.6719,26.2969 Z " fill="#000000"/><text fill="#000000" font-family="sans-serif" font-size="14" font-style="italic" lengthAdjust="spacing" textLength="101" x="174" y="28.6">ITAFGUIActions</text><line style="stroke:#555555;stroke-width:0.5;" x1="146" x2="277" y1="39" y2="39"/><line style="stroke:#555555;stroke-width:0.5;" x1="146" x2="277" y1="47" y2="47"/></g><!--MD5=[fa9f007be859bf43007ba002c5b16515]
class ITAFObject--><g id="elem_ITAFObject"><rect codeLine="35" fill="#FFFFFF" height="48" id="ITAFObject" rx="2.5" ry="2.5" style="stroke:#555555;stroke-width:0.5;" width="103" x="313" y="7"/><rect fill="#808080" height="32" rx="2.5" ry="2.5" style="stroke:#808080;stroke-width:0.5;" width="103" x="313" y="7"/><rect fill="#808080" height="2.5" style="stroke:#808080;stroke-width:0.5;" width="103" x="313" y="36.5"/><rect codeLine="35" fill="none" height="48" id="ITAFObject" rx="2.5" ry="2.5" style="stroke:#555555;stroke-width:0.5;" width="103" x="313" y="7"/><ellipse cx="328" cy="23" fill="#B4A7E5" rx="11" ry="11" style="stroke:#181818;stroke-width:1.0;"/><path d="M330.6719,26.2969 Q331.2188,26.2969 331.5,26.4844 Q331.7813,26.6563 331.7813,27.1563 Q331.7813,28 330.6719,28 L325.5313,28 Q324.4063,28 324.4063,27.1563 Q324.4063,26.6563 324.6875,26.4844 Q324.9844,26.2969 325.5313,26.2969 L327.25,26.2969 L327.25,19.7813 L325.5313,19.7813 Q324.4063,19.7813 324.4063,18.9375 Q324.4063,18.4531 324.6875,18.2813 Q324.9844,18.0938 325.5313,18.0938 L330.6719,18.0938 Q331.2188,18.0938 331.5,18.2813 Q331.7813,18.4531 331.7813,18.9375 Q331.7813,19.7813 330.6719,19.7813 L328.9531,19.7813 L328.9531,26.2969 L330.6719,26.2969 Z " fill="#000000"/><text fill="#000000" font-family="sans-serif" font-size="14" font-style="italic" lengthAdjust="spacing" textLength="71" x="342" y="28.6">ITAFObject</text><line style="stroke:#555555;stroke-width:0.5;" x1="314" x2="415" y1="39" y2="39"/><line style="stroke:#555555;stroke-width:0.5;" x1="314" x2="415" y1="47" y2="47"/></g><!--MD5=[07b8843d29a35f85d8cfac83d09a8225]
reverse link INewImage to UsedInTestClass--><g id="link_INewImage_UsedInTestClass"><path codeLine="30" d="M81.9,72.6 C89,84.93 97.31,99.35 106.23,114.83 " fill="none" id="INewImage-backto-UsedInTestClass" style="stroke:#181818;stroke-width:1.0;stroke-dasharray:7.0,7.0;"/><polygon fill="none" points="75.73,75.92,71.81,55.1,87.86,68.93,75.73,75.92" style="stroke:#181818;stroke-width:1.0;"/></g><!--MD5=[83c8500497a71ef6a60628937d5fb8a3]
reverse link ITAFGUIActions to UsedInTestClass--><g id="link_ITAFGUIActions_UsedInTestClass"><path codeLine="32" d="M211.5,75.27 C211.5,86.99 211.5,100.45 211.5,114.83 " fill="none" id="ITAFGUIActions-backto-UsedInTestClass" style="stroke:#181818;stroke-width:1.0;stroke-dasharray:7.0,7.0;"/><polygon fill="none" points="204.5,75.1,211.5,55.1,218.5,75.1,204.5,75.1" style="stroke:#181818;stroke-width:1.0;"/></g><!--MD5=[7ea2187bcd1c8967543b4d5b586c4477]
reverse link ITAFObject to UsedInTestClass--><g id="link_ITAFObject_UsedInTestClass"><path codeLine="34" d="M341.1,72.6 C334,84.93 325.69,99.35 316.77,114.83 " fill="none" id="ITAFObject-backto-UsedInTestClass" style="stroke:#181818;stroke-width:1.0;stroke-dasharray:7.0,7.0;"/><polygon fill="none" points="335.14,68.93,351.19,55.1,347.27,75.92,335.14,68.93" style="stroke:#181818;stroke-width:1.0;"/></g><!--MD5=[291a61e947aa16919aba352869c26dd1]
@startuml
set namespaceSeparator :
skinparam ClassBackgroundColor #FFFFFF
skinparam ClassBorderColor #555555
skinparam ClassFontColor #000000
skinparam ClassHeaderBackgroundColor #808080

skinparam top to bottom direction
class "UsedInTestClass" {
{field} -Ref : U32
{static} {method} #Process()
{static} {method} #StartProcess()
{static} {method} #StopProcess()
{static} {method} #ProcessRepository()
{static} {method} #UsedInTestClass_New()
{static} {method} #UsedInTestClass_GetAttributes()
{static} {method} +UsedInTestClass_Create()
{static} {method} +ControlProcessWindow()
{method} +Create()
{method} +Destroy()
{method} +GetPersistentConfiguration()
{method} +SetPersistentConfiguration()
{method} +SetImage()
{method} +RequestImage()
{method} +GetName()
{method} +GetExternalInterfaces()
{method} +SetExternalInterfaces()
{method} +ExecuteButtonAction()

}
"INewImage" <|.. "UsedInTestClass"
interface "INewImage" {}
"ITAFGUIActions" <|.. "UsedInTestClass"
interface "ITAFGUIActions" {}
"ITAFObject" <|.. "UsedInTestClass"
interface "ITAFObject" {}




@enduml

PlantUML version 1.2022.5(Sat Apr 30 10:55:52 GMT 2022)
(GPL source distribution)
Java Runtime: OpenJDK Runtime Environment
JVM: OpenJDK 64-Bit Server VM
Default Encoding: UTF-8
Language: en
Country: US
--></g></svg>