<?xml version="1.0" encoding="UTF-8" standalone="no"?><svg xmlns="http://www.w3.org/2000/svg" xmlns:xlink="http://www.w3.org/1999/xlink" contentStyleType="text/css" height="69px" preserveAspectRatio="none" style="width:113px;height:69px;background:#FFFFFF;" version="1.1" viewBox="0 0 113 69" width="113px" zoomAndPan="magnify"><defs/><g><!--MD5=[065ef51c0b83ac26c2e8b4ca504d0938]
class IInterface--><g id="elem_IInterface"><rect codeLine="8" fill="#FFFFFF" height="48" id="IInterface" rx="2.5" ry="2.5" style="stroke:#555555;stroke-width:0.5;" width="92" x="7" y="7"/><rect fill="#808080" height="32" rx="2.5" ry="2.5" style="stroke:#808080;stroke-width:0.5;" width="92" x="7" y="7"/><rect fill="#808080" height="2.5" style="stroke:#808080;stroke-width:0.5;" width="92" x="7" y="36.5"/><rect codeLine="8" fill="none" height="48" id="IInterface" rx="2.5" ry="2.5" style="stroke:#555555;stroke-width:0.5;" width="92" x="7" y="7"/><ellipse cx="22" cy="23" fill="#B4A7E5" rx="11" ry="11" style="stroke:#181818;stroke-width:1.0;"/><path d="M24.6719,26.2969 Q25.2188,26.2969 25.5,26.4844 Q25.7813,26.6563 25.7813,27.1563 Q25.7813,28 24.6719,28 L19.5313,28 Q18.4063,28 18.4063,27.1563 Q18.4063,26.6563 18.6875,26.4844 Q18.9844,26.2969 19.5313,26.2969 L21.25,26.2969 L21.25,19.7813 L19.5313,19.7813 Q18.4063,19.7813 18.4063,18.9375 Q18.4063,18.4531 18.6875,18.2813 Q18.9844,18.0938 19.5313,18.0938 L24.6719,18.0938 Q25.2188,18.0938 25.5,18.2813 Q25.7813,18.4531 25.7813,18.9375 Q25.7813,19.7813 24.6719,19.7813 L22.9531,19.7813 L22.9531,26.2969 L24.6719,26.2969 Z " fill="#000000"/><text fill="#000000" font-family="sans-serif" font-size="14" font-style="italic" lengthAdjust="spacing" textLength="60" x="36" y="28.6">IInterface</text><line style="stroke:#555555;stroke-width:0.5;" x1="8" x2="98" y1="39" y2="39"/><line style="stroke:#555555;stroke-width:0.5;" x1="8" x2="98" y1="47" y2="47"/></g><!--MD5=[197e5093117b09a2e6a97e1b802bf99c]
@startuml
set namespaceSeparator :
skinparam ClassBackgroundColor #FFFFFF
skinparam ClassBorderColor #555555
skinparam ClassFontColor #000000
skinparam ClassHeaderBackgroundColor #808080

skinparam top to bottom direction
interface "IInterface" {

}



@enduml

PlantUML version 1.2022.5(Sat Apr 30 10:55:52 GMT 2022)
(GPL source distribution)
Java Runtime: OpenJDK Runtime Environment
JVM: OpenJDK 64-Bit Server VM
Default Encoding: UTF-8
Language: en
Country: US
--></g></svg>