<?xml version="1.0" encoding="UTF-8" standalone="no"?><svg xmlns="http://www.w3.org/2000/svg" xmlns:xlink="http://www.w3.org/1999/xlink" contentStyleType="text/css" height="421px" preserveAspectRatio="none" style="width:244px;height:421px;background:#FFFFFF;" version="1.1" viewBox="0 0 244 421" width="244px" zoomAndPan="magnify"><defs/><g><!--MD5=[289d904b2be1998d96d5ca7118f6f33d]
class DemoApplication--><g id="elem_DemoApplication"><rect codeLine="8" fill="#FFFFFF" height="299.9989" id="DemoApplication" rx="2.5" ry="2.5" style="stroke:#555555;stroke-width:0.5;" width="228" x="9" y="115"/><rect fill="#808080" height="32" rx="2.5" ry="2.5" style="stroke:#808080;stroke-width:0.5;" width="228" x="9" y="115"/><rect fill="#808080" height="2.5" style="stroke:#808080;stroke-width:0.5;" width="228" x="9" y="144.5"/><rect codeLine="8" fill="none" height="299.9989" id="DemoApplication" rx="2.5" ry="2.5" style="stroke:#555555;stroke-width:0.5;" width="228" x="9" y="115"/><ellipse cx="67.25" cy="131" fill="#ADD1B2" rx="11" ry="11" style="stroke:#181818;stroke-width:1.0;"/><path d="M66.6094,134.7813 Q67.4063,134.7813 67.9688,134.5938 Q68.5469,134.3906 68.7813,134.1719 Q69.0313,133.9375 69.2656,133.75 Q69.5156,133.5469 69.7344,133.5469 Q70.0781,133.5469 70.3281,133.8125 Q70.5938,134.0625 70.5938,134.3906 Q70.5938,135.125 69.4219,135.8125 Q68.2656,136.4844 66.5625,136.4844 Q64.4063,136.4844 62.9844,135.2188 Q61.5625,133.9531 61.5625,132.0156 L61.5625,130.8906 Q61.5625,128.8594 62.8906,127.4844 Q64.2188,126.0938 66.1875,126.0938 Q67.375,126.0938 68.5938,126.6719 L68.7656,126.75 Q69.0625,126.3438 69.4844,126.3438 Q69.9688,126.3438 70.1406,126.6406 Q70.3281,126.9219 70.3281,127.4688 L70.3281,128.8906 Q70.3281,130.0156 69.4844,130.0156 Q69.1719,130.0156 68.9688,129.8438 Q68.7813,129.6719 68.7344,129.5313 Q68.7031,129.375 68.6563,129.1094 Q68.5469,128.5938 68.0313,128.2813 Q67.5156,127.9688 67.0625,127.8906 Q66.625,127.7969 66.25,127.7969 Q64.9688,127.7969 64.1094,128.6719 Q63.2656,129.5469 63.2656,130.8906 L63.2656,131.9844 Q63.2656,133.2656 64.1719,134.0313 Q65.0781,134.7813 66.6094,134.7813 Z " fill="#000000"/><text fill="#000000" font-family="sans-serif" font-size="14" lengthAdjust="spacing" textLength="103" x="87.75" y="136.6">DemoApplication</text><line style="stroke:#555555;stroke-width:0.5;" x1="10" x2="236" y1="147" y2="147"/><rect fill="none" height="6" style="stroke:#C82930;stroke-width:1.0;" width="6" x="17" y="155"/><text fill="#000000" font-family="sans-serif" font-size="14" lengthAdjust="spacing" textLength="59" x="29" y="164.9999">Ref : U32</text><line style="stroke:#555555;stroke-width:0.5;" x1="10" x2="236" y1="171.7999" y2="171.7999"/><polygon fill="#FFFF44" points="20,177.7999,24,181.7999,20,185.7999,16,181.7999" style="stroke:#B38D22;stroke-width:1.0;"/><text fill="#000000" font-family="sans-serif" font-size="14" lengthAdjust="spacing" text-decoration="underline" textLength="148" x="29" y="189.7999">DemoApplication_New()</text><polygon fill="#FFFF44" points="20,194.5999,24,198.5999,20,202.5999,16,198.5999" style="stroke:#B38D22;stroke-width:1.0;"/><text fill="#000000" font-family="sans-serif" font-size="14" lengthAdjust="spacing" text-decoration="underline" textLength="202" x="29" y="206.5998">DemoApplication_GetAttributes()</text><ellipse cx="20" cy="216.3998" fill="#84BE84" rx="3" ry="3" style="stroke:#038048;stroke-width:1.0;"/><text fill="#000000" font-family="sans-serif" font-size="14" lengthAdjust="spacing" text-decoration="underline" textLength="162" x="29" y="223.3997">DemoApplication_Create()</text><polygon fill="#FFFF44" points="20,228.1997,24,232.1997,20,236.1997,16,232.1997" style="stroke:#B38D22;stroke-width:1.0;"/><text fill="#000000" font-family="sans-serif" font-size="14" lengthAdjust="spacing" textLength="52" x="29" y="240.1996">Layout()</text><polygon fill="#FFFF44" points="20,244.9996,24,248.9996,20,252.9996,16,248.9996" style="stroke:#B38D22;stroke-width:1.0;"/><text fill="#000000" font-family="sans-serif" font-size="14" lengthAdjust="spacing" textLength="94" x="29" y="256.9996">ExecuteMenu()</text><polygon fill="#FFFF44" points="20,261.7996,24,265.7996,20,269.7996,16,265.7996" style="stroke:#B38D22;stroke-width:1.0;"/><text fill="#000000" font-family="sans-serif" font-size="14" lengthAdjust="spacing" textLength="96" x="29" y="273.7995">AddTAFMenu()</text><polygon fill="#FFFF44" points="20,278.5995,24,282.5995,20,286.5995,16,282.5995" style="stroke:#B38D22;stroke-width:1.0;"/><text fill="#000000" font-family="sans-serif" font-size="14" lengthAdjust="spacing" textLength="114" x="29" y="290.5994">RefreshTafMenu()</text><ellipse cx="20" cy="300.3994" fill="#84BE84" rx="3" ry="3" style="stroke:#038048;stroke-width:1.0;"/><text fill="#000000" font-family="sans-serif" font-size="14" lengthAdjust="spacing" textLength="51" x="29" y="307.3994">Create()</text><ellipse cx="20" cy="317.1993" fill="#84BE84" rx="3" ry="3" style="stroke:#038048;stroke-width:1.0;"/><text fill="#000000" font-family="sans-serif" font-size="14" lengthAdjust="spacing" textLength="57" x="29" y="324.1993">Destroy()</text><ellipse cx="20" cy="333.9993" fill="#84BE84" rx="3" ry="3" style="stroke:#038048;stroke-width:1.0;"/><text fill="#000000" font-family="sans-serif" font-size="14" lengthAdjust="spacing" textLength="144" x="29" y="340.9992">GetExternalInterfaces()</text><ellipse cx="20" cy="350.7992" fill="#84BE84" rx="3" ry="3" style="stroke:#038048;stroke-width:1.0;"/><text fill="#000000" font-family="sans-serif" font-size="14" lengthAdjust="spacing" textLength="142" x="29" y="357.7991">SetExternalInterfaces()</text><ellipse cx="20" cy="367.5991" fill="#84BE84" rx="3" ry="3" style="stroke:#038048;stroke-width:1.0;"/><text fill="#000000" font-family="sans-serif" font-size="14" lengthAdjust="spacing" textLength="144" x="29" y="374.5991">AuthorizationUpdated()</text><ellipse cx="20" cy="384.399" fill="#84BE84" rx="3" ry="3" style="stroke:#038048;stroke-width:1.0;"/><text fill="#000000" font-family="sans-serif" font-size="14" lengthAdjust="spacing" textLength="176" x="29" y="391.399">GetPersistentConfiguration()</text><ellipse cx="20" cy="401.199" fill="#84BE84" rx="3" ry="3" style="stroke:#038048;stroke-width:1.0;"/><text fill="#000000" font-family="sans-serif" font-size="14" lengthAdjust="spacing" textLength="174" x="29" y="408.1989">SetPersistentConfiguration()</text></g><!--MD5=[7527e2d4fb4cfcf2665acf62b5b5e47b]
class MasterGUI--><g id="elem_MasterGUI"><rect fill="#FFFFFF" height="48" id="MasterGUI" rx="2.5" ry="2.5" style="stroke:#555555;stroke-width:0.5;" width="100" x="73" y="7"/><rect fill="#808080" height="32" rx="2.5" ry="2.5" style="stroke:#808080;stroke-width:0.5;" width="100" x="73" y="7"/><rect fill="#808080" height="2.5" style="stroke:#808080;stroke-width:0.5;" width="100" x="73" y="36.5"/><rect fill="none" height="48" id="MasterGUI" rx="2.5" ry="2.5" style="stroke:#555555;stroke-width:0.5;" width="100" x="73" y="7"/><ellipse cx="88" cy="23" fill="#ADD1B2" rx="11" ry="11" style="stroke:#181818;stroke-width:1.0;"/><path d="M87.3594,26.7813 Q88.1563,26.7813 88.7188,26.5938 Q89.2969,26.3906 89.5313,26.1719 Q89.7813,25.9375 90.0156,25.75 Q90.2656,25.5469 90.4844,25.5469 Q90.8281,25.5469 91.0781,25.8125 Q91.3438,26.0625 91.3438,26.3906 Q91.3438,27.125 90.1719,27.8125 Q89.0156,28.4844 87.3125,28.4844 Q85.1563,28.4844 83.7344,27.2188 Q82.3125,25.9531 82.3125,24.0156 L82.3125,22.8906 Q82.3125,20.8594 83.6406,19.4844 Q84.9688,18.0938 86.9375,18.0938 Q88.125,18.0938 89.3438,18.6719 L89.5156,18.75 Q89.8125,18.3438 90.2344,18.3438 Q90.7188,18.3438 90.8906,18.6406 Q91.0781,18.9219 91.0781,19.4688 L91.0781,20.8906 Q91.0781,22.0156 90.2344,22.0156 Q89.9219,22.0156 89.7188,21.8438 Q89.5313,21.6719 89.4844,21.5313 Q89.4531,21.375 89.4063,21.1094 Q89.2969,20.5938 88.7813,20.2813 Q88.2656,19.9688 87.8125,19.8906 Q87.375,19.7969 87,19.7969 Q85.7188,19.7969 84.8594,20.6719 Q84.0156,21.5469 84.0156,22.8906 L84.0156,23.9844 Q84.0156,25.2656 84.9219,26.0313 Q85.8281,26.7813 87.3594,26.7813 Z " fill="#000000"/><text fill="#000000" font-family="sans-serif" font-size="14" lengthAdjust="spacing" textLength="68" x="102" y="28.6">MasterGUI</text><line style="stroke:#555555;stroke-width:0.5;" x1="74" x2="172" y1="39" y2="39"/><line style="stroke:#555555;stroke-width:0.5;" x1="74" x2="172" y1="47" y2="47"/></g><!--MD5=[ebe827e9f6392dec7ed33f3ea05be12f]
reverse link MasterGUI to DemoApplication--><g id="link_MasterGUI_DemoApplication"><path codeLine="26" d="M123,75.45 C123,87.23 123,100.68 123,114.85 " fill="none" id="MasterGUI-backto-DemoApplication" style="stroke:#181818;stroke-width:1.0;"/><polygon fill="none" points="116,75.09,123,55.09,130,75.09,116,75.09" style="stroke:#181818;stroke-width:1.0;"/></g><!--MD5=[7ccfe3a1f150c1da83aaf483ca8722d6]
@startuml
set namespaceSeparator :
skinparam ClassBackgroundColor #FFFFFF
skinparam ClassBorderColor #555555
skinparam ClassFontColor #000000
skinparam ClassHeaderBackgroundColor #808080

skinparam top to bottom direction
class "DemoApplication" {
{field} -Ref : U32
{static} {method} #DemoApplication_New()
{static} {method} #DemoApplication_GetAttributes()
{static} {method} +DemoApplication_Create()
{method} #Layout()
{method} #ExecuteMenu()
{method} #AddTAFMenu()
{method} #RefreshTafMenu()
{method} +Create()
{method} +Destroy()
{method} +GetExternalInterfaces()
{method} +SetExternalInterfaces()
{method} +AuthorizationUpdated()
{method} +GetPersistentConfiguration()
{method} +SetPersistentConfiguration()

}
"MasterGUI" <|- - "DemoApplication"



@enduml

PlantUML version 1.2022.5(Sat Apr 30 10:55:52 GMT 2022)
(GPL source distribution)
Java Runtime: OpenJDK Runtime Environment
JVM: OpenJDK 64-Bit Server VM
Default Encoding: UTF-8
Language: en
Country: US
--></g></svg>