<?xml version="1.0" encoding="UTF-8" standalone="no"?><svg xmlns="http://www.w3.org/2000/svg" xmlns:xlink="http://www.w3.org/1999/xlink" contentStyleType="text/css" height="186px" preserveAspectRatio="none" style="width:155px;height:186px;background:#FFFFFF;" version="1.1" viewBox="0 0 155 186" width="155px" zoomAndPan="magnify"><defs/><g><!--MD5=[cfd7cdc0b39abb2ff935188810419e3c]
class ITAFTextViewer--><g id="elem_ITAFTextViewer"><rect codeLine="8" fill="#FFFFFF" height="64.2969" id="ITAFTextViewer" rx="2.5" ry="2.5" style="stroke:#555555;stroke-width:0.5;" width="141" x="7" y="115"/><rect fill="#808080" height="32" rx="2.5" ry="2.5" style="stroke:#808080;stroke-width:0.5;" width="141" x="7" y="115"/><rect fill="#808080" height="2.5" style="stroke:#808080;stroke-width:0.5;" width="141" x="7" y="144.5"/><rect codeLine="8" fill="none" height="64.2969" id="ITAFTextViewer" rx="2.5" ry="2.5" style="stroke:#555555;stroke-width:0.5;" width="141" x="7" y="115"/><ellipse cx="22" cy="131" fill="#B4A7E5" rx="11" ry="11" style="stroke:#181818;stroke-width:1.0;"/><path d="M17.9219,126.7656 L17.9219,124.6094 L25.3125,124.6094 L25.3125,126.7656 L22.8438,126.7656 L22.8438,134.8438 L25.3125,134.8438 L25.3125,137 L17.9219,137 L17.9219,134.8438 L20.3906,134.8438 L20.3906,126.7656 L17.9219,126.7656 Z " fill="#000000"/><text fill="#000000" font-family="sans-serif" font-size="14" font-style="italic" lengthAdjust="spacing" textLength="109" x="36" y="135.8467">ITAFTextViewer</text><line style="stroke:#555555;stroke-width:0.5;" x1="8" x2="147" y1="147" y2="147"/><line style="stroke:#555555;stroke-width:0.5;" x1="8" x2="147" y1="155" y2="155"/><ellipse cx="18" cy="168.6484" fill="#84BE84" rx="3" ry="3" style="stroke:#038048;stroke-width:1.0;"/><text fill="#000000" font-family="sans-serif" font-size="14" lengthAdjust="spacing" textLength="90" x="27" y="171.9951">UpdateText()</text></g><!--MD5=[163b904ce3f0cc2f7db427f2921361dd]
class IFrontPanel--><g id="elem_IFrontPanel"><rect codeLine="13" fill="#FFFFFF" height="48" id="IFrontPanel" rx="2.5" ry="2.5" style="stroke:#555555;stroke-width:0.5;" width="109" x="23" y="7"/><rect fill="#808080" height="32" rx="2.5" ry="2.5" style="stroke:#808080;stroke-width:0.5;" width="109" x="23" y="7"/><rect fill="#808080" height="2.5" style="stroke:#808080;stroke-width:0.5;" width="109" x="23" y="36.5"/><rect codeLine="13" fill="none" height="48" id="IFrontPanel" rx="2.5" ry="2.5" style="stroke:#555555;stroke-width:0.5;" width="109" x="23" y="7"/><ellipse cx="38" cy="23" fill="#B4A7E5" rx="11" ry="11" style="stroke:#181818;stroke-width:1.0;"/><path d="M33.9219,18.7656 L33.9219,16.6094 L41.3125,16.6094 L41.3125,18.7656 L38.8438,18.7656 L38.8438,26.8438 L41.3125,26.8438 L41.3125,29 L33.9219,29 L33.9219,26.8438 L36.3906,26.8438 L36.3906,18.7656 L33.9219,18.7656 Z " fill="#000000"/><text fill="#000000" font-family="sans-serif" font-size="14" font-style="italic" lengthAdjust="spacing" textLength="77" x="52" y="27.8467">IFrontPanel</text><line style="stroke:#555555;stroke-width:0.5;" x1="24" x2="131" y1="39" y2="39"/><line style="stroke:#555555;stroke-width:0.5;" x1="24" x2="131" y1="47" y2="47"/></g><!--MD5=[986eb326061296aae6d5886c2d702e50]
reverse link IFrontPanel to ITAFTextViewer--><g id="link_IFrontPanel_ITAFTextViewer"><path codeLine="12" d="M77.5,75.09 C77.5,88.28 77.5,102.52 77.5,114.75 " fill="none" id="IFrontPanel-backto-ITAFTextViewer" style="stroke:#181818;stroke-width:1.0;stroke-dasharray:7.0,7.0;"/><polygon fill="none" points="70.5,75.07,77.5,55.07,84.5,75.07,70.5,75.07" style="stroke:#181818;stroke-width:1.0;"/></g><!--MD5=[8abfbe064a2569d9d7405b12a274816c]
@startuml
set namespaceSeparator :
skinparam ClassBackgroundColor #FFFFFF
skinparam ClassBorderColor #555555
skinparam ClassFontColor #000000
skinparam ClassHeaderBackgroundColor #808080

skinparam top to bottom direction
interface "ITAFTextViewer" {
{method} +UpdateText()

}
"IFrontPanel" <|.. "ITAFTextViewer"
interface "IFrontPanel" {}




@enduml

PlantUML version 1.2022.12(Sun Oct 23 18:12:26 GMT 2022)
(GPL source distribution)
Java Runtime: OpenJDK Runtime Environment
JVM: OpenJDK 64-Bit Server VM
Default Encoding: UTF-8
Language: en
Country: US
--></g></svg>