<?xml version="1.0" encoding="UTF-8" standalone="no"?><svg xmlns="http://www.w3.org/2000/svg" xmlns:xlink="http://www.w3.org/1999/xlink" contentStyleType="text/css" height="539px" preserveAspectRatio="none" style="width:296px;height:539px;background:#FFFFFF;" version="1.1" viewBox="0 0 296 539" width="296px" zoomAndPan="magnify"><defs/><g><!--MD5=[67dfefff5d31e7b9438b388096f9e198]
cluster TemplateGUI.lvlib--><g id="cluster_TemplateGUI.lvlib"><path d="M14.5,80 L136.5,80 A3.75,3.75 0 0 1 139,82.5 L146,102.7999 L271.5,102.7999 A2.5,2.5 0 0 1 274,105.2999 L274,529.5 A2.5,2.5 0 0 1 271.5,532 L14.5,532 A2.5,2.5 0 0 1 12,529.5 L12,82.5 A2.5,2.5 0 0 1 14.5,80 " style="stroke:#000000;stroke-width:1.5;fill:none;"/><line style="stroke:#000000;stroke-width:1.5;fill:none;" x1="12" x2="146" y1="102.7999" y2="102.7999"/><text fill="#000000" font-family="sans-serif" font-size="14" font-weight="bold" lengthAdjust="spacing" textLength="121" x="16" y="95.9999">TemplateGUI.lvlib</text></g><!--MD5=[b206ccd9f69d6917624022ed4fb1cd98]
class TemplateGUI.lvlib:TemplateGUI--><g id="elem_TemplateGUI.lvlib:TemplateGUI"><rect codeLine="8" fill="#FFFFFF" height="400.7985" id="TemplateGUI.lvlib:TemplateGUI" rx="2.5" ry="2.5" style="stroke:#555555;stroke-width:0.5;" width="231" x="27.5" y="115"/><rect fill="#808080" height="32" rx="2.5" ry="2.5" style="stroke:#808080;stroke-width:0.5;" width="231" x="27.5" y="115"/><rect fill="#808080" height="2.5" style="stroke:#808080;stroke-width:0.5;" width="231" x="27.5" y="144.5"/><rect codeLine="8" fill="none" height="400.7985" id="TemplateGUI.lvlib:TemplateGUI" rx="2.5" ry="2.5" style="stroke:#555555;stroke-width:0.5;" width="231" x="27.5" y="115"/><ellipse cx="97.75" cy="131" fill="#ADD1B2" rx="11" ry="11" style="stroke:#181818;stroke-width:1.0;"/><path d="M97.1094,134.7813 Q97.9063,134.7813 98.4688,134.5938 Q99.0469,134.3906 99.2813,134.1719 Q99.5313,133.9375 99.7656,133.75 Q100.0156,133.5469 100.2344,133.5469 Q100.5781,133.5469 100.8281,133.8125 Q101.0938,134.0625 101.0938,134.3906 Q101.0938,135.125 99.9219,135.8125 Q98.7656,136.4844 97.0625,136.4844 Q94.9063,136.4844 93.4844,135.2188 Q92.0625,133.9531 92.0625,132.0156 L92.0625,130.8906 Q92.0625,128.8594 93.3906,127.4844 Q94.7188,126.0938 96.6875,126.0938 Q97.875,126.0938 99.0938,126.6719 L99.2656,126.75 Q99.5625,126.3438 99.9844,126.3438 Q100.4688,126.3438 100.6406,126.6406 Q100.8281,126.9219 100.8281,127.4688 L100.8281,128.8906 Q100.8281,130.0156 99.9844,130.0156 Q99.6719,130.0156 99.4688,129.8438 Q99.2813,129.6719 99.2344,129.5313 Q99.2031,129.375 99.1563,129.1094 Q99.0469,128.5938 98.5313,128.2813 Q98.0156,127.9688 97.5625,127.8906 Q97.125,127.7969 96.75,127.7969 Q95.4688,127.7969 94.6094,128.6719 Q93.7656,129.5469 93.7656,130.8906 L93.7656,131.9844 Q93.7656,133.2656 94.6719,134.0313 Q95.5781,134.7813 97.1094,134.7813 Z " fill="#000000"/><text fill="#000000" font-family="sans-serif" font-size="14" lengthAdjust="spacing" textLength="82" x="118.25" y="136.6">TemplateGUI</text><line style="stroke:#555555;stroke-width:0.5;" x1="28.5" x2="257.5" y1="147" y2="147"/><rect fill="none" height="6" style="stroke:#C82930;stroke-width:1.0;" width="6" x="35.5" y="155"/><text fill="#000000" font-family="sans-serif" font-size="14" lengthAdjust="spacing" textLength="59" x="47.5" y="164.9999">Ref : U32</text><line style="stroke:#555555;stroke-width:0.5;" x1="28.5" x2="257.5" y1="171.7999" y2="171.7999"/><polygon fill="#FFFF44" points="38.5,177.7999,42.5,181.7999,38.5,185.7999,34.5,181.7999" style="stroke:#B38D22;stroke-width:1.0;"/><text fill="#000000" font-family="sans-serif" font-size="14" lengthAdjust="spacing" text-decoration="underline" textLength="96" x="47.5" y="189.7999">StartMainGUI()</text><polygon fill="#FFFF44" points="38.5,194.5999,42.5,198.5999,38.5,202.5999,34.5,198.5999" style="stroke:#B38D22;stroke-width:1.0;"/><text fill="#000000" font-family="sans-serif" font-size="14" lengthAdjust="spacing" text-decoration="underline" textLength="108" x="47.5" y="206.5998">RequestDestroy()</text><polygon fill="#FFFF44" points="38.5,211.3998,42.5,215.3998,38.5,219.3998,34.5,215.3998" style="stroke:#B38D22;stroke-width:1.0;"/><text fill="#000000" font-family="sans-serif" font-size="14" lengthAdjust="spacing" text-decoration="underline" textLength="66" x="47.5" y="223.3997">MainGUI()</text><polygon fill="#FFFF44" points="38.5,228.1997,42.5,232.1997,38.5,236.1997,34.5,232.1997" style="stroke:#B38D22;stroke-width:1.0;"/><text fill="#000000" font-family="sans-serif" font-size="14" lengthAdjust="spacing" text-decoration="underline" textLength="94" x="47.5" y="240.1996">StopMainGUI()</text><polygon fill="#FFFF44" points="38.5,244.9996,42.5,248.9996,38.5,252.9996,34.5,248.9996" style="stroke:#B38D22;stroke-width:1.0;"/><text fill="#000000" font-family="sans-serif" font-size="14" lengthAdjust="spacing" text-decoration="underline" textLength="127" x="47.5" y="256.9996">TemplateGUI_New()</text><polygon fill="#FFFF44" points="38.5,261.7996,42.5,265.7996,38.5,269.7996,34.5,265.7996" style="stroke:#B38D22;stroke-width:1.0;"/><text fill="#000000" font-family="sans-serif" font-size="14" lengthAdjust="spacing" text-decoration="underline" textLength="131" x="47.5" y="273.7995">MainGUIRepository()</text><polygon fill="#FFFF44" points="38.5,278.5995,42.5,282.5995,38.5,286.5995,34.5,282.5995" style="stroke:#B38D22;stroke-width:1.0;"/><text fill="#000000" font-family="sans-serif" font-size="14" lengthAdjust="spacing" text-decoration="underline" textLength="181" x="47.5" y="290.5994">TemplateGUI_GetAttributes()</text><polygon fill="#FFFF44" points="38.5,295.3994,42.5,299.3994,38.5,303.3994,34.5,299.3994" style="stroke:#B38D22;stroke-width:1.0;"/><text fill="#000000" font-family="sans-serif" font-size="14" lengthAdjust="spacing" text-decoration="underline" textLength="205" x="47.5" y="307.3994">TemplateGUI_SendAndReceive()</text><rect fill="#F24D5C" height="6" style="stroke:#C82930;stroke-width:1.0;" width="6" x="35.5" y="314.1993"/><text fill="#000000" font-family="sans-serif" font-size="14" lengthAdjust="spacing" text-decoration="underline" textLength="193" x="47.5" y="324.1993">TemplateGUI_MainGUIActive()</text><ellipse cx="38.5" cy="333.9993" fill="#84BE84" rx="3" ry="3" style="stroke:#038048;stroke-width:1.0;"/><text fill="#000000" font-family="sans-serif" font-size="14" lengthAdjust="spacing" text-decoration="underline" textLength="141" x="47.5" y="340.9992">TemplateGUI_Create()</text><ellipse cx="38.5" cy="350.7992" fill="#84BE84" rx="3" ry="3" style="stroke:#038048;stroke-width:1.0;"/><text fill="#000000" font-family="sans-serif" font-size="14" lengthAdjust="spacing" text-decoration="underline" textLength="159" x="47.5" y="357.7991">ControlMainGUIWindow()</text><ellipse cx="38.5" cy="367.5991" fill="#84BE84" rx="3" ry="3" style="stroke:#038048;stroke-width:1.0;"/><text fill="#000000" font-family="sans-serif" font-size="14" lengthAdjust="spacing" textLength="176" x="47.5" y="374.5991">GetPersistentConfiguration()</text><ellipse cx="38.5" cy="384.399" fill="#84BE84" rx="3" ry="3" style="stroke:#038048;stroke-width:1.0;"/><text fill="#000000" font-family="sans-serif" font-size="14" lengthAdjust="spacing" textLength="174" x="47.5" y="391.399">SetPersistentConfiguration()</text><ellipse cx="38.5" cy="401.199" fill="#84BE84" rx="3" ry="3" style="stroke:#038048;stroke-width:1.0;"/><text fill="#000000" font-family="sans-serif" font-size="14" lengthAdjust="spacing" textLength="144" x="47.5" y="408.1989">GetExternalInterfaces()</text><ellipse cx="38.5" cy="417.9989" fill="#84BE84" rx="3" ry="3" style="stroke:#038048;stroke-width:1.0;"/><text fill="#000000" font-family="sans-serif" font-size="14" lengthAdjust="spacing" textLength="142" x="47.5" y="424.9988">SetExternalInterfaces()</text><ellipse cx="38.5" cy="434.7988" fill="#84BE84" rx="3" ry="3" style="stroke:#038048;stroke-width:1.0;"/><text fill="#000000" font-family="sans-serif" font-size="14" lengthAdjust="spacing" textLength="137" x="47.5" y="441.7988">ExecuteButtonAction()</text><ellipse cx="38.5" cy="451.5988" fill="#84BE84" rx="3" ry="3" style="stroke:#038048;stroke-width:1.0;"/><text fill="#000000" font-family="sans-serif" font-size="14" lengthAdjust="spacing" textLength="99" x="47.5" y="458.5987">GetFrontPanel()</text><ellipse cx="38.5" cy="468.3987" fill="#84BE84" rx="3" ry="3" style="stroke:#038048;stroke-width:1.0;"/><text fill="#000000" font-family="sans-serif" font-size="14" lengthAdjust="spacing" textLength="51" x="47.5" y="475.3986">Create()</text><ellipse cx="38.5" cy="485.1986" fill="#84BE84" rx="3" ry="3" style="stroke:#038048;stroke-width:1.0;"/><text fill="#000000" font-family="sans-serif" font-size="14" lengthAdjust="spacing" textLength="57" x="47.5" y="492.1985">Destroy()</text><ellipse cx="38.5" cy="501.9985" fill="#84BE84" rx="3" ry="3" style="stroke:#038048;stroke-width:1.0;"/><text fill="#000000" font-family="sans-serif" font-size="14" lengthAdjust="spacing" textLength="99" x="47.5" y="508.9985">IsGUIRunning()</text></g><!--MD5=[0598474d39ed4a9017b81a2a55acc3b1]
class TAFBaseGUI--><g id="elem_TAFBaseGUI"><rect fill="#FFFFFF" height="48" id="TAFBaseGUI" rx="2.5" ry="2.5" style="stroke:#555555;stroke-width:0.5;" width="114" x="7" y="7"/><rect fill="#808080" height="32" rx="2.5" ry="2.5" style="stroke:#808080;stroke-width:0.5;" width="114" x="7" y="7"/><rect fill="#808080" height="2.5" style="stroke:#808080;stroke-width:0.5;" width="114" x="7" y="36.5"/><rect fill="none" height="48" id="TAFBaseGUI" rx="2.5" ry="2.5" style="stroke:#555555;stroke-width:0.5;" width="114" x="7" y="7"/><ellipse cx="22" cy="23" fill="#ADD1B2" rx="11" ry="11" style="stroke:#181818;stroke-width:1.0;"/><path d="M21.3594,26.7813 Q22.1563,26.7813 22.7188,26.5938 Q23.2969,26.3906 23.5313,26.1719 Q23.7813,25.9375 24.0156,25.75 Q24.2656,25.5469 24.4844,25.5469 Q24.8281,25.5469 25.0781,25.8125 Q25.3438,26.0625 25.3438,26.3906 Q25.3438,27.125 24.1719,27.8125 Q23.0156,28.4844 21.3125,28.4844 Q19.1563,28.4844 17.7344,27.2188 Q16.3125,25.9531 16.3125,24.0156 L16.3125,22.8906 Q16.3125,20.8594 17.6406,19.4844 Q18.9688,18.0938 20.9375,18.0938 Q22.125,18.0938 23.3438,18.6719 L23.5156,18.75 Q23.8125,18.3438 24.2344,18.3438 Q24.7188,18.3438 24.8906,18.6406 Q25.0781,18.9219 25.0781,19.4688 L25.0781,20.8906 Q25.0781,22.0156 24.2344,22.0156 Q23.9219,22.0156 23.7188,21.8438 Q23.5313,21.6719 23.4844,21.5313 Q23.4531,21.375 23.4063,21.1094 Q23.2969,20.5938 22.7813,20.2813 Q22.2656,19.9688 21.8125,19.8906 Q21.375,19.7969 21,19.7969 Q19.7188,19.7969 18.8594,20.6719 Q18.0156,21.5469 18.0156,22.8906 L18.0156,23.9844 Q18.0156,25.2656 18.9219,26.0313 Q19.8281,26.7813 21.3594,26.7813 Z " fill="#000000"/><text fill="#000000" font-family="sans-serif" font-size="14" lengthAdjust="spacing" textLength="82" x="36" y="28.6">TAFBaseGUI</text><line style="stroke:#555555;stroke-width:0.5;" x1="8" x2="120" y1="39" y2="39"/><line style="stroke:#555555;stroke-width:0.5;" x1="8" x2="120" y1="47" y2="47"/></g><!--MD5=[279d10572fd96349ac6b0a9cb9c87a2e]
class ITAFGUIActions--><g id="elem_ITAFGUIActions"><rect codeLine="34" fill="#FFFFFF" height="48" id="ITAFGUIActions" rx="2.5" ry="2.5" style="stroke:#555555;stroke-width:0.5;" width="133" x="156.5" y="7"/><rect fill="#808080" height="32" rx="2.5" ry="2.5" style="stroke:#808080;stroke-width:0.5;" width="133" x="156.5" y="7"/><rect fill="#808080" height="2.5" style="stroke:#808080;stroke-width:0.5;" width="133" x="156.5" y="36.5"/><rect codeLine="34" fill="none" height="48" id="ITAFGUIActions" rx="2.5" ry="2.5" style="stroke:#555555;stroke-width:0.5;" width="133" x="156.5" y="7"/><ellipse cx="171.5" cy="23" fill="#B4A7E5" rx="11" ry="11" style="stroke:#181818;stroke-width:1.0;"/><path d="M174.1719,26.2969 Q174.7188,26.2969 175,26.4844 Q175.2813,26.6563 175.2813,27.1563 Q175.2813,28 174.1719,28 L169.0313,28 Q167.9063,28 167.9063,27.1563 Q167.9063,26.6563 168.1875,26.4844 Q168.4844,26.2969 169.0313,26.2969 L170.75,26.2969 L170.75,19.7813 L169.0313,19.7813 Q167.9063,19.7813 167.9063,18.9375 Q167.9063,18.4531 168.1875,18.2813 Q168.4844,18.0938 169.0313,18.0938 L174.1719,18.0938 Q174.7188,18.0938 175,18.2813 Q175.2813,18.4531 175.2813,18.9375 Q175.2813,19.7813 174.1719,19.7813 L172.4531,19.7813 L172.4531,26.2969 L174.1719,26.2969 Z " fill="#000000"/><text fill="#000000" font-family="sans-serif" font-size="14" font-style="italic" lengthAdjust="spacing" textLength="101" x="185.5" y="28.6">ITAFGUIActions</text><line style="stroke:#555555;stroke-width:0.5;" x1="157.5" x2="288.5" y1="39" y2="39"/><line style="stroke:#555555;stroke-width:0.5;" x1="157.5" x2="288.5" y1="47" y2="47"/></g><!--MD5=[0b0ab80e792cc58c54ab116b167b1a24]
reverse link TAFBaseGUI to TemplateGUI.lvlib:TemplateGUI--><g id="link_TAFBaseGUI_TemplateGUI.lvlib:TemplateGUI"><path codeLine="32" d="M75.97,74.79 C79.27,86.6 83.08,100.24 87.18,114.89 " fill="none" id="TAFBaseGUI-backto-TemplateGUI.lvlib:TemplateGUI" style="stroke:#181818;stroke-width:1.0;"/><polygon fill="none" points="69.11,76.26,70.46,55.12,82.59,72.49,69.11,76.26" style="stroke:#181818;stroke-width:1.0;"/></g><!--MD5=[3145141ce45501d02eb490079a83cef9]
reverse link ITAFGUIActions to TemplateGUI.lvlib:TemplateGUI--><g id="link_ITAFGUIActions_TemplateGUI.lvlib:TemplateGUI"><path codeLine="33" d="M210.88,74.79 C207.54,86.6 203.68,100.24 199.53,114.89 " fill="none" id="ITAFGUIActions-backto-TemplateGUI.lvlib:TemplateGUI" style="stroke:#181818;stroke-width:1.0;stroke-dasharray:7.0,7.0;"/><polygon fill="none" points="204.27,72.45,216.45,55.12,217.74,76.27,204.27,72.45" style="stroke:#181818;stroke-width:1.0;"/></g><!--MD5=[39c3c9e967d9bce9cbcb0a0224233ca2]
@startuml
set namespaceSeparator :
skinparam ClassBackgroundColor #FFFFFF
skinparam ClassBorderColor #555555
skinparam ClassFontColor #000000
skinparam ClassHeaderBackgroundColor #808080

skinparam top to bottom direction
class "TemplateGUI.lvlib:TemplateGUI" {
{field} -Ref : U32
{static} {method} #StartMainGUI()
{static} {method} #RequestDestroy()
{static} {method} #MainGUI()
{static} {method} #StopMainGUI()
{static} {method} #TemplateGUI_New()
{static} {method} #MainGUIRepository()
{static} {method} #TemplateGUI_GetAttributes()
{static} {method} #TemplateGUI_SendAndReceive()
{static} {method} -TemplateGUI_MainGUIActive()
{static} {method} +TemplateGUI_Create()
{static} {method} +ControlMainGUIWindow()
{method} +GetPersistentConfiguration()
{method} +SetPersistentConfiguration()
{method} +GetExternalInterfaces()
{method} +SetExternalInterfaces()
{method} +ExecuteButtonAction()
{method} +GetFrontPanel()
{method} +Create()
{method} +Destroy()
{method} +IsGUIRunning()

}
"TAFBaseGUI" <|- - "TemplateGUI.lvlib:TemplateGUI"
"ITAFGUIActions" <|.. "TemplateGUI.lvlib:TemplateGUI"
interface "ITAFGUIActions" {}




@enduml

PlantUML version 1.2022.5(Sat Apr 30 10:55:52 GMT 2022)
(GPL source distribution)
Java Runtime: OpenJDK Runtime Environment
JVM: OpenJDK 64-Bit Server VM
Default Encoding: UTF-8
Language: en
Country: US
--></g></svg>