<?xml version="1.0" encoding="UTF-8" standalone="no"?><svg xmlns="http://www.w3.org/2000/svg" xmlns:xlink="http://www.w3.org/1999/xlink" contentStyleType="text/css" height="203px" preserveAspectRatio="none" style="width:189px;height:203px;background:#FFFFFF;" version="1.1" viewBox="0 0 189 203" width="189px" zoomAndPan="magnify"><defs/><g><!--MD5=[155bae85ec11f59096949f16b763e34d]
class ErrorCreationTAF--><g id="elem_ErrorCreationTAF"><rect codeLine="8" fill="#FFFFFF" height="81.5999" id="ErrorCreationTAF" rx="2.5" ry="2.5" style="stroke:#555555;stroke-width:0.5;" width="141" x="24" y="115"/><rect fill="#808080" height="32" rx="2.5" ry="2.5" style="stroke:#808080;stroke-width:0.5;" width="141" x="24" y="115"/><rect fill="#808080" height="2.5" style="stroke:#808080;stroke-width:0.5;" width="141" x="24" y="144.5"/><rect codeLine="8" fill="none" height="81.5999" id="ErrorCreationTAF" rx="2.5" ry="2.5" style="stroke:#555555;stroke-width:0.5;" width="141" x="24" y="115"/><ellipse cx="39" cy="131" fill="#ADD1B2" rx="11" ry="11" style="stroke:#181818;stroke-width:1.0;"/><path d="M38.3594,134.7813 Q39.1563,134.7813 39.7188,134.5938 Q40.2969,134.3906 40.5313,134.1719 Q40.7813,133.9375 41.0156,133.75 Q41.2656,133.5469 41.4844,133.5469 Q41.8281,133.5469 42.0781,133.8125 Q42.3438,134.0625 42.3438,134.3906 Q42.3438,135.125 41.1719,135.8125 Q40.0156,136.4844 38.3125,136.4844 Q36.1563,136.4844 34.7344,135.2188 Q33.3125,133.9531 33.3125,132.0156 L33.3125,130.8906 Q33.3125,128.8594 34.6406,127.4844 Q35.9688,126.0938 37.9375,126.0938 Q39.125,126.0938 40.3438,126.6719 L40.5156,126.75 Q40.8125,126.3438 41.2344,126.3438 Q41.7188,126.3438 41.8906,126.6406 Q42.0781,126.9219 42.0781,127.4688 L42.0781,128.8906 Q42.0781,130.0156 41.2344,130.0156 Q40.9219,130.0156 40.7188,129.8438 Q40.5313,129.6719 40.4844,129.5313 Q40.4531,129.375 40.4063,129.1094 Q40.2969,128.5938 39.7813,128.2813 Q39.2656,127.9688 38.8125,127.8906 Q38.375,127.7969 38,127.7969 Q36.7188,127.7969 35.8594,128.6719 Q35.0156,129.5469 35.0156,130.8906 L35.0156,131.9844 Q35.0156,133.2656 35.9219,134.0313 Q36.8281,134.7813 38.3594,134.7813 Z " fill="#000000"/><text fill="#000000" font-family="sans-serif" font-size="14" lengthAdjust="spacing" textLength="109" x="53" y="136.6">ErrorCreationTAF</text><line style="stroke:#555555;stroke-width:0.5;" x1="25" x2="164" y1="147" y2="147"/><rect fill="none" height="6" style="stroke:#C82930;stroke-width:1.0;" width="6" x="32" y="155"/><text fill="#000000" font-family="sans-serif" font-size="14" lengthAdjust="spacing" textLength="93" x="44" y="164.9999">None : Boolean</text><line style="stroke:#555555;stroke-width:0.5;" x1="25" x2="164" y1="171.7999" y2="171.7999"/><polygon fill="#FFFF44" points="35,177.7999,39,181.7999,35,185.7999,31,181.7999" style="stroke:#B38D22;stroke-width:1.0;"/><text fill="#000000" font-family="sans-serif" font-size="14" lengthAdjust="spacing" textLength="99" x="44" y="189.7999">DoCreateError()</text></g><!--MD5=[6b2a3a9fd63164c4bf14e5a421030d80]
class ErrorCreationExecution--><g id="elem_ErrorCreationExecution"><rect fill="#FFFFFF" height="48" id="ErrorCreationExecution" rx="2.5" ry="2.5" style="stroke:#555555;stroke-width:0.5;" width="175" x="7" y="7"/><rect fill="#808080" height="32" rx="2.5" ry="2.5" style="stroke:#808080;stroke-width:0.5;" width="175" x="7" y="7"/><rect fill="#808080" height="2.5" style="stroke:#808080;stroke-width:0.5;" width="175" x="7" y="36.5"/><rect fill="none" height="48" id="ErrorCreationExecution" rx="2.5" ry="2.5" style="stroke:#555555;stroke-width:0.5;" width="175" x="7" y="7"/><ellipse cx="22" cy="23" fill="#ADD1B2" rx="11" ry="11" style="stroke:#181818;stroke-width:1.0;"/><path d="M21.3594,26.7813 Q22.1563,26.7813 22.7188,26.5938 Q23.2969,26.3906 23.5313,26.1719 Q23.7813,25.9375 24.0156,25.75 Q24.2656,25.5469 24.4844,25.5469 Q24.8281,25.5469 25.0781,25.8125 Q25.3438,26.0625 25.3438,26.3906 Q25.3438,27.125 24.1719,27.8125 Q23.0156,28.4844 21.3125,28.4844 Q19.1563,28.4844 17.7344,27.2188 Q16.3125,25.9531 16.3125,24.0156 L16.3125,22.8906 Q16.3125,20.8594 17.6406,19.4844 Q18.9688,18.0938 20.9375,18.0938 Q22.125,18.0938 23.3438,18.6719 L23.5156,18.75 Q23.8125,18.3438 24.2344,18.3438 Q24.7188,18.3438 24.8906,18.6406 Q25.0781,18.9219 25.0781,19.4688 L25.0781,20.8906 Q25.0781,22.0156 24.2344,22.0156 Q23.9219,22.0156 23.7188,21.8438 Q23.5313,21.6719 23.4844,21.5313 Q23.4531,21.375 23.4063,21.1094 Q23.2969,20.5938 22.7813,20.2813 Q22.2656,19.9688 21.8125,19.8906 Q21.375,19.7969 21,19.7969 Q19.7188,19.7969 18.8594,20.6719 Q18.0156,21.5469 18.0156,22.8906 L18.0156,23.9844 Q18.0156,25.2656 18.9219,26.0313 Q19.8281,26.7813 21.3594,26.7813 Z " fill="#000000"/><text fill="#000000" font-family="sans-serif" font-size="14" lengthAdjust="spacing" textLength="143" x="36" y="28.6">ErrorCreationExecution</text><line style="stroke:#555555;stroke-width:0.5;" x1="8" x2="181" y1="39" y2="39"/><line style="stroke:#555555;stroke-width:0.5;" x1="8" x2="181" y1="47" y2="47"/></g><!--MD5=[8e96990ccfe601b4cd5d0b16b811bb9c]
reverse link ErrorCreationExecution to ErrorCreationTAF--><g id="link_ErrorCreationExecution_ErrorCreationTAF"><path codeLine="13" d="M94.5,75.6 C94.5,88.28 94.5,102.06 94.5,114.53 " fill="none" id="ErrorCreationExecution-backto-ErrorCreationTAF" style="stroke:#181818;stroke-width:1.0;"/><polygon fill="none" points="87.5,75.14,94.5,55.14,101.5,75.14,87.5,75.14" style="stroke:#181818;stroke-width:1.0;"/></g><!--MD5=[4de8eda9ee780daf9684de6ae18fcc9d]
@startuml
set namespaceSeparator :
skinparam ClassBackgroundColor #FFFFFF
skinparam ClassBorderColor #555555
skinparam ClassFontColor #000000
skinparam ClassHeaderBackgroundColor #808080

skinparam top to bottom direction
class "ErrorCreationTAF" {
{field} -None : Boolean
{method} #DoCreateError()

}
"ErrorCreationExecution" <|- - "ErrorCreationTAF"



@enduml

PlantUML version 1.2022.5(Sat Apr 30 10:55:52 GMT 2022)
(GPL source distribution)
Java Runtime: OpenJDK Runtime Environment
JVM: OpenJDK 64-Bit Server VM
Default Encoding: UTF-8
Language: en
Country: US
--></g></svg>