<?xml version="1.0" encoding="UTF-8" standalone="no"?><svg xmlns="http://www.w3.org/2000/svg" xmlns:xlink="http://www.w3.org/1999/xlink" contentStyleType="text/css" height="522px" preserveAspectRatio="none" style="width:321px;height:522px;background:#FFFFFF;" version="1.1" viewBox="0 0 321 522" width="321px" zoomAndPan="magnify"><defs/><g><!--MD5=[015e80250c730494aa0f0042df122f26]
cluster TemplateGUITAF.lvlib--><g id="cluster_TemplateGUITAF.lvlib"><path d="M8.5,80 L175.5,80 A3.75,3.75 0 0 1 178,82.5 L185,102.2969 L311.5,102.2969 A2.5,2.5 0 0 1 314,104.7969 L314,420.5 A2.5,2.5 0 0 1 311.5,423 L8.5,423 A2.5,2.5 0 0 1 6,420.5 L6,82.5 A2.5,2.5 0 0 1 8.5,80 " fill="none" style="stroke:#000000;stroke-width:1.5;"/><line style="stroke:#000000;stroke-width:1.5;" x1="6" x2="185" y1="102.2969" y2="102.2969"/><text fill="#000000" font-family="sans-serif" font-size="14" font-weight="bold" lengthAdjust="spacing" textLength="166" x="10" y="94.9951">TemplateGUITAF.lvlib</text></g><!--MD5=[c2c22bc143d6e9011e0be2632f94bfff]
class TemplateGUITAF.lvlib:TemplateGUITAF--><g id="elem_TemplateGUITAF.lvlib:TemplateGUITAF"><rect codeLine="8" fill="#FFFFFF" height="292.4531" id="TemplateGUITAF.lvlib:TemplateGUITAF" rx="2.5" ry="2.5" style="stroke:#555555;stroke-width:0.5;" width="276" x="22" y="115"/><rect fill="#808080" height="32" rx="2.5" ry="2.5" style="stroke:#808080;stroke-width:0.5;" width="276" x="22" y="115"/><rect fill="#808080" height="2.5" style="stroke:#808080;stroke-width:0.5;" width="276" x="22" y="144.5"/><rect codeLine="8" fill="none" height="292.4531" id="TemplateGUITAF.lvlib:TemplateGUITAF" rx="2.5" ry="2.5" style="stroke:#555555;stroke-width:0.5;" width="276" x="22" y="115"/><ellipse cx="98.25" cy="131" fill="#ADD1B2" rx="11" ry="11" style="stroke:#181818;stroke-width:1.0;"/><path d="M101.2188,136.6406 Q100.6406,136.9375 100,137.0781 Q99.3594,137.2344 98.6563,137.2344 Q96.1563,137.2344 94.8281,135.5938 Q93.5156,133.9375 93.5156,130.8125 Q93.5156,127.6875 94.8281,126.0313 Q96.1563,124.375 98.6563,124.375 Q99.3594,124.375 100,124.5313 Q100.6563,124.6875 101.2188,124.9844 L101.2188,127.7031 Q100.5938,127.125 100,126.8594 Q99.4063,126.5781 98.7813,126.5781 Q97.4375,126.5781 96.75,127.6563 Q96.0625,128.7188 96.0625,130.8125 Q96.0625,132.9063 96.75,133.9844 Q97.4375,135.0469 98.7813,135.0469 Q99.4063,135.0469 100,134.7813 Q100.5938,134.5 101.2188,133.9219 L101.2188,136.6406 Z " fill="#000000"/><text fill="#000000" font-family="sans-serif" font-size="14" lengthAdjust="spacing" textLength="115" x="118.75" y="135.8467">TemplateGUITAF</text><line style="stroke:#555555;stroke-width:0.5;" x1="23" x2="297" y1="147" y2="147"/><rect fill="none" height="6" style="stroke:#C82930;stroke-width:1.0;" width="6" x="30" y="157.6484"/><text fill="#000000" font-family="sans-serif" font-size="14" lengthAdjust="spacing" textLength="185" x="42" y="163.9951">ExternalInterfaces : Cluster</text><rect fill="none" height="6" style="stroke:#C82930;stroke-width:1.0;" width="6" x="30" y="173.9453"/><text fill="#000000" font-family="sans-serif" font-size="14" lengthAdjust="spacing" textLength="97" x="42" y="180.292">Local : Cluster</text><rect fill="none" height="6" style="stroke:#C82930;stroke-width:1.0;" width="6" x="30" y="190.2422"/><text fill="#000000" font-family="sans-serif" font-size="14" lengthAdjust="spacing" textLength="132" x="42" y="196.5889">Persistent : Cluster</text><line style="stroke:#555555;stroke-width:0.5;" x1="23" x2="297" y1="203.8906" y2="203.8906"/><rect fill="#F24D5C" height="6" style="stroke:#C82930;stroke-width:1.0;" width="6" x="30" y="214.5391"/><text fill="#000000" font-family="sans-serif" font-size="14" lengthAdjust="spacing" text-decoration="underline" textLength="215" x="42" y="220.8857">TemplateGUITAF_CastUIEvent()</text><rect fill="#F24D5C" height="6" style="stroke:#C82930;stroke-width:1.0;" width="6" x="30" y="230.8359"/><text fill="#000000" font-family="sans-serif" font-size="14" lengthAdjust="spacing" text-decoration="underline" textLength="200" x="42" y="237.1826">TemplateGUITAF_ClassCast()</text><polygon fill="#FFFF44" points="33,245.1328,37,249.1328,33,253.1328,29,249.1328" style="stroke:#B38D22;stroke-width:1.0;"/><text fill="#000000" font-family="sans-serif" font-size="14" lengthAdjust="spacing" text-decoration="underline" textLength="220" x="42" y="253.4795">TemplateGUITAF_SendUiEvent()</text><ellipse cx="33" cy="266.4297" fill="#84BE84" rx="3" ry="3" style="stroke:#038048;stroke-width:1.0;"/><text fill="#000000" font-family="sans-serif" font-size="14" lengthAdjust="spacing" text-decoration="underline" textLength="250" x="42" y="269.7764">TemplateGUITAF_TemplateMethod()</text><polygon fill="#FFFF44" points="33,277.7266,37,281.7266,33,285.7266,29,281.7266" style="stroke:#B38D22;stroke-width:1.0;"/><text fill="#000000" font-family="sans-serif" font-size="14" lengthAdjust="spacing" textLength="92" x="42" y="286.0732">Constructor()</text><polygon fill="#FFFF44" points="33,294.0234,37,298.0234,33,302.0234,29,298.0234" style="stroke:#B38D22;stroke-width:1.0;"/><text fill="#000000" font-family="sans-serif" font-size="14" lengthAdjust="spacing" textLength="84" x="42" y="302.3701">Destructor()</text><polygon fill="#FFFF44" points="33,310.3203,37,314.3203,33,318.3203,29,314.3203" style="stroke:#B38D22;stroke-width:1.0;"/><text fill="#000000" font-family="sans-serif" font-size="14" lengthAdjust="spacing" textLength="207" x="42" y="318.667">WritePersistentConfiguration()</text><polygon fill="#FFFF44" points="33,326.6172,37,330.6172,33,334.6172,29,330.6172" style="stroke:#B38D22;stroke-width:1.0;"/><text fill="#000000" font-family="sans-serif" font-size="14" lengthAdjust="spacing" textLength="208" x="42" y="334.9639">ReadPersistentConfiguration()</text><polygon fill="#FFFF44" points="33,342.9141,37,346.9141,33,350.9141,29,346.9141" style="stroke:#B38D22;stroke-width:1.0;"/><text fill="#000000" font-family="sans-serif" font-size="14" lengthAdjust="spacing" textLength="169" x="42" y="351.2607">ReadExternalInterfaces()</text><polygon fill="#FFFF44" points="33,359.2109,37,363.2109,33,367.2109,29,363.2109" style="stroke:#B38D22;stroke-width:1.0;"/><text fill="#000000" font-family="sans-serif" font-size="14" lengthAdjust="spacing" textLength="168" x="42" y="367.5576">WriteExternalInterfaces()</text><ellipse cx="33" cy="380.5078" fill="#84BE84" rx="3" ry="3" style="stroke:#038048;stroke-width:1.0;"/><text fill="#000000" font-family="sans-serif" font-size="14" lengthAdjust="spacing" textLength="128" x="42" y="383.8545">TemplateMethod()</text><polygon fill="#FFFF44" points="33,391.8047,37,395.8047,33,399.8047,29,395.8047" style="stroke:#B38D22;stroke-width:1.0;"/><text fill="#000000" font-family="sans-serif" font-size="14" lengthAdjust="spacing" textLength="66" x="42" y="400.1514">MainGUI()</text></g><!--MD5=[36b646c945f5a836f61c707856d30646]
class YAFTAF--><g id="elem_YAFTAF"><rect fill="#FFFFFF" height="48" id="YAFTAF" rx="2.5" ry="2.5" style="stroke:#555555;stroke-width:0.5;" width="84" x="118" y="7"/><rect fill="#808080" height="32" rx="2.5" ry="2.5" style="stroke:#808080;stroke-width:0.5;" width="84" x="118" y="7"/><rect fill="#808080" height="2.5" style="stroke:#808080;stroke-width:0.5;" width="84" x="118" y="36.5"/><rect fill="none" height="48" id="YAFTAF" rx="2.5" ry="2.5" style="stroke:#555555;stroke-width:0.5;" width="84" x="118" y="7"/><ellipse cx="133" cy="23" fill="#ADD1B2" rx="11" ry="11" style="stroke:#181818;stroke-width:1.0;"/><path d="M135.9688,28.6406 Q135.3906,28.9375 134.75,29.0781 Q134.1094,29.2344 133.4063,29.2344 Q130.9063,29.2344 129.5781,27.5938 Q128.2656,25.9375 128.2656,22.8125 Q128.2656,19.6875 129.5781,18.0313 Q130.9063,16.375 133.4063,16.375 Q134.1094,16.375 134.75,16.5313 Q135.4063,16.6875 135.9688,16.9844 L135.9688,19.7031 Q135.3438,19.125 134.75,18.8594 Q134.1563,18.5781 133.5313,18.5781 Q132.1875,18.5781 131.5,19.6563 Q130.8125,20.7188 130.8125,22.8125 Q130.8125,24.9063 131.5,25.9844 Q132.1875,27.0469 133.5313,27.0469 Q134.1563,27.0469 134.75,26.7813 Q135.3438,26.5 135.9688,25.9219 L135.9688,28.6406 Z " fill="#000000"/><text fill="#000000" font-family="sans-serif" font-size="14" lengthAdjust="spacing" textLength="52" x="147" y="27.8467">YAFTAF</text><line style="stroke:#555555;stroke-width:0.5;" x1="119" x2="201" y1="39" y2="39"/><line style="stroke:#555555;stroke-width:0.5;" x1="119" x2="201" y1="47" y2="47"/></g><!--MD5=[fa9f007be859bf43007ba002c5b16515]
class ITAFObject--><g id="elem_ITAFObject"><rect fill="#FFFFFF" height="48" id="ITAFObject" rx="2.5" ry="2.5" style="stroke:#555555;stroke-width:0.5;" width="106" x="107" y="467"/><rect fill="#808080" height="32" rx="2.5" ry="2.5" style="stroke:#808080;stroke-width:0.5;" width="106" x="107" y="467"/><rect fill="#808080" height="2.5" style="stroke:#808080;stroke-width:0.5;" width="106" x="107" y="496.5"/><rect fill="none" height="48" id="ITAFObject" rx="2.5" ry="2.5" style="stroke:#555555;stroke-width:0.5;" width="106" x="107" y="467"/><ellipse cx="122" cy="483" fill="#ADD1B2" rx="11" ry="11" style="stroke:#181818;stroke-width:1.0;"/><path d="M124.9688,488.6406 Q124.3906,488.9375 123.75,489.0781 Q123.1094,489.2344 122.4063,489.2344 Q119.9063,489.2344 118.5781,487.5938 Q117.2656,485.9375 117.2656,482.8125 Q117.2656,479.6875 118.5781,478.0313 Q119.9063,476.375 122.4063,476.375 Q123.1094,476.375 123.75,476.5313 Q124.4063,476.6875 124.9688,476.9844 L124.9688,479.7031 Q124.3438,479.125 123.75,478.8594 Q123.1563,478.5781 122.5313,478.5781 Q121.1875,478.5781 120.5,479.6563 Q119.8125,480.7188 119.8125,482.8125 Q119.8125,484.9063 120.5,485.9844 Q121.1875,487.0469 122.5313,487.0469 Q123.1563,487.0469 123.75,486.7813 Q124.3438,486.5 124.9688,485.9219 L124.9688,488.6406 Z " fill="#000000"/><text fill="#000000" font-family="sans-serif" font-size="14" lengthAdjust="spacing" textLength="74" x="136" y="487.8467">ITAFObject</text><line style="stroke:#555555;stroke-width:0.5;" x1="108" x2="212" y1="499" y2="499"/><line style="stroke:#555555;stroke-width:0.5;" x1="108" x2="212" y1="507" y2="507"/></g><!--MD5=[8804d30d1b21b5c2446a3601ca39023d]
reverse link YAFTAF to TemplateGUITAF.lvlib:TemplateGUITAF--><g id="link_YAFTAF_TemplateGUITAF.lvlib:TemplateGUITAF"><path codeLine="26" d="M160,75.52 C160,87.32 160,100.78 160,114.94 " fill="none" id="YAFTAF-backto-TemplateGUITAF.lvlib:TemplateGUITAF" style="stroke:#181818;stroke-width:1.0;"/><polygon fill="none" points="153,75.12,160,55.12,167,75.12,153,75.12" style="stroke:#181818;stroke-width:1.0;"/></g><!--MD5=[27e99930c6b34494fb94427d85e6522a]
reverse link TemplateGUITAF.lvlib:TemplateGUITAF to ITAFObject--><g id="link_TemplateGUITAF.lvlib:TemplateGUITAF_ITAFObject"><path codeLine="27" d="M160,420.12 C160,438.17 160,454.47 160,466.78 " fill="none" id="TemplateGUITAF.lvlib:TemplateGUITAF-backto-ITAFObject" style="stroke:#181818;stroke-width:1.0;"/><polygon fill="#181818" points="160,407.04,156,413.04,160,419.04,164,413.04,160,407.04" style="stroke:#181818;stroke-width:1.0;"/></g><!--MD5=[2877aef60f4d62606dbb3a4b368b015a]
@startuml
set namespaceSeparator :
skinparam ClassBackgroundColor #FFFFFF
skinparam ClassBorderColor #555555
skinparam ClassFontColor #000000
skinparam ClassHeaderBackgroundColor #808080

skinparam top to bottom direction
class "TemplateGUITAF.lvlib:TemplateGUITAF" {
{field} -ExternalInterfaces : Cluster
{field} -Local : Cluster
{field} -Persistent : Cluster
{static} {method} -TemplateGUITAF_CastUIEvent()
{static} {method} -TemplateGUITAF_ClassCast()
{static} {method} #TemplateGUITAF_SendUiEvent()
{static} {method} +TemplateGUITAF_TemplateMethod()
{method} #Constructor()
{method} #Destructor()
{method} #WritePersistentConfiguration()
{method} #ReadPersistentConfiguration()
{method} #ReadExternalInterfaces()
{method} #WriteExternalInterfaces()
{method} +TemplateMethod()
{method} #MainGUI()

}
"YAFTAF" <|- - "TemplateGUITAF.lvlib:TemplateGUITAF"
"TemplateGUITAF.lvlib:TemplateGUITAF" *- - "ITAFObject"



@enduml

PlantUML version 1.2022.12(Sun Oct 23 18:12:26 GMT 2022)
(GPL source distribution)
Java Runtime: OpenJDK Runtime Environment
JVM: OpenJDK 64-Bit Server VM
Default Encoding: UTF-8
Language: en
Country: US
--></g></svg>