<?xml version="1.0" encoding="UTF-8" standalone="no"?><svg xmlns="http://www.w3.org/2000/svg" xmlns:xlink="http://www.w3.org/1999/xlink" contentStyleType="text/css" height="620px" preserveAspectRatio="none" style="width:261px;height:620px;background:#FFFFFF;" version="1.1" viewBox="0 0 261 620" width="261px" zoomAndPan="magnify"><defs/><g><!--MD5=[dc955e1af0f97097d162e1db842bde8f]
class DotNETCam--><g id="elem_DotNETCam"><rect codeLine="8" fill="#FFFFFF" height="390.2344" id="DotNETCam" rx="2.5" ry="2.5" style="stroke:#555555;stroke-width:0.5;" width="245" x="9" y="115"/><rect fill="#808080" height="32" rx="2.5" ry="2.5" style="stroke:#808080;stroke-width:0.5;" width="245" x="9" y="115"/><rect fill="#808080" height="2.5" style="stroke:#808080;stroke-width:0.5;" width="245" x="9" y="144.5"/><rect codeLine="8" fill="none" height="390.2344" id="DotNETCam" rx="2.5" ry="2.5" style="stroke:#555555;stroke-width:0.5;" width="245" x="9" y="115"/><ellipse cx="85.25" cy="131" fill="#ADD1B2" rx="11" ry="11" style="stroke:#181818;stroke-width:1.0;"/><path d="M88.2188,136.6406 Q87.6406,136.9375 87,137.0781 Q86.3594,137.2344 85.6563,137.2344 Q83.1563,137.2344 81.8281,135.5938 Q80.5156,133.9375 80.5156,130.8125 Q80.5156,127.6875 81.8281,126.0313 Q83.1563,124.375 85.6563,124.375 Q86.3594,124.375 87,124.5313 Q87.6563,124.6875 88.2188,124.9844 L88.2188,127.7031 Q87.5938,127.125 87,126.8594 Q86.4063,126.5781 85.7813,126.5781 Q84.4375,126.5781 83.75,127.6563 Q83.0625,128.7188 83.0625,130.8125 Q83.0625,132.9063 83.75,133.9844 Q84.4375,135.0469 85.7813,135.0469 Q86.4063,135.0469 87,134.7813 Q87.5938,134.5 88.2188,133.9219 L88.2188,136.6406 Z " fill="#000000"/><text fill="#000000" font-family="sans-serif" font-size="14" lengthAdjust="spacing" textLength="84" x="105.75" y="135.8467">DotNETCam</text><line style="stroke:#555555;stroke-width:0.5;" x1="10" x2="253" y1="147" y2="147"/><rect fill="none" height="6" style="stroke:#C82930;stroke-width:1.0;" width="6" x="17" y="157.6484"/><text fill="#000000" font-family="sans-serif" font-size="14" lengthAdjust="spacing" textLength="185" x="29" y="163.9951">ExternalInterfaces : Cluster</text><rect fill="none" height="6" style="stroke:#C82930;stroke-width:1.0;" width="6" x="17" y="173.9453"/><text fill="#000000" font-family="sans-serif" font-size="14" lengthAdjust="spacing" textLength="97" x="29" y="180.292">Local : Cluster</text><rect fill="none" height="6" style="stroke:#C82930;stroke-width:1.0;" width="6" x="17" y="190.2422"/><text fill="#000000" font-family="sans-serif" font-size="14" lengthAdjust="spacing" textLength="132" x="29" y="196.5889">Persistent : Cluster</text><line style="stroke:#555555;stroke-width:0.5;" x1="10" x2="253" y1="203.8906" y2="203.8906"/><rect fill="#F24D5C" height="6" style="stroke:#C82930;stroke-width:1.0;" width="6" x="17" y="214.5391"/><text fill="#000000" font-family="sans-serif" font-size="14" lengthAdjust="spacing" text-decoration="underline" textLength="184" x="29" y="220.8857">DotNETCam_CastUIEvent()</text><rect fill="#F24D5C" height="6" style="stroke:#C82930;stroke-width:1.0;" width="6" x="17" y="230.8359"/><text fill="#000000" font-family="sans-serif" font-size="14" lengthAdjust="spacing" text-decoration="underline" textLength="169" x="29" y="237.1826">DotNETCam_ClassCast()</text><polygon fill="#FFFF44" points="20,245.1328,24,249.1328,20,253.1328,16,249.1328" style="stroke:#B38D22;stroke-width:1.0;"/><text fill="#000000" font-family="sans-serif" font-size="14" lengthAdjust="spacing" text-decoration="underline" textLength="189" x="29" y="253.4795">DotNETCam_SendUiEvent()</text><ellipse cx="20" cy="266.4297" fill="#84BE84" rx="3" ry="3" style="stroke:#038048;stroke-width:1.0;"/><text fill="#000000" font-family="sans-serif" font-size="14" lengthAdjust="spacing" text-decoration="underline" textLength="219" x="29" y="269.7764">DotNETCam_TemplateMethod()</text><ellipse cx="20" cy="282.7266" fill="#84BE84" rx="3" ry="3" style="stroke:#038048;stroke-width:1.0;"/><text fill="#000000" font-family="sans-serif" font-size="14" lengthAdjust="spacing" text-decoration="underline" textLength="174" x="29" y="286.0732">DotNETCam_GetPicture()</text><ellipse cx="20" cy="299.0234" fill="#84BE84" rx="3" ry="3" style="stroke:#038048;stroke-width:1.0;"/><text fill="#000000" font-family="sans-serif" font-size="14" lengthAdjust="spacing" text-decoration="underline" textLength="133" x="29" y="302.3701">DotNETCam_Stop()</text><ellipse cx="20" cy="315.3203" fill="#84BE84" rx="3" ry="3" style="stroke:#038048;stroke-width:1.0;"/><text fill="#000000" font-family="sans-serif" font-size="14" lengthAdjust="spacing" text-decoration="underline" textLength="133" x="29" y="318.667">DotNETCam_Start()</text><polygon fill="#FFFF44" points="20,326.6172,24,330.6172,20,334.6172,16,330.6172" style="stroke:#B38D22;stroke-width:1.0;"/><text fill="#000000" font-family="sans-serif" font-size="14" lengthAdjust="spacing" textLength="207" x="29" y="334.9639">WritePersistentConfiguration()</text><polygon fill="#FFFF44" points="20,342.9141,24,346.9141,20,350.9141,16,346.9141" style="stroke:#B38D22;stroke-width:1.0;"/><text fill="#000000" font-family="sans-serif" font-size="14" lengthAdjust="spacing" textLength="168" x="29" y="351.2607">WriteExternalInterfaces()</text><polygon fill="#FFFF44" points="20,359.2109,24,363.2109,20,367.2109,16,363.2109" style="stroke:#B38D22;stroke-width:1.0;"/><text fill="#000000" font-family="sans-serif" font-size="14" lengthAdjust="spacing" textLength="169" x="29" y="367.5576">ReadExternalInterfaces()</text><polygon fill="#FFFF44" points="20,375.5078,24,379.5078,20,383.5078,16,379.5078" style="stroke:#B38D22;stroke-width:1.0;"/><text fill="#000000" font-family="sans-serif" font-size="14" lengthAdjust="spacing" textLength="208" x="29" y="383.8545">ReadPersistentConfiguration()</text><polygon fill="#FFFF44" points="20,391.8047,24,395.8047,20,399.8047,16,395.8047" style="stroke:#B38D22;stroke-width:1.0;"/><text fill="#000000" font-family="sans-serif" font-size="14" lengthAdjust="spacing" textLength="66" x="29" y="400.1514">MainGUI()</text><polygon fill="#FFFF44" points="20,408.1016,24,412.1016,20,416.1016,16,412.1016" style="stroke:#B38D22;stroke-width:1.0;"/><text fill="#000000" font-family="sans-serif" font-size="14" lengthAdjust="spacing" textLength="84" x="29" y="416.4482">Destructor()</text><ellipse cx="20" cy="429.3984" fill="#84BE84" rx="3" ry="3" style="stroke:#038048;stroke-width:1.0;"/><text fill="#000000" font-family="sans-serif" font-size="14" lengthAdjust="spacing" textLength="128" x="29" y="432.7451">TemplateMethod()</text><ellipse cx="20" cy="445.6953" fill="#84BE84" rx="3" ry="3" style="stroke:#038048;stroke-width:1.0;"/><text fill="#000000" font-family="sans-serif" font-size="14" lengthAdjust="spacing" textLength="74" x="29" y="449.042">ook mooi()</text><ellipse cx="20" cy="461.9922" fill="#84BE84" rx="3" ry="3" style="stroke:#038048;stroke-width:1.0;"/><text fill="#000000" font-family="sans-serif" font-size="14" lengthAdjust="spacing" textLength="42" x="29" y="465.3389">Start()</text><ellipse cx="20" cy="478.2891" fill="#84BE84" rx="3" ry="3" style="stroke:#038048;stroke-width:1.0;"/><text fill="#000000" font-family="sans-serif" font-size="14" lengthAdjust="spacing" textLength="83" x="29" y="481.6357">GetPicture()</text><ellipse cx="20" cy="494.5859" fill="#84BE84" rx="3" ry="3" style="stroke:#038048;stroke-width:1.0;"/><text fill="#000000" font-family="sans-serif" font-size="14" lengthAdjust="spacing" textLength="42" x="29" y="497.9326">Stop()</text></g><!--MD5=[36b646c945f5a836f61c707856d30646]
class YAFTAF--><g id="elem_YAFTAF"><rect fill="#FFFFFF" height="48" id="YAFTAF" rx="2.5" ry="2.5" style="stroke:#555555;stroke-width:0.5;" width="84" x="89.5" y="7"/><rect fill="#808080" height="32" rx="2.5" ry="2.5" style="stroke:#808080;stroke-width:0.5;" width="84" x="89.5" y="7"/><rect fill="#808080" height="2.5" style="stroke:#808080;stroke-width:0.5;" width="84" x="89.5" y="36.5"/><rect fill="none" height="48" id="YAFTAF" rx="2.5" ry="2.5" style="stroke:#555555;stroke-width:0.5;" width="84" x="89.5" y="7"/><ellipse cx="104.5" cy="23" fill="#ADD1B2" rx="11" ry="11" style="stroke:#181818;stroke-width:1.0;"/><path d="M107.4688,28.6406 Q106.8906,28.9375 106.25,29.0781 Q105.6094,29.2344 104.9063,29.2344 Q102.4063,29.2344 101.0781,27.5938 Q99.7656,25.9375 99.7656,22.8125 Q99.7656,19.6875 101.0781,18.0313 Q102.4063,16.375 104.9063,16.375 Q105.6094,16.375 106.25,16.5313 Q106.9063,16.6875 107.4688,16.9844 L107.4688,19.7031 Q106.8438,19.125 106.25,18.8594 Q105.6563,18.5781 105.0313,18.5781 Q103.6875,18.5781 103,19.6563 Q102.3125,20.7188 102.3125,22.8125 Q102.3125,24.9063 103,25.9844 Q103.6875,27.0469 105.0313,27.0469 Q105.6563,27.0469 106.25,26.7813 Q106.8438,26.5 107.4688,25.9219 L107.4688,28.6406 Z " fill="#000000"/><text fill="#000000" font-family="sans-serif" font-size="14" lengthAdjust="spacing" textLength="52" x="118.5" y="27.8467">YAFTAF</text><line style="stroke:#555555;stroke-width:0.5;" x1="90.5" x2="172.5" y1="39" y2="39"/><line style="stroke:#555555;stroke-width:0.5;" x1="90.5" x2="172.5" y1="47" y2="47"/></g><!--MD5=[fa9f007be859bf43007ba002c5b16515]
class ITAFObject--><g id="elem_ITAFObject"><rect fill="#FFFFFF" height="48" id="ITAFObject" rx="2.5" ry="2.5" style="stroke:#555555;stroke-width:0.5;" width="106" x="78.5" y="565"/><rect fill="#808080" height="32" rx="2.5" ry="2.5" style="stroke:#808080;stroke-width:0.5;" width="106" x="78.5" y="565"/><rect fill="#808080" height="2.5" style="stroke:#808080;stroke-width:0.5;" width="106" x="78.5" y="594.5"/><rect fill="none" height="48" id="ITAFObject" rx="2.5" ry="2.5" style="stroke:#555555;stroke-width:0.5;" width="106" x="78.5" y="565"/><ellipse cx="93.5" cy="581" fill="#ADD1B2" rx="11" ry="11" style="stroke:#181818;stroke-width:1.0;"/><path d="M96.4688,586.6406 Q95.8906,586.9375 95.25,587.0781 Q94.6094,587.2344 93.9063,587.2344 Q91.4063,587.2344 90.0781,585.5938 Q88.7656,583.9375 88.7656,580.8125 Q88.7656,577.6875 90.0781,576.0313 Q91.4063,574.375 93.9063,574.375 Q94.6094,574.375 95.25,574.5313 Q95.9063,574.6875 96.4688,574.9844 L96.4688,577.7031 Q95.8438,577.125 95.25,576.8594 Q94.6563,576.5781 94.0313,576.5781 Q92.6875,576.5781 92,577.6563 Q91.3125,578.7188 91.3125,580.8125 Q91.3125,582.9063 92,583.9844 Q92.6875,585.0469 94.0313,585.0469 Q94.6563,585.0469 95.25,584.7813 Q95.8438,584.5 96.4688,583.9219 L96.4688,586.6406 Z " fill="#000000"/><text fill="#000000" font-family="sans-serif" font-size="14" lengthAdjust="spacing" textLength="74" x="107.5" y="585.8467">ITAFObject</text><line style="stroke:#555555;stroke-width:0.5;" x1="79.5" x2="183.5" y1="597" y2="597"/><line style="stroke:#555555;stroke-width:0.5;" x1="79.5" x2="183.5" y1="605" y2="605"/></g><!--MD5=[1333914dffe7619eaf817d10a9abbaa0]
reverse link YAFTAF to DotNETCam--><g id="link_YAFTAF_DotNETCam"><path codeLine="32" d="M131.5,75.24 C131.5,86.93 131.5,100.37 131.5,114.78 " fill="none" id="YAFTAF-backto-DotNETCam" style="stroke:#181818;stroke-width:1.0;"/><polygon fill="none" points="124.5,75.14,131.5,55.14,138.5,75.14,124.5,75.14" style="stroke:#181818;stroke-width:1.0;"/></g><!--MD5=[4dfb855b4affed92aef85151d68c56a3]
reverse link DotNETCam to ITAFObject--><g id="link_DotNETCam_ITAFObject"><path codeLine="33" d="M131.5,518.48 C131.5,536.62 131.5,552.64 131.5,564.72 " fill="none" id="DotNETCam-backto-ITAFObject" style="stroke:#181818;stroke-width:1.0;"/><polygon fill="#181818" points="131.5,505.27,127.5,511.27,131.5,517.27,135.5,511.27,131.5,505.27" style="stroke:#181818;stroke-width:1.0;"/></g><!--MD5=[6970e88a1923eea1b8195572974158a4]
@startuml
set namespaceSeparator :
skinparam ClassBackgroundColor #FFFFFF
skinparam ClassBorderColor #555555
skinparam ClassFontColor #000000
skinparam ClassHeaderBackgroundColor #808080

skinparam top to bottom direction
class "DotNETCam" {
{field} -ExternalInterfaces : Cluster
{field} -Local : Cluster
{field} -Persistent : Cluster
{static} {method} -DotNETCam_CastUIEvent()
{static} {method} -DotNETCam_ClassCast()
{static} {method} #DotNETCam_SendUiEvent()
{static} {method} +DotNETCam_TemplateMethod()
{static} {method} +DotNETCam_GetPicture()
{static} {method} +DotNETCam_Stop()
{static} {method} +DotNETCam_Start()
{method} #WritePersistentConfiguration()
{method} #WriteExternalInterfaces()
{method} #ReadExternalInterfaces()
{method} #ReadPersistentConfiguration()
{method} #MainGUI()
{method} #Destructor()
{method} +TemplateMethod()
{method} +ook mooi()
{method} +Start()
{method} +GetPicture()
{method} +Stop()

}
"YAFTAF" <|- - "DotNETCam"
"DotNETCam" *- - "ITAFObject"



@enduml

PlantUML version 1.2022.12(Sun Oct 23 18:12:26 GMT 2022)
(GPL source distribution)
Java Runtime: OpenJDK Runtime Environment
JVM: OpenJDK 64-Bit Server VM
Default Encoding: UTF-8
Language: en
Country: US
--></g></svg>