<?xml version="1.0" encoding="UTF-8" standalone="no"?><svg xmlns="http://www.w3.org/2000/svg" xmlns:xlink="http://www.w3.org/1999/xlink" contentStyleType="text/css" height="202px" preserveAspectRatio="none" style="width:305px;height:202px;background:#FFFFFF;" version="1.1" viewBox="0 0 305 202" width="305px" zoomAndPan="magnify"><defs/><g><!--MD5=[6b4655879f9b6e095ab878bfc02fafdc]
class FlexPanelDefault--><g id="elem_FlexPanelDefault"><rect codeLine="8" fill="#FFFFFF" height="80.5938" id="FlexPanelDefault" rx="2.5" ry="2.5" style="stroke:#555555;stroke-width:0.5;" width="146" x="73.5" y="115"/><rect fill="#808080" height="32" rx="2.5" ry="2.5" style="stroke:#808080;stroke-width:0.5;" width="146" x="73.5" y="115"/><rect fill="#808080" height="2.5" style="stroke:#808080;stroke-width:0.5;" width="146" x="73.5" y="144.5"/><rect codeLine="8" fill="none" height="80.5938" id="FlexPanelDefault" rx="2.5" ry="2.5" style="stroke:#555555;stroke-width:0.5;" width="146" x="73.5" y="115"/><ellipse cx="88.5" cy="131" fill="#ADD1B2" rx="11" ry="11" style="stroke:#181818;stroke-width:1.0;"/><path d="M91.4688,136.6406 Q90.8906,136.9375 90.25,137.0781 Q89.6094,137.2344 88.9063,137.2344 Q86.4063,137.2344 85.0781,135.5938 Q83.7656,133.9375 83.7656,130.8125 Q83.7656,127.6875 85.0781,126.0313 Q86.4063,124.375 88.9063,124.375 Q89.6094,124.375 90.25,124.5313 Q90.9063,124.6875 91.4688,124.9844 L91.4688,127.7031 Q90.8438,127.125 90.25,126.8594 Q89.6563,126.5781 89.0313,126.5781 Q87.6875,126.5781 87,127.6563 Q86.3125,128.7188 86.3125,130.8125 Q86.3125,132.9063 87,133.9844 Q87.6875,135.0469 89.0313,135.0469 Q89.6563,135.0469 90.25,134.7813 Q90.8438,134.5 91.4688,133.9219 L91.4688,136.6406 Z " fill="#000000"/><text fill="#000000" font-family="sans-serif" font-size="14" lengthAdjust="spacing" textLength="114" x="102.5" y="135.8467">FlexPanelDefault</text><line style="stroke:#555555;stroke-width:0.5;" x1="74.5" x2="218.5" y1="147" y2="147"/><rect fill="none" height="6" style="stroke:#C82930;stroke-width:1.0;" width="6" x="81.5" y="157.6484"/><text fill="#000000" font-family="sans-serif" font-size="14" lengthAdjust="spacing" textLength="107" x="93.5" y="163.9951">None : Boolean</text><line style="stroke:#555555;stroke-width:0.5;" x1="74.5" x2="218.5" y1="171.2969" y2="171.2969"/><ellipse cx="84.5" cy="184.9453" fill="#84BE84" rx="3" ry="3" style="stroke:#038048;stroke-width:1.0;"/><text fill="#000000" font-family="sans-serif" font-size="14" lengthAdjust="spacing" textLength="109" x="93.5" y="188.292">GetFrontPanel()</text></g><!--MD5=[0598474d39ed4a9017b81a2a55acc3b1]
class TAFBaseGUI--><g id="elem_TAFBaseGUI"><rect fill="#FFFFFF" height="48" id="TAFBaseGUI" rx="2.5" ry="2.5" style="stroke:#555555;stroke-width:0.5;" width="117" x="7" y="7"/><rect fill="#808080" height="32" rx="2.5" ry="2.5" style="stroke:#808080;stroke-width:0.5;" width="117" x="7" y="7"/><rect fill="#808080" height="2.5" style="stroke:#808080;stroke-width:0.5;" width="117" x="7" y="36.5"/><rect fill="none" height="48" id="TAFBaseGUI" rx="2.5" ry="2.5" style="stroke:#555555;stroke-width:0.5;" width="117" x="7" y="7"/><ellipse cx="22" cy="23" fill="#ADD1B2" rx="11" ry="11" style="stroke:#181818;stroke-width:1.0;"/><path d="M24.9688,28.6406 Q24.3906,28.9375 23.75,29.0781 Q23.1094,29.2344 22.4063,29.2344 Q19.9063,29.2344 18.5781,27.5938 Q17.2656,25.9375 17.2656,22.8125 Q17.2656,19.6875 18.5781,18.0313 Q19.9063,16.375 22.4063,16.375 Q23.1094,16.375 23.75,16.5313 Q24.4063,16.6875 24.9688,16.9844 L24.9688,19.7031 Q24.3438,19.125 23.75,18.8594 Q23.1563,18.5781 22.5313,18.5781 Q21.1875,18.5781 20.5,19.6563 Q19.8125,20.7188 19.8125,22.8125 Q19.8125,24.9063 20.5,25.9844 Q21.1875,27.0469 22.5313,27.0469 Q23.1563,27.0469 23.75,26.7813 Q24.3438,26.5 24.9688,25.9219 L24.9688,28.6406 Z " fill="#000000"/><text fill="#000000" font-family="sans-serif" font-size="14" lengthAdjust="spacing" textLength="85" x="36" y="27.8467">TAFBaseGUI</text><line style="stroke:#555555;stroke-width:0.5;" x1="8" x2="123" y1="39" y2="39"/><line style="stroke:#555555;stroke-width:0.5;" x1="8" x2="123" y1="47" y2="47"/></g><!--MD5=[279d10572fd96349ac6b0a9cb9c87a2e]
class ITAFGUIActions--><g id="elem_ITAFGUIActions"><rect codeLine="15" fill="#FFFFFF" height="48" id="ITAFGUIActions" rx="2.5" ry="2.5" style="stroke:#555555;stroke-width:0.5;" width="139" x="159" y="7"/><rect fill="#808080" height="32" rx="2.5" ry="2.5" style="stroke:#808080;stroke-width:0.5;" width="139" x="159" y="7"/><rect fill="#808080" height="2.5" style="stroke:#808080;stroke-width:0.5;" width="139" x="159" y="36.5"/><rect codeLine="15" fill="none" height="48" id="ITAFGUIActions" rx="2.5" ry="2.5" style="stroke:#555555;stroke-width:0.5;" width="139" x="159" y="7"/><ellipse cx="174" cy="23" fill="#B4A7E5" rx="11" ry="11" style="stroke:#181818;stroke-width:1.0;"/><path d="M169.9219,18.7656 L169.9219,16.6094 L177.3125,16.6094 L177.3125,18.7656 L174.8438,18.7656 L174.8438,26.8438 L177.3125,26.8438 L177.3125,29 L169.9219,29 L169.9219,26.8438 L172.3906,26.8438 L172.3906,18.7656 L169.9219,18.7656 Z " fill="#000000"/><text fill="#000000" font-family="sans-serif" font-size="14" font-style="italic" lengthAdjust="spacing" textLength="107" x="188" y="27.8467">ITAFGUIActions</text><line style="stroke:#555555;stroke-width:0.5;" x1="160" x2="297" y1="39" y2="39"/><line style="stroke:#555555;stroke-width:0.5;" x1="160" x2="297" y1="47" y2="47"/></g><!--MD5=[5b9c67ff67d70b5fd2c6fa6a13ed57d8]
reverse link TAFBaseGUI to FlexPanelDefault--><g id="link_TAFBaseGUI_FlexPanelDefault"><path codeLine="13" d="M91.86,71.87 C100.94,85.6 111.1,100.96 120.18,114.69 " fill="none" id="TAFBaseGUI-backto-FlexPanelDefault" style="stroke:#181818;stroke-width:1.0;"/><polygon fill="none" points="85.93,75.59,80.74,55.04,97.61,67.86,85.93,75.59" style="stroke:#181818;stroke-width:1.0;"/></g><!--MD5=[b8c83a0006d46724de2f5d84001f007a]
reverse link ITAFGUIActions to FlexPanelDefault--><g id="link_ITAFGUIActions_FlexPanelDefault"><path codeLine="14" d="M201.81,71.87 C192.62,85.6 182.34,100.96 173.15,114.69 " fill="none" id="ITAFGUIActions-backto-FlexPanelDefault" style="stroke:#181818;stroke-width:1.0;stroke-dasharray:7.0,7.0;"/><polygon fill="none" points="196.13,67.77,213.08,55.04,207.77,75.56,196.13,67.77" style="stroke:#181818;stroke-width:1.0;"/></g><!--MD5=[d3c2fa7bf8b36baecaa833a840a4ee83]
@startuml
set namespaceSeparator :
skinparam ClassBackgroundColor #FFFFFF
skinparam ClassBorderColor #555555
skinparam ClassFontColor #000000
skinparam ClassHeaderBackgroundColor #808080

skinparam top to bottom direction
class "FlexPanelDefault" {
{field} -None : Boolean
{method} +GetFrontPanel()

}
"TAFBaseGUI" <|- - "FlexPanelDefault"
"ITAFGUIActions" <|.. "FlexPanelDefault"
interface "ITAFGUIActions" {}




@enduml

PlantUML version 1.2022.12(Sun Oct 23 18:12:26 GMT 2022)
(GPL source distribution)
Java Runtime: OpenJDK Runtime Environment
JVM: OpenJDK 64-Bit Server VM
Default Encoding: UTF-8
Language: en
Country: US
--></g></svg>