<?xml version="1.0" encoding="UTF-8" standalone="no"?><svg xmlns="http://www.w3.org/2000/svg" xmlns:xlink="http://www.w3.org/1999/xlink" contentStyleType="text/css" height="821px" preserveAspectRatio="none" style="width:658px;height:821px;background:#FFFFFF;" version="1.1" viewBox="0 0 658 821" width="658px" zoomAndPan="magnify"><defs/><g><!--MD5=[7527e2d4fb4cfcf2665acf62b5b5e47b]
class MasterGUI--><g id="elem_MasterGUI"><rect codeLine="8" fill="#FFFFFF" height="699.875" id="MasterGUI" rx="2.5" ry="2.5" style="stroke:#555555;stroke-width:0.5;" width="246" x="217.5" y="115"/><rect fill="#808080" height="32" rx="2.5" ry="2.5" style="stroke:#808080;stroke-width:0.5;" width="246" x="217.5" y="115"/><rect fill="#808080" height="2.5" style="stroke:#808080;stroke-width:0.5;" width="246" x="217.5" y="144.5"/><rect codeLine="8" fill="none" height="699.875" id="MasterGUI" rx="2.5" ry="2.5" style="stroke:#555555;stroke-width:0.5;" width="246" x="217.5" y="115"/><ellipse cx="300.75" cy="131" fill="#ADD1B2" rx="11" ry="11" style="stroke:#181818;stroke-width:1.0;"/><path d="M303.7188,136.6406 Q303.1406,136.9375 302.5,137.0781 Q301.8594,137.2344 301.1563,137.2344 Q298.6563,137.2344 297.3281,135.5938 Q296.0156,133.9375 296.0156,130.8125 Q296.0156,127.6875 297.3281,126.0313 Q298.6563,124.375 301.1563,124.375 Q301.8594,124.375 302.5,124.5313 Q303.1563,124.6875 303.7188,124.9844 L303.7188,127.7031 Q303.0938,127.125 302.5,126.8594 Q301.9063,126.5781 301.2813,126.5781 Q299.9375,126.5781 299.25,127.6563 Q298.5625,128.7188 298.5625,130.8125 Q298.5625,132.9063 299.25,133.9844 Q299.9375,135.0469 301.2813,135.0469 Q301.9063,135.0469 302.5,134.7813 Q303.0938,134.5 303.7188,133.9219 L303.7188,136.6406 Z " fill="#000000"/><text fill="#000000" font-family="sans-serif" font-size="14" lengthAdjust="spacing" textLength="71" x="321.25" y="135.8467">MasterGUI</text><line style="stroke:#555555;stroke-width:0.5;" x1="218.5" x2="462.5" y1="147" y2="147"/><rect fill="none" height="6" style="stroke:#C82930;stroke-width:1.0;" width="6" x="225.5" y="157.6484"/><text fill="#000000" font-family="sans-serif" font-size="14" lengthAdjust="spacing" textLength="64" x="237.5" y="163.9951">Ref : U32</text><line style="stroke:#555555;stroke-width:0.5;" x1="218.5" x2="462.5" y1="171.2969" y2="171.2969"/><polygon fill="#FFFF44" points="228.5,179.9453,232.5,183.9453,228.5,187.9453,224.5,183.9453" style="stroke:#B38D22;stroke-width:1.0;"/><text fill="#000000" font-family="sans-serif" font-size="14" lengthAdjust="spacing" text-decoration="underline" textLength="98" x="237.5" y="188.292">StartMainGUI()</text><polygon fill="#FFFF44" points="228.5,196.2422,232.5,200.2422,228.5,204.2422,224.5,200.2422" style="stroke:#B38D22;stroke-width:1.0;"/><text fill="#000000" font-family="sans-serif" font-size="14" lengthAdjust="spacing" text-decoration="underline" textLength="58" x="237.5" y="204.5889">DockVI()</text><polygon fill="#FFFF44" points="228.5,212.5391,232.5,216.5391,228.5,220.5391,224.5,216.5391" style="stroke:#B38D22;stroke-width:1.0;"/><text fill="#000000" font-family="sans-serif" font-size="14" lengthAdjust="spacing" text-decoration="underline" textLength="123" x="237.5" y="220.8857">RequestDestroy()</text><polygon fill="#FFFF44" points="228.5,228.8359,232.5,232.8359,228.5,236.8359,224.5,232.8359" style="stroke:#B38D22;stroke-width:1.0;"/><text fill="#000000" font-family="sans-serif" font-size="14" lengthAdjust="spacing" text-decoration="underline" textLength="66" x="237.5" y="237.1826">MainGUI()</text><polygon fill="#FFFF44" points="228.5,245.1328,232.5,249.1328,228.5,253.1328,224.5,249.1328" style="stroke:#B38D22;stroke-width:1.0;"/><text fill="#000000" font-family="sans-serif" font-size="14" lengthAdjust="spacing" text-decoration="underline" textLength="98" x="237.5" y="253.4795">StopMainGUI()</text><polygon fill="#FFFF44" points="228.5,261.4297,232.5,265.4297,228.5,269.4297,224.5,265.4297" style="stroke:#B38D22;stroke-width:1.0;"/><text fill="#000000" font-family="sans-serif" font-size="14" lengthAdjust="spacing" text-decoration="underline" textLength="118" x="237.5" y="269.7764">MasterGUI_New()</text><polygon fill="#FFFF44" points="228.5,277.7266,232.5,281.7266,228.5,285.7266,224.5,281.7266" style="stroke:#B38D22;stroke-width:1.0;"/><text fill="#000000" font-family="sans-serif" font-size="14" lengthAdjust="spacing" text-decoration="underline" textLength="140" x="237.5" y="286.0732">MainGUIRepository()</text><polygon fill="#FFFF44" points="228.5,294.0234,232.5,298.0234,228.5,302.0234,224.5,298.0234" style="stroke:#B38D22;stroke-width:1.0;"/><text fill="#000000" font-family="sans-serif" font-size="14" lengthAdjust="spacing" text-decoration="underline" textLength="180" x="237.5" y="302.3701">MasterGUI_GetAttributes()</text><polygon fill="#FFFF44" points="228.5,310.3203,232.5,314.3203,228.5,318.3203,224.5,314.3203" style="stroke:#B38D22;stroke-width:1.0;"/><text fill="#000000" font-family="sans-serif" font-size="14" lengthAdjust="spacing" text-decoration="underline" textLength="206" x="237.5" y="318.667">MasterGUI_SendAndReceive()</text><rect fill="#F24D5C" height="6" style="stroke:#C82930;stroke-width:1.0;" width="6" x="225.5" y="328.6172"/><text fill="#000000" font-family="sans-serif" font-size="14" lengthAdjust="spacing" text-decoration="underline" textLength="185" x="237.5" y="334.9639">MasterGUI_MainGUIActive()</text><ellipse cx="228.5" cy="347.9141" fill="#84BE84" rx="3" ry="3" style="stroke:#038048;stroke-width:1.0;"/><text fill="#000000" font-family="sans-serif" font-size="14" lengthAdjust="spacing" text-decoration="underline" textLength="134" x="237.5" y="351.2607">MasterGUI_Create()</text><ellipse cx="228.5" cy="364.2109" fill="#84BE84" rx="3" ry="3" style="stroke:#038048;stroke-width:1.0;"/><text fill="#000000" font-family="sans-serif" font-size="14" lengthAdjust="spacing" text-decoration="underline" textLength="170" x="237.5" y="367.5576">ControlMainGUIWindow()</text><polygon fill="#FFFF44" points="228.5,375.5078,232.5,379.5078,228.5,383.5078,224.5,379.5078" style="stroke:#B38D22;stroke-width:1.0;"/><text fill="#000000" font-family="sans-serif" font-size="14" lengthAdjust="spacing" textLength="78" x="237.5" y="383.8545">SetLayout()</text><polygon fill="#FFFF44" points="228.5,391.8047,232.5,395.8047,228.5,399.8047,224.5,395.8047" style="stroke:#B38D22;stroke-width:1.0;"/><text fill="#000000" font-family="sans-serif" font-size="14" lengthAdjust="spacing" textLength="124" x="237.5" y="400.1514">RefreshTafMenu()</text><polygon fill="#FFFF44" points="228.5,408.1016,232.5,412.1016,228.5,416.1016,224.5,412.1016" style="stroke:#B38D22;stroke-width:1.0;"/><text fill="#000000" font-family="sans-serif" font-size="14" lengthAdjust="spacing" textLength="116" x="237.5" y="416.4482">DockMainPanel()</text><polygon fill="#FFFF44" points="228.5,424.3984,232.5,428.3984,228.5,432.3984,224.5,428.3984" style="stroke:#B38D22;stroke-width:1.0;"/><text fill="#000000" font-family="sans-serif" font-size="14" lengthAdjust="spacing" textLength="111" x="237.5" y="432.7451">DockSubPanel()</text><polygon fill="#FFFF44" points="228.5,440.6953,232.5,444.6953,228.5,448.6953,224.5,444.6953" style="stroke:#B38D22;stroke-width:1.0;"/><text fill="#000000" font-family="sans-serif" font-size="14" lengthAdjust="spacing" textLength="102" x="237.5" y="449.042">AddTAFMenu()</text><polygon fill="#FFFF44" points="228.5,456.9922,232.5,460.9922,228.5,464.9922,224.5,460.9922" style="stroke:#B38D22;stroke-width:1.0;"/><text fill="#000000" font-family="sans-serif" font-size="14" lengthAdjust="spacing" textLength="220" x="237.5" y="465.3389">DockSubPanelFromFrontPanel()</text><polygon fill="#FFFF44" points="228.5,473.2891,232.5,477.2891,228.5,481.2891,224.5,477.2891" style="stroke:#B38D22;stroke-width:1.0;"/><text fill="#000000" font-family="sans-serif" font-size="14" lengthAdjust="spacing" textLength="134" x="237.5" y="481.6357">PreTAFMenuHook()</text><polygon fill="#FFFF44" points="228.5,489.5859,232.5,493.5859,228.5,497.5859,224.5,493.5859" style="stroke:#B38D22;stroke-width:1.0;"/><text fill="#000000" font-family="sans-serif" font-size="14" lengthAdjust="spacing" textLength="142" x="237.5" y="497.9326">PostTAFMenuHook()</text><polygon fill="#FFFF44" points="228.5,505.8828,232.5,509.8828,228.5,513.8828,224.5,509.8828" style="stroke:#B38D22;stroke-width:1.0;"/><text fill="#000000" font-family="sans-serif" font-size="14" lengthAdjust="spacing" textLength="157" x="237.5" y="514.2295">DockStaticSubpanels()</text><polygon fill="#FFFF44" points="228.5,522.1797,232.5,526.1797,228.5,530.1797,224.5,526.1797" style="stroke:#B38D22;stroke-width:1.0;"/><text fill="#000000" font-family="sans-serif" font-size="14" lengthAdjust="spacing" textLength="105" x="237.5" y="530.5264">ExecuteMenu()</text><polygon fill="#FFFF44" points="228.5,538.4766,232.5,542.4766,228.5,546.4766,224.5,542.4766" style="stroke:#B38D22;stroke-width:1.0;"/><text fill="#000000" font-family="sans-serif" font-size="14" lengthAdjust="spacing" textLength="116" x="237.5" y="546.8232">ReadMainPanel()</text><polygon fill="#FFFF44" points="228.5,554.7734,232.5,558.7734,228.5,562.7734,224.5,558.7734" style="stroke:#B38D22;stroke-width:1.0;"/><text fill="#000000" font-family="sans-serif" font-size="14" lengthAdjust="spacing" textLength="115" x="237.5" y="563.1201">WriteMainPanel()</text><polygon fill="#FFFF44" points="228.5,571.0703,232.5,575.0703,228.5,579.0703,224.5,575.0703" style="stroke:#B38D22;stroke-width:1.0;"/><text fill="#000000" font-family="sans-serif" font-size="14" lengthAdjust="spacing" textLength="179" x="237.5" y="579.417">ReadWindowsProperties()</text><polygon fill="#FFFF44" points="228.5,587.3672,232.5,591.3672,228.5,595.3672,224.5,591.3672" style="stroke:#B38D22;stroke-width:1.0;"/><text fill="#000000" font-family="sans-serif" font-size="14" lengthAdjust="spacing" textLength="84" x="237.5" y="595.7139">WriteMenu()</text><polygon fill="#FFFF44" points="228.5,603.6641,232.5,607.6641,228.5,611.6641,224.5,607.6641" style="stroke:#B38D22;stroke-width:1.0;"/><text fill="#000000" font-family="sans-serif" font-size="14" lengthAdjust="spacing" textLength="85" x="237.5" y="612.0107">ReadMenu()</text><ellipse cx="228.5" cy="624.9609" fill="#84BE84" rx="3" ry="3" style="stroke:#038048;stroke-width:1.0;"/><text fill="#000000" font-family="sans-serif" font-size="14" lengthAdjust="spacing" textLength="197" x="237.5" y="628.3076">GetPersistentConfiguration()</text><ellipse cx="228.5" cy="641.2578" fill="#84BE84" rx="3" ry="3" style="stroke:#038048;stroke-width:1.0;"/><text fill="#000000" font-family="sans-serif" font-size="14" lengthAdjust="spacing" textLength="195" x="237.5" y="644.6045">SetPersistentConfiguration()</text><ellipse cx="228.5" cy="657.5547" fill="#84BE84" rx="3" ry="3" style="stroke:#038048;stroke-width:1.0;"/><text fill="#000000" font-family="sans-serif" font-size="14" lengthAdjust="spacing" textLength="158" x="237.5" y="660.9014">GetExternalInterfaces()</text><ellipse cx="228.5" cy="673.8516" fill="#84BE84" rx="3" ry="3" style="stroke:#038048;stroke-width:1.0;"/><text fill="#000000" font-family="sans-serif" font-size="14" lengthAdjust="spacing" textLength="156" x="237.5" y="677.1982">SetExternalInterfaces()</text><ellipse cx="228.5" cy="690.1484" fill="#84BE84" rx="3" ry="3" style="stroke:#038048;stroke-width:1.0;"/><text fill="#000000" font-family="sans-serif" font-size="14" lengthAdjust="spacing" textLength="156" x="237.5" y="693.4951">ExecuteButtonAction()</text><polygon fill="#FFFF44" points="228.5,701.4453,232.5,705.4453,228.5,709.4453,224.5,705.4453" style="stroke:#B38D22;stroke-width:1.0;"/><text fill="#000000" font-family="sans-serif" font-size="14" lengthAdjust="spacing" textLength="55" x="237.5" y="709.792">Layout()</text><ellipse cx="228.5" cy="722.7422" fill="#84BE84" rx="3" ry="3" style="stroke:#038048;stroke-width:1.0;"/><text fill="#000000" font-family="sans-serif" font-size="14" lengthAdjust="spacing" textLength="56" x="237.5" y="726.0889">Create()</text><ellipse cx="228.5" cy="739.0391" fill="#84BE84" rx="3" ry="3" style="stroke:#038048;stroke-width:1.0;"/><text fill="#000000" font-family="sans-serif" font-size="14" lengthAdjust="spacing" textLength="64" x="237.5" y="742.3857">Destroy()</text><ellipse cx="228.5" cy="755.3359" fill="#84BE84" rx="3" ry="3" style="stroke:#038048;stroke-width:1.0;"/><text fill="#000000" font-family="sans-serif" font-size="14" lengthAdjust="spacing" textLength="103" x="237.5" y="758.6826">IsGUIRunning()</text><ellipse cx="228.5" cy="771.6328" fill="#84BE84" rx="3" ry="3" style="stroke:#038048;stroke-width:1.0;"/><text fill="#000000" font-family="sans-serif" font-size="14" lengthAdjust="spacing" textLength="66" x="237.5" y="774.9795">StartGUI()</text><ellipse cx="228.5" cy="787.9297" fill="#84BE84" rx="3" ry="3" style="stroke:#038048;stroke-width:1.0;"/><text fill="#000000" font-family="sans-serif" font-size="14" lengthAdjust="spacing" textLength="70" x="237.5" y="791.2764">DockGUI()</text><ellipse cx="228.5" cy="804.2266" fill="#84BE84" rx="3" ry="3" style="stroke:#038048;stroke-width:1.0;"/><text fill="#000000" font-family="sans-serif" font-size="14" lengthAdjust="spacing" textLength="109" x="237.5" y="807.5732">GetFrontPanel()</text></g><!--MD5=[0598474d39ed4a9017b81a2a55acc3b1]
class TAFBaseGUI--><g id="elem_TAFBaseGUI"><rect fill="#FFFFFF" height="48" id="TAFBaseGUI" rx="2.5" ry="2.5" style="stroke:#555555;stroke-width:0.5;" width="117" x="7" y="7"/><rect fill="#808080" height="32" rx="2.5" ry="2.5" style="stroke:#808080;stroke-width:0.5;" width="117" x="7" y="7"/><rect fill="#808080" height="2.5" style="stroke:#808080;stroke-width:0.5;" width="117" x="7" y="36.5"/><rect fill="none" height="48" id="TAFBaseGUI" rx="2.5" ry="2.5" style="stroke:#555555;stroke-width:0.5;" width="117" x="7" y="7"/><ellipse cx="22" cy="23" fill="#ADD1B2" rx="11" ry="11" style="stroke:#181818;stroke-width:1.0;"/><path d="M24.9688,28.6406 Q24.3906,28.9375 23.75,29.0781 Q23.1094,29.2344 22.4063,29.2344 Q19.9063,29.2344 18.5781,27.5938 Q17.2656,25.9375 17.2656,22.8125 Q17.2656,19.6875 18.5781,18.0313 Q19.9063,16.375 22.4063,16.375 Q23.1094,16.375 23.75,16.5313 Q24.4063,16.6875 24.9688,16.9844 L24.9688,19.7031 Q24.3438,19.125 23.75,18.8594 Q23.1563,18.5781 22.5313,18.5781 Q21.1875,18.5781 20.5,19.6563 Q19.8125,20.7188 19.8125,22.8125 Q19.8125,24.9063 20.5,25.9844 Q21.1875,27.0469 22.5313,27.0469 Q23.1563,27.0469 23.75,26.7813 Q24.3438,26.5 24.9688,25.9219 L24.9688,28.6406 Z " fill="#000000"/><text fill="#000000" font-family="sans-serif" font-size="14" lengthAdjust="spacing" textLength="85" x="36" y="27.8467">TAFBaseGUI</text><line style="stroke:#555555;stroke-width:0.5;" x1="8" x2="123" y1="39" y2="39"/><line style="stroke:#555555;stroke-width:0.5;" x1="8" x2="123" y1="47" y2="47"/></g><!--MD5=[2bb486e18dffc97c24a5fd8d709ce62f]
class IAuthorizationUpdated--><g id="elem_IAuthorizationUpdated"><rect codeLine="53" fill="#FFFFFF" height="48" id="IAuthorizationUpdated" rx="2.5" ry="2.5" style="stroke:#555555;stroke-width:0.5;" width="186" x="159.5" y="7"/><rect fill="#808080" height="32" rx="2.5" ry="2.5" style="stroke:#808080;stroke-width:0.5;" width="186" x="159.5" y="7"/><rect fill="#808080" height="2.5" style="stroke:#808080;stroke-width:0.5;" width="186" x="159.5" y="36.5"/><rect codeLine="53" fill="none" height="48" id="IAuthorizationUpdated" rx="2.5" ry="2.5" style="stroke:#555555;stroke-width:0.5;" width="186" x="159.5" y="7"/><ellipse cx="174.5" cy="23" fill="#B4A7E5" rx="11" ry="11" style="stroke:#181818;stroke-width:1.0;"/><path d="M170.4219,18.7656 L170.4219,16.6094 L177.8125,16.6094 L177.8125,18.7656 L175.3438,18.7656 L175.3438,26.8438 L177.8125,26.8438 L177.8125,29 L170.4219,29 L170.4219,26.8438 L172.8906,26.8438 L172.8906,18.7656 L170.4219,18.7656 Z " fill="#000000"/><text fill="#000000" font-family="sans-serif" font-size="14" font-style="italic" lengthAdjust="spacing" textLength="154" x="188.5" y="27.8467">IAuthorizationUpdated</text><line style="stroke:#555555;stroke-width:0.5;" x1="160.5" x2="344.5" y1="39" y2="39"/><line style="stroke:#555555;stroke-width:0.5;" x1="160.5" x2="344.5" y1="47" y2="47"/></g><!--MD5=[85956100a972d1a6c529b31adbe90b73]
class IDockGUI--><g id="elem_IDockGUI"><rect codeLine="55" fill="#FFFFFF" height="48" id="IDockGUI" rx="2.5" ry="2.5" style="stroke:#555555;stroke-width:0.5;" width="97" x="380" y="7"/><rect fill="#808080" height="32" rx="2.5" ry="2.5" style="stroke:#808080;stroke-width:0.5;" width="97" x="380" y="7"/><rect fill="#808080" height="2.5" style="stroke:#808080;stroke-width:0.5;" width="97" x="380" y="36.5"/><rect codeLine="55" fill="none" height="48" id="IDockGUI" rx="2.5" ry="2.5" style="stroke:#555555;stroke-width:0.5;" width="97" x="380" y="7"/><ellipse cx="395" cy="23" fill="#B4A7E5" rx="11" ry="11" style="stroke:#181818;stroke-width:1.0;"/><path d="M390.9219,18.7656 L390.9219,16.6094 L398.3125,16.6094 L398.3125,18.7656 L395.8438,18.7656 L395.8438,26.8438 L398.3125,26.8438 L398.3125,29 L390.9219,29 L390.9219,26.8438 L393.3906,26.8438 L393.3906,18.7656 L390.9219,18.7656 Z " fill="#000000"/><text fill="#000000" font-family="sans-serif" font-size="14" font-style="italic" lengthAdjust="spacing" textLength="65" x="409" y="27.8467">IDockGUI</text><line style="stroke:#555555;stroke-width:0.5;" x1="381" x2="476" y1="39" y2="39"/><line style="stroke:#555555;stroke-width:0.5;" x1="381" x2="476" y1="47" y2="47"/></g><!--MD5=[279d10572fd96349ac6b0a9cb9c87a2e]
class ITAFGUIActions--><g id="elem_ITAFGUIActions"><rect codeLine="57" fill="#FFFFFF" height="48" id="ITAFGUIActions" rx="2.5" ry="2.5" style="stroke:#555555;stroke-width:0.5;" width="139" x="512" y="7"/><rect fill="#808080" height="32" rx="2.5" ry="2.5" style="stroke:#808080;stroke-width:0.5;" width="139" x="512" y="7"/><rect fill="#808080" height="2.5" style="stroke:#808080;stroke-width:0.5;" width="139" x="512" y="36.5"/><rect codeLine="57" fill="none" height="48" id="ITAFGUIActions" rx="2.5" ry="2.5" style="stroke:#555555;stroke-width:0.5;" width="139" x="512" y="7"/><ellipse cx="527" cy="23" fill="#B4A7E5" rx="11" ry="11" style="stroke:#181818;stroke-width:1.0;"/><path d="M522.9219,18.7656 L522.9219,16.6094 L530.3125,16.6094 L530.3125,18.7656 L527.8438,18.7656 L527.8438,26.8438 L530.3125,26.8438 L530.3125,29 L522.9219,29 L522.9219,26.8438 L525.3906,26.8438 L525.3906,18.7656 L522.9219,18.7656 Z " fill="#000000"/><text fill="#000000" font-family="sans-serif" font-size="14" font-style="italic" lengthAdjust="spacing" textLength="107" x="541" y="27.8467">ITAFGUIActions</text><line style="stroke:#555555;stroke-width:0.5;" x1="513" x2="650" y1="39" y2="39"/><line style="stroke:#555555;stroke-width:0.5;" x1="513" x2="650" y1="47" y2="47"/></g><!--MD5=[f1aac6073a793d3f40d3cb2d4b70fbdf]
reverse link TAFBaseGUI to MasterGUI--><g id="link_TAFBaseGUI_MasterGUI"><path codeLine="51" d="M91.1,72.22 C120.26,118.02 170.01,196.17 217.44,270.68 " fill="none" id="TAFBaseGUI-backto-MasterGUI" style="stroke:#181818;stroke-width:1.0;"/><polygon fill="none" points="85.12,75.86,80.29,55.23,96.93,68.34,85.12,75.86" style="stroke:#181818;stroke-width:1.0;"/></g><!--MD5=[2ab48666b6350bc6ef28a458ccfdbd4a]
reverse link IAuthorizationUpdated to MasterGUI--><g id="link_IAuthorizationUpdated_MasterGUI"><path codeLine="52" d="M261.24,74.89 C263.58,86.41 266.32,99.82 269.33,114.61 " fill="none" id="IAuthorizationUpdated-backto-MasterGUI" style="stroke:#181818;stroke-width:1.0;stroke-dasharray:7.0,7.0;"/><polygon fill="none" points="254.36,76.22,257.23,55.23,268.08,73.43,254.36,76.22" style="stroke:#181818;stroke-width:1.0;"/></g><!--MD5=[06b15e401f3361d93a209bd5229c5c64]
reverse link IDockGUI to MasterGUI--><g id="link_IDockGUI_MasterGUI"><path codeLine="54" d="M419.76,74.89 C417.42,86.41 414.68,99.82 411.67,114.61 " fill="none" id="IDockGUI-backto-MasterGUI" style="stroke:#181818;stroke-width:1.0;stroke-dasharray:7.0,7.0;"/><polygon fill="none" points="412.92,73.43,423.77,55.23,426.64,76.22,412.92,73.43" style="stroke:#181818;stroke-width:1.0;"/></g><!--MD5=[1f45a608409950bcfb84542352237dc2]
reverse link ITAFGUIActions to MasterGUI--><g id="link_ITAFGUIActions_MasterGUI"><path codeLine="56" d="M558.68,72.91 C536.22,113.16 500.09,177.92 463.64,243.26 " fill="none" id="ITAFGUIActions-backto-MasterGUI" style="stroke:#181818;stroke-width:1.0;stroke-dasharray:7.0,7.0;"/><polygon fill="none" points="552.69,69.28,568.54,55.23,564.91,76.1,552.69,69.28" style="stroke:#181818;stroke-width:1.0;"/></g><!--MD5=[812a5689e7a2050b3d6b0be69d2c6736]
@startuml
set namespaceSeparator :
skinparam ClassBackgroundColor #FFFFFF
skinparam ClassBorderColor #555555
skinparam ClassFontColor #000000
skinparam ClassHeaderBackgroundColor #808080

skinparam top to bottom direction
class "MasterGUI" {
{field} -Ref : U32
{static} {method} #StartMainGUI()
{static} {method} #DockVI()
{static} {method} #RequestDestroy()
{static} {method} #MainGUI()
{static} {method} #StopMainGUI()
{static} {method} #MasterGUI_New()
{static} {method} #MainGUIRepository()
{static} {method} #MasterGUI_GetAttributes()
{static} {method} #MasterGUI_SendAndReceive()
{static} {method} -MasterGUI_MainGUIActive()
{static} {method} +MasterGUI_Create()
{static} {method} +ControlMainGUIWindow()
{method} #SetLayout()
{method} #RefreshTafMenu()
{method} #DockMainPanel()
{method} #DockSubPanel()
{method} #AddTAFMenu()
{method} #DockSubPanelFromFrontPanel()
{method} #PreTAFMenuHook()
{method} #PostTAFMenuHook()
{method} #DockStaticSubpanels()
{method} #ExecuteMenu()
{method} #ReadMainPanel()
{method} #WriteMainPanel()
{method} #ReadWindowsProperties()
{method} #WriteMenu()
{method} #ReadMenu()
{method} +GetPersistentConfiguration()
{method} +SetPersistentConfiguration()
{method} +GetExternalInterfaces()
{method} +SetExternalInterfaces()
{method} +ExecuteButtonAction()
{method} #Layout()
{method} +Create()
{method} +Destroy()
{method} +IsGUIRunning()
{method} +StartGUI()
{method} +DockGUI()
{method} +GetFrontPanel()

}
"TAFBaseGUI" <|- - "MasterGUI"
"IAuthorizationUpdated" <|.. "MasterGUI"
interface "IAuthorizationUpdated" {}
"IDockGUI" <|.. "MasterGUI"
interface "IDockGUI" {}
"ITAFGUIActions" <|.. "MasterGUI"
interface "ITAFGUIActions" {}




@enduml

PlantUML version 1.2022.12(Sun Oct 23 18:12:26 GMT 2022)
(GPL source distribution)
Java Runtime: OpenJDK Runtime Environment
JVM: OpenJDK 64-Bit Server VM
Default Encoding: UTF-8
Language: en
Country: US
--></g></svg>