<?xml version="1.0" encoding="UTF-8" standalone="no"?><svg xmlns="http://www.w3.org/2000/svg" xmlns:xlink="http://www.w3.org/1999/xlink" contentStyleType="text/css" height="186px" preserveAspectRatio="none" style="width:147px;height:186px;background:#FFFFFF;" version="1.1" viewBox="0 0 147 186" width="147px" zoomAndPan="magnify"><defs/><g><!--MD5=[cfd7cdc0b39abb2ff935188810419e3c]
class ITAFTextViewer--><g id="elem_ITAFTextViewer"><rect codeLine="8" fill="#FFFFFF" height="64.7999" id="ITAFTextViewer" rx="2.5" ry="2.5" style="stroke:#555555;stroke-width:0.5;" width="133" x="7" y="115"/><rect fill="#808080" height="32" rx="2.5" ry="2.5" style="stroke:#808080;stroke-width:0.5;" width="133" x="7" y="115"/><rect fill="#808080" height="2.5" style="stroke:#808080;stroke-width:0.5;" width="133" x="7" y="144.5"/><rect codeLine="8" fill="none" height="64.7999" id="ITAFTextViewer" rx="2.5" ry="2.5" style="stroke:#555555;stroke-width:0.5;" width="133" x="7" y="115"/><ellipse cx="22" cy="131" fill="#B4A7E5" rx="11" ry="11" style="stroke:#181818;stroke-width:1.0;"/><path d="M24.6719,134.2969 Q25.2188,134.2969 25.5,134.4844 Q25.7813,134.6563 25.7813,135.1563 Q25.7813,136 24.6719,136 L19.5313,136 Q18.4063,136 18.4063,135.1563 Q18.4063,134.6563 18.6875,134.4844 Q18.9844,134.2969 19.5313,134.2969 L21.25,134.2969 L21.25,127.7813 L19.5313,127.7813 Q18.4063,127.7813 18.4063,126.9375 Q18.4063,126.4531 18.6875,126.2813 Q18.9844,126.0938 19.5313,126.0938 L24.6719,126.0938 Q25.2188,126.0938 25.5,126.2813 Q25.7813,126.4531 25.7813,126.9375 Q25.7813,127.7813 24.6719,127.7813 L22.9531,127.7813 L22.9531,134.2969 L24.6719,134.2969 Z " fill="#000000"/><text fill="#000000" font-family="sans-serif" font-size="14" font-style="italic" lengthAdjust="spacing" textLength="101" x="36" y="136.6">ITAFTextViewer</text><line style="stroke:#555555;stroke-width:0.5;" x1="8" x2="139" y1="147" y2="147"/><line style="stroke:#555555;stroke-width:0.5;" x1="8" x2="139" y1="155" y2="155"/><ellipse cx="18" cy="166" fill="#84BE84" rx="3" ry="3" style="stroke:#038048;stroke-width:1.0;"/><text fill="#000000" font-family="sans-serif" font-size="14" lengthAdjust="spacing" textLength="82" x="27" y="172.9999">UpdateText()</text></g><!--MD5=[163b904ce3f0cc2f7db427f2921361dd]
class IFrontPanel--><g id="elem_IFrontPanel"><rect codeLine="13" fill="#FFFFFF" height="48" id="IFrontPanel" rx="2.5" ry="2.5" style="stroke:#555555;stroke-width:0.5;" width="105" x="21" y="7"/><rect fill="#808080" height="32" rx="2.5" ry="2.5" style="stroke:#808080;stroke-width:0.5;" width="105" x="21" y="7"/><rect fill="#808080" height="2.5" style="stroke:#808080;stroke-width:0.5;" width="105" x="21" y="36.5"/><rect codeLine="13" fill="none" height="48" id="IFrontPanel" rx="2.5" ry="2.5" style="stroke:#555555;stroke-width:0.5;" width="105" x="21" y="7"/><ellipse cx="36" cy="23" fill="#B4A7E5" rx="11" ry="11" style="stroke:#181818;stroke-width:1.0;"/><path d="M38.6719,26.2969 Q39.2188,26.2969 39.5,26.4844 Q39.7813,26.6563 39.7813,27.1563 Q39.7813,28 38.6719,28 L33.5313,28 Q32.4063,28 32.4063,27.1563 Q32.4063,26.6563 32.6875,26.4844 Q32.9844,26.2969 33.5313,26.2969 L35.25,26.2969 L35.25,19.7813 L33.5313,19.7813 Q32.4063,19.7813 32.4063,18.9375 Q32.4063,18.4531 32.6875,18.2813 Q32.9844,18.0938 33.5313,18.0938 L38.6719,18.0938 Q39.2188,18.0938 39.5,18.2813 Q39.7813,18.4531 39.7813,18.9375 Q39.7813,19.7813 38.6719,19.7813 L36.9531,19.7813 L36.9531,26.2969 L38.6719,26.2969 Z " fill="#000000"/><text fill="#000000" font-family="sans-serif" font-size="14" font-style="italic" lengthAdjust="spacing" textLength="73" x="50" y="28.6">IFrontPanel</text><line style="stroke:#555555;stroke-width:0.5;" x1="22" x2="125" y1="39" y2="39"/><line style="stroke:#555555;stroke-width:0.5;" x1="22" x2="125" y1="47" y2="47"/></g><!--MD5=[986eb326061296aae6d5886c2d702e50]
reverse link IFrontPanel to ITAFTextViewer--><g id="link_IFrontPanel_ITAFTextViewer"><path codeLine="12" d="M73.5,75.59 C73.5,88.59 73.5,102.59 73.5,114.69 " fill="none" id="IFrontPanel-backto-ITAFTextViewer" style="stroke:#181818;stroke-width:1.0;stroke-dasharray:7.0,7.0;"/><polygon fill="none" points="66.5,75.17,73.5,55.17,80.5,75.17,66.5,75.17" style="stroke:#181818;stroke-width:1.0;"/></g><!--MD5=[2354aad90a4d9a571cd70133ff22ca56]
@startuml
set namespaceSeparator :
skinparam ClassBackgroundColor #FFFFFF
skinparam ClassBorderColor #555555
skinparam ClassFontColor #000000
skinparam ClassHeaderBackgroundColor #808080

skinparam top to bottom direction
interface "ITAFTextViewer" {
{method} +UpdateText()

}
"IFrontPanel" <|.. "ITAFTextViewer"
interface "IFrontPanel" {}




@enduml

PlantUML version 1.2022.5(Sat Apr 30 10:55:52 GMT 2022)
(GPL source distribution)
Java Runtime: OpenJDK Runtime Environment
JVM: OpenJDK 64-Bit Server VM
Default Encoding: UTF-8
Language: en
Country: US
--></g></svg>