<?xml version="1.0" encoding="UTF-8" standalone="no"?><svg xmlns="http://www.w3.org/2000/svg" xmlns:xlink="http://www.w3.org/1999/xlink" contentStyleType="text/css" height="362px" preserveAspectRatio="none" style="width:204px;height:362px;background:#FFFFFF;" version="1.1" viewBox="0 0 204 362" width="204px" zoomAndPan="magnify"><defs/><g><!--MD5=[63bcd6da410e6b93725455a83d4342d0]
cluster BusBase.lvlib--><g id="cluster_BusBase.lvlib"><path d="M44.5,6 L138.5,6 A3.75,3.75 0 0 1 141,8.5 L148,28.7999 L159.5,28.7999 A2.5,2.5 0 0 1 162,31.2999 L162,102.5 A2.5,2.5 0 0 1 159.5,105 L44.5,105 A2.5,2.5 0 0 1 42,102.5 L42,8.5 A2.5,2.5 0 0 1 44.5,6 " style="stroke:#000000;stroke-width:1.5;fill:none;"/><line style="stroke:#000000;stroke-width:1.5;fill:none;" x1="42" x2="148" y1="28.7999" y2="28.7999"/><text fill="#000000" font-family="sans-serif" font-size="14" font-weight="bold" lengthAdjust="spacing" textLength="93" x="46" y="21.9999">BusBase.lvlib</text></g><!--MD5=[5c9690e2b5af1daf3d654b5084aa762d]
class BusBase.lvlib:BusBase--><g id="elem_BusBase.lvlib:BusBase"><rect fill="#FFFFFF" height="48" id="BusBase.lvlib:BusBase" rx="2.5" ry="2.5" style="stroke:#555555;stroke-width:0.5;" width="87" x="58.5" y="41"/><rect fill="#808080" height="32" rx="2.5" ry="2.5" style="stroke:#808080;stroke-width:0.5;" width="87" x="58.5" y="41"/><rect fill="#808080" height="2.5" style="stroke:#808080;stroke-width:0.5;" width="87" x="58.5" y="70.5"/><rect fill="none" height="48" id="BusBase.lvlib:BusBase" rx="2.5" ry="2.5" style="stroke:#555555;stroke-width:0.5;" width="87" x="58.5" y="41"/><ellipse cx="73.5" cy="57" fill="#ADD1B2" rx="11" ry="11" style="stroke:#181818;stroke-width:1.0;"/><path d="M72.8594,60.7813 Q73.6563,60.7813 74.2188,60.5938 Q74.7969,60.3906 75.0313,60.1719 Q75.2813,59.9375 75.5156,59.75 Q75.7656,59.5469 75.9844,59.5469 Q76.3281,59.5469 76.5781,59.8125 Q76.8438,60.0625 76.8438,60.3906 Q76.8438,61.125 75.6719,61.8125 Q74.5156,62.4844 72.8125,62.4844 Q70.6563,62.4844 69.2344,61.2188 Q67.8125,59.9531 67.8125,58.0156 L67.8125,56.8906 Q67.8125,54.8594 69.1406,53.4844 Q70.4688,52.0938 72.4375,52.0938 Q73.625,52.0938 74.8438,52.6719 L75.0156,52.75 Q75.3125,52.3438 75.7344,52.3438 Q76.2188,52.3438 76.3906,52.6406 Q76.5781,52.9219 76.5781,53.4688 L76.5781,54.8906 Q76.5781,56.0156 75.7344,56.0156 Q75.4219,56.0156 75.2188,55.8438 Q75.0313,55.6719 74.9844,55.5313 Q74.9531,55.375 74.9063,55.1094 Q74.7969,54.5938 74.2813,54.2813 Q73.7656,53.9688 73.3125,53.8906 Q72.875,53.7969 72.5,53.7969 Q71.2188,53.7969 70.3594,54.6719 Q69.5156,55.5469 69.5156,56.8906 L69.5156,57.9844 Q69.5156,59.2656 70.4219,60.0313 Q71.3281,60.7813 72.8594,60.7813 Z " fill="#000000"/><text fill="#000000" font-family="sans-serif" font-size="14" lengthAdjust="spacing" textLength="55" x="87.5" y="62.6">BusBase</text><line style="stroke:#555555;stroke-width:0.5;" x1="59.5" x2="144.5" y1="73" y2="73"/><line style="stroke:#555555;stroke-width:0.5;" x1="59.5" x2="144.5" y1="81" y2="81"/></g><!--MD5=[2e60ea073da3b8991f3420e151b5d291]
class BusAuthorizationUpdated--><g id="elem_BusAuthorizationUpdated"><rect codeLine="8" fill="#FFFFFF" height="98.3998" id="BusAuthorizationUpdated" rx="2.5" ry="2.5" style="stroke:#555555;stroke-width:0.5;" width="190" x="7" y="149"/><rect fill="#808080" height="32" rx="2.5" ry="2.5" style="stroke:#808080;stroke-width:0.5;" width="190" x="7" y="149"/><rect fill="#808080" height="2.5" style="stroke:#808080;stroke-width:0.5;" width="190" x="7" y="178.5"/><rect codeLine="8" fill="none" height="98.3998" id="BusAuthorizationUpdated" rx="2.5" ry="2.5" style="stroke:#555555;stroke-width:0.5;" width="190" x="7" y="149"/><ellipse cx="22" cy="165" fill="#ADD1B2" rx="11" ry="11" style="stroke:#181818;stroke-width:1.0;"/><path d="M21.3594,168.7813 Q22.1563,168.7813 22.7188,168.5938 Q23.2969,168.3906 23.5313,168.1719 Q23.7813,167.9375 24.0156,167.75 Q24.2656,167.5469 24.4844,167.5469 Q24.8281,167.5469 25.0781,167.8125 Q25.3438,168.0625 25.3438,168.3906 Q25.3438,169.125 24.1719,169.8125 Q23.0156,170.4844 21.3125,170.4844 Q19.1563,170.4844 17.7344,169.2188 Q16.3125,167.9531 16.3125,166.0156 L16.3125,164.8906 Q16.3125,162.8594 17.6406,161.4844 Q18.9688,160.0938 20.9375,160.0938 Q22.125,160.0938 23.3438,160.6719 L23.5156,160.75 Q23.8125,160.3438 24.2344,160.3438 Q24.7188,160.3438 24.8906,160.6406 Q25.0781,160.9219 25.0781,161.4688 L25.0781,162.8906 Q25.0781,164.0156 24.2344,164.0156 Q23.9219,164.0156 23.7188,163.8438 Q23.5313,163.6719 23.4844,163.5313 Q23.4531,163.375 23.4063,163.1094 Q23.2969,162.5938 22.7813,162.2813 Q22.2656,161.9688 21.8125,161.8906 Q21.375,161.7969 21,161.7969 Q19.7188,161.7969 18.8594,162.6719 Q18.0156,163.5469 18.0156,164.8906 L18.0156,165.9844 Q18.0156,167.2656 18.9219,168.0313 Q19.8281,168.7813 21.3594,168.7813 Z " fill="#000000"/><text fill="#000000" font-family="sans-serif" font-size="14" lengthAdjust="spacing" textLength="158" x="36" y="170.6">BusAuthorizationUpdated</text><line style="stroke:#555555;stroke-width:0.5;" x1="8" x2="196" y1="181" y2="181"/><rect fill="none" height="6" style="stroke:#C82930;stroke-width:1.0;" width="6" x="15" y="189"/><text fill="#000000" font-family="sans-serif" font-size="14" lengthAdjust="spacing" textLength="123" x="27" y="198.9999">BusType : LV Class</text><line style="stroke:#555555;stroke-width:0.5;" x1="8" x2="196" y1="205.7999" y2="205.7999"/><ellipse cx="18" cy="216.7999" fill="#84BE84" rx="3" ry="3" style="stroke:#038048;stroke-width:1.0;"/><text fill="#000000" font-family="sans-serif" font-size="14" lengthAdjust="spacing" textLength="144" x="27" y="223.7999">GetExternalInterfaces()</text><ellipse cx="18" cy="233.5999" fill="#84BE84" rx="3" ry="3" style="stroke:#038048;stroke-width:1.0;"/><text fill="#000000" font-family="sans-serif" font-size="14" lengthAdjust="spacing" textLength="144" x="27" y="240.5998">AuthorizationUpdated()</text></g><!--MD5=[2bb486e18dffc97c24a5fd8d709ce62f]
class IAuthorizationUpdated--><g id="elem_IAuthorizationUpdated"><rect codeLine="16" fill="#FFFFFF" height="48" id="IAuthorizationUpdated" rx="2.5" ry="2.5" style="stroke:#555555;stroke-width:0.5;" width="173" x="15.5" y="307"/><rect fill="#808080" height="32" rx="2.5" ry="2.5" style="stroke:#808080;stroke-width:0.5;" width="173" x="15.5" y="307"/><rect fill="#808080" height="2.5" style="stroke:#808080;stroke-width:0.5;" width="173" x="15.5" y="336.5"/><rect codeLine="16" fill="none" height="48" id="IAuthorizationUpdated" rx="2.5" ry="2.5" style="stroke:#555555;stroke-width:0.5;" width="173" x="15.5" y="307"/><ellipse cx="30.5" cy="323" fill="#B4A7E5" rx="11" ry="11" style="stroke:#181818;stroke-width:1.0;"/><path d="M33.1719,326.2969 Q33.7188,326.2969 34,326.4844 Q34.2813,326.6563 34.2813,327.1563 Q34.2813,328 33.1719,328 L28.0313,328 Q26.9063,328 26.9063,327.1563 Q26.9063,326.6563 27.1875,326.4844 Q27.4844,326.2969 28.0313,326.2969 L29.75,326.2969 L29.75,319.7813 L28.0313,319.7813 Q26.9063,319.7813 26.9063,318.9375 Q26.9063,318.4531 27.1875,318.2813 Q27.4844,318.0938 28.0313,318.0938 L33.1719,318.0938 Q33.7188,318.0938 34,318.2813 Q34.2813,318.4531 34.2813,318.9375 Q34.2813,319.7813 33.1719,319.7813 L31.4531,319.7813 L31.4531,326.2969 L33.1719,326.2969 Z " fill="#000000"/><text fill="#000000" font-family="sans-serif" font-size="14" font-style="italic" lengthAdjust="spacing" textLength="141" x="44.5" y="328.6">IAuthorizationUpdated</text><line style="stroke:#555555;stroke-width:0.5;" x1="16.5" x2="187.5" y1="339" y2="339"/><line style="stroke:#555555;stroke-width:0.5;" x1="16.5" x2="187.5" y1="347" y2="347"/></g><!--MD5=[c6fe9872d9b14b56a42ad742d41f03cd]
reverse link BusBase.lvlib:BusBase to BusAuthorizationUpdated--><g id="link_BusBase.lvlib:BusBase_BusAuthorizationUpdated"><path codeLine="14" d="M102,109.44 C102,122.09 102,135.97 102,148.89 " fill="none" id="BusBase.lvlib:BusBase-backto-BusAuthorizationUpdated" style="stroke:#181818;stroke-width:1.0;"/><polygon fill="none" points="95,109.12,102,89.12,109,109.12,95,109.12" style="stroke:#181818;stroke-width:1.0;"/></g><!--MD5=[120bfc4b849b92fd1a2bb9685cb96df6]
reverse link IAuthorizationUpdated to BusAuthorizationUpdated--><g id="link_IAuthorizationUpdated_BusAuthorizationUpdated"><path codeLine="15" d="M114.76,287.03 C115.63,274.24 115.73,260.13 115.06,247.04 " fill="none" id="IAuthorizationUpdated-backto-BusAuthorizationUpdated" style="stroke:#181818;stroke-width:1.0;stroke-dasharray:7.0,7.0;"/><polygon fill="none" points="121.72,287.81,112.58,306.93,107.8,286.28,121.72,287.81" style="stroke:#181818;stroke-width:1.0;"/></g><!--MD5=[9592f4b9790b41ada1b9e1830e8586a3]
reverse link BusAuthorizationUpdated to IAuthorizationUpdated--><g id="link_BusAuthorizationUpdated_IAuthorizationUpdated"><path codeLine="18" d="M89.27,260.22 C89.09,276.86 90,293.87 92.01,306.93 " fill="none" id="BusAuthorizationUpdated-backto-IAuthorizationUpdated" style="stroke:#181818;stroke-width:1.0;"/><polygon fill="#181818" points="89.66,247.04,85.4903,252.9233,89.3173,259.0351,93.487,253.1518,89.66,247.04" style="stroke:#181818;stroke-width:1.0;"/></g><!--MD5=[5e6be01d7d9d1705aeeed09da57d0a31]
@startuml
set namespaceSeparator :
skinparam ClassBackgroundColor #FFFFFF
skinparam ClassBorderColor #555555
skinparam ClassFontColor #000000
skinparam ClassHeaderBackgroundColor #808080

skinparam top to bottom direction
class "BusAuthorizationUpdated" {
{field} -BusType : LV Class
{method} +GetExternalInterfaces()
{method} +AuthorizationUpdated()

}
"BusBase.lvlib:BusBase" <|- - "BusAuthorizationUpdated"
"IAuthorizationUpdated" <|.. "BusAuthorizationUpdated"
interface "IAuthorizationUpdated" {}

"BusAuthorizationUpdated" *- - "IAuthorizationUpdated"



@enduml

PlantUML version 1.2022.5(Sat Apr 30 10:55:52 GMT 2022)
(GPL source distribution)
Java Runtime: OpenJDK Runtime Environment
JVM: OpenJDK 64-Bit Server VM
Default Encoding: UTF-8
Language: en
Country: US
--></g></svg>