<?xml version="1.0" encoding="UTF-8" standalone="no"?><svg xmlns="http://www.w3.org/2000/svg" xmlns:xlink="http://www.w3.org/1999/xlink" contentStyleType="text/css" height="438px" preserveAspectRatio="none" style="width:304px;height:438px;background:#FFFFFF;" version="1.1" viewBox="0 0 304 438" width="304px" zoomAndPan="magnify"><defs/><g><!--MD5=[49827e1bab8626e5ec2fb4ad52723fa5]
class IApplicationConfiguration--><g id="elem_IApplicationConfiguration"><rect codeLine="8" fill="#FFFFFF" height="316.7988" id="IApplicationConfiguration" rx="2.5" ry="2.5" style="stroke:#555555;stroke-width:0.5;" width="290" x="7" y="115"/><rect fill="#808080" height="32" rx="2.5" ry="2.5" style="stroke:#808080;stroke-width:0.5;" width="290" x="7" y="115"/><rect fill="#808080" height="2.5" style="stroke:#808080;stroke-width:0.5;" width="290" x="7" y="144.5"/><rect codeLine="8" fill="none" height="316.7988" id="IApplicationConfiguration" rx="2.5" ry="2.5" style="stroke:#555555;stroke-width:0.5;" width="290" x="7" y="115"/><ellipse cx="68.75" cy="131" fill="#B4A7E5" rx="11" ry="11" style="stroke:#181818;stroke-width:1.0;"/><path d="M71.4219,134.2969 Q71.9688,134.2969 72.25,134.4844 Q72.5313,134.6563 72.5313,135.1563 Q72.5313,136 71.4219,136 L66.2813,136 Q65.1563,136 65.1563,135.1563 Q65.1563,134.6563 65.4375,134.4844 Q65.7344,134.2969 66.2813,134.2969 L68,134.2969 L68,127.7813 L66.2813,127.7813 Q65.1563,127.7813 65.1563,126.9375 Q65.1563,126.4531 65.4375,126.2813 Q65.7344,126.0938 66.2813,126.0938 L71.4219,126.0938 Q71.9688,126.0938 72.25,126.2813 Q72.5313,126.4531 72.5313,126.9375 Q72.5313,127.7813 71.4219,127.7813 L69.7031,127.7813 L69.7031,134.2969 L71.4219,134.2969 Z " fill="#000000"/><text fill="#000000" font-family="sans-serif" font-size="14" font-style="italic" lengthAdjust="spacing" textLength="158" x="89.25" y="136.6">IApplicationConfiguration</text><line style="stroke:#555555;stroke-width:0.5;" x1="8" x2="296" y1="147" y2="147"/><line style="stroke:#555555;stroke-width:0.5;" x1="8" x2="296" y1="155" y2="155"/><ellipse cx="18" cy="166" fill="#84BE84" rx="3" ry="3" style="stroke:#038048;stroke-width:1.0;"/><text fill="#000000" font-family="sans-serif" font-size="14" lengthAdjust="spacing" text-decoration="underline" textLength="264" x="27" y="172.9999">ApplicationConfigurationName --constant()</text><ellipse cx="18" cy="182.7999" fill="#84BE84" rx="3" ry="3" style="stroke:#038048;stroke-width:1.0;"/><text fill="#000000" font-family="sans-serif" font-size="14" lengthAdjust="spacing" textLength="51" x="27" y="189.7999">Create()</text><ellipse cx="18" cy="199.5999" fill="#84BE84" rx="3" ry="3" style="stroke:#038048;stroke-width:1.0;"/><text fill="#000000" font-family="sans-serif" font-size="14" lengthAdjust="spacing" textLength="155" x="27" y="206.5998">GetObjectConfiguration()</text><ellipse cx="18" cy="216.3998" fill="#84BE84" rx="3" ry="3" style="stroke:#038048;stroke-width:1.0;"/><text fill="#000000" font-family="sans-serif" font-size="14" lengthAdjust="spacing" textLength="192" x="27" y="223.3997">GetObjectConfigurationString()</text><ellipse cx="18" cy="233.1997" fill="#84BE84" rx="3" ry="3" style="stroke:#038048;stroke-width:1.0;"/><text fill="#000000" font-family="sans-serif" font-size="14" lengthAdjust="spacing" textLength="153" x="27" y="240.1996">SetObjectConfiguration()</text><ellipse cx="18" cy="249.9996" fill="#84BE84" rx="3" ry="3" style="stroke:#038048;stroke-width:1.0;"/><text fill="#000000" font-family="sans-serif" font-size="14" lengthAdjust="spacing" textLength="190" x="27" y="256.9996">SetObjectConfigurationString()</text><ellipse cx="18" cy="266.7996" fill="#84BE84" rx="3" ry="3" style="stroke:#038048;stroke-width:1.0;"/><text fill="#000000" font-family="sans-serif" font-size="14" lengthAdjust="spacing" textLength="117" x="27" y="273.7995">GetAllObjectData()</text><ellipse cx="18" cy="283.5995" fill="#84BE84" rx="3" ry="3" style="stroke:#038048;stroke-width:1.0;"/><text fill="#000000" font-family="sans-serif" font-size="14" lengthAdjust="spacing" textLength="184" x="27" y="290.5994">GetObjectExternalInterfaces()</text><ellipse cx="18" cy="300.3994" fill="#84BE84" rx="3" ry="3" style="stroke:#038048;stroke-width:1.0;"/><text fill="#000000" font-family="sans-serif" font-size="14" lengthAdjust="spacing" textLength="44" x="27" y="307.3994">Open()</text><ellipse cx="18" cy="317.1993" fill="#84BE84" rx="3" ry="3" style="stroke:#038048;stroke-width:1.0;"/><text fill="#000000" font-family="sans-serif" font-size="14" lengthAdjust="spacing" textLength="158" x="27" y="324.1993">SetApplicationBasePath()</text><ellipse cx="18" cy="333.9993" fill="#84BE84" rx="3" ry="3" style="stroke:#038048;stroke-width:1.0;"/><text fill="#000000" font-family="sans-serif" font-size="14" lengthAdjust="spacing" textLength="175" x="27" y="340.9992">GetConfigurationBasePath()</text><ellipse cx="18" cy="350.7992" fill="#84BE84" rx="3" ry="3" style="stroke:#038048;stroke-width:1.0;"/><text fill="#000000" font-family="sans-serif" font-size="14" lengthAdjust="spacing" textLength="174" x="27" y="357.7991">GetExternalInterfaceString()</text><ellipse cx="18" cy="367.5991" fill="#84BE84" rx="3" ry="3" style="stroke:#038048;stroke-width:1.0;"/><text fill="#000000" font-family="sans-serif" font-size="14" lengthAdjust="spacing" textLength="122" x="27" y="374.5991">ListConfigurations()</text><ellipse cx="18" cy="384.399" fill="#84BE84" rx="3" ry="3" style="stroke:#038048;stroke-width:1.0;"/><text fill="#000000" font-family="sans-serif" font-size="14" lengthAdjust="spacing" textLength="152" x="27" y="391.399">GetConfigurationString()</text><ellipse cx="18" cy="401.199" fill="#84BE84" rx="3" ry="3" style="stroke:#038048;stroke-width:1.0;"/><text fill="#000000" font-family="sans-serif" font-size="14" lengthAdjust="spacing" textLength="150" x="27" y="408.1989">SetConfigurationString()</text><ellipse cx="18" cy="417.9989" fill="#84BE84" rx="3" ry="3" style="stroke:#038048;stroke-width:1.0;"/><text fill="#000000" font-family="sans-serif" font-size="14" lengthAdjust="spacing" textLength="102" x="27" y="424.9988">GetObjectData()</text></g><!--MD5=[065ef51c0b83ac26c2e8b4ca504d0938]
class IInterface--><g id="elem_IInterface"><rect codeLine="28" fill="#FFFFFF" height="48" id="IInterface" rx="2.5" ry="2.5" style="stroke:#555555;stroke-width:0.5;" width="92" x="106" y="7"/><rect fill="#808080" height="32" rx="2.5" ry="2.5" style="stroke:#808080;stroke-width:0.5;" width="92" x="106" y="7"/><rect fill="#808080" height="2.5" style="stroke:#808080;stroke-width:0.5;" width="92" x="106" y="36.5"/><rect codeLine="28" fill="none" height="48" id="IInterface" rx="2.5" ry="2.5" style="stroke:#555555;stroke-width:0.5;" width="92" x="106" y="7"/><ellipse cx="121" cy="23" fill="#B4A7E5" rx="11" ry="11" style="stroke:#181818;stroke-width:1.0;"/><path d="M123.6719,26.2969 Q124.2188,26.2969 124.5,26.4844 Q124.7813,26.6563 124.7813,27.1563 Q124.7813,28 123.6719,28 L118.5313,28 Q117.4063,28 117.4063,27.1563 Q117.4063,26.6563 117.6875,26.4844 Q117.9844,26.2969 118.5313,26.2969 L120.25,26.2969 L120.25,19.7813 L118.5313,19.7813 Q117.4063,19.7813 117.4063,18.9375 Q117.4063,18.4531 117.6875,18.2813 Q117.9844,18.0938 118.5313,18.0938 L123.6719,18.0938 Q124.2188,18.0938 124.5,18.2813 Q124.7813,18.4531 124.7813,18.9375 Q124.7813,19.7813 123.6719,19.7813 L121.9531,19.7813 L121.9531,26.2969 L123.6719,26.2969 Z " fill="#000000"/><text fill="#000000" font-family="sans-serif" font-size="14" font-style="italic" lengthAdjust="spacing" textLength="60" x="135" y="28.6">IInterface</text><line style="stroke:#555555;stroke-width:0.5;" x1="107" x2="197" y1="39" y2="39"/><line style="stroke:#555555;stroke-width:0.5;" x1="107" x2="197" y1="47" y2="47"/></g><!--MD5=[895d397dfa1ae4d5857552bb76866b2e]
reverse link IInterface to IApplicationConfiguration--><g id="link_IInterface_IApplicationConfiguration"><path codeLine="27" d="M152,75.41 C152,87.21 152,100.7 152,114.97 " fill="none" id="IInterface-backto-IApplicationConfiguration" style="stroke:#181818;stroke-width:1.0;stroke-dasharray:7.0,7.0;"/><polygon fill="none" points="145,75.06,152,55.06,159,75.06,145,75.06" style="stroke:#181818;stroke-width:1.0;"/></g><!--MD5=[1d626cdbf24be874089414782c73255f]
@startuml
set namespaceSeparator :
skinparam ClassBackgroundColor #FFFFFF
skinparam ClassBorderColor #555555
skinparam ClassFontColor #000000
skinparam ClassHeaderBackgroundColor #808080

skinparam top to bottom direction
interface "IApplicationConfiguration" {
{static} {method} +ApplicationConfigurationName - -constant()
{method} +Create()
{method} +GetObjectConfiguration()
{method} +GetObjectConfigurationString()
{method} +SetObjectConfiguration()
{method} +SetObjectConfigurationString()
{method} +GetAllObjectData()
{method} +GetObjectExternalInterfaces()
{method} +Open()
{method} +SetApplicationBasePath()
{method} +GetConfigurationBasePath()
{method} +GetExternalInterfaceString()
{method} +ListConfigurations()
{method} +GetConfigurationString()
{method} +SetConfigurationString()
{method} +GetObjectData()

}
"IInterface" <|.. "IApplicationConfiguration"
interface "IInterface" {}




@enduml

PlantUML version 1.2022.5(Sat Apr 30 10:55:52 GMT 2022)
(GPL source distribution)
Java Runtime: OpenJDK Runtime Environment
JVM: OpenJDK 64-Bit Server VM
Default Encoding: UTF-8
Language: en
Country: US
--></g></svg>