<?xml version="1.0" encoding="UTF-8" standalone="no"?><svg xmlns="http://www.w3.org/2000/svg" xmlns:xlink="http://www.w3.org/1999/xlink" contentStyleType="text/css" height="270px" preserveAspectRatio="none" style="width:260px;height:270px;background:#FFFFFF;" version="1.1" viewBox="0 0 260 270" width="260px" zoomAndPan="magnify"><defs/><g><!--MD5=[6be743dc3575b5259ff4514d23aff424]
class ButtonCollection--><g id="elem_ButtonCollection"><rect codeLine="8" fill="#FFFFFF" height="249.5991" id="ButtonCollection" rx="2.5" ry="2.5" style="stroke:#555555;stroke-width:0.5;" width="239" x="7" y="7"/><rect fill="#808080" height="32" rx="2.5" ry="2.5" style="stroke:#808080;stroke-width:0.5;" width="239" x="7" y="7"/><rect fill="#808080" height="2.5" style="stroke:#808080;stroke-width:0.5;" width="239" x="7" y="36.5"/><rect codeLine="8" fill="none" height="249.5991" id="ButtonCollection" rx="2.5" ry="2.5" style="stroke:#555555;stroke-width:0.5;" width="239" x="7" y="7"/><ellipse cx="72.75" cy="23" fill="#ADD1B2" rx="11" ry="11" style="stroke:#181818;stroke-width:1.0;"/><path d="M72.1094,26.7813 Q72.9063,26.7813 73.4688,26.5938 Q74.0469,26.3906 74.2813,26.1719 Q74.5313,25.9375 74.7656,25.75 Q75.0156,25.5469 75.2344,25.5469 Q75.5781,25.5469 75.8281,25.8125 Q76.0938,26.0625 76.0938,26.3906 Q76.0938,27.125 74.9219,27.8125 Q73.7656,28.4844 72.0625,28.4844 Q69.9063,28.4844 68.4844,27.2188 Q67.0625,25.9531 67.0625,24.0156 L67.0625,22.8906 Q67.0625,20.8594 68.3906,19.4844 Q69.7188,18.0938 71.6875,18.0938 Q72.875,18.0938 74.0938,18.6719 L74.2656,18.75 Q74.5625,18.3438 74.9844,18.3438 Q75.4688,18.3438 75.6406,18.6406 Q75.8281,18.9219 75.8281,19.4688 L75.8281,20.8906 Q75.8281,22.0156 74.9844,22.0156 Q74.6719,22.0156 74.4688,21.8438 Q74.2813,21.6719 74.2344,21.5313 Q74.2031,21.375 74.1563,21.1094 Q74.0469,20.5938 73.5313,20.2813 Q73.0156,19.9688 72.5625,19.8906 Q72.125,19.7969 71.75,19.7969 Q70.4688,19.7969 69.6094,20.6719 Q68.7656,21.5469 68.7656,22.8906 L68.7656,23.9844 Q68.7656,25.2656 69.6719,26.0313 Q70.5781,26.7813 72.1094,26.7813 Z " fill="#000000"/><text fill="#000000" font-family="sans-serif" font-size="14" lengthAdjust="spacing" textLength="99" x="93.25" y="28.6">ButtonCollection</text><line style="stroke:#555555;stroke-width:0.5;" x1="8" x2="245" y1="39" y2="39"/><rect fill="none" height="6" style="stroke:#C82930;stroke-width:1.0;" width="6" x="15" y="47"/><text fill="#000000" font-family="sans-serif" font-size="14" lengthAdjust="spacing" textLength="213" x="27" y="56.9999">ButtonDefinitions : Array of Cluster</text><rect fill="none" height="6" style="stroke:#C82930;stroke-width:1.0;" width="6" x="15" y="63.7999"/><text fill="#000000" font-family="sans-serif" font-size="14" lengthAdjust="spacing" textLength="103" x="27" y="73.7999">Buttons : Cluster</text><rect fill="none" height="6" style="stroke:#C82930;stroke-width:1.0;" width="6" x="15" y="80.5999"/><text fill="#000000" font-family="sans-serif" font-size="14" lengthAdjust="spacing" textLength="93" x="27" y="90.5998">Active : Cluster</text><rect fill="none" height="6" style="stroke:#C82930;stroke-width:1.0;" width="6" x="15" y="97.3998"/><text fill="#000000" font-family="sans-serif" font-size="14" lengthAdjust="spacing" textLength="103" x="27" y="107.3997">ActiveIndex : I32</text><line style="stroke:#555555;stroke-width:0.5;" x1="8" x2="245" y1="114.1997" y2="114.1997"/><ellipse cx="18" cy="125.1997" fill="#84BE84" rx="3" ry="3" style="stroke:#038048;stroke-width:1.0;"/><text fill="#000000" font-family="sans-serif" font-size="14" lengthAdjust="spacing" text-decoration="underline" textLength="41" x="27" y="132.1996">Load()</text><ellipse cx="18" cy="141.9996" fill="#84BE84" rx="3" ry="3" style="stroke:#038048;stroke-width:1.0;"/><text fill="#000000" font-family="sans-serif" font-size="14" lengthAdjust="spacing" text-decoration="underline" textLength="110" x="27" y="148.9996">ManualWriteFile()</text><ellipse cx="18" cy="158.7996" fill="#84BE84" rx="3" ry="3" style="stroke:#038048;stroke-width:1.0;"/><text fill="#000000" font-family="sans-serif" font-size="14" lengthAdjust="spacing" text-decoration="underline" textLength="41" x="27" y="165.7995">Save()</text><ellipse cx="18" cy="175.5995" fill="#84BE84" rx="3" ry="3" style="stroke:#038048;stroke-width:1.0;"/><text fill="#000000" font-family="sans-serif" font-size="14" lengthAdjust="spacing" textLength="147" x="27" y="182.5994">ReadButtonDefinitions()</text><ellipse cx="18" cy="192.3994" fill="#84BE84" rx="3" ry="3" style="stroke:#038048;stroke-width:1.0;"/><text fill="#000000" font-family="sans-serif" font-size="14" lengthAdjust="spacing" textLength="64" x="27" y="199.3994">CleanUp()</text><ellipse cx="18" cy="209.1993" fill="#84BE84" rx="3" ry="3" style="stroke:#038048;stroke-width:1.0;"/><text fill="#000000" font-family="sans-serif" font-size="14" lengthAdjust="spacing" textLength="121" x="27" y="216.1993">SetButtonControls()</text><ellipse cx="18" cy="225.9993" fill="#84BE84" rx="3" ry="3" style="stroke:#038048;stroke-width:1.0;"/><text fill="#000000" font-family="sans-serif" font-size="14" lengthAdjust="spacing" textLength="40" x="27" y="232.9992">SetN()</text><ellipse cx="18" cy="242.7992" fill="#84BE84" rx="3" ry="3" style="stroke:#038048;stroke-width:1.0;"/><text fill="#000000" font-family="sans-serif" font-size="14" lengthAdjust="spacing" textLength="85" x="27" y="249.7991">PressButton()</text></g><!--MD5=[c1e1c4476199d970c7f3866ad1be7cd3]
@startuml
set namespaceSeparator :
skinparam ClassBackgroundColor #FFFFFF
skinparam ClassBorderColor #555555
skinparam ClassFontColor #000000
skinparam ClassHeaderBackgroundColor #808080

skinparam top to bottom direction
class "ButtonCollection" {
{field} -ButtonDefinitions : Array of Cluster
{field} -Buttons : Cluster
{field} -Active : Cluster
{field} -ActiveIndex : I32
{static} {method} +Load()
{static} {method} +ManualWriteFile()
{static} {method} +Save()
{method} +ReadButtonDefinitions()
{method} +CleanUp()
{method} +SetButtonControls()
{method} +SetN()
{method} +PressButton()

}



@enduml

PlantUML version 1.2022.5(Sat Apr 30 10:55:52 GMT 2022)
(GPL source distribution)
Java Runtime: OpenJDK Runtime Environment
JVM: OpenJDK 64-Bit Server VM
Default Encoding: UTF-8
Language: en
Country: US
--></g></svg>