<?xml version="1.0" encoding="UTF-8" standalone="no"?><svg xmlns="http://www.w3.org/2000/svg" xmlns:xlink="http://www.w3.org/1999/xlink" contentStyleType="text/css" height="203px" preserveAspectRatio="none" style="width:142px;height:203px;background:#FFFFFF;" version="1.1" viewBox="0 0 142 203" width="142px" zoomAndPan="magnify"><defs/><g><!--MD5=[0154008576c8d5ee615f41e1a3ff350e]
class ICreateDestroy--><g id="elem_ICreateDestroy"><rect codeLine="8" fill="#FFFFFF" height="81.5999" id="ICreateDestroy" rx="2.5" ry="2.5" style="stroke:#555555;stroke-width:0.5;" width="128" x="7" y="115"/><rect fill="#808080" height="32" rx="2.5" ry="2.5" style="stroke:#808080;stroke-width:0.5;" width="128" x="7" y="115"/><rect fill="#808080" height="2.5" style="stroke:#808080;stroke-width:0.5;" width="128" x="7" y="144.5"/><rect codeLine="8" fill="none" height="81.5999" id="ICreateDestroy" rx="2.5" ry="2.5" style="stroke:#555555;stroke-width:0.5;" width="128" x="7" y="115"/><ellipse cx="22" cy="131" fill="#B4A7E5" rx="11" ry="11" style="stroke:#181818;stroke-width:1.0;"/><path d="M24.6719,134.2969 Q25.2188,134.2969 25.5,134.4844 Q25.7813,134.6563 25.7813,135.1563 Q25.7813,136 24.6719,136 L19.5313,136 Q18.4063,136 18.4063,135.1563 Q18.4063,134.6563 18.6875,134.4844 Q18.9844,134.2969 19.5313,134.2969 L21.25,134.2969 L21.25,127.7813 L19.5313,127.7813 Q18.4063,127.7813 18.4063,126.9375 Q18.4063,126.4531 18.6875,126.2813 Q18.9844,126.0938 19.5313,126.0938 L24.6719,126.0938 Q25.2188,126.0938 25.5,126.2813 Q25.7813,126.4531 25.7813,126.9375 Q25.7813,127.7813 24.6719,127.7813 L22.9531,127.7813 L22.9531,134.2969 L24.6719,134.2969 Z " fill="#000000"/><text fill="#000000" font-family="sans-serif" font-size="14" font-style="italic" lengthAdjust="spacing" textLength="96" x="36" y="136.6">ICreateDestroy</text><line style="stroke:#555555;stroke-width:0.5;" x1="8" x2="134" y1="147" y2="147"/><line style="stroke:#555555;stroke-width:0.5;" x1="8" x2="134" y1="155" y2="155"/><ellipse cx="18" cy="166" fill="#84BE84" rx="3" ry="3" style="stroke:#038048;stroke-width:1.0;"/><text fill="#000000" font-family="sans-serif" font-size="14" lengthAdjust="spacing" textLength="51" x="27" y="172.9999">Create()</text><ellipse cx="18" cy="182.7999" fill="#84BE84" rx="3" ry="3" style="stroke:#038048;stroke-width:1.0;"/><text fill="#000000" font-family="sans-serif" font-size="14" lengthAdjust="spacing" textLength="57" x="27" y="189.7999">Destroy()</text></g><!--MD5=[065ef51c0b83ac26c2e8b4ca504d0938]
class IInterface--><g id="elem_IInterface"><rect codeLine="14" fill="#FFFFFF" height="48" id="IInterface" rx="2.5" ry="2.5" style="stroke:#555555;stroke-width:0.5;" width="92" x="25" y="7"/><rect fill="#808080" height="32" rx="2.5" ry="2.5" style="stroke:#808080;stroke-width:0.5;" width="92" x="25" y="7"/><rect fill="#808080" height="2.5" style="stroke:#808080;stroke-width:0.5;" width="92" x="25" y="36.5"/><rect codeLine="14" fill="none" height="48" id="IInterface" rx="2.5" ry="2.5" style="stroke:#555555;stroke-width:0.5;" width="92" x="25" y="7"/><ellipse cx="40" cy="23" fill="#B4A7E5" rx="11" ry="11" style="stroke:#181818;stroke-width:1.0;"/><path d="M42.6719,26.2969 Q43.2188,26.2969 43.5,26.4844 Q43.7813,26.6563 43.7813,27.1563 Q43.7813,28 42.6719,28 L37.5313,28 Q36.4063,28 36.4063,27.1563 Q36.4063,26.6563 36.6875,26.4844 Q36.9844,26.2969 37.5313,26.2969 L39.25,26.2969 L39.25,19.7813 L37.5313,19.7813 Q36.4063,19.7813 36.4063,18.9375 Q36.4063,18.4531 36.6875,18.2813 Q36.9844,18.0938 37.5313,18.0938 L42.6719,18.0938 Q43.2188,18.0938 43.5,18.2813 Q43.7813,18.4531 43.7813,18.9375 Q43.7813,19.7813 42.6719,19.7813 L40.9531,19.7813 L40.9531,26.2969 L42.6719,26.2969 Z " fill="#000000"/><text fill="#000000" font-family="sans-serif" font-size="14" font-style="italic" lengthAdjust="spacing" textLength="60" x="54" y="28.6">IInterface</text><line style="stroke:#555555;stroke-width:0.5;" x1="26" x2="116" y1="39" y2="39"/><line style="stroke:#555555;stroke-width:0.5;" x1="26" x2="116" y1="47" y2="47"/></g><!--MD5=[d29f24f376d1c9c2ad849cdd5ff67fae]
reverse link IInterface to ICreateDestroy--><g id="link_IInterface_ICreateDestroy"><path codeLine="13" d="M71,75.6 C71,88.28 71,102.06 71,114.53 " fill="none" id="IInterface-backto-ICreateDestroy" style="stroke:#181818;stroke-width:1.0;stroke-dasharray:7.0,7.0;"/><polygon fill="none" points="64,75.14,71,55.14,78,75.14,64,75.14" style="stroke:#181818;stroke-width:1.0;"/></g><!--MD5=[0d8d8165a78aa8fb15c4d48415f00ae4]
@startuml
set namespaceSeparator :
skinparam ClassBackgroundColor #FFFFFF
skinparam ClassBorderColor #555555
skinparam ClassFontColor #000000
skinparam ClassHeaderBackgroundColor #808080

skinparam top to bottom direction
interface "ICreateDestroy" {
{method} +Create()
{method} +Destroy()

}
"IInterface" <|.. "ICreateDestroy"
interface "IInterface" {}




@enduml

PlantUML version 1.2022.5(Sat Apr 30 10:55:52 GMT 2022)
(GPL source distribution)
Java Runtime: OpenJDK Runtime Environment
JVM: OpenJDK 64-Bit Server VM
Default Encoding: UTF-8
Language: en
Country: US
--></g></svg>