<?xml version="1.0" encoding="UTF-8" standalone="no"?><svg xmlns="http://www.w3.org/2000/svg" xmlns:xlink="http://www.w3.org/1999/xlink" contentStyleType="text/css" height="571px" preserveAspectRatio="none" style="width:310px;height:571px;background:#FFFFFF;" version="1.1" viewBox="0 0 310 571" width="310px" zoomAndPan="magnify"><defs/><g><!--MD5=[15da4e99133d7369dbaecb4d0c3b7491]
class TAFTraceWindow--><g id="elem_TAFTraceWindow"><rect codeLine="8" fill="#FFFFFF" height="341.3438" id="TAFTraceWindow" rx="2.5" ry="2.5" style="stroke:#555555;stroke-width:0.5;" width="282" x="9" y="115"/><rect fill="#808080" height="32" rx="2.5" ry="2.5" style="stroke:#808080;stroke-width:0.5;" width="282" x="9" y="115"/><rect fill="#808080" height="2.5" style="stroke:#808080;stroke-width:0.5;" width="282" x="9" y="144.5"/><rect codeLine="8" fill="none" height="341.3438" id="TAFTraceWindow" rx="2.5" ry="2.5" style="stroke:#555555;stroke-width:0.5;" width="282" x="9" y="115"/><ellipse cx="86.25" cy="131" fill="#ADD1B2" rx="11" ry="11" style="stroke:#181818;stroke-width:1.0;"/><path d="M89.2188,136.6406 Q88.6406,136.9375 88,137.0781 Q87.3594,137.2344 86.6563,137.2344 Q84.1563,137.2344 82.8281,135.5938 Q81.5156,133.9375 81.5156,130.8125 Q81.5156,127.6875 82.8281,126.0313 Q84.1563,124.375 86.6563,124.375 Q87.3594,124.375 88,124.5313 Q88.6563,124.6875 89.2188,124.9844 L89.2188,127.7031 Q88.5938,127.125 88,126.8594 Q87.4063,126.5781 86.7813,126.5781 Q85.4375,126.5781 84.75,127.6563 Q84.0625,128.7188 84.0625,130.8125 Q84.0625,132.9063 84.75,133.9844 Q85.4375,135.0469 86.7813,135.0469 Q87.4063,135.0469 88,134.7813 Q88.5938,134.5 89.2188,133.9219 L89.2188,136.6406 Z " fill="#000000"/><text fill="#000000" font-family="sans-serif" font-size="14" lengthAdjust="spacing" textLength="119" x="106.75" y="135.8467">TAFTraceWindow</text><line style="stroke:#555555;stroke-width:0.5;" x1="10" x2="290" y1="147" y2="147"/><rect fill="none" height="6" style="stroke:#C82930;stroke-width:1.0;" width="6" x="17" y="157.6484"/><text fill="#000000" font-family="sans-serif" font-size="14" lengthAdjust="spacing" textLength="185" x="29" y="163.9951">ExternalInterfaces : Cluster</text><rect fill="none" height="6" style="stroke:#C82930;stroke-width:1.0;" width="6" x="17" y="173.9453"/><text fill="#000000" font-family="sans-serif" font-size="14" lengthAdjust="spacing" textLength="97" x="29" y="180.292">Local : Cluster</text><rect fill="none" height="6" style="stroke:#C82930;stroke-width:1.0;" width="6" x="17" y="190.2422"/><text fill="#000000" font-family="sans-serif" font-size="14" lengthAdjust="spacing" textLength="132" x="29" y="196.5889">Persistent : Cluster</text><line style="stroke:#555555;stroke-width:0.5;" x1="10" x2="290" y1="203.8906" y2="203.8906"/><rect fill="#F24D5C" height="6" style="stroke:#C82930;stroke-width:1.0;" width="6" x="17" y="214.5391"/><text fill="#000000" font-family="sans-serif" font-size="14" lengthAdjust="spacing" text-decoration="underline" textLength="219" x="29" y="220.8857">TAFTraceWindow_CastUIEvent()</text><rect fill="#F24D5C" height="6" style="stroke:#C82930;stroke-width:1.0;" width="6" x="17" y="230.8359"/><text fill="#000000" font-family="sans-serif" font-size="14" lengthAdjust="spacing" text-decoration="underline" textLength="204" x="29" y="237.1826">TAFTraceWindow_ClassCast()</text><rect fill="#F24D5C" height="6" style="stroke:#C82930;stroke-width:1.0;" width="6" x="17" y="247.1328"/><text fill="#000000" font-family="sans-serif" font-size="14" lengthAdjust="spacing" text-decoration="underline" textLength="120" x="29" y="253.4795">FiterCheckSend()</text><polygon fill="#FFFF44" points="20,261.4297,24,265.4297,20,269.4297,16,265.4297" style="stroke:#B38D22;stroke-width:1.0;"/><text fill="#000000" font-family="sans-serif" font-size="14" lengthAdjust="spacing" text-decoration="underline" textLength="224" x="29" y="269.7764">TAFTraceWindow_SendUiEvent()</text><ellipse cx="20" cy="282.7266" fill="#84BE84" rx="3" ry="3" style="stroke:#038048;stroke-width:1.0;"/><text fill="#000000" font-family="sans-serif" font-size="14" lengthAdjust="spacing" text-decoration="underline" textLength="237" x="29" y="286.0732">TAFTraceWindow_AddSubscriber()</text><ellipse cx="20" cy="299.0234" fill="#84BE84" rx="3" ry="3" style="stroke:#038048;stroke-width:1.0;"/><text fill="#000000" font-family="sans-serif" font-size="14" lengthAdjust="spacing" text-decoration="underline" textLength="256" x="29" y="302.3701">TAFTraceWindow_DeleteSubscriber()</text><ellipse cx="20" cy="315.3203" fill="#84BE84" rx="3" ry="3" style="stroke:#038048;stroke-width:1.0;"/><text fill="#000000" font-family="sans-serif" font-size="14" lengthAdjust="spacing" text-decoration="underline" textLength="254" x="29" y="318.667">TAFTraceWindow_TemplateMethod()</text><polygon fill="#FFFF44" points="20,326.6172,24,330.6172,20,334.6172,16,330.6172" style="stroke:#B38D22;stroke-width:1.0;"/><text fill="#000000" font-family="sans-serif" font-size="14" lengthAdjust="spacing" textLength="84" x="29" y="334.9639">Destructor()</text><polygon fill="#FFFF44" points="20,342.9141,24,346.9141,20,350.9141,16,346.9141" style="stroke:#B38D22;stroke-width:1.0;"/><text fill="#000000" font-family="sans-serif" font-size="14" lengthAdjust="spacing" textLength="207" x="29" y="351.2607">WritePersistentConfiguration()</text><polygon fill="#FFFF44" points="20,359.2109,24,363.2109,20,367.2109,16,363.2109" style="stroke:#B38D22;stroke-width:1.0;"/><text fill="#000000" font-family="sans-serif" font-size="14" lengthAdjust="spacing" textLength="208" x="29" y="367.5576">ReadPersistentConfiguration()</text><ellipse cx="20" cy="380.5078" fill="#84BE84" rx="3" ry="3" style="stroke:#038048;stroke-width:1.0;"/><text fill="#000000" font-family="sans-serif" font-size="14" lengthAdjust="spacing" textLength="111" x="29" y="383.8545">AddSubscriber()</text><ellipse cx="20" cy="396.8047" fill="#84BE84" rx="3" ry="3" style="stroke:#038048;stroke-width:1.0;"/><text fill="#000000" font-family="sans-serif" font-size="14" lengthAdjust="spacing" textLength="130" x="29" y="400.1514">DeleteSubscriber()</text><ellipse cx="20" cy="413.1016" fill="#84BE84" rx="3" ry="3" style="stroke:#038048;stroke-width:1.0;"/><text fill="#000000" font-family="sans-serif" font-size="14" lengthAdjust="spacing" textLength="128" x="29" y="416.4482">TemplateMethod()</text><ellipse cx="20" cy="429.3984" fill="#84BE84" rx="3" ry="3" style="stroke:#038048;stroke-width:1.0;"/><text fill="#000000" font-family="sans-serif" font-size="14" lengthAdjust="spacing" textLength="113" x="29" y="432.7451">SetDirectTrace()</text><polygon fill="#FFFF44" points="20,440.6953,24,444.6953,20,448.6953,16,444.6953" style="stroke:#B38D22;stroke-width:1.0;"/><text fill="#000000" font-family="sans-serif" font-size="14" lengthAdjust="spacing" textLength="66" x="29" y="449.042">MainGUI()</text></g><!--MD5=[36b646c945f5a836f61c707856d30646]
class YAFTAF--><g id="elem_YAFTAF"><rect fill="#FFFFFF" height="48" id="YAFTAF" rx="2.5" ry="2.5" style="stroke:#555555;stroke-width:0.5;" width="84" x="31" y="7"/><rect fill="#808080" height="32" rx="2.5" ry="2.5" style="stroke:#808080;stroke-width:0.5;" width="84" x="31" y="7"/><rect fill="#808080" height="2.5" style="stroke:#808080;stroke-width:0.5;" width="84" x="31" y="36.5"/><rect fill="none" height="48" id="YAFTAF" rx="2.5" ry="2.5" style="stroke:#555555;stroke-width:0.5;" width="84" x="31" y="7"/><ellipse cx="46" cy="23" fill="#ADD1B2" rx="11" ry="11" style="stroke:#181818;stroke-width:1.0;"/><path d="M48.9688,28.6406 Q48.3906,28.9375 47.75,29.0781 Q47.1094,29.2344 46.4063,29.2344 Q43.9063,29.2344 42.5781,27.5938 Q41.2656,25.9375 41.2656,22.8125 Q41.2656,19.6875 42.5781,18.0313 Q43.9063,16.375 46.4063,16.375 Q47.1094,16.375 47.75,16.5313 Q48.4063,16.6875 48.9688,16.9844 L48.9688,19.7031 Q48.3438,19.125 47.75,18.8594 Q47.1563,18.5781 46.5313,18.5781 Q45.1875,18.5781 44.5,19.6563 Q43.8125,20.7188 43.8125,22.8125 Q43.8125,24.9063 44.5,25.9844 Q45.1875,27.0469 46.5313,27.0469 Q47.1563,27.0469 47.75,26.7813 Q48.3438,26.5 48.9688,25.9219 L48.9688,28.6406 Z " fill="#000000"/><text fill="#000000" font-family="sans-serif" font-size="14" lengthAdjust="spacing" textLength="52" x="60" y="27.8467">YAFTAF</text><line style="stroke:#555555;stroke-width:0.5;" x1="32" x2="114" y1="39" y2="39"/><line style="stroke:#555555;stroke-width:0.5;" x1="32" x2="114" y1="47" y2="47"/></g><!--MD5=[131dfa876bc571c892ddb67ee9c95570]
class ITAFFilteredTrace--><g id="elem_ITAFFilteredTrace"><rect codeLine="31" fill="#FFFFFF" height="48" id="ITAFFilteredTrace" rx="2.5" ry="2.5" style="stroke:#555555;stroke-width:0.5;" width="153" x="150.5" y="7"/><rect fill="#808080" height="32" rx="2.5" ry="2.5" style="stroke:#808080;stroke-width:0.5;" width="153" x="150.5" y="7"/><rect fill="#808080" height="2.5" style="stroke:#808080;stroke-width:0.5;" width="153" x="150.5" y="36.5"/><rect codeLine="31" fill="none" height="48" id="ITAFFilteredTrace" rx="2.5" ry="2.5" style="stroke:#555555;stroke-width:0.5;" width="153" x="150.5" y="7"/><ellipse cx="165.5" cy="23" fill="#B4A7E5" rx="11" ry="11" style="stroke:#181818;stroke-width:1.0;"/><path d="M161.4219,18.7656 L161.4219,16.6094 L168.8125,16.6094 L168.8125,18.7656 L166.3438,18.7656 L166.3438,26.8438 L168.8125,26.8438 L168.8125,29 L161.4219,29 L161.4219,26.8438 L163.8906,26.8438 L163.8906,18.7656 L161.4219,18.7656 Z " fill="#000000"/><text fill="#000000" font-family="sans-serif" font-size="14" font-style="italic" lengthAdjust="spacing" textLength="121" x="179.5" y="27.8467">ITAFFilteredTrace</text><line style="stroke:#555555;stroke-width:0.5;" x1="151.5" x2="302.5" y1="39" y2="39"/><line style="stroke:#555555;stroke-width:0.5;" x1="151.5" x2="302.5" y1="47" y2="47"/></g><!--MD5=[fa9f007be859bf43007ba002c5b16515]
class ITAFObject--><g id="elem_ITAFObject"><rect fill="#FFFFFF" height="48" id="ITAFObject" rx="2.5" ry="2.5" style="stroke:#555555;stroke-width:0.5;" width="106" x="97" y="516"/><rect fill="#808080" height="32" rx="2.5" ry="2.5" style="stroke:#808080;stroke-width:0.5;" width="106" x="97" y="516"/><rect fill="#808080" height="2.5" style="stroke:#808080;stroke-width:0.5;" width="106" x="97" y="545.5"/><rect fill="none" height="48" id="ITAFObject" rx="2.5" ry="2.5" style="stroke:#555555;stroke-width:0.5;" width="106" x="97" y="516"/><ellipse cx="112" cy="532" fill="#ADD1B2" rx="11" ry="11" style="stroke:#181818;stroke-width:1.0;"/><path d="M114.9688,537.6406 Q114.3906,537.9375 113.75,538.0781 Q113.1094,538.2344 112.4063,538.2344 Q109.9063,538.2344 108.5781,536.5938 Q107.2656,534.9375 107.2656,531.8125 Q107.2656,528.6875 108.5781,527.0313 Q109.9063,525.375 112.4063,525.375 Q113.1094,525.375 113.75,525.5313 Q114.4063,525.6875 114.9688,525.9844 L114.9688,528.7031 Q114.3438,528.125 113.75,527.8594 Q113.1563,527.5781 112.5313,527.5781 Q111.1875,527.5781 110.5,528.6563 Q109.8125,529.7188 109.8125,531.8125 Q109.8125,533.9063 110.5,534.9844 Q111.1875,536.0469 112.5313,536.0469 Q113.1563,536.0469 113.75,535.7813 Q114.3438,535.5 114.9688,534.9219 L114.9688,537.6406 Z " fill="#000000"/><text fill="#000000" font-family="sans-serif" font-size="14" lengthAdjust="spacing" textLength="74" x="126" y="536.8467">ITAFObject</text><line style="stroke:#555555;stroke-width:0.5;" x1="98" x2="202" y1="548" y2="548"/><line style="stroke:#555555;stroke-width:0.5;" x1="98" x2="202" y1="556" y2="556"/></g><!--MD5=[bd1c2f4a494636b779019cc33c8778f1]
reverse link YAFTAF to TAFTraceWindow--><g id="link_YAFTAF_TAFTraceWindow"><path codeLine="29" d="M86,74.62 C89.64,86.55 93.83,100.29 98.29,114.92 " fill="none" id="YAFTAF-backto-TAFTraceWindow" style="stroke:#181818;stroke-width:1.0;"/><polygon fill="none" points="79.24,76.47,80.11,55.3,92.64,72.39,79.24,76.47" style="stroke:#181818;stroke-width:1.0;"/></g><!--MD5=[eb22ba8b8a556db998fea72f5ecdb365]
reverse link ITAFFilteredTrace to TAFTraceWindow--><g id="link_ITAFFilteredTrace_TAFTraceWindow"><path codeLine="30" d="M214,74.62 C210.36,86.55 206.17,100.29 201.71,114.92 " fill="none" id="ITAFFilteredTrace-backto-TAFTraceWindow" style="stroke:#181818;stroke-width:1.0;stroke-dasharray:7.0,7.0;"/><polygon fill="none" points="207.36,72.39,219.89,55.3,220.76,76.47,207.36,72.39" style="stroke:#181818;stroke-width:1.0;"/></g><!--MD5=[866a20d71767352f6af693e17130a494]
reverse link TAFTraceWindow to ITAFObject--><g id="link_TAFTraceWindow_ITAFObject"><path codeLine="33" d="M150,469.47 C150,487.55 150,503.67 150,515.83 " fill="none" id="TAFTraceWindow-backto-ITAFObject" style="stroke:#181818;stroke-width:1.0;"/><polygon fill="#181818" points="150,456.32,146,462.32,150,468.32,154,462.32,150,456.32" style="stroke:#181818;stroke-width:1.0;"/></g><!--MD5=[2ccf42ba89f04cb2df8a33c2751aa3a1]
@startuml
set namespaceSeparator :
skinparam ClassBackgroundColor #FFFFFF
skinparam ClassBorderColor #555555
skinparam ClassFontColor #000000
skinparam ClassHeaderBackgroundColor #808080

skinparam top to bottom direction
class "TAFTraceWindow" {
{field} -ExternalInterfaces : Cluster
{field} -Local : Cluster
{field} -Persistent : Cluster
{static} {method} -TAFTraceWindow_CastUIEvent()
{static} {method} -TAFTraceWindow_ClassCast()
{static} {method} -FiterCheckSend()
{static} {method} #TAFTraceWindow_SendUiEvent()
{static} {method} +TAFTraceWindow_AddSubscriber()
{static} {method} +TAFTraceWindow_DeleteSubscriber()
{static} {method} +TAFTraceWindow_TemplateMethod()
{method} #Destructor()
{method} #WritePersistentConfiguration()
{method} #ReadPersistentConfiguration()
{method} +AddSubscriber()
{method} +DeleteSubscriber()
{method} +TemplateMethod()
{method} +SetDirectTrace()
{method} #MainGUI()

}
"YAFTAF" <|- - "TAFTraceWindow"
"ITAFFilteredTrace" <|.. "TAFTraceWindow"
interface "ITAFFilteredTrace" {}

"TAFTraceWindow" *- - "ITAFObject"



@enduml

PlantUML version 1.2022.12(Sun Oct 23 18:12:26 GMT 2022)
(GPL source distribution)
Java Runtime: OpenJDK Runtime Environment
JVM: OpenJDK 64-Bit Server VM
Default Encoding: UTF-8
Language: en
Country: US
--></g></svg>