<?xml version="1.0" encoding="UTF-8" standalone="no"?><svg xmlns="http://www.w3.org/2000/svg" xmlns:xlink="http://www.w3.org/1999/xlink" contentStyleType="text/css" height="186px" preserveAspectRatio="none" style="width:107px;height:186px;background:#FFFFFF;" version="1.1" viewBox="0 0 107 186" width="107px" zoomAndPan="magnify"><defs/><g><!--MD5=[85956100a972d1a6c529b31adbe90b73]
class IDockGUI--><g id="elem_IDockGUI"><rect codeLine="8" fill="#FFFFFF" height="64.7999" id="IDockGUI" rx="2.5" ry="2.5" style="stroke:#555555;stroke-width:0.5;" width="93" x="7" y="115"/><rect fill="#808080" height="32" rx="2.5" ry="2.5" style="stroke:#808080;stroke-width:0.5;" width="93" x="7" y="115"/><rect fill="#808080" height="2.5" style="stroke:#808080;stroke-width:0.5;" width="93" x="7" y="144.5"/><rect codeLine="8" fill="none" height="64.7999" id="IDockGUI" rx="2.5" ry="2.5" style="stroke:#555555;stroke-width:0.5;" width="93" x="7" y="115"/><ellipse cx="22" cy="131" fill="#B4A7E5" rx="11" ry="11" style="stroke:#181818;stroke-width:1.0;"/><path d="M24.6719,134.2969 Q25.2188,134.2969 25.5,134.4844 Q25.7813,134.6563 25.7813,135.1563 Q25.7813,136 24.6719,136 L19.5313,136 Q18.4063,136 18.4063,135.1563 Q18.4063,134.6563 18.6875,134.4844 Q18.9844,134.2969 19.5313,134.2969 L21.25,134.2969 L21.25,127.7813 L19.5313,127.7813 Q18.4063,127.7813 18.4063,126.9375 Q18.4063,126.4531 18.6875,126.2813 Q18.9844,126.0938 19.5313,126.0938 L24.6719,126.0938 Q25.2188,126.0938 25.5,126.2813 Q25.7813,126.4531 25.7813,126.9375 Q25.7813,127.7813 24.6719,127.7813 L22.9531,127.7813 L22.9531,134.2969 L24.6719,134.2969 Z " fill="#000000"/><text fill="#000000" font-family="sans-serif" font-size="14" font-style="italic" lengthAdjust="spacing" textLength="61" x="36" y="136.6">IDockGUI</text><line style="stroke:#555555;stroke-width:0.5;" x1="8" x2="99" y1="147" y2="147"/><line style="stroke:#555555;stroke-width:0.5;" x1="8" x2="99" y1="155" y2="155"/><ellipse cx="18" cy="166" fill="#84BE84" rx="3" ry="3" style="stroke:#038048;stroke-width:1.0;"/><text fill="#000000" font-family="sans-serif" font-size="14" lengthAdjust="spacing" textLength="66" x="27" y="172.9999">DockGUI()</text></g><!--MD5=[065ef51c0b83ac26c2e8b4ca504d0938]
class IInterface--><g id="elem_IInterface"><rect codeLine="13" fill="#FFFFFF" height="48" id="IInterface" rx="2.5" ry="2.5" style="stroke:#555555;stroke-width:0.5;" width="92" x="7.5" y="7"/><rect fill="#808080" height="32" rx="2.5" ry="2.5" style="stroke:#808080;stroke-width:0.5;" width="92" x="7.5" y="7"/><rect fill="#808080" height="2.5" style="stroke:#808080;stroke-width:0.5;" width="92" x="7.5" y="36.5"/><rect codeLine="13" fill="none" height="48" id="IInterface" rx="2.5" ry="2.5" style="stroke:#555555;stroke-width:0.5;" width="92" x="7.5" y="7"/><ellipse cx="22.5" cy="23" fill="#B4A7E5" rx="11" ry="11" style="stroke:#181818;stroke-width:1.0;"/><path d="M25.1719,26.2969 Q25.7188,26.2969 26,26.4844 Q26.2813,26.6563 26.2813,27.1563 Q26.2813,28 25.1719,28 L20.0313,28 Q18.9063,28 18.9063,27.1563 Q18.9063,26.6563 19.1875,26.4844 Q19.4844,26.2969 20.0313,26.2969 L21.75,26.2969 L21.75,19.7813 L20.0313,19.7813 Q18.9063,19.7813 18.9063,18.9375 Q18.9063,18.4531 19.1875,18.2813 Q19.4844,18.0938 20.0313,18.0938 L25.1719,18.0938 Q25.7188,18.0938 26,18.2813 Q26.2813,18.4531 26.2813,18.9375 Q26.2813,19.7813 25.1719,19.7813 L23.4531,19.7813 L23.4531,26.2969 L25.1719,26.2969 Z " fill="#000000"/><text fill="#000000" font-family="sans-serif" font-size="14" font-style="italic" lengthAdjust="spacing" textLength="60" x="36.5" y="28.6">IInterface</text><line style="stroke:#555555;stroke-width:0.5;" x1="8.5" x2="98.5" y1="39" y2="39"/><line style="stroke:#555555;stroke-width:0.5;" x1="8.5" x2="98.5" y1="47" y2="47"/></g><!--MD5=[0471293a12b5f01a84537fb8fa4072e9]
reverse link IInterface to IDockGUI--><g id="link_IInterface_IDockGUI"><path codeLine="12" d="M53.5,75.59 C53.5,88.59 53.5,102.59 53.5,114.69 " fill="none" id="IInterface-backto-IDockGUI" style="stroke:#181818;stroke-width:1.0;stroke-dasharray:7.0,7.0;"/><polygon fill="none" points="46.5,75.17,53.5,55.17,60.5,75.17,46.5,75.17" style="stroke:#181818;stroke-width:1.0;"/></g><!--MD5=[a2730ec542f379e4552cc2e5925def9f]
@startuml
set namespaceSeparator :
skinparam ClassBackgroundColor #FFFFFF
skinparam ClassBorderColor #555555
skinparam ClassFontColor #000000
skinparam ClassHeaderBackgroundColor #808080

skinparam top to bottom direction
interface "IDockGUI" {
{method} +DockGUI()

}
"IInterface" <|.. "IDockGUI"
interface "IInterface" {}




@enduml

PlantUML version 1.2022.5(Sat Apr 30 10:55:52 GMT 2022)
(GPL source distribution)
Java Runtime: OpenJDK Runtime Environment
JVM: OpenJDK 64-Bit Server VM
Default Encoding: UTF-8
Language: en
Country: US
--></g></svg>