<?xml version="1.0" encoding="UTF-8" standalone="no"?><svg xmlns="http://www.w3.org/2000/svg" xmlns:xlink="http://www.w3.org/1999/xlink" contentStyleType="text/css" height="166px" preserveAspectRatio="none" style="width:198px;height:166px;background:#FFFFFF;" version="1.1" viewBox="0 0 198 166" width="198px" zoomAndPan="magnify"><defs/><g><!--MD5=[045e9719c13f5725a72c984fa863a9a1]
class FrontPanelControl--><g id="elem_FrontPanelControl"><rect codeLine="8" fill="#FFFFFF" height="145.7813" id="FrontPanelControl" rx="2.5" ry="2.5" style="stroke:#555555;stroke-width:0.5;" width="177" x="7" y="7"/><rect fill="#808080" height="32" rx="2.5" ry="2.5" style="stroke:#808080;stroke-width:0.5;" width="177" x="7" y="7"/><rect fill="#808080" height="2.5" style="stroke:#808080;stroke-width:0.5;" width="177" x="7" y="36.5"/><rect codeLine="8" fill="none" height="145.7813" id="FrontPanelControl" rx="2.5" ry="2.5" style="stroke:#555555;stroke-width:0.5;" width="177" x="7" y="7"/><ellipse cx="31.45" cy="23" fill="#ADD1B2" rx="11" ry="11" style="stroke:#181818;stroke-width:1.0;"/><path d="M34.4188,28.6406 Q33.8406,28.9375 33.2,29.0781 Q32.5594,29.2344 31.8563,29.2344 Q29.3563,29.2344 28.0281,27.5938 Q26.7156,25.9375 26.7156,22.8125 Q26.7156,19.6875 28.0281,18.0313 Q29.3563,16.375 31.8563,16.375 Q32.5594,16.375 33.2,16.5313 Q33.8563,16.6875 34.4188,16.9844 L34.4188,19.7031 Q33.7938,19.125 33.2,18.8594 Q32.6063,18.5781 31.9813,18.5781 Q30.6375,18.5781 29.95,19.6563 Q29.2625,20.7188 29.2625,22.8125 Q29.2625,24.9063 29.95,25.9844 Q30.6375,27.0469 31.9813,27.0469 Q32.6063,27.0469 33.2,26.7813 Q33.7938,26.5 34.4188,25.9219 L34.4188,28.6406 Z " fill="#000000"/><text fill="#000000" font-family="sans-serif" font-size="14" lengthAdjust="spacing" textLength="124" x="47.55" y="27.8467">FrontPanelControl</text><line style="stroke:#555555;stroke-width:0.5;" x1="8" x2="183" y1="39" y2="39"/><rect fill="none" height="6" style="stroke:#C82930;stroke-width:1.0;" width="6" x="15" y="49.6484"/><text fill="#000000" font-family="sans-serif" font-size="14" lengthAdjust="spacing" textLength="107" x="27" y="55.9951">VIRef : kLVObjVI</text><line style="stroke:#555555;stroke-width:0.5;" x1="8" x2="183" y1="63.2969" y2="63.2969"/><ellipse cx="18" cy="76.9453" fill="#84BE84" rx="3" ry="3" style="stroke:#038048;stroke-width:1.0;"/><text fill="#000000" font-family="sans-serif" font-size="14" lengthAdjust="spacing" text-decoration="underline" textLength="56" x="27" y="80.292">Create()</text><ellipse cx="18" cy="93.2422" fill="#84BE84" rx="3" ry="3" style="stroke:#038048;stroke-width:1.0;"/><text fill="#000000" font-family="sans-serif" font-size="14" lengthAdjust="spacing" textLength="140" x="27" y="96.5889">InsertIntoSubPanel()</text><ellipse cx="18" cy="109.5391" fill="#84BE84" rx="3" ry="3" style="stroke:#038048;stroke-width:1.0;"/><text fill="#000000" font-family="sans-serif" font-size="14" lengthAdjust="spacing" textLength="122" x="27" y="112.8857">OpenFrontPanel()</text><ellipse cx="18" cy="125.8359" fill="#84BE84" rx="3" ry="3" style="stroke:#038048;stroke-width:1.0;"/><text fill="#000000" font-family="sans-serif" font-size="14" lengthAdjust="spacing" textLength="143" x="27" y="129.1826">OpenBlockDiagram()</text><ellipse cx="18" cy="142.1328" fill="#84BE84" rx="3" ry="3" style="stroke:#038048;stroke-width:1.0;"/><text fill="#000000" font-family="sans-serif" font-size="14" lengthAdjust="spacing" textLength="151" x="27" y="145.4795">GetFrontPanelImage()</text></g><!--MD5=[6d47bef9a366426b25eff2b9ab9f9779]
@startuml
set namespaceSeparator :
skinparam ClassBackgroundColor #FFFFFF
skinparam ClassBorderColor #555555
skinparam ClassFontColor #000000
skinparam ClassHeaderBackgroundColor #808080

skinparam top to bottom direction
class "FrontPanelControl" {
{field} -VIRef : kLVObjVI
{static} {method} +Create()
{method} +InsertIntoSubPanel()
{method} +OpenFrontPanel()
{method} +OpenBlockDiagram()
{method} +GetFrontPanelImage()

}



@enduml

PlantUML version 1.2022.12(Sun Oct 23 18:12:26 GMT 2022)
(GPL source distribution)
Java Runtime: OpenJDK Runtime Environment
JVM: OpenJDK 64-Bit Server VM
Default Encoding: UTF-8
Language: en
Country: US
--></g></svg>