<?xml version="1.0" encoding="UTF-8" standalone="no"?><svg xmlns="http://www.w3.org/2000/svg" xmlns:xlink="http://www.w3.org/1999/xlink" contentStyleType="text/css" height="218px" preserveAspectRatio="none" style="width:275px;height:218px;background:#FFFFFF;" version="1.1" viewBox="0 0 275 218" width="275px" zoomAndPan="magnify"><defs/><g><!--MD5=[d65241de5e7799778572a79de7266870]
class IAuthorization--><g id="elem_IAuthorization"><rect codeLine="8" fill="#FFFFFF" height="96.8906" id="IAuthorization" rx="2.5" ry="2.5" style="stroke:#555555;stroke-width:0.5;" width="261" x="7" y="115"/><rect fill="#808080" height="32" rx="2.5" ry="2.5" style="stroke:#808080;stroke-width:0.5;" width="261" x="7" y="115"/><rect fill="#808080" height="2.5" style="stroke:#808080;stroke-width:0.5;" width="261" x="7" y="144.5"/><rect codeLine="8" fill="none" height="96.8906" id="IAuthorization" rx="2.5" ry="2.5" style="stroke:#555555;stroke-width:0.5;" width="261" x="7" y="115"/><ellipse cx="85.75" cy="131" fill="#B4A7E5" rx="11" ry="11" style="stroke:#181818;stroke-width:1.0;"/><path d="M81.6719,126.7656 L81.6719,124.6094 L89.0625,124.6094 L89.0625,126.7656 L86.5938,126.7656 L86.5938,134.8438 L89.0625,134.8438 L89.0625,137 L81.6719,137 L81.6719,134.8438 L84.1406,134.8438 L84.1406,126.7656 L81.6719,126.7656 Z " fill="#000000"/><text fill="#000000" font-family="sans-serif" font-size="14" font-style="italic" lengthAdjust="spacing" textLength="95" x="106.25" y="135.8467">IAuthorization</text><line style="stroke:#555555;stroke-width:0.5;" x1="8" x2="267" y1="147" y2="147"/><line style="stroke:#555555;stroke-width:0.5;" x1="8" x2="267" y1="155" y2="155"/><ellipse cx="18" cy="168.6484" fill="#84BE84" rx="3" ry="3" style="stroke:#038048;stroke-width:1.0;"/><text fill="#000000" font-family="sans-serif" font-size="14" lengthAdjust="spacing" textLength="235" x="27" y="171.9951">EvaluateAuthorizationExpression()</text><ellipse cx="18" cy="184.9453" fill="#84BE84" rx="3" ry="3" style="stroke:#038048;stroke-width:1.0;"/><text fill="#000000" font-family="sans-serif" font-size="14" lengthAdjust="spacing" textLength="99" x="27" y="188.292">SetCondition()</text><ellipse cx="18" cy="201.2422" fill="#84BE84" rx="3" ry="3" style="stroke:#038048;stroke-width:1.0;"/><text fill="#000000" font-family="sans-serif" font-size="14" lengthAdjust="spacing" textLength="111" x="27" y="204.5889">SetEvaluations()</text></g><!--MD5=[065ef51c0b83ac26c2e8b4ca504d0938]
class IInterface--><g id="elem_IInterface"><rect codeLine="15" fill="#FFFFFF" height="48" id="IInterface" rx="2.5" ry="2.5" style="stroke:#555555;stroke-width:0.5;" width="97" x="89" y="7"/><rect fill="#808080" height="32" rx="2.5" ry="2.5" style="stroke:#808080;stroke-width:0.5;" width="97" x="89" y="7"/><rect fill="#808080" height="2.5" style="stroke:#808080;stroke-width:0.5;" width="97" x="89" y="36.5"/><rect codeLine="15" fill="none" height="48" id="IInterface" rx="2.5" ry="2.5" style="stroke:#555555;stroke-width:0.5;" width="97" x="89" y="7"/><ellipse cx="104" cy="23" fill="#B4A7E5" rx="11" ry="11" style="stroke:#181818;stroke-width:1.0;"/><path d="M99.9219,18.7656 L99.9219,16.6094 L107.3125,16.6094 L107.3125,18.7656 L104.8438,18.7656 L104.8438,26.8438 L107.3125,26.8438 L107.3125,29 L99.9219,29 L99.9219,26.8438 L102.3906,26.8438 L102.3906,18.7656 L99.9219,18.7656 Z " fill="#000000"/><text fill="#000000" font-family="sans-serif" font-size="14" font-style="italic" lengthAdjust="spacing" textLength="65" x="118" y="27.8467">IInterface</text><line style="stroke:#555555;stroke-width:0.5;" x1="90" x2="185" y1="39" y2="39"/><line style="stroke:#555555;stroke-width:0.5;" x1="90" x2="185" y1="47" y2="47"/></g><!--MD5=[47ee12ef72cd995d61b43336f7fe78c5]
reverse link IInterface to IAuthorization--><g id="link_IInterface_IAuthorization"><path codeLine="14" d="M137.5,75.37 C137.5,88.03 137.5,101.93 137.5,114.84 " fill="none" id="IInterface-backto-IAuthorization" style="stroke:#181818;stroke-width:1.0;stroke-dasharray:7.0,7.0;"/><polygon fill="none" points="130.5,75.03,137.5,55.03,144.5,75.03,130.5,75.03" style="stroke:#181818;stroke-width:1.0;"/></g><!--MD5=[bceb28c4ebe08b7c972c284a1d989325]
@startuml
set namespaceSeparator :
skinparam ClassBackgroundColor #FFFFFF
skinparam ClassBorderColor #555555
skinparam ClassFontColor #000000
skinparam ClassHeaderBackgroundColor #808080

skinparam top to bottom direction
interface "IAuthorization" {
{method} +EvaluateAuthorizationExpression()
{method} +SetCondition()
{method} +SetEvaluations()

}
"IInterface" <|.. "IAuthorization"
interface "IInterface" {}




@enduml

PlantUML version 1.2022.12(Sun Oct 23 18:12:26 GMT 2022)
(GPL source distribution)
Java Runtime: OpenJDK Runtime Environment
JVM: OpenJDK 64-Bit Server VM
Default Encoding: UTF-8
Language: en
Country: US
--></g></svg>