<?xml version="1.0" encoding="UTF-8" standalone="no"?><svg xmlns="http://www.w3.org/2000/svg" xmlns:xlink="http://www.w3.org/1999/xlink" contentStyleType="text/css" height="561px" preserveAspectRatio="none" style="width:467px;height:561px;background:#FFFFFF;" version="1.1" viewBox="0 0 467 561" width="467px" zoomAndPan="magnify"><defs/><g><!--MD5=[854e1057310278c0d3cb22885d40ce44]
cluster UserMananger.lvlib--><g id="cluster_UserMananger.lvlib"><path d="M78,80 L230,80 A3.75,3.75 0 0 1 232.5,82.5 L239.5,102.2969 L367,102.2969 A2.5,2.5 0 0 1 369.5,104.7969 L369.5,551.5 A2.5,2.5 0 0 1 367,554 L78,554 A2.5,2.5 0 0 1 75.5,551.5 L75.5,82.5 A2.5,2.5 0 0 1 78,80 " fill="none" style="stroke:#000000;stroke-width:1.5;"/><line style="stroke:#000000;stroke-width:1.5;" x1="75.5" x2="239.5" y1="102.2969" y2="102.2969"/><text fill="#000000" font-family="sans-serif" font-size="14" font-weight="bold" lengthAdjust="spacing" textLength="151" x="79.5" y="94.9951">UserMananger.lvlib</text></g><!--MD5=[304fb03b13331fbd48a027e3d840bd92]
class UserMananger.lvlib:UserManager--><g id="elem_UserMananger.lvlib:UserManager"><rect codeLine="8" fill="#FFFFFF" height="422.8281" id="UserMananger.lvlib:UserManager" rx="2.5" ry="2.5" style="stroke:#555555;stroke-width:0.5;" width="261" x="92" y="115"/><rect fill="#808080" height="32" rx="2.5" ry="2.5" style="stroke:#808080;stroke-width:0.5;" width="261" x="92" y="115"/><rect fill="#808080" height="2.5" style="stroke:#808080;stroke-width:0.5;" width="261" x="92" y="144.5"/><rect codeLine="8" fill="none" height="422.8281" id="UserMananger.lvlib:UserManager" rx="2.5" ry="2.5" style="stroke:#555555;stroke-width:0.5;" width="261" x="92" y="115"/><ellipse cx="172.25" cy="131" fill="#ADD1B2" rx="11" ry="11" style="stroke:#181818;stroke-width:1.0;"/><path d="M175.2188,136.6406 Q174.6406,136.9375 174,137.0781 Q173.3594,137.2344 172.6563,137.2344 Q170.1563,137.2344 168.8281,135.5938 Q167.5156,133.9375 167.5156,130.8125 Q167.5156,127.6875 168.8281,126.0313 Q170.1563,124.375 172.6563,124.375 Q173.3594,124.375 174,124.5313 Q174.6563,124.6875 175.2188,124.9844 L175.2188,127.7031 Q174.5938,127.125 174,126.8594 Q173.4063,126.5781 172.7813,126.5781 Q171.4375,126.5781 170.75,127.6563 Q170.0625,128.7188 170.0625,130.8125 Q170.0625,132.9063 170.75,133.9844 Q171.4375,135.0469 172.7813,135.0469 Q173.4063,135.0469 174,134.7813 Q174.5938,134.5 175.2188,133.9219 L175.2188,136.6406 Z " fill="#000000"/><text fill="#000000" font-family="sans-serif" font-size="14" lengthAdjust="spacing" textLength="92" x="192.75" y="135.8467">UserManager</text><line style="stroke:#555555;stroke-width:0.5;" x1="93" x2="352" y1="147" y2="147"/><rect fill="none" height="6" style="stroke:#C82930;stroke-width:1.0;" width="6" x="100" y="157.6484"/><text fill="#000000" font-family="sans-serif" font-size="14" lengthAdjust="spacing" textLength="64" x="112" y="163.9951">Ref : U32</text><line style="stroke:#555555;stroke-width:0.5;" x1="93" x2="352" y1="171.2969" y2="171.2969"/><polygon fill="#FFFF44" points="103,179.9453,107,183.9453,103,187.9453,99,183.9453" style="stroke:#B38D22;stroke-width:1.0;"/><text fill="#000000" font-family="sans-serif" font-size="14" lengthAdjust="spacing" text-decoration="underline" textLength="66" x="112" y="188.292">MainGUI()</text><polygon fill="#FFFF44" points="103,196.2422,107,200.2422,103,204.2422,99,200.2422" style="stroke:#B38D22;stroke-width:1.0;"/><text fill="#000000" font-family="sans-serif" font-size="14" lengthAdjust="spacing" text-decoration="underline" textLength="98" x="112" y="204.5889">StartMainGUI()</text><polygon fill="#FFFF44" points="103,212.5391,107,216.5391,103,220.5391,99,216.5391" style="stroke:#B38D22;stroke-width:1.0;"/><text fill="#000000" font-family="sans-serif" font-size="14" lengthAdjust="spacing" text-decoration="underline" textLength="123" x="112" y="220.8857">RequestDestroy()</text><polygon fill="#FFFF44" points="103,228.8359,107,232.8359,103,236.8359,99,232.8359" style="stroke:#B38D22;stroke-width:1.0;"/><text fill="#000000" font-family="sans-serif" font-size="14" lengthAdjust="spacing" text-decoration="underline" textLength="98" x="112" y="237.1826">StopMainGUI()</text><polygon fill="#FFFF44" points="103,245.1328,107,249.1328,103,253.1328,99,249.1328" style="stroke:#B38D22;stroke-width:1.0;"/><text fill="#000000" font-family="sans-serif" font-size="14" lengthAdjust="spacing" text-decoration="underline" textLength="139" x="112" y="253.4795">UserManager_New()</text><polygon fill="#FFFF44" points="103,261.4297,107,265.4297,103,269.4297,99,265.4297" style="stroke:#B38D22;stroke-width:1.0;"/><text fill="#000000" font-family="sans-serif" font-size="14" lengthAdjust="spacing" text-decoration="underline" textLength="140" x="112" y="269.7764">MainGUIRepository()</text><polygon fill="#FFFF44" points="103,277.7266,107,281.7266,103,285.7266,99,281.7266" style="stroke:#B38D22;stroke-width:1.0;"/><text fill="#000000" font-family="sans-serif" font-size="14" lengthAdjust="spacing" text-decoration="underline" textLength="201" x="112" y="286.0732">UserManager_GetAttributes()</text><polygon fill="#FFFF44" points="103,294.0234,107,298.0234,103,302.0234,99,298.0234" style="stroke:#B38D22;stroke-width:1.0;"/><text fill="#000000" font-family="sans-serif" font-size="14" lengthAdjust="spacing" text-decoration="underline" textLength="227" x="112" y="302.3701">UserManager_SendAndReceive()</text><rect fill="#F24D5C" height="6" style="stroke:#C82930;stroke-width:1.0;" width="6" x="100" y="312.3203"/><text fill="#000000" font-family="sans-serif" font-size="14" lengthAdjust="spacing" text-decoration="underline" textLength="206" x="112" y="318.667">UserManager_MainGUIActive()</text><ellipse cx="103" cy="331.6172" fill="#84BE84" rx="3" ry="3" style="stroke:#038048;stroke-width:1.0;"/><text fill="#000000" font-family="sans-serif" font-size="14" lengthAdjust="spacing" text-decoration="underline" textLength="155" x="112" y="334.9639">UserManager_Create()</text><ellipse cx="103" cy="347.9141" fill="#84BE84" rx="3" ry="3" style="stroke:#038048;stroke-width:1.0;"/><text fill="#000000" font-family="sans-serif" font-size="14" lengthAdjust="spacing" text-decoration="underline" textLength="170" x="112" y="351.2607">ControlMainGUIWindow()</text><ellipse cx="103" cy="364.2109" fill="#84BE84" rx="3" ry="3" style="stroke:#038048;stroke-width:1.0;"/><text fill="#000000" font-family="sans-serif" font-size="14" lengthAdjust="spacing" textLength="197" x="112" y="367.5576">GetPersistentConfiguration()</text><ellipse cx="103" cy="380.5078" fill="#84BE84" rx="3" ry="3" style="stroke:#038048;stroke-width:1.0;"/><text fill="#000000" font-family="sans-serif" font-size="14" lengthAdjust="spacing" textLength="195" x="112" y="383.8545">SetPersistentConfiguration()</text><ellipse cx="103" cy="396.8047" fill="#84BE84" rx="3" ry="3" style="stroke:#038048;stroke-width:1.0;"/><text fill="#000000" font-family="sans-serif" font-size="14" lengthAdjust="spacing" textLength="158" x="112" y="400.1514">GetExternalInterfaces()</text><ellipse cx="103" cy="413.1016" fill="#84BE84" rx="3" ry="3" style="stroke:#038048;stroke-width:1.0;"/><text fill="#000000" font-family="sans-serif" font-size="14" lengthAdjust="spacing" textLength="156" x="112" y="416.4482">ExecuteButtonAction()</text><ellipse cx="103" cy="429.3984" fill="#84BE84" rx="3" ry="3" style="stroke:#038048;stroke-width:1.0;"/><text fill="#000000" font-family="sans-serif" font-size="14" lengthAdjust="spacing" textLength="156" x="112" y="432.7451">SetExternalInterfaces()</text><ellipse cx="103" cy="445.6953" fill="#84BE84" rx="3" ry="3" style="stroke:#038048;stroke-width:1.0;"/><text fill="#000000" font-family="sans-serif" font-size="14" lengthAdjust="spacing" textLength="56" x="112" y="449.042">Create()</text><ellipse cx="103" cy="461.9922" fill="#84BE84" rx="3" ry="3" style="stroke:#038048;stroke-width:1.0;"/><text fill="#000000" font-family="sans-serif" font-size="14" lengthAdjust="spacing" textLength="64" x="112" y="465.3389">Destroy()</text><ellipse cx="103" cy="478.2891" fill="#84BE84" rx="3" ry="3" style="stroke:#038048;stroke-width:1.0;"/><text fill="#000000" font-family="sans-serif" font-size="14" lengthAdjust="spacing" textLength="103" x="112" y="481.6357">IsGUIRunning()</text><ellipse cx="103" cy="494.5859" fill="#84BE84" rx="3" ry="3" style="stroke:#038048;stroke-width:1.0;"/><text fill="#000000" font-family="sans-serif" font-size="14" lengthAdjust="spacing" textLength="109" x="112" y="497.9326">GetFrontPanel()</text><ellipse cx="103" cy="510.8828" fill="#84BE84" rx="3" ry="3" style="stroke:#038048;stroke-width:1.0;"/><text fill="#000000" font-family="sans-serif" font-size="14" lengthAdjust="spacing" textLength="111" x="112" y="514.2295">SetEvaluations()</text><ellipse cx="103" cy="527.1797" fill="#84BE84" rx="3" ry="3" style="stroke:#038048;stroke-width:1.0;"/><text fill="#000000" font-family="sans-serif" font-size="14" lengthAdjust="spacing" textLength="235" x="112" y="530.5264">EvaluateAuthorizationExpression()</text></g><!--MD5=[0598474d39ed4a9017b81a2a55acc3b1]
class TAFBaseGUI--><g id="elem_TAFBaseGUI"><rect fill="#FFFFFF" height="48" id="TAFBaseGUI" rx="2.5" ry="2.5" style="stroke:#555555;stroke-width:0.5;" width="117" x="7" y="7"/><rect fill="#808080" height="32" rx="2.5" ry="2.5" style="stroke:#808080;stroke-width:0.5;" width="117" x="7" y="7"/><rect fill="#808080" height="2.5" style="stroke:#808080;stroke-width:0.5;" width="117" x="7" y="36.5"/><rect fill="none" height="48" id="TAFBaseGUI" rx="2.5" ry="2.5" style="stroke:#555555;stroke-width:0.5;" width="117" x="7" y="7"/><ellipse cx="22" cy="23" fill="#ADD1B2" rx="11" ry="11" style="stroke:#181818;stroke-width:1.0;"/><path d="M24.9688,28.6406 Q24.3906,28.9375 23.75,29.0781 Q23.1094,29.2344 22.4063,29.2344 Q19.9063,29.2344 18.5781,27.5938 Q17.2656,25.9375 17.2656,22.8125 Q17.2656,19.6875 18.5781,18.0313 Q19.9063,16.375 22.4063,16.375 Q23.1094,16.375 23.75,16.5313 Q24.4063,16.6875 24.9688,16.9844 L24.9688,19.7031 Q24.3438,19.125 23.75,18.8594 Q23.1563,18.5781 22.5313,18.5781 Q21.1875,18.5781 20.5,19.6563 Q19.8125,20.7188 19.8125,22.8125 Q19.8125,24.9063 20.5,25.9844 Q21.1875,27.0469 22.5313,27.0469 Q23.1563,27.0469 23.75,26.7813 Q24.3438,26.5 24.9688,25.9219 L24.9688,28.6406 Z " fill="#000000"/><text fill="#000000" font-family="sans-serif" font-size="14" lengthAdjust="spacing" textLength="85" x="36" y="27.8467">TAFBaseGUI</text><line style="stroke:#555555;stroke-width:0.5;" x1="8" x2="123" y1="39" y2="39"/><line style="stroke:#555555;stroke-width:0.5;" x1="8" x2="123" y1="47" y2="47"/></g><!--MD5=[d65241de5e7799778572a79de7266870]
class IAuthorization--><g id="elem_IAuthorization"><rect codeLine="36" fill="#FFFFFF" height="48" id="IAuthorization" rx="2.5" ry="2.5" style="stroke:#555555;stroke-width:0.5;" width="127" x="159" y="7"/><rect fill="#808080" height="32" rx="2.5" ry="2.5" style="stroke:#808080;stroke-width:0.5;" width="127" x="159" y="7"/><rect fill="#808080" height="2.5" style="stroke:#808080;stroke-width:0.5;" width="127" x="159" y="36.5"/><rect codeLine="36" fill="none" height="48" id="IAuthorization" rx="2.5" ry="2.5" style="stroke:#555555;stroke-width:0.5;" width="127" x="159" y="7"/><ellipse cx="174" cy="23" fill="#B4A7E5" rx="11" ry="11" style="stroke:#181818;stroke-width:1.0;"/><path d="M169.9219,18.7656 L169.9219,16.6094 L177.3125,16.6094 L177.3125,18.7656 L174.8438,18.7656 L174.8438,26.8438 L177.3125,26.8438 L177.3125,29 L169.9219,29 L169.9219,26.8438 L172.3906,26.8438 L172.3906,18.7656 L169.9219,18.7656 Z " fill="#000000"/><text fill="#000000" font-family="sans-serif" font-size="14" font-style="italic" lengthAdjust="spacing" textLength="95" x="188" y="27.8467">IAuthorization</text><line style="stroke:#555555;stroke-width:0.5;" x1="160" x2="285" y1="39" y2="39"/><line style="stroke:#555555;stroke-width:0.5;" x1="160" x2="285" y1="47" y2="47"/></g><!--MD5=[279d10572fd96349ac6b0a9cb9c87a2e]
class ITAFGUIActions--><g id="elem_ITAFGUIActions"><rect codeLine="38" fill="#FFFFFF" height="48" id="ITAFGUIActions" rx="2.5" ry="2.5" style="stroke:#555555;stroke-width:0.5;" width="139" x="321" y="7"/><rect fill="#808080" height="32" rx="2.5" ry="2.5" style="stroke:#808080;stroke-width:0.5;" width="139" x="321" y="7"/><rect fill="#808080" height="2.5" style="stroke:#808080;stroke-width:0.5;" width="139" x="321" y="36.5"/><rect codeLine="38" fill="none" height="48" id="ITAFGUIActions" rx="2.5" ry="2.5" style="stroke:#555555;stroke-width:0.5;" width="139" x="321" y="7"/><ellipse cx="336" cy="23" fill="#B4A7E5" rx="11" ry="11" style="stroke:#181818;stroke-width:1.0;"/><path d="M331.9219,18.7656 L331.9219,16.6094 L339.3125,16.6094 L339.3125,18.7656 L336.8438,18.7656 L336.8438,26.8438 L339.3125,26.8438 L339.3125,29 L331.9219,29 L331.9219,26.8438 L334.3906,26.8438 L334.3906,18.7656 L331.9219,18.7656 Z " fill="#000000"/><text fill="#000000" font-family="sans-serif" font-size="14" font-style="italic" lengthAdjust="spacing" textLength="107" x="350" y="27.8467">ITAFGUIActions</text><line style="stroke:#555555;stroke-width:0.5;" x1="322" x2="459" y1="39" y2="39"/><line style="stroke:#555555;stroke-width:0.5;" x1="322" x2="459" y1="47" y2="47"/></g><!--MD5=[eadde77d04709633ff44877ee921c4d6]
reverse link TAFBaseGUI to UserMananger.lvlib:UserManager--><g id="link_TAFBaseGUI_UserMananger.lvlib:UserManager"><path codeLine="34" d="M87.39,72.92 C93.92,85.13 101.58,99.45 109.86,114.93 " fill="none" id="TAFBaseGUI-backto-UserMananger.lvlib:UserManager" style="stroke:#181818;stroke-width:1.0;"/><polygon fill="none" points="81.08,75.97,77.82,55.03,93.43,69.36,81.08,75.97" style="stroke:#181818;stroke-width:1.0;"/></g><!--MD5=[86779472b5cfe290cc11f5901e651459]
reverse link IAuthorization to UserMananger.lvlib:UserManager--><g id="link_IAuthorization_UserMananger.lvlib:UserManager"><path codeLine="35" d="M222.5,75.15 C222.5,86.86 222.5,100.38 222.5,114.93 " fill="none" id="IAuthorization-backto-UserMananger.lvlib:UserManager" style="stroke:#181818;stroke-width:1.0;stroke-dasharray:7.0,7.0;"/><polygon fill="none" points="215.5,75.03,222.5,55.03,229.5,75.03,215.5,75.03" style="stroke:#181818;stroke-width:1.0;"/></g><!--MD5=[e8c48ab57f0f453bcf8f3e8549963ebd]
reverse link ITAFGUIActions to UserMananger.lvlib:UserManager--><g id="link_ITAFGUIActions_UserMananger.lvlib:UserManager"><path codeLine="37" d="M367.33,72.47 C360.28,84.79 352,99.26 343.03,114.93 " fill="none" id="ITAFGUIActions-backto-UserMananger.lvlib:UserManager" style="stroke:#181818;stroke-width:1.0;stroke-dasharray:7.0,7.0;"/><polygon fill="none" points="361.31,68.91,377.32,55.03,373.46,75.87,361.31,68.91" style="stroke:#181818;stroke-width:1.0;"/></g><!--MD5=[ed321f9286a3ed90bacf2acd6fadaed4]
@startuml
set namespaceSeparator :
skinparam ClassBackgroundColor #FFFFFF
skinparam ClassBorderColor #555555
skinparam ClassFontColor #000000
skinparam ClassHeaderBackgroundColor #808080

skinparam top to bottom direction
class "UserMananger.lvlib:UserManager" {
{field} -Ref : U32
{static} {method} #MainGUI()
{static} {method} #StartMainGUI()
{static} {method} #RequestDestroy()
{static} {method} #StopMainGUI()
{static} {method} #UserManager_New()
{static} {method} #MainGUIRepository()
{static} {method} #UserManager_GetAttributes()
{static} {method} #UserManager_SendAndReceive()
{static} {method} -UserManager_MainGUIActive()
{static} {method} +UserManager_Create()
{static} {method} +ControlMainGUIWindow()
{method} +GetPersistentConfiguration()
{method} +SetPersistentConfiguration()
{method} +GetExternalInterfaces()
{method} +ExecuteButtonAction()
{method} +SetExternalInterfaces()
{method} +Create()
{method} +Destroy()
{method} +IsGUIRunning()
{method} +GetFrontPanel()
{method} +SetEvaluations()
{method} +EvaluateAuthorizationExpression()

}
"TAFBaseGUI" <|- - "UserMananger.lvlib:UserManager"
"IAuthorization" <|.. "UserMananger.lvlib:UserManager"
interface "IAuthorization" {}
"ITAFGUIActions" <|.. "UserMananger.lvlib:UserManager"
interface "ITAFGUIActions" {}




@enduml

PlantUML version 1.2022.12(Sun Oct 23 18:12:26 GMT 2022)
(GPL source distribution)
Java Runtime: OpenJDK Runtime Environment
JVM: OpenJDK 64-Bit Server VM
Default Encoding: UTF-8
Language: en
Country: US
--></g></svg>