<?xml version="1.0" encoding="UTF-8" standalone="no"?><svg xmlns="http://www.w3.org/2000/svg" xmlns:xlink="http://www.w3.org/1999/xlink" contentStyleType="text/css" height="528px" preserveAspectRatio="none" style="width:340px;height:528px;background:#FFFFFF;" version="1.1" viewBox="0 0 340 528" width="340px" zoomAndPan="magnify"><defs/><g><!--MD5=[d3f2e7908a41efafbf67b1c8453649de]
cluster TemplateGUIOpenGDSActiveObject.lvlib--><g id="cluster_TemplateGUIOpenGDSActiveObject.lvlib"><path d="M8.5,80 L320.5,80 A3.75,3.75 0 0 1 323,82.5 L330,102.2969 L330.5,102.2969 A2.5,2.5 0 0 1 333,104.7969 L333,518.5 A2.5,2.5 0 0 1 330.5,521 L8.5,521 A2.5,2.5 0 0 1 6,518.5 L6,82.5 A2.5,2.5 0 0 1 8.5,80 " fill="none" style="stroke:#000000;stroke-width:1.5;"/><line style="stroke:#000000;stroke-width:1.5;" x1="6" x2="330" y1="102.2969" y2="102.2969"/><text fill="#000000" font-family="sans-serif" font-size="14" font-weight="bold" lengthAdjust="spacing" textLength="311" x="10" y="94.9951">TemplateGUIOpenGDSActiveObject.lvlib</text></g><!--MD5=[d8533368b3219a69dd41b543d1ec9bc1]
class TemplateGUIOpenGDSActiveObject.lvlib:TemplateGUI--><g id="elem_TemplateGUIOpenGDSActiveObject.lvlib:TemplateGUI"><rect codeLine="8" fill="#FFFFFF" height="390.2344" id="TemplateGUIOpenGDSActiveObject.lvlib:TemplateGUI" rx="2.5" ry="2.5" style="stroke:#555555;stroke-width:0.5;" width="250" x="44" y="115"/><rect fill="#808080" height="32" rx="2.5" ry="2.5" style="stroke:#808080;stroke-width:0.5;" width="250" x="44" y="115"/><rect fill="#808080" height="2.5" style="stroke:#808080;stroke-width:0.5;" width="250" x="44" y="144.5"/><rect codeLine="8" fill="none" height="390.2344" id="TemplateGUIOpenGDSActiveObject.lvlib:TemplateGUI" rx="2.5" ry="2.5" style="stroke:#555555;stroke-width:0.5;" width="250" x="44" y="115"/><ellipse cx="120.25" cy="131" fill="#ADD1B2" rx="11" ry="11" style="stroke:#181818;stroke-width:1.0;"/><path d="M123.2188,136.6406 Q122.6406,136.9375 122,137.0781 Q121.3594,137.2344 120.6563,137.2344 Q118.1563,137.2344 116.8281,135.5938 Q115.5156,133.9375 115.5156,130.8125 Q115.5156,127.6875 116.8281,126.0313 Q118.1563,124.375 120.6563,124.375 Q121.3594,124.375 122,124.5313 Q122.6563,124.6875 123.2188,124.9844 L123.2188,127.7031 Q122.5938,127.125 122,126.8594 Q121.4063,126.5781 120.7813,126.5781 Q119.4375,126.5781 118.75,127.6563 Q118.0625,128.7188 118.0625,130.8125 Q118.0625,132.9063 118.75,133.9844 Q119.4375,135.0469 120.7813,135.0469 Q121.4063,135.0469 122,134.7813 Q122.5938,134.5 123.2188,133.9219 L123.2188,136.6406 Z " fill="#000000"/><text fill="#000000" font-family="sans-serif" font-size="14" lengthAdjust="spacing" textLength="89" x="140.75" y="135.8467">TemplateGUI</text><line style="stroke:#555555;stroke-width:0.5;" x1="45" x2="293" y1="147" y2="147"/><rect fill="none" height="6" style="stroke:#C82930;stroke-width:1.0;" width="6" x="52" y="157.6484"/><text fill="#000000" font-family="sans-serif" font-size="14" lengthAdjust="spacing" textLength="64" x="64" y="163.9951">Ref : U32</text><line style="stroke:#555555;stroke-width:0.5;" x1="45" x2="293" y1="171.2969" y2="171.2969"/><polygon fill="#FFFF44" points="55,179.9453,59,183.9453,55,187.9453,51,183.9453" style="stroke:#B38D22;stroke-width:1.0;"/><text fill="#000000" font-family="sans-serif" font-size="14" lengthAdjust="spacing" text-decoration="underline" textLength="98" x="64" y="188.292">StartMainGUI()</text><polygon fill="#FFFF44" points="55,196.2422,59,200.2422,55,204.2422,51,200.2422" style="stroke:#B38D22;stroke-width:1.0;"/><text fill="#000000" font-family="sans-serif" font-size="14" lengthAdjust="spacing" text-decoration="underline" textLength="123" x="64" y="204.5889">RequestDestroy()</text><polygon fill="#FFFF44" points="55,212.5391,59,216.5391,55,220.5391,51,216.5391" style="stroke:#B38D22;stroke-width:1.0;"/><text fill="#000000" font-family="sans-serif" font-size="14" lengthAdjust="spacing" text-decoration="underline" textLength="66" x="64" y="220.8857">MainGUI()</text><polygon fill="#FFFF44" points="55,228.8359,59,232.8359,55,236.8359,51,232.8359" style="stroke:#B38D22;stroke-width:1.0;"/><text fill="#000000" font-family="sans-serif" font-size="14" lengthAdjust="spacing" text-decoration="underline" textLength="98" x="64" y="237.1826">StopMainGUI()</text><polygon fill="#FFFF44" points="55,245.1328,59,249.1328,55,253.1328,51,249.1328" style="stroke:#B38D22;stroke-width:1.0;"/><text fill="#000000" font-family="sans-serif" font-size="14" lengthAdjust="spacing" text-decoration="underline" textLength="136" x="64" y="253.4795">TemplateGUI_New()</text><polygon fill="#FFFF44" points="55,261.4297,59,265.4297,55,269.4297,51,265.4297" style="stroke:#B38D22;stroke-width:1.0;"/><text fill="#000000" font-family="sans-serif" font-size="14" lengthAdjust="spacing" text-decoration="underline" textLength="140" x="64" y="269.7764">MainGUIRepository()</text><polygon fill="#FFFF44" points="55,277.7266,59,281.7266,55,285.7266,51,281.7266" style="stroke:#B38D22;stroke-width:1.0;"/><text fill="#000000" font-family="sans-serif" font-size="14" lengthAdjust="spacing" text-decoration="underline" textLength="198" x="64" y="286.0732">TemplateGUI_GetAttributes()</text><polygon fill="#FFFF44" points="55,294.0234,59,298.0234,55,302.0234,51,298.0234" style="stroke:#B38D22;stroke-width:1.0;"/><text fill="#000000" font-family="sans-serif" font-size="14" lengthAdjust="spacing" text-decoration="underline" textLength="224" x="64" y="302.3701">TemplateGUI_SendAndReceive()</text><rect fill="#F24D5C" height="6" style="stroke:#C82930;stroke-width:1.0;" width="6" x="52" y="312.3203"/><text fill="#000000" font-family="sans-serif" font-size="14" lengthAdjust="spacing" text-decoration="underline" textLength="203" x="64" y="318.667">TemplateGUI_MainGUIActive()</text><ellipse cx="55" cy="331.6172" fill="#84BE84" rx="3" ry="3" style="stroke:#038048;stroke-width:1.0;"/><text fill="#000000" font-family="sans-serif" font-size="14" lengthAdjust="spacing" text-decoration="underline" textLength="152" x="64" y="334.9639">TemplateGUI_Create()</text><ellipse cx="55" cy="347.9141" fill="#84BE84" rx="3" ry="3" style="stroke:#038048;stroke-width:1.0;"/><text fill="#000000" font-family="sans-serif" font-size="14" lengthAdjust="spacing" text-decoration="underline" textLength="170" x="64" y="351.2607">ControlMainGUIWindow()</text><ellipse cx="55" cy="364.2109" fill="#84BE84" rx="3" ry="3" style="stroke:#038048;stroke-width:1.0;"/><text fill="#000000" font-family="sans-serif" font-size="14" lengthAdjust="spacing" textLength="197" x="64" y="367.5576">GetPersistentConfiguration()</text><ellipse cx="55" cy="380.5078" fill="#84BE84" rx="3" ry="3" style="stroke:#038048;stroke-width:1.0;"/><text fill="#000000" font-family="sans-serif" font-size="14" lengthAdjust="spacing" textLength="195" x="64" y="383.8545">SetPersistentConfiguration()</text><ellipse cx="55" cy="396.8047" fill="#84BE84" rx="3" ry="3" style="stroke:#038048;stroke-width:1.0;"/><text fill="#000000" font-family="sans-serif" font-size="14" lengthAdjust="spacing" textLength="158" x="64" y="400.1514">GetExternalInterfaces()</text><ellipse cx="55" cy="413.1016" fill="#84BE84" rx="3" ry="3" style="stroke:#038048;stroke-width:1.0;"/><text fill="#000000" font-family="sans-serif" font-size="14" lengthAdjust="spacing" textLength="156" x="64" y="416.4482">SetExternalInterfaces()</text><ellipse cx="55" cy="429.3984" fill="#84BE84" rx="3" ry="3" style="stroke:#038048;stroke-width:1.0;"/><text fill="#000000" font-family="sans-serif" font-size="14" lengthAdjust="spacing" textLength="156" x="64" y="432.7451">ExecuteButtonAction()</text><ellipse cx="55" cy="445.6953" fill="#84BE84" rx="3" ry="3" style="stroke:#038048;stroke-width:1.0;"/><text fill="#000000" font-family="sans-serif" font-size="14" lengthAdjust="spacing" textLength="109" x="64" y="449.042">GetFrontPanel()</text><ellipse cx="55" cy="461.9922" fill="#84BE84" rx="3" ry="3" style="stroke:#038048;stroke-width:1.0;"/><text fill="#000000" font-family="sans-serif" font-size="14" lengthAdjust="spacing" textLength="56" x="64" y="465.3389">Create()</text><ellipse cx="55" cy="478.2891" fill="#84BE84" rx="3" ry="3" style="stroke:#038048;stroke-width:1.0;"/><text fill="#000000" font-family="sans-serif" font-size="14" lengthAdjust="spacing" textLength="64" x="64" y="481.6357">Destroy()</text><ellipse cx="55" cy="494.5859" fill="#84BE84" rx="3" ry="3" style="stroke:#038048;stroke-width:1.0;"/><text fill="#000000" font-family="sans-serif" font-size="14" lengthAdjust="spacing" textLength="103" x="64" y="497.9326">IsGUIRunning()</text></g><!--MD5=[0598474d39ed4a9017b81a2a55acc3b1]
class TAFBaseGUI--><g id="elem_TAFBaseGUI"><rect fill="#FFFFFF" height="48" id="TAFBaseGUI" rx="2.5" ry="2.5" style="stroke:#555555;stroke-width:0.5;" width="117" x="29.5" y="7"/><rect fill="#808080" height="32" rx="2.5" ry="2.5" style="stroke:#808080;stroke-width:0.5;" width="117" x="29.5" y="7"/><rect fill="#808080" height="2.5" style="stroke:#808080;stroke-width:0.5;" width="117" x="29.5" y="36.5"/><rect fill="none" height="48" id="TAFBaseGUI" rx="2.5" ry="2.5" style="stroke:#555555;stroke-width:0.5;" width="117" x="29.5" y="7"/><ellipse cx="44.5" cy="23" fill="#ADD1B2" rx="11" ry="11" style="stroke:#181818;stroke-width:1.0;"/><path d="M47.4688,28.6406 Q46.8906,28.9375 46.25,29.0781 Q45.6094,29.2344 44.9063,29.2344 Q42.4063,29.2344 41.0781,27.5938 Q39.7656,25.9375 39.7656,22.8125 Q39.7656,19.6875 41.0781,18.0313 Q42.4063,16.375 44.9063,16.375 Q45.6094,16.375 46.25,16.5313 Q46.9063,16.6875 47.4688,16.9844 L47.4688,19.7031 Q46.8438,19.125 46.25,18.8594 Q45.6563,18.5781 45.0313,18.5781 Q43.6875,18.5781 43,19.6563 Q42.3125,20.7188 42.3125,22.8125 Q42.3125,24.9063 43,25.9844 Q43.6875,27.0469 45.0313,27.0469 Q45.6563,27.0469 46.25,26.7813 Q46.8438,26.5 47.4688,25.9219 L47.4688,28.6406 Z " fill="#000000"/><text fill="#000000" font-family="sans-serif" font-size="14" lengthAdjust="spacing" textLength="85" x="58.5" y="27.8467">TAFBaseGUI</text><line style="stroke:#555555;stroke-width:0.5;" x1="30.5" x2="145.5" y1="39" y2="39"/><line style="stroke:#555555;stroke-width:0.5;" x1="30.5" x2="145.5" y1="47" y2="47"/></g><!--MD5=[279d10572fd96349ac6b0a9cb9c87a2e]
class ITAFGUIActions--><g id="elem_ITAFGUIActions"><rect codeLine="34" fill="#FFFFFF" height="48" id="ITAFGUIActions" rx="2.5" ry="2.5" style="stroke:#555555;stroke-width:0.5;" width="139" x="181.5" y="7"/><rect fill="#808080" height="32" rx="2.5" ry="2.5" style="stroke:#808080;stroke-width:0.5;" width="139" x="181.5" y="7"/><rect fill="#808080" height="2.5" style="stroke:#808080;stroke-width:0.5;" width="139" x="181.5" y="36.5"/><rect codeLine="34" fill="none" height="48" id="ITAFGUIActions" rx="2.5" ry="2.5" style="stroke:#555555;stroke-width:0.5;" width="139" x="181.5" y="7"/><ellipse cx="196.5" cy="23" fill="#B4A7E5" rx="11" ry="11" style="stroke:#181818;stroke-width:1.0;"/><path d="M192.4219,18.7656 L192.4219,16.6094 L199.8125,16.6094 L199.8125,18.7656 L197.3438,18.7656 L197.3438,26.8438 L199.8125,26.8438 L199.8125,29 L192.4219,29 L192.4219,26.8438 L194.8906,26.8438 L194.8906,18.7656 L192.4219,18.7656 Z " fill="#000000"/><text fill="#000000" font-family="sans-serif" font-size="14" font-style="italic" lengthAdjust="spacing" textLength="107" x="210.5" y="27.8467">ITAFGUIActions</text><line style="stroke:#555555;stroke-width:0.5;" x1="182.5" x2="319.5" y1="39" y2="39"/><line style="stroke:#555555;stroke-width:0.5;" x1="182.5" x2="319.5" y1="47" y2="47"/></g><!--MD5=[743980aa6d14db9a126d2d3df36c28c5]
reverse link TAFBaseGUI to TemplateGUIOpenGDSActiveObject.lvlib:TemplateGUI--><g id="link_TAFBaseGUI_TemplateGUIOpenGDSActiveObject.lvlib:TemplateGUI"><path codeLine="32" d="M100.38,74.35 C103.86,86.24 107.89,100 112.21,114.78 " fill="none" id="TAFBaseGUI-backto-TemplateGUIOpenGDSActiveObject.lvlib:TemplateGUI" style="stroke:#181818;stroke-width:1.0;"/><polygon fill="none" points="93.66,76.3,94.77,55.14,107.1,72.37,93.66,76.3" style="stroke:#181818;stroke-width:1.0;"/></g><!--MD5=[00ae198681fe181f4fada72adb427765]
reverse link ITAFGUIActions to TemplateGUIOpenGDSActiveObject.lvlib:TemplateGUI--><g id="link_ITAFGUIActions_TemplateGUIOpenGDSActiveObject.lvlib:TemplateGUI"><path codeLine="33" d="M238.46,74.35 C234.94,86.24 230.87,100 226.49,114.78 " fill="none" id="ITAFGUIActions-backto-TemplateGUIOpenGDSActiveObject.lvlib:TemplateGUI" style="stroke:#181818;stroke-width:1.0;stroke-dasharray:7.0,7.0;"/><polygon fill="none" points="231.76,72.33,244.15,55.14,245.18,76.3,231.76,72.33" style="stroke:#181818;stroke-width:1.0;"/></g><!--MD5=[f12dcd61568de2a49c89a7177d1f294e]
@startuml
set namespaceSeparator :
skinparam ClassBackgroundColor #FFFFFF
skinparam ClassBorderColor #555555
skinparam ClassFontColor #000000
skinparam ClassHeaderBackgroundColor #808080

skinparam top to bottom direction
class "TemplateGUIOpenGDSActiveObject.lvlib:TemplateGUI" {
{field} -Ref : U32
{static} {method} #StartMainGUI()
{static} {method} #RequestDestroy()
{static} {method} #MainGUI()
{static} {method} #StopMainGUI()
{static} {method} #TemplateGUI_New()
{static} {method} #MainGUIRepository()
{static} {method} #TemplateGUI_GetAttributes()
{static} {method} #TemplateGUI_SendAndReceive()
{static} {method} -TemplateGUI_MainGUIActive()
{static} {method} +TemplateGUI_Create()
{static} {method} +ControlMainGUIWindow()
{method} +GetPersistentConfiguration()
{method} +SetPersistentConfiguration()
{method} +GetExternalInterfaces()
{method} +SetExternalInterfaces()
{method} +ExecuteButtonAction()
{method} +GetFrontPanel()
{method} +Create()
{method} +Destroy()
{method} +IsGUIRunning()

}
"TAFBaseGUI" <|- - "TemplateGUIOpenGDSActiveObject.lvlib:TemplateGUI"
"ITAFGUIActions" <|.. "TemplateGUIOpenGDSActiveObject.lvlib:TemplateGUI"
interface "ITAFGUIActions" {}




@enduml

PlantUML version 1.2022.12(Sun Oct 23 18:12:26 GMT 2022)
(GPL source distribution)
Java Runtime: OpenJDK Runtime Environment
JVM: OpenJDK 64-Bit Server VM
Default Encoding: UTF-8
Language: en
Country: US
--></g></svg>