<?xml version="1.0" encoding="UTF-8" standalone="no"?><svg xmlns="http://www.w3.org/2000/svg" xmlns:xlink="http://www.w3.org/1999/xlink" contentStyleType="text/css" height="545px" preserveAspectRatio="none" style="width:305px;height:545px;background:#FFFFFF;" version="1.1" viewBox="0 0 305 545" width="305px" zoomAndPan="magnify"><defs/><g><!--MD5=[63bcd6da410e6b93725455a83d4342d0]
cluster BusBase.lvlib--><g id="cluster_BusBase.lvlib"><path d="M22,80 L126,80 A3.75,3.75 0 0 1 128.5,82.5 L135.5,102.2969 L271,102.2969 A2.5,2.5 0 0 1 273.5,104.7969 L273.5,535.5 A2.5,2.5 0 0 1 271,538 L22,538 A2.5,2.5 0 0 1 19.5,535.5 L19.5,82.5 A2.5,2.5 0 0 1 22,80 " fill="none" style="stroke:#000000;stroke-width:1.5;"/><line style="stroke:#000000;stroke-width:1.5;" x1="19.5" x2="135.5" y1="102.2969" y2="102.2969"/><text fill="#000000" font-family="sans-serif" font-size="14" font-weight="bold" lengthAdjust="spacing" textLength="103" x="23.5" y="94.9951">BusBase.lvlib</text></g><!--MD5=[5c9690e2b5af1daf3d654b5084aa762d]
class BusBase.lvlib:BusBase--><g id="elem_BusBase.lvlib:BusBase"><rect codeLine="8" fill="#FFFFFF" height="406.5313" id="BusBase.lvlib:BusBase" rx="2.5" ry="2.5" style="stroke:#555555;stroke-width:0.5;" width="223" x="35" y="115"/><rect fill="#808080" height="32" rx="2.5" ry="2.5" style="stroke:#808080;stroke-width:0.5;" width="223" x="35" y="115"/><rect fill="#808080" height="2.5" style="stroke:#808080;stroke-width:0.5;" width="223" x="35" y="144.5"/><rect codeLine="8" fill="none" height="406.5313" id="BusBase.lvlib:BusBase" rx="2.5" ry="2.5" style="stroke:#555555;stroke-width:0.5;" width="223" x="35" y="115"/><ellipse cx="111.25" cy="131" fill="#ADD1B2" rx="11" ry="11" style="stroke:#181818;stroke-width:1.0;"/><path d="M114.2188,136.6406 Q113.6406,136.9375 113,137.0781 Q112.3594,137.2344 111.6563,137.2344 Q109.1563,137.2344 107.8281,135.5938 Q106.5156,133.9375 106.5156,130.8125 Q106.5156,127.6875 107.8281,126.0313 Q109.1563,124.375 111.6563,124.375 Q112.3594,124.375 113,124.5313 Q113.6563,124.6875 114.2188,124.9844 L114.2188,127.7031 Q113.5938,127.125 113,126.8594 Q112.4063,126.5781 111.7813,126.5781 Q110.4375,126.5781 109.75,127.6563 Q109.0625,128.7188 109.0625,130.8125 Q109.0625,132.9063 109.75,133.9844 Q110.4375,135.0469 111.7813,135.0469 Q112.4063,135.0469 113,134.7813 Q113.5938,134.5 114.2188,133.9219 L114.2188,136.6406 Z " fill="#000000"/><text fill="#000000" font-family="sans-serif" font-size="14" lengthAdjust="spacing" textLength="62" x="131.75" y="135.8467">BusBase</text><line style="stroke:#555555;stroke-width:0.5;" x1="36" x2="257" y1="147" y2="147"/><rect fill="none" height="6" style="stroke:#C82930;stroke-width:1.0;" width="6" x="43" y="157.6484"/><text fill="#000000" font-family="sans-serif" font-size="14" lengthAdjust="spacing" textLength="64" x="55" y="163.9951">Ref : U32</text><line style="stroke:#555555;stroke-width:0.5;" x1="36" x2="257" y1="171.2969" y2="171.2969"/><polygon fill="#FFFF44" points="46,179.9453,50,183.9453,46,187.9453,42,183.9453" style="stroke:#B38D22;stroke-width:1.0;"/><text fill="#000000" font-family="sans-serif" font-size="14" lengthAdjust="spacing" text-decoration="underline" textLength="98" x="55" y="188.292">StartMainGUI()</text><polygon fill="#FFFF44" points="46,196.2422,50,200.2422,46,204.2422,42,200.2422" style="stroke:#B38D22;stroke-width:1.0;"/><text fill="#000000" font-family="sans-serif" font-size="14" lengthAdjust="spacing" text-decoration="underline" textLength="123" x="55" y="204.5889">RequestDestroy()</text><polygon fill="#FFFF44" points="46,212.5391,50,216.5391,46,220.5391,42,216.5391" style="stroke:#B38D22;stroke-width:1.0;"/><text fill="#000000" font-family="sans-serif" font-size="14" lengthAdjust="spacing" text-decoration="underline" textLength="66" x="55" y="220.8857">MainGUI()</text><polygon fill="#FFFF44" points="46,228.8359,50,232.8359,46,236.8359,42,232.8359" style="stroke:#B38D22;stroke-width:1.0;"/><text fill="#000000" font-family="sans-serif" font-size="14" lengthAdjust="spacing" text-decoration="underline" textLength="98" x="55" y="237.1826">StopMainGUI()</text><polygon fill="#FFFF44" points="46,245.1328,50,249.1328,46,253.1328,42,249.1328" style="stroke:#B38D22;stroke-width:1.0;"/><text fill="#000000" font-family="sans-serif" font-size="14" lengthAdjust="spacing" text-decoration="underline" textLength="109" x="55" y="253.4795">BusBase_New()</text><polygon fill="#FFFF44" points="46,261.4297,50,265.4297,46,269.4297,42,265.4297" style="stroke:#B38D22;stroke-width:1.0;"/><text fill="#000000" font-family="sans-serif" font-size="14" lengthAdjust="spacing" text-decoration="underline" textLength="140" x="55" y="269.7764">MainGUIRepository()</text><polygon fill="#FFFF44" points="46,277.7266,50,281.7266,46,285.7266,42,281.7266" style="stroke:#B38D22;stroke-width:1.0;"/><text fill="#000000" font-family="sans-serif" font-size="14" lengthAdjust="spacing" text-decoration="underline" textLength="171" x="55" y="286.0732">BusBase_GetAttributes()</text><polygon fill="#FFFF44" points="46,294.0234,50,298.0234,46,302.0234,42,298.0234" style="stroke:#B38D22;stroke-width:1.0;"/><text fill="#000000" font-family="sans-serif" font-size="14" lengthAdjust="spacing" text-decoration="underline" textLength="197" x="55" y="302.3701">BusBase_SendAndReceive()</text><rect fill="#F24D5C" height="6" style="stroke:#C82930;stroke-width:1.0;" width="6" x="43" y="312.3203"/><text fill="#000000" font-family="sans-serif" font-size="14" lengthAdjust="spacing" text-decoration="underline" textLength="176" x="55" y="318.667">BusBase_MainGUIActive()</text><ellipse cx="46" cy="331.6172" fill="#84BE84" rx="3" ry="3" style="stroke:#038048;stroke-width:1.0;"/><text fill="#000000" font-family="sans-serif" font-size="14" lengthAdjust="spacing" text-decoration="underline" textLength="125" x="55" y="334.9639">BusBase_Create()</text><ellipse cx="46" cy="347.9141" fill="#84BE84" rx="3" ry="3" style="stroke:#038048;stroke-width:1.0;"/><text fill="#000000" font-family="sans-serif" font-size="14" lengthAdjust="spacing" text-decoration="underline" textLength="170" x="55" y="351.2607">ControlMainGUIWindow()</text><polygon fill="#FFFF44" points="46,359.2109,50,363.2109,46,367.2109,42,363.2109" style="stroke:#B38D22;stroke-width:1.0;"/><text fill="#000000" font-family="sans-serif" font-size="14" lengthAdjust="spacing" textLength="145" x="55" y="367.5576">ReadTargetClasses()</text><ellipse cx="46" cy="380.5078" fill="#84BE84" rx="3" ry="3" style="stroke:#038048;stroke-width:1.0;"/><text fill="#000000" font-family="sans-serif" font-size="14" lengthAdjust="spacing" textLength="197" x="55" y="383.8545">GetPersistentConfiguration()</text><ellipse cx="46" cy="396.8047" fill="#84BE84" rx="3" ry="3" style="stroke:#038048;stroke-width:1.0;"/><text fill="#000000" font-family="sans-serif" font-size="14" lengthAdjust="spacing" textLength="195" x="55" y="400.1514">SetPersistentConfiguration()</text><ellipse cx="46" cy="413.1016" fill="#84BE84" rx="3" ry="3" style="stroke:#038048;stroke-width:1.0;"/><text fill="#000000" font-family="sans-serif" font-size="14" lengthAdjust="spacing" textLength="158" x="55" y="416.4482">GetExternalInterfaces()</text><ellipse cx="46" cy="429.3984" fill="#84BE84" rx="3" ry="3" style="stroke:#038048;stroke-width:1.0;"/><text fill="#000000" font-family="sans-serif" font-size="14" lengthAdjust="spacing" textLength="156" x="55" y="432.7451">SetExternalInterfaces()</text><ellipse cx="46" cy="445.6953" fill="#84BE84" rx="3" ry="3" style="stroke:#038048;stroke-width:1.0;"/><text fill="#000000" font-family="sans-serif" font-size="14" lengthAdjust="spacing" textLength="156" x="55" y="449.042">ExecuteButtonAction()</text><ellipse cx="46" cy="461.9922" fill="#84BE84" rx="3" ry="3" style="stroke:#038048;stroke-width:1.0;"/><text fill="#000000" font-family="sans-serif" font-size="14" lengthAdjust="spacing" textLength="109" x="55" y="465.3389">GetFrontPanel()</text><ellipse cx="46" cy="478.2891" fill="#84BE84" rx="3" ry="3" style="stroke:#038048;stroke-width:1.0;"/><text fill="#000000" font-family="sans-serif" font-size="14" lengthAdjust="spacing" textLength="56" x="55" y="481.6357">Create()</text><ellipse cx="46" cy="494.5859" fill="#84BE84" rx="3" ry="3" style="stroke:#038048;stroke-width:1.0;"/><text fill="#000000" font-family="sans-serif" font-size="14" lengthAdjust="spacing" textLength="64" x="55" y="497.9326">Destroy()</text><ellipse cx="46" cy="510.8828" fill="#84BE84" rx="3" ry="3" style="stroke:#038048;stroke-width:1.0;"/><text fill="#000000" font-family="sans-serif" font-size="14" lengthAdjust="spacing" textLength="103" x="55" y="514.2295">IsGUIRunning()</text></g><!--MD5=[0598474d39ed4a9017b81a2a55acc3b1]
class TAFBaseGUI--><g id="elem_TAFBaseGUI"><rect fill="#FFFFFF" height="48" id="TAFBaseGUI" rx="2.5" ry="2.5" style="stroke:#555555;stroke-width:0.5;" width="117" x="7" y="7"/><rect fill="#808080" height="32" rx="2.5" ry="2.5" style="stroke:#808080;stroke-width:0.5;" width="117" x="7" y="7"/><rect fill="#808080" height="2.5" style="stroke:#808080;stroke-width:0.5;" width="117" x="7" y="36.5"/><rect fill="none" height="48" id="TAFBaseGUI" rx="2.5" ry="2.5" style="stroke:#555555;stroke-width:0.5;" width="117" x="7" y="7"/><ellipse cx="22" cy="23" fill="#ADD1B2" rx="11" ry="11" style="stroke:#181818;stroke-width:1.0;"/><path d="M24.9688,28.6406 Q24.3906,28.9375 23.75,29.0781 Q23.1094,29.2344 22.4063,29.2344 Q19.9063,29.2344 18.5781,27.5938 Q17.2656,25.9375 17.2656,22.8125 Q17.2656,19.6875 18.5781,18.0313 Q19.9063,16.375 22.4063,16.375 Q23.1094,16.375 23.75,16.5313 Q24.4063,16.6875 24.9688,16.9844 L24.9688,19.7031 Q24.3438,19.125 23.75,18.8594 Q23.1563,18.5781 22.5313,18.5781 Q21.1875,18.5781 20.5,19.6563 Q19.8125,20.7188 19.8125,22.8125 Q19.8125,24.9063 20.5,25.9844 Q21.1875,27.0469 22.5313,27.0469 Q23.1563,27.0469 23.75,26.7813 Q24.3438,26.5 24.9688,25.9219 L24.9688,28.6406 Z " fill="#000000"/><text fill="#000000" font-family="sans-serif" font-size="14" lengthAdjust="spacing" textLength="85" x="36" y="27.8467">TAFBaseGUI</text><line style="stroke:#555555;stroke-width:0.5;" x1="8" x2="123" y1="39" y2="39"/><line style="stroke:#555555;stroke-width:0.5;" x1="8" x2="123" y1="47" y2="47"/></g><!--MD5=[279d10572fd96349ac6b0a9cb9c87a2e]
class ITAFGUIActions--><g id="elem_ITAFGUIActions"><rect codeLine="35" fill="#FFFFFF" height="48" id="ITAFGUIActions" rx="2.5" ry="2.5" style="stroke:#555555;stroke-width:0.5;" width="139" x="159" y="7"/><rect fill="#808080" height="32" rx="2.5" ry="2.5" style="stroke:#808080;stroke-width:0.5;" width="139" x="159" y="7"/><rect fill="#808080" height="2.5" style="stroke:#808080;stroke-width:0.5;" width="139" x="159" y="36.5"/><rect codeLine="35" fill="none" height="48" id="ITAFGUIActions" rx="2.5" ry="2.5" style="stroke:#555555;stroke-width:0.5;" width="139" x="159" y="7"/><ellipse cx="174" cy="23" fill="#B4A7E5" rx="11" ry="11" style="stroke:#181818;stroke-width:1.0;"/><path d="M169.9219,18.7656 L169.9219,16.6094 L177.3125,16.6094 L177.3125,18.7656 L174.8438,18.7656 L174.8438,26.8438 L177.3125,26.8438 L177.3125,29 L169.9219,29 L169.9219,26.8438 L172.3906,26.8438 L172.3906,18.7656 L169.9219,18.7656 Z " fill="#000000"/><text fill="#000000" font-family="sans-serif" font-size="14" font-style="italic" lengthAdjust="spacing" textLength="107" x="188" y="27.8467">ITAFGUIActions</text><line style="stroke:#555555;stroke-width:0.5;" x1="160" x2="297" y1="39" y2="39"/><line style="stroke:#555555;stroke-width:0.5;" x1="160" x2="297" y1="47" y2="47"/></g><!--MD5=[2a4b56b61e937b5f436ea6dc08504afe]
reverse link TAFBaseGUI to BusBase.lvlib:BusBase--><g id="link_TAFBaseGUI_BusBase.lvlib:BusBase"><path codeLine="33" d="M77.69,74.95 C81.02,86.7 84.86,100.25 89,114.82 " fill="none" id="TAFBaseGUI-backto-BusBase.lvlib:BusBase" style="stroke:#181818;stroke-width:1.0;"/><polygon fill="none" points="70.85,76.51,72.13,55.36,84.32,72.69,70.85,76.51" style="stroke:#181818;stroke-width:1.0;"/></g><!--MD5=[dec43b81b7298163edac195ab305e508]
reverse link ITAFGUIActions to BusBase.lvlib:BusBase--><g id="link_ITAFGUIActions_BusBase.lvlib:BusBase"><path codeLine="34" d="M216.16,74.95 C212.79,86.7 208.9,100.25 204.71,114.82 " fill="none" id="ITAFGUIActions-backto-BusBase.lvlib:BusBase" style="stroke:#181818;stroke-width:1.0;stroke-dasharray:7.0,7.0;"/><polygon fill="none" points="209.54,72.65,221.79,55.36,223,76.52,209.54,72.65" style="stroke:#181818;stroke-width:1.0;"/></g><!--MD5=[9dc3d2ed5b2b1361e400ffb5ea81fe1f]
@startuml
set namespaceSeparator :
skinparam ClassBackgroundColor #FFFFFF
skinparam ClassBorderColor #555555
skinparam ClassFontColor #000000
skinparam ClassHeaderBackgroundColor #808080

skinparam top to bottom direction
class "BusBase.lvlib:BusBase" {
{field} -Ref : U32
{static} {method} #StartMainGUI()
{static} {method} #RequestDestroy()
{static} {method} #MainGUI()
{static} {method} #StopMainGUI()
{static} {method} #BusBase_New()
{static} {method} #MainGUIRepository()
{static} {method} #BusBase_GetAttributes()
{static} {method} #BusBase_SendAndReceive()
{static} {method} -BusBase_MainGUIActive()
{static} {method} +BusBase_Create()
{static} {method} +ControlMainGUIWindow()
{method} #ReadTargetClasses()
{method} +GetPersistentConfiguration()
{method} +SetPersistentConfiguration()
{method} +GetExternalInterfaces()
{method} +SetExternalInterfaces()
{method} +ExecuteButtonAction()
{method} +GetFrontPanel()
{method} +Create()
{method} +Destroy()
{method} +IsGUIRunning()

}
"TAFBaseGUI" <|- - "BusBase.lvlib:BusBase"
"ITAFGUIActions" <|.. "BusBase.lvlib:BusBase"
interface "ITAFGUIActions" {}




@enduml

PlantUML version 1.2022.12(Sun Oct 23 18:12:26 GMT 2022)
(GPL source distribution)
Java Runtime: OpenJDK Runtime Environment
JVM: OpenJDK 64-Bit Server VM
Default Encoding: UTF-8
Language: en
Country: US
--></g></svg>