<?xml version="1.0" encoding="UTF-8" standalone="no"?><svg xmlns="http://www.w3.org/2000/svg" xmlns:xlink="http://www.w3.org/1999/xlink" contentStyleType="text/css" height="414px" preserveAspectRatio="none" style="width:268px;height:414px;background:#FFFFFF;" version="1.1" viewBox="0 0 268 414" width="268px" zoomAndPan="magnify"><defs/><g><!--MD5=[289d904b2be1998d96d5ca7118f6f33d]
class DemoApplication--><g id="elem_DemoApplication"><rect codeLine="8" fill="#FFFFFF" height="292.4531" id="DemoApplication" rx="2.5" ry="2.5" style="stroke:#555555;stroke-width:0.5;" width="252" x="9" y="115"/><rect fill="#808080" height="32" rx="2.5" ry="2.5" style="stroke:#808080;stroke-width:0.5;" width="252" x="9" y="115"/><rect fill="#808080" height="2.5" style="stroke:#808080;stroke-width:0.5;" width="252" x="9" y="144.5"/><rect codeLine="8" fill="none" height="292.4531" id="DemoApplication" rx="2.5" ry="2.5" style="stroke:#555555;stroke-width:0.5;" width="252" x="9" y="115"/><ellipse cx="72.25" cy="131" fill="#ADD1B2" rx="11" ry="11" style="stroke:#181818;stroke-width:1.0;"/><path d="M75.2188,136.6406 Q74.6406,136.9375 74,137.0781 Q73.3594,137.2344 72.6563,137.2344 Q70.1563,137.2344 68.8281,135.5938 Q67.5156,133.9375 67.5156,130.8125 Q67.5156,127.6875 68.8281,126.0313 Q70.1563,124.375 72.6563,124.375 Q73.3594,124.375 74,124.5313 Q74.6563,124.6875 75.2188,124.9844 L75.2188,127.7031 Q74.5938,127.125 74,126.8594 Q73.4063,126.5781 72.7813,126.5781 Q71.4375,126.5781 70.75,127.6563 Q70.0625,128.7188 70.0625,130.8125 Q70.0625,132.9063 70.75,133.9844 Q71.4375,135.0469 72.7813,135.0469 Q73.4063,135.0469 74,134.7813 Q74.5938,134.5 75.2188,133.9219 L75.2188,136.6406 Z " fill="#000000"/><text fill="#000000" font-family="sans-serif" font-size="14" lengthAdjust="spacing" textLength="117" x="92.75" y="135.8467">DemoApplication</text><line style="stroke:#555555;stroke-width:0.5;" x1="10" x2="260" y1="147" y2="147"/><rect fill="none" height="6" style="stroke:#C82930;stroke-width:1.0;" width="6" x="17" y="157.6484"/><text fill="#000000" font-family="sans-serif" font-size="14" lengthAdjust="spacing" textLength="64" x="29" y="163.9951">Ref : U32</text><line style="stroke:#555555;stroke-width:0.5;" x1="10" x2="260" y1="171.2969" y2="171.2969"/><polygon fill="#FFFF44" points="20,179.9453,24,183.9453,20,187.9453,16,183.9453" style="stroke:#B38D22;stroke-width:1.0;"/><text fill="#000000" font-family="sans-serif" font-size="14" lengthAdjust="spacing" text-decoration="underline" textLength="164" x="29" y="188.292">DemoApplication_New()</text><polygon fill="#FFFF44" points="20,196.2422,24,200.2422,20,204.2422,16,200.2422" style="stroke:#B38D22;stroke-width:1.0;"/><text fill="#000000" font-family="sans-serif" font-size="14" lengthAdjust="spacing" text-decoration="underline" textLength="226" x="29" y="204.5889">DemoApplication_GetAttributes()</text><ellipse cx="20" cy="217.5391" fill="#84BE84" rx="3" ry="3" style="stroke:#038048;stroke-width:1.0;"/><text fill="#000000" font-family="sans-serif" font-size="14" lengthAdjust="spacing" text-decoration="underline" textLength="180" x="29" y="220.8857">DemoApplication_Create()</text><polygon fill="#FFFF44" points="20,228.8359,24,232.8359,20,236.8359,16,232.8359" style="stroke:#B38D22;stroke-width:1.0;"/><text fill="#000000" font-family="sans-serif" font-size="14" lengthAdjust="spacing" textLength="55" x="29" y="237.1826">Layout()</text><polygon fill="#FFFF44" points="20,245.1328,24,249.1328,20,253.1328,16,249.1328" style="stroke:#B38D22;stroke-width:1.0;"/><text fill="#000000" font-family="sans-serif" font-size="14" lengthAdjust="spacing" textLength="105" x="29" y="253.4795">ExecuteMenu()</text><polygon fill="#FFFF44" points="20,261.4297,24,265.4297,20,269.4297,16,265.4297" style="stroke:#B38D22;stroke-width:1.0;"/><text fill="#000000" font-family="sans-serif" font-size="14" lengthAdjust="spacing" textLength="102" x="29" y="269.7764">AddTAFMenu()</text><polygon fill="#FFFF44" points="20,277.7266,24,281.7266,20,285.7266,16,281.7266" style="stroke:#B38D22;stroke-width:1.0;"/><text fill="#000000" font-family="sans-serif" font-size="14" lengthAdjust="spacing" textLength="124" x="29" y="286.0732">RefreshTafMenu()</text><ellipse cx="20" cy="299.0234" fill="#84BE84" rx="3" ry="3" style="stroke:#038048;stroke-width:1.0;"/><text fill="#000000" font-family="sans-serif" font-size="14" lengthAdjust="spacing" textLength="158" x="29" y="302.3701">GetExternalInterfaces()</text><ellipse cx="20" cy="315.3203" fill="#84BE84" rx="3" ry="3" style="stroke:#038048;stroke-width:1.0;"/><text fill="#000000" font-family="sans-serif" font-size="14" lengthAdjust="spacing" textLength="156" x="29" y="318.667">SetExternalInterfaces()</text><ellipse cx="20" cy="331.6172" fill="#84BE84" rx="3" ry="3" style="stroke:#038048;stroke-width:1.0;"/><text fill="#000000" font-family="sans-serif" font-size="14" lengthAdjust="spacing" textLength="160" x="29" y="334.9639">AuthorizationUpdated()</text><ellipse cx="20" cy="347.9141" fill="#84BE84" rx="3" ry="3" style="stroke:#038048;stroke-width:1.0;"/><text fill="#000000" font-family="sans-serif" font-size="14" lengthAdjust="spacing" textLength="197" x="29" y="351.2607">GetPersistentConfiguration()</text><ellipse cx="20" cy="364.2109" fill="#84BE84" rx="3" ry="3" style="stroke:#038048;stroke-width:1.0;"/><text fill="#000000" font-family="sans-serif" font-size="14" lengthAdjust="spacing" textLength="195" x="29" y="367.5576">SetPersistentConfiguration()</text><ellipse cx="20" cy="380.5078" fill="#84BE84" rx="3" ry="3" style="stroke:#038048;stroke-width:1.0;"/><text fill="#000000" font-family="sans-serif" font-size="14" lengthAdjust="spacing" textLength="56" x="29" y="383.8545">Create()</text><ellipse cx="20" cy="396.8047" fill="#84BE84" rx="3" ry="3" style="stroke:#038048;stroke-width:1.0;"/><text fill="#000000" font-family="sans-serif" font-size="14" lengthAdjust="spacing" textLength="64" x="29" y="400.1514">Destroy()</text></g><!--MD5=[7527e2d4fb4cfcf2665acf62b5b5e47b]
class MasterGUI--><g id="elem_MasterGUI"><rect fill="#FFFFFF" height="48" id="MasterGUI" rx="2.5" ry="2.5" style="stroke:#555555;stroke-width:0.5;" width="103" x="83.5" y="7"/><rect fill="#808080" height="32" rx="2.5" ry="2.5" style="stroke:#808080;stroke-width:0.5;" width="103" x="83.5" y="7"/><rect fill="#808080" height="2.5" style="stroke:#808080;stroke-width:0.5;" width="103" x="83.5" y="36.5"/><rect fill="none" height="48" id="MasterGUI" rx="2.5" ry="2.5" style="stroke:#555555;stroke-width:0.5;" width="103" x="83.5" y="7"/><ellipse cx="98.5" cy="23" fill="#ADD1B2" rx="11" ry="11" style="stroke:#181818;stroke-width:1.0;"/><path d="M101.4688,28.6406 Q100.8906,28.9375 100.25,29.0781 Q99.6094,29.2344 98.9063,29.2344 Q96.4063,29.2344 95.0781,27.5938 Q93.7656,25.9375 93.7656,22.8125 Q93.7656,19.6875 95.0781,18.0313 Q96.4063,16.375 98.9063,16.375 Q99.6094,16.375 100.25,16.5313 Q100.9063,16.6875 101.4688,16.9844 L101.4688,19.7031 Q100.8438,19.125 100.25,18.8594 Q99.6563,18.5781 99.0313,18.5781 Q97.6875,18.5781 97,19.6563 Q96.3125,20.7188 96.3125,22.8125 Q96.3125,24.9063 97,25.9844 Q97.6875,27.0469 99.0313,27.0469 Q99.6563,27.0469 100.25,26.7813 Q100.8438,26.5 101.4688,25.9219 L101.4688,28.6406 Z " fill="#000000"/><text fill="#000000" font-family="sans-serif" font-size="14" lengthAdjust="spacing" textLength="71" x="112.5" y="27.8467">MasterGUI</text><line style="stroke:#555555;stroke-width:0.5;" x1="84.5" x2="185.5" y1="39" y2="39"/><line style="stroke:#555555;stroke-width:0.5;" x1="84.5" x2="185.5" y1="47" y2="47"/></g><!--MD5=[ebe827e9f6392dec7ed33f3ea05be12f]
reverse link MasterGUI to DemoApplication--><g id="link_MasterGUI_DemoApplication"><path codeLine="26" d="M135,75.52 C135,87.32 135,100.78 135,114.94 " fill="none" id="MasterGUI-backto-DemoApplication" style="stroke:#181818;stroke-width:1.0;"/><polygon fill="none" points="128,75.12,135,55.12,142,75.12,128,75.12" style="stroke:#181818;stroke-width:1.0;"/></g><!--MD5=[a487f2d8e6f49321c9cb091df1550441]
@startuml
set namespaceSeparator :
skinparam ClassBackgroundColor #FFFFFF
skinparam ClassBorderColor #555555
skinparam ClassFontColor #000000
skinparam ClassHeaderBackgroundColor #808080

skinparam top to bottom direction
class "DemoApplication" {
{field} -Ref : U32
{static} {method} #DemoApplication_New()
{static} {method} #DemoApplication_GetAttributes()
{static} {method} +DemoApplication_Create()
{method} #Layout()
{method} #ExecuteMenu()
{method} #AddTAFMenu()
{method} #RefreshTafMenu()
{method} +GetExternalInterfaces()
{method} +SetExternalInterfaces()
{method} +AuthorizationUpdated()
{method} +GetPersistentConfiguration()
{method} +SetPersistentConfiguration()
{method} +Create()
{method} +Destroy()

}
"MasterGUI" <|- - "DemoApplication"



@enduml

PlantUML version 1.2022.12(Sun Oct 23 18:12:26 GMT 2022)
(GPL source distribution)
Java Runtime: OpenJDK Runtime Environment
JVM: OpenJDK 64-Bit Server VM
Default Encoding: UTF-8
Language: en
Country: US
--></g></svg>