<?xml version="1.0" encoding="UTF-8" standalone="no"?><svg xmlns="http://www.w3.org/2000/svg" xmlns:xlink="http://www.w3.org/1999/xlink" contentStyleType="text/css" height="361px" preserveAspectRatio="none" style="width:223px;height:361px;background:#FFFFFF;" version="1.1" viewBox="0 0 223 361" width="223px" zoomAndPan="magnify"><defs/><g><!--MD5=[63bcd6da410e6b93725455a83d4342d0]
cluster BusBase.lvlib--><g id="cluster_BusBase.lvlib"><path d="M51,6 L155,6 A3.75,3.75 0 0 1 157.5,8.5 L164.5,28.2969 L172,28.2969 A2.5,2.5 0 0 1 174.5,30.7969 L174.5,102.5 A2.5,2.5 0 0 1 172,105 L51,105 A2.5,2.5 0 0 1 48.5,102.5 L48.5,8.5 A2.5,2.5 0 0 1 51,6 " fill="none" style="stroke:#000000;stroke-width:1.5;"/><line style="stroke:#000000;stroke-width:1.5;" x1="48.5" x2="164.5" y1="28.2969" y2="28.2969"/><text fill="#000000" font-family="sans-serif" font-size="14" font-weight="bold" lengthAdjust="spacing" textLength="103" x="52.5" y="20.9951">BusBase.lvlib</text></g><!--MD5=[5c9690e2b5af1daf3d654b5084aa762d]
class BusBase.lvlib:BusBase--><g id="elem_BusBase.lvlib:BusBase"><rect fill="#FFFFFF" height="48" id="BusBase.lvlib:BusBase" rx="2.5" ry="2.5" style="stroke:#555555;stroke-width:0.5;" width="94" x="64.5" y="41"/><rect fill="#808080" height="32" rx="2.5" ry="2.5" style="stroke:#808080;stroke-width:0.5;" width="94" x="64.5" y="41"/><rect fill="#808080" height="2.5" style="stroke:#808080;stroke-width:0.5;" width="94" x="64.5" y="70.5"/><rect fill="none" height="48" id="BusBase.lvlib:BusBase" rx="2.5" ry="2.5" style="stroke:#555555;stroke-width:0.5;" width="94" x="64.5" y="41"/><ellipse cx="79.5" cy="57" fill="#ADD1B2" rx="11" ry="11" style="stroke:#181818;stroke-width:1.0;"/><path d="M82.4688,62.6406 Q81.8906,62.9375 81.25,63.0781 Q80.6094,63.2344 79.9063,63.2344 Q77.4063,63.2344 76.0781,61.5938 Q74.7656,59.9375 74.7656,56.8125 Q74.7656,53.6875 76.0781,52.0313 Q77.4063,50.375 79.9063,50.375 Q80.6094,50.375 81.25,50.5313 Q81.9063,50.6875 82.4688,50.9844 L82.4688,53.7031 Q81.8438,53.125 81.25,52.8594 Q80.6563,52.5781 80.0313,52.5781 Q78.6875,52.5781 78,53.6563 Q77.3125,54.7188 77.3125,56.8125 Q77.3125,58.9063 78,59.9844 Q78.6875,61.0469 80.0313,61.0469 Q80.6563,61.0469 81.25,60.7813 Q81.8438,60.5 82.4688,59.9219 L82.4688,62.6406 Z " fill="#000000"/><text fill="#000000" font-family="sans-serif" font-size="14" lengthAdjust="spacing" textLength="62" x="93.5" y="61.8467">BusBase</text><line style="stroke:#555555;stroke-width:0.5;" x1="65.5" x2="157.5" y1="73" y2="73"/><line style="stroke:#555555;stroke-width:0.5;" x1="65.5" x2="157.5" y1="81" y2="81"/></g><!--MD5=[2e60ea073da3b8991f3420e151b5d291]
class BusAuthorizationUpdated--><g id="elem_BusAuthorizationUpdated"><rect codeLine="8" fill="#FFFFFF" height="96.8906" id="BusAuthorizationUpdated" rx="2.5" ry="2.5" style="stroke:#555555;stroke-width:0.5;" width="209" x="7" y="149"/><rect fill="#808080" height="32" rx="2.5" ry="2.5" style="stroke:#808080;stroke-width:0.5;" width="209" x="7" y="149"/><rect fill="#808080" height="2.5" style="stroke:#808080;stroke-width:0.5;" width="209" x="7" y="178.5"/><rect codeLine="8" fill="none" height="96.8906" id="BusAuthorizationUpdated" rx="2.5" ry="2.5" style="stroke:#555555;stroke-width:0.5;" width="209" x="7" y="149"/><ellipse cx="22" cy="165" fill="#ADD1B2" rx="11" ry="11" style="stroke:#181818;stroke-width:1.0;"/><path d="M24.9688,170.6406 Q24.3906,170.9375 23.75,171.0781 Q23.1094,171.2344 22.4063,171.2344 Q19.9063,171.2344 18.5781,169.5938 Q17.2656,167.9375 17.2656,164.8125 Q17.2656,161.6875 18.5781,160.0313 Q19.9063,158.375 22.4063,158.375 Q23.1094,158.375 23.75,158.5313 Q24.4063,158.6875 24.9688,158.9844 L24.9688,161.7031 Q24.3438,161.125 23.75,160.8594 Q23.1563,160.5781 22.5313,160.5781 Q21.1875,160.5781 20.5,161.6563 Q19.8125,162.7188 19.8125,164.8125 Q19.8125,166.9063 20.5,167.9844 Q21.1875,169.0469 22.5313,169.0469 Q23.1563,169.0469 23.75,168.7813 Q24.3438,168.5 24.9688,167.9219 L24.9688,170.6406 Z " fill="#000000"/><text fill="#000000" font-family="sans-serif" font-size="14" lengthAdjust="spacing" textLength="177" x="36" y="169.8467">BusAuthorizationUpdated</text><line style="stroke:#555555;stroke-width:0.5;" x1="8" x2="215" y1="181" y2="181"/><rect fill="none" height="6" style="stroke:#C82930;stroke-width:1.0;" width="6" x="15" y="191.6484"/><text fill="#000000" font-family="sans-serif" font-size="14" lengthAdjust="spacing" textLength="131" x="27" y="197.9951">BusType : LV Class</text><line style="stroke:#555555;stroke-width:0.5;" x1="8" x2="215" y1="205.2969" y2="205.2969"/><ellipse cx="18" cy="218.9453" fill="#84BE84" rx="3" ry="3" style="stroke:#038048;stroke-width:1.0;"/><text fill="#000000" font-family="sans-serif" font-size="14" lengthAdjust="spacing" textLength="158" x="27" y="222.292">GetExternalInterfaces()</text><ellipse cx="18" cy="235.2422" fill="#84BE84" rx="3" ry="3" style="stroke:#038048;stroke-width:1.0;"/><text fill="#000000" font-family="sans-serif" font-size="14" lengthAdjust="spacing" textLength="160" x="27" y="238.5889">AuthorizationUpdated()</text></g><!--MD5=[2bb486e18dffc97c24a5fd8d709ce62f]
class IAuthorizationUpdated--><g id="elem_IAuthorizationUpdated"><rect codeLine="16" fill="#FFFFFF" height="48" id="IAuthorizationUpdated" rx="2.5" ry="2.5" style="stroke:#555555;stroke-width:0.5;" width="186" x="18.5" y="306"/><rect fill="#808080" height="32" rx="2.5" ry="2.5" style="stroke:#808080;stroke-width:0.5;" width="186" x="18.5" y="306"/><rect fill="#808080" height="2.5" style="stroke:#808080;stroke-width:0.5;" width="186" x="18.5" y="335.5"/><rect codeLine="16" fill="none" height="48" id="IAuthorizationUpdated" rx="2.5" ry="2.5" style="stroke:#555555;stroke-width:0.5;" width="186" x="18.5" y="306"/><ellipse cx="33.5" cy="322" fill="#B4A7E5" rx="11" ry="11" style="stroke:#181818;stroke-width:1.0;"/><path d="M29.4219,317.7656 L29.4219,315.6094 L36.8125,315.6094 L36.8125,317.7656 L34.3438,317.7656 L34.3438,325.8438 L36.8125,325.8438 L36.8125,328 L29.4219,328 L29.4219,325.8438 L31.8906,325.8438 L31.8906,317.7656 L29.4219,317.7656 Z " fill="#000000"/><text fill="#000000" font-family="sans-serif" font-size="14" font-style="italic" lengthAdjust="spacing" textLength="154" x="47.5" y="326.8467">IAuthorizationUpdated</text><line style="stroke:#555555;stroke-width:0.5;" x1="19.5" x2="203.5" y1="338" y2="338"/><line style="stroke:#555555;stroke-width:0.5;" x1="19.5" x2="203.5" y1="346" y2="346"/></g><!--MD5=[c6fe9872d9b14b56a42ad742d41f03cd]
reverse link BusBase.lvlib:BusBase to BusAuthorizationUpdated--><g id="link_BusBase.lvlib:BusBase_BusAuthorizationUpdated"><path codeLine="14" d="M111.5,109.37 C111.5,122.03 111.5,135.93 111.5,148.84 " fill="none" id="BusBase.lvlib:BusBase-backto-BusAuthorizationUpdated" style="stroke:#181818;stroke-width:1.0;"/><polygon fill="none" points="104.5,109.03,111.5,89.03,118.5,109.03,104.5,109.03" style="stroke:#181818;stroke-width:1.0;"/></g><!--MD5=[120bfc4b849b92fd1a2bb9685cb96df6]
reverse link IAuthorizationUpdated to BusAuthorizationUpdated--><g id="link_IAuthorizationUpdated_BusAuthorizationUpdated"><path codeLine="15" d="M124.31,285.46 C125.14,272.91 125.22,259.15 124.56,246.35 " fill="none" id="IAuthorizationUpdated-backto-BusAuthorizationUpdated" style="stroke:#181818;stroke-width:1.0;stroke-dasharray:7.0,7.0;"/><polygon fill="none" points="131.24,286.53,122.13,305.66,117.32,285.03,131.24,286.53" style="stroke:#181818;stroke-width:1.0;"/></g><!--MD5=[9592f4b9790b41ada1b9e1830e8586a3]
reverse link BusAuthorizationUpdated to IAuthorizationUpdated--><g id="link_BusAuthorizationUpdated_IAuthorizationUpdated"><path codeLine="18" d="M98.78,259.39 C98.58,275.85 99.48,292.67 101.46,305.66 " fill="none" id="BusAuthorizationUpdated-backto-IAuthorizationUpdated" style="stroke:#181818;stroke-width:1.0;"/><polygon fill="#181818" points="99.16,246.35,94.9836,252.2286,98.8037,258.3447,102.9801,252.4661,99.16,246.35" style="stroke:#181818;stroke-width:1.0;"/></g><!--MD5=[410103e3be8124dce2f254965b5b5e41]
@startuml
set namespaceSeparator :
skinparam ClassBackgroundColor #FFFFFF
skinparam ClassBorderColor #555555
skinparam ClassFontColor #000000
skinparam ClassHeaderBackgroundColor #808080

skinparam top to bottom direction
class "BusAuthorizationUpdated" {
{field} -BusType : LV Class
{method} +GetExternalInterfaces()
{method} +AuthorizationUpdated()

}
"BusBase.lvlib:BusBase" <|- - "BusAuthorizationUpdated"
"IAuthorizationUpdated" <|.. "BusAuthorizationUpdated"
interface "IAuthorizationUpdated" {}

"BusAuthorizationUpdated" *- - "IAuthorizationUpdated"



@enduml

PlantUML version 1.2022.12(Sun Oct 23 18:12:26 GMT 2022)
(GPL source distribution)
Java Runtime: OpenJDK Runtime Environment
JVM: OpenJDK 64-Bit Server VM
Default Encoding: UTF-8
Language: en
Country: US
--></g></svg>