<?xml version="1.0" encoding="UTF-8" standalone="no"?><svg xmlns="http://www.w3.org/2000/svg" xmlns:xlink="http://www.w3.org/1999/xlink" contentStyleType="text/css" height="589px" preserveAspectRatio="none" style="width:296px;height:589px;background:#FFFFFF;" version="1.1" viewBox="0 0 296 589" width="296px" zoomAndPan="magnify"><defs/><g><!--MD5=[21e9cbb90c6f9d43b2add662603af66e]
cluster TraceWindow.lvlib--><g id="cluster_TraceWindow.lvlib"><path d="M12.5,80 L138.5,80 A3.75,3.75 0 0 1 141,82.5 L148,102.7999 L273.5,102.7999 A2.5,2.5 0 0 1 276,105.2999 L276,579.5 A2.5,2.5 0 0 1 273.5,582 L12.5,582 A2.5,2.5 0 0 1 10,579.5 L10,82.5 A2.5,2.5 0 0 1 12.5,80 " style="stroke:#000000;stroke-width:1.5;fill:none;"/><line style="stroke:#000000;stroke-width:1.5;fill:none;" x1="10" x2="148" y1="102.7999" y2="102.7999"/><text fill="#000000" font-family="sans-serif" font-size="14" font-weight="bold" lengthAdjust="spacing" textLength="125" x="14" y="95.9999">TraceWindow.lvlib</text></g><!--MD5=[b3e9cbf704c2619a0da1a31b800401bd]
class TraceWindow.lvlib:TraceWindow--><g id="elem_TraceWindow.lvlib:TraceWindow"><rect codeLine="8" fill="#FFFFFF" height="451.1982" id="TraceWindow.lvlib:TraceWindow" rx="2.5" ry="2.5" style="stroke:#555555;stroke-width:0.5;" width="234" x="26" y="115"/><rect fill="#808080" height="32" rx="2.5" ry="2.5" style="stroke:#808080;stroke-width:0.5;" width="234" x="26" y="115"/><rect fill="#808080" height="2.5" style="stroke:#808080;stroke-width:0.5;" width="234" x="26" y="144.5"/><rect codeLine="8" fill="none" height="451.1982" id="TraceWindow.lvlib:TraceWindow" rx="2.5" ry="2.5" style="stroke:#555555;stroke-width:0.5;" width="234" x="26" y="115"/><ellipse cx="96.25" cy="131" fill="#ADD1B2" rx="11" ry="11" style="stroke:#181818;stroke-width:1.0;"/><path d="M95.6094,134.7813 Q96.4063,134.7813 96.9688,134.5938 Q97.5469,134.3906 97.7813,134.1719 Q98.0313,133.9375 98.2656,133.75 Q98.5156,133.5469 98.7344,133.5469 Q99.0781,133.5469 99.3281,133.8125 Q99.5938,134.0625 99.5938,134.3906 Q99.5938,135.125 98.4219,135.8125 Q97.2656,136.4844 95.5625,136.4844 Q93.4063,136.4844 91.9844,135.2188 Q90.5625,133.9531 90.5625,132.0156 L90.5625,130.8906 Q90.5625,128.8594 91.8906,127.4844 Q93.2188,126.0938 95.1875,126.0938 Q96.375,126.0938 97.5938,126.6719 L97.7656,126.75 Q98.0625,126.3438 98.4844,126.3438 Q98.9688,126.3438 99.1406,126.6406 Q99.3281,126.9219 99.3281,127.4688 L99.3281,128.8906 Q99.3281,130.0156 98.4844,130.0156 Q98.1719,130.0156 97.9688,129.8438 Q97.7813,129.6719 97.7344,129.5313 Q97.7031,129.375 97.6563,129.1094 Q97.5469,128.5938 97.0313,128.2813 Q96.5156,127.9688 96.0625,127.8906 Q95.625,127.7969 95.25,127.7969 Q93.9688,127.7969 93.1094,128.6719 Q92.2656,129.5469 92.2656,130.8906 L92.2656,131.9844 Q92.2656,133.2656 93.1719,134.0313 Q94.0781,134.7813 95.6094,134.7813 Z " fill="#000000"/><text fill="#000000" font-family="sans-serif" font-size="14" lengthAdjust="spacing" textLength="85" x="116.75" y="136.6">TraceWindow</text><line style="stroke:#555555;stroke-width:0.5;" x1="27" x2="259" y1="147" y2="147"/><rect fill="none" height="6" style="stroke:#C82930;stroke-width:1.0;" width="6" x="34" y="155"/><text fill="#000000" font-family="sans-serif" font-size="14" lengthAdjust="spacing" textLength="59" x="46" y="164.9999">Ref : U32</text><line style="stroke:#555555;stroke-width:0.5;" x1="27" x2="259" y1="171.7999" y2="171.7999"/><polygon fill="#FFFF44" points="37,177.7999,41,181.7999,37,185.7999,33,181.7999" style="stroke:#B38D22;stroke-width:1.0;"/><text fill="#000000" font-family="sans-serif" font-size="14" lengthAdjust="spacing" text-decoration="underline" textLength="96" x="46" y="189.7999">StartMainGUI()</text><polygon fill="#FFFF44" points="37,194.5999,41,198.5999,37,202.5999,33,198.5999" style="stroke:#B38D22;stroke-width:1.0;"/><text fill="#000000" font-family="sans-serif" font-size="14" lengthAdjust="spacing" text-decoration="underline" textLength="108" x="46" y="206.5998">RequestDestroy()</text><polygon fill="#FFFF44" points="37,211.3998,41,215.3998,37,219.3998,33,215.3998" style="stroke:#B38D22;stroke-width:1.0;"/><text fill="#000000" font-family="sans-serif" font-size="14" lengthAdjust="spacing" text-decoration="underline" textLength="66" x="46" y="223.3997">MainGUI()</text><polygon fill="#FFFF44" points="37,228.1997,41,232.1997,37,236.1997,33,232.1997" style="stroke:#B38D22;stroke-width:1.0;"/><text fill="#000000" font-family="sans-serif" font-size="14" lengthAdjust="spacing" text-decoration="underline" textLength="94" x="46" y="240.1996">StopMainGUI()</text><polygon fill="#FFFF44" points="37,244.9996,41,248.9996,37,252.9996,33,248.9996" style="stroke:#B38D22;stroke-width:1.0;"/><text fill="#000000" font-family="sans-serif" font-size="14" lengthAdjust="spacing" text-decoration="underline" textLength="130" x="46" y="256.9996">TraceWindow_New()</text><polygon fill="#FFFF44" points="37,261.7996,41,265.7996,37,269.7996,33,265.7996" style="stroke:#B38D22;stroke-width:1.0;"/><text fill="#000000" font-family="sans-serif" font-size="14" lengthAdjust="spacing" text-decoration="underline" textLength="131" x="46" y="273.7995">MainGUIRepository()</text><polygon fill="#FFFF44" points="37,278.5995,41,282.5995,37,286.5995,33,282.5995" style="stroke:#B38D22;stroke-width:1.0;"/><text fill="#000000" font-family="sans-serif" font-size="14" lengthAdjust="spacing" text-decoration="underline" textLength="184" x="46" y="290.5994">TraceWindow_GetAttributes()</text><polygon fill="#FFFF44" points="37,295.3994,41,299.3994,37,303.3994,33,299.3994" style="stroke:#B38D22;stroke-width:1.0;"/><text fill="#000000" font-family="sans-serif" font-size="14" lengthAdjust="spacing" text-decoration="underline" textLength="208" x="46" y="307.3994">TraceWindow_SendAndReceive()</text><rect fill="#F24D5C" height="6" style="stroke:#C82930;stroke-width:1.0;" width="6" x="34" y="314.1993"/><text fill="#000000" font-family="sans-serif" font-size="14" lengthAdjust="spacing" text-decoration="underline" textLength="196" x="46" y="324.1993">TraceWindow_MainGUIActive()</text><ellipse cx="37" cy="333.9993" fill="#84BE84" rx="3" ry="3" style="stroke:#038048;stroke-width:1.0;"/><text fill="#000000" font-family="sans-serif" font-size="14" lengthAdjust="spacing" text-decoration="underline" textLength="144" x="46" y="340.9992">TraceWindow_Create()</text><ellipse cx="37" cy="350.7992" fill="#84BE84" rx="3" ry="3" style="stroke:#038048;stroke-width:1.0;"/><text fill="#000000" font-family="sans-serif" font-size="14" lengthAdjust="spacing" text-decoration="underline" textLength="159" x="46" y="357.7991">ControlMainGUIWindow()</text><polygon fill="#FFFF44" points="37,362.5991,41,366.5991,37,370.5991,33,366.5991" style="stroke:#B38D22;stroke-width:1.0;"/><text fill="#000000" font-family="sans-serif" font-size="14" lengthAdjust="spacing" textLength="120" x="46" y="374.5991">ReadTraceQueue()</text><ellipse cx="37" cy="384.399" fill="#84BE84" rx="3" ry="3" style="stroke:#038048;stroke-width:1.0;"/><text fill="#000000" font-family="sans-serif" font-size="14" lengthAdjust="spacing" textLength="119" x="46" y="391.399">WriteTraceQueue()</text><polygon fill="#FFFF44" points="37,396.199,41,400.199,37,404.199,33,400.199" style="stroke:#B38D22;stroke-width:1.0;"/><text fill="#000000" font-family="sans-serif" font-size="14" lengthAdjust="spacing" textLength="137" x="46" y="408.1989">ReadOpenAtClosure()</text><ellipse cx="37" cy="417.9989" fill="#84BE84" rx="3" ry="3" style="stroke:#038048;stroke-width:1.0;"/><text fill="#000000" font-family="sans-serif" font-size="14" lengthAdjust="spacing" textLength="176" x="46" y="424.9988">GetPersistentConfiguration()</text><ellipse cx="37" cy="434.7988" fill="#84BE84" rx="3" ry="3" style="stroke:#038048;stroke-width:1.0;"/><text fill="#000000" font-family="sans-serif" font-size="14" lengthAdjust="spacing" textLength="174" x="46" y="441.7988">SetPersistentConfiguration()</text><ellipse cx="37" cy="451.5988" fill="#84BE84" rx="3" ry="3" style="stroke:#038048;stroke-width:1.0;"/><text fill="#000000" font-family="sans-serif" font-size="14" lengthAdjust="spacing" textLength="144" x="46" y="458.5987">GetExternalInterfaces()</text><ellipse cx="37" cy="468.3987" fill="#84BE84" rx="3" ry="3" style="stroke:#038048;stroke-width:1.0;"/><text fill="#000000" font-family="sans-serif" font-size="14" lengthAdjust="spacing" textLength="142" x="46" y="475.3986">SetExternalInterfaces()</text><ellipse cx="37" cy="485.1986" fill="#84BE84" rx="3" ry="3" style="stroke:#038048;stroke-width:1.0;"/><text fill="#000000" font-family="sans-serif" font-size="14" lengthAdjust="spacing" textLength="137" x="46" y="492.1985">ExecuteButtonAction()</text><ellipse cx="37" cy="501.9985" fill="#84BE84" rx="3" ry="3" style="stroke:#038048;stroke-width:1.0;"/><text fill="#000000" font-family="sans-serif" font-size="14" lengthAdjust="spacing" textLength="99" x="46" y="508.9985">GetFrontPanel()</text><ellipse cx="37" cy="518.7985" fill="#84BE84" rx="3" ry="3" style="stroke:#038048;stroke-width:1.0;"/><text fill="#000000" font-family="sans-serif" font-size="14" lengthAdjust="spacing" textLength="51" x="46" y="525.7984">Create()</text><ellipse cx="37" cy="535.5984" fill="#84BE84" rx="3" ry="3" style="stroke:#038048;stroke-width:1.0;"/><text fill="#000000" font-family="sans-serif" font-size="14" lengthAdjust="spacing" textLength="57" x="46" y="542.5983">Destroy()</text><ellipse cx="37" cy="552.3983" fill="#84BE84" rx="3" ry="3" style="stroke:#038048;stroke-width:1.0;"/><text fill="#000000" font-family="sans-serif" font-size="14" lengthAdjust="spacing" textLength="99" x="46" y="559.3983">IsGUIRunning()</text></g><!--MD5=[0598474d39ed4a9017b81a2a55acc3b1]
class TAFBaseGUI--><g id="elem_TAFBaseGUI"><rect fill="#FFFFFF" height="48" id="TAFBaseGUI" rx="2.5" ry="2.5" style="stroke:#555555;stroke-width:0.5;" width="114" x="7" y="7"/><rect fill="#808080" height="32" rx="2.5" ry="2.5" style="stroke:#808080;stroke-width:0.5;" width="114" x="7" y="7"/><rect fill="#808080" height="2.5" style="stroke:#808080;stroke-width:0.5;" width="114" x="7" y="36.5"/><rect fill="none" height="48" id="TAFBaseGUI" rx="2.5" ry="2.5" style="stroke:#555555;stroke-width:0.5;" width="114" x="7" y="7"/><ellipse cx="22" cy="23" fill="#ADD1B2" rx="11" ry="11" style="stroke:#181818;stroke-width:1.0;"/><path d="M21.3594,26.7813 Q22.1563,26.7813 22.7188,26.5938 Q23.2969,26.3906 23.5313,26.1719 Q23.7813,25.9375 24.0156,25.75 Q24.2656,25.5469 24.4844,25.5469 Q24.8281,25.5469 25.0781,25.8125 Q25.3438,26.0625 25.3438,26.3906 Q25.3438,27.125 24.1719,27.8125 Q23.0156,28.4844 21.3125,28.4844 Q19.1563,28.4844 17.7344,27.2188 Q16.3125,25.9531 16.3125,24.0156 L16.3125,22.8906 Q16.3125,20.8594 17.6406,19.4844 Q18.9688,18.0938 20.9375,18.0938 Q22.125,18.0938 23.3438,18.6719 L23.5156,18.75 Q23.8125,18.3438 24.2344,18.3438 Q24.7188,18.3438 24.8906,18.6406 Q25.0781,18.9219 25.0781,19.4688 L25.0781,20.8906 Q25.0781,22.0156 24.2344,22.0156 Q23.9219,22.0156 23.7188,21.8438 Q23.5313,21.6719 23.4844,21.5313 Q23.4531,21.375 23.4063,21.1094 Q23.2969,20.5938 22.7813,20.2813 Q22.2656,19.9688 21.8125,19.8906 Q21.375,19.7969 21,19.7969 Q19.7188,19.7969 18.8594,20.6719 Q18.0156,21.5469 18.0156,22.8906 L18.0156,23.9844 Q18.0156,25.2656 18.9219,26.0313 Q19.8281,26.7813 21.3594,26.7813 Z " fill="#000000"/><text fill="#000000" font-family="sans-serif" font-size="14" lengthAdjust="spacing" textLength="82" x="36" y="28.6">TAFBaseGUI</text><line style="stroke:#555555;stroke-width:0.5;" x1="8" x2="120" y1="39" y2="39"/><line style="stroke:#555555;stroke-width:0.5;" x1="8" x2="120" y1="47" y2="47"/></g><!--MD5=[279d10572fd96349ac6b0a9cb9c87a2e]
class ITAFGUIActions--><g id="elem_ITAFGUIActions"><rect codeLine="37" fill="#FFFFFF" height="48" id="ITAFGUIActions" rx="2.5" ry="2.5" style="stroke:#555555;stroke-width:0.5;" width="133" x="156.5" y="7"/><rect fill="#808080" height="32" rx="2.5" ry="2.5" style="stroke:#808080;stroke-width:0.5;" width="133" x="156.5" y="7"/><rect fill="#808080" height="2.5" style="stroke:#808080;stroke-width:0.5;" width="133" x="156.5" y="36.5"/><rect codeLine="37" fill="none" height="48" id="ITAFGUIActions" rx="2.5" ry="2.5" style="stroke:#555555;stroke-width:0.5;" width="133" x="156.5" y="7"/><ellipse cx="171.5" cy="23" fill="#B4A7E5" rx="11" ry="11" style="stroke:#181818;stroke-width:1.0;"/><path d="M174.1719,26.2969 Q174.7188,26.2969 175,26.4844 Q175.2813,26.6563 175.2813,27.1563 Q175.2813,28 174.1719,28 L169.0313,28 Q167.9063,28 167.9063,27.1563 Q167.9063,26.6563 168.1875,26.4844 Q168.4844,26.2969 169.0313,26.2969 L170.75,26.2969 L170.75,19.7813 L169.0313,19.7813 Q167.9063,19.7813 167.9063,18.9375 Q167.9063,18.4531 168.1875,18.2813 Q168.4844,18.0938 169.0313,18.0938 L174.1719,18.0938 Q174.7188,18.0938 175,18.2813 Q175.2813,18.4531 175.2813,18.9375 Q175.2813,19.7813 174.1719,19.7813 L172.4531,19.7813 L172.4531,26.2969 L174.1719,26.2969 Z " fill="#000000"/><text fill="#000000" font-family="sans-serif" font-size="14" font-style="italic" lengthAdjust="spacing" textLength="101" x="185.5" y="28.6">ITAFGUIActions</text><line style="stroke:#555555;stroke-width:0.5;" x1="157.5" x2="288.5" y1="39" y2="39"/><line style="stroke:#555555;stroke-width:0.5;" x1="157.5" x2="288.5" y1="47" y2="47"/></g><!--MD5=[2b576a04c603d5b31823838f169ba2a2]
reverse link TAFBaseGUI to TraceWindow.lvlib:TraceWindow--><g id="link_TAFBaseGUI_TraceWindow.lvlib:TraceWindow"><path codeLine="35" d="M74.97,74.71 C78,86.49 81.5,100.14 85.3,114.9 " fill="none" id="TAFBaseGUI-backto-TraceWindow.lvlib:TraceWindow" style="stroke:#181818;stroke-width:1.0;"/><polygon fill="none" points="68.13,76.23,69.94,55.11,81.69,72.74,68.13,76.23" style="stroke:#181818;stroke-width:1.0;"/></g><!--MD5=[89ee08f7bcf7630061c420594bf56859]
reverse link ITAFGUIActions to TraceWindow.lvlib:TraceWindow--><g id="link_ITAFGUIActions_TraceWindow.lvlib:TraceWindow"><path codeLine="36" d="M211.89,74.71 C208.82,86.49 205.27,100.14 201.43,114.9 " fill="none" id="ITAFGUIActions-backto-TraceWindow.lvlib:TraceWindow" style="stroke:#181818;stroke-width:1.0;stroke-dasharray:7.0,7.0;"/><polygon fill="none" points="205.18,72.71,216.99,55.11,218.73,76.23,205.18,72.71" style="stroke:#181818;stroke-width:1.0;"/></g><!--MD5=[0a0bc37616afedda70f0fd90a63f81ee]
@startuml
set namespaceSeparator :
skinparam ClassBackgroundColor #FFFFFF
skinparam ClassBorderColor #555555
skinparam ClassFontColor #000000
skinparam ClassHeaderBackgroundColor #808080

skinparam top to bottom direction
class "TraceWindow.lvlib:TraceWindow" {
{field} -Ref : U32
{static} {method} #StartMainGUI()
{static} {method} #RequestDestroy()
{static} {method} #MainGUI()
{static} {method} #StopMainGUI()
{static} {method} #TraceWindow_New()
{static} {method} #MainGUIRepository()
{static} {method} #TraceWindow_GetAttributes()
{static} {method} #TraceWindow_SendAndReceive()
{static} {method} -TraceWindow_MainGUIActive()
{static} {method} +TraceWindow_Create()
{static} {method} +ControlMainGUIWindow()
{method} #ReadTraceQueue()
{method} +WriteTraceQueue()
{method} #ReadOpenAtClosure()
{method} +GetPersistentConfiguration()
{method} +SetPersistentConfiguration()
{method} +GetExternalInterfaces()
{method} +SetExternalInterfaces()
{method} +ExecuteButtonAction()
{method} +GetFrontPanel()
{method} +Create()
{method} +Destroy()
{method} +IsGUIRunning()

}
"TAFBaseGUI" <|- - "TraceWindow.lvlib:TraceWindow"
"ITAFGUIActions" <|.. "TraceWindow.lvlib:TraceWindow"
interface "ITAFGUIActions" {}




@enduml

PlantUML version 1.2022.5(Sat Apr 30 10:55:52 GMT 2022)
(GPL source distribution)
Java Runtime: OpenJDK Runtime Environment
JVM: OpenJDK 64-Bit Server VM
Default Encoding: UTF-8
Language: en
Country: US
--></g></svg>