<?xml version="1.0" encoding="UTF-8" standalone="no"?><svg xmlns="http://www.w3.org/2000/svg" xmlns:xlink="http://www.w3.org/1999/xlink" contentStyleType="text/css" height="186px" preserveAspectRatio="none" style="width:139px;height:186px;background:#FFFFFF;" version="1.1" viewBox="0 0 139 186" width="139px" zoomAndPan="magnify"><defs/><g><!--MD5=[163b904ce3f0cc2f7db427f2921361dd]
class IFrontPanel--><g id="elem_IFrontPanel"><rect codeLine="8" fill="#FFFFFF" height="64.7999" id="IFrontPanel" rx="2.5" ry="2.5" style="stroke:#555555;stroke-width:0.5;" width="125" x="7" y="115"/><rect fill="#808080" height="32" rx="2.5" ry="2.5" style="stroke:#808080;stroke-width:0.5;" width="125" x="7" y="115"/><rect fill="#808080" height="2.5" style="stroke:#808080;stroke-width:0.5;" width="125" x="7" y="144.5"/><rect codeLine="8" fill="none" height="64.7999" id="IFrontPanel" rx="2.5" ry="2.5" style="stroke:#555555;stroke-width:0.5;" width="125" x="7" y="115"/><ellipse cx="31" cy="131" fill="#B4A7E5" rx="11" ry="11" style="stroke:#181818;stroke-width:1.0;"/><path d="M33.6719,134.2969 Q34.2188,134.2969 34.5,134.4844 Q34.7813,134.6563 34.7813,135.1563 Q34.7813,136 33.6719,136 L28.5313,136 Q27.4063,136 27.4063,135.1563 Q27.4063,134.6563 27.6875,134.4844 Q27.9844,134.2969 28.5313,134.2969 L30.25,134.2969 L30.25,127.7813 L28.5313,127.7813 Q27.4063,127.7813 27.4063,126.9375 Q27.4063,126.4531 27.6875,126.2813 Q27.9844,126.0938 28.5313,126.0938 L33.6719,126.0938 Q34.2188,126.0938 34.5,126.2813 Q34.7813,126.4531 34.7813,126.9375 Q34.7813,127.7813 33.6719,127.7813 L31.9531,127.7813 L31.9531,134.2969 L33.6719,134.2969 Z " fill="#000000"/><text fill="#000000" font-family="sans-serif" font-size="14" font-style="italic" lengthAdjust="spacing" textLength="73" x="47" y="136.6">IFrontPanel</text><line style="stroke:#555555;stroke-width:0.5;" x1="8" x2="131" y1="147" y2="147"/><line style="stroke:#555555;stroke-width:0.5;" x1="8" x2="131" y1="155" y2="155"/><ellipse cx="18" cy="166" fill="#84BE84" rx="3" ry="3" style="stroke:#038048;stroke-width:1.0;"/><text fill="#000000" font-family="sans-serif" font-size="14" lengthAdjust="spacing" textLength="99" x="27" y="172.9999">GetFrontPanel()</text></g><!--MD5=[065ef51c0b83ac26c2e8b4ca504d0938]
class IInterface--><g id="elem_IInterface"><rect codeLine="13" fill="#FFFFFF" height="48" id="IInterface" rx="2.5" ry="2.5" style="stroke:#555555;stroke-width:0.5;" width="92" x="23.5" y="7"/><rect fill="#808080" height="32" rx="2.5" ry="2.5" style="stroke:#808080;stroke-width:0.5;" width="92" x="23.5" y="7"/><rect fill="#808080" height="2.5" style="stroke:#808080;stroke-width:0.5;" width="92" x="23.5" y="36.5"/><rect codeLine="13" fill="none" height="48" id="IInterface" rx="2.5" ry="2.5" style="stroke:#555555;stroke-width:0.5;" width="92" x="23.5" y="7"/><ellipse cx="38.5" cy="23" fill="#B4A7E5" rx="11" ry="11" style="stroke:#181818;stroke-width:1.0;"/><path d="M41.1719,26.2969 Q41.7188,26.2969 42,26.4844 Q42.2813,26.6563 42.2813,27.1563 Q42.2813,28 41.1719,28 L36.0313,28 Q34.9063,28 34.9063,27.1563 Q34.9063,26.6563 35.1875,26.4844 Q35.4844,26.2969 36.0313,26.2969 L37.75,26.2969 L37.75,19.7813 L36.0313,19.7813 Q34.9063,19.7813 34.9063,18.9375 Q34.9063,18.4531 35.1875,18.2813 Q35.4844,18.0938 36.0313,18.0938 L41.1719,18.0938 Q41.7188,18.0938 42,18.2813 Q42.2813,18.4531 42.2813,18.9375 Q42.2813,19.7813 41.1719,19.7813 L39.4531,19.7813 L39.4531,26.2969 L41.1719,26.2969 Z " fill="#000000"/><text fill="#000000" font-family="sans-serif" font-size="14" font-style="italic" lengthAdjust="spacing" textLength="60" x="52.5" y="28.6">IInterface</text><line style="stroke:#555555;stroke-width:0.5;" x1="24.5" x2="114.5" y1="39" y2="39"/><line style="stroke:#555555;stroke-width:0.5;" x1="24.5" x2="114.5" y1="47" y2="47"/></g><!--MD5=[b4215e9122b9a71133ff07add30cb8da]
reverse link IInterface to IFrontPanel--><g id="link_IInterface_IFrontPanel"><path codeLine="12" d="M69.5,75.59 C69.5,88.59 69.5,102.59 69.5,114.69 " fill="none" id="IInterface-backto-IFrontPanel" style="stroke:#181818;stroke-width:1.0;stroke-dasharray:7.0,7.0;"/><polygon fill="none" points="62.5,75.17,69.5,55.17,76.5,75.17,62.5,75.17" style="stroke:#181818;stroke-width:1.0;"/></g><!--MD5=[d203cd0e2ce43b16a79cb34431b3c927]
@startuml
set namespaceSeparator :
skinparam ClassBackgroundColor #FFFFFF
skinparam ClassBorderColor #555555
skinparam ClassFontColor #000000
skinparam ClassHeaderBackgroundColor #808080

skinparam top to bottom direction
interface "IFrontPanel" {
{method} +GetFrontPanel()

}
"IInterface" <|.. "IFrontPanel"
interface "IInterface" {}




@enduml

PlantUML version 1.2022.5(Sat Apr 30 10:55:52 GMT 2022)
(GPL source distribution)
Java Runtime: OpenJDK Runtime Environment
JVM: OpenJDK 64-Bit Server VM
Default Encoding: UTF-8
Language: en
Country: US
--></g></svg>