<?xml version="1.0" encoding="UTF-8" standalone="no"?><svg xmlns="http://www.w3.org/2000/svg" xmlns:xlink="http://www.w3.org/1999/xlink" contentStyleType="text/css" height="202px" preserveAspectRatio="none" style="width:196px;height:202px;background:#FFFFFF;" version="1.1" viewBox="0 0 196 202" width="196px" zoomAndPan="magnify"><defs/><g><!--MD5=[279d10572fd96349ac6b0a9cb9c87a2e]
class ITAFGUIActions--><g id="elem_ITAFGUIActions"><rect codeLine="8" fill="#FFFFFF" height="80.5938" id="ITAFGUIActions" rx="2.5" ry="2.5" style="stroke:#555555;stroke-width:0.5;" width="182" x="7" y="115"/><rect fill="#808080" height="32" rx="2.5" ry="2.5" style="stroke:#808080;stroke-width:0.5;" width="182" x="7" y="115"/><rect fill="#808080" height="2.5" style="stroke:#808080;stroke-width:0.5;" width="182" x="7" y="144.5"/><rect codeLine="8" fill="none" height="80.5938" id="ITAFGUIActions" rx="2.5" ry="2.5" style="stroke:#555555;stroke-width:0.5;" width="182" x="7" y="115"/><ellipse cx="41.35" cy="131" fill="#B4A7E5" rx="11" ry="11" style="stroke:#181818;stroke-width:1.0;"/><path d="M37.2719,126.7656 L37.2719,124.6094 L44.6625,124.6094 L44.6625,126.7656 L42.1938,126.7656 L42.1938,134.8438 L44.6625,134.8438 L44.6625,137 L37.2719,137 L37.2719,134.8438 L39.7406,134.8438 L39.7406,126.7656 L37.2719,126.7656 Z " fill="#000000"/><text fill="#000000" font-family="sans-serif" font-size="14" font-style="italic" lengthAdjust="spacing" textLength="107" x="59.65" y="135.8467">ITAFGUIActions</text><line style="stroke:#555555;stroke-width:0.5;" x1="8" x2="188" y1="147" y2="147"/><line style="stroke:#555555;stroke-width:0.5;" x1="8" x2="188" y1="155" y2="155"/><ellipse cx="18" cy="168.6484" fill="#84BE84" rx="3" ry="3" style="stroke:#038048;stroke-width:1.0;"/><text fill="#000000" font-family="sans-serif" font-size="14" lengthAdjust="spacing" textLength="156" x="27" y="171.9951">ExecuteButtonAction()</text><ellipse cx="18" cy="184.9453" fill="#84BE84" rx="3" ry="3" style="stroke:#038048;stroke-width:1.0;"/><text fill="#000000" font-family="sans-serif" font-size="14" lengthAdjust="spacing" textLength="109" x="27" y="188.292">GetFrontPanel()</text></g><!--MD5=[163b904ce3f0cc2f7db427f2921361dd]
class IFrontPanel--><g id="elem_IFrontPanel"><rect codeLine="14" fill="#FFFFFF" height="48" id="IFrontPanel" rx="2.5" ry="2.5" style="stroke:#555555;stroke-width:0.5;" width="109" x="43.5" y="7"/><rect fill="#808080" height="32" rx="2.5" ry="2.5" style="stroke:#808080;stroke-width:0.5;" width="109" x="43.5" y="7"/><rect fill="#808080" height="2.5" style="stroke:#808080;stroke-width:0.5;" width="109" x="43.5" y="36.5"/><rect codeLine="14" fill="none" height="48" id="IFrontPanel" rx="2.5" ry="2.5" style="stroke:#555555;stroke-width:0.5;" width="109" x="43.5" y="7"/><ellipse cx="58.5" cy="23" fill="#B4A7E5" rx="11" ry="11" style="stroke:#181818;stroke-width:1.0;"/><path d="M54.4219,18.7656 L54.4219,16.6094 L61.8125,16.6094 L61.8125,18.7656 L59.3438,18.7656 L59.3438,26.8438 L61.8125,26.8438 L61.8125,29 L54.4219,29 L54.4219,26.8438 L56.8906,26.8438 L56.8906,18.7656 L54.4219,18.7656 Z " fill="#000000"/><text fill="#000000" font-family="sans-serif" font-size="14" font-style="italic" lengthAdjust="spacing" textLength="77" x="72.5" y="27.8467">IFrontPanel</text><line style="stroke:#555555;stroke-width:0.5;" x1="44.5" x2="151.5" y1="39" y2="39"/><line style="stroke:#555555;stroke-width:0.5;" x1="44.5" x2="151.5" y1="47" y2="47"/></g><!--MD5=[2c02a5a52fe6bdc5552e65100d5e088c]
reverse link IFrontPanel to ITAFGUIActions--><g id="link_IFrontPanel_ITAFGUIActions"><path codeLine="13" d="M98,75.14 C98,88 98,102.04 98,114.69 " fill="none" id="IFrontPanel-backto-ITAFGUIActions" style="stroke:#181818;stroke-width:1.0;stroke-dasharray:7.0,7.0;"/><polygon fill="none" points="91,75.04,98,55.04,105,75.04,91,75.04" style="stroke:#181818;stroke-width:1.0;"/></g><!--MD5=[71dae18def35cc20015ec596ff6d1309]
@startuml
set namespaceSeparator :
skinparam ClassBackgroundColor #FFFFFF
skinparam ClassBorderColor #555555
skinparam ClassFontColor #000000
skinparam ClassHeaderBackgroundColor #808080

skinparam top to bottom direction
interface "ITAFGUIActions" {
{method} +ExecuteButtonAction()
{method} +GetFrontPanel()

}
"IFrontPanel" <|.. "ITAFGUIActions"
interface "IFrontPanel" {}




@enduml

PlantUML version 1.2022.12(Sun Oct 23 18:12:26 GMT 2022)
(GPL source distribution)
Java Runtime: OpenJDK Runtime Environment
JVM: OpenJDK 64-Bit Server VM
Default Encoding: UTF-8
Language: en
Country: US
--></g></svg>