<?xml version="1.0" encoding="UTF-8" standalone="no"?><svg xmlns="http://www.w3.org/2000/svg" xmlns:xlink="http://www.w3.org/1999/xlink" contentStyleType="text/css" height="505px" preserveAspectRatio="none" style="width:234px;height:505px;background:#FFFFFF;" version="1.1" viewBox="0 0 234 505" width="234px" zoomAndPan="magnify"><defs/><g><!--MD5=[1ccc7c3d37f0b71cf3979386192f7c75]
class AppConfigMGI--><g id="elem_AppConfigMGI"><rect codeLine="8" fill="#FFFFFF" height="383.9985" id="AppConfigMGI" rx="2.5" ry="2.5" style="stroke:#555555;stroke-width:0.5;" width="218" x="9" y="115"/><rect fill="#808080" height="32" rx="2.5" ry="2.5" style="stroke:#808080;stroke-width:0.5;" width="218" x="9" y="115"/><rect fill="#808080" height="2.5" style="stroke:#808080;stroke-width:0.5;" width="218" x="9" y="144.5"/><rect codeLine="8" fill="none" height="383.9985" id="AppConfigMGI" rx="2.5" ry="2.5" style="stroke:#555555;stroke-width:0.5;" width="218" x="9" y="115"/><ellipse cx="67.75" cy="131" fill="#ADD1B2" rx="11" ry="11" style="stroke:#181818;stroke-width:1.0;"/><path d="M67.1094,134.7813 Q67.9063,134.7813 68.4688,134.5938 Q69.0469,134.3906 69.2813,134.1719 Q69.5313,133.9375 69.7656,133.75 Q70.0156,133.5469 70.2344,133.5469 Q70.5781,133.5469 70.8281,133.8125 Q71.0938,134.0625 71.0938,134.3906 Q71.0938,135.125 69.9219,135.8125 Q68.7656,136.4844 67.0625,136.4844 Q64.9063,136.4844 63.4844,135.2188 Q62.0625,133.9531 62.0625,132.0156 L62.0625,130.8906 Q62.0625,128.8594 63.3906,127.4844 Q64.7188,126.0938 66.6875,126.0938 Q67.875,126.0938 69.0938,126.6719 L69.2656,126.75 Q69.5625,126.3438 69.9844,126.3438 Q70.4688,126.3438 70.6406,126.6406 Q70.8281,126.9219 70.8281,127.4688 L70.8281,128.8906 Q70.8281,130.0156 69.9844,130.0156 Q69.6719,130.0156 69.4688,129.8438 Q69.2813,129.6719 69.2344,129.5313 Q69.2031,129.375 69.1563,129.1094 Q69.0469,128.5938 68.5313,128.2813 Q68.0156,127.9688 67.5625,127.8906 Q67.125,127.7969 66.75,127.7969 Q65.4688,127.7969 64.6094,128.6719 Q63.7656,129.5469 63.7656,130.8906 L63.7656,131.9844 Q63.7656,133.2656 64.6719,134.0313 Q65.5781,134.7813 67.1094,134.7813 Z " fill="#000000"/><text fill="#000000" font-family="sans-serif" font-size="14" lengthAdjust="spacing" textLength="92" x="88.25" y="136.6">AppConfigMGI</text><line style="stroke:#555555;stroke-width:0.5;" x1="10" x2="226" y1="147" y2="147"/><rect fill="none" height="6" style="stroke:#C82930;stroke-width:1.0;" width="6" x="17" y="155"/><text fill="#000000" font-family="sans-serif" font-size="14" lengthAdjust="spacing" textLength="59" x="29" y="164.9999">Ref : U32</text><line style="stroke:#555555;stroke-width:0.5;" x1="10" x2="226" y1="171.7999" y2="171.7999"/><polygon fill="#FFFF44" points="20,177.7999,24,181.7999,20,185.7999,16,181.7999" style="stroke:#B38D22;stroke-width:1.0;"/><text fill="#000000" font-family="sans-serif" font-size="14" lengthAdjust="spacing" text-decoration="underline" textLength="137" x="29" y="189.7999">AppConfigMGI_New()</text><polygon fill="#FFFF44" points="20,194.5999,24,198.5999,20,202.5999,16,198.5999" style="stroke:#B38D22;stroke-width:1.0;"/><text fill="#000000" font-family="sans-serif" font-size="14" lengthAdjust="spacing" text-decoration="underline" textLength="191" x="29" y="206.5998">AppConfigMGI_GetAttributes()</text><ellipse cx="20" cy="216.3998" fill="#84BE84" rx="3" ry="3" style="stroke:#038048;stroke-width:1.0;"/><text fill="#000000" font-family="sans-serif" font-size="14" lengthAdjust="spacing" text-decoration="underline" textLength="151" x="29" y="223.3997">AppConfigMGI_Create()</text><ellipse cx="20" cy="233.1997" fill="#84BE84" rx="3" ry="3" style="stroke:#038048;stroke-width:1.0;"/><text fill="#000000" font-family="sans-serif" font-size="14" lengthAdjust="spacing" textLength="57" x="29" y="240.1996">Destroy()</text><ellipse cx="20" cy="249.9996" fill="#84BE84" rx="3" ry="3" style="stroke:#038048;stroke-width:1.0;"/><text fill="#000000" font-family="sans-serif" font-size="14" lengthAdjust="spacing" textLength="155" x="29" y="256.9996">GetObjectConfiguration()</text><ellipse cx="20" cy="266.7996" fill="#84BE84" rx="3" ry="3" style="stroke:#038048;stroke-width:1.0;"/><text fill="#000000" font-family="sans-serif" font-size="14" lengthAdjust="spacing" textLength="153" x="29" y="273.7995">SetObjectConfiguration()</text><ellipse cx="20" cy="283.5995" fill="#84BE84" rx="3" ry="3" style="stroke:#038048;stroke-width:1.0;"/><text fill="#000000" font-family="sans-serif" font-size="14" lengthAdjust="spacing" textLength="44" x="29" y="290.5994">Open()</text><ellipse cx="20" cy="300.3994" fill="#84BE84" rx="3" ry="3" style="stroke:#038048;stroke-width:1.0;"/><text fill="#000000" font-family="sans-serif" font-size="14" lengthAdjust="spacing" textLength="51" x="29" y="307.3994">Create()</text><ellipse cx="20" cy="317.1993" fill="#84BE84" rx="3" ry="3" style="stroke:#038048;stroke-width:1.0;"/><text fill="#000000" font-family="sans-serif" font-size="14" lengthAdjust="spacing" textLength="117" x="29" y="324.1993">GetAllObjectData()</text><ellipse cx="20" cy="333.9993" fill="#84BE84" rx="3" ry="3" style="stroke:#038048;stroke-width:1.0;"/><text fill="#000000" font-family="sans-serif" font-size="14" lengthAdjust="spacing" textLength="184" x="29" y="340.9992">GetObjectExternalInterfaces()</text><ellipse cx="20" cy="350.7992" fill="#84BE84" rx="3" ry="3" style="stroke:#038048;stroke-width:1.0;"/><text fill="#000000" font-family="sans-serif" font-size="14" lengthAdjust="spacing" textLength="158" x="29" y="357.7991">SetApplicationBasePath()</text><ellipse cx="20" cy="367.5991" fill="#84BE84" rx="3" ry="3" style="stroke:#038048;stroke-width:1.0;"/><text fill="#000000" font-family="sans-serif" font-size="14" lengthAdjust="spacing" textLength="175" x="29" y="374.5991">GetConfigurationBasePath()</text><ellipse cx="20" cy="384.399" fill="#84BE84" rx="3" ry="3" style="stroke:#038048;stroke-width:1.0;"/><text fill="#000000" font-family="sans-serif" font-size="14" lengthAdjust="spacing" textLength="192" x="29" y="391.399">GetObjectConfigurationString()</text><ellipse cx="20" cy="401.199" fill="#84BE84" rx="3" ry="3" style="stroke:#038048;stroke-width:1.0;"/><text fill="#000000" font-family="sans-serif" font-size="14" lengthAdjust="spacing" textLength="190" x="29" y="408.1989">SetObjectConfigurationString()</text><ellipse cx="20" cy="417.9989" fill="#84BE84" rx="3" ry="3" style="stroke:#038048;stroke-width:1.0;"/><text fill="#000000" font-family="sans-serif" font-size="14" lengthAdjust="spacing" textLength="174" x="29" y="424.9988">GetExternalInterfaceString()</text><ellipse cx="20" cy="434.7988" fill="#84BE84" rx="3" ry="3" style="stroke:#038048;stroke-width:1.0;"/><text fill="#000000" font-family="sans-serif" font-size="14" lengthAdjust="spacing" textLength="152" x="29" y="441.7988">GetConfigurationString()</text><ellipse cx="20" cy="451.5988" fill="#84BE84" rx="3" ry="3" style="stroke:#038048;stroke-width:1.0;"/><text fill="#000000" font-family="sans-serif" font-size="14" lengthAdjust="spacing" textLength="122" x="29" y="458.5987">ListConfigurations()</text><ellipse cx="20" cy="468.3987" fill="#84BE84" rx="3" ry="3" style="stroke:#038048;stroke-width:1.0;"/><text fill="#000000" font-family="sans-serif" font-size="14" lengthAdjust="spacing" textLength="150" x="29" y="475.3986">SetConfigurationString()</text><ellipse cx="20" cy="485.1986" fill="#84BE84" rx="3" ry="3" style="stroke:#038048;stroke-width:1.0;"/><text fill="#000000" font-family="sans-serif" font-size="14" lengthAdjust="spacing" textLength="102" x="29" y="492.1985">GetObjectData()</text></g><!--MD5=[49827e1bab8626e5ec2fb4ad52723fa5]
class IApplicationConfiguration--><g id="elem_IApplicationConfiguration"><rect codeLine="32" fill="#FFFFFF" height="48" id="IApplicationConfiguration" rx="2.5" ry="2.5" style="stroke:#555555;stroke-width:0.5;" width="190" x="23" y="7"/><rect fill="#808080" height="32" rx="2.5" ry="2.5" style="stroke:#808080;stroke-width:0.5;" width="190" x="23" y="7"/><rect fill="#808080" height="2.5" style="stroke:#808080;stroke-width:0.5;" width="190" x="23" y="36.5"/><rect codeLine="32" fill="none" height="48" id="IApplicationConfiguration" rx="2.5" ry="2.5" style="stroke:#555555;stroke-width:0.5;" width="190" x="23" y="7"/><ellipse cx="38" cy="23" fill="#B4A7E5" rx="11" ry="11" style="stroke:#181818;stroke-width:1.0;"/><path d="M40.6719,26.2969 Q41.2188,26.2969 41.5,26.4844 Q41.7813,26.6563 41.7813,27.1563 Q41.7813,28 40.6719,28 L35.5313,28 Q34.4063,28 34.4063,27.1563 Q34.4063,26.6563 34.6875,26.4844 Q34.9844,26.2969 35.5313,26.2969 L37.25,26.2969 L37.25,19.7813 L35.5313,19.7813 Q34.4063,19.7813 34.4063,18.9375 Q34.4063,18.4531 34.6875,18.2813 Q34.9844,18.0938 35.5313,18.0938 L40.6719,18.0938 Q41.2188,18.0938 41.5,18.2813 Q41.7813,18.4531 41.7813,18.9375 Q41.7813,19.7813 40.6719,19.7813 L38.9531,19.7813 L38.9531,26.2969 L40.6719,26.2969 Z " fill="#000000"/><text fill="#000000" font-family="sans-serif" font-size="14" font-style="italic" lengthAdjust="spacing" textLength="158" x="52" y="28.6">IApplicationConfiguration</text><line style="stroke:#555555;stroke-width:0.5;" x1="24" x2="212" y1="39" y2="39"/><line style="stroke:#555555;stroke-width:0.5;" x1="24" x2="212" y1="47" y2="47"/></g><!--MD5=[03d60216d853b58e58332f7ba08a133e]
reverse link IApplicationConfiguration to AppConfigMGI--><g id="link_IApplicationConfiguration_AppConfigMGI"><path codeLine="31" d="M118,75.42 C118,87.07 118,100.45 118,114.76 " fill="none" id="IApplicationConfiguration-backto-AppConfigMGI" style="stroke:#181818;stroke-width:1.0;stroke-dasharray:7.0,7.0;"/><polygon fill="none" points="111,75.36,118,55.36,125,75.36,111,75.36" style="stroke:#181818;stroke-width:1.0;"/></g><!--MD5=[a38cbebc052b0b14b37741d6c572c8bd]
@startuml
set namespaceSeparator :
skinparam ClassBackgroundColor #FFFFFF
skinparam ClassBorderColor #555555
skinparam ClassFontColor #000000
skinparam ClassHeaderBackgroundColor #808080

skinparam top to bottom direction
class "AppConfigMGI" {
{field} -Ref : U32
{static} {method} #AppConfigMGI_New()
{static} {method} #AppConfigMGI_GetAttributes()
{static} {method} +AppConfigMGI_Create()
{method} +Destroy()
{method} +GetObjectConfiguration()
{method} +SetObjectConfiguration()
{method} +Open()
{method} +Create()
{method} +GetAllObjectData()
{method} +GetObjectExternalInterfaces()
{method} +SetApplicationBasePath()
{method} +GetConfigurationBasePath()
{method} +GetObjectConfigurationString()
{method} +SetObjectConfigurationString()
{method} +GetExternalInterfaceString()
{method} +GetConfigurationString()
{method} +ListConfigurations()
{method} +SetConfigurationString()
{method} +GetObjectData()

}
"IApplicationConfiguration" <|.. "AppConfigMGI"
interface "IApplicationConfiguration" {}




@enduml

PlantUML version 1.2022.5(Sat Apr 30 10:55:52 GMT 2022)
(GPL source distribution)
Java Runtime: OpenJDK Runtime Environment
JVM: OpenJDK 64-Bit Server VM
Default Encoding: UTF-8
Language: en
Country: US
--></g></svg>