<?xml version="1.0" encoding="UTF-8" standalone="no"?><svg xmlns="http://www.w3.org/2000/svg" xmlns:xlink="http://www.w3.org/1999/xlink" contentStyleType="text/css" height="572px" preserveAspectRatio="none" style="width:253px;height:572px;background:#FFFFFF;" version="1.1" viewBox="0 0 253 572" width="253px" zoomAndPan="magnify"><defs/><g><!--MD5=[0b4e4b4980470ea387cc45de9bd14b5b]
class Application--><g id="elem_Application"><rect codeLine="8" fill="#FFFFFF" height="551.9978" id="Application" rx="2.5" ry="2.5" style="stroke:#555555;stroke-width:0.5;" width="232" x="7" y="7"/><rect fill="#808080" height="32" rx="2.5" ry="2.5" style="stroke:#808080;stroke-width:0.5;" width="232" x="7" y="7"/><rect fill="#808080" height="2.5" style="stroke:#808080;stroke-width:0.5;" width="232" x="7" y="36.5"/><rect codeLine="8" fill="none" height="551.9978" id="Application" rx="2.5" ry="2.5" style="stroke:#555555;stroke-width:0.5;" width="232" x="7" y="7"/><ellipse cx="84.75" cy="23" fill="#ADD1B2" rx="11" ry="11" style="stroke:#181818;stroke-width:1.0;"/><path d="M84.1094,26.7813 Q84.9063,26.7813 85.4688,26.5938 Q86.0469,26.3906 86.2813,26.1719 Q86.5313,25.9375 86.7656,25.75 Q87.0156,25.5469 87.2344,25.5469 Q87.5781,25.5469 87.8281,25.8125 Q88.0938,26.0625 88.0938,26.3906 Q88.0938,27.125 86.9219,27.8125 Q85.7656,28.4844 84.0625,28.4844 Q81.9063,28.4844 80.4844,27.2188 Q79.0625,25.9531 79.0625,24.0156 L79.0625,22.8906 Q79.0625,20.8594 80.3906,19.4844 Q81.7188,18.0938 83.6875,18.0938 Q84.875,18.0938 86.0938,18.6719 L86.2656,18.75 Q86.5625,18.3438 86.9844,18.3438 Q87.4688,18.3438 87.6406,18.6406 Q87.8281,18.9219 87.8281,19.4688 L87.8281,20.8906 Q87.8281,22.0156 86.9844,22.0156 Q86.6719,22.0156 86.4688,21.8438 Q86.2813,21.6719 86.2344,21.5313 Q86.2031,21.375 86.1563,21.1094 Q86.0469,20.5938 85.5313,20.2813 Q85.0156,19.9688 84.5625,19.8906 Q84.125,19.7969 83.75,19.7969 Q82.4688,19.7969 81.6094,20.6719 Q80.7656,21.5469 80.7656,22.8906 L80.7656,23.9844 Q80.7656,25.2656 81.6719,26.0313 Q82.5781,26.7813 84.1094,26.7813 Z " fill="#000000"/><text fill="#000000" font-family="sans-serif" font-size="14" lengthAdjust="spacing" textLength="68" x="105.25" y="28.6">Application</text><line style="stroke:#555555;stroke-width:0.5;" x1="8" x2="238" y1="39" y2="39"/><rect fill="none" height="6" style="stroke:#C82930;stroke-width:1.0;" width="6" x="15" y="47"/><text fill="#000000" font-family="sans-serif" font-size="14" lengthAdjust="spacing" textLength="59" x="27" y="56.9999">Ref : U32</text><line style="stroke:#555555;stroke-width:0.5;" x1="8" x2="238" y1="63.7999" y2="63.7999"/><polygon fill="#FFFF44" points="18,69.7999,22,73.7999,18,77.7999,14,73.7999" style="stroke:#B38D22;stroke-width:1.0;"/><text fill="#000000" font-family="sans-serif" font-size="14" lengthAdjust="spacing" text-decoration="underline" textLength="162" x="27" y="81.7999">GetApplicationReference()</text><polygon fill="#FFFF44" points="18,86.5999,22,90.5999,18,94.5999,14,90.5999" style="stroke:#B38D22;stroke-width:1.0;"/><text fill="#000000" font-family="sans-serif" font-size="14" lengthAdjust="spacing" text-decoration="underline" textLength="161" x="27" y="98.5998">Application_GetInstance()</text><polygon fill="#FFFF44" points="18,103.3998,22,107.3998,18,111.3998,14,107.3998" style="stroke:#B38D22;stroke-width:1.0;"/><text fill="#000000" font-family="sans-serif" font-size="14" lengthAdjust="spacing" text-decoration="underline" textLength="158" x="27" y="115.3997">RouteExternalInterfaces()</text><polygon fill="#FFFF44" points="18,120.1997,22,124.1997,18,128.1997,14,124.1997" style="stroke:#B38D22;stroke-width:1.0;"/><text fill="#000000" font-family="sans-serif" font-size="14" lengthAdjust="spacing" text-decoration="underline" textLength="113" x="27" y="132.1996">Application_New()</text><polygon fill="#FFFF44" points="18,136.9996,22,140.9996,18,144.9996,14,140.9996" style="stroke:#B38D22;stroke-width:1.0;"/><text fill="#000000" font-family="sans-serif" font-size="14" lengthAdjust="spacing" text-decoration="underline" textLength="167" x="27" y="148.9996">Application_GetAttributes()</text><ellipse cx="18" cy="158.7996" fill="#84BE84" rx="3" ry="3" style="stroke:#038048;stroke-width:1.0;"/><text fill="#000000" font-family="sans-serif" font-size="14" lengthAdjust="spacing" text-decoration="underline" textLength="105" x="27" y="165.7995">Application_Init()</text><ellipse cx="18" cy="175.5995" fill="#84BE84" rx="3" ry="3" style="stroke:#038048;stroke-width:1.0;"/><text fill="#000000" font-family="sans-serif" font-size="14" lengthAdjust="spacing" text-decoration="underline" textLength="140" x="27" y="182.5994">Application_CleanUp()</text><ellipse cx="18" cy="192.3994" fill="#84BE84" rx="3" ry="3" style="stroke:#038048;stroke-width:1.0;"/><text fill="#000000" font-family="sans-serif" font-size="14" lengthAdjust="spacing" text-decoration="underline" textLength="75" x="27" y="199.3994">AddObject()</text><ellipse cx="18" cy="209.1993" fill="#84BE84" rx="3" ry="3" style="stroke:#038048;stroke-width:1.0;"/><text fill="#000000" font-family="sans-serif" font-size="14" lengthAdjust="spacing" text-decoration="underline" textLength="167" x="27" y="216.1993">SetInterfaceConfiguration()</text><ellipse cx="18" cy="225.9993" fill="#84BE84" rx="3" ry="3" style="stroke:#038048;stroke-width:1.0;"/><text fill="#000000" font-family="sans-serif" font-size="14" lengthAdjust="spacing" text-decoration="underline" textLength="92" x="27" y="232.9992">GetBasePath()</text><ellipse cx="18" cy="242.7992" fill="#84BE84" rx="3" ry="3" style="stroke:#038048;stroke-width:1.0;"/><text fill="#000000" font-family="sans-serif" font-size="14" lengthAdjust="spacing" text-decoration="underline" textLength="174" x="27" y="249.7991">ObtainObjectsFromCluster()</text><ellipse cx="18" cy="259.5991" fill="#84BE84" rx="3" ry="3" style="stroke:#038048;stroke-width:1.0;"/><text fill="#000000" font-family="sans-serif" font-size="14" lengthAdjust="spacing" text-decoration="underline" textLength="152" x="27" y="266.5991">GetObjectFromMemory()</text><ellipse cx="18" cy="276.399" fill="#84BE84" rx="3" ry="3" style="stroke:#038048;stroke-width:1.0;"/><text fill="#000000" font-family="sans-serif" font-size="14" lengthAdjust="spacing" text-decoration="underline" textLength="91" x="27" y="283.399">CreateObject()</text><ellipse cx="18" cy="293.199" fill="#84BE84" rx="3" ry="3" style="stroke:#038048;stroke-width:1.0;"/><text fill="#000000" font-family="sans-serif" font-size="14" lengthAdjust="spacing" text-decoration="underline" textLength="92" x="27" y="300.1989">ObtainObject()</text><ellipse cx="18" cy="309.9989" fill="#84BE84" rx="3" ry="3" style="stroke:#038048;stroke-width:1.0;"/><text fill="#000000" font-family="sans-serif" font-size="14" lengthAdjust="spacing" text-decoration="underline" textLength="155" x="27" y="316.9988">GetObjectConfiguration()</text><ellipse cx="18" cy="326.7988" fill="#84BE84" rx="3" ry="3" style="stroke:#038048;stroke-width:1.0;"/><text fill="#000000" font-family="sans-serif" font-size="14" lengthAdjust="spacing" text-decoration="underline" textLength="147" x="27" y="333.7988">LoadAllPersistentData()</text><ellipse cx="18" cy="343.5988" fill="#84BE84" rx="3" ry="3" style="stroke:#038048;stroke-width:1.0;"/><text fill="#000000" font-family="sans-serif" font-size="14" lengthAdjust="spacing" text-decoration="underline" textLength="140" x="27" y="350.5987">GetAllObjectsOfType()</text><ellipse cx="18" cy="360.3987" fill="#84BE84" rx="3" ry="3" style="stroke:#038048;stroke-width:1.0;"/><text fill="#000000" font-family="sans-serif" font-size="14" lengthAdjust="spacing" text-decoration="underline" textLength="175" x="27" y="367.3986">GetConfigurationBasePath()</text><ellipse cx="18" cy="377.1986" fill="#84BE84" rx="3" ry="3" style="stroke:#038048;stroke-width:1.0;"/><text fill="#000000" font-family="sans-serif" font-size="14" lengthAdjust="spacing" text-decoration="underline" textLength="121" x="27" y="384.1985">GetExistingObject()</text><ellipse cx="18" cy="393.9985" fill="#84BE84" rx="3" ry="3" style="stroke:#038048;stroke-width:1.0;"/><text fill="#000000" font-family="sans-serif" font-size="14" lengthAdjust="spacing" text-decoration="underline" textLength="70" x="27" y="400.9985">SetObject()</text><ellipse cx="18" cy="410.7985" fill="#84BE84" rx="3" ry="3" style="stroke:#038048;stroke-width:1.0;"/><text fill="#000000" font-family="sans-serif" font-size="14" lengthAdjust="spacing" text-decoration="underline" textLength="72" x="27" y="417.7984">DestroyAll()</text><ellipse cx="18" cy="427.5984" fill="#84BE84" rx="3" ry="3" style="stroke:#038048;stroke-width:1.0;"/><text fill="#000000" font-family="sans-serif" font-size="14" lengthAdjust="spacing" text-decoration="underline" textLength="112" x="27" y="434.5983">PreloadObjects2()</text><ellipse cx="18" cy="444.3983" fill="#84BE84" rx="3" ry="3" style="stroke:#038048;stroke-width:1.0;"/><text fill="#000000" font-family="sans-serif" font-size="14" lengthAdjust="spacing" text-decoration="underline" textLength="98" x="27" y="451.3983">CreateObjects()</text><ellipse cx="18" cy="461.1982" fill="#84BE84" rx="3" ry="3" style="stroke:#038048;stroke-width:1.0;"/><text fill="#000000" font-family="sans-serif" font-size="14" lengthAdjust="spacing" text-decoration="underline" textLength="142" x="27" y="468.1982">SetExternalInterfaces()</text><ellipse cx="18" cy="477.9982" fill="#84BE84" rx="3" ry="3" style="stroke:#038048;stroke-width:1.0;"/><text fill="#000000" font-family="sans-serif" font-size="14" lengthAdjust="spacing" text-decoration="underline" textLength="135" x="27" y="484.9981">SetExternalInterface()</text><ellipse cx="18" cy="494.7981" fill="#84BE84" rx="3" ry="3" style="stroke:#038048;stroke-width:1.0;"/><text fill="#000000" font-family="sans-serif" font-size="14" lengthAdjust="spacing" text-decoration="underline" textLength="147" x="27" y="501.798">SaveAllPersistentData()</text><ellipse cx="18" cy="511.598" fill="#84BE84" rx="3" ry="3" style="stroke:#038048;stroke-width:1.0;"/><text fill="#000000" font-family="sans-serif" font-size="14" lengthAdjust="spacing" text-decoration="underline" textLength="119" x="27" y="518.598">GetClassLocation()</text><polygon fill="#FFFF44" points="18,523.3979,22,527.3979,18,531.3979,14,527.3979" style="stroke:#B38D22;stroke-width:1.0;"/><text fill="#000000" font-family="sans-serif" font-size="14" lengthAdjust="spacing" textLength="206" x="27" y="535.3979">Do_SetApplicationConfiguration()</text><polygon fill="#FFFF44" points="18,540.1979,22,544.1979,18,548.1979,14,544.1979" style="stroke:#B38D22;stroke-width:1.0;"/><text fill="#000000" font-family="sans-serif" font-size="14" lengthAdjust="spacing" textLength="180" x="27" y="552.1978">Do_GetObjectConfiguration()</text></g><!--MD5=[eb57b8b1f23a348f871478af2fa2d13e]
@startuml
set namespaceSeparator :
skinparam ClassBackgroundColor #FFFFFF
skinparam ClassBorderColor #555555
skinparam ClassFontColor #000000
skinparam ClassHeaderBackgroundColor #808080

skinparam top to bottom direction
class "Application" {
{field} -Ref : U32
{static} {method} #GetApplicationReference()
{static} {method} #Application_GetInstance()
{static} {method} #RouteExternalInterfaces()
{static} {method} #Application_New()
{static} {method} #Application_GetAttributes()
{static} {method} +Application_Init()
{static} {method} +Application_CleanUp()
{static} {method} +AddObject()
{static} {method} +SetInterfaceConfiguration()
{static} {method} +GetBasePath()
{static} {method} +ObtainObjectsFromCluster()
{static} {method} +GetObjectFromMemory()
{static} {method} +CreateObject()
{static} {method} +ObtainObject()
{static} {method} +GetObjectConfiguration()
{static} {method} +LoadAllPersistentData()
{static} {method} +GetAllObjectsOfType()
{static} {method} +GetConfigurationBasePath()
{static} {method} +GetExistingObject()
{static} {method} +SetObject()
{static} {method} +DestroyAll()
{static} {method} +PreloadObjects2()
{static} {method} +CreateObjects()
{static} {method} +SetExternalInterfaces()
{static} {method} +SetExternalInterface()
{static} {method} +SaveAllPersistentData()
{static} {method} +GetClassLocation()
{method} #Do_SetApplicationConfiguration()
{method} #Do_GetObjectConfiguration()

}



@enduml

PlantUML version 1.2022.5(Sat Apr 30 10:55:52 GMT 2022)
(GPL source distribution)
Java Runtime: OpenJDK Runtime Environment
JVM: OpenJDK 64-Bit Server VM
Default Encoding: UTF-8
Language: en
Country: US
--></g></svg>