<?xml version="1.0" encoding="UTF-8" standalone="no"?><svg xmlns="http://www.w3.org/2000/svg" xmlns:xlink="http://www.w3.org/1999/xlink" contentStyleType="text/css" height="430px" preserveAspectRatio="none" style="width:332px;height:430px;background:#FFFFFF;" version="1.1" viewBox="0 0 332 430" width="332px" zoomAndPan="magnify"><defs/><g><!--MD5=[49827e1bab8626e5ec2fb4ad52723fa5]
class IApplicationConfiguration--><g id="elem_IApplicationConfiguration"><rect codeLine="8" fill="#FFFFFF" height="308.75" id="IApplicationConfiguration" rx="2.5" ry="2.5" style="stroke:#555555;stroke-width:0.5;" width="318" x="7" y="115"/><rect fill="#808080" height="32" rx="2.5" ry="2.5" style="stroke:#808080;stroke-width:0.5;" width="318" x="7" y="115"/><rect fill="#808080" height="2.5" style="stroke:#808080;stroke-width:0.5;" width="318" x="7" y="144.5"/><rect codeLine="8" fill="none" height="308.75" id="IApplicationConfiguration" rx="2.5" ry="2.5" style="stroke:#555555;stroke-width:0.5;" width="318" x="7" y="115"/><ellipse cx="75.75" cy="131" fill="#B4A7E5" rx="11" ry="11" style="stroke:#181818;stroke-width:1.0;"/><path d="M71.6719,126.7656 L71.6719,124.6094 L79.0625,124.6094 L79.0625,126.7656 L76.5938,126.7656 L76.5938,134.8438 L79.0625,134.8438 L79.0625,137 L71.6719,137 L71.6719,134.8438 L74.1406,134.8438 L74.1406,126.7656 L71.6719,126.7656 Z " fill="#000000"/><text fill="#000000" font-family="sans-serif" font-size="14" font-style="italic" lengthAdjust="spacing" textLength="172" x="96.25" y="135.8467">IApplicationConfiguration</text><line style="stroke:#555555;stroke-width:0.5;" x1="8" x2="324" y1="147" y2="147"/><line style="stroke:#555555;stroke-width:0.5;" x1="8" x2="324" y1="155" y2="155"/><ellipse cx="18" cy="168.6484" fill="#84BE84" rx="3" ry="3" style="stroke:#038048;stroke-width:1.0;"/><text fill="#000000" font-family="sans-serif" font-size="14" lengthAdjust="spacing" text-decoration="underline" textLength="292" x="27" y="171.9951">ApplicationConfigurationName --constant()</text><ellipse cx="18" cy="184.9453" fill="#84BE84" rx="3" ry="3" style="stroke:#038048;stroke-width:1.0;"/><text fill="#000000" font-family="sans-serif" font-size="14" lengthAdjust="spacing" textLength="56" x="27" y="188.292">Create()</text><ellipse cx="18" cy="201.2422" fill="#84BE84" rx="3" ry="3" style="stroke:#038048;stroke-width:1.0;"/><text fill="#000000" font-family="sans-serif" font-size="14" lengthAdjust="spacing" textLength="172" x="27" y="204.5889">GetObjectConfiguration()</text><ellipse cx="18" cy="217.5391" fill="#84BE84" rx="3" ry="3" style="stroke:#038048;stroke-width:1.0;"/><text fill="#000000" font-family="sans-serif" font-size="14" lengthAdjust="spacing" textLength="212" x="27" y="220.8857">GetObjectConfigurationString()</text><ellipse cx="18" cy="233.8359" fill="#84BE84" rx="3" ry="3" style="stroke:#038048;stroke-width:1.0;"/><text fill="#000000" font-family="sans-serif" font-size="14" lengthAdjust="spacing" textLength="170" x="27" y="237.1826">SetObjectConfiguration()</text><ellipse cx="18" cy="250.1328" fill="#84BE84" rx="3" ry="3" style="stroke:#038048;stroke-width:1.0;"/><text fill="#000000" font-family="sans-serif" font-size="14" lengthAdjust="spacing" textLength="210" x="27" y="253.4795">SetObjectConfigurationString()</text><ellipse cx="18" cy="266.4297" fill="#84BE84" rx="3" ry="3" style="stroke:#038048;stroke-width:1.0;"/><text fill="#000000" font-family="sans-serif" font-size="14" lengthAdjust="spacing" textLength="127" x="27" y="269.7764">GetAllObjectData()</text><ellipse cx="18" cy="282.7266" fill="#84BE84" rx="3" ry="3" style="stroke:#038048;stroke-width:1.0;"/><text fill="#000000" font-family="sans-serif" font-size="14" lengthAdjust="spacing" textLength="203" x="27" y="286.0732">GetObjectExternalInterfaces()</text><ellipse cx="18" cy="299.0234" fill="#84BE84" rx="3" ry="3" style="stroke:#038048;stroke-width:1.0;"/><text fill="#000000" font-family="sans-serif" font-size="14" lengthAdjust="spacing" textLength="48" x="27" y="302.3701">Open()</text><ellipse cx="18" cy="315.3203" fill="#84BE84" rx="3" ry="3" style="stroke:#038048;stroke-width:1.0;"/><text fill="#000000" font-family="sans-serif" font-size="14" lengthAdjust="spacing" textLength="174" x="27" y="318.667">SetApplicationBasePath()</text><ellipse cx="18" cy="331.6172" fill="#84BE84" rx="3" ry="3" style="stroke:#038048;stroke-width:1.0;"/><text fill="#000000" font-family="sans-serif" font-size="14" lengthAdjust="spacing" textLength="193" x="27" y="334.9639">GetConfigurationBasePath()</text><ellipse cx="18" cy="347.9141" fill="#84BE84" rx="3" ry="3" style="stroke:#038048;stroke-width:1.0;"/><text fill="#000000" font-family="sans-serif" font-size="14" lengthAdjust="spacing" textLength="190" x="27" y="351.2607">GetExternalInterfaceString()</text><ellipse cx="18" cy="364.2109" fill="#84BE84" rx="3" ry="3" style="stroke:#038048;stroke-width:1.0;"/><text fill="#000000" font-family="sans-serif" font-size="14" lengthAdjust="spacing" textLength="133" x="27" y="367.5576">ListConfigurations()</text><ellipse cx="18" cy="380.5078" fill="#84BE84" rx="3" ry="3" style="stroke:#038048;stroke-width:1.0;"/><text fill="#000000" font-family="sans-serif" font-size="14" lengthAdjust="spacing" textLength="167" x="27" y="383.8545">GetConfigurationString()</text><ellipse cx="18" cy="396.8047" fill="#84BE84" rx="3" ry="3" style="stroke:#038048;stroke-width:1.0;"/><text fill="#000000" font-family="sans-serif" font-size="14" lengthAdjust="spacing" textLength="165" x="27" y="400.1514">SetConfigurationString()</text><ellipse cx="18" cy="413.1016" fill="#84BE84" rx="3" ry="3" style="stroke:#038048;stroke-width:1.0;"/><text fill="#000000" font-family="sans-serif" font-size="14" lengthAdjust="spacing" textLength="112" x="27" y="416.4482">GetObjectData()</text></g><!--MD5=[065ef51c0b83ac26c2e8b4ca504d0938]
class IInterface--><g id="elem_IInterface"><rect codeLine="28" fill="#FFFFFF" height="48" id="IInterface" rx="2.5" ry="2.5" style="stroke:#555555;stroke-width:0.5;" width="97" x="117.5" y="7"/><rect fill="#808080" height="32" rx="2.5" ry="2.5" style="stroke:#808080;stroke-width:0.5;" width="97" x="117.5" y="7"/><rect fill="#808080" height="2.5" style="stroke:#808080;stroke-width:0.5;" width="97" x="117.5" y="36.5"/><rect codeLine="28" fill="none" height="48" id="IInterface" rx="2.5" ry="2.5" style="stroke:#555555;stroke-width:0.5;" width="97" x="117.5" y="7"/><ellipse cx="132.5" cy="23" fill="#B4A7E5" rx="11" ry="11" style="stroke:#181818;stroke-width:1.0;"/><path d="M128.4219,18.7656 L128.4219,16.6094 L135.8125,16.6094 L135.8125,18.7656 L133.3438,18.7656 L133.3438,26.8438 L135.8125,26.8438 L135.8125,29 L128.4219,29 L128.4219,26.8438 L130.8906,26.8438 L130.8906,18.7656 L128.4219,18.7656 Z " fill="#000000"/><text fill="#000000" font-family="sans-serif" font-size="14" font-style="italic" lengthAdjust="spacing" textLength="65" x="146.5" y="27.8467">IInterface</text><line style="stroke:#555555;stroke-width:0.5;" x1="118.5" x2="213.5" y1="39" y2="39"/><line style="stroke:#555555;stroke-width:0.5;" x1="118.5" x2="213.5" y1="47" y2="47"/></g><!--MD5=[895d397dfa1ae4d5857552bb76866b2e]
reverse link IInterface to IApplicationConfiguration--><g id="link_IInterface_IApplicationConfiguration"><path codeLine="27" d="M166,75.44 C166,87.22 166,100.68 166,114.89 " fill="none" id="IInterface-backto-IApplicationConfiguration" style="stroke:#181818;stroke-width:1.0;stroke-dasharray:7.0,7.0;"/><polygon fill="none" points="159,75.11,166,55.11,173,75.11,159,75.11" style="stroke:#181818;stroke-width:1.0;"/></g><!--MD5=[5a8fd77bea55d94e8373e4b97f5f2bad]
@startuml
set namespaceSeparator :
skinparam ClassBackgroundColor #FFFFFF
skinparam ClassBorderColor #555555
skinparam ClassFontColor #000000
skinparam ClassHeaderBackgroundColor #808080

skinparam top to bottom direction
interface "IApplicationConfiguration" {
{static} {method} +ApplicationConfigurationName - -constant()
{method} +Create()
{method} +GetObjectConfiguration()
{method} +GetObjectConfigurationString()
{method} +SetObjectConfiguration()
{method} +SetObjectConfigurationString()
{method} +GetAllObjectData()
{method} +GetObjectExternalInterfaces()
{method} +Open()
{method} +SetApplicationBasePath()
{method} +GetConfigurationBasePath()
{method} +GetExternalInterfaceString()
{method} +ListConfigurations()
{method} +GetConfigurationString()
{method} +SetConfigurationString()
{method} +GetObjectData()

}
"IInterface" <|.. "IApplicationConfiguration"
interface "IInterface" {}




@enduml

PlantUML version 1.2022.12(Sun Oct 23 18:12:26 GMT 2022)
(GPL source distribution)
Java Runtime: OpenJDK Runtime Environment
JVM: OpenJDK 64-Bit Server VM
Default Encoding: UTF-8
Language: en
Country: US
--></g></svg>