<?xml version="1.0" encoding="UTF-8" standalone="no"?><svg xmlns="http://www.w3.org/2000/svg" xmlns:xlink="http://www.w3.org/1999/xlink" contentStyleType="text/css" height="682px" preserveAspectRatio="none" style="width:3273px;height:682px;background:#FFFFFF;" version="1.1" viewBox="0 0 3273 682" width="3273px" zoomAndPan="magnify"><defs/><g><!--MD5=[7527e2d4fb4cfcf2665acf62b5b5e47b]
class MasterGUI--><g id="elem_MasterGUI"><rect codeLine="6" fill="#FFFFFF" height="186.6406" id="MasterGUI" rx="2.5" ry="2.5" style="stroke:#555555;stroke-width:0.5;" width="588" x="1665" y="7"/><rect fill="#808080" height="40.2656" rx="2.5" ry="2.5" style="stroke:#808080;stroke-width:0.5;" width="588" x="1665" y="7"/><rect fill="#808080" height="2.5" style="stroke:#808080;stroke-width:0.5;" width="588" x="1665" y="44.7656"/><rect codeLine="6" fill="none" height="186.6406" id="MasterGUI" rx="2.5" ry="2.5" style="stroke:#555555;stroke-width:0.5;" width="588" x="1665" y="7"/><ellipse cx="1873.75" cy="27.1328" fill="#ADD1B2" rx="11" ry="11" style="stroke:#181818;stroke-width:1.0;"/><path d="M1876.7188,32.7734 Q1876.1406,33.0703 1875.5,33.2109 Q1874.8594,33.3672 1874.1563,33.3672 Q1871.6563,33.3672 1870.3281,31.7266 Q1869.0156,30.0703 1869.0156,26.9453 Q1869.0156,23.8203 1870.3281,22.1641 Q1871.6563,20.5078 1874.1563,20.5078 Q1874.8594,20.5078 1875.5,20.6641 Q1876.1563,20.8203 1876.7188,21.1172 L1876.7188,23.8359 Q1876.0938,23.2578 1875.5,22.9922 Q1874.9063,22.7109 1874.2813,22.7109 Q1872.9375,22.7109 1872.25,23.7891 Q1871.5625,24.8516 1871.5625,26.9453 Q1871.5625,29.0391 1872.25,30.1172 Q1872.9375,31.1797 1874.2813,31.1797 Q1874.9063,31.1797 1875.5,30.9141 Q1876.0938,30.6328 1876.7188,30.0547 L1876.7188,32.7734 Z " fill="#000000"/><text fill="#000000" font-family="sans-serif" font-size="12" font-style="italic" lengthAdjust="spacing" textLength="166" x="1892.25" y="23.1387">«DemoApplication.lvclass »</text><text fill="#000000" font-family="sans-serif" font-size="14" lengthAdjust="spacing" textLength="71" x="1939.75" y="38.9639">MasterGUI</text><line style="stroke:#555555;stroke-width:0.5;" x1="1666" x2="2252" y1="47.2656" y2="47.2656"/><line style="stroke:#555555;stroke-width:0.5;" x1="1666" x2="2252" y1="55.2656" y2="55.2656"/><text fill="#000000" font-family="sans-serif" font-size="14" lengthAdjust="spacing" textLength="329" x="1671" y="72.2607">(IAuthorization.lvclass) Authorizer: UserManager</text><text fill="#000000" font-family="sans-serif" font-size="14" lengthAdjust="spacing" textLength="329" x="1671" y="88.5576">(ITAFTextViewer.lvclass) TextViewer: TextViewer</text><text fill="#000000" font-family="sans-serif" font-size="14" lengthAdjust="spacing" textLength="576" x="1671" y="104.8545">(IApplicationConfiguration.lvclass) ApplicationConfiguration: ApplicationConfiguration</text><text fill="#000000" font-family="sans-serif" font-size="14" lengthAdjust="spacing" textLength="237" x="1671" y="121.1514">(IFrontPanel.lvclass) Tracer: Tracer</text><text fill="#000000" font-family="sans-serif" font-size="14" lengthAdjust="spacing" textLength="249" x="1671" y="137.4482">(IFrontPanel.lvclass) Header: Header</text><text fill="#000000" font-family="sans-serif" font-size="14" lengthAdjust="spacing" textLength="289" x="1671" y="153.7451">(IFrontPanel.lvclass) ButtonBar: ButtonBar</text><text fill="#000000" font-family="sans-serif" font-size="14" lengthAdjust="spacing" textLength="239" x="1671" y="170.042">(IFrontPanel.lvclass) Footer: Footer</text><text fill="#000000" font-family="sans-serif" font-size="14" lengthAdjust="spacing" textLength="343" x="1671" y="186.3389">(IFrontPanel.lvclass) MainFlexPanel: MainFlexPanel</text></g><!--MD5=[066887e9a9db029f91194ad59ec3fda3]
class TextViewer--><g id="elem_TextViewer"><rect codeLine="7" fill="#FFFFFF" height="72.5625" id="TextViewer" rx="2.5" ry="2.5" style="stroke:#555555;stroke-width:0.5;" width="588" x="315" y="279"/><rect fill="#808080" height="40.2656" rx="2.5" ry="2.5" style="stroke:#808080;stroke-width:0.5;" width="588" x="315" y="279"/><rect fill="#808080" height="2.5" style="stroke:#808080;stroke-width:0.5;" width="588" x="315" y="316.7656"/><rect codeLine="7" fill="none" height="72.5625" id="TextViewer" rx="2.5" ry="2.5" style="stroke:#555555;stroke-width:0.5;" width="588" x="315" y="279"/><ellipse cx="527.25" cy="299.1328" fill="#ADD1B2" rx="11" ry="11" style="stroke:#181818;stroke-width:1.0;"/><path d="M530.2188,304.7734 Q529.6406,305.0703 529,305.2109 Q528.3594,305.3672 527.6563,305.3672 Q525.1563,305.3672 523.8281,303.7266 Q522.5156,302.0703 522.5156,298.9453 Q522.5156,295.8203 523.8281,294.1641 Q525.1563,292.5078 527.6563,292.5078 Q528.3594,292.5078 529,292.6641 Q529.6563,292.8203 530.2188,293.1172 L530.2188,295.8359 Q529.5938,295.2578 529,294.9922 Q528.4063,294.7109 527.7813,294.7109 Q526.4375,294.7109 525.75,295.7891 Q525.0625,296.8516 525.0625,298.9453 Q525.0625,301.0391 525.75,302.1172 Q526.4375,303.1797 527.7813,303.1797 Q528.4063,303.1797 529,302.9141 Q529.5938,302.6328 530.2188,302.0547 L530.2188,304.7734 Z " fill="#000000"/><text fill="#000000" font-family="sans-serif" font-size="12" font-style="italic" lengthAdjust="spacing" textLength="159" x="545.75" y="295.1387">«JSONTextViewer.lvclass »</text><text fill="#000000" font-family="sans-serif" font-size="14" lengthAdjust="spacing" textLength="76" x="587.25" y="310.9639">TextViewer</text><line style="stroke:#555555;stroke-width:0.5;" x1="316" x2="902" y1="319.2656" y2="319.2656"/><line style="stroke:#555555;stroke-width:0.5;" x1="316" x2="902" y1="327.2656" y2="327.2656"/><text fill="#000000" font-family="sans-serif" font-size="14" lengthAdjust="spacing" textLength="576" x="321" y="344.2607">(IApplicationConfiguration.lvclass) ApplicationConfiguration: ApplicationConfiguration</text></g><!--MD5=[608582b56bf83e5d0d0613bf4260ff1a]
class ApplicationConfiguration--><g id="elem_ApplicationConfiguration"><rect codeLine="8" fill="#FFFFFF" height="56.2656" id="ApplicationConfiguration" rx="2.5" ry="2.5" style="stroke:#555555;stroke-width:0.5;" width="199" x="725.5" y="445.5"/><rect fill="#808080" height="40.2656" rx="2.5" ry="2.5" style="stroke:#808080;stroke-width:0.5;" width="199" x="725.5" y="445.5"/><rect fill="#808080" height="2.5" style="stroke:#808080;stroke-width:0.5;" width="199" x="725.5" y="483.2656"/><rect codeLine="8" fill="none" height="56.2656" id="ApplicationConfiguration" rx="2.5" ry="2.5" style="stroke:#555555;stroke-width:0.5;" width="199" x="725.5" y="445.5"/><ellipse cx="740.5" cy="465.6328" fill="#ADD1B2" rx="11" ry="11" style="stroke:#181818;stroke-width:1.0;"/><path d="M743.4688,471.2734 Q742.8906,471.5703 742.25,471.7109 Q741.6094,471.8672 740.9063,471.8672 Q738.4063,471.8672 737.0781,470.2266 Q735.7656,468.5703 735.7656,465.4453 Q735.7656,462.3203 737.0781,460.6641 Q738.4063,459.0078 740.9063,459.0078 Q741.6094,459.0078 742.25,459.1641 Q742.9063,459.3203 743.4688,459.6172 L743.4688,462.3359 Q742.8438,461.7578 742.25,461.4922 Q741.6563,461.2109 741.0313,461.2109 Q739.6875,461.2109 739,462.2891 Q738.3125,463.3516 738.3125,465.4453 Q738.3125,467.5391 739,468.6172 Q739.6875,469.6797 741.0313,469.6797 Q741.6563,469.6797 742.25,469.4141 Q742.8438,469.1328 743.4688,468.5547 L743.4688,471.2734 Z " fill="#000000"/><text fill="#000000" font-family="sans-serif" font-size="12" font-style="italic" lengthAdjust="spacing" textLength="153" x="761.5" y="461.6387">«AppConfigJSON.lvclass »</text><text fill="#000000" font-family="sans-serif" font-size="14" lengthAdjust="spacing" textLength="167" x="754.5" y="477.4639">ApplicationConfiguration</text><line style="stroke:#555555;stroke-width:0.5;" x1="726.5" x2="923.5" y1="485.7656" y2="485.7656"/><line style="stroke:#555555;stroke-width:0.5;" x1="726.5" x2="923.5" y1="493.7656" y2="493.7656"/></g><!--MD5=[27402d7bbc98a32515322aa02d4a78ac]
class Tracer--><g id="elem_Tracer"><rect codeLine="9" fill="#FFFFFF" height="56.2656" id="Tracer" rx="2.5" ry="2.5" style="stroke:#555555;stroke-width:0.5;" width="173" x="1318.5" y="445.5"/><rect fill="#808080" height="40.2656" rx="2.5" ry="2.5" style="stroke:#808080;stroke-width:0.5;" width="173" x="1318.5" y="445.5"/><rect fill="#808080" height="2.5" style="stroke:#808080;stroke-width:0.5;" width="173" x="1318.5" y="483.2656"/><rect codeLine="9" fill="none" height="56.2656" id="Tracer" rx="2.5" ry="2.5" style="stroke:#555555;stroke-width:0.5;" width="173" x="1318.5" y="445.5"/><ellipse cx="1333.5" cy="465.6328" fill="#ADD1B2" rx="11" ry="11" style="stroke:#181818;stroke-width:1.0;"/><path d="M1336.4688,471.2734 Q1335.8906,471.5703 1335.25,471.7109 Q1334.6094,471.8672 1333.9063,471.8672 Q1331.4063,471.8672 1330.0781,470.2266 Q1328.7656,468.5703 1328.7656,465.4453 Q1328.7656,462.3203 1330.0781,460.6641 Q1331.4063,459.0078 1333.9063,459.0078 Q1334.6094,459.0078 1335.25,459.1641 Q1335.9063,459.3203 1336.4688,459.6172 L1336.4688,462.3359 Q1335.8438,461.7578 1335.25,461.4922 Q1334.6563,461.2109 1334.0313,461.2109 Q1332.6875,461.2109 1332,462.2891 Q1331.3125,463.3516 1331.3125,465.4453 Q1331.3125,467.5391 1332,468.6172 Q1332.6875,469.6797 1334.0313,469.6797 Q1334.6563,469.6797 1335.25,469.4141 Q1335.8438,469.1328 1336.4688,468.5547 L1336.4688,471.2734 Z " fill="#000000"/><text fill="#000000" font-family="sans-serif" font-size="12" font-style="italic" lengthAdjust="spacing" textLength="145" x="1345.5" y="461.6387">«TraceWindow.lvclass »</text><text fill="#000000" font-family="sans-serif" font-size="14" lengthAdjust="spacing" textLength="44" x="1396" y="477.4639">Tracer</text><line style="stroke:#555555;stroke-width:0.5;" x1="1319.5" x2="1490.5" y1="485.7656" y2="485.7656"/><line style="stroke:#555555;stroke-width:0.5;" x1="1319.5" x2="1490.5" y1="493.7656" y2="493.7656"/></g><!--MD5=[d10018d7374cb536a2ec2f77e731452b]
class Header--><g id="elem_Header"><rect codeLine="10" fill="#FFFFFF" height="56.2656" id="Header" rx="2.5" ry="2.5" style="stroke:#555555;stroke-width:0.5;" width="207" x="1403.5" y="287.5"/><rect fill="#808080" height="40.2656" rx="2.5" ry="2.5" style="stroke:#808080;stroke-width:0.5;" width="207" x="1403.5" y="287.5"/><rect fill="#808080" height="2.5" style="stroke:#808080;stroke-width:0.5;" width="207" x="1403.5" y="325.2656"/><rect codeLine="10" fill="none" height="56.2656" id="Header" rx="2.5" ry="2.5" style="stroke:#555555;stroke-width:0.5;" width="207" x="1403.5" y="287.5"/><ellipse cx="1418.5" cy="307.6328" fill="#ADD1B2" rx="11" ry="11" style="stroke:#181818;stroke-width:1.0;"/><path d="M1421.4688,313.2734 Q1420.8906,313.5703 1420.25,313.7109 Q1419.6094,313.8672 1418.9063,313.8672 Q1416.4063,313.8672 1415.0781,312.2266 Q1413.7656,310.5703 1413.7656,307.4453 Q1413.7656,304.3203 1415.0781,302.6641 Q1416.4063,301.0078 1418.9063,301.0078 Q1419.6094,301.0078 1420.25,301.1641 Q1420.9063,301.3203 1421.4688,301.6172 L1421.4688,304.3359 Q1420.8438,303.7578 1420.25,303.4922 Q1419.6563,303.2109 1419.0313,303.2109 Q1417.6875,303.2109 1417,304.2891 Q1416.3125,305.3516 1416.3125,307.4453 Q1416.3125,309.5391 1417,310.6172 Q1417.6875,311.6797 1419.0313,311.6797 Q1419.6563,311.6797 1420.25,311.4141 Q1420.8438,311.1328 1421.4688,310.5547 L1421.4688,313.2734 Z " fill="#000000"/><text fill="#000000" font-family="sans-serif" font-size="12" font-style="italic" lengthAdjust="spacing" textLength="179" x="1430.5" y="303.6387">«HeaderTriekselSoft.lvclass »</text><text fill="#000000" font-family="sans-serif" font-size="14" lengthAdjust="spacing" textLength="50" x="1495" y="319.4639">Header</text><line style="stroke:#555555;stroke-width:0.5;" x1="1404.5" x2="1609.5" y1="327.7656" y2="327.7656"/><line style="stroke:#555555;stroke-width:0.5;" x1="1404.5" x2="1609.5" y1="335.7656" y2="335.7656"/></g><!--MD5=[026c1e9a4dc23b57e6998280acb2cb32]
class Footer--><g id="elem_Footer"><rect codeLine="11" fill="#FFFFFF" height="72.5625" id="Footer" rx="2.5" ry="2.5" style="stroke:#555555;stroke-width:0.5;" width="340" x="1646" y="279"/><rect fill="#808080" height="40.2656" rx="2.5" ry="2.5" style="stroke:#808080;stroke-width:0.5;" width="340" x="1646" y="279"/><rect fill="#808080" height="2.5" style="stroke:#808080;stroke-width:0.5;" width="340" x="1646" y="316.7656"/><rect codeLine="11" fill="none" height="72.5625" id="Footer" rx="2.5" ry="2.5" style="stroke:#555555;stroke-width:0.5;" width="340" x="1646" y="279"/><ellipse cx="1751.75" cy="299.1328" fill="#ADD1B2" rx="11" ry="11" style="stroke:#181818;stroke-width:1.0;"/><path d="M1754.7188,304.7734 Q1754.1406,305.0703 1753.5,305.2109 Q1752.8594,305.3672 1752.1563,305.3672 Q1749.6563,305.3672 1748.3281,303.7266 Q1747.0156,302.0703 1747.0156,298.9453 Q1747.0156,295.8203 1748.3281,294.1641 Q1749.6563,292.5078 1752.1563,292.5078 Q1752.8594,292.5078 1753.5,292.6641 Q1754.1563,292.8203 1754.7188,293.1172 L1754.7188,295.8359 Q1754.0938,295.2578 1753.5,294.9922 Q1752.9063,294.7109 1752.2813,294.7109 Q1750.9375,294.7109 1750.25,295.7891 Q1749.5625,296.8516 1749.5625,298.9453 Q1749.5625,301.0391 1750.25,302.1172 Q1750.9375,303.1797 1752.2813,303.1797 Q1752.9063,303.1797 1753.5,302.9141 Q1754.0938,302.6328 1754.7188,302.0547 L1754.7188,304.7734 Z " fill="#000000"/><text fill="#000000" font-family="sans-serif" font-size="12" font-style="italic" lengthAdjust="spacing" textLength="124" x="1770.25" y="295.1387">«YAFFooter.lvclass »</text><text fill="#000000" font-family="sans-serif" font-size="14" lengthAdjust="spacing" textLength="45" x="1809.75" y="310.9639">Footer</text><line style="stroke:#555555;stroke-width:0.5;" x1="1647" x2="1985" y1="319.2656" y2="319.2656"/><line style="stroke:#555555;stroke-width:0.5;" x1="1647" x2="1985" y1="327.2656" y2="327.2656"/><text fill="#000000" font-family="sans-serif" font-size="14" lengthAdjust="spacing" textLength="328" x="1652" y="344.2607">(ITAFFilteredTrace.lvclass) TracerSource: Tracer</text></g><!--MD5=[8dce93eae1758de8afdf7359ccdb2a27]
class MainFlexPanel--><g id="elem_MainFlexPanel"><rect codeLine="12" fill="#FFFFFF" height="56.2656" id="MainFlexPanel" rx="2.5" ry="2.5" style="stroke:#555555;stroke-width:0.5;" width="193" x="2021.5" y="287.5"/><rect fill="#808080" height="40.2656" rx="2.5" ry="2.5" style="stroke:#808080;stroke-width:0.5;" width="193" x="2021.5" y="287.5"/><rect fill="#808080" height="2.5" style="stroke:#808080;stroke-width:0.5;" width="193" x="2021.5" y="325.2656"/><rect codeLine="12" fill="none" height="56.2656" id="MainFlexPanel" rx="2.5" ry="2.5" style="stroke:#555555;stroke-width:0.5;" width="193" x="2021.5" y="287.5"/><ellipse cx="2036.5" cy="307.6328" fill="#ADD1B2" rx="11" ry="11" style="stroke:#181818;stroke-width:1.0;"/><path d="M2039.4688,313.2734 Q2038.8906,313.5703 2038.25,313.7109 Q2037.6094,313.8672 2036.9063,313.8672 Q2034.4063,313.8672 2033.0781,312.2266 Q2031.7656,310.5703 2031.7656,307.4453 Q2031.7656,304.3203 2033.0781,302.6641 Q2034.4063,301.0078 2036.9063,301.0078 Q2037.6094,301.0078 2038.25,301.1641 Q2038.9063,301.3203 2039.4688,301.6172 L2039.4688,304.3359 Q2038.8438,303.7578 2038.25,303.4922 Q2037.6563,303.2109 2037.0313,303.2109 Q2035.6875,303.2109 2035,304.2891 Q2034.3125,305.3516 2034.3125,307.4453 Q2034.3125,309.5391 2035,310.6172 Q2035.6875,311.6797 2037.0313,311.6797 Q2037.6563,311.6797 2038.25,311.4141 Q2038.8438,311.1328 2039.4688,310.5547 L2039.4688,313.2734 Z " fill="#000000"/><text fill="#000000" font-family="sans-serif" font-size="12" font-style="italic" lengthAdjust="spacing" textLength="165" x="2048.5" y="303.6387">«FlexPanelDefault.lvclass »</text><text fill="#000000" font-family="sans-serif" font-size="14" lengthAdjust="spacing" textLength="97" x="2082.5" y="319.4639">MainFlexPanel</text><line style="stroke:#555555;stroke-width:0.5;" x1="2022.5" x2="2213.5" y1="327.7656" y2="327.7656"/><line style="stroke:#555555;stroke-width:0.5;" x1="2022.5" x2="2213.5" y1="335.7656" y2="335.7656"/></g><!--MD5=[3a7fe7319741571c6adbfde7d91eb3e2]
class ConfigurationManager--><g id="elem_ConfigurationManager"><rect codeLine="13" fill="#FFFFFF" height="56.2656" id="ConfigurationManager" rx="2.5" ry="2.5" style="stroke:#555555;stroke-width:0.5;" width="282" x="7" y="72.5"/><rect fill="#808080" height="40.2656" rx="2.5" ry="2.5" style="stroke:#808080;stroke-width:0.5;" width="282" x="7" y="72.5"/><rect fill="#808080" height="2.5" style="stroke:#808080;stroke-width:0.5;" width="282" x="7" y="110.2656"/><rect codeLine="13" fill="none" height="56.2656" id="ConfigurationManager" rx="2.5" ry="2.5" style="stroke:#555555;stroke-width:0.5;" width="282" x="7" y="72.5"/><ellipse cx="22" cy="92.6328" fill="#ADD1B2" rx="11" ry="11" style="stroke:#181818;stroke-width:1.0;"/><path d="M24.9688,98.2734 Q24.3906,98.5703 23.75,98.7109 Q23.1094,98.8672 22.4063,98.8672 Q19.9063,98.8672 18.5781,97.2266 Q17.2656,95.5703 17.2656,92.4453 Q17.2656,89.3203 18.5781,87.6641 Q19.9063,86.0078 22.4063,86.0078 Q23.1094,86.0078 23.75,86.1641 Q24.4063,86.3203 24.9688,86.6172 L24.9688,89.3359 Q24.3438,88.7578 23.75,88.4922 Q23.1563,88.2109 22.5313,88.2109 Q21.1875,88.2109 20.5,89.2891 Q19.8125,90.3516 19.8125,92.4453 Q19.8125,94.5391 20.5,95.6172 Q21.1875,96.6797 22.5313,96.6797 Q23.1563,96.6797 23.75,96.4141 Q24.3438,96.1328 24.9688,95.5547 L24.9688,98.2734 Z " fill="#000000"/><text fill="#000000" font-family="sans-serif" font-size="12" font-style="italic" lengthAdjust="spacing" textLength="254" x="34" y="88.6387">«Mockup_ConfigurationManager.lvclass »</text><text fill="#000000" font-family="sans-serif" font-size="14" lengthAdjust="spacing" textLength="152" x="85" y="104.4639">ConfigurationManager</text><line style="stroke:#555555;stroke-width:0.5;" x1="8" x2="288" y1="112.7656" y2="112.7656"/><line style="stroke:#555555;stroke-width:0.5;" x1="8" x2="288" y1="120.7656" y2="120.7656"/></g><!--MD5=[01993cc43916f5a3f54b6fd30b7d99f4]
class ServiceScreen--><g id="elem_ServiceScreen"><rect codeLine="14" fill="#FFFFFF" height="56.2656" id="ServiceScreen" rx="2.5" ry="2.5" style="stroke:#555555;stroke-width:0.5;" width="232" x="324" y="72.5"/><rect fill="#808080" height="40.2656" rx="2.5" ry="2.5" style="stroke:#808080;stroke-width:0.5;" width="232" x="324" y="72.5"/><rect fill="#808080" height="2.5" style="stroke:#808080;stroke-width:0.5;" width="232" x="324" y="110.2656"/><rect codeLine="14" fill="none" height="56.2656" id="ServiceScreen" rx="2.5" ry="2.5" style="stroke:#555555;stroke-width:0.5;" width="232" x="324" y="72.5"/><ellipse cx="339" cy="92.6328" fill="#ADD1B2" rx="11" ry="11" style="stroke:#181818;stroke-width:1.0;"/><path d="M341.9688,98.2734 Q341.3906,98.5703 340.75,98.7109 Q340.1094,98.8672 339.4063,98.8672 Q336.9063,98.8672 335.5781,97.2266 Q334.2656,95.5703 334.2656,92.4453 Q334.2656,89.3203 335.5781,87.6641 Q336.9063,86.0078 339.4063,86.0078 Q340.1094,86.0078 340.75,86.1641 Q341.4063,86.3203 341.9688,86.6172 L341.9688,89.3359 Q341.3438,88.7578 340.75,88.4922 Q340.1563,88.2109 339.5313,88.2109 Q338.1875,88.2109 337.5,89.2891 Q336.8125,90.3516 336.8125,92.4453 Q336.8125,94.5391 337.5,95.6172 Q338.1875,96.6797 339.5313,96.6797 Q340.1563,96.6797 340.75,96.4141 Q341.3438,96.1328 341.9688,95.5547 L341.9688,98.2734 Z " fill="#000000"/><text fill="#000000" font-family="sans-serif" font-size="12" font-style="italic" lengthAdjust="spacing" textLength="204" x="351" y="88.6387">«Mockup_ServiceScreen.lvclass »</text><text fill="#000000" font-family="sans-serif" font-size="14" lengthAdjust="spacing" textLength="99" x="403.5" y="104.4639">ServiceScreen</text><line style="stroke:#555555;stroke-width:0.5;" x1="325" x2="555" y1="112.7656" y2="112.7656"/><line style="stroke:#555555;stroke-width:0.5;" x1="325" x2="555" y1="120.7656" y2="120.7656"/></g><!--MD5=[a681158eab16f7d552fd48601c9b3cde]
class QualificationScreen--><g id="elem_QualificationScreen"><rect codeLine="15" fill="#FFFFFF" height="56.2656" id="QualificationScreen" rx="2.5" ry="2.5" style="stroke:#555555;stroke-width:0.5;" width="263" x="16.5" y="287.5"/><rect fill="#808080" height="40.2656" rx="2.5" ry="2.5" style="stroke:#808080;stroke-width:0.5;" width="263" x="16.5" y="287.5"/><rect fill="#808080" height="2.5" style="stroke:#808080;stroke-width:0.5;" width="263" x="16.5" y="325.2656"/><rect codeLine="15" fill="none" height="56.2656" id="QualificationScreen" rx="2.5" ry="2.5" style="stroke:#555555;stroke-width:0.5;" width="263" x="16.5" y="287.5"/><ellipse cx="31.5" cy="307.6328" fill="#ADD1B2" rx="11" ry="11" style="stroke:#181818;stroke-width:1.0;"/><path d="M34.4688,313.2734 Q33.8906,313.5703 33.25,313.7109 Q32.6094,313.8672 31.9063,313.8672 Q29.4063,313.8672 28.0781,312.2266 Q26.7656,310.5703 26.7656,307.4453 Q26.7656,304.3203 28.0781,302.6641 Q29.4063,301.0078 31.9063,301.0078 Q32.6094,301.0078 33.25,301.1641 Q33.9063,301.3203 34.4688,301.6172 L34.4688,304.3359 Q33.8438,303.7578 33.25,303.4922 Q32.6563,303.2109 32.0313,303.2109 Q30.6875,303.2109 30,304.2891 Q29.3125,305.3516 29.3125,307.4453 Q29.3125,309.5391 30,310.6172 Q30.6875,311.6797 32.0313,311.6797 Q32.6563,311.6797 33.25,311.4141 Q33.8438,311.1328 34.4688,310.5547 L34.4688,313.2734 Z " fill="#000000"/><text fill="#000000" font-family="sans-serif" font-size="12" font-style="italic" lengthAdjust="spacing" textLength="235" x="43.5" y="303.6387">«Mockup_QualificationScreen.lvclass »</text><text fill="#000000" font-family="sans-serif" font-size="14" lengthAdjust="spacing" textLength="132" x="95" y="319.4639">QualificationScreen</text><line style="stroke:#555555;stroke-width:0.5;" x1="17.5" x2="278.5" y1="327.7656" y2="327.7656"/><line style="stroke:#555555;stroke-width:0.5;" x1="17.5" x2="278.5" y1="335.7656" y2="335.7656"/></g><!--MD5=[7dc18af08e77829cf2d2ff0c94391220]
class ButtonBar--><g id="elem_ButtonBar"><rect codeLine="16" fill="#FFFFFF" height="88.8594" id="ButtonBar" rx="2.5" ry="2.5" style="stroke:#555555;stroke-width:0.5;" width="341" x="2249.5" y="271"/><rect fill="#808080" height="40.2656" rx="2.5" ry="2.5" style="stroke:#808080;stroke-width:0.5;" width="341" x="2249.5" y="271"/><rect fill="#808080" height="2.5" style="stroke:#808080;stroke-width:0.5;" width="341" x="2249.5" y="308.7656"/><rect codeLine="16" fill="none" height="88.8594" id="ButtonBar" rx="2.5" ry="2.5" style="stroke:#555555;stroke-width:0.5;" width="341" x="2249.5" y="271"/><ellipse cx="2332.25" cy="291.1328" fill="#ADD1B2" rx="11" ry="11" style="stroke:#181818;stroke-width:1.0;"/><path d="M2335.2188,296.7734 Q2334.6406,297.0703 2334,297.2109 Q2333.3594,297.3672 2332.6563,297.3672 Q2330.1563,297.3672 2328.8281,295.7266 Q2327.5156,294.0703 2327.5156,290.9453 Q2327.5156,287.8203 2328.8281,286.1641 Q2330.1563,284.5078 2332.6563,284.5078 Q2333.3594,284.5078 2334,284.6641 Q2334.6563,284.8203 2335.2188,285.1172 L2335.2188,287.8359 Q2334.5938,287.2578 2334,286.9922 Q2333.4063,286.7109 2332.7813,286.7109 Q2331.4375,286.7109 2330.75,287.7891 Q2330.0625,288.8516 2330.0625,290.9453 Q2330.0625,293.0391 2330.75,294.1172 Q2331.4375,295.1797 2332.7813,295.1797 Q2333.4063,295.1797 2334,294.9141 Q2334.5938,294.6328 2335.2188,294.0547 L2335.2188,296.7734 Z " fill="#000000"/><text fill="#000000" font-family="sans-serif" font-size="12" font-style="italic" lengthAdjust="spacing" textLength="171" x="2350.75" y="287.1387">«VerticalButtonBar.lvclass »</text><text fill="#000000" font-family="sans-serif" font-size="14" lengthAdjust="spacing" textLength="70" x="2401.25" y="302.9639">ButtonBar</text><line style="stroke:#555555;stroke-width:0.5;" x1="2250.5" x2="2589.5" y1="311.2656" y2="311.2656"/><line style="stroke:#555555;stroke-width:0.5;" x1="2250.5" x2="2589.5" y1="319.2656" y2="319.2656"/><text fill="#000000" font-family="sans-serif" font-size="14" lengthAdjust="spacing" textLength="269" x="2255.5" y="336.2607">(IDockGUI.lvclass) IDockGUI: MasterGUI</text><text fill="#000000" font-family="sans-serif" font-size="14" lengthAdjust="spacing" textLength="329" x="2255.5" y="352.5576">(IAuthorization.lvclass) Authorizer: UserManager</text></g><!--MD5=[24add822970012a00cd97a40cd79feff]
class UserManager--><g id="elem_UserManager"><rect codeLine="17" fill="#FFFFFF" height="72.5625" id="UserManager" rx="2.5" ry="2.5" style="stroke:#555555;stroke-width:0.5;" width="487" x="2363.5" y="437"/><rect fill="#808080" height="40.2656" rx="2.5" ry="2.5" style="stroke:#808080;stroke-width:0.5;" width="487" x="2363.5" y="437"/><rect fill="#808080" height="2.5" style="stroke:#808080;stroke-width:0.5;" width="487" x="2363.5" y="474.7656"/><rect codeLine="17" fill="none" height="72.5625" id="UserManager" rx="2.5" ry="2.5" style="stroke:#555555;stroke-width:0.5;" width="487" x="2363.5" y="437"/><ellipse cx="2532.75" cy="457.1328" fill="#ADD1B2" rx="11" ry="11" style="stroke:#181818;stroke-width:1.0;"/><path d="M2535.7188,462.7734 Q2535.1406,463.0703 2534.5,463.2109 Q2533.8594,463.3672 2533.1563,463.3672 Q2530.6563,463.3672 2529.3281,461.7266 Q2528.0156,460.0703 2528.0156,456.9453 Q2528.0156,453.8203 2529.3281,452.1641 Q2530.6563,450.5078 2533.1563,450.5078 Q2533.8594,450.5078 2534.5,450.6641 Q2535.1563,450.8203 2535.7188,451.1172 L2535.7188,453.8359 Q2535.0938,453.2578 2534.5,452.9922 Q2533.9063,452.7109 2533.2813,452.7109 Q2531.9375,452.7109 2531.25,453.7891 Q2530.5625,454.8516 2530.5625,456.9453 Q2530.5625,459.0391 2531.25,460.1172 Q2531.9375,461.1797 2533.2813,461.1797 Q2533.9063,461.1797 2534.5,460.9141 Q2535.0938,460.6328 2535.7188,460.0547 L2535.7188,462.7734 Z " fill="#000000"/><text fill="#000000" font-family="sans-serif" font-size="12" font-style="italic" lengthAdjust="spacing" textLength="144" x="2551.25" y="453.1387">«UserManager.lvclass »</text><text fill="#000000" font-family="sans-serif" font-size="14" lengthAdjust="spacing" textLength="92" x="2577.25" y="468.9639">UserManager</text><line style="stroke:#555555;stroke-width:0.5;" x1="2364.5" x2="2849.5" y1="477.2656" y2="477.2656"/><line style="stroke:#555555;stroke-width:0.5;" x1="2364.5" x2="2849.5" y1="485.2656" y2="485.2656"/><text fill="#000000" font-family="sans-serif" font-size="14" lengthAdjust="spacing" textLength="475" x="2369.5" y="502.2607">(IAuthorizationUpdated.lvclass) ActivationUpdated: ActivationUpdated</text></g><!--MD5=[0863aeb37b8e5e0da80f5575291ba5d4]
class ActivationUpdated--><g id="elem_ActivationUpdated"><rect codeLine="18" fill="#FFFFFF" height="88.8594" id="ActivationUpdated" rx="2.5" ry="2.5" style="stroke:#555555;stroke-width:0.5;" width="449" x="2382.5" y="587"/><rect fill="#808080" height="40.2656" rx="2.5" ry="2.5" style="stroke:#808080;stroke-width:0.5;" width="449" x="2382.5" y="587"/><rect fill="#808080" height="2.5" style="stroke:#808080;stroke-width:0.5;" width="449" x="2382.5" y="624.7656"/><rect codeLine="18" fill="none" height="88.8594" id="ActivationUpdated" rx="2.5" ry="2.5" style="stroke:#555555;stroke-width:0.5;" width="449" x="2382.5" y="587"/><ellipse cx="2494.75" cy="607.1328" fill="#ADD1B2" rx="11" ry="11" style="stroke:#181818;stroke-width:1.0;"/><path d="M2497.7188,612.7734 Q2497.1406,613.0703 2496.5,613.2109 Q2495.8594,613.3672 2495.1563,613.3672 Q2492.6563,613.3672 2491.3281,611.7266 Q2490.0156,610.0703 2490.0156,606.9453 Q2490.0156,603.8203 2491.3281,602.1641 Q2492.6563,600.5078 2495.1563,600.5078 Q2495.8594,600.5078 2496.5,600.6641 Q2497.1563,600.8203 2497.7188,601.1172 L2497.7188,603.8359 Q2497.0938,603.2578 2496.5,602.9922 Q2495.9063,602.7109 2495.2813,602.7109 Q2493.9375,602.7109 2493.25,603.7891 Q2492.5625,604.8516 2492.5625,606.9453 Q2492.5625,609.0391 2493.25,610.1172 Q2493.9375,611.1797 2495.2813,611.1797 Q2495.9063,611.1797 2496.5,610.9141 Q2497.0938,610.6328 2497.7188,610.0547 L2497.7188,612.7734 Z " fill="#000000"/><text fill="#000000" font-family="sans-serif" font-size="12" font-style="italic" lengthAdjust="spacing" textLength="220" x="2513.25" y="603.1387">«BusAuthorizationUpdated.lvclass »</text><text fill="#000000" font-family="sans-serif" font-size="14" lengthAdjust="spacing" textLength="125" x="2560.75" y="618.9639">ActivationUpdated</text><line style="stroke:#555555;stroke-width:0.5;" x1="2383.5" x2="2830.5" y1="627.2656" y2="627.2656"/><line style="stroke:#555555;stroke-width:0.5;" x1="2383.5" x2="2830.5" y1="635.2656" y2="635.2656"/><text fill="#000000" font-family="sans-serif" font-size="14" lengthAdjust="spacing" textLength="436" x="2388.5" y="652.2607">(IAuthorizationUpdated.lvclass) TargetClasses_idx_0: ButtonBar</text><text fill="#000000" font-family="sans-serif" font-size="14" lengthAdjust="spacing" textLength="437" x="2388.5" y="668.5576">(IAuthorizationUpdated.lvclass) TargetClasses_idx_1: MasterGUI</text></g><!--MD5=[620bbcc74dcd146adf0bb143b4174021]
class FaceDetect--><g id="elem_FaceDetect"><rect codeLine="19" fill="#FFFFFF" height="56.2656" id="FaceDetect" rx="2.5" ry="2.5" style="stroke:#555555;stroke-width:0.5;" width="228" x="2957" y="287.5"/><rect fill="#808080" height="40.2656" rx="2.5" ry="2.5" style="stroke:#808080;stroke-width:0.5;" width="228" x="2957" y="287.5"/><rect fill="#808080" height="2.5" style="stroke:#808080;stroke-width:0.5;" width="228" x="2957" y="325.2656"/><rect codeLine="19" fill="none" height="56.2656" id="FaceDetect" rx="2.5" ry="2.5" style="stroke:#555555;stroke-width:0.5;" width="228" x="2957" y="287.5"/><ellipse cx="2972" cy="307.6328" fill="#ADD1B2" rx="11" ry="11" style="stroke:#181818;stroke-width:1.0;"/><path d="M2974.9688,313.2734 Q2974.3906,313.5703 2973.75,313.7109 Q2973.1094,313.8672 2972.4063,313.8672 Q2969.9063,313.8672 2968.5781,312.2266 Q2967.2656,310.5703 2967.2656,307.4453 Q2967.2656,304.3203 2968.5781,302.6641 Q2969.9063,301.0078 2972.4063,301.0078 Q2973.1094,301.0078 2973.75,301.1641 Q2974.4063,301.3203 2974.9688,301.6172 L2974.9688,304.3359 Q2974.3438,303.7578 2973.75,303.4922 Q2973.1563,303.2109 2972.5313,303.2109 Q2971.1875,303.2109 2970.5,304.2891 Q2969.8125,305.3516 2969.8125,307.4453 Q2969.8125,309.5391 2970.5,310.6172 Q2971.1875,311.6797 2972.5313,311.6797 Q2973.1563,311.6797 2973.75,311.4141 Q2974.3438,311.1328 2974.9688,310.5547 L2974.9688,313.2734 Z " fill="#000000"/><text fill="#000000" font-family="sans-serif" font-size="12" font-style="italic" lengthAdjust="spacing" textLength="200" x="2984" y="303.6387">«OpenCVFaceDetection.lvclass »</text><text fill="#000000" font-family="sans-serif" font-size="14" lengthAdjust="spacing" textLength="80" x="3044" y="319.4639">FaceDetect</text><line style="stroke:#555555;stroke-width:0.5;" x1="2958" x2="3184" y1="327.7656" y2="327.7656"/><line style="stroke:#555555;stroke-width:0.5;" x1="2958" x2="3184" y1="335.7656" y2="335.7656"/></g><!--MD5=[e873c6c4c772efc377eb8e3243fc484f]
class Cam1--><g id="elem_Cam1"><rect codeLine="20" fill="#FFFFFF" height="72.5625" id="Cam1" rx="2.5" ry="2.5" style="stroke:#555555;stroke-width:0.5;" width="390" x="2876" y="64"/><rect fill="#808080" height="40.2656" rx="2.5" ry="2.5" style="stroke:#808080;stroke-width:0.5;" width="390" x="2876" y="64"/><rect fill="#808080" height="2.5" style="stroke:#808080;stroke-width:0.5;" width="390" x="2876" y="101.7656"/><rect codeLine="20" fill="none" height="72.5625" id="Cam1" rx="2.5" ry="2.5" style="stroke:#555555;stroke-width:0.5;" width="390" x="2876" y="64"/><ellipse cx="3000.75" cy="84.1328" fill="#ADD1B2" rx="11" ry="11" style="stroke:#181818;stroke-width:1.0;"/><path d="M3003.7188,89.7734 Q3003.1406,90.0703 3002.5,90.2109 Q3001.8594,90.3672 3001.1563,90.3672 Q2998.6563,90.3672 2997.3281,88.7266 Q2996.0156,87.0703 2996.0156,83.9453 Q2996.0156,80.8203 2997.3281,79.1641 Q2998.6563,77.5078 3001.1563,77.5078 Q3001.8594,77.5078 3002.5,77.6641 Q3003.1563,77.8203 3003.7188,78.1172 L3003.7188,80.8359 Q3003.0938,80.2578 3002.5,79.9922 Q3001.9063,79.7109 3001.2813,79.7109 Q2999.9375,79.7109 2999.25,80.7891 Q2998.5625,81.8516 2998.5625,83.9453 Q2998.5625,86.0391 2999.25,87.1172 Q2999.9375,88.1797 3001.2813,88.1797 Q3001.9063,88.1797 3002.5,87.9141 Q3003.0938,87.6328 3003.7188,87.0547 L3003.7188,89.7734 Z " fill="#000000"/><text fill="#000000" font-family="sans-serif" font-size="12" font-style="italic" lengthAdjust="spacing" textLength="136" x="3019.25" y="80.1387">«OpenCVCam.lvclass »</text><text fill="#000000" font-family="sans-serif" font-size="14" lengthAdjust="spacing" textLength="40" x="3067.25" y="95.9639">Cam1</text><line style="stroke:#555555;stroke-width:0.5;" x1="2877" x2="3265" y1="104.2656" y2="104.2656"/><line style="stroke:#555555;stroke-width:0.5;" x1="2877" x2="3265" y1="112.2656" y2="112.2656"/><text fill="#000000" font-family="sans-serif" font-size="14" lengthAdjust="spacing" textLength="378" x="2882" y="129.2607">(INewOpenCvMat.lvclass) INewOpenCvMat: FaceDetect</text></g><!--MD5=[25b2f1b45b917437686eed24b60c3601]
reverse link MasterGUI to UserManager--><g id="link_MasterGUI_UserManager"><path codeLine="21" d="M2266.27,146.67 C2411.25,174.67 2562.42,215.91 2608,271 C2647.52,318.77 2652.97,346.6 2639,407 C2636.66,417.11 2632.54,427.47 2628.01,436.87 " fill="none" id="MasterGUI-backto-UserManager" style="stroke:#181818;stroke-width:1.0;"/><polygon fill="none" points="2253.16,144.17,2258.3071,149.2204,2264.9488,146.4117,2259.8016,141.3613,2253.16,144.17" style="stroke:#181818;stroke-width:1.0;"/><text fill="#000000" font-family="sans-serif" font-size="13" lengthAdjust="spacing" textLength="134" x="2647" y="320.0669">IAuthorization.lvclass</text></g><!--MD5=[291476cfbcced0a74eefcf5d9da52320]
reverse link MasterGUI to TextViewer--><g id="link_MasterGUI_TextViewer"><path codeLine="22" d="M1651.54,106.76 C1415.84,117.31 1084.49,146.34 804,224 C757.96,236.75 709.21,259.37 671.97,278.81 " fill="none" id="MasterGUI-backto-TextViewer" style="stroke:#181818;stroke-width:1.0;"/><polygon fill="none" points="1664.81,106.18,1658.64,102.4476,1652.8216,106.7075,1658.9916,110.4399,1664.81,106.18" style="stroke:#181818;stroke-width:1.0;"/><text fill="#000000" font-family="sans-serif" font-size="13" lengthAdjust="spacing" textLength="141" x="805" y="237.0669">ITAFTextViewer.lvclass</text></g><!--MD5=[0cac4a46893a61f47c8e8d55f09071ef]
reverse link MasterGUI to ApplicationConfiguration--><g id="link_MasterGUI_ApplicationConfiguration"><path codeLine="23" d="M1651.81,132.6 C1424.57,160.27 1137.9,206.4 1038,271 C976.3,310.9 998.53,357.75 944,407 C927.29,422.1 906.48,435.04 886.97,445.35 " fill="none" id="MasterGUI-backto-ApplicationConfiguration" style="stroke:#181818;stroke-width:1.0;"/><polygon fill="none" points="1664.98,131.01,1658.5439,127.7579,1653.0665,132.4481,1659.5026,135.7002,1664.98,131.01" style="stroke:#181818;stroke-width:1.0;"/><text fill="#000000" font-family="sans-serif" font-size="13" lengthAdjust="spacing" textLength="204" x="1039" y="320.0669">IApplicationConfiguration.lvclass</text></g><!--MD5=[7ab34f8282cb8960c8d024c6171d14ba]
reverse link MasterGUI to Tracer--><g id="link_MasterGUI_Tracer"><path codeLine="24" d="M1651.61,139.21 C1490.27,166 1316.06,208.47 1267,271 C1242.58,302.12 1250.03,324.27 1267,360 C1284.7,397.27 1321.47,426.27 1352.61,445.48 " fill="none" id="MasterGUI-backto-Tracer" style="stroke:#181818;stroke-width:1.0;"/><polygon fill="none" points="1664.68,137.07,1658.1126,134.0918,1652.8376,139.0086,1659.405,141.9867,1664.68,137.07" style="stroke:#181818;stroke-width:1.0;"/><text fill="#000000" font-family="sans-serif" font-size="13" lengthAdjust="spacing" textLength="117" x="1268" y="320.0669">IFrontPanel.lvclass</text></g><!--MD5=[7e4b8fb1c27102720beecbd4962481f1]
reverse link MasterGUI to Header--><g id="link_MasterGUI_Header"><path codeLine="25" d="M1750.56,199.72 C1682.26,231.91 1611.81,265.11 1564.36,287.47 " fill="none" id="MasterGUI-backto-Header" style="stroke:#181818;stroke-width:1.0;"/><polygon fill="none" points="1762.39,194.15,1755.2572,193.0905,1751.5358,199.2672,1758.6686,200.3267,1762.39,194.15" style="stroke:#181818;stroke-width:1.0;"/><text fill="#000000" font-family="sans-serif" font-size="13" lengthAdjust="spacing" textLength="117" x="1694" y="237.0669">IFrontPanel.lvclass</text></g><!--MD5=[9d99625a2f4183267ea57addfa4d00cf]
reverse link MasterGUI to ButtonBar--><g id="link_MasterGUI_ButtonBar"><path codeLine="26" d="M2168.6,199.63 C2198.58,213.57 2229.06,227.68 2258,241 C2279.18,250.75 2301.96,261.14 2323.55,270.94 " fill="none" id="MasterGUI-backto-ButtonBar" style="stroke:#181818;stroke-width:1.0;"/><polygon fill="none" points="2156.69,194.09,2160.4478,200.2446,2167.5743,199.1429,2163.8165,192.9884,2156.69,194.09" style="stroke:#181818;stroke-width:1.0;"/><text fill="#000000" font-family="sans-serif" font-size="13" lengthAdjust="spacing" textLength="117" x="2259" y="237.0669">IFrontPanel.lvclass</text></g><!--MD5=[0fb7a36fc09d1ab23f48b10c553e5ee8]
reverse link ButtonBar to MasterGUI--><g id="link_ButtonBar_MasterGUI"><path codeLine="41" d="M2404.98,258.7 C2399.27,245.86 2391.5,233.27 2381,224 C2344.33,191.63 2299.55,167.78 2253.02,150.23 " fill="none" id="ButtonBar-backto-MasterGUI" style="stroke:#181818;stroke-width:1.0;"/><polygon fill="none" points="2409.86,270.99,2411.37,263.9388,2405.442,259.8329,2403.932,266.8841,2409.86,270.99" style="stroke:#181818;stroke-width:1.0;"/><text fill="#000000" font-family="sans-serif" font-size="13" lengthAdjust="spacing" textLength="104" x="2396" y="237.0669">IDockGUI.lvclass</text></g><!--MD5=[0cc063b83f58252b44d3ae7adabed54d]
reverse link MasterGUI to Footer--><g id="link_MasterGUI_Footer"><path codeLine="27" d="M1889.36,205.23 C1871.57,231.72 1853.63,258.45 1839.94,278.84 " fill="none" id="MasterGUI-backto-Footer" style="stroke:#181818;stroke-width:1.0;"/><polygon fill="none" points="1896.69,194.31,1890.026,197.0652,1890.0062,204.2763,1896.6702,201.5211,1896.69,194.31" style="stroke:#181818;stroke-width:1.0;"/><text fill="#000000" font-family="sans-serif" font-size="13" lengthAdjust="spacing" textLength="117" x="1876" y="237.0669">IFrontPanel.lvclass</text></g><!--MD5=[0e901068701b7a3eff0751573094efc1]
reverse link MasterGUI to MainFlexPanel--><g id="link_MasterGUI_MainFlexPanel"><path codeLine="28" d="M2036.25,204.99 C2058.87,235.29 2081.73,265.91 2097.5,287.04 " fill="none" id="MasterGUI-backto-MainFlexPanel" style="stroke:#181818;stroke-width:1.0;"/><polygon fill="none" points="2028.28,194.31,2028.6626,201.5109,2035.4568,203.9274,2035.0742,196.7264,2028.28,194.31" style="stroke:#181818;stroke-width:1.0;"/><text fill="#000000" font-family="sans-serif" font-size="13" lengthAdjust="spacing" textLength="117" x="2064" y="237.0669">IFrontPanel.lvclass</text></g><!--MD5=[878342ddee254c19bd93bad051587f7d]
reverse link TextViewer to ApplicationConfiguration--><g id="link_TextViewer_ApplicationConfiguration"><path codeLine="37" d="M669.19,359.97 C707.07,387.33 754.79,421.79 787.37,445.32 " fill="none" id="TextViewer-backto-ApplicationConfiguration" style="stroke:#181818;stroke-width:1.0;"/><polygon fill="none" points="658.28,352.09,660.7978,358.8473,668.0036,359.1221,665.4859,352.3649,658.28,352.09" style="stroke:#181818;stroke-width:1.0;"/><text fill="#000000" font-family="sans-serif" font-size="13" lengthAdjust="spacing" textLength="204" x="731" y="403.0669">IApplicationConfiguration.lvclass</text></g><!--MD5=[2a987bdbba84b74b61f13cdd9c0a7b93]
reverse link Footer to Tracer--><g id="link_Footer_Tracer"><path codeLine="39" d="M1709.72,356.84 C1636.31,384.71 1540.67,421.01 1476.28,445.44 " fill="none" id="Footer-backto-Tracer" style="stroke:#181818;stroke-width:1.0;"/><polygon fill="none" points="1722.22,352.09,1715.1911,350.4794,1711.0009,356.3482,1718.0299,357.9588,1722.22,352.09" style="stroke:#181818;stroke-width:1.0;"/><text fill="#000000" font-family="sans-serif" font-size="13" lengthAdjust="spacing" textLength="154" x="1612" y="403.0669">ITAFFilteredTrace.lvclass</text></g><!--MD5=[57ed70488dbf28250aabdda1b0350de0]
reverse link ButtonBar to UserManager--><g id="link_ButtonBar_UserManager"><path codeLine="42" d="M2462.04,370.18 C2473.33,382.99 2486.03,396.09 2499,407 C2511.84,417.8 2526.65,427.99 2541.11,436.98 " fill="none" id="ButtonBar-backto-UserManager" style="stroke:#181818;stroke-width:1.0;"/><polygon fill="none" points="2453.31,360.02,2454.1871,367.1776,2461.1314,369.1208,2460.2543,361.9633,2453.31,360.02" style="stroke:#181818;stroke-width:1.0;"/><text fill="#000000" font-family="sans-serif" font-size="13" lengthAdjust="spacing" textLength="134" x="2500" y="403.0669">IAuthorization.lvclass</text></g><!--MD5=[5ee6199dc3f4dc04464a571d606c0824]
reverse link UserManager to ActivationUpdated--><g id="link_UserManager_ActivationUpdated"><path codeLine="45" d="M2607,523.44 C2607,543.74 2607,567.1 2607,586.81 " fill="none" id="UserManager-backto-ActivationUpdated" style="stroke:#181818;stroke-width:1.0;"/><polygon fill="none" points="2607,510.29,2603,516.29,2607,522.29,2611,516.29,2607,510.29" style="stroke:#181818;stroke-width:1.0;"/><text fill="#000000" font-family="sans-serif" font-size="13" lengthAdjust="spacing" textLength="189" x="2608" y="553.0669">IAuthorizationUpdated.lvclass</text></g><!--MD5=[60a593124bc7098c820234c4a931fd9e]
reverse link ActivationUpdated to ButtonBar--><g id="link_ActivationUpdated_ButtonBar"><path codeLine="47" d="M2369.53,594.17 C2275.55,574.51 2183.15,546.63 2155,510 C2106.06,446.31 2191.42,394.08 2277.99,360 " fill="none" id="ActivationUpdated-backto-ButtonBar" style="stroke:#181818;stroke-width:1.0;"/><polygon fill="none" points="2382.5,596.83,2377.4274,591.7047,2370.7454,594.4157,2375.8179,599.5411,2382.5,596.83" style="stroke:#181818;stroke-width:1.0;"/><text fill="#000000" font-family="sans-serif" font-size="13" lengthAdjust="spacing" textLength="189" x="2156" y="478.0669">IAuthorizationUpdated.lvclass</text></g><!--MD5=[5894c937d3717548b165c0ca88694dd4]
reverse link ActivationUpdated to MasterGUI--><g id="link_ActivationUpdated_MasterGUI"><path codeLine="48" d="M2797.17,580.7 C2826.87,563.62 2852.74,540.72 2868,510 C2917.71,409.93 2877.17,340.9 2790,271 C2707.79,205.08 2457.76,159.89 2253.25,132.85 " fill="none" id="ActivationUpdated-backto-MasterGUI" style="stroke:#181818;stroke-width:1.0;"/><polygon fill="none" points="2785.62,586.97,2792.8013,587.6248,2796.1678,581.2478,2788.9865,580.593,2785.62,586.97" style="stroke:#181818;stroke-width:1.0;"/><text fill="#000000" font-family="sans-serif" font-size="13" lengthAdjust="spacing" textLength="189" x="2889" y="403.0669">IAuthorizationUpdated.lvclass</text></g><!--MD5=[69c2d864b5846058d72ebcfc0cbc1190]
reverse link Cam1 to FaceDetect--><g id="link_Cam1_FaceDetect"><path codeLine="51" d="M3071,150.26 C3071,192.71 3071,252.71 3071,287.2 " fill="none" id="Cam1-backto-FaceDetect" style="stroke:#181818;stroke-width:1.0;"/><polygon fill="none" points="3071,137.15,3067,143.15,3071,149.15,3075,143.15,3071,137.15" style="stroke:#181818;stroke-width:1.0;"/><text fill="#000000" font-family="sans-serif" font-size="13" lengthAdjust="spacing" textLength="150" x="3072" y="237.0669">INewOpenCvMat.lvclass</text></g><!--MD5=[66b3a84618bdf92c676fb5c1bd7e8ffd]
@startuml
set namespaceSeparator :
skinparam ClassBackgroundColor #FFFFFF
skinparam ClassBorderColor #555555
skinparam ClassFontColor #000000
skinparam ClassHeaderBackgroundColor #808080
class MasterGUI << DemoApplication.lvclass  >>
class TextViewer << JSONTextViewer.lvclass  >>
class ApplicationConfiguration << AppConfigJSON.lvclass  >>
class Tracer << TraceWindow.lvclass  >>
class Header << HeaderTriekselSoft.lvclass  >>
class Footer << YAFFooter.lvclass  >>
class MainFlexPanel << FlexPanelDefault.lvclass  >>
class ConfigurationManager << Mockup_ConfigurationManager.lvclass  >>
class ServiceScreen << Mockup_ServiceScreen.lvclass  >>
class QualificationScreen << Mockup_QualificationScreen.lvclass  >>
class ButtonBar << VerticalButtonBar.lvclass  >>
class UserManager << UserManager.lvclass  >>
class ActivationUpdated << BusAuthorizationUpdated.lvclass  >>
class FaceDetect << OpenCVFaceDetection.lvclass  >>
class Cam1 << OpenCVCam.lvclass  >>
MasterGUI o- - UserManager : IAuthorization.lvclass
MasterGUI o- - TextViewer : ITAFTextViewer.lvclass
MasterGUI o- - ApplicationConfiguration : IApplicationConfiguration.lvclass
MasterGUI o- - Tracer : IFrontPanel.lvclass
MasterGUI o- - Header : IFrontPanel.lvclass
MasterGUI o- - ButtonBar : IFrontPanel.lvclass
MasterGUI o- - Footer : IFrontPanel.lvclass
MasterGUI o- - MainFlexPanel : IFrontPanel.lvclass
MasterGUI : (IAuthorization.lvclass) Authorizer: UserManager
MasterGUI : (ITAFTextViewer.lvclass) TextViewer: TextViewer
MasterGUI : (IApplicationConfiguration.lvclass) ApplicationConfiguration: ApplicationConfiguration
MasterGUI : (IFrontPanel.lvclass) Tracer: Tracer
MasterGUI : (IFrontPanel.lvclass) Header: Header
MasterGUI : (IFrontPanel.lvclass) ButtonBar: ButtonBar
MasterGUI : (IFrontPanel.lvclass) Footer: Footer
MasterGUI : (IFrontPanel.lvclass) MainFlexPanel: MainFlexPanel
TextViewer o- - ApplicationConfiguration : IApplicationConfiguration.lvclass
TextViewer : (IApplicationConfiguration.lvclass) ApplicationConfiguration: ApplicationConfiguration
Footer o- - Tracer : ITAFFilteredTrace.lvclass
Footer : (ITAFFilteredTrace.lvclass) TracerSource: Tracer
ButtonBar o- - MasterGUI : IDockGUI.lvclass
ButtonBar o- - UserManager : IAuthorization.lvclass
ButtonBar : (IDockGUI.lvclass) IDockGUI: MasterGUI
ButtonBar : (IAuthorization.lvclass) Authorizer: UserManager
UserManager o- - ActivationUpdated : IAuthorizationUpdated.lvclass
UserManager : (IAuthorizationUpdated.lvclass) ActivationUpdated: ActivationUpdated
ActivationUpdated o- - ButtonBar : IAuthorizationUpdated.lvclass
ActivationUpdated o- - MasterGUI : IAuthorizationUpdated.lvclass
ActivationUpdated : (IAuthorizationUpdated.lvclass) TargetClasses_idx_0: ButtonBar
ActivationUpdated : (IAuthorizationUpdated.lvclass) TargetClasses_idx_1: MasterGUI
Cam1 o- - FaceDetect : INewOpenCvMat.lvclass
Cam1 : (INewOpenCvMat.lvclass) INewOpenCvMat: FaceDetect
@enduml

PlantUML version 1.2022.12(Sun Oct 23 18:12:26 GMT 2022)
(GPL source distribution)
Java Runtime: OpenJDK Runtime Environment
JVM: OpenJDK 64-Bit Server VM
Default Encoding: UTF-8
Language: en
Country: US
--></g></svg>