<?xml version="1.0" encoding="UTF-8" standalone="no"?><svg xmlns="http://www.w3.org/2000/svg" xmlns:xlink="http://www.w3.org/1999/xlink" contentStyleType="text/css" height="202px" preserveAspectRatio="none" style="width:305px;height:202px;background:#FFFFFF;" version="1.1" viewBox="0 0 305 202" width="305px" zoomAndPan="magnify"><defs/><g><!--MD5=[ff39e1d3f322c0acdc36e9cd4b80324d]
class Mockup_QualificationScreen--><g id="elem_Mockup_QualificationScreen"><rect codeLine="8" fill="#FFFFFF" height="80.5938" id="Mockup_QualificationScreen" rx="2.5" ry="2.5" style="stroke:#555555;stroke-width:0.5;" width="226" x="33.5" y="115"/><rect fill="#808080" height="32" rx="2.5" ry="2.5" style="stroke:#808080;stroke-width:0.5;" width="226" x="33.5" y="115"/><rect fill="#808080" height="2.5" style="stroke:#808080;stroke-width:0.5;" width="226" x="33.5" y="144.5"/><rect codeLine="8" fill="none" height="80.5938" id="Mockup_QualificationScreen" rx="2.5" ry="2.5" style="stroke:#555555;stroke-width:0.5;" width="226" x="33.5" y="115"/><ellipse cx="48.5" cy="131" fill="#ADD1B2" rx="11" ry="11" style="stroke:#181818;stroke-width:1.0;"/><path d="M51.4688,136.6406 Q50.8906,136.9375 50.25,137.0781 Q49.6094,137.2344 48.9063,137.2344 Q46.4063,137.2344 45.0781,135.5938 Q43.7656,133.9375 43.7656,130.8125 Q43.7656,127.6875 45.0781,126.0313 Q46.4063,124.375 48.9063,124.375 Q49.6094,124.375 50.25,124.5313 Q50.9063,124.6875 51.4688,124.9844 L51.4688,127.7031 Q50.8438,127.125 50.25,126.8594 Q49.6563,126.5781 49.0313,126.5781 Q47.6875,126.5781 47,127.6563 Q46.3125,128.7188 46.3125,130.8125 Q46.3125,132.9063 47,133.9844 Q47.6875,135.0469 49.0313,135.0469 Q49.6563,135.0469 50.25,134.7813 Q50.8438,134.5 51.4688,133.9219 L51.4688,136.6406 Z " fill="#000000"/><text fill="#000000" font-family="sans-serif" font-size="14" lengthAdjust="spacing" textLength="194" x="62.5" y="135.8467">Mockup_QualificationScreen</text><line style="stroke:#555555;stroke-width:0.5;" x1="34.5" x2="258.5" y1="147" y2="147"/><rect fill="none" height="6" style="stroke:#C82930;stroke-width:1.0;" width="6" x="41.5" y="157.6484"/><text fill="#000000" font-family="sans-serif" font-size="14" lengthAdjust="spacing" textLength="64" x="53.5" y="163.9951">Ref : U32</text><line style="stroke:#555555;stroke-width:0.5;" x1="34.5" x2="258.5" y1="171.2969" y2="171.2969"/><ellipse cx="44.5" cy="184.9453" fill="#84BE84" rx="3" ry="3" style="stroke:#038048;stroke-width:1.0;"/><text fill="#000000" font-family="sans-serif" font-size="14" lengthAdjust="spacing" textLength="109" x="53.5" y="188.292">GetFrontPanel()</text></g><!--MD5=[0598474d39ed4a9017b81a2a55acc3b1]
class TAFBaseGUI--><g id="elem_TAFBaseGUI"><rect fill="#FFFFFF" height="48" id="TAFBaseGUI" rx="2.5" ry="2.5" style="stroke:#555555;stroke-width:0.5;" width="117" x="7" y="7"/><rect fill="#808080" height="32" rx="2.5" ry="2.5" style="stroke:#808080;stroke-width:0.5;" width="117" x="7" y="7"/><rect fill="#808080" height="2.5" style="stroke:#808080;stroke-width:0.5;" width="117" x="7" y="36.5"/><rect fill="none" height="48" id="TAFBaseGUI" rx="2.5" ry="2.5" style="stroke:#555555;stroke-width:0.5;" width="117" x="7" y="7"/><ellipse cx="22" cy="23" fill="#ADD1B2" rx="11" ry="11" style="stroke:#181818;stroke-width:1.0;"/><path d="M24.9688,28.6406 Q24.3906,28.9375 23.75,29.0781 Q23.1094,29.2344 22.4063,29.2344 Q19.9063,29.2344 18.5781,27.5938 Q17.2656,25.9375 17.2656,22.8125 Q17.2656,19.6875 18.5781,18.0313 Q19.9063,16.375 22.4063,16.375 Q23.1094,16.375 23.75,16.5313 Q24.4063,16.6875 24.9688,16.9844 L24.9688,19.7031 Q24.3438,19.125 23.75,18.8594 Q23.1563,18.5781 22.5313,18.5781 Q21.1875,18.5781 20.5,19.6563 Q19.8125,20.7188 19.8125,22.8125 Q19.8125,24.9063 20.5,25.9844 Q21.1875,27.0469 22.5313,27.0469 Q23.1563,27.0469 23.75,26.7813 Q24.3438,26.5 24.9688,25.9219 L24.9688,28.6406 Z " fill="#000000"/><text fill="#000000" font-family="sans-serif" font-size="14" lengthAdjust="spacing" textLength="85" x="36" y="27.8467">TAFBaseGUI</text><line style="stroke:#555555;stroke-width:0.5;" x1="8" x2="123" y1="39" y2="39"/><line style="stroke:#555555;stroke-width:0.5;" x1="8" x2="123" y1="47" y2="47"/></g><!--MD5=[279d10572fd96349ac6b0a9cb9c87a2e]
class ITAFGUIActions--><g id="elem_ITAFGUIActions"><rect codeLine="15" fill="#FFFFFF" height="48" id="ITAFGUIActions" rx="2.5" ry="2.5" style="stroke:#555555;stroke-width:0.5;" width="139" x="159" y="7"/><rect fill="#808080" height="32" rx="2.5" ry="2.5" style="stroke:#808080;stroke-width:0.5;" width="139" x="159" y="7"/><rect fill="#808080" height="2.5" style="stroke:#808080;stroke-width:0.5;" width="139" x="159" y="36.5"/><rect codeLine="15" fill="none" height="48" id="ITAFGUIActions" rx="2.5" ry="2.5" style="stroke:#555555;stroke-width:0.5;" width="139" x="159" y="7"/><ellipse cx="174" cy="23" fill="#B4A7E5" rx="11" ry="11" style="stroke:#181818;stroke-width:1.0;"/><path d="M169.9219,18.7656 L169.9219,16.6094 L177.3125,16.6094 L177.3125,18.7656 L174.8438,18.7656 L174.8438,26.8438 L177.3125,26.8438 L177.3125,29 L169.9219,29 L169.9219,26.8438 L172.3906,26.8438 L172.3906,18.7656 L169.9219,18.7656 Z " fill="#000000"/><text fill="#000000" font-family="sans-serif" font-size="14" font-style="italic" lengthAdjust="spacing" textLength="107" x="188" y="27.8467">ITAFGUIActions</text><line style="stroke:#555555;stroke-width:0.5;" x1="160" x2="297" y1="39" y2="39"/><line style="stroke:#555555;stroke-width:0.5;" x1="160" x2="297" y1="47" y2="47"/></g><!--MD5=[f5e105e001ca4559dfd55c5d0b2de9e5]
reverse link TAFBaseGUI to Mockup_QualificationScreen--><g id="link_TAFBaseGUI_Mockup_QualificationScreen"><path codeLine="13" d="M91.86,71.87 C100.94,85.6 111.1,100.96 120.18,114.69 " fill="none" id="TAFBaseGUI-backto-Mockup_QualificationScreen" style="stroke:#181818;stroke-width:1.0;"/><polygon fill="none" points="85.93,75.59,80.74,55.04,97.61,67.86,85.93,75.59" style="stroke:#181818;stroke-width:1.0;"/></g><!--MD5=[6ccb35770a4d051f41051f8d707cd035]
reverse link ITAFGUIActions to Mockup_QualificationScreen--><g id="link_ITAFGUIActions_Mockup_QualificationScreen"><path codeLine="14" d="M201.81,71.87 C192.62,85.6 182.34,100.96 173.15,114.69 " fill="none" id="ITAFGUIActions-backto-Mockup_QualificationScreen" style="stroke:#181818;stroke-width:1.0;stroke-dasharray:7.0,7.0;"/><polygon fill="none" points="196.13,67.77,213.08,55.04,207.77,75.56,196.13,67.77" style="stroke:#181818;stroke-width:1.0;"/></g><!--MD5=[b4a83c9c5079c85fbea7880c24e8331e]
@startuml
set namespaceSeparator :
skinparam ClassBackgroundColor #FFFFFF
skinparam ClassBorderColor #555555
skinparam ClassFontColor #000000
skinparam ClassHeaderBackgroundColor #808080

skinparam top to bottom direction
class "Mockup_QualificationScreen" {
{field} -Ref : U32
{method} +GetFrontPanel()

}
"TAFBaseGUI" <|- - "Mockup_QualificationScreen"
"ITAFGUIActions" <|.. "Mockup_QualificationScreen"
interface "ITAFGUIActions" {}




@enduml

PlantUML version 1.2022.12(Sun Oct 23 18:12:26 GMT 2022)
(GPL source distribution)
Java Runtime: OpenJDK Runtime Environment
JVM: OpenJDK 64-Bit Server VM
Default Encoding: UTF-8
Language: en
Country: US
--></g></svg>