<?xml version="1.0" encoding="UTF-8" standalone="no"?><svg xmlns="http://www.w3.org/2000/svg" xmlns:xlink="http://www.w3.org/1999/xlink" contentStyleType="text/css" height="85px" preserveAspectRatio="none" style="width:171px;height:85px;background:#FFFFFF;" version="1.1" viewBox="0 0 171 85" width="171px" zoomAndPan="magnify"><defs/><g><!--MD5=[26c5dd049598b62355777e60caa556cf]
class INewOpenCVMat--><g id="elem_INewOpenCVMat"><rect codeLine="8" fill="#FFFFFF" height="64.2969" id="INewOpenCVMat" rx="2.5" ry="2.5" style="stroke:#555555;stroke-width:0.5;" width="150" x="7" y="7"/><rect fill="#808080" height="32" rx="2.5" ry="2.5" style="stroke:#808080;stroke-width:0.5;" width="150" x="7" y="7"/><rect fill="#808080" height="2.5" style="stroke:#808080;stroke-width:0.5;" width="150" x="7" y="36.5"/><rect codeLine="8" fill="none" height="64.2969" id="INewOpenCVMat" rx="2.5" ry="2.5" style="stroke:#555555;stroke-width:0.5;" width="150" x="7" y="7"/><ellipse cx="22" cy="23" fill="#B4A7E5" rx="11" ry="11" style="stroke:#181818;stroke-width:1.0;"/><path d="M17.9219,18.7656 L17.9219,16.6094 L25.3125,16.6094 L25.3125,18.7656 L22.8438,18.7656 L22.8438,26.8438 L25.3125,26.8438 L25.3125,29 L17.9219,29 L17.9219,26.8438 L20.3906,26.8438 L20.3906,18.7656 L17.9219,18.7656 Z " fill="#000000"/><text fill="#000000" font-family="sans-serif" font-size="14" font-style="italic" lengthAdjust="spacing" textLength="118" x="36" y="27.8467">INewOpenCVMat</text><line style="stroke:#555555;stroke-width:0.5;" x1="8" x2="156" y1="39" y2="39"/><line style="stroke:#555555;stroke-width:0.5;" x1="8" x2="156" y1="47" y2="47"/><ellipse cx="18" cy="60.6484" fill="#84BE84" rx="3" ry="3" style="stroke:#038048;stroke-width:1.0;"/><text fill="#000000" font-family="sans-serif" font-size="14" lengthAdjust="spacing" textLength="65" x="27" y="63.9951">NewMat()</text></g><!--MD5=[b0e5032388969452d2361225dcf2baf9]
@startuml
set namespaceSeparator :
skinparam ClassBackgroundColor #FFFFFF
skinparam ClassBorderColor #555555
skinparam ClassFontColor #000000
skinparam ClassHeaderBackgroundColor #808080

skinparam top to bottom direction
interface "INewOpenCVMat" {
{method} +NewMat()

}



@enduml

PlantUML version 1.2022.12(Sun Oct 23 18:12:26 GMT 2022)
(GPL source distribution)
Java Runtime: OpenJDK Runtime Environment
JVM: OpenJDK 64-Bit Server VM
Default Encoding: UTF-8
Language: en
Country: US
--></g></svg>