<?xml version="1.0" encoding="UTF-8" standalone="no"?><svg xmlns="http://www.w3.org/2000/svg" xmlns:xlink="http://www.w3.org/1999/xlink" contentStyleType="text/css" height="202px" preserveAspectRatio="none" style="width:237px;height:202px;background:#FFFFFF;" version="1.1" viewBox="0 0 237 202" width="237px" zoomAndPan="magnify"><defs/><g><!--MD5=[600f101a63f5e877d81a226e38956775]
class IPersistentData--><g id="elem_IPersistentData"><rect codeLine="8" fill="#FFFFFF" height="80.5938" id="IPersistentData" rx="2.5" ry="2.5" style="stroke:#555555;stroke-width:0.5;" width="223" x="7" y="115"/><rect fill="#808080" height="32" rx="2.5" ry="2.5" style="stroke:#808080;stroke-width:0.5;" width="223" x="7" y="115"/><rect fill="#808080" height="2.5" style="stroke:#808080;stroke-width:0.5;" width="223" x="7" y="144.5"/><rect codeLine="8" fill="none" height="80.5938" id="IPersistentData" rx="2.5" ry="2.5" style="stroke:#555555;stroke-width:0.5;" width="223" x="7" y="115"/><ellipse cx="62.75" cy="131" fill="#B4A7E5" rx="11" ry="11" style="stroke:#181818;stroke-width:1.0;"/><path d="M58.6719,126.7656 L58.6719,124.6094 L66.0625,124.6094 L66.0625,126.7656 L63.5938,126.7656 L63.5938,134.8438 L66.0625,134.8438 L66.0625,137 L58.6719,137 L58.6719,134.8438 L61.1406,134.8438 L61.1406,126.7656 L58.6719,126.7656 Z " fill="#000000"/><text fill="#000000" font-family="sans-serif" font-size="14" font-style="italic" lengthAdjust="spacing" textLength="103" x="83.25" y="135.8467">IPersistentData</text><line style="stroke:#555555;stroke-width:0.5;" x1="8" x2="229" y1="147" y2="147"/><line style="stroke:#555555;stroke-width:0.5;" x1="8" x2="229" y1="155" y2="155"/><ellipse cx="18" cy="168.6484" fill="#84BE84" rx="3" ry="3" style="stroke:#038048;stroke-width:1.0;"/><text fill="#000000" font-family="sans-serif" font-size="14" lengthAdjust="spacing" textLength="197" x="27" y="171.9951">GetPersistentConfiguration()</text><ellipse cx="18" cy="184.9453" fill="#84BE84" rx="3" ry="3" style="stroke:#038048;stroke-width:1.0;"/><text fill="#000000" font-family="sans-serif" font-size="14" lengthAdjust="spacing" textLength="195" x="27" y="188.292">SetPersistentConfiguration()</text></g><!--MD5=[065ef51c0b83ac26c2e8b4ca504d0938]
class IInterface--><g id="elem_IInterface"><rect codeLine="14" fill="#FFFFFF" height="48" id="IInterface" rx="2.5" ry="2.5" style="stroke:#555555;stroke-width:0.5;" width="97" x="70" y="7"/><rect fill="#808080" height="32" rx="2.5" ry="2.5" style="stroke:#808080;stroke-width:0.5;" width="97" x="70" y="7"/><rect fill="#808080" height="2.5" style="stroke:#808080;stroke-width:0.5;" width="97" x="70" y="36.5"/><rect codeLine="14" fill="none" height="48" id="IInterface" rx="2.5" ry="2.5" style="stroke:#555555;stroke-width:0.5;" width="97" x="70" y="7"/><ellipse cx="85" cy="23" fill="#B4A7E5" rx="11" ry="11" style="stroke:#181818;stroke-width:1.0;"/><path d="M80.9219,18.7656 L80.9219,16.6094 L88.3125,16.6094 L88.3125,18.7656 L85.8438,18.7656 L85.8438,26.8438 L88.3125,26.8438 L88.3125,29 L80.9219,29 L80.9219,26.8438 L83.3906,26.8438 L83.3906,18.7656 L80.9219,18.7656 Z " fill="#000000"/><text fill="#000000" font-family="sans-serif" font-size="14" font-style="italic" lengthAdjust="spacing" textLength="65" x="99" y="27.8467">IInterface</text><line style="stroke:#555555;stroke-width:0.5;" x1="71" x2="166" y1="39" y2="39"/><line style="stroke:#555555;stroke-width:0.5;" x1="71" x2="166" y1="47" y2="47"/></g><!--MD5=[b12b931da950b35239ad4964ced1910e]
reverse link IInterface to IPersistentData--><g id="link_IInterface_IPersistentData"><path codeLine="13" d="M118.5,75.14 C118.5,88 118.5,102.04 118.5,114.69 " fill="none" id="IInterface-backto-IPersistentData" style="stroke:#181818;stroke-width:1.0;stroke-dasharray:7.0,7.0;"/><polygon fill="none" points="111.5,75.04,118.5,55.04,125.5,75.04,111.5,75.04" style="stroke:#181818;stroke-width:1.0;"/></g><!--MD5=[fb65bc144326f579383e2c21276e6810]
@startuml
set namespaceSeparator :
skinparam ClassBackgroundColor #FFFFFF
skinparam ClassBorderColor #555555
skinparam ClassFontColor #000000
skinparam ClassHeaderBackgroundColor #808080

skinparam top to bottom direction
interface "IPersistentData" {
{method} +GetPersistentConfiguration()
{method} +SetPersistentConfiguration()

}
"IInterface" <|.. "IPersistentData"
interface "IInterface" {}




@enduml

PlantUML version 1.2022.12(Sun Oct 23 18:12:26 GMT 2022)
(GPL source distribution)
Java Runtime: OpenJDK Runtime Environment
JVM: OpenJDK 64-Bit Server VM
Default Encoding: UTF-8
Language: en
Country: US
--></g></svg>