<?xml version="1.0" encoding="UTF-8" standalone="no"?><svg xmlns="http://www.w3.org/2000/svg" xmlns:xlink="http://www.w3.org/1999/xlink" contentStyleType="text/css" height="555px" preserveAspectRatio="none" style="width:335px;height:555px;background:#FFFFFF;" version="1.1" viewBox="0 0 335 555" width="335px" zoomAndPan="magnify"><defs/><g><!--MD5=[461d0ff1925f1017586ae631b83e14a4]
class OpenCVFaceDetection--><g id="elem_OpenCVFaceDetection"><rect codeLine="8" fill="#FFFFFF" height="325.0469" id="OpenCVFaceDetection" rx="2.5" ry="2.5" style="stroke:#555555;stroke-width:0.5;" width="319" x="9" y="115"/><rect fill="#808080" height="32" rx="2.5" ry="2.5" style="stroke:#808080;stroke-width:0.5;" width="319" x="9" y="115"/><rect fill="#808080" height="2.5" style="stroke:#808080;stroke-width:0.5;" width="319" x="9" y="144.5"/><rect codeLine="8" fill="none" height="325.0469" id="OpenCVFaceDetection" rx="2.5" ry="2.5" style="stroke:#555555;stroke-width:0.5;" width="319" x="9" y="115"/><ellipse cx="85.25" cy="131" fill="#ADD1B2" rx="11" ry="11" style="stroke:#181818;stroke-width:1.0;"/><path d="M88.2188,136.6406 Q87.6406,136.9375 87,137.0781 Q86.3594,137.2344 85.6563,137.2344 Q83.1563,137.2344 81.8281,135.5938 Q80.5156,133.9375 80.5156,130.8125 Q80.5156,127.6875 81.8281,126.0313 Q83.1563,124.375 85.6563,124.375 Q86.3594,124.375 87,124.5313 Q87.6563,124.6875 88.2188,124.9844 L88.2188,127.7031 Q87.5938,127.125 87,126.8594 Q86.4063,126.5781 85.7813,126.5781 Q84.4375,126.5781 83.75,127.6563 Q83.0625,128.7188 83.0625,130.8125 Q83.0625,132.9063 83.75,133.9844 Q84.4375,135.0469 85.7813,135.0469 Q86.4063,135.0469 87,134.7813 Q87.5938,134.5 88.2188,133.9219 L88.2188,136.6406 Z " fill="#000000"/><text fill="#000000" font-family="sans-serif" font-size="14" lengthAdjust="spacing" textLength="158" x="105.75" y="135.8467">OpenCVFaceDetection</text><line style="stroke:#555555;stroke-width:0.5;" x1="10" x2="327" y1="147" y2="147"/><rect fill="none" height="6" style="stroke:#C82930;stroke-width:1.0;" width="6" x="17" y="157.6484"/><text fill="#000000" font-family="sans-serif" font-size="14" lengthAdjust="spacing" textLength="185" x="29" y="163.9951">ExternalInterfaces : Cluster</text><rect fill="none" height="6" style="stroke:#C82930;stroke-width:1.0;" width="6" x="17" y="173.9453"/><text fill="#000000" font-family="sans-serif" font-size="14" lengthAdjust="spacing" textLength="97" x="29" y="180.292">Local : Cluster</text><rect fill="none" height="6" style="stroke:#C82930;stroke-width:1.0;" width="6" x="17" y="190.2422"/><text fill="#000000" font-family="sans-serif" font-size="14" lengthAdjust="spacing" textLength="132" x="29" y="196.5889">Persistent : Cluster</text><line style="stroke:#555555;stroke-width:0.5;" x1="10" x2="327" y1="203.8906" y2="203.8906"/><rect fill="#F24D5C" height="6" style="stroke:#C82930;stroke-width:1.0;" width="6" x="17" y="214.5391"/><text fill="#000000" font-family="sans-serif" font-size="14" lengthAdjust="spacing" text-decoration="underline" textLength="258" x="29" y="220.8857">OpenCVFaceDetection_CastUIEvent()</text><rect fill="#F24D5C" height="6" style="stroke:#C82930;stroke-width:1.0;" width="6" x="17" y="230.8359"/><text fill="#000000" font-family="sans-serif" font-size="14" lengthAdjust="spacing" text-decoration="underline" textLength="243" x="29" y="237.1826">OpenCVFaceDetection_ClassCast()</text><polygon fill="#FFFF44" points="20,245.1328,24,249.1328,20,253.1328,16,249.1328" style="stroke:#B38D22;stroke-width:1.0;"/><text fill="#000000" font-family="sans-serif" font-size="14" lengthAdjust="spacing" text-decoration="underline" textLength="263" x="29" y="253.4795">OpenCVFaceDetection_SendUiEvent()</text><ellipse cx="20" cy="266.4297" fill="#84BE84" rx="3" ry="3" style="stroke:#038048;stroke-width:1.0;"/><text fill="#000000" font-family="sans-serif" font-size="14" lengthAdjust="spacing" text-decoration="underline" textLength="293" x="29" y="269.7764">OpenCVFaceDetection_TemplateMethod()</text><ellipse cx="20" cy="282.7266" fill="#84BE84" rx="3" ry="3" style="stroke:#038048;stroke-width:1.0;"/><text fill="#000000" font-family="sans-serif" font-size="14" lengthAdjust="spacing" text-decoration="underline" textLength="230" x="29" y="286.0732">OpenCVFaceDetection_NewMat()</text><polygon fill="#FFFF44" points="20,294.0234,24,298.0234,20,302.0234,16,298.0234" style="stroke:#B38D22;stroke-width:1.0;"/><text fill="#000000" font-family="sans-serif" font-size="14" lengthAdjust="spacing" textLength="92" x="29" y="302.3701">Constructor()</text><polygon fill="#FFFF44" points="20,310.3203,24,314.3203,20,318.3203,16,314.3203" style="stroke:#B38D22;stroke-width:1.0;"/><text fill="#000000" font-family="sans-serif" font-size="14" lengthAdjust="spacing" textLength="84" x="29" y="318.667">Destructor()</text><polygon fill="#FFFF44" points="20,326.6172,24,330.6172,20,334.6172,16,330.6172" style="stroke:#B38D22;stroke-width:1.0;"/><text fill="#000000" font-family="sans-serif" font-size="14" lengthAdjust="spacing" textLength="207" x="29" y="334.9639">WritePersistentConfiguration()</text><polygon fill="#FFFF44" points="20,342.9141,24,346.9141,20,350.9141,16,346.9141" style="stroke:#B38D22;stroke-width:1.0;"/><text fill="#000000" font-family="sans-serif" font-size="14" lengthAdjust="spacing" textLength="208" x="29" y="351.2607">ReadPersistentConfiguration()</text><polygon fill="#FFFF44" points="20,359.2109,24,363.2109,20,367.2109,16,363.2109" style="stroke:#B38D22;stroke-width:1.0;"/><text fill="#000000" font-family="sans-serif" font-size="14" lengthAdjust="spacing" textLength="169" x="29" y="367.5576">ReadExternalInterfaces()</text><polygon fill="#FFFF44" points="20,375.5078,24,379.5078,20,383.5078,16,379.5078" style="stroke:#B38D22;stroke-width:1.0;"/><text fill="#000000" font-family="sans-serif" font-size="14" lengthAdjust="spacing" textLength="168" x="29" y="383.8545">WriteExternalInterfaces()</text><ellipse cx="20" cy="396.8047" fill="#84BE84" rx="3" ry="3" style="stroke:#038048;stroke-width:1.0;"/><text fill="#000000" font-family="sans-serif" font-size="14" lengthAdjust="spacing" textLength="65" x="29" y="400.1514">NewMat()</text><ellipse cx="20" cy="413.1016" fill="#84BE84" rx="3" ry="3" style="stroke:#038048;stroke-width:1.0;"/><text fill="#000000" font-family="sans-serif" font-size="14" lengthAdjust="spacing" textLength="128" x="29" y="416.4482">TemplateMethod()</text><polygon fill="#FFFF44" points="20,424.3984,24,428.3984,20,432.3984,16,428.3984" style="stroke:#B38D22;stroke-width:1.0;"/><text fill="#000000" font-family="sans-serif" font-size="14" lengthAdjust="spacing" textLength="66" x="29" y="432.7451">MainGUI()</text></g><!--MD5=[36b646c945f5a836f61c707856d30646]
class YAFTAF--><g id="elem_YAFTAF"><rect fill="#FFFFFF" height="48" id="YAFTAF" rx="2.5" ry="2.5" style="stroke:#555555;stroke-width:0.5;" width="84" x="50.5" y="7"/><rect fill="#808080" height="32" rx="2.5" ry="2.5" style="stroke:#808080;stroke-width:0.5;" width="84" x="50.5" y="7"/><rect fill="#808080" height="2.5" style="stroke:#808080;stroke-width:0.5;" width="84" x="50.5" y="36.5"/><rect fill="none" height="48" id="YAFTAF" rx="2.5" ry="2.5" style="stroke:#555555;stroke-width:0.5;" width="84" x="50.5" y="7"/><ellipse cx="65.5" cy="23" fill="#ADD1B2" rx="11" ry="11" style="stroke:#181818;stroke-width:1.0;"/><path d="M68.4688,28.6406 Q67.8906,28.9375 67.25,29.0781 Q66.6094,29.2344 65.9063,29.2344 Q63.4063,29.2344 62.0781,27.5938 Q60.7656,25.9375 60.7656,22.8125 Q60.7656,19.6875 62.0781,18.0313 Q63.4063,16.375 65.9063,16.375 Q66.6094,16.375 67.25,16.5313 Q67.9063,16.6875 68.4688,16.9844 L68.4688,19.7031 Q67.8438,19.125 67.25,18.8594 Q66.6563,18.5781 66.0313,18.5781 Q64.6875,18.5781 64,19.6563 Q63.3125,20.7188 63.3125,22.8125 Q63.3125,24.9063 64,25.9844 Q64.6875,27.0469 66.0313,27.0469 Q66.6563,27.0469 67.25,26.7813 Q67.8438,26.5 68.4688,25.9219 L68.4688,28.6406 Z " fill="#000000"/><text fill="#000000" font-family="sans-serif" font-size="14" lengthAdjust="spacing" textLength="52" x="79.5" y="27.8467">YAFTAF</text><line style="stroke:#555555;stroke-width:0.5;" x1="51.5" x2="133.5" y1="39" y2="39"/><line style="stroke:#555555;stroke-width:0.5;" x1="51.5" x2="133.5" y1="47" y2="47"/></g><!--MD5=[26c5dd049598b62355777e60caa556cf]
class INewOpenCVMat--><g id="elem_INewOpenCVMat"><rect codeLine="30" fill="#FFFFFF" height="48" id="INewOpenCVMat" rx="2.5" ry="2.5" style="stroke:#555555;stroke-width:0.5;" width="150" x="169.5" y="7"/><rect fill="#808080" height="32" rx="2.5" ry="2.5" style="stroke:#808080;stroke-width:0.5;" width="150" x="169.5" y="7"/><rect fill="#808080" height="2.5" style="stroke:#808080;stroke-width:0.5;" width="150" x="169.5" y="36.5"/><rect codeLine="30" fill="none" height="48" id="INewOpenCVMat" rx="2.5" ry="2.5" style="stroke:#555555;stroke-width:0.5;" width="150" x="169.5" y="7"/><ellipse cx="184.5" cy="23" fill="#B4A7E5" rx="11" ry="11" style="stroke:#181818;stroke-width:1.0;"/><path d="M180.4219,18.7656 L180.4219,16.6094 L187.8125,16.6094 L187.8125,18.7656 L185.3438,18.7656 L185.3438,26.8438 L187.8125,26.8438 L187.8125,29 L180.4219,29 L180.4219,26.8438 L182.8906,26.8438 L182.8906,18.7656 L180.4219,18.7656 Z " fill="#000000"/><text fill="#000000" font-family="sans-serif" font-size="14" font-style="italic" lengthAdjust="spacing" textLength="118" x="198.5" y="27.8467">INewOpenCVMat</text><line style="stroke:#555555;stroke-width:0.5;" x1="170.5" x2="318.5" y1="39" y2="39"/><line style="stroke:#555555;stroke-width:0.5;" x1="170.5" x2="318.5" y1="47" y2="47"/></g><!--MD5=[fa9f007be859bf43007ba002c5b16515]
class ITAFObject--><g id="elem_ITAFObject"><rect fill="#FFFFFF" height="48" id="ITAFObject" rx="2.5" ry="2.5" style="stroke:#555555;stroke-width:0.5;" width="106" x="115.5" y="500"/><rect fill="#808080" height="32" rx="2.5" ry="2.5" style="stroke:#808080;stroke-width:0.5;" width="106" x="115.5" y="500"/><rect fill="#808080" height="2.5" style="stroke:#808080;stroke-width:0.5;" width="106" x="115.5" y="529.5"/><rect fill="none" height="48" id="ITAFObject" rx="2.5" ry="2.5" style="stroke:#555555;stroke-width:0.5;" width="106" x="115.5" y="500"/><ellipse cx="130.5" cy="516" fill="#ADD1B2" rx="11" ry="11" style="stroke:#181818;stroke-width:1.0;"/><path d="M133.4688,521.6406 Q132.8906,521.9375 132.25,522.0781 Q131.6094,522.2344 130.9063,522.2344 Q128.4063,522.2344 127.0781,520.5938 Q125.7656,518.9375 125.7656,515.8125 Q125.7656,512.6875 127.0781,511.0313 Q128.4063,509.375 130.9063,509.375 Q131.6094,509.375 132.25,509.5313 Q132.9063,509.6875 133.4688,509.9844 L133.4688,512.7031 Q132.8438,512.125 132.25,511.8594 Q131.6563,511.5781 131.0313,511.5781 Q129.6875,511.5781 129,512.6563 Q128.3125,513.7188 128.3125,515.8125 Q128.3125,517.9063 129,518.9844 Q129.6875,520.0469 131.0313,520.0469 Q131.6563,520.0469 132.25,519.7813 Q132.8438,519.5 133.4688,518.9219 L133.4688,521.6406 Z " fill="#000000"/><text fill="#000000" font-family="sans-serif" font-size="14" lengthAdjust="spacing" textLength="74" x="144.5" y="520.8467">ITAFObject</text><line style="stroke:#555555;stroke-width:0.5;" x1="116.5" x2="220.5" y1="532" y2="532"/><line style="stroke:#555555;stroke-width:0.5;" x1="116.5" x2="220.5" y1="540" y2="540"/></g><!--MD5=[93edfa71c5c3321d06e1e7970a1e59b7]
reverse link YAFTAF to OpenCVFaceDetection--><g id="link_YAFTAF_OpenCVFaceDetection"><path codeLine="28" d="M105.67,74.37 C109.39,86.33 113.67,100.11 118.22,114.74 " fill="none" id="YAFTAF-backto-OpenCVFaceDetection" style="stroke:#181818;stroke-width:1.0;"/><polygon fill="none" points="98.9,76.18,99.65,55,112.27,72.02,98.9,76.18" style="stroke:#181818;stroke-width:1.0;"/></g><!--MD5=[c89f29fc326a147f6d57c20c7f333eaa]
reverse link INewOpenCVMat to OpenCVFaceDetection--><g id="link_INewOpenCVMat_OpenCVFaceDetection"><path codeLine="29" d="M231.33,74.37 C227.61,86.33 223.33,100.11 218.78,114.74 " fill="none" id="INewOpenCVMat-backto-OpenCVFaceDetection" style="stroke:#181818;stroke-width:1.0;stroke-dasharray:7.0,7.0;"/><polygon fill="none" points="224.73,72.02,237.35,55,238.1,76.18,224.73,72.02" style="stroke:#181818;stroke-width:1.0;"/></g><!--MD5=[766e9263b529e8c5ec05affb747c2e17]
reverse link OpenCVFaceDetection to ITAFObject--><g id="link_OpenCVFaceDetection_ITAFObject"><path codeLine="32" d="M168.5,453.32 C168.5,471.36 168.5,487.51 168.5,499.71 " fill="none" id="OpenCVFaceDetection-backto-ITAFObject" style="stroke:#181818;stroke-width:1.0;"/><polygon fill="#181818" points="168.5,440.22,164.5,446.22,168.5,452.22,172.5,446.22,168.5,440.22" style="stroke:#181818;stroke-width:1.0;"/></g><!--MD5=[1f802c857f7bf1366e501145eac77c96]
@startuml
set namespaceSeparator :
skinparam ClassBackgroundColor #FFFFFF
skinparam ClassBorderColor #555555
skinparam ClassFontColor #000000
skinparam ClassHeaderBackgroundColor #808080

skinparam top to bottom direction
class "OpenCVFaceDetection" {
{field} -ExternalInterfaces : Cluster
{field} -Local : Cluster
{field} -Persistent : Cluster
{static} {method} -OpenCVFaceDetection_CastUIEvent()
{static} {method} -OpenCVFaceDetection_ClassCast()
{static} {method} #OpenCVFaceDetection_SendUiEvent()
{static} {method} +OpenCVFaceDetection_TemplateMethod()
{static} {method} +OpenCVFaceDetection_NewMat()
{method} #Constructor()
{method} #Destructor()
{method} #WritePersistentConfiguration()
{method} #ReadPersistentConfiguration()
{method} #ReadExternalInterfaces()
{method} #WriteExternalInterfaces()
{method} +NewMat()
{method} +TemplateMethod()
{method} #MainGUI()

}
"YAFTAF" <|- - "OpenCVFaceDetection"
"INewOpenCVMat" <|.. "OpenCVFaceDetection"
interface "INewOpenCVMat" {}

"OpenCVFaceDetection" *- - "ITAFObject"



@enduml

PlantUML version 1.2022.12(Sun Oct 23 18:12:26 GMT 2022)
(GPL source distribution)
Java Runtime: OpenJDK Runtime Environment
JVM: OpenJDK 64-Bit Server VM
Default Encoding: UTF-8
Language: en
Country: US
--></g></svg>