<?xml version="1.0" encoding="UTF-8" standalone="no"?><svg xmlns="http://www.w3.org/2000/svg" xmlns:xlink="http://www.w3.org/1999/xlink" contentStyleType="text/css" height="202px" preserveAspectRatio="none" style="width:150px;height:202px;background:#FFFFFF;" version="1.1" viewBox="0 0 150 202" width="150px" zoomAndPan="magnify"><defs/><g><!--MD5=[0154008576c8d5ee615f41e1a3ff350e]
class ICreateDestroy--><g id="elem_ICreateDestroy"><rect codeLine="8" fill="#FFFFFF" height="80.5938" id="ICreateDestroy" rx="2.5" ry="2.5" style="stroke:#555555;stroke-width:0.5;" width="136" x="7" y="115"/><rect fill="#808080" height="32" rx="2.5" ry="2.5" style="stroke:#808080;stroke-width:0.5;" width="136" x="7" y="115"/><rect fill="#808080" height="2.5" style="stroke:#808080;stroke-width:0.5;" width="136" x="7" y="144.5"/><rect codeLine="8" fill="none" height="80.5938" id="ICreateDestroy" rx="2.5" ry="2.5" style="stroke:#555555;stroke-width:0.5;" width="136" x="7" y="115"/><ellipse cx="22" cy="131" fill="#B4A7E5" rx="11" ry="11" style="stroke:#181818;stroke-width:1.0;"/><path d="M17.9219,126.7656 L17.9219,124.6094 L25.3125,124.6094 L25.3125,126.7656 L22.8438,126.7656 L22.8438,134.8438 L25.3125,134.8438 L25.3125,137 L17.9219,137 L17.9219,134.8438 L20.3906,134.8438 L20.3906,126.7656 L17.9219,126.7656 Z " fill="#000000"/><text fill="#000000" font-family="sans-serif" font-size="14" font-style="italic" lengthAdjust="spacing" textLength="104" x="36" y="135.8467">ICreateDestroy</text><line style="stroke:#555555;stroke-width:0.5;" x1="8" x2="142" y1="147" y2="147"/><line style="stroke:#555555;stroke-width:0.5;" x1="8" x2="142" y1="155" y2="155"/><ellipse cx="18" cy="168.6484" fill="#84BE84" rx="3" ry="3" style="stroke:#038048;stroke-width:1.0;"/><text fill="#000000" font-family="sans-serif" font-size="14" lengthAdjust="spacing" textLength="56" x="27" y="171.9951">Create()</text><ellipse cx="18" cy="184.9453" fill="#84BE84" rx="3" ry="3" style="stroke:#038048;stroke-width:1.0;"/><text fill="#000000" font-family="sans-serif" font-size="14" lengthAdjust="spacing" textLength="64" x="27" y="188.292">Destroy()</text></g><!--MD5=[065ef51c0b83ac26c2e8b4ca504d0938]
class IInterface--><g id="elem_IInterface"><rect codeLine="14" fill="#FFFFFF" height="48" id="IInterface" rx="2.5" ry="2.5" style="stroke:#555555;stroke-width:0.5;" width="97" x="26.5" y="7"/><rect fill="#808080" height="32" rx="2.5" ry="2.5" style="stroke:#808080;stroke-width:0.5;" width="97" x="26.5" y="7"/><rect fill="#808080" height="2.5" style="stroke:#808080;stroke-width:0.5;" width="97" x="26.5" y="36.5"/><rect codeLine="14" fill="none" height="48" id="IInterface" rx="2.5" ry="2.5" style="stroke:#555555;stroke-width:0.5;" width="97" x="26.5" y="7"/><ellipse cx="41.5" cy="23" fill="#B4A7E5" rx="11" ry="11" style="stroke:#181818;stroke-width:1.0;"/><path d="M37.4219,18.7656 L37.4219,16.6094 L44.8125,16.6094 L44.8125,18.7656 L42.3438,18.7656 L42.3438,26.8438 L44.8125,26.8438 L44.8125,29 L37.4219,29 L37.4219,26.8438 L39.8906,26.8438 L39.8906,18.7656 L37.4219,18.7656 Z " fill="#000000"/><text fill="#000000" font-family="sans-serif" font-size="14" font-style="italic" lengthAdjust="spacing" textLength="65" x="55.5" y="27.8467">IInterface</text><line style="stroke:#555555;stroke-width:0.5;" x1="27.5" x2="122.5" y1="39" y2="39"/><line style="stroke:#555555;stroke-width:0.5;" x1="27.5" x2="122.5" y1="47" y2="47"/></g><!--MD5=[d29f24f376d1c9c2ad849cdd5ff67fae]
reverse link IInterface to ICreateDestroy--><g id="link_IInterface_ICreateDestroy"><path codeLine="13" d="M75,75.14 C75,88 75,102.04 75,114.69 " fill="none" id="IInterface-backto-ICreateDestroy" style="stroke:#181818;stroke-width:1.0;stroke-dasharray:7.0,7.0;"/><polygon fill="none" points="68,75.04,75,55.04,82,75.04,68,75.04" style="stroke:#181818;stroke-width:1.0;"/></g><!--MD5=[4c614dc94a2b6f0e39e377230384d46e]
@startuml
set namespaceSeparator :
skinparam ClassBackgroundColor #FFFFFF
skinparam ClassBorderColor #555555
skinparam ClassFontColor #000000
skinparam ClassHeaderBackgroundColor #808080

skinparam top to bottom direction
interface "ICreateDestroy" {
{method} +Create()
{method} +Destroy()

}
"IInterface" <|.. "ICreateDestroy"
interface "IInterface" {}




@enduml

PlantUML version 1.2022.12(Sun Oct 23 18:12:26 GMT 2022)
(GPL source distribution)
Java Runtime: OpenJDK Runtime Environment
JVM: OpenJDK 64-Bit Server VM
Default Encoding: UTF-8
Language: en
Country: US
--></g></svg>