<?xml version="1.0" encoding="UTF-8" standalone="no"?><svg xmlns="http://www.w3.org/2000/svg" xmlns:xlink="http://www.w3.org/1999/xlink" contentStyleType="text/css" height="405px" preserveAspectRatio="none" style="width:223px;height:405px;background:#FFFFFF;" version="1.1" viewBox="0 0 223 405" width="223px" zoomAndPan="magnify"><defs/><g><!--MD5=[0598474d39ed4a9017b81a2a55acc3b1]
class TAFBaseGUI--><g id="elem_TAFBaseGUI"><rect codeLine="8" fill="#FFFFFF" height="283.199" id="TAFBaseGUI" rx="2.5" ry="2.5" style="stroke:#555555;stroke-width:0.5;" width="207" x="9" y="115"/><rect fill="#808080" height="32" rx="2.5" ry="2.5" style="stroke:#808080;stroke-width:0.5;" width="207" x="9" y="115"/><rect fill="#808080" height="2.5" style="stroke:#808080;stroke-width:0.5;" width="207" x="9" y="144.5"/><rect codeLine="8" fill="none" height="283.199" id="TAFBaseGUI" rx="2.5" ry="2.5" style="stroke:#555555;stroke-width:0.5;" width="207" x="9" y="115"/><ellipse cx="67.25" cy="131" fill="#ADD1B2" rx="11" ry="11" style="stroke:#181818;stroke-width:1.0;"/><path d="M66.6094,134.7813 Q67.4063,134.7813 67.9688,134.5938 Q68.5469,134.3906 68.7813,134.1719 Q69.0313,133.9375 69.2656,133.75 Q69.5156,133.5469 69.7344,133.5469 Q70.0781,133.5469 70.3281,133.8125 Q70.5938,134.0625 70.5938,134.3906 Q70.5938,135.125 69.4219,135.8125 Q68.2656,136.4844 66.5625,136.4844 Q64.4063,136.4844 62.9844,135.2188 Q61.5625,133.9531 61.5625,132.0156 L61.5625,130.8906 Q61.5625,128.8594 62.8906,127.4844 Q64.2188,126.0938 66.1875,126.0938 Q67.375,126.0938 68.5938,126.6719 L68.7656,126.75 Q69.0625,126.3438 69.4844,126.3438 Q69.9688,126.3438 70.1406,126.6406 Q70.3281,126.9219 70.3281,127.4688 L70.3281,128.8906 Q70.3281,130.0156 69.4844,130.0156 Q69.1719,130.0156 68.9688,129.8438 Q68.7813,129.6719 68.7344,129.5313 Q68.7031,129.375 68.6563,129.1094 Q68.5469,128.5938 68.0313,128.2813 Q67.5156,127.9688 67.0625,127.8906 Q66.625,127.7969 66.25,127.7969 Q64.9688,127.7969 64.1094,128.6719 Q63.2656,129.5469 63.2656,130.8906 L63.2656,131.9844 Q63.2656,133.2656 64.1719,134.0313 Q65.0781,134.7813 66.6094,134.7813 Z " fill="#000000"/><text fill="#000000" font-family="sans-serif" font-size="14" lengthAdjust="spacing" textLength="82" x="87.75" y="136.6">TAFBaseGUI</text><line style="stroke:#555555;stroke-width:0.5;" x1="10" x2="215" y1="147" y2="147"/><rect fill="none" height="6" style="stroke:#C82930;stroke-width:1.0;" width="6" x="17" y="155"/><text fill="#000000" font-family="sans-serif" font-size="14" lengthAdjust="spacing" textLength="59" x="29" y="164.9999">Ref : U32</text><line style="stroke:#555555;stroke-width:0.5;" x1="10" x2="215" y1="171.7999" y2="171.7999"/><polygon fill="#FFFF44" points="20,177.7999,24,181.7999,20,185.7999,16,181.7999" style="stroke:#B38D22;stroke-width:1.0;"/><text fill="#000000" font-family="sans-serif" font-size="14" lengthAdjust="spacing" text-decoration="underline" textLength="106" x="29" y="189.7999">UnknownAction()</text><polygon fill="#FFFF44" points="20,194.5999,24,198.5999,20,202.5999,16,198.5999" style="stroke:#B38D22;stroke-width:1.0;"/><text fill="#000000" font-family="sans-serif" font-size="14" lengthAdjust="spacing" text-decoration="underline" textLength="127" x="29" y="206.5998">TAFBaseGUI_New()</text><polygon fill="#FFFF44" points="20,211.3998,24,215.3998,20,219.3998,16,215.3998" style="stroke:#B38D22;stroke-width:1.0;"/><text fill="#000000" font-family="sans-serif" font-size="14" lengthAdjust="spacing" text-decoration="underline" textLength="181" x="29" y="223.3997">TAFBaseGUI_GetAttributes()</text><ellipse cx="20" cy="233.1997" fill="#84BE84" rx="3" ry="3" style="stroke:#038048;stroke-width:1.0;"/><text fill="#000000" font-family="sans-serif" font-size="14" lengthAdjust="spacing" text-decoration="underline" textLength="141" x="29" y="240.1996">TAFBaseGUI_Create()</text><ellipse cx="20" cy="249.9996" fill="#84BE84" rx="3" ry="3" style="stroke:#038048;stroke-width:1.0;"/><text fill="#000000" font-family="sans-serif" font-size="14" lengthAdjust="spacing" textLength="51" x="29" y="256.9996">Create()</text><ellipse cx="20" cy="266.7996" fill="#84BE84" rx="3" ry="3" style="stroke:#038048;stroke-width:1.0;"/><text fill="#000000" font-family="sans-serif" font-size="14" lengthAdjust="spacing" textLength="66" x="29" y="273.7995">SetName()</text><ellipse cx="20" cy="283.5995" fill="#84BE84" rx="3" ry="3" style="stroke:#038048;stroke-width:1.0;"/><text fill="#000000" font-family="sans-serif" font-size="14" lengthAdjust="spacing" textLength="68" x="29" y="290.5994">GetName()</text><ellipse cx="20" cy="300.3994" fill="#84BE84" rx="3" ry="3" style="stroke:#038048;stroke-width:1.0;"/><text fill="#000000" font-family="sans-serif" font-size="14" lengthAdjust="spacing" textLength="176" x="29" y="307.3994">GetPersistentConfiguration()</text><ellipse cx="20" cy="317.1993" fill="#84BE84" rx="3" ry="3" style="stroke:#038048;stroke-width:1.0;"/><text fill="#000000" font-family="sans-serif" font-size="14" lengthAdjust="spacing" textLength="174" x="29" y="324.1993">SetPersistentConfiguration()</text><ellipse cx="20" cy="333.9993" fill="#84BE84" rx="3" ry="3" style="stroke:#038048;stroke-width:1.0;"/><text fill="#000000" font-family="sans-serif" font-size="14" lengthAdjust="spacing" textLength="57" x="29" y="340.9992">Destroy()</text><ellipse cx="20" cy="350.7992" fill="#84BE84" rx="3" ry="3" style="stroke:#038048;stroke-width:1.0;"/><text fill="#000000" font-family="sans-serif" font-size="14" lengthAdjust="spacing" textLength="144" x="29" y="357.7991">GetExternalInterfaces()</text><ellipse cx="20" cy="367.5991" fill="#84BE84" rx="3" ry="3" style="stroke:#038048;stroke-width:1.0;"/><text fill="#000000" font-family="sans-serif" font-size="14" lengthAdjust="spacing" textLength="142" x="29" y="374.5991">SetExternalInterfaces()</text><ellipse cx="20" cy="384.399" fill="#84BE84" rx="3" ry="3" style="stroke:#038048;stroke-width:1.0;"/><text fill="#000000" font-family="sans-serif" font-size="14" lengthAdjust="spacing" textLength="99" x="29" y="391.399">GetFrontPanel()</text></g><!--MD5=[fa9f007be859bf43007ba002c5b16515]
class ITAFObject--><g id="elem_ITAFObject"><rect codeLine="26" fill="#FFFFFF" height="48" id="ITAFObject" rx="2.5" ry="2.5" style="stroke:#555555;stroke-width:0.5;" width="103" x="61" y="7"/><rect fill="#808080" height="32" rx="2.5" ry="2.5" style="stroke:#808080;stroke-width:0.5;" width="103" x="61" y="7"/><rect fill="#808080" height="2.5" style="stroke:#808080;stroke-width:0.5;" width="103" x="61" y="36.5"/><rect codeLine="26" fill="none" height="48" id="ITAFObject" rx="2.5" ry="2.5" style="stroke:#555555;stroke-width:0.5;" width="103" x="61" y="7"/><ellipse cx="76" cy="23" fill="#B4A7E5" rx="11" ry="11" style="stroke:#181818;stroke-width:1.0;"/><path d="M78.6719,26.2969 Q79.2188,26.2969 79.5,26.4844 Q79.7813,26.6563 79.7813,27.1563 Q79.7813,28 78.6719,28 L73.5313,28 Q72.4063,28 72.4063,27.1563 Q72.4063,26.6563 72.6875,26.4844 Q72.9844,26.2969 73.5313,26.2969 L75.25,26.2969 L75.25,19.7813 L73.5313,19.7813 Q72.4063,19.7813 72.4063,18.9375 Q72.4063,18.4531 72.6875,18.2813 Q72.9844,18.0938 73.5313,18.0938 L78.6719,18.0938 Q79.2188,18.0938 79.5,18.2813 Q79.7813,18.4531 79.7813,18.9375 Q79.7813,19.7813 78.6719,19.7813 L76.9531,19.7813 L76.9531,26.2969 L78.6719,26.2969 Z " fill="#000000"/><text fill="#000000" font-family="sans-serif" font-size="14" font-style="italic" lengthAdjust="spacing" textLength="71" x="90" y="28.6">ITAFObject</text><line style="stroke:#555555;stroke-width:0.5;" x1="62" x2="163" y1="39" y2="39"/><line style="stroke:#555555;stroke-width:0.5;" x1="62" x2="163" y1="47" y2="47"/></g><!--MD5=[b6bb2ebe61e871c36fc9ded3c375f573]
reverse link ITAFObject to TAFBaseGUI--><g id="link_ITAFObject_TAFBaseGUI"><path codeLine="25" d="M112.5,75.46 C112.5,87.25 112.5,100.69 112.5,114.78 " fill="none" id="ITAFObject-backto-TAFBaseGUI" style="stroke:#181818;stroke-width:1.0;stroke-dasharray:7.0,7.0;"/><polygon fill="none" points="105.5,75.08,112.5,55.08,119.5,75.08,105.5,75.08" style="stroke:#181818;stroke-width:1.0;"/></g><!--MD5=[8cc920e903557932dfd1424b5cf820de]
@startuml
set namespaceSeparator :
skinparam ClassBackgroundColor #FFFFFF
skinparam ClassBorderColor #555555
skinparam ClassFontColor #000000
skinparam ClassHeaderBackgroundColor #808080

skinparam top to bottom direction
class "TAFBaseGUI" {
{field} -Ref : U32
{static} {method} #UnknownAction()
{static} {method} #TAFBaseGUI_New()
{static} {method} #TAFBaseGUI_GetAttributes()
{static} {method} +TAFBaseGUI_Create()
{method} +Create()
{method} +SetName()
{method} +GetName()
{method} +GetPersistentConfiguration()
{method} +SetPersistentConfiguration()
{method} +Destroy()
{method} +GetExternalInterfaces()
{method} +SetExternalInterfaces()
{method} +GetFrontPanel()

}
"ITAFObject" <|.. "TAFBaseGUI"
interface "ITAFObject" {}




@enduml

PlantUML version 1.2022.5(Sat Apr 30 10:55:52 GMT 2022)
(GPL source distribution)
Java Runtime: OpenJDK Runtime Environment
JVM: OpenJDK 64-Bit Server VM
Default Encoding: UTF-8
Language: en
Country: US
--></g></svg>