<?xml version="1.0" encoding="UTF-8" standalone="no"?><svg xmlns="http://www.w3.org/2000/svg" xmlns:xlink="http://www.w3.org/1999/xlink" contentStyleType="text/css" height="203px" preserveAspectRatio="none" style="width:177px;height:203px;background:#FFFFFF;" version="1.1" viewBox="0 0 177 203" width="177px" zoomAndPan="magnify"><defs/><g><!--MD5=[279d10572fd96349ac6b0a9cb9c87a2e]
class ITAFGUIActions--><g id="elem_ITAFGUIActions"><rect codeLine="8" fill="#FFFFFF" height="81.5999" id="ITAFGUIActions" rx="2.5" ry="2.5" style="stroke:#555555;stroke-width:0.5;" width="163" x="7" y="115"/><rect fill="#808080" height="32" rx="2.5" ry="2.5" style="stroke:#808080;stroke-width:0.5;" width="163" x="7" y="115"/><rect fill="#808080" height="2.5" style="stroke:#808080;stroke-width:0.5;" width="163" x="7" y="144.5"/><rect codeLine="8" fill="none" height="81.5999" id="ITAFGUIActions" rx="2.5" ry="2.5" style="stroke:#555555;stroke-width:0.5;" width="163" x="7" y="115"/><ellipse cx="35.5" cy="131" fill="#B4A7E5" rx="11" ry="11" style="stroke:#181818;stroke-width:1.0;"/><path d="M38.1719,134.2969 Q38.7188,134.2969 39,134.4844 Q39.2813,134.6563 39.2813,135.1563 Q39.2813,136 38.1719,136 L33.0313,136 Q31.9063,136 31.9063,135.1563 Q31.9063,134.6563 32.1875,134.4844 Q32.4844,134.2969 33.0313,134.2969 L34.75,134.2969 L34.75,127.7813 L33.0313,127.7813 Q31.9063,127.7813 31.9063,126.9375 Q31.9063,126.4531 32.1875,126.2813 Q32.4844,126.0938 33.0313,126.0938 L38.1719,126.0938 Q38.7188,126.0938 39,126.2813 Q39.2813,126.4531 39.2813,126.9375 Q39.2813,127.7813 38.1719,127.7813 L36.4531,127.7813 L36.4531,134.2969 L38.1719,134.2969 Z " fill="#000000"/><text fill="#000000" font-family="sans-serif" font-size="14" font-style="italic" lengthAdjust="spacing" textLength="101" x="52.5" y="136.6">ITAFGUIActions</text><line style="stroke:#555555;stroke-width:0.5;" x1="8" x2="169" y1="147" y2="147"/><line style="stroke:#555555;stroke-width:0.5;" x1="8" x2="169" y1="155" y2="155"/><ellipse cx="18" cy="166" fill="#84BE84" rx="3" ry="3" style="stroke:#038048;stroke-width:1.0;"/><text fill="#000000" font-family="sans-serif" font-size="14" lengthAdjust="spacing" textLength="137" x="27" y="172.9999">ExecuteButtonAction()</text><ellipse cx="18" cy="182.7999" fill="#84BE84" rx="3" ry="3" style="stroke:#038048;stroke-width:1.0;"/><text fill="#000000" font-family="sans-serif" font-size="14" lengthAdjust="spacing" textLength="99" x="27" y="189.7999">GetFrontPanel()</text></g><!--MD5=[163b904ce3f0cc2f7db427f2921361dd]
class IFrontPanel--><g id="elem_IFrontPanel"><rect codeLine="14" fill="#FFFFFF" height="48" id="IFrontPanel" rx="2.5" ry="2.5" style="stroke:#555555;stroke-width:0.5;" width="105" x="36" y="7"/><rect fill="#808080" height="32" rx="2.5" ry="2.5" style="stroke:#808080;stroke-width:0.5;" width="105" x="36" y="7"/><rect fill="#808080" height="2.5" style="stroke:#808080;stroke-width:0.5;" width="105" x="36" y="36.5"/><rect codeLine="14" fill="none" height="48" id="IFrontPanel" rx="2.5" ry="2.5" style="stroke:#555555;stroke-width:0.5;" width="105" x="36" y="7"/><ellipse cx="51" cy="23" fill="#B4A7E5" rx="11" ry="11" style="stroke:#181818;stroke-width:1.0;"/><path d="M53.6719,26.2969 Q54.2188,26.2969 54.5,26.4844 Q54.7813,26.6563 54.7813,27.1563 Q54.7813,28 53.6719,28 L48.5313,28 Q47.4063,28 47.4063,27.1563 Q47.4063,26.6563 47.6875,26.4844 Q47.9844,26.2969 48.5313,26.2969 L50.25,26.2969 L50.25,19.7813 L48.5313,19.7813 Q47.4063,19.7813 47.4063,18.9375 Q47.4063,18.4531 47.6875,18.2813 Q47.9844,18.0938 48.5313,18.0938 L53.6719,18.0938 Q54.2188,18.0938 54.5,18.2813 Q54.7813,18.4531 54.7813,18.9375 Q54.7813,19.7813 53.6719,19.7813 L51.9531,19.7813 L51.9531,26.2969 L53.6719,26.2969 Z " fill="#000000"/><text fill="#000000" font-family="sans-serif" font-size="14" font-style="italic" lengthAdjust="spacing" textLength="73" x="65" y="28.6">IFrontPanel</text><line style="stroke:#555555;stroke-width:0.5;" x1="37" x2="140" y1="39" y2="39"/><line style="stroke:#555555;stroke-width:0.5;" x1="37" x2="140" y1="47" y2="47"/></g><!--MD5=[2c02a5a52fe6bdc5552e65100d5e088c]
reverse link IFrontPanel to ITAFGUIActions--><g id="link_IFrontPanel_ITAFGUIActions"><path codeLine="13" d="M88.5,75.6 C88.5,88.28 88.5,102.06 88.5,114.53 " fill="none" id="IFrontPanel-backto-ITAFGUIActions" style="stroke:#181818;stroke-width:1.0;stroke-dasharray:7.0,7.0;"/><polygon fill="none" points="81.5,75.14,88.5,55.14,95.5,75.14,81.5,75.14" style="stroke:#181818;stroke-width:1.0;"/></g><!--MD5=[ffd30e8fcac9104e5c06a6cadc1ff316]
@startuml
set namespaceSeparator :
skinparam ClassBackgroundColor #FFFFFF
skinparam ClassBorderColor #555555
skinparam ClassFontColor #000000
skinparam ClassHeaderBackgroundColor #808080

skinparam top to bottom direction
interface "ITAFGUIActions" {
{method} +ExecuteButtonAction()
{method} +GetFrontPanel()

}
"IFrontPanel" <|.. "ITAFGUIActions"
interface "IFrontPanel" {}




@enduml

PlantUML version 1.2022.5(Sat Apr 30 10:55:52 GMT 2022)
(GPL source distribution)
Java Runtime: OpenJDK Runtime Environment
JVM: OpenJDK 64-Bit Server VM
Default Encoding: UTF-8
Language: en
Country: US
--></g></svg>