<?xml version="1.0" encoding="UTF-8" standalone="no"?><svg xmlns="http://www.w3.org/2000/svg" xmlns:xlink="http://www.w3.org/1999/xlink" contentStyleType="text/css" height="572px" preserveAspectRatio="none" style="width:450px;height:572px;background:#FFFFFF;" version="1.1" viewBox="0 0 450 572" width="450px" zoomAndPan="magnify"><defs/><g><!--MD5=[854e1057310278c0d3cb22885d40ce44]
cluster UserMananger.lvlib--><g id="cluster_UserMananger.lvlib"><path d="M83.5,80 L215.5,80 A3.75,3.75 0 0 1 218,82.5 L225,102.7999 L348.5,102.7999 A2.5,2.5 0 0 1 351,105.2999 L351,562.5 A2.5,2.5 0 0 1 348.5,565 L83.5,565 A2.5,2.5 0 0 1 81,562.5 L81,82.5 A2.5,2.5 0 0 1 83.5,80 " style="stroke:#000000;stroke-width:1.5;fill:none;"/><line style="stroke:#000000;stroke-width:1.5;fill:none;" x1="81" x2="225" y1="102.7999" y2="102.7999"/><text fill="#000000" font-family="sans-serif" font-size="14" font-weight="bold" lengthAdjust="spacing" textLength="131" x="85" y="95.9999">UserMananger.lvlib</text></g><!--MD5=[304fb03b13331fbd48a027e3d840bd92]
class UserMananger.lvlib:UserManager--><g id="elem_UserMananger.lvlib:UserManager"><rect codeLine="8" fill="#FFFFFF" height="434.3983" id="UserMananger.lvlib:UserManager" rx="2.5" ry="2.5" style="stroke:#555555;stroke-width:0.5;" width="239" x="96.5" y="115"/><rect fill="#808080" height="32" rx="2.5" ry="2.5" style="stroke:#808080;stroke-width:0.5;" width="239" x="96.5" y="115"/><rect fill="#808080" height="2.5" style="stroke:#808080;stroke-width:0.5;" width="239" x="96.5" y="144.5"/><rect codeLine="8" fill="none" height="434.3983" id="UserMananger.lvlib:UserManager" rx="2.5" ry="2.5" style="stroke:#555555;stroke-width:0.5;" width="239" x="96.5" y="115"/><ellipse cx="169.25" cy="131" fill="#ADD1B2" rx="11" ry="11" style="stroke:#181818;stroke-width:1.0;"/><path d="M168.6094,134.7813 Q169.4063,134.7813 169.9688,134.5938 Q170.5469,134.3906 170.7813,134.1719 Q171.0313,133.9375 171.2656,133.75 Q171.5156,133.5469 171.7344,133.5469 Q172.0781,133.5469 172.3281,133.8125 Q172.5938,134.0625 172.5938,134.3906 Q172.5938,135.125 171.4219,135.8125 Q170.2656,136.4844 168.5625,136.4844 Q166.4063,136.4844 164.9844,135.2188 Q163.5625,133.9531 163.5625,132.0156 L163.5625,130.8906 Q163.5625,128.8594 164.8906,127.4844 Q166.2188,126.0938 168.1875,126.0938 Q169.375,126.0938 170.5938,126.6719 L170.7656,126.75 Q171.0625,126.3438 171.4844,126.3438 Q171.9688,126.3438 172.1406,126.6406 Q172.3281,126.9219 172.3281,127.4688 L172.3281,128.8906 Q172.3281,130.0156 171.4844,130.0156 Q171.1719,130.0156 170.9688,129.8438 Q170.7813,129.6719 170.7344,129.5313 Q170.7031,129.375 170.6563,129.1094 Q170.5469,128.5938 170.0313,128.2813 Q169.5156,127.9688 169.0625,127.8906 Q168.625,127.7969 168.25,127.7969 Q166.9688,127.7969 166.1094,128.6719 Q165.2656,129.5469 165.2656,130.8906 L165.2656,131.9844 Q165.2656,133.2656 166.1719,134.0313 Q167.0781,134.7813 168.6094,134.7813 Z " fill="#000000"/><text fill="#000000" font-family="sans-serif" font-size="14" lengthAdjust="spacing" textLength="85" x="189.75" y="136.6">UserManager</text><line style="stroke:#555555;stroke-width:0.5;" x1="97.5" x2="334.5" y1="147" y2="147"/><rect fill="none" height="6" style="stroke:#C82930;stroke-width:1.0;" width="6" x="104.5" y="155"/><text fill="#000000" font-family="sans-serif" font-size="14" lengthAdjust="spacing" textLength="59" x="116.5" y="164.9999">Ref : U32</text><line style="stroke:#555555;stroke-width:0.5;" x1="97.5" x2="334.5" y1="171.7999" y2="171.7999"/><polygon fill="#FFFF44" points="107.5,177.7999,111.5,181.7999,107.5,185.7999,103.5,181.7999" style="stroke:#B38D22;stroke-width:1.0;"/><text fill="#000000" font-family="sans-serif" font-size="14" lengthAdjust="spacing" text-decoration="underline" textLength="66" x="116.5" y="189.7999">MainGUI()</text><polygon fill="#FFFF44" points="107.5,194.5999,111.5,198.5999,107.5,202.5999,103.5,198.5999" style="stroke:#B38D22;stroke-width:1.0;"/><text fill="#000000" font-family="sans-serif" font-size="14" lengthAdjust="spacing" text-decoration="underline" textLength="96" x="116.5" y="206.5998">StartMainGUI()</text><polygon fill="#FFFF44" points="107.5,211.3998,111.5,215.3998,107.5,219.3998,103.5,215.3998" style="stroke:#B38D22;stroke-width:1.0;"/><text fill="#000000" font-family="sans-serif" font-size="14" lengthAdjust="spacing" text-decoration="underline" textLength="108" x="116.5" y="223.3997">RequestDestroy()</text><polygon fill="#FFFF44" points="107.5,228.1997,111.5,232.1997,107.5,236.1997,103.5,232.1997" style="stroke:#B38D22;stroke-width:1.0;"/><text fill="#000000" font-family="sans-serif" font-size="14" lengthAdjust="spacing" text-decoration="underline" textLength="94" x="116.5" y="240.1996">StopMainGUI()</text><polygon fill="#FFFF44" points="107.5,244.9996,111.5,248.9996,107.5,252.9996,103.5,248.9996" style="stroke:#B38D22;stroke-width:1.0;"/><text fill="#000000" font-family="sans-serif" font-size="14" lengthAdjust="spacing" text-decoration="underline" textLength="130" x="116.5" y="256.9996">UserManager_New()</text><polygon fill="#FFFF44" points="107.5,261.7996,111.5,265.7996,107.5,269.7996,103.5,265.7996" style="stroke:#B38D22;stroke-width:1.0;"/><text fill="#000000" font-family="sans-serif" font-size="14" lengthAdjust="spacing" text-decoration="underline" textLength="131" x="116.5" y="273.7995">MainGUIRepository()</text><polygon fill="#FFFF44" points="107.5,278.5995,111.5,282.5995,107.5,286.5995,103.5,282.5995" style="stroke:#B38D22;stroke-width:1.0;"/><text fill="#000000" font-family="sans-serif" font-size="14" lengthAdjust="spacing" text-decoration="underline" textLength="184" x="116.5" y="290.5994">UserManager_GetAttributes()</text><polygon fill="#FFFF44" points="107.5,295.3994,111.5,299.3994,107.5,303.3994,103.5,299.3994" style="stroke:#B38D22;stroke-width:1.0;"/><text fill="#000000" font-family="sans-serif" font-size="14" lengthAdjust="spacing" text-decoration="underline" textLength="208" x="116.5" y="307.3994">UserManager_SendAndReceive()</text><rect fill="#F24D5C" height="6" style="stroke:#C82930;stroke-width:1.0;" width="6" x="104.5" y="314.1993"/><text fill="#000000" font-family="sans-serif" font-size="14" lengthAdjust="spacing" text-decoration="underline" textLength="196" x="116.5" y="324.1993">UserManager_MainGUIActive()</text><ellipse cx="107.5" cy="333.9993" fill="#84BE84" rx="3" ry="3" style="stroke:#038048;stroke-width:1.0;"/><text fill="#000000" font-family="sans-serif" font-size="14" lengthAdjust="spacing" text-decoration="underline" textLength="144" x="116.5" y="340.9992">UserManager_Create()</text><ellipse cx="107.5" cy="350.7992" fill="#84BE84" rx="3" ry="3" style="stroke:#038048;stroke-width:1.0;"/><text fill="#000000" font-family="sans-serif" font-size="14" lengthAdjust="spacing" text-decoration="underline" textLength="159" x="116.5" y="357.7991">ControlMainGUIWindow()</text><ellipse cx="107.5" cy="367.5991" fill="#84BE84" rx="3" ry="3" style="stroke:#038048;stroke-width:1.0;"/><text fill="#000000" font-family="sans-serif" font-size="14" lengthAdjust="spacing" textLength="176" x="116.5" y="374.5991">GetPersistentConfiguration()</text><ellipse cx="107.5" cy="384.399" fill="#84BE84" rx="3" ry="3" style="stroke:#038048;stroke-width:1.0;"/><text fill="#000000" font-family="sans-serif" font-size="14" lengthAdjust="spacing" textLength="174" x="116.5" y="391.399">SetPersistentConfiguration()</text><ellipse cx="107.5" cy="401.199" fill="#84BE84" rx="3" ry="3" style="stroke:#038048;stroke-width:1.0;"/><text fill="#000000" font-family="sans-serif" font-size="14" lengthAdjust="spacing" textLength="144" x="116.5" y="408.1989">GetExternalInterfaces()</text><ellipse cx="107.5" cy="417.9989" fill="#84BE84" rx="3" ry="3" style="stroke:#038048;stroke-width:1.0;"/><text fill="#000000" font-family="sans-serif" font-size="14" lengthAdjust="spacing" textLength="137" x="116.5" y="424.9988">ExecuteButtonAction()</text><ellipse cx="107.5" cy="434.7988" fill="#84BE84" rx="3" ry="3" style="stroke:#038048;stroke-width:1.0;"/><text fill="#000000" font-family="sans-serif" font-size="14" lengthAdjust="spacing" textLength="142" x="116.5" y="441.7988">SetExternalInterfaces()</text><ellipse cx="107.5" cy="451.5988" fill="#84BE84" rx="3" ry="3" style="stroke:#038048;stroke-width:1.0;"/><text fill="#000000" font-family="sans-serif" font-size="14" lengthAdjust="spacing" textLength="51" x="116.5" y="458.5987">Create()</text><ellipse cx="107.5" cy="468.3987" fill="#84BE84" rx="3" ry="3" style="stroke:#038048;stroke-width:1.0;"/><text fill="#000000" font-family="sans-serif" font-size="14" lengthAdjust="spacing" textLength="57" x="116.5" y="475.3986">Destroy()</text><ellipse cx="107.5" cy="485.1986" fill="#84BE84" rx="3" ry="3" style="stroke:#038048;stroke-width:1.0;"/><text fill="#000000" font-family="sans-serif" font-size="14" lengthAdjust="spacing" textLength="99" x="116.5" y="492.1985">IsGUIRunning()</text><ellipse cx="107.5" cy="501.9985" fill="#84BE84" rx="3" ry="3" style="stroke:#038048;stroke-width:1.0;"/><text fill="#000000" font-family="sans-serif" font-size="14" lengthAdjust="spacing" textLength="99" x="116.5" y="508.9985">GetFrontPanel()</text><ellipse cx="107.5" cy="518.7985" fill="#84BE84" rx="3" ry="3" style="stroke:#038048;stroke-width:1.0;"/><text fill="#000000" font-family="sans-serif" font-size="14" lengthAdjust="spacing" textLength="102" x="116.5" y="525.7984">SetEvaluations()</text><ellipse cx="107.5" cy="535.5984" fill="#84BE84" rx="3" ry="3" style="stroke:#038048;stroke-width:1.0;"/><text fill="#000000" font-family="sans-serif" font-size="14" lengthAdjust="spacing" textLength="213" x="116.5" y="542.5983">EvaluateAuthorizationExpression()</text></g><!--MD5=[0598474d39ed4a9017b81a2a55acc3b1]
class TAFBaseGUI--><g id="elem_TAFBaseGUI"><rect fill="#FFFFFF" height="48" id="TAFBaseGUI" rx="2.5" ry="2.5" style="stroke:#555555;stroke-width:0.5;" width="114" x="7" y="7"/><rect fill="#808080" height="32" rx="2.5" ry="2.5" style="stroke:#808080;stroke-width:0.5;" width="114" x="7" y="7"/><rect fill="#808080" height="2.5" style="stroke:#808080;stroke-width:0.5;" width="114" x="7" y="36.5"/><rect fill="none" height="48" id="TAFBaseGUI" rx="2.5" ry="2.5" style="stroke:#555555;stroke-width:0.5;" width="114" x="7" y="7"/><ellipse cx="22" cy="23" fill="#ADD1B2" rx="11" ry="11" style="stroke:#181818;stroke-width:1.0;"/><path d="M21.3594,26.7813 Q22.1563,26.7813 22.7188,26.5938 Q23.2969,26.3906 23.5313,26.1719 Q23.7813,25.9375 24.0156,25.75 Q24.2656,25.5469 24.4844,25.5469 Q24.8281,25.5469 25.0781,25.8125 Q25.3438,26.0625 25.3438,26.3906 Q25.3438,27.125 24.1719,27.8125 Q23.0156,28.4844 21.3125,28.4844 Q19.1563,28.4844 17.7344,27.2188 Q16.3125,25.9531 16.3125,24.0156 L16.3125,22.8906 Q16.3125,20.8594 17.6406,19.4844 Q18.9688,18.0938 20.9375,18.0938 Q22.125,18.0938 23.3438,18.6719 L23.5156,18.75 Q23.8125,18.3438 24.2344,18.3438 Q24.7188,18.3438 24.8906,18.6406 Q25.0781,18.9219 25.0781,19.4688 L25.0781,20.8906 Q25.0781,22.0156 24.2344,22.0156 Q23.9219,22.0156 23.7188,21.8438 Q23.5313,21.6719 23.4844,21.5313 Q23.4531,21.375 23.4063,21.1094 Q23.2969,20.5938 22.7813,20.2813 Q22.2656,19.9688 21.8125,19.8906 Q21.375,19.7969 21,19.7969 Q19.7188,19.7969 18.8594,20.6719 Q18.0156,21.5469 18.0156,22.8906 L18.0156,23.9844 Q18.0156,25.2656 18.9219,26.0313 Q19.8281,26.7813 21.3594,26.7813 Z " fill="#000000"/><text fill="#000000" font-family="sans-serif" font-size="14" lengthAdjust="spacing" textLength="82" x="36" y="28.6">TAFBaseGUI</text><line style="stroke:#555555;stroke-width:0.5;" x1="8" x2="120" y1="39" y2="39"/><line style="stroke:#555555;stroke-width:0.5;" x1="8" x2="120" y1="47" y2="47"/></g><!--MD5=[d65241de5e7799778572a79de7266870]
class IAuthorization--><g id="elem_IAuthorization"><rect codeLine="36" fill="#FFFFFF" height="48" id="IAuthorization" rx="2.5" ry="2.5" style="stroke:#555555;stroke-width:0.5;" width="119" x="156.5" y="7"/><rect fill="#808080" height="32" rx="2.5" ry="2.5" style="stroke:#808080;stroke-width:0.5;" width="119" x="156.5" y="7"/><rect fill="#808080" height="2.5" style="stroke:#808080;stroke-width:0.5;" width="119" x="156.5" y="36.5"/><rect codeLine="36" fill="none" height="48" id="IAuthorization" rx="2.5" ry="2.5" style="stroke:#555555;stroke-width:0.5;" width="119" x="156.5" y="7"/><ellipse cx="171.5" cy="23" fill="#B4A7E5" rx="11" ry="11" style="stroke:#181818;stroke-width:1.0;"/><path d="M174.1719,26.2969 Q174.7188,26.2969 175,26.4844 Q175.2813,26.6563 175.2813,27.1563 Q175.2813,28 174.1719,28 L169.0313,28 Q167.9063,28 167.9063,27.1563 Q167.9063,26.6563 168.1875,26.4844 Q168.4844,26.2969 169.0313,26.2969 L170.75,26.2969 L170.75,19.7813 L169.0313,19.7813 Q167.9063,19.7813 167.9063,18.9375 Q167.9063,18.4531 168.1875,18.2813 Q168.4844,18.0938 169.0313,18.0938 L174.1719,18.0938 Q174.7188,18.0938 175,18.2813 Q175.2813,18.4531 175.2813,18.9375 Q175.2813,19.7813 174.1719,19.7813 L172.4531,19.7813 L172.4531,26.2969 L174.1719,26.2969 Z " fill="#000000"/><text fill="#000000" font-family="sans-serif" font-size="14" font-style="italic" lengthAdjust="spacing" textLength="87" x="185.5" y="28.6">IAuthorization</text><line style="stroke:#555555;stroke-width:0.5;" x1="157.5" x2="274.5" y1="39" y2="39"/><line style="stroke:#555555;stroke-width:0.5;" x1="157.5" x2="274.5" y1="47" y2="47"/></g><!--MD5=[279d10572fd96349ac6b0a9cb9c87a2e]
class ITAFGUIActions--><g id="elem_ITAFGUIActions"><rect codeLine="38" fill="#FFFFFF" height="48" id="ITAFGUIActions" rx="2.5" ry="2.5" style="stroke:#555555;stroke-width:0.5;" width="133" x="310.5" y="7"/><rect fill="#808080" height="32" rx="2.5" ry="2.5" style="stroke:#808080;stroke-width:0.5;" width="133" x="310.5" y="7"/><rect fill="#808080" height="2.5" style="stroke:#808080;stroke-width:0.5;" width="133" x="310.5" y="36.5"/><rect codeLine="38" fill="none" height="48" id="ITAFGUIActions" rx="2.5" ry="2.5" style="stroke:#555555;stroke-width:0.5;" width="133" x="310.5" y="7"/><ellipse cx="325.5" cy="23" fill="#B4A7E5" rx="11" ry="11" style="stroke:#181818;stroke-width:1.0;"/><path d="M328.1719,26.2969 Q328.7188,26.2969 329,26.4844 Q329.2813,26.6563 329.2813,27.1563 Q329.2813,28 328.1719,28 L323.0313,28 Q321.9063,28 321.9063,27.1563 Q321.9063,26.6563 322.1875,26.4844 Q322.4844,26.2969 323.0313,26.2969 L324.75,26.2969 L324.75,19.7813 L323.0313,19.7813 Q321.9063,19.7813 321.9063,18.9375 Q321.9063,18.4531 322.1875,18.2813 Q322.4844,18.0938 323.0313,18.0938 L328.1719,18.0938 Q328.7188,18.0938 329,18.2813 Q329.2813,18.4531 329.2813,18.9375 Q329.2813,19.7813 328.1719,19.7813 L326.4531,19.7813 L326.4531,26.2969 L328.1719,26.2969 Z " fill="#000000"/><text fill="#000000" font-family="sans-serif" font-size="14" font-style="italic" lengthAdjust="spacing" textLength="101" x="339.5" y="28.6">ITAFGUIActions</text><line style="stroke:#555555;stroke-width:0.5;" x1="311.5" x2="442.5" y1="39" y2="39"/><line style="stroke:#555555;stroke-width:0.5;" x1="311.5" x2="442.5" y1="47" y2="47"/></g><!--MD5=[eadde77d04709633ff44877ee921c4d6]
reverse link TAFBaseGUI to UserMananger.lvlib:UserManager--><g id="link_TAFBaseGUI_UserMananger.lvlib:UserManager"><path codeLine="34" d="M85.18,73.66 C91.29,85.68 98.41,99.69 106.11,114.84 " fill="none" id="TAFBaseGUI-backto-UserMananger.lvlib:UserManager" style="stroke:#181818;stroke-width:1.0;"/><polygon fill="none" points="78.75,76.46,75.93,55.46,91.23,70.12,78.75,76.46" style="stroke:#181818;stroke-width:1.0;"/></g><!--MD5=[86779472b5cfe290cc11f5901e651459]
reverse link IAuthorization to UserMananger.lvlib:UserManager--><g id="link_IAuthorization_UserMananger.lvlib:UserManager"><path codeLine="35" d="M216,75.88 C216,87.39 216,100.61 216,114.84 " fill="none" id="IAuthorization-backto-UserMananger.lvlib:UserManager" style="stroke:#181818;stroke-width:1.0;stroke-dasharray:7.0,7.0;"/><polygon fill="none" points="209,75.46,216,55.46,223,75.46,209,75.46" style="stroke:#181818;stroke-width:1.0;"/></g><!--MD5=[e8c48ab57f0f453bcf8f3e8549963ebd]
reverse link ITAFGUIActions to UserMananger.lvlib:UserManager--><g id="link_ITAFGUIActions_UserMananger.lvlib:UserManager"><path codeLine="37" d="M354.8,73.22 C348.28,85.34 340.65,99.5 332.39,114.84 " fill="none" id="ITAFGUIActions-backto-UserMananger.lvlib:UserManager" style="stroke:#181818;stroke-width:1.0;stroke-dasharray:7.0,7.0;"/><polygon fill="none" points="348.72,69.75,364.37,55.46,361.05,76.39,348.72,69.75" style="stroke:#181818;stroke-width:1.0;"/></g><!--MD5=[91f31ac75776b78cdcb22b4a4a4d54e9]
@startuml
set namespaceSeparator :
skinparam ClassBackgroundColor #FFFFFF
skinparam ClassBorderColor #555555
skinparam ClassFontColor #000000
skinparam ClassHeaderBackgroundColor #808080

skinparam top to bottom direction
class "UserMananger.lvlib:UserManager" {
{field} -Ref : U32
{static} {method} #MainGUI()
{static} {method} #StartMainGUI()
{static} {method} #RequestDestroy()
{static} {method} #StopMainGUI()
{static} {method} #UserManager_New()
{static} {method} #MainGUIRepository()
{static} {method} #UserManager_GetAttributes()
{static} {method} #UserManager_SendAndReceive()
{static} {method} -UserManager_MainGUIActive()
{static} {method} +UserManager_Create()
{static} {method} +ControlMainGUIWindow()
{method} +GetPersistentConfiguration()
{method} +SetPersistentConfiguration()
{method} +GetExternalInterfaces()
{method} +ExecuteButtonAction()
{method} +SetExternalInterfaces()
{method} +Create()
{method} +Destroy()
{method} +IsGUIRunning()
{method} +GetFrontPanel()
{method} +SetEvaluations()
{method} +EvaluateAuthorizationExpression()

}
"TAFBaseGUI" <|- - "UserMananger.lvlib:UserManager"
"IAuthorization" <|.. "UserMananger.lvlib:UserManager"
interface "IAuthorization" {}
"ITAFGUIActions" <|.. "UserMananger.lvlib:UserManager"
interface "ITAFGUIActions" {}




@enduml

PlantUML version 1.2022.5(Sat Apr 30 10:55:52 GMT 2022)
(GPL source distribution)
Java Runtime: OpenJDK Runtime Environment
JVM: OpenJDK 64-Bit Server VM
Default Encoding: UTF-8
Language: en
Country: US
--></g></svg>