<?xml version="1.0" encoding="UTF-8" standalone="no"?><svg xmlns="http://www.w3.org/2000/svg" xmlns:xlink="http://www.w3.org/1999/xlink" contentStyleType="text/css" height="593px" preserveAspectRatio="none" style="width:481px;height:593px;background:#FFFFFF;" version="1.1" viewBox="0 0 481 593" width="481px" zoomAndPan="magnify"><defs/><g><!--MD5=[bc4bd054d31345072f9e59ccea859604]
cluster JSONTextViewer.lvlib--><g id="cluster_JSONTextViewer.lvlib"><path d="M80,80 L245,80 A3.75,3.75 0 0 1 247.5,82.5 L254.5,102.2969 L377,102.2969 A2.5,2.5 0 0 1 379.5,104.7969 L379.5,583.5 A2.5,2.5 0 0 1 377,586 L80,586 A2.5,2.5 0 0 1 77.5,583.5 L77.5,82.5 A2.5,2.5 0 0 1 80,80 " fill="none" style="stroke:#000000;stroke-width:1.5;"/><line style="stroke:#000000;stroke-width:1.5;" x1="77.5" x2="254.5" y1="102.2969" y2="102.2969"/><text fill="#000000" font-family="sans-serif" font-size="14" font-weight="bold" lengthAdjust="spacing" textLength="164" x="81.5" y="94.9951">JSONTextViewer.lvlib</text></g><!--MD5=[3c126d29e26dd375787e35b1df499e04]
class JSONTextViewer.lvlib:JSONTextViewer--><g id="elem_JSONTextViewer.lvlib:JSONTextViewer"><rect codeLine="8" fill="#FFFFFF" height="455.4219" id="JSONTextViewer.lvlib:JSONTextViewer" rx="2.5" ry="2.5" style="stroke:#555555;stroke-width:0.5;" width="270" x="93.5" y="115"/><rect fill="#808080" height="32" rx="2.5" ry="2.5" style="stroke:#808080;stroke-width:0.5;" width="270" x="93.5" y="115"/><rect fill="#808080" height="2.5" style="stroke:#808080;stroke-width:0.5;" width="270" x="93.5" y="144.5"/><rect codeLine="8" fill="none" height="455.4219" id="JSONTextViewer.lvlib:JSONTextViewer" rx="2.5" ry="2.5" style="stroke:#555555;stroke-width:0.5;" width="270" x="93.5" y="115"/><ellipse cx="169.75" cy="131" fill="#ADD1B2" rx="11" ry="11" style="stroke:#181818;stroke-width:1.0;"/><path d="M172.7188,136.6406 Q172.1406,136.9375 171.5,137.0781 Q170.8594,137.2344 170.1563,137.2344 Q167.6563,137.2344 166.3281,135.5938 Q165.0156,133.9375 165.0156,130.8125 Q165.0156,127.6875 166.3281,126.0313 Q167.6563,124.375 170.1563,124.375 Q170.8594,124.375 171.5,124.5313 Q172.1563,124.6875 172.7188,124.9844 L172.7188,127.7031 Q172.0938,127.125 171.5,126.8594 Q170.9063,126.5781 170.2813,126.5781 Q168.9375,126.5781 168.25,127.6563 Q167.5625,128.7188 167.5625,130.8125 Q167.5625,132.9063 168.25,133.9844 Q168.9375,135.0469 170.2813,135.0469 Q170.9063,135.0469 171.5,134.7813 Q172.0938,134.5 172.7188,133.9219 L172.7188,136.6406 Z " fill="#000000"/><text fill="#000000" font-family="sans-serif" font-size="14" lengthAdjust="spacing" textLength="109" x="190.25" y="135.8467">JSONTextViewer</text><line style="stroke:#555555;stroke-width:0.5;" x1="94.5" x2="362.5" y1="147" y2="147"/><rect fill="none" height="6" style="stroke:#C82930;stroke-width:1.0;" width="6" x="101.5" y="157.6484"/><text fill="#000000" font-family="sans-serif" font-size="14" lengthAdjust="spacing" textLength="64" x="113.5" y="163.9951">Ref : U32</text><line style="stroke:#555555;stroke-width:0.5;" x1="94.5" x2="362.5" y1="171.2969" y2="171.2969"/><polygon fill="#FFFF44" points="104.5,179.9453,108.5,183.9453,104.5,187.9453,100.5,183.9453" style="stroke:#B38D22;stroke-width:1.0;"/><text fill="#000000" font-family="sans-serif" font-size="14" lengthAdjust="spacing" text-decoration="underline" textLength="98" x="113.5" y="188.292">StartMainGUI()</text><polygon fill="#FFFF44" points="104.5,196.2422,108.5,200.2422,104.5,204.2422,100.5,200.2422" style="stroke:#B38D22;stroke-width:1.0;"/><text fill="#000000" font-family="sans-serif" font-size="14" lengthAdjust="spacing" text-decoration="underline" textLength="123" x="113.5" y="204.5889">RequestDestroy()</text><polygon fill="#FFFF44" points="104.5,212.5391,108.5,216.5391,104.5,220.5391,100.5,216.5391" style="stroke:#B38D22;stroke-width:1.0;"/><text fill="#000000" font-family="sans-serif" font-size="14" lengthAdjust="spacing" text-decoration="underline" textLength="66" x="113.5" y="220.8857">MainGUI()</text><polygon fill="#FFFF44" points="104.5,228.8359,108.5,232.8359,104.5,236.8359,100.5,232.8359" style="stroke:#B38D22;stroke-width:1.0;"/><text fill="#000000" font-family="sans-serif" font-size="14" lengthAdjust="spacing" text-decoration="underline" textLength="98" x="113.5" y="237.1826">StopMainGUI()</text><polygon fill="#FFFF44" points="104.5,245.1328,108.5,249.1328,104.5,253.1328,100.5,249.1328" style="stroke:#B38D22;stroke-width:1.0;"/><text fill="#000000" font-family="sans-serif" font-size="14" lengthAdjust="spacing" text-decoration="underline" textLength="156" x="113.5" y="253.4795">JSONTextViewer_New()</text><polygon fill="#FFFF44" points="104.5,261.4297,108.5,265.4297,104.5,269.4297,100.5,265.4297" style="stroke:#B38D22;stroke-width:1.0;"/><text fill="#000000" font-family="sans-serif" font-size="14" lengthAdjust="spacing" text-decoration="underline" textLength="140" x="113.5" y="269.7764">MainGUIRepository()</text><polygon fill="#FFFF44" points="104.5,277.7266,108.5,281.7266,104.5,285.7266,100.5,281.7266" style="stroke:#B38D22;stroke-width:1.0;"/><text fill="#000000" font-family="sans-serif" font-size="14" lengthAdjust="spacing" text-decoration="underline" textLength="218" x="113.5" y="286.0732">JSONTextViewer_GetAttributes()</text><polygon fill="#FFFF44" points="104.5,294.0234,108.5,298.0234,104.5,302.0234,100.5,298.0234" style="stroke:#B38D22;stroke-width:1.0;"/><text fill="#000000" font-family="sans-serif" font-size="14" lengthAdjust="spacing" text-decoration="underline" textLength="244" x="113.5" y="302.3701">JSONTextViewer_SendAndReceive()</text><rect fill="#F24D5C" height="6" style="stroke:#C82930;stroke-width:1.0;" width="6" x="101.5" y="312.3203"/><text fill="#000000" font-family="sans-serif" font-size="14" lengthAdjust="spacing" text-decoration="underline" textLength="223" x="113.5" y="318.667">JSONTextViewer_MainGUIActive()</text><ellipse cx="104.5" cy="331.6172" fill="#84BE84" rx="3" ry="3" style="stroke:#038048;stroke-width:1.0;"/><text fill="#000000" font-family="sans-serif" font-size="14" lengthAdjust="spacing" text-decoration="underline" textLength="172" x="113.5" y="334.9639">JSONTextViewer_Create()</text><ellipse cx="104.5" cy="347.9141" fill="#84BE84" rx="3" ry="3" style="stroke:#038048;stroke-width:1.0;"/><text fill="#000000" font-family="sans-serif" font-size="14" lengthAdjust="spacing" text-decoration="underline" textLength="170" x="113.5" y="351.2607">ControlMainGUIWindow()</text><polygon fill="#FFFF44" points="104.5,359.2109,108.5,363.2109,104.5,367.2109,100.5,363.2109" style="stroke:#B38D22;stroke-width:1.0;"/><text fill="#000000" font-family="sans-serif" font-size="14" lengthAdjust="spacing" textLength="43" x="113.5" y="367.5576">Save()</text><polygon fill="#FFFF44" points="104.5,375.5078,108.5,379.5078,104.5,383.5078,100.5,379.5078" style="stroke:#B38D22;stroke-width:1.0;"/><text fill="#000000" font-family="sans-serif" font-size="14" lengthAdjust="spacing" textLength="109" x="113.5" y="383.8545">ReadJSONText()</text><polygon fill="#FFFF44" points="104.5,391.8047,108.5,395.8047,104.5,399.8047,100.5,395.8047" style="stroke:#B38D22;stroke-width:1.0;"/><text fill="#000000" font-family="sans-serif" font-size="14" lengthAdjust="spacing" textLength="60" x="113.5" y="400.1514">ReadID()</text><ellipse cx="104.5" cy="413.1016" fill="#84BE84" rx="3" ry="3" style="stroke:#038048;stroke-width:1.0;"/><text fill="#000000" font-family="sans-serif" font-size="14" lengthAdjust="spacing" textLength="197" x="113.5" y="416.4482">GetPersistentConfiguration()</text><ellipse cx="104.5" cy="429.3984" fill="#84BE84" rx="3" ry="3" style="stroke:#038048;stroke-width:1.0;"/><text fill="#000000" font-family="sans-serif" font-size="14" lengthAdjust="spacing" textLength="195" x="113.5" y="432.7451">SetPersistentConfiguration()</text><ellipse cx="104.5" cy="445.6953" fill="#84BE84" rx="3" ry="3" style="stroke:#038048;stroke-width:1.0;"/><text fill="#000000" font-family="sans-serif" font-size="14" lengthAdjust="spacing" textLength="158" x="113.5" y="449.042">GetExternalInterfaces()</text><ellipse cx="104.5" cy="461.9922" fill="#84BE84" rx="3" ry="3" style="stroke:#038048;stroke-width:1.0;"/><text fill="#000000" font-family="sans-serif" font-size="14" lengthAdjust="spacing" textLength="156" x="113.5" y="465.3389">SetExternalInterfaces()</text><ellipse cx="104.5" cy="478.2891" fill="#84BE84" rx="3" ry="3" style="stroke:#038048;stroke-width:1.0;"/><text fill="#000000" font-family="sans-serif" font-size="14" lengthAdjust="spacing" textLength="156" x="113.5" y="481.6357">ExecuteButtonAction()</text><ellipse cx="104.5" cy="494.5859" fill="#84BE84" rx="3" ry="3" style="stroke:#038048;stroke-width:1.0;"/><text fill="#000000" font-family="sans-serif" font-size="14" lengthAdjust="spacing" textLength="109" x="113.5" y="497.9326">GetFrontPanel()</text><ellipse cx="104.5" cy="510.8828" fill="#84BE84" rx="3" ry="3" style="stroke:#038048;stroke-width:1.0;"/><text fill="#000000" font-family="sans-serif" font-size="14" lengthAdjust="spacing" textLength="56" x="113.5" y="514.2295">Create()</text><ellipse cx="104.5" cy="527.1797" fill="#84BE84" rx="3" ry="3" style="stroke:#038048;stroke-width:1.0;"/><text fill="#000000" font-family="sans-serif" font-size="14" lengthAdjust="spacing" textLength="64" x="113.5" y="530.5264">Destroy()</text><ellipse cx="104.5" cy="543.4766" fill="#84BE84" rx="3" ry="3" style="stroke:#038048;stroke-width:1.0;"/><text fill="#000000" font-family="sans-serif" font-size="14" lengthAdjust="spacing" textLength="103" x="113.5" y="546.8232">IsGUIRunning()</text><ellipse cx="104.5" cy="559.7734" fill="#84BE84" rx="3" ry="3" style="stroke:#038048;stroke-width:1.0;"/><text fill="#000000" font-family="sans-serif" font-size="14" lengthAdjust="spacing" textLength="90" x="113.5" y="563.1201">UpdateText()</text></g><!--MD5=[0598474d39ed4a9017b81a2a55acc3b1]
class TAFBaseGUI--><g id="elem_TAFBaseGUI"><rect fill="#FFFFFF" height="48" id="TAFBaseGUI" rx="2.5" ry="2.5" style="stroke:#555555;stroke-width:0.5;" width="117" x="7" y="7"/><rect fill="#808080" height="32" rx="2.5" ry="2.5" style="stroke:#808080;stroke-width:0.5;" width="117" x="7" y="7"/><rect fill="#808080" height="2.5" style="stroke:#808080;stroke-width:0.5;" width="117" x="7" y="36.5"/><rect fill="none" height="48" id="TAFBaseGUI" rx="2.5" ry="2.5" style="stroke:#555555;stroke-width:0.5;" width="117" x="7" y="7"/><ellipse cx="22" cy="23" fill="#ADD1B2" rx="11" ry="11" style="stroke:#181818;stroke-width:1.0;"/><path d="M24.9688,28.6406 Q24.3906,28.9375 23.75,29.0781 Q23.1094,29.2344 22.4063,29.2344 Q19.9063,29.2344 18.5781,27.5938 Q17.2656,25.9375 17.2656,22.8125 Q17.2656,19.6875 18.5781,18.0313 Q19.9063,16.375 22.4063,16.375 Q23.1094,16.375 23.75,16.5313 Q24.4063,16.6875 24.9688,16.9844 L24.9688,19.7031 Q24.3438,19.125 23.75,18.8594 Q23.1563,18.5781 22.5313,18.5781 Q21.1875,18.5781 20.5,19.6563 Q19.8125,20.7188 19.8125,22.8125 Q19.8125,24.9063 20.5,25.9844 Q21.1875,27.0469 22.5313,27.0469 Q23.1563,27.0469 23.75,26.7813 Q24.3438,26.5 24.9688,25.9219 L24.9688,28.6406 Z " fill="#000000"/><text fill="#000000" font-family="sans-serif" font-size="14" lengthAdjust="spacing" textLength="85" x="36" y="27.8467">TAFBaseGUI</text><line style="stroke:#555555;stroke-width:0.5;" x1="8" x2="123" y1="39" y2="39"/><line style="stroke:#555555;stroke-width:0.5;" x1="8" x2="123" y1="47" y2="47"/></g><!--MD5=[279d10572fd96349ac6b0a9cb9c87a2e]
class ITAFGUIActions--><g id="elem_ITAFGUIActions"><rect codeLine="38" fill="#FFFFFF" height="48" id="ITAFGUIActions" rx="2.5" ry="2.5" style="stroke:#555555;stroke-width:0.5;" width="139" x="159" y="7"/><rect fill="#808080" height="32" rx="2.5" ry="2.5" style="stroke:#808080;stroke-width:0.5;" width="139" x="159" y="7"/><rect fill="#808080" height="2.5" style="stroke:#808080;stroke-width:0.5;" width="139" x="159" y="36.5"/><rect codeLine="38" fill="none" height="48" id="ITAFGUIActions" rx="2.5" ry="2.5" style="stroke:#555555;stroke-width:0.5;" width="139" x="159" y="7"/><ellipse cx="174" cy="23" fill="#B4A7E5" rx="11" ry="11" style="stroke:#181818;stroke-width:1.0;"/><path d="M169.9219,18.7656 L169.9219,16.6094 L177.3125,16.6094 L177.3125,18.7656 L174.8438,18.7656 L174.8438,26.8438 L177.3125,26.8438 L177.3125,29 L169.9219,29 L169.9219,26.8438 L172.3906,26.8438 L172.3906,18.7656 L169.9219,18.7656 Z " fill="#000000"/><text fill="#000000" font-family="sans-serif" font-size="14" font-style="italic" lengthAdjust="spacing" textLength="107" x="188" y="27.8467">ITAFGUIActions</text><line style="stroke:#555555;stroke-width:0.5;" x1="160" x2="297" y1="39" y2="39"/><line style="stroke:#555555;stroke-width:0.5;" x1="160" x2="297" y1="47" y2="47"/></g><!--MD5=[cfd7cdc0b39abb2ff935188810419e3c]
class ITAFTextViewer--><g id="elem_ITAFTextViewer"><rect codeLine="40" fill="#FFFFFF" height="48" id="ITAFTextViewer" rx="2.5" ry="2.5" style="stroke:#555555;stroke-width:0.5;" width="141" x="333" y="7"/><rect fill="#808080" height="32" rx="2.5" ry="2.5" style="stroke:#808080;stroke-width:0.5;" width="141" x="333" y="7"/><rect fill="#808080" height="2.5" style="stroke:#808080;stroke-width:0.5;" width="141" x="333" y="36.5"/><rect codeLine="40" fill="none" height="48" id="ITAFTextViewer" rx="2.5" ry="2.5" style="stroke:#555555;stroke-width:0.5;" width="141" x="333" y="7"/><ellipse cx="348" cy="23" fill="#B4A7E5" rx="11" ry="11" style="stroke:#181818;stroke-width:1.0;"/><path d="M343.9219,18.7656 L343.9219,16.6094 L351.3125,16.6094 L351.3125,18.7656 L348.8438,18.7656 L348.8438,26.8438 L351.3125,26.8438 L351.3125,29 L343.9219,29 L343.9219,26.8438 L346.3906,26.8438 L346.3906,18.7656 L343.9219,18.7656 Z " fill="#000000"/><text fill="#000000" font-family="sans-serif" font-size="14" font-style="italic" lengthAdjust="spacing" textLength="109" x="362" y="27.8467">ITAFTextViewer</text><line style="stroke:#555555;stroke-width:0.5;" x1="334" x2="473" y1="39" y2="39"/><line style="stroke:#555555;stroke-width:0.5;" x1="334" x2="473" y1="47" y2="47"/></g><!--MD5=[3ecb18216f67c6665247a4f4a656f2d0]
reverse link TAFBaseGUI to JSONTextViewer.lvlib:JSONTextViewer--><g id="link_TAFBaseGUI_JSONTextViewer.lvlib:JSONTextViewer"><path codeLine="36" d="M86.99,72.81 C93.4,84.98 100.92,99.26 109.09,114.78 " fill="none" id="TAFBaseGUI-backto-JSONTextViewer.lvlib:JSONTextViewer" style="stroke:#181818;stroke-width:1.0;"/><polygon fill="none" points="80.74,75.97,77.62,55.01,93.13,69.44,80.74,75.97" style="stroke:#181818;stroke-width:1.0;"/></g><!--MD5=[0bfc928410962587571e7aaa00a13482]
reverse link ITAFGUIActions to JSONTextViewer.lvlib:JSONTextViewer--><g id="link_ITAFGUIActions_JSONTextViewer.lvlib:JSONTextViewer"><path codeLine="37" d="M228.5,75.03 C228.5,86.7 228.5,100.19 228.5,114.78 " fill="none" id="ITAFGUIActions-backto-JSONTextViewer.lvlib:JSONTextViewer" style="stroke:#181818;stroke-width:1.0;stroke-dasharray:7.0,7.0;"/><polygon fill="none" points="221.5,75.01,228.5,55.01,235.5,75.01,221.5,75.01" style="stroke:#181818;stroke-width:1.0;"/></g><!--MD5=[d6909c2541b6ca98f52168599af39911]
reverse link ITAFTextViewer to JSONTextViewer.lvlib:JSONTextViewer--><g id="link_ITAFTextViewer_JSONTextViewer.lvlib:JSONTextViewer"><path codeLine="39" d="M380.43,72.81 C373.55,84.98 365.47,99.26 356.7,114.78 " fill="none" id="ITAFTextViewer-backto-JSONTextViewer.lvlib:JSONTextViewer" style="stroke:#181818;stroke-width:1.0;stroke-dasharray:7.0,7.0;"/><polygon fill="none" points="374.55,68.97,390.49,55.01,386.74,75.87,374.55,68.97" style="stroke:#181818;stroke-width:1.0;"/></g><!--MD5=[703f7648a487c7b7e30d3af4d290592a]
@startuml
set namespaceSeparator :
skinparam ClassBackgroundColor #FFFFFF
skinparam ClassBorderColor #555555
skinparam ClassFontColor #000000
skinparam ClassHeaderBackgroundColor #808080

skinparam top to bottom direction
class "JSONTextViewer.lvlib:JSONTextViewer" {
{field} -Ref : U32
{static} {method} #StartMainGUI()
{static} {method} #RequestDestroy()
{static} {method} #MainGUI()
{static} {method} #StopMainGUI()
{static} {method} #JSONTextViewer_New()
{static} {method} #MainGUIRepository()
{static} {method} #JSONTextViewer_GetAttributes()
{static} {method} #JSONTextViewer_SendAndReceive()
{static} {method} -JSONTextViewer_MainGUIActive()
{static} {method} +JSONTextViewer_Create()
{static} {method} +ControlMainGUIWindow()
{method} #Save()
{method} #ReadJSONText()
{method} #ReadID()
{method} +GetPersistentConfiguration()
{method} +SetPersistentConfiguration()
{method} +GetExternalInterfaces()
{method} +SetExternalInterfaces()
{method} +ExecuteButtonAction()
{method} +GetFrontPanel()
{method} +Create()
{method} +Destroy()
{method} +IsGUIRunning()
{method} +UpdateText()

}
"TAFBaseGUI" <|- - "JSONTextViewer.lvlib:JSONTextViewer"
"ITAFGUIActions" <|.. "JSONTextViewer.lvlib:JSONTextViewer"
interface "ITAFGUIActions" {}
"ITAFTextViewer" <|.. "JSONTextViewer.lvlib:JSONTextViewer"
interface "ITAFTextViewer" {}




@enduml

PlantUML version 1.2022.12(Sun Oct 23 18:12:26 GMT 2022)
(GPL source distribution)
Java Runtime: OpenJDK Runtime Environment
JVM: OpenJDK 64-Bit Server VM
Default Encoding: UTF-8
Language: en
Country: US
--></g></svg>