<?xml version="1.0" encoding="UTF-8" standalone="no"?><svg xmlns="http://www.w3.org/2000/svg" xmlns:xlink="http://www.w3.org/1999/xlink" contentStyleType="text/css" height="203px" preserveAspectRatio="none" style="width:296px;height:203px;background:#FFFFFF;" version="1.1" viewBox="0 0 296 203" width="296px" zoomAndPan="magnify"><defs/><g><!--MD5=[05cd6d9aa1efd9d0bf729dde2f550379]
class Mockup_ConfigurationManager--><g id="elem_Mockup_ConfigurationManager"><rect codeLine="8" fill="#FFFFFF" height="81.5999" id="Mockup_ConfigurationManager" rx="2.5" ry="2.5" style="stroke:#555555;stroke-width:0.5;" width="228" x="29" y="115"/><rect fill="#808080" height="32" rx="2.5" ry="2.5" style="stroke:#808080;stroke-width:0.5;" width="228" x="29" y="115"/><rect fill="#808080" height="2.5" style="stroke:#808080;stroke-width:0.5;" width="228" x="29" y="144.5"/><rect codeLine="8" fill="none" height="81.5999" id="Mockup_ConfigurationManager" rx="2.5" ry="2.5" style="stroke:#555555;stroke-width:0.5;" width="228" x="29" y="115"/><ellipse cx="44" cy="131" fill="#ADD1B2" rx="11" ry="11" style="stroke:#181818;stroke-width:1.0;"/><path d="M43.3594,134.7813 Q44.1563,134.7813 44.7188,134.5938 Q45.2969,134.3906 45.5313,134.1719 Q45.7813,133.9375 46.0156,133.75 Q46.2656,133.5469 46.4844,133.5469 Q46.8281,133.5469 47.0781,133.8125 Q47.3438,134.0625 47.3438,134.3906 Q47.3438,135.125 46.1719,135.8125 Q45.0156,136.4844 43.3125,136.4844 Q41.1563,136.4844 39.7344,135.2188 Q38.3125,133.9531 38.3125,132.0156 L38.3125,130.8906 Q38.3125,128.8594 39.6406,127.4844 Q40.9688,126.0938 42.9375,126.0938 Q44.125,126.0938 45.3438,126.6719 L45.5156,126.75 Q45.8125,126.3438 46.2344,126.3438 Q46.7188,126.3438 46.8906,126.6406 Q47.0781,126.9219 47.0781,127.4688 L47.0781,128.8906 Q47.0781,130.0156 46.2344,130.0156 Q45.9219,130.0156 45.7188,129.8438 Q45.5313,129.6719 45.4844,129.5313 Q45.4531,129.375 45.4063,129.1094 Q45.2969,128.5938 44.7813,128.2813 Q44.2656,127.9688 43.8125,127.8906 Q43.375,127.7969 43,127.7969 Q41.7188,127.7969 40.8594,128.6719 Q40.0156,129.5469 40.0156,130.8906 L40.0156,131.9844 Q40.0156,133.2656 40.9219,134.0313 Q41.8281,134.7813 43.3594,134.7813 Z " fill="#000000"/><text fill="#000000" font-family="sans-serif" font-size="14" lengthAdjust="spacing" textLength="196" x="58" y="136.6">Mockup_ConfigurationManager</text><line style="stroke:#555555;stroke-width:0.5;" x1="30" x2="256" y1="147" y2="147"/><rect fill="none" height="6" style="stroke:#C82930;stroke-width:1.0;" width="6" x="37" y="155"/><text fill="#000000" font-family="sans-serif" font-size="14" lengthAdjust="spacing" textLength="59" x="49" y="164.9999">Ref : U32</text><line style="stroke:#555555;stroke-width:0.5;" x1="30" x2="256" y1="171.7999" y2="171.7999"/><ellipse cx="40" cy="182.7999" fill="#84BE84" rx="3" ry="3" style="stroke:#038048;stroke-width:1.0;"/><text fill="#000000" font-family="sans-serif" font-size="14" lengthAdjust="spacing" textLength="99" x="49" y="189.7999">GetFrontPanel()</text></g><!--MD5=[0598474d39ed4a9017b81a2a55acc3b1]
class TAFBaseGUI--><g id="elem_TAFBaseGUI"><rect fill="#FFFFFF" height="48" id="TAFBaseGUI" rx="2.5" ry="2.5" style="stroke:#555555;stroke-width:0.5;" width="114" x="7" y="7"/><rect fill="#808080" height="32" rx="2.5" ry="2.5" style="stroke:#808080;stroke-width:0.5;" width="114" x="7" y="7"/><rect fill="#808080" height="2.5" style="stroke:#808080;stroke-width:0.5;" width="114" x="7" y="36.5"/><rect fill="none" height="48" id="TAFBaseGUI" rx="2.5" ry="2.5" style="stroke:#555555;stroke-width:0.5;" width="114" x="7" y="7"/><ellipse cx="22" cy="23" fill="#ADD1B2" rx="11" ry="11" style="stroke:#181818;stroke-width:1.0;"/><path d="M21.3594,26.7813 Q22.1563,26.7813 22.7188,26.5938 Q23.2969,26.3906 23.5313,26.1719 Q23.7813,25.9375 24.0156,25.75 Q24.2656,25.5469 24.4844,25.5469 Q24.8281,25.5469 25.0781,25.8125 Q25.3438,26.0625 25.3438,26.3906 Q25.3438,27.125 24.1719,27.8125 Q23.0156,28.4844 21.3125,28.4844 Q19.1563,28.4844 17.7344,27.2188 Q16.3125,25.9531 16.3125,24.0156 L16.3125,22.8906 Q16.3125,20.8594 17.6406,19.4844 Q18.9688,18.0938 20.9375,18.0938 Q22.125,18.0938 23.3438,18.6719 L23.5156,18.75 Q23.8125,18.3438 24.2344,18.3438 Q24.7188,18.3438 24.8906,18.6406 Q25.0781,18.9219 25.0781,19.4688 L25.0781,20.8906 Q25.0781,22.0156 24.2344,22.0156 Q23.9219,22.0156 23.7188,21.8438 Q23.5313,21.6719 23.4844,21.5313 Q23.4531,21.375 23.4063,21.1094 Q23.2969,20.5938 22.7813,20.2813 Q22.2656,19.9688 21.8125,19.8906 Q21.375,19.7969 21,19.7969 Q19.7188,19.7969 18.8594,20.6719 Q18.0156,21.5469 18.0156,22.8906 L18.0156,23.9844 Q18.0156,25.2656 18.9219,26.0313 Q19.8281,26.7813 21.3594,26.7813 Z " fill="#000000"/><text fill="#000000" font-family="sans-serif" font-size="14" lengthAdjust="spacing" textLength="82" x="36" y="28.6">TAFBaseGUI</text><line style="stroke:#555555;stroke-width:0.5;" x1="8" x2="120" y1="39" y2="39"/><line style="stroke:#555555;stroke-width:0.5;" x1="8" x2="120" y1="47" y2="47"/></g><!--MD5=[279d10572fd96349ac6b0a9cb9c87a2e]
class ITAFGUIActions--><g id="elem_ITAFGUIActions"><rect codeLine="15" fill="#FFFFFF" height="48" id="ITAFGUIActions" rx="2.5" ry="2.5" style="stroke:#555555;stroke-width:0.5;" width="133" x="156.5" y="7"/><rect fill="#808080" height="32" rx="2.5" ry="2.5" style="stroke:#808080;stroke-width:0.5;" width="133" x="156.5" y="7"/><rect fill="#808080" height="2.5" style="stroke:#808080;stroke-width:0.5;" width="133" x="156.5" y="36.5"/><rect codeLine="15" fill="none" height="48" id="ITAFGUIActions" rx="2.5" ry="2.5" style="stroke:#555555;stroke-width:0.5;" width="133" x="156.5" y="7"/><ellipse cx="171.5" cy="23" fill="#B4A7E5" rx="11" ry="11" style="stroke:#181818;stroke-width:1.0;"/><path d="M174.1719,26.2969 Q174.7188,26.2969 175,26.4844 Q175.2813,26.6563 175.2813,27.1563 Q175.2813,28 174.1719,28 L169.0313,28 Q167.9063,28 167.9063,27.1563 Q167.9063,26.6563 168.1875,26.4844 Q168.4844,26.2969 169.0313,26.2969 L170.75,26.2969 L170.75,19.7813 L169.0313,19.7813 Q167.9063,19.7813 167.9063,18.9375 Q167.9063,18.4531 168.1875,18.2813 Q168.4844,18.0938 169.0313,18.0938 L174.1719,18.0938 Q174.7188,18.0938 175,18.2813 Q175.2813,18.4531 175.2813,18.9375 Q175.2813,19.7813 174.1719,19.7813 L172.4531,19.7813 L172.4531,26.2969 L174.1719,26.2969 Z " fill="#000000"/><text fill="#000000" font-family="sans-serif" font-size="14" font-style="italic" lengthAdjust="spacing" textLength="101" x="185.5" y="28.6">ITAFGUIActions</text><line style="stroke:#555555;stroke-width:0.5;" x1="157.5" x2="288.5" y1="39" y2="39"/><line style="stroke:#555555;stroke-width:0.5;" x1="157.5" x2="288.5" y1="47" y2="47"/></g><!--MD5=[74891f3454e9ca37cf8b3b8426eb952c]
reverse link TAFBaseGUI to Mockup_ConfigurationManager--><g id="link_TAFBaseGUI_Mockup_ConfigurationManager"><path codeLine="13" d="M89.91,72.34 C98.61,85.88 108.31,100.98 117.01,114.53 " fill="none" id="TAFBaseGUI-backto-Mockup_ConfigurationManager" style="stroke:#181818;stroke-width:1.0;"/><polygon fill="none" points="83.78,75.75,78.86,55.14,95.56,68.18,83.78,75.75" style="stroke:#181818;stroke-width:1.0;"/></g><!--MD5=[25087e1a0d857d5499eb8b6099893c27]
reverse link ITAFGUIActions to Mockup_ConfigurationManager--><g id="link_ITAFGUIActions_Mockup_ConfigurationManager"><path codeLine="14" d="M196.76,72.34 C187.95,85.88 178.13,100.98 169.32,114.53 " fill="none" id="ITAFGUIActions-backto-Mockup_ConfigurationManager" style="stroke:#181818;stroke-width:1.0;stroke-dasharray:7.0,7.0;"/><polygon fill="none" points="191.18,68.08,207.95,55.14,202.92,75.72,191.18,68.08" style="stroke:#181818;stroke-width:1.0;"/></g><!--MD5=[3894e1ae531668c4fc78f80c918214a3]
@startuml
set namespaceSeparator :
skinparam ClassBackgroundColor #FFFFFF
skinparam ClassBorderColor #555555
skinparam ClassFontColor #000000
skinparam ClassHeaderBackgroundColor #808080

skinparam top to bottom direction
class "Mockup_ConfigurationManager" {
{field} -Ref : U32
{method} +GetFrontPanel()

}
"TAFBaseGUI" <|- - "Mockup_ConfigurationManager"
"ITAFGUIActions" <|.. "Mockup_ConfigurationManager"
interface "ITAFGUIActions" {}




@enduml

PlantUML version 1.2022.5(Sat Apr 30 10:55:52 GMT 2022)
(GPL source distribution)
Java Runtime: OpenJDK Runtime Environment
JVM: OpenJDK 64-Bit Server VM
Default Encoding: UTF-8
Language: en
Country: US
--></g></svg>