<?xml version="1.0" encoding="UTF-8" standalone="no"?><svg xmlns="http://www.w3.org/2000/svg" xmlns:xlink="http://www.w3.org/1999/xlink" contentStyleType="text/css" height="321px" preserveAspectRatio="none" style="width:306px;height:321px;background:#FFFFFF;" version="1.1" viewBox="0 0 306 321" width="306px" zoomAndPan="magnify"><defs/><g><!--MD5=[fa9f007be859bf43007ba002c5b16515]
class ITAFObject--><g id="elem_ITAFObject"><rect codeLine="8" fill="#FFFFFF" height="199.1993" id="ITAFObject" rx="2.5" ry="2.5" style="stroke:#555555;stroke-width:0.5;" width="208" x="49" y="115"/><rect fill="#808080" height="32" rx="2.5" ry="2.5" style="stroke:#808080;stroke-width:0.5;" width="208" x="49" y="115"/><rect fill="#808080" height="2.5" style="stroke:#808080;stroke-width:0.5;" width="208" x="49" y="144.5"/><rect codeLine="8" fill="none" height="199.1993" id="ITAFObject" rx="2.5" ry="2.5" style="stroke:#555555;stroke-width:0.5;" width="208" x="49" y="115"/><ellipse cx="113.25" cy="131" fill="#B4A7E5" rx="11" ry="11" style="stroke:#181818;stroke-width:1.0;"/><path d="M115.9219,134.2969 Q116.4688,134.2969 116.75,134.4844 Q117.0313,134.6563 117.0313,135.1563 Q117.0313,136 115.9219,136 L110.7813,136 Q109.6563,136 109.6563,135.1563 Q109.6563,134.6563 109.9375,134.4844 Q110.2344,134.2969 110.7813,134.2969 L112.5,134.2969 L112.5,127.7813 L110.7813,127.7813 Q109.6563,127.7813 109.6563,126.9375 Q109.6563,126.4531 109.9375,126.2813 Q110.2344,126.0938 110.7813,126.0938 L115.9219,126.0938 Q116.4688,126.0938 116.75,126.2813 Q117.0313,126.4531 117.0313,126.9375 Q117.0313,127.7813 115.9219,127.7813 L114.2031,127.7813 L114.2031,134.2969 L115.9219,134.2969 Z " fill="#000000"/><text fill="#000000" font-family="sans-serif" font-size="14" font-style="italic" lengthAdjust="spacing" textLength="71" x="133.75" y="136.6">ITAFObject</text><line style="stroke:#555555;stroke-width:0.5;" x1="50" x2="256" y1="147" y2="147"/><line style="stroke:#555555;stroke-width:0.5;" x1="50" x2="256" y1="155" y2="155"/><ellipse cx="60" cy="166" fill="#84BE84" rx="3" ry="3" style="stroke:#038048;stroke-width:1.0;"/><text fill="#000000" font-family="sans-serif" font-size="14" lengthAdjust="spacing" textLength="182" x="69" y="172.9999">ConfigureExternalInterfaces()</text><ellipse cx="60" cy="182.7999" fill="#84BE84" rx="3" ry="3" style="stroke:#038048;stroke-width:1.0;"/><text fill="#000000" font-family="sans-serif" font-size="14" lengthAdjust="spacing" textLength="51" x="69" y="189.7999">Create()</text><ellipse cx="60" cy="199.5999" fill="#84BE84" rx="3" ry="3" style="stroke:#038048;stroke-width:1.0;"/><text fill="#000000" font-family="sans-serif" font-size="14" lengthAdjust="spacing" textLength="57" x="69" y="206.5998">Destroy()</text><ellipse cx="60" cy="216.3998" fill="#84BE84" rx="3" ry="3" style="stroke:#038048;stroke-width:1.0;"/><text fill="#000000" font-family="sans-serif" font-size="14" lengthAdjust="spacing" textLength="144" x="69" y="223.3997">GetExternalInterfaces()</text><ellipse cx="60" cy="233.1997" fill="#84BE84" rx="3" ry="3" style="stroke:#038048;stroke-width:1.0;"/><text fill="#000000" font-family="sans-serif" font-size="14" lengthAdjust="spacing" textLength="68" x="69" y="240.1996">GetName()</text><ellipse cx="60" cy="249.9996" fill="#84BE84" rx="3" ry="3" style="stroke:#038048;stroke-width:1.0;"/><text fill="#000000" font-family="sans-serif" font-size="14" lengthAdjust="spacing" textLength="176" x="69" y="256.9996">GetPersistentConfiguration()</text><ellipse cx="60" cy="266.7996" fill="#84BE84" rx="3" ry="3" style="stroke:#038048;stroke-width:1.0;"/><text fill="#000000" font-family="sans-serif" font-size="14" lengthAdjust="spacing" textLength="142" x="69" y="273.7995">SetExternalInterfaces()</text><ellipse cx="60" cy="283.5995" fill="#84BE84" rx="3" ry="3" style="stroke:#038048;stroke-width:1.0;"/><text fill="#000000" font-family="sans-serif" font-size="14" lengthAdjust="spacing" textLength="66" x="69" y="290.5994">SetName()</text><ellipse cx="60" cy="300.3994" fill="#84BE84" rx="3" ry="3" style="stroke:#038048;stroke-width:1.0;"/><text fill="#000000" font-family="sans-serif" font-size="14" lengthAdjust="spacing" textLength="174" x="69" y="307.3994">SetPersistentConfiguration()</text></g><!--MD5=[0154008576c8d5ee615f41e1a3ff350e]
class ICreateDestroy--><g id="elem_ICreateDestroy"><rect codeLine="21" fill="#FFFFFF" height="48" id="ICreateDestroy" rx="2.5" ry="2.5" style="stroke:#555555;stroke-width:0.5;" width="128" x="7" y="7"/><rect fill="#808080" height="32" rx="2.5" ry="2.5" style="stroke:#808080;stroke-width:0.5;" width="128" x="7" y="7"/><rect fill="#808080" height="2.5" style="stroke:#808080;stroke-width:0.5;" width="128" x="7" y="36.5"/><rect codeLine="21" fill="none" height="48" id="ICreateDestroy" rx="2.5" ry="2.5" style="stroke:#555555;stroke-width:0.5;" width="128" x="7" y="7"/><ellipse cx="22" cy="23" fill="#B4A7E5" rx="11" ry="11" style="stroke:#181818;stroke-width:1.0;"/><path d="M24.6719,26.2969 Q25.2188,26.2969 25.5,26.4844 Q25.7813,26.6563 25.7813,27.1563 Q25.7813,28 24.6719,28 L19.5313,28 Q18.4063,28 18.4063,27.1563 Q18.4063,26.6563 18.6875,26.4844 Q18.9844,26.2969 19.5313,26.2969 L21.25,26.2969 L21.25,19.7813 L19.5313,19.7813 Q18.4063,19.7813 18.4063,18.9375 Q18.4063,18.4531 18.6875,18.2813 Q18.9844,18.0938 19.5313,18.0938 L24.6719,18.0938 Q25.2188,18.0938 25.5,18.2813 Q25.7813,18.4531 25.7813,18.9375 Q25.7813,19.7813 24.6719,19.7813 L22.9531,19.7813 L22.9531,26.2969 L24.6719,26.2969 Z " fill="#000000"/><text fill="#000000" font-family="sans-serif" font-size="14" font-style="italic" lengthAdjust="spacing" textLength="96" x="36" y="28.6">ICreateDestroy</text><line style="stroke:#555555;stroke-width:0.5;" x1="8" x2="134" y1="39" y2="39"/><line style="stroke:#555555;stroke-width:0.5;" x1="8" x2="134" y1="47" y2="47"/></g><!--MD5=[600f101a63f5e877d81a226e38956775]
class IPersistentData--><g id="elem_IPersistentData"><rect codeLine="23" fill="#FFFFFF" height="48" id="IPersistentData" rx="2.5" ry="2.5" style="stroke:#555555;stroke-width:0.5;" width="129" x="170.5" y="7"/><rect fill="#808080" height="32" rx="2.5" ry="2.5" style="stroke:#808080;stroke-width:0.5;" width="129" x="170.5" y="7"/><rect fill="#808080" height="2.5" style="stroke:#808080;stroke-width:0.5;" width="129" x="170.5" y="36.5"/><rect codeLine="23" fill="none" height="48" id="IPersistentData" rx="2.5" ry="2.5" style="stroke:#555555;stroke-width:0.5;" width="129" x="170.5" y="7"/><ellipse cx="185.5" cy="23" fill="#B4A7E5" rx="11" ry="11" style="stroke:#181818;stroke-width:1.0;"/><path d="M188.1719,26.2969 Q188.7188,26.2969 189,26.4844 Q189.2813,26.6563 189.2813,27.1563 Q189.2813,28 188.1719,28 L183.0313,28 Q181.9063,28 181.9063,27.1563 Q181.9063,26.6563 182.1875,26.4844 Q182.4844,26.2969 183.0313,26.2969 L184.75,26.2969 L184.75,19.7813 L183.0313,19.7813 Q181.9063,19.7813 181.9063,18.9375 Q181.9063,18.4531 182.1875,18.2813 Q182.4844,18.0938 183.0313,18.0938 L188.1719,18.0938 Q188.7188,18.0938 189,18.2813 Q189.2813,18.4531 189.2813,18.9375 Q189.2813,19.7813 188.1719,19.7813 L186.4531,19.7813 L186.4531,26.2969 L188.1719,26.2969 Z " fill="#000000"/><text fill="#000000" font-family="sans-serif" font-size="14" font-style="italic" lengthAdjust="spacing" textLength="97" x="199.5" y="28.6">IPersistentData</text><line style="stroke:#555555;stroke-width:0.5;" x1="171.5" x2="298.5" y1="39" y2="39"/><line style="stroke:#555555;stroke-width:0.5;" x1="171.5" x2="298.5" y1="47" y2="47"/></g><!--MD5=[b2f43849723185dce544a3b30e728282]
reverse link ICreateDestroy to ITAFObject--><g id="link_ICreateDestroy_ITAFObject"><path codeLine="20" d="M89.9,73.84 C95.53,86.3 101.95,100.51 108.49,114.99 " fill="none" id="ICreateDestroy-backto-ITAFObject" style="stroke:#181818;stroke-width:1.0;stroke-dasharray:7.0,7.0;"/><polygon fill="none" points="83.41,76.46,81.55,55.36,96.17,70.7,83.41,76.46" style="stroke:#181818;stroke-width:1.0;"/></g><!--MD5=[54b6c3faa3136269813ad1812ca1a9ec]
reverse link IPersistentData to ITAFObject--><g id="link_IPersistentData_ITAFObject"><path codeLine="22" d="M216.1,73.84 C210.47,86.3 204.05,100.51 197.51,114.99 " fill="none" id="IPersistentData-backto-ITAFObject" style="stroke:#181818;stroke-width:1.0;stroke-dasharray:7.0,7.0;"/><polygon fill="none" points="209.83,70.7,224.45,55.36,222.59,76.46,209.83,70.7" style="stroke:#181818;stroke-width:1.0;"/></g><!--MD5=[5b4e5e7371148d30d60c04183d37da95]
@startuml
set namespaceSeparator :
skinparam ClassBackgroundColor #FFFFFF
skinparam ClassBorderColor #555555
skinparam ClassFontColor #000000
skinparam ClassHeaderBackgroundColor #808080

skinparam top to bottom direction
interface "ITAFObject" {
{method} +ConfigureExternalInterfaces()
{method} +Create()
{method} +Destroy()
{method} +GetExternalInterfaces()
{method} +GetName()
{method} +GetPersistentConfiguration()
{method} +SetExternalInterfaces()
{method} +SetName()
{method} +SetPersistentConfiguration()

}
"ICreateDestroy" <|.. "ITAFObject"
interface "ICreateDestroy" {}
"IPersistentData" <|.. "ITAFObject"
interface "IPersistentData" {}




@enduml

PlantUML version 1.2022.5(Sat Apr 30 10:55:52 GMT 2022)
(GPL source distribution)
Java Runtime: OpenJDK Runtime Environment
JVM: OpenJDK 64-Bit Server VM
Default Encoding: UTF-8
Language: en
Country: US
--></g></svg>