<?xml version="1.0" encoding="UTF-8" standalone="no"?><svg xmlns="http://www.w3.org/2000/svg" xmlns:xlink="http://www.w3.org/1999/xlink" contentStyleType="text/css" height="220px" preserveAspectRatio="none" style="width:296px;height:220px;background:#FFFFFF;" version="1.1" viewBox="0 0 296 220" width="296px" zoomAndPan="magnify"><defs/><g><!--MD5=[026c1e9a4dc23b57e6998280acb2cb32]
class Footer--><g id="elem_Footer"><rect codeLine="8" fill="#FFFFFF" height="98.3998" id="Footer" rx="2.5" ry="2.5" style="stroke:#555555;stroke-width:0.5;" width="125" x="80.5" y="115"/><rect fill="#808080" height="32" rx="2.5" ry="2.5" style="stroke:#808080;stroke-width:0.5;" width="125" x="80.5" y="115"/><rect fill="#808080" height="2.5" style="stroke:#808080;stroke-width:0.5;" width="125" x="80.5" y="144.5"/><rect codeLine="8" fill="none" height="98.3998" id="Footer" rx="2.5" ry="2.5" style="stroke:#555555;stroke-width:0.5;" width="125" x="80.5" y="115"/><ellipse cx="120.25" cy="131" fill="#ADD1B2" rx="11" ry="11" style="stroke:#181818;stroke-width:1.0;"/><path d="M119.6094,134.7813 Q120.4063,134.7813 120.9688,134.5938 Q121.5469,134.3906 121.7813,134.1719 Q122.0313,133.9375 122.2656,133.75 Q122.5156,133.5469 122.7344,133.5469 Q123.0781,133.5469 123.3281,133.8125 Q123.5938,134.0625 123.5938,134.3906 Q123.5938,135.125 122.4219,135.8125 Q121.2656,136.4844 119.5625,136.4844 Q117.4063,136.4844 115.9844,135.2188 Q114.5625,133.9531 114.5625,132.0156 L114.5625,130.8906 Q114.5625,128.8594 115.8906,127.4844 Q117.2188,126.0938 119.1875,126.0938 Q120.375,126.0938 121.5938,126.6719 L121.7656,126.75 Q122.0625,126.3438 122.4844,126.3438 Q122.9688,126.3438 123.1406,126.6406 Q123.3281,126.9219 123.3281,127.4688 L123.3281,128.8906 Q123.3281,130.0156 122.4844,130.0156 Q122.1719,130.0156 121.9688,129.8438 Q121.7813,129.6719 121.7344,129.5313 Q121.7031,129.375 121.6563,129.1094 Q121.5469,128.5938 121.0313,128.2813 Q120.5156,127.9688 120.0625,127.8906 Q119.625,127.7969 119.25,127.7969 Q117.9688,127.7969 117.1094,128.6719 Q116.2656,129.5469 116.2656,130.8906 L116.2656,131.9844 Q116.2656,133.2656 117.1719,134.0313 Q118.0781,134.7813 119.6094,134.7813 Z " fill="#000000"/><text fill="#000000" font-family="sans-serif" font-size="14" lengthAdjust="spacing" textLength="38" x="139.75" y="136.6">Footer</text><line style="stroke:#555555;stroke-width:0.5;" x1="81.5" x2="204.5" y1="147" y2="147"/><rect fill="none" height="6" style="stroke:#C82930;stroke-width:1.0;" width="6" x="88.5" y="155"/><text fill="#000000" font-family="sans-serif" font-size="14" lengthAdjust="spacing" textLength="93" x="100.5" y="164.9999">None : Boolean</text><line style="stroke:#555555;stroke-width:0.5;" x1="81.5" x2="204.5" y1="171.7999" y2="171.7999"/><ellipse cx="91.5" cy="182.7999" fill="#84BE84" rx="3" ry="3" style="stroke:#038048;stroke-width:1.0;"/><text fill="#000000" font-family="sans-serif" font-size="14" lengthAdjust="spacing" text-decoration="underline" textLength="73" x="100.5" y="189.7999">FooterGUI()</text><ellipse cx="91.5" cy="199.5999" fill="#84BE84" rx="3" ry="3" style="stroke:#038048;stroke-width:1.0;"/><text fill="#000000" font-family="sans-serif" font-size="14" lengthAdjust="spacing" textLength="99" x="100.5" y="206.5998">GetFrontPanel()</text></g><!--MD5=[0598474d39ed4a9017b81a2a55acc3b1]
class TAFBaseGUI--><g id="elem_TAFBaseGUI"><rect fill="#FFFFFF" height="48" id="TAFBaseGUI" rx="2.5" ry="2.5" style="stroke:#555555;stroke-width:0.5;" width="114" x="7" y="7"/><rect fill="#808080" height="32" rx="2.5" ry="2.5" style="stroke:#808080;stroke-width:0.5;" width="114" x="7" y="7"/><rect fill="#808080" height="2.5" style="stroke:#808080;stroke-width:0.5;" width="114" x="7" y="36.5"/><rect fill="none" height="48" id="TAFBaseGUI" rx="2.5" ry="2.5" style="stroke:#555555;stroke-width:0.5;" width="114" x="7" y="7"/><ellipse cx="22" cy="23" fill="#ADD1B2" rx="11" ry="11" style="stroke:#181818;stroke-width:1.0;"/><path d="M21.3594,26.7813 Q22.1563,26.7813 22.7188,26.5938 Q23.2969,26.3906 23.5313,26.1719 Q23.7813,25.9375 24.0156,25.75 Q24.2656,25.5469 24.4844,25.5469 Q24.8281,25.5469 25.0781,25.8125 Q25.3438,26.0625 25.3438,26.3906 Q25.3438,27.125 24.1719,27.8125 Q23.0156,28.4844 21.3125,28.4844 Q19.1563,28.4844 17.7344,27.2188 Q16.3125,25.9531 16.3125,24.0156 L16.3125,22.8906 Q16.3125,20.8594 17.6406,19.4844 Q18.9688,18.0938 20.9375,18.0938 Q22.125,18.0938 23.3438,18.6719 L23.5156,18.75 Q23.8125,18.3438 24.2344,18.3438 Q24.7188,18.3438 24.8906,18.6406 Q25.0781,18.9219 25.0781,19.4688 L25.0781,20.8906 Q25.0781,22.0156 24.2344,22.0156 Q23.9219,22.0156 23.7188,21.8438 Q23.5313,21.6719 23.4844,21.5313 Q23.4531,21.375 23.4063,21.1094 Q23.2969,20.5938 22.7813,20.2813 Q22.2656,19.9688 21.8125,19.8906 Q21.375,19.7969 21,19.7969 Q19.7188,19.7969 18.8594,20.6719 Q18.0156,21.5469 18.0156,22.8906 L18.0156,23.9844 Q18.0156,25.2656 18.9219,26.0313 Q19.8281,26.7813 21.3594,26.7813 Z " fill="#000000"/><text fill="#000000" font-family="sans-serif" font-size="14" lengthAdjust="spacing" textLength="82" x="36" y="28.6">TAFBaseGUI</text><line style="stroke:#555555;stroke-width:0.5;" x1="8" x2="120" y1="39" y2="39"/><line style="stroke:#555555;stroke-width:0.5;" x1="8" x2="120" y1="47" y2="47"/></g><!--MD5=[279d10572fd96349ac6b0a9cb9c87a2e]
class ITAFGUIActions--><g id="elem_ITAFGUIActions"><rect codeLine="16" fill="#FFFFFF" height="48" id="ITAFGUIActions" rx="2.5" ry="2.5" style="stroke:#555555;stroke-width:0.5;" width="133" x="156.5" y="7"/><rect fill="#808080" height="32" rx="2.5" ry="2.5" style="stroke:#808080;stroke-width:0.5;" width="133" x="156.5" y="7"/><rect fill="#808080" height="2.5" style="stroke:#808080;stroke-width:0.5;" width="133" x="156.5" y="36.5"/><rect codeLine="16" fill="none" height="48" id="ITAFGUIActions" rx="2.5" ry="2.5" style="stroke:#555555;stroke-width:0.5;" width="133" x="156.5" y="7"/><ellipse cx="171.5" cy="23" fill="#B4A7E5" rx="11" ry="11" style="stroke:#181818;stroke-width:1.0;"/><path d="M174.1719,26.2969 Q174.7188,26.2969 175,26.4844 Q175.2813,26.6563 175.2813,27.1563 Q175.2813,28 174.1719,28 L169.0313,28 Q167.9063,28 167.9063,27.1563 Q167.9063,26.6563 168.1875,26.4844 Q168.4844,26.2969 169.0313,26.2969 L170.75,26.2969 L170.75,19.7813 L169.0313,19.7813 Q167.9063,19.7813 167.9063,18.9375 Q167.9063,18.4531 168.1875,18.2813 Q168.4844,18.0938 169.0313,18.0938 L174.1719,18.0938 Q174.7188,18.0938 175,18.2813 Q175.2813,18.4531 175.2813,18.9375 Q175.2813,19.7813 174.1719,19.7813 L172.4531,19.7813 L172.4531,26.2969 L174.1719,26.2969 Z " fill="#000000"/><text fill="#000000" font-family="sans-serif" font-size="14" font-style="italic" lengthAdjust="spacing" textLength="101" x="185.5" y="28.6">ITAFGUIActions</text><line style="stroke:#555555;stroke-width:0.5;" x1="157.5" x2="288.5" y1="39" y2="39"/><line style="stroke:#555555;stroke-width:0.5;" x1="157.5" x2="288.5" y1="47" y2="47"/></g><!--MD5=[c964d5f6786c67344da66354efe8e87e]
reverse link TAFBaseGUI to Footer--><g id="link_TAFBaseGUI_Footer"><path codeLine="14" d="M88.52,72.65 C96.58,86.03 105.62,101.02 113.99,114.89 " fill="none" id="TAFBaseGUI-backto-Footer" style="stroke:#181818;stroke-width:1.0;"/><polygon fill="none" points="82.28,75.86,77.94,55.12,94.26,68.63,82.28,75.86" style="stroke:#181818;stroke-width:1.0;"/></g><!--MD5=[9457f2da12d71cd0eef8873c7a929bb5]
reverse link ITAFGUIActions to Footer--><g id="link_ITAFGUIActions_Footer"><path codeLine="15" d="M198.45,72.19 C190.22,85.68 180.95,100.86 172.38,114.89 " fill="none" id="ITAFGUIActions-backto-Footer" style="stroke:#181818;stroke-width:1.0;stroke-dasharray:7.0,7.0;"/><polygon fill="none" points="192.48,68.54,208.88,55.12,204.43,75.84,192.48,68.54" style="stroke:#181818;stroke-width:1.0;"/></g><!--MD5=[3240051ba178ecdff7ecd640719fd7c7]
@startuml
set namespaceSeparator :
skinparam ClassBackgroundColor #FFFFFF
skinparam ClassBorderColor #555555
skinparam ClassFontColor #000000
skinparam ClassHeaderBackgroundColor #808080

skinparam top to bottom direction
class "Footer" {
{field} -None : Boolean
{static} {method} +FooterGUI()
{method} +GetFrontPanel()

}
"TAFBaseGUI" <|- - "Footer"
"ITAFGUIActions" <|.. "Footer"
interface "ITAFGUIActions" {}




@enduml

PlantUML version 1.2022.5(Sat Apr 30 10:55:52 GMT 2022)
(GPL source distribution)
Java Runtime: OpenJDK Runtime Environment
JVM: OpenJDK 64-Bit Server VM
Default Encoding: UTF-8
Language: en
Country: US
--></g></svg>