<?xml version="1.0" encoding="UTF-8" standalone="no"?><svg xmlns="http://www.w3.org/2000/svg" xmlns:xlink="http://www.w3.org/1999/xlink" contentStyleType="text/css" height="841px" preserveAspectRatio="none" style="width:632px;height:841px;background:#FFFFFF;" version="1.1" viewBox="0 0 632 841" width="632px" zoomAndPan="magnify"><defs/><g><!--MD5=[7527e2d4fb4cfcf2665acf62b5b5e47b]
class MasterGUI--><g id="elem_MasterGUI"><rect codeLine="8" fill="#FFFFFF" height="719.9971" id="MasterGUI" rx="2.5" ry="2.5" style="stroke:#555555;stroke-width:0.5;" width="225" x="214.5" y="115"/><rect fill="#808080" height="32" rx="2.5" ry="2.5" style="stroke:#808080;stroke-width:0.5;" width="225" x="214.5" y="115"/><rect fill="#808080" height="2.5" style="stroke:#808080;stroke-width:0.5;" width="225" x="214.5" y="144.5"/><rect codeLine="8" fill="none" height="719.9971" id="MasterGUI" rx="2.5" ry="2.5" style="stroke:#555555;stroke-width:0.5;" width="225" x="214.5" y="115"/><ellipse cx="288.75" cy="131" fill="#ADD1B2" rx="11" ry="11" style="stroke:#181818;stroke-width:1.0;"/><path d="M288.1094,134.7813 Q288.9063,134.7813 289.4688,134.5938 Q290.0469,134.3906 290.2813,134.1719 Q290.5313,133.9375 290.7656,133.75 Q291.0156,133.5469 291.2344,133.5469 Q291.5781,133.5469 291.8281,133.8125 Q292.0938,134.0625 292.0938,134.3906 Q292.0938,135.125 290.9219,135.8125 Q289.7656,136.4844 288.0625,136.4844 Q285.9063,136.4844 284.4844,135.2188 Q283.0625,133.9531 283.0625,132.0156 L283.0625,130.8906 Q283.0625,128.8594 284.3906,127.4844 Q285.7188,126.0938 287.6875,126.0938 Q288.875,126.0938 290.0938,126.6719 L290.2656,126.75 Q290.5625,126.3438 290.9844,126.3438 Q291.4688,126.3438 291.6406,126.6406 Q291.8281,126.9219 291.8281,127.4688 L291.8281,128.8906 Q291.8281,130.0156 290.9844,130.0156 Q290.6719,130.0156 290.4688,129.8438 Q290.2813,129.6719 290.2344,129.5313 Q290.2031,129.375 290.1563,129.1094 Q290.0469,128.5938 289.5313,128.2813 Q289.0156,127.9688 288.5625,127.8906 Q288.125,127.7969 287.75,127.7969 Q286.4688,127.7969 285.6094,128.6719 Q284.7656,129.5469 284.7656,130.8906 L284.7656,131.9844 Q284.7656,133.2656 285.6719,134.0313 Q286.5781,134.7813 288.1094,134.7813 Z " fill="#000000"/><text fill="#000000" font-family="sans-serif" font-size="14" lengthAdjust="spacing" textLength="68" x="309.25" y="136.6">MasterGUI</text><line style="stroke:#555555;stroke-width:0.5;" x1="215.5" x2="438.5" y1="147" y2="147"/><rect fill="none" height="6" style="stroke:#C82930;stroke-width:1.0;" width="6" x="222.5" y="155"/><text fill="#000000" font-family="sans-serif" font-size="14" lengthAdjust="spacing" textLength="59" x="234.5" y="164.9999">Ref : U32</text><line style="stroke:#555555;stroke-width:0.5;" x1="215.5" x2="438.5" y1="171.7999" y2="171.7999"/><polygon fill="#FFFF44" points="225.5,177.7999,229.5,181.7999,225.5,185.7999,221.5,181.7999" style="stroke:#B38D22;stroke-width:1.0;"/><text fill="#000000" font-family="sans-serif" font-size="14" lengthAdjust="spacing" text-decoration="underline" textLength="96" x="234.5" y="189.7999">StartMainGUI()</text><polygon fill="#FFFF44" points="225.5,194.5999,229.5,198.5999,225.5,202.5999,221.5,198.5999" style="stroke:#B38D22;stroke-width:1.0;"/><text fill="#000000" font-family="sans-serif" font-size="14" lengthAdjust="spacing" text-decoration="underline" textLength="54" x="234.5" y="206.5998">DockVI()</text><polygon fill="#FFFF44" points="225.5,211.3998,229.5,215.3998,225.5,219.3998,221.5,215.3998" style="stroke:#B38D22;stroke-width:1.0;"/><text fill="#000000" font-family="sans-serif" font-size="14" lengthAdjust="spacing" text-decoration="underline" textLength="108" x="234.5" y="223.3997">RequestDestroy()</text><polygon fill="#FFFF44" points="225.5,228.1997,229.5,232.1997,225.5,236.1997,221.5,232.1997" style="stroke:#B38D22;stroke-width:1.0;"/><text fill="#000000" font-family="sans-serif" font-size="14" lengthAdjust="spacing" text-decoration="underline" textLength="66" x="234.5" y="240.1996">MainGUI()</text><polygon fill="#FFFF44" points="225.5,244.9996,229.5,248.9996,225.5,252.9996,221.5,248.9996" style="stroke:#B38D22;stroke-width:1.0;"/><text fill="#000000" font-family="sans-serif" font-size="14" lengthAdjust="spacing" text-decoration="underline" textLength="94" x="234.5" y="256.9996">StopMainGUI()</text><polygon fill="#FFFF44" points="225.5,261.7996,229.5,265.7996,225.5,269.7996,221.5,265.7996" style="stroke:#B38D22;stroke-width:1.0;"/><text fill="#000000" font-family="sans-serif" font-size="14" lengthAdjust="spacing" text-decoration="underline" textLength="113" x="234.5" y="273.7995">MasterGUI_New()</text><polygon fill="#FFFF44" points="225.5,278.5995,229.5,282.5995,225.5,286.5995,221.5,282.5995" style="stroke:#B38D22;stroke-width:1.0;"/><text fill="#000000" font-family="sans-serif" font-size="14" lengthAdjust="spacing" text-decoration="underline" textLength="131" x="234.5" y="290.5994">MainGUIRepository()</text><polygon fill="#FFFF44" points="225.5,295.3994,229.5,299.3994,225.5,303.3994,221.5,299.3994" style="stroke:#B38D22;stroke-width:1.0;"/><text fill="#000000" font-family="sans-serif" font-size="14" lengthAdjust="spacing" text-decoration="underline" textLength="167" x="234.5" y="307.3994">MasterGUI_GetAttributes()</text><polygon fill="#FFFF44" points="225.5,312.1993,229.5,316.1993,225.5,320.1993,221.5,316.1993" style="stroke:#B38D22;stroke-width:1.0;"/><text fill="#000000" font-family="sans-serif" font-size="14" lengthAdjust="spacing" text-decoration="underline" textLength="191" x="234.5" y="324.1993">MasterGUI_SendAndReceive()</text><rect fill="#F24D5C" height="6" style="stroke:#C82930;stroke-width:1.0;" width="6" x="222.5" y="330.9993"/><text fill="#000000" font-family="sans-serif" font-size="14" lengthAdjust="spacing" text-decoration="underline" textLength="179" x="234.5" y="340.9992">MasterGUI_MainGUIActive()</text><ellipse cx="225.5" cy="350.7992" fill="#84BE84" rx="3" ry="3" style="stroke:#038048;stroke-width:1.0;"/><text fill="#000000" font-family="sans-serif" font-size="14" lengthAdjust="spacing" text-decoration="underline" textLength="127" x="234.5" y="357.7991">MasterGUI_Create()</text><ellipse cx="225.5" cy="367.5991" fill="#84BE84" rx="3" ry="3" style="stroke:#038048;stroke-width:1.0;"/><text fill="#000000" font-family="sans-serif" font-size="14" lengthAdjust="spacing" text-decoration="underline" textLength="159" x="234.5" y="374.5991">ControlMainGUIWindow()</text><polygon fill="#FFFF44" points="225.5,379.399,229.5,383.399,225.5,387.399,221.5,383.399" style="stroke:#B38D22;stroke-width:1.0;"/><text fill="#000000" font-family="sans-serif" font-size="14" lengthAdjust="spacing" textLength="72" x="234.5" y="391.399">SetLayout()</text><polygon fill="#FFFF44" points="225.5,396.199,229.5,400.199,225.5,404.199,221.5,400.199" style="stroke:#B38D22;stroke-width:1.0;"/><text fill="#000000" font-family="sans-serif" font-size="14" lengthAdjust="spacing" textLength="114" x="234.5" y="408.1989">RefreshTafMenu()</text><polygon fill="#FFFF44" points="225.5,412.9989,229.5,416.9989,225.5,420.9989,221.5,416.9989" style="stroke:#B38D22;stroke-width:1.0;"/><text fill="#000000" font-family="sans-serif" font-size="14" lengthAdjust="spacing" textLength="107" x="234.5" y="424.9988">DockMainPanel()</text><polygon fill="#FFFF44" points="225.5,429.7988,229.5,433.7988,225.5,437.7988,221.5,433.7988" style="stroke:#B38D22;stroke-width:1.0;"/><text fill="#000000" font-family="sans-serif" font-size="14" lengthAdjust="spacing" textLength="101" x="234.5" y="441.7988">DockSubPanel()</text><polygon fill="#FFFF44" points="225.5,446.5988,229.5,450.5988,225.5,454.5988,221.5,450.5988" style="stroke:#B38D22;stroke-width:1.0;"/><text fill="#000000" font-family="sans-serif" font-size="14" lengthAdjust="spacing" textLength="96" x="234.5" y="458.5987">AddTAFMenu()</text><polygon fill="#FFFF44" points="225.5,463.3987,229.5,467.3987,225.5,471.3987,221.5,467.3987" style="stroke:#B38D22;stroke-width:1.0;"/><text fill="#000000" font-family="sans-serif" font-size="14" lengthAdjust="spacing" textLength="199" x="234.5" y="475.3986">DockSubPanelFromFrontPanel()</text><polygon fill="#FFFF44" points="225.5,480.1986,229.5,484.1986,225.5,488.1986,221.5,484.1986" style="stroke:#B38D22;stroke-width:1.0;"/><text fill="#000000" font-family="sans-serif" font-size="14" lengthAdjust="spacing" textLength="123" x="234.5" y="492.1985">PreTAFMenuHook()</text><polygon fill="#FFFF44" points="225.5,496.9985,229.5,500.9985,225.5,504.9985,221.5,500.9985" style="stroke:#B38D22;stroke-width:1.0;"/><text fill="#000000" font-family="sans-serif" font-size="14" lengthAdjust="spacing" textLength="129" x="234.5" y="508.9985">PostTAFMenuHook()</text><polygon fill="#FFFF44" points="225.5,513.7985,229.5,517.7985,225.5,521.7985,221.5,517.7985" style="stroke:#B38D22;stroke-width:1.0;"/><text fill="#000000" font-family="sans-serif" font-size="14" lengthAdjust="spacing" textLength="142" x="234.5" y="525.7984">DockStaticSubpanels()</text><polygon fill="#FFFF44" points="225.5,530.5984,229.5,534.5984,225.5,538.5984,221.5,534.5984" style="stroke:#B38D22;stroke-width:1.0;"/><text fill="#000000" font-family="sans-serif" font-size="14" lengthAdjust="spacing" textLength="94" x="234.5" y="542.5983">ExecuteMenu()</text><polygon fill="#FFFF44" points="225.5,547.3983,229.5,551.3983,225.5,555.3983,221.5,551.3983" style="stroke:#B38D22;stroke-width:1.0;"/><text fill="#000000" font-family="sans-serif" font-size="14" lengthAdjust="spacing" textLength="109" x="234.5" y="559.3983">ReadMainPanel()</text><polygon fill="#FFFF44" points="225.5,564.1982,229.5,568.1982,225.5,572.1982,221.5,568.1982" style="stroke:#B38D22;stroke-width:1.0;"/><text fill="#000000" font-family="sans-serif" font-size="14" lengthAdjust="spacing" textLength="108" x="234.5" y="576.1982">WriteMainPanel()</text><polygon fill="#FFFF44" points="225.5,580.9982,229.5,584.9982,225.5,588.9982,221.5,584.9982" style="stroke:#B38D22;stroke-width:1.0;"/><text fill="#000000" font-family="sans-serif" font-size="14" lengthAdjust="spacing" textLength="125" x="234.5" y="592.9981">ReadWindowsTitle()</text><polygon fill="#FFFF44" points="225.5,597.7981,229.5,601.7981,225.5,605.7981,221.5,601.7981" style="stroke:#B38D22;stroke-width:1.0;"/><text fill="#000000" font-family="sans-serif" font-size="14" lengthAdjust="spacing" textLength="77" x="234.5" y="609.798">WriteMenu()</text><polygon fill="#FFFF44" points="225.5,614.598,229.5,618.598,225.5,622.598,221.5,618.598" style="stroke:#B38D22;stroke-width:1.0;"/><text fill="#000000" font-family="sans-serif" font-size="14" lengthAdjust="spacing" textLength="78" x="234.5" y="626.598">ReadMenu()</text><ellipse cx="225.5" cy="636.3979" fill="#84BE84" rx="3" ry="3" style="stroke:#038048;stroke-width:1.0;"/><text fill="#000000" font-family="sans-serif" font-size="14" lengthAdjust="spacing" textLength="176" x="234.5" y="643.3979">GetPersistentConfiguration()</text><ellipse cx="225.5" cy="653.1979" fill="#84BE84" rx="3" ry="3" style="stroke:#038048;stroke-width:1.0;"/><text fill="#000000" font-family="sans-serif" font-size="14" lengthAdjust="spacing" textLength="174" x="234.5" y="660.1978">SetPersistentConfiguration()</text><ellipse cx="225.5" cy="669.9978" fill="#84BE84" rx="3" ry="3" style="stroke:#038048;stroke-width:1.0;"/><text fill="#000000" font-family="sans-serif" font-size="14" lengthAdjust="spacing" textLength="144" x="234.5" y="676.9977">GetExternalInterfaces()</text><ellipse cx="225.5" cy="686.7977" fill="#84BE84" rx="3" ry="3" style="stroke:#038048;stroke-width:1.0;"/><text fill="#000000" font-family="sans-serif" font-size="14" lengthAdjust="spacing" textLength="142" x="234.5" y="693.7977">SetExternalInterfaces()</text><ellipse cx="225.5" cy="703.5977" fill="#84BE84" rx="3" ry="3" style="stroke:#038048;stroke-width:1.0;"/><text fill="#000000" font-family="sans-serif" font-size="14" lengthAdjust="spacing" textLength="137" x="234.5" y="710.5976">ExecuteButtonAction()</text><polygon fill="#FFFF44" points="225.5,715.3976,229.5,719.3976,225.5,723.3976,221.5,719.3976" style="stroke:#B38D22;stroke-width:1.0;"/><text fill="#000000" font-family="sans-serif" font-size="14" lengthAdjust="spacing" textLength="52" x="234.5" y="727.3975">Layout()</text><ellipse cx="225.5" cy="737.1975" fill="#84BE84" rx="3" ry="3" style="stroke:#038048;stroke-width:1.0;"/><text fill="#000000" font-family="sans-serif" font-size="14" lengthAdjust="spacing" textLength="51" x="234.5" y="744.1974">Create()</text><ellipse cx="225.5" cy="753.9974" fill="#84BE84" rx="3" ry="3" style="stroke:#038048;stroke-width:1.0;"/><text fill="#000000" font-family="sans-serif" font-size="14" lengthAdjust="spacing" textLength="57" x="234.5" y="760.9974">Destroy()</text><ellipse cx="225.5" cy="770.7974" fill="#84BE84" rx="3" ry="3" style="stroke:#038048;stroke-width:1.0;"/><text fill="#000000" font-family="sans-serif" font-size="14" lengthAdjust="spacing" textLength="99" x="234.5" y="777.7973">IsGUIRunning()</text><ellipse cx="225.5" cy="787.5973" fill="#84BE84" rx="3" ry="3" style="stroke:#038048;stroke-width:1.0;"/><text fill="#000000" font-family="sans-serif" font-size="14" lengthAdjust="spacing" textLength="65" x="234.5" y="794.5972">StartGUI()</text><ellipse cx="225.5" cy="804.3972" fill="#84BE84" rx="3" ry="3" style="stroke:#038048;stroke-width:1.0;"/><text fill="#000000" font-family="sans-serif" font-size="14" lengthAdjust="spacing" textLength="66" x="234.5" y="811.3972">DockGUI()</text><ellipse cx="225.5" cy="821.1971" fill="#84BE84" rx="3" ry="3" style="stroke:#038048;stroke-width:1.0;"/><text fill="#000000" font-family="sans-serif" font-size="14" lengthAdjust="spacing" textLength="99" x="234.5" y="828.1971">GetFrontPanel()</text></g><!--MD5=[0598474d39ed4a9017b81a2a55acc3b1]
class TAFBaseGUI--><g id="elem_TAFBaseGUI"><rect fill="#FFFFFF" height="48" id="TAFBaseGUI" rx="2.5" ry="2.5" style="stroke:#555555;stroke-width:0.5;" width="114" x="7" y="7"/><rect fill="#808080" height="32" rx="2.5" ry="2.5" style="stroke:#808080;stroke-width:0.5;" width="114" x="7" y="7"/><rect fill="#808080" height="2.5" style="stroke:#808080;stroke-width:0.5;" width="114" x="7" y="36.5"/><rect fill="none" height="48" id="TAFBaseGUI" rx="2.5" ry="2.5" style="stroke:#555555;stroke-width:0.5;" width="114" x="7" y="7"/><ellipse cx="22" cy="23" fill="#ADD1B2" rx="11" ry="11" style="stroke:#181818;stroke-width:1.0;"/><path d="M21.3594,26.7813 Q22.1563,26.7813 22.7188,26.5938 Q23.2969,26.3906 23.5313,26.1719 Q23.7813,25.9375 24.0156,25.75 Q24.2656,25.5469 24.4844,25.5469 Q24.8281,25.5469 25.0781,25.8125 Q25.3438,26.0625 25.3438,26.3906 Q25.3438,27.125 24.1719,27.8125 Q23.0156,28.4844 21.3125,28.4844 Q19.1563,28.4844 17.7344,27.2188 Q16.3125,25.9531 16.3125,24.0156 L16.3125,22.8906 Q16.3125,20.8594 17.6406,19.4844 Q18.9688,18.0938 20.9375,18.0938 Q22.125,18.0938 23.3438,18.6719 L23.5156,18.75 Q23.8125,18.3438 24.2344,18.3438 Q24.7188,18.3438 24.8906,18.6406 Q25.0781,18.9219 25.0781,19.4688 L25.0781,20.8906 Q25.0781,22.0156 24.2344,22.0156 Q23.9219,22.0156 23.7188,21.8438 Q23.5313,21.6719 23.4844,21.5313 Q23.4531,21.375 23.4063,21.1094 Q23.2969,20.5938 22.7813,20.2813 Q22.2656,19.9688 21.8125,19.8906 Q21.375,19.7969 21,19.7969 Q19.7188,19.7969 18.8594,20.6719 Q18.0156,21.5469 18.0156,22.8906 L18.0156,23.9844 Q18.0156,25.2656 18.9219,26.0313 Q19.8281,26.7813 21.3594,26.7813 Z " fill="#000000"/><text fill="#000000" font-family="sans-serif" font-size="14" lengthAdjust="spacing" textLength="82" x="36" y="28.6">TAFBaseGUI</text><line style="stroke:#555555;stroke-width:0.5;" x1="8" x2="120" y1="39" y2="39"/><line style="stroke:#555555;stroke-width:0.5;" x1="8" x2="120" y1="47" y2="47"/></g><!--MD5=[2bb486e18dffc97c24a5fd8d709ce62f]
class IAuthorizationUpdated--><g id="elem_IAuthorizationUpdated"><rect codeLine="53" fill="#FFFFFF" height="48" id="IAuthorizationUpdated" rx="2.5" ry="2.5" style="stroke:#555555;stroke-width:0.5;" width="173" x="156.5" y="7"/><rect fill="#808080" height="32" rx="2.5" ry="2.5" style="stroke:#808080;stroke-width:0.5;" width="173" x="156.5" y="7"/><rect fill="#808080" height="2.5" style="stroke:#808080;stroke-width:0.5;" width="173" x="156.5" y="36.5"/><rect codeLine="53" fill="none" height="48" id="IAuthorizationUpdated" rx="2.5" ry="2.5" style="stroke:#555555;stroke-width:0.5;" width="173" x="156.5" y="7"/><ellipse cx="171.5" cy="23" fill="#B4A7E5" rx="11" ry="11" style="stroke:#181818;stroke-width:1.0;"/><path d="M174.1719,26.2969 Q174.7188,26.2969 175,26.4844 Q175.2813,26.6563 175.2813,27.1563 Q175.2813,28 174.1719,28 L169.0313,28 Q167.9063,28 167.9063,27.1563 Q167.9063,26.6563 168.1875,26.4844 Q168.4844,26.2969 169.0313,26.2969 L170.75,26.2969 L170.75,19.7813 L169.0313,19.7813 Q167.9063,19.7813 167.9063,18.9375 Q167.9063,18.4531 168.1875,18.2813 Q168.4844,18.0938 169.0313,18.0938 L174.1719,18.0938 Q174.7188,18.0938 175,18.2813 Q175.2813,18.4531 175.2813,18.9375 Q175.2813,19.7813 174.1719,19.7813 L172.4531,19.7813 L172.4531,26.2969 L174.1719,26.2969 Z " fill="#000000"/><text fill="#000000" font-family="sans-serif" font-size="14" font-style="italic" lengthAdjust="spacing" textLength="141" x="185.5" y="28.6">IAuthorizationUpdated</text><line style="stroke:#555555;stroke-width:0.5;" x1="157.5" x2="328.5" y1="39" y2="39"/><line style="stroke:#555555;stroke-width:0.5;" x1="157.5" x2="328.5" y1="47" y2="47"/></g><!--MD5=[85956100a972d1a6c529b31adbe90b73]
class IDockGUI--><g id="elem_IDockGUI"><rect codeLine="55" fill="#FFFFFF" height="48" id="IDockGUI" rx="2.5" ry="2.5" style="stroke:#555555;stroke-width:0.5;" width="93" x="364.5" y="7"/><rect fill="#808080" height="32" rx="2.5" ry="2.5" style="stroke:#808080;stroke-width:0.5;" width="93" x="364.5" y="7"/><rect fill="#808080" height="2.5" style="stroke:#808080;stroke-width:0.5;" width="93" x="364.5" y="36.5"/><rect codeLine="55" fill="none" height="48" id="IDockGUI" rx="2.5" ry="2.5" style="stroke:#555555;stroke-width:0.5;" width="93" x="364.5" y="7"/><ellipse cx="379.5" cy="23" fill="#B4A7E5" rx="11" ry="11" style="stroke:#181818;stroke-width:1.0;"/><path d="M382.1719,26.2969 Q382.7188,26.2969 383,26.4844 Q383.2813,26.6563 383.2813,27.1563 Q383.2813,28 382.1719,28 L377.0313,28 Q375.9063,28 375.9063,27.1563 Q375.9063,26.6563 376.1875,26.4844 Q376.4844,26.2969 377.0313,26.2969 L378.75,26.2969 L378.75,19.7813 L377.0313,19.7813 Q375.9063,19.7813 375.9063,18.9375 Q375.9063,18.4531 376.1875,18.2813 Q376.4844,18.0938 377.0313,18.0938 L382.1719,18.0938 Q382.7188,18.0938 383,18.2813 Q383.2813,18.4531 383.2813,18.9375 Q383.2813,19.7813 382.1719,19.7813 L380.4531,19.7813 L380.4531,26.2969 L382.1719,26.2969 Z " fill="#000000"/><text fill="#000000" font-family="sans-serif" font-size="14" font-style="italic" lengthAdjust="spacing" textLength="61" x="393.5" y="28.6">IDockGUI</text><line style="stroke:#555555;stroke-width:0.5;" x1="365.5" x2="456.5" y1="39" y2="39"/><line style="stroke:#555555;stroke-width:0.5;" x1="365.5" x2="456.5" y1="47" y2="47"/></g><!--MD5=[279d10572fd96349ac6b0a9cb9c87a2e]
class ITAFGUIActions--><g id="elem_ITAFGUIActions"><rect codeLine="57" fill="#FFFFFF" height="48" id="ITAFGUIActions" rx="2.5" ry="2.5" style="stroke:#555555;stroke-width:0.5;" width="133" x="492.5" y="7"/><rect fill="#808080" height="32" rx="2.5" ry="2.5" style="stroke:#808080;stroke-width:0.5;" width="133" x="492.5" y="7"/><rect fill="#808080" height="2.5" style="stroke:#808080;stroke-width:0.5;" width="133" x="492.5" y="36.5"/><rect codeLine="57" fill="none" height="48" id="ITAFGUIActions" rx="2.5" ry="2.5" style="stroke:#555555;stroke-width:0.5;" width="133" x="492.5" y="7"/><ellipse cx="507.5" cy="23" fill="#B4A7E5" rx="11" ry="11" style="stroke:#181818;stroke-width:1.0;"/><path d="M510.1719,26.2969 Q510.7188,26.2969 511,26.4844 Q511.2813,26.6563 511.2813,27.1563 Q511.2813,28 510.1719,28 L505.0313,28 Q503.9063,28 503.9063,27.1563 Q503.9063,26.6563 504.1875,26.4844 Q504.4844,26.2969 505.0313,26.2969 L506.75,26.2969 L506.75,19.7813 L505.0313,19.7813 Q503.9063,19.7813 503.9063,18.9375 Q503.9063,18.4531 504.1875,18.2813 Q504.4844,18.0938 505.0313,18.0938 L510.1719,18.0938 Q510.7188,18.0938 511,18.2813 Q511.2813,18.4531 511.2813,18.9375 Q511.2813,19.7813 510.1719,19.7813 L508.4531,19.7813 L508.4531,26.2969 L510.1719,26.2969 Z " fill="#000000"/><text fill="#000000" font-family="sans-serif" font-size="14" font-style="italic" lengthAdjust="spacing" textLength="101" x="521.5" y="28.6">ITAFGUIActions</text><line style="stroke:#555555;stroke-width:0.5;" x1="493.5" x2="624.5" y1="39" y2="39"/><line style="stroke:#555555;stroke-width:0.5;" x1="493.5" x2="624.5" y1="47" y2="47"/></g><!--MD5=[f1aac6073a793d3f40d3cb2d4b70fbdf]
reverse link TAFBaseGUI to MasterGUI--><g id="link_TAFBaseGUI_MasterGUI"><path codeLine="51" d="M88.07,72.46 C116.95,120.99 167.39,205.75 214.5,284.93 " fill="none" id="TAFBaseGUI-backto-MasterGUI" style="stroke:#181818;stroke-width:1.0;"/><polygon fill="none" points="81.98,75.91,77.77,55.14,94.01,68.75,81.98,75.91" style="stroke:#181818;stroke-width:1.0;"/></g><!--MD5=[2ab48666b6350bc6ef28a458ccfdbd4a]
reverse link IAuthorizationUpdated to MasterGUI--><g id="link_IAuthorizationUpdated_MasterGUI"><path codeLine="52" d="M251.14,74.85 C253.34,86.41 255.9,99.88 258.73,114.75 " fill="none" id="IAuthorizationUpdated-backto-MasterGUI" style="stroke:#181818;stroke-width:1.0;stroke-dasharray:7.0,7.0;"/><polygon fill="none" points="244.26,76.1,247.4,55.14,258.01,73.48,244.26,76.1" style="stroke:#181818;stroke-width:1.0;"/></g><!--MD5=[06b15e401f3361d93a209bd5229c5c64]
reverse link IDockGUI to MasterGUI--><g id="link_IDockGUI_MasterGUI"><path codeLine="54" d="M402.86,74.85 C400.66,86.41 398.1,99.88 395.27,114.75 " fill="none" id="IDockGUI-backto-MasterGUI" style="stroke:#181818;stroke-width:1.0;stroke-dasharray:7.0,7.0;"/><polygon fill="none" points="395.99,73.48,406.6,55.14,409.74,76.1,395.99,73.48" style="stroke:#181818;stroke-width:1.0;"/></g><!--MD5=[1f45a608409950bcfb84542352237dc2]
reverse link ITAFGUIActions to MasterGUI--><g id="link_ITAFGUIActions_MasterGUI"><path codeLine="56" d="M537.49,72.99 C514.67,116.45 476.85,188.51 439.51,259.65 " fill="none" id="ITAFGUIActions-backto-MasterGUI" style="stroke:#181818;stroke-width:1.0;stroke-dasharray:7.0,7.0;"/><polygon fill="none" points="531.36,69.6,546.85,55.14,543.76,76.1,531.36,69.6" style="stroke:#181818;stroke-width:1.0;"/></g><!--MD5=[041647be51afaf505fdad4c61f0d5c24]
@startuml
set namespaceSeparator :
skinparam ClassBackgroundColor #FFFFFF
skinparam ClassBorderColor #555555
skinparam ClassFontColor #000000
skinparam ClassHeaderBackgroundColor #808080

skinparam top to bottom direction
class "MasterGUI" {
{field} -Ref : U32
{static} {method} #StartMainGUI()
{static} {method} #DockVI()
{static} {method} #RequestDestroy()
{static} {method} #MainGUI()
{static} {method} #StopMainGUI()
{static} {method} #MasterGUI_New()
{static} {method} #MainGUIRepository()
{static} {method} #MasterGUI_GetAttributes()
{static} {method} #MasterGUI_SendAndReceive()
{static} {method} -MasterGUI_MainGUIActive()
{static} {method} +MasterGUI_Create()
{static} {method} +ControlMainGUIWindow()
{method} #SetLayout()
{method} #RefreshTafMenu()
{method} #DockMainPanel()
{method} #DockSubPanel()
{method} #AddTAFMenu()
{method} #DockSubPanelFromFrontPanel()
{method} #PreTAFMenuHook()
{method} #PostTAFMenuHook()
{method} #DockStaticSubpanels()
{method} #ExecuteMenu()
{method} #ReadMainPanel()
{method} #WriteMainPanel()
{method} #ReadWindowsTitle()
{method} #WriteMenu()
{method} #ReadMenu()
{method} +GetPersistentConfiguration()
{method} +SetPersistentConfiguration()
{method} +GetExternalInterfaces()
{method} +SetExternalInterfaces()
{method} +ExecuteButtonAction()
{method} #Layout()
{method} +Create()
{method} +Destroy()
{method} +IsGUIRunning()
{method} +StartGUI()
{method} +DockGUI()
{method} +GetFrontPanel()

}
"TAFBaseGUI" <|- - "MasterGUI"
"IAuthorizationUpdated" <|.. "MasterGUI"
interface "IAuthorizationUpdated" {}
"IDockGUI" <|.. "MasterGUI"
interface "IDockGUI" {}
"ITAFGUIActions" <|.. "MasterGUI"
interface "ITAFGUIActions" {}




@enduml

PlantUML version 1.2022.5(Sat Apr 30 10:55:52 GMT 2022)
(GPL source distribution)
Java Runtime: OpenJDK Runtime Environment
JVM: OpenJDK 64-Bit Server VM
Default Encoding: UTF-8
Language: en
Country: US
--></g></svg>