<?xml version="1.0" encoding="UTF-8" standalone="no"?><svg xmlns="http://www.w3.org/2000/svg" xmlns:xlink="http://www.w3.org/1999/xlink" contentStyleType="text/css" height="556px" preserveAspectRatio="none" style="width:296px;height:556px;background:#FFFFFF;" version="1.1" viewBox="0 0 296 556" width="296px" zoomAndPan="magnify"><defs/><g><!--MD5=[63bcd6da410e6b93725455a83d4342d0]
cluster BusBase.lvlib--><g id="cluster_BusBase.lvlib"><path d="M27.5,80 L121.5,80 A3.75,3.75 0 0 1 124,82.5 L131,102.7999 L258.5,102.7999 A2.5,2.5 0 0 1 261,105.2999 L261,546.5 A2.5,2.5 0 0 1 258.5,549 L27.5,549 A2.5,2.5 0 0 1 25,546.5 L25,82.5 A2.5,2.5 0 0 1 27.5,80 " style="stroke:#000000;stroke-width:1.5;fill:none;"/><line style="stroke:#000000;stroke-width:1.5;fill:none;" x1="25" x2="131" y1="102.7999" y2="102.7999"/><text fill="#000000" font-family="sans-serif" font-size="14" font-weight="bold" lengthAdjust="spacing" textLength="93" x="29" y="95.9999">BusBase.lvlib</text></g><!--MD5=[5c9690e2b5af1daf3d654b5084aa762d]
class BusBase.lvlib:BusBase--><g id="elem_BusBase.lvlib:BusBase"><rect codeLine="8" fill="#FFFFFF" height="417.5984" id="BusBase.lvlib:BusBase" rx="2.5" ry="2.5" style="stroke:#555555;stroke-width:0.5;" width="204" x="41" y="115"/><rect fill="#808080" height="32" rx="2.5" ry="2.5" style="stroke:#808080;stroke-width:0.5;" width="204" x="41" y="115"/><rect fill="#808080" height="2.5" style="stroke:#808080;stroke-width:0.5;" width="204" x="41" y="144.5"/><rect codeLine="8" fill="none" height="417.5984" id="BusBase.lvlib:BusBase" rx="2.5" ry="2.5" style="stroke:#555555;stroke-width:0.5;" width="204" x="41" y="115"/><ellipse cx="111.25" cy="131" fill="#ADD1B2" rx="11" ry="11" style="stroke:#181818;stroke-width:1.0;"/><path d="M110.6094,134.7813 Q111.4063,134.7813 111.9688,134.5938 Q112.5469,134.3906 112.7813,134.1719 Q113.0313,133.9375 113.2656,133.75 Q113.5156,133.5469 113.7344,133.5469 Q114.0781,133.5469 114.3281,133.8125 Q114.5938,134.0625 114.5938,134.3906 Q114.5938,135.125 113.4219,135.8125 Q112.2656,136.4844 110.5625,136.4844 Q108.4063,136.4844 106.9844,135.2188 Q105.5625,133.9531 105.5625,132.0156 L105.5625,130.8906 Q105.5625,128.8594 106.8906,127.4844 Q108.2188,126.0938 110.1875,126.0938 Q111.375,126.0938 112.5938,126.6719 L112.7656,126.75 Q113.0625,126.3438 113.4844,126.3438 Q113.9688,126.3438 114.1406,126.6406 Q114.3281,126.9219 114.3281,127.4688 L114.3281,128.8906 Q114.3281,130.0156 113.4844,130.0156 Q113.1719,130.0156 112.9688,129.8438 Q112.7813,129.6719 112.7344,129.5313 Q112.7031,129.375 112.6563,129.1094 Q112.5469,128.5938 112.0313,128.2813 Q111.5156,127.9688 111.0625,127.8906 Q110.625,127.7969 110.25,127.7969 Q108.9688,127.7969 108.1094,128.6719 Q107.2656,129.5469 107.2656,130.8906 L107.2656,131.9844 Q107.2656,133.2656 108.1719,134.0313 Q109.0781,134.7813 110.6094,134.7813 Z " fill="#000000"/><text fill="#000000" font-family="sans-serif" font-size="14" lengthAdjust="spacing" textLength="55" x="131.75" y="136.6">BusBase</text><line style="stroke:#555555;stroke-width:0.5;" x1="42" x2="244" y1="147" y2="147"/><rect fill="none" height="6" style="stroke:#C82930;stroke-width:1.0;" width="6" x="49" y="155"/><text fill="#000000" font-family="sans-serif" font-size="14" lengthAdjust="spacing" textLength="59" x="61" y="164.9999">Ref : U32</text><line style="stroke:#555555;stroke-width:0.5;" x1="42" x2="244" y1="171.7999" y2="171.7999"/><polygon fill="#FFFF44" points="52,177.7999,56,181.7999,52,185.7999,48,181.7999" style="stroke:#B38D22;stroke-width:1.0;"/><text fill="#000000" font-family="sans-serif" font-size="14" lengthAdjust="spacing" text-decoration="underline" textLength="96" x="61" y="189.7999">StartMainGUI()</text><polygon fill="#FFFF44" points="52,194.5999,56,198.5999,52,202.5999,48,198.5999" style="stroke:#B38D22;stroke-width:1.0;"/><text fill="#000000" font-family="sans-serif" font-size="14" lengthAdjust="spacing" text-decoration="underline" textLength="108" x="61" y="206.5998">RequestDestroy()</text><polygon fill="#FFFF44" points="52,211.3998,56,215.3998,52,219.3998,48,215.3998" style="stroke:#B38D22;stroke-width:1.0;"/><text fill="#000000" font-family="sans-serif" font-size="14" lengthAdjust="spacing" text-decoration="underline" textLength="66" x="61" y="223.3997">MainGUI()</text><polygon fill="#FFFF44" points="52,228.1997,56,232.1997,52,236.1997,48,232.1997" style="stroke:#B38D22;stroke-width:1.0;"/><text fill="#000000" font-family="sans-serif" font-size="14" lengthAdjust="spacing" text-decoration="underline" textLength="94" x="61" y="240.1996">StopMainGUI()</text><polygon fill="#FFFF44" points="52,244.9996,56,248.9996,52,252.9996,48,248.9996" style="stroke:#B38D22;stroke-width:1.0;"/><text fill="#000000" font-family="sans-serif" font-size="14" lengthAdjust="spacing" text-decoration="underline" textLength="100" x="61" y="256.9996">BusBase_New()</text><polygon fill="#FFFF44" points="52,261.7996,56,265.7996,52,269.7996,48,265.7996" style="stroke:#B38D22;stroke-width:1.0;"/><text fill="#000000" font-family="sans-serif" font-size="14" lengthAdjust="spacing" text-decoration="underline" textLength="131" x="61" y="273.7995">MainGUIRepository()</text><polygon fill="#FFFF44" points="52,278.5995,56,282.5995,52,286.5995,48,282.5995" style="stroke:#B38D22;stroke-width:1.0;"/><text fill="#000000" font-family="sans-serif" font-size="14" lengthAdjust="spacing" text-decoration="underline" textLength="154" x="61" y="290.5994">BusBase_GetAttributes()</text><polygon fill="#FFFF44" points="52,295.3994,56,299.3994,52,303.3994,48,299.3994" style="stroke:#B38D22;stroke-width:1.0;"/><text fill="#000000" font-family="sans-serif" font-size="14" lengthAdjust="spacing" text-decoration="underline" textLength="178" x="61" y="307.3994">BusBase_SendAndReceive()</text><rect fill="#F24D5C" height="6" style="stroke:#C82930;stroke-width:1.0;" width="6" x="49" y="314.1993"/><text fill="#000000" font-family="sans-serif" font-size="14" lengthAdjust="spacing" text-decoration="underline" textLength="166" x="61" y="324.1993">BusBase_MainGUIActive()</text><ellipse cx="52" cy="333.9993" fill="#84BE84" rx="3" ry="3" style="stroke:#038048;stroke-width:1.0;"/><text fill="#000000" font-family="sans-serif" font-size="14" lengthAdjust="spacing" text-decoration="underline" textLength="114" x="61" y="340.9992">BusBase_Create()</text><ellipse cx="52" cy="350.7992" fill="#84BE84" rx="3" ry="3" style="stroke:#038048;stroke-width:1.0;"/><text fill="#000000" font-family="sans-serif" font-size="14" lengthAdjust="spacing" text-decoration="underline" textLength="159" x="61" y="357.7991">ControlMainGUIWindow()</text><polygon fill="#FFFF44" points="52,362.5991,56,366.5991,52,370.5991,48,366.5991" style="stroke:#B38D22;stroke-width:1.0;"/><text fill="#000000" font-family="sans-serif" font-size="14" lengthAdjust="spacing" textLength="133" x="61" y="374.5991">ReadTargetClasses()</text><ellipse cx="52" cy="384.399" fill="#84BE84" rx="3" ry="3" style="stroke:#038048;stroke-width:1.0;"/><text fill="#000000" font-family="sans-serif" font-size="14" lengthAdjust="spacing" textLength="176" x="61" y="391.399">GetPersistentConfiguration()</text><ellipse cx="52" cy="401.199" fill="#84BE84" rx="3" ry="3" style="stroke:#038048;stroke-width:1.0;"/><text fill="#000000" font-family="sans-serif" font-size="14" lengthAdjust="spacing" textLength="174" x="61" y="408.1989">SetPersistentConfiguration()</text><ellipse cx="52" cy="417.9989" fill="#84BE84" rx="3" ry="3" style="stroke:#038048;stroke-width:1.0;"/><text fill="#000000" font-family="sans-serif" font-size="14" lengthAdjust="spacing" textLength="144" x="61" y="424.9988">GetExternalInterfaces()</text><ellipse cx="52" cy="434.7988" fill="#84BE84" rx="3" ry="3" style="stroke:#038048;stroke-width:1.0;"/><text fill="#000000" font-family="sans-serif" font-size="14" lengthAdjust="spacing" textLength="142" x="61" y="441.7988">SetExternalInterfaces()</text><ellipse cx="52" cy="451.5988" fill="#84BE84" rx="3" ry="3" style="stroke:#038048;stroke-width:1.0;"/><text fill="#000000" font-family="sans-serif" font-size="14" lengthAdjust="spacing" textLength="137" x="61" y="458.5987">ExecuteButtonAction()</text><ellipse cx="52" cy="468.3987" fill="#84BE84" rx="3" ry="3" style="stroke:#038048;stroke-width:1.0;"/><text fill="#000000" font-family="sans-serif" font-size="14" lengthAdjust="spacing" textLength="99" x="61" y="475.3986">GetFrontPanel()</text><ellipse cx="52" cy="485.1986" fill="#84BE84" rx="3" ry="3" style="stroke:#038048;stroke-width:1.0;"/><text fill="#000000" font-family="sans-serif" font-size="14" lengthAdjust="spacing" textLength="51" x="61" y="492.1985">Create()</text><ellipse cx="52" cy="501.9985" fill="#84BE84" rx="3" ry="3" style="stroke:#038048;stroke-width:1.0;"/><text fill="#000000" font-family="sans-serif" font-size="14" lengthAdjust="spacing" textLength="57" x="61" y="508.9985">Destroy()</text><ellipse cx="52" cy="518.7985" fill="#84BE84" rx="3" ry="3" style="stroke:#038048;stroke-width:1.0;"/><text fill="#000000" font-family="sans-serif" font-size="14" lengthAdjust="spacing" textLength="99" x="61" y="525.7984">IsGUIRunning()</text></g><!--MD5=[0598474d39ed4a9017b81a2a55acc3b1]
class TAFBaseGUI--><g id="elem_TAFBaseGUI"><rect fill="#FFFFFF" height="48" id="TAFBaseGUI" rx="2.5" ry="2.5" style="stroke:#555555;stroke-width:0.5;" width="114" x="7" y="7"/><rect fill="#808080" height="32" rx="2.5" ry="2.5" style="stroke:#808080;stroke-width:0.5;" width="114" x="7" y="7"/><rect fill="#808080" height="2.5" style="stroke:#808080;stroke-width:0.5;" width="114" x="7" y="36.5"/><rect fill="none" height="48" id="TAFBaseGUI" rx="2.5" ry="2.5" style="stroke:#555555;stroke-width:0.5;" width="114" x="7" y="7"/><ellipse cx="22" cy="23" fill="#ADD1B2" rx="11" ry="11" style="stroke:#181818;stroke-width:1.0;"/><path d="M21.3594,26.7813 Q22.1563,26.7813 22.7188,26.5938 Q23.2969,26.3906 23.5313,26.1719 Q23.7813,25.9375 24.0156,25.75 Q24.2656,25.5469 24.4844,25.5469 Q24.8281,25.5469 25.0781,25.8125 Q25.3438,26.0625 25.3438,26.3906 Q25.3438,27.125 24.1719,27.8125 Q23.0156,28.4844 21.3125,28.4844 Q19.1563,28.4844 17.7344,27.2188 Q16.3125,25.9531 16.3125,24.0156 L16.3125,22.8906 Q16.3125,20.8594 17.6406,19.4844 Q18.9688,18.0938 20.9375,18.0938 Q22.125,18.0938 23.3438,18.6719 L23.5156,18.75 Q23.8125,18.3438 24.2344,18.3438 Q24.7188,18.3438 24.8906,18.6406 Q25.0781,18.9219 25.0781,19.4688 L25.0781,20.8906 Q25.0781,22.0156 24.2344,22.0156 Q23.9219,22.0156 23.7188,21.8438 Q23.5313,21.6719 23.4844,21.5313 Q23.4531,21.375 23.4063,21.1094 Q23.2969,20.5938 22.7813,20.2813 Q22.2656,19.9688 21.8125,19.8906 Q21.375,19.7969 21,19.7969 Q19.7188,19.7969 18.8594,20.6719 Q18.0156,21.5469 18.0156,22.8906 L18.0156,23.9844 Q18.0156,25.2656 18.9219,26.0313 Q19.8281,26.7813 21.3594,26.7813 Z " fill="#000000"/><text fill="#000000" font-family="sans-serif" font-size="14" lengthAdjust="spacing" textLength="82" x="36" y="28.6">TAFBaseGUI</text><line style="stroke:#555555;stroke-width:0.5;" x1="8" x2="120" y1="39" y2="39"/><line style="stroke:#555555;stroke-width:0.5;" x1="8" x2="120" y1="47" y2="47"/></g><!--MD5=[279d10572fd96349ac6b0a9cb9c87a2e]
class ITAFGUIActions--><g id="elem_ITAFGUIActions"><rect codeLine="35" fill="#FFFFFF" height="48" id="ITAFGUIActions" rx="2.5" ry="2.5" style="stroke:#555555;stroke-width:0.5;" width="133" x="156.5" y="7"/><rect fill="#808080" height="32" rx="2.5" ry="2.5" style="stroke:#808080;stroke-width:0.5;" width="133" x="156.5" y="7"/><rect fill="#808080" height="2.5" style="stroke:#808080;stroke-width:0.5;" width="133" x="156.5" y="36.5"/><rect codeLine="35" fill="none" height="48" id="ITAFGUIActions" rx="2.5" ry="2.5" style="stroke:#555555;stroke-width:0.5;" width="133" x="156.5" y="7"/><ellipse cx="171.5" cy="23" fill="#B4A7E5" rx="11" ry="11" style="stroke:#181818;stroke-width:1.0;"/><path d="M174.1719,26.2969 Q174.7188,26.2969 175,26.4844 Q175.2813,26.6563 175.2813,27.1563 Q175.2813,28 174.1719,28 L169.0313,28 Q167.9063,28 167.9063,27.1563 Q167.9063,26.6563 168.1875,26.4844 Q168.4844,26.2969 169.0313,26.2969 L170.75,26.2969 L170.75,19.7813 L169.0313,19.7813 Q167.9063,19.7813 167.9063,18.9375 Q167.9063,18.4531 168.1875,18.2813 Q168.4844,18.0938 169.0313,18.0938 L174.1719,18.0938 Q174.7188,18.0938 175,18.2813 Q175.2813,18.4531 175.2813,18.9375 Q175.2813,19.7813 174.1719,19.7813 L172.4531,19.7813 L172.4531,26.2969 L174.1719,26.2969 Z " fill="#000000"/><text fill="#000000" font-family="sans-serif" font-size="14" font-style="italic" lengthAdjust="spacing" textLength="101" x="185.5" y="28.6">ITAFGUIActions</text><line style="stroke:#555555;stroke-width:0.5;" x1="157.5" x2="288.5" y1="39" y2="39"/><line style="stroke:#555555;stroke-width:0.5;" x1="157.5" x2="288.5" y1="47" y2="47"/></g><!--MD5=[2a4b56b61e937b5f436ea6dc08504afe]
reverse link TAFBaseGUI to BusBase.lvlib:BusBase--><g id="link_TAFBaseGUI_BusBase.lvlib:BusBase"><path codeLine="33" d="M75.65,74.91 C78.84,86.66 82.52,100.23 86.49,114.84 " fill="none" id="TAFBaseGUI-backto-BusBase.lvlib:BusBase" style="stroke:#181818;stroke-width:1.0;"/><polygon fill="none" points="68.82,76.46,70.33,55.32,82.33,72.79,68.82,76.46" style="stroke:#181818;stroke-width:1.0;"/></g><!--MD5=[dec43b81b7298163edac195ab305e508]
reverse link ITAFGUIActions to BusBase.lvlib:BusBase--><g id="link_ITAFGUIActions_BusBase.lvlib:BusBase"><path codeLine="34" d="M211.2,74.91 C207.97,86.66 204.24,100.23 200.23,114.84 " fill="none" id="ITAFGUIActions-backto-BusBase.lvlib:BusBase" style="stroke:#181818;stroke-width:1.0;stroke-dasharray:7.0,7.0;"/><polygon fill="none" points="204.54,72.75,216.59,55.32,218.04,76.46,204.54,72.75" style="stroke:#181818;stroke-width:1.0;"/></g><!--MD5=[fdf08b205e607ad2a0a9bd2a5a2c02eb]
@startuml
set namespaceSeparator :
skinparam ClassBackgroundColor #FFFFFF
skinparam ClassBorderColor #555555
skinparam ClassFontColor #000000
skinparam ClassHeaderBackgroundColor #808080

skinparam top to bottom direction
class "BusBase.lvlib:BusBase" {
{field} -Ref : U32
{static} {method} #StartMainGUI()
{static} {method} #RequestDestroy()
{static} {method} #MainGUI()
{static} {method} #StopMainGUI()
{static} {method} #BusBase_New()
{static} {method} #MainGUIRepository()
{static} {method} #BusBase_GetAttributes()
{static} {method} #BusBase_SendAndReceive()
{static} {method} -BusBase_MainGUIActive()
{static} {method} +BusBase_Create()
{static} {method} +ControlMainGUIWindow()
{method} #ReadTargetClasses()
{method} +GetPersistentConfiguration()
{method} +SetPersistentConfiguration()
{method} +GetExternalInterfaces()
{method} +SetExternalInterfaces()
{method} +ExecuteButtonAction()
{method} +GetFrontPanel()
{method} +Create()
{method} +Destroy()
{method} +IsGUIRunning()

}
"TAFBaseGUI" <|- - "BusBase.lvlib:BusBase"
"ITAFGUIActions" <|.. "BusBase.lvlib:BusBase"
interface "ITAFGUIActions" {}




@enduml

PlantUML version 1.2022.5(Sat Apr 30 10:55:52 GMT 2022)
(GPL source distribution)
Java Runtime: OpenJDK Runtime Environment
JVM: OpenJDK 64-Bit Server VM
Default Encoding: UTF-8
Language: en
Country: US
--></g></svg>