<?xml version="1.0" encoding="UTF-8" standalone="no"?><svg xmlns="http://www.w3.org/2000/svg" xmlns:xlink="http://www.w3.org/1999/xlink" contentStyleType="text/css" height="495px" preserveAspectRatio="none" style="width:255px;height:495px;background:#FFFFFF;" version="1.1" viewBox="0 0 255 495" width="255px" zoomAndPan="magnify"><defs/><g><!--MD5=[99c704f2bf9547bdb3c83ffcf3167ba6]
class AppConfigJSON--><g id="elem_AppConfigJSON"><rect codeLine="8" fill="#FFFFFF" height="373.9375" id="AppConfigJSON" rx="2.5" ry="2.5" style="stroke:#555555;stroke-width:0.5;" width="239" x="9" y="115"/><rect fill="#808080" height="32" rx="2.5" ry="2.5" style="stroke:#808080;stroke-width:0.5;" width="239" x="9" y="115"/><rect fill="#808080" height="2.5" style="stroke:#808080;stroke-width:0.5;" width="239" x="9" y="144.5"/><rect codeLine="8" fill="none" height="373.9375" id="AppConfigJSON" rx="2.5" ry="2.5" style="stroke:#555555;stroke-width:0.5;" width="239" x="9" y="115"/><ellipse cx="72.25" cy="131" fill="#ADD1B2" rx="11" ry="11" style="stroke:#181818;stroke-width:1.0;"/><path d="M75.2188,136.6406 Q74.6406,136.9375 74,137.0781 Q73.3594,137.2344 72.6563,137.2344 Q70.1563,137.2344 68.8281,135.5938 Q67.5156,133.9375 67.5156,130.8125 Q67.5156,127.6875 68.8281,126.0313 Q70.1563,124.375 72.6563,124.375 Q73.3594,124.375 74,124.5313 Q74.6563,124.6875 75.2188,124.9844 L75.2188,127.7031 Q74.5938,127.125 74,126.8594 Q73.4063,126.5781 72.7813,126.5781 Q71.4375,126.5781 70.75,127.6563 Q70.0625,128.7188 70.0625,130.8125 Q70.0625,132.9063 70.75,133.9844 Q71.4375,135.0469 72.7813,135.0469 Q73.4063,135.0469 74,134.7813 Q74.5938,134.5 75.2188,133.9219 L75.2188,136.6406 Z " fill="#000000"/><text fill="#000000" font-family="sans-serif" font-size="14" lengthAdjust="spacing" textLength="104" x="92.75" y="135.8467">AppConfigJSON</text><line style="stroke:#555555;stroke-width:0.5;" x1="10" x2="247" y1="147" y2="147"/><rect fill="none" height="6" style="stroke:#C82930;stroke-width:1.0;" width="6" x="17" y="157.6484"/><text fill="#000000" font-family="sans-serif" font-size="14" lengthAdjust="spacing" textLength="64" x="29" y="163.9951">Ref : U32</text><line style="stroke:#555555;stroke-width:0.5;" x1="10" x2="247" y1="171.2969" y2="171.2969"/><polygon fill="#FFFF44" points="20,179.9453,24,183.9453,20,187.9453,16,183.9453" style="stroke:#B38D22;stroke-width:1.0;"/><text fill="#000000" font-family="sans-serif" font-size="14" lengthAdjust="spacing" text-decoration="underline" textLength="151" x="29" y="188.292">AppConfigJSON_New()</text><polygon fill="#FFFF44" points="20,196.2422,24,200.2422,20,204.2422,16,200.2422" style="stroke:#B38D22;stroke-width:1.0;"/><text fill="#000000" font-family="sans-serif" font-size="14" lengthAdjust="spacing" text-decoration="underline" textLength="213" x="29" y="204.5889">AppConfigJSON_GetAttributes()</text><ellipse cx="20" cy="217.5391" fill="#84BE84" rx="3" ry="3" style="stroke:#038048;stroke-width:1.0;"/><text fill="#000000" font-family="sans-serif" font-size="14" lengthAdjust="spacing" text-decoration="underline" textLength="167" x="29" y="220.8857">AppConfigJSON_Create()</text><ellipse cx="20" cy="233.8359" fill="#84BE84" rx="3" ry="3" style="stroke:#038048;stroke-width:1.0;"/><text fill="#000000" font-family="sans-serif" font-size="14" lengthAdjust="spacing" textLength="64" x="29" y="237.1826">Destroy()</text><ellipse cx="20" cy="250.1328" fill="#84BE84" rx="3" ry="3" style="stroke:#038048;stroke-width:1.0;"/><text fill="#000000" font-family="sans-serif" font-size="14" lengthAdjust="spacing" textLength="172" x="29" y="253.4795">GetObjectConfiguration()</text><ellipse cx="20" cy="266.4297" fill="#84BE84" rx="3" ry="3" style="stroke:#038048;stroke-width:1.0;"/><text fill="#000000" font-family="sans-serif" font-size="14" lengthAdjust="spacing" textLength="170" x="29" y="269.7764">SetObjectConfiguration()</text><ellipse cx="20" cy="282.7266" fill="#84BE84" rx="3" ry="3" style="stroke:#038048;stroke-width:1.0;"/><text fill="#000000" font-family="sans-serif" font-size="14" lengthAdjust="spacing" textLength="48" x="29" y="286.0732">Open()</text><ellipse cx="20" cy="299.0234" fill="#84BE84" rx="3" ry="3" style="stroke:#038048;stroke-width:1.0;"/><text fill="#000000" font-family="sans-serif" font-size="14" lengthAdjust="spacing" textLength="56" x="29" y="302.3701">Create()</text><ellipse cx="20" cy="315.3203" fill="#84BE84" rx="3" ry="3" style="stroke:#038048;stroke-width:1.0;"/><text fill="#000000" font-family="sans-serif" font-size="14" lengthAdjust="spacing" textLength="127" x="29" y="318.667">GetAllObjectData()</text><ellipse cx="20" cy="331.6172" fill="#84BE84" rx="3" ry="3" style="stroke:#038048;stroke-width:1.0;"/><text fill="#000000" font-family="sans-serif" font-size="14" lengthAdjust="spacing" textLength="203" x="29" y="334.9639">GetObjectExternalInterfaces()</text><ellipse cx="20" cy="347.9141" fill="#84BE84" rx="3" ry="3" style="stroke:#038048;stroke-width:1.0;"/><text fill="#000000" font-family="sans-serif" font-size="14" lengthAdjust="spacing" textLength="174" x="29" y="351.2607">SetApplicationBasePath()</text><ellipse cx="20" cy="364.2109" fill="#84BE84" rx="3" ry="3" style="stroke:#038048;stroke-width:1.0;"/><text fill="#000000" font-family="sans-serif" font-size="14" lengthAdjust="spacing" textLength="193" x="29" y="367.5576">GetConfigurationBasePath()</text><ellipse cx="20" cy="380.5078" fill="#84BE84" rx="3" ry="3" style="stroke:#038048;stroke-width:1.0;"/><text fill="#000000" font-family="sans-serif" font-size="14" lengthAdjust="spacing" textLength="212" x="29" y="383.8545">GetObjectConfigurationString()</text><ellipse cx="20" cy="396.8047" fill="#84BE84" rx="3" ry="3" style="stroke:#038048;stroke-width:1.0;"/><text fill="#000000" font-family="sans-serif" font-size="14" lengthAdjust="spacing" textLength="210" x="29" y="400.1514">SetObjectConfigurationString()</text><ellipse cx="20" cy="413.1016" fill="#84BE84" rx="3" ry="3" style="stroke:#038048;stroke-width:1.0;"/><text fill="#000000" font-family="sans-serif" font-size="14" lengthAdjust="spacing" textLength="190" x="29" y="416.4482">GetExternalInterfaceString()</text><ellipse cx="20" cy="429.3984" fill="#84BE84" rx="3" ry="3" style="stroke:#038048;stroke-width:1.0;"/><text fill="#000000" font-family="sans-serif" font-size="14" lengthAdjust="spacing" textLength="167" x="29" y="432.7451">GetConfigurationString()</text><ellipse cx="20" cy="445.6953" fill="#84BE84" rx="3" ry="3" style="stroke:#038048;stroke-width:1.0;"/><text fill="#000000" font-family="sans-serif" font-size="14" lengthAdjust="spacing" textLength="133" x="29" y="449.042">ListConfigurations()</text><ellipse cx="20" cy="461.9922" fill="#84BE84" rx="3" ry="3" style="stroke:#038048;stroke-width:1.0;"/><text fill="#000000" font-family="sans-serif" font-size="14" lengthAdjust="spacing" textLength="165" x="29" y="465.3389">SetConfigurationString()</text><ellipse cx="20" cy="478.2891" fill="#84BE84" rx="3" ry="3" style="stroke:#038048;stroke-width:1.0;"/><text fill="#000000" font-family="sans-serif" font-size="14" lengthAdjust="spacing" textLength="112" x="29" y="481.6357">GetObjectData()</text></g><!--MD5=[49827e1bab8626e5ec2fb4ad52723fa5]
class IApplicationConfiguration--><g id="elem_IApplicationConfiguration"><rect codeLine="32" fill="#FFFFFF" height="48" id="IApplicationConfiguration" rx="2.5" ry="2.5" style="stroke:#555555;stroke-width:0.5;" width="204" x="26.5" y="7"/><rect fill="#808080" height="32" rx="2.5" ry="2.5" style="stroke:#808080;stroke-width:0.5;" width="204" x="26.5" y="7"/><rect fill="#808080" height="2.5" style="stroke:#808080;stroke-width:0.5;" width="204" x="26.5" y="36.5"/><rect codeLine="32" fill="none" height="48" id="IApplicationConfiguration" rx="2.5" ry="2.5" style="stroke:#555555;stroke-width:0.5;" width="204" x="26.5" y="7"/><ellipse cx="41.5" cy="23" fill="#B4A7E5" rx="11" ry="11" style="stroke:#181818;stroke-width:1.0;"/><path d="M37.4219,18.7656 L37.4219,16.6094 L44.8125,16.6094 L44.8125,18.7656 L42.3438,18.7656 L42.3438,26.8438 L44.8125,26.8438 L44.8125,29 L37.4219,29 L37.4219,26.8438 L39.8906,26.8438 L39.8906,18.7656 L37.4219,18.7656 Z " fill="#000000"/><text fill="#000000" font-family="sans-serif" font-size="14" font-style="italic" lengthAdjust="spacing" textLength="172" x="55.5" y="27.8467">IApplicationConfiguration</text><line style="stroke:#555555;stroke-width:0.5;" x1="27.5" x2="229.5" y1="39" y2="39"/><line style="stroke:#555555;stroke-width:0.5;" x1="27.5" x2="229.5" y1="47" y2="47"/></g><!--MD5=[fe363408e6ff03cf5797c24f9f639834]
reverse link IApplicationConfiguration to AppConfigJSON--><g id="link_IApplicationConfiguration_AppConfigJSON"><path codeLine="31" d="M128.5,75.46 C128.5,87.1 128.5,100.45 128.5,114.72 " fill="none" id="IApplicationConfiguration-backto-AppConfigJSON" style="stroke:#181818;stroke-width:1.0;stroke-dasharray:7.0,7.0;"/><polygon fill="none" points="121.5,75.4,128.5,55.4,135.5,75.4,121.5,75.4" style="stroke:#181818;stroke-width:1.0;"/></g><!--MD5=[8f18d5c1e5f7dee58a8155c421945348]
@startuml
set namespaceSeparator :
skinparam ClassBackgroundColor #FFFFFF
skinparam ClassBorderColor #555555
skinparam ClassFontColor #000000
skinparam ClassHeaderBackgroundColor #808080

skinparam top to bottom direction
class "AppConfigJSON" {
{field} -Ref : U32
{static} {method} #AppConfigJSON_New()
{static} {method} #AppConfigJSON_GetAttributes()
{static} {method} +AppConfigJSON_Create()
{method} +Destroy()
{method} +GetObjectConfiguration()
{method} +SetObjectConfiguration()
{method} +Open()
{method} +Create()
{method} +GetAllObjectData()
{method} +GetObjectExternalInterfaces()
{method} +SetApplicationBasePath()
{method} +GetConfigurationBasePath()
{method} +GetObjectConfigurationString()
{method} +SetObjectConfigurationString()
{method} +GetExternalInterfaceString()
{method} +GetConfigurationString()
{method} +ListConfigurations()
{method} +SetConfigurationString()
{method} +GetObjectData()

}
"IApplicationConfiguration" <|.. "AppConfigJSON"
interface "IApplicationConfiguration" {}




@enduml

PlantUML version 1.2022.12(Sun Oct 23 18:12:26 GMT 2022)
(GPL source distribution)
Java Runtime: OpenJDK Runtime Environment
JVM: OpenJDK 64-Bit Server VM
Default Encoding: UTF-8
Language: en
Country: US
--></g></svg>