<?xml version="1.0" encoding="UTF-8" standalone="no"?><svg xmlns="http://www.w3.org/2000/svg" xmlns:xlink="http://www.w3.org/1999/xlink" contentStyleType="text/css" height="623px" preserveAspectRatio="none" style="width:504px;height:623px;background:#FFFFFF;" version="1.1" viewBox="0 0 504 623" width="504px" zoomAndPan="magnify"><defs/><g><!--MD5=[92d969802a199faa4a67206ffe617705]
class VerticalButtonBar--><g id="elem_VerticalButtonBar"><rect codeLine="8" fill="#FFFFFF" height="501.598" id="VerticalButtonBar" rx="2.5" ry="2.5" style="stroke:#555555;stroke-width:0.5;" width="257" x="114.5" y="115"/><rect fill="#808080" height="32" rx="2.5" ry="2.5" style="stroke:#808080;stroke-width:0.5;" width="257" x="114.5" y="115"/><rect fill="#808080" height="2.5" style="stroke:#808080;stroke-width:0.5;" width="257" x="114.5" y="144.5"/><rect codeLine="8" fill="none" height="501.598" id="VerticalButtonBar" rx="2.5" ry="2.5" style="stroke:#555555;stroke-width:0.5;" width="257" x="114.5" y="115"/><ellipse cx="184.75" cy="131" fill="#ADD1B2" rx="11" ry="11" style="stroke:#181818;stroke-width:1.0;"/><path d="M184.1094,134.7813 Q184.9063,134.7813 185.4688,134.5938 Q186.0469,134.3906 186.2813,134.1719 Q186.5313,133.9375 186.7656,133.75 Q187.0156,133.5469 187.2344,133.5469 Q187.5781,133.5469 187.8281,133.8125 Q188.0938,134.0625 188.0938,134.3906 Q188.0938,135.125 186.9219,135.8125 Q185.7656,136.4844 184.0625,136.4844 Q181.9063,136.4844 180.4844,135.2188 Q179.0625,133.9531 179.0625,132.0156 L179.0625,130.8906 Q179.0625,128.8594 180.3906,127.4844 Q181.7188,126.0938 183.6875,126.0938 Q184.875,126.0938 186.0938,126.6719 L186.2656,126.75 Q186.5625,126.3438 186.9844,126.3438 Q187.4688,126.3438 187.6406,126.6406 Q187.8281,126.9219 187.8281,127.4688 L187.8281,128.8906 Q187.8281,130.0156 186.9844,130.0156 Q186.6719,130.0156 186.4688,129.8438 Q186.2813,129.6719 186.2344,129.5313 Q186.2031,129.375 186.1563,129.1094 Q186.0469,128.5938 185.5313,128.2813 Q185.0156,127.9688 184.5625,127.8906 Q184.125,127.7969 183.75,127.7969 Q182.4688,127.7969 181.6094,128.6719 Q180.7656,129.5469 180.7656,130.8906 L180.7656,131.9844 Q180.7656,133.2656 181.6719,134.0313 Q182.5781,134.7813 184.1094,134.7813 Z " fill="#000000"/><text fill="#000000" font-family="sans-serif" font-size="14" lengthAdjust="spacing" textLength="108" x="205.25" y="136.6">VerticalButtonBar</text><line style="stroke:#555555;stroke-width:0.5;" x1="115.5" x2="370.5" y1="147" y2="147"/><rect fill="none" height="6" style="stroke:#C82930;stroke-width:1.0;" width="6" x="122.5" y="155"/><text fill="#000000" font-family="sans-serif" font-size="14" lengthAdjust="spacing" textLength="59" x="134.5" y="164.9999">Ref : U32</text><line style="stroke:#555555;stroke-width:0.5;" x1="115.5" x2="370.5" y1="171.7999" y2="171.7999"/><polygon fill="#FFFF44" points="125.5,177.7999,129.5,181.7999,125.5,185.7999,121.5,181.7999" style="stroke:#B38D22;stroke-width:1.0;"/><text fill="#000000" font-family="sans-serif" font-size="14" lengthAdjust="spacing" text-decoration="underline" textLength="96" x="134.5" y="189.7999">StartMainGUI()</text><polygon fill="#FFFF44" points="125.5,194.5999,129.5,198.5999,125.5,202.5999,121.5,198.5999" style="stroke:#B38D22;stroke-width:1.0;"/><text fill="#000000" font-family="sans-serif" font-size="14" lengthAdjust="spacing" text-decoration="underline" textLength="97" x="134.5" y="206.5998">ExecuteAction()</text><polygon fill="#FFFF44" points="125.5,211.3998,129.5,215.3998,125.5,219.3998,121.5,215.3998" style="stroke:#B38D22;stroke-width:1.0;"/><text fill="#000000" font-family="sans-serif" font-size="14" lengthAdjust="spacing" text-decoration="underline" textLength="108" x="134.5" y="223.3997">RequestDestroy()</text><polygon fill="#FFFF44" points="125.5,228.1997,129.5,232.1997,125.5,236.1997,121.5,232.1997" style="stroke:#B38D22;stroke-width:1.0;"/><text fill="#000000" font-family="sans-serif" font-size="14" lengthAdjust="spacing" text-decoration="underline" textLength="66" x="134.5" y="240.1996">MainGUI()</text><polygon fill="#FFFF44" points="125.5,244.9996,129.5,248.9996,125.5,252.9996,121.5,248.9996" style="stroke:#B38D22;stroke-width:1.0;"/><text fill="#000000" font-family="sans-serif" font-size="14" lengthAdjust="spacing" text-decoration="underline" textLength="94" x="134.5" y="256.9996">StopMainGUI()</text><polygon fill="#FFFF44" points="125.5,261.7996,129.5,265.7996,125.5,269.7996,121.5,265.7996" style="stroke:#B38D22;stroke-width:1.0;"/><text fill="#000000" font-family="sans-serif" font-size="14" lengthAdjust="spacing" text-decoration="underline" textLength="153" x="134.5" y="273.7995">VerticalButtonBar_New()</text><polygon fill="#FFFF44" points="125.5,278.5995,129.5,282.5995,125.5,286.5995,121.5,282.5995" style="stroke:#B38D22;stroke-width:1.0;"/><text fill="#000000" font-family="sans-serif" font-size="14" lengthAdjust="spacing" text-decoration="underline" textLength="131" x="134.5" y="290.5994">MainGUIRepository()</text><polygon fill="#FFFF44" points="125.5,295.3994,129.5,299.3994,125.5,303.3994,121.5,299.3994" style="stroke:#B38D22;stroke-width:1.0;"/><text fill="#000000" font-family="sans-serif" font-size="14" lengthAdjust="spacing" text-decoration="underline" textLength="207" x="134.5" y="307.3994">VerticalButtonBar_GetAttributes()</text><polygon fill="#FFFF44" points="125.5,312.1993,129.5,316.1993,125.5,320.1993,121.5,316.1993" style="stroke:#B38D22;stroke-width:1.0;"/><text fill="#000000" font-family="sans-serif" font-size="14" lengthAdjust="spacing" text-decoration="underline" textLength="231" x="134.5" y="324.1993">VerticalButtonBar_SendAndReceive()</text><ellipse cx="125.5" cy="333.9993" fill="#84BE84" rx="3" ry="3" style="stroke:#038048;stroke-width:1.0;"/><text fill="#000000" font-family="sans-serif" font-size="14" lengthAdjust="spacing" text-decoration="underline" textLength="167" x="134.5" y="340.9992">VerticalButtonBar_Create()</text><ellipse cx="125.5" cy="350.7992" fill="#84BE84" rx="3" ry="3" style="stroke:#038048;stroke-width:1.0;"/><text fill="#000000" font-family="sans-serif" font-size="14" lengthAdjust="spacing" text-decoration="underline" textLength="159" x="134.5" y="357.7991">ControlMainGUIWindow()</text><polygon fill="#FFFF44" points="125.5,362.5991,129.5,366.5991,125.5,370.5991,121.5,366.5991" style="stroke:#B38D22;stroke-width:1.0;"/><text fill="#000000" font-family="sans-serif" font-size="14" lengthAdjust="spacing" textLength="105" x="134.5" y="374.5991">ReadButtonBar()</text><polygon fill="#FFFF44" points="125.5,379.399,129.5,383.399,125.5,387.399,121.5,383.399" style="stroke:#B38D22;stroke-width:1.0;"/><text fill="#000000" font-family="sans-serif" font-size="14" lengthAdjust="spacing" textLength="104" x="134.5" y="391.399">WriteButtonBar()</text><ellipse cx="125.5" cy="401.199" fill="#84BE84" rx="3" ry="3" style="stroke:#038048;stroke-width:1.0;"/><text fill="#000000" font-family="sans-serif" font-size="14" lengthAdjust="spacing" textLength="84" x="134.5" y="408.1989">ReadLabels()</text><polygon fill="#FFFF44" points="125.5,412.9989,129.5,416.9989,125.5,420.9989,121.5,416.9989" style="stroke:#B38D22;stroke-width:1.0;"/><text fill="#000000" font-family="sans-serif" font-size="14" lengthAdjust="spacing" textLength="128" x="134.5" y="424.9988">ReadIAuthorization()</text><ellipse cx="125.5" cy="434.7988" fill="#84BE84" rx="3" ry="3" style="stroke:#038048;stroke-width:1.0;"/><text fill="#000000" font-family="sans-serif" font-size="14" lengthAdjust="spacing" textLength="176" x="134.5" y="441.7988">GetPersistentConfiguration()</text><ellipse cx="125.5" cy="451.5988" fill="#84BE84" rx="3" ry="3" style="stroke:#038048;stroke-width:1.0;"/><text fill="#000000" font-family="sans-serif" font-size="14" lengthAdjust="spacing" textLength="174" x="134.5" y="458.5987">SetPersistentConfiguration()</text><ellipse cx="125.5" cy="468.3987" fill="#84BE84" rx="3" ry="3" style="stroke:#038048;stroke-width:1.0;"/><text fill="#000000" font-family="sans-serif" font-size="14" lengthAdjust="spacing" textLength="144" x="134.5" y="475.3986">GetExternalInterfaces()</text><ellipse cx="125.5" cy="485.1986" fill="#84BE84" rx="3" ry="3" style="stroke:#038048;stroke-width:1.0;"/><text fill="#000000" font-family="sans-serif" font-size="14" lengthAdjust="spacing" textLength="142" x="134.5" y="492.1985">SetExternalInterfaces()</text><ellipse cx="125.5" cy="501.9985" fill="#84BE84" rx="3" ry="3" style="stroke:#038048;stroke-width:1.0;"/><text fill="#000000" font-family="sans-serif" font-size="14" lengthAdjust="spacing" textLength="137" x="134.5" y="508.9985">ExecuteButtonAction()</text><ellipse cx="125.5" cy="518.7985" fill="#84BE84" rx="3" ry="3" style="stroke:#038048;stroke-width:1.0;"/><text fill="#000000" font-family="sans-serif" font-size="14" lengthAdjust="spacing" textLength="99" x="134.5" y="525.7984">GetFrontPanel()</text><ellipse cx="125.5" cy="535.5984" fill="#84BE84" rx="3" ry="3" style="stroke:#038048;stroke-width:1.0;"/><text fill="#000000" font-family="sans-serif" font-size="14" lengthAdjust="spacing" textLength="51" x="134.5" y="542.5983">Create()</text><ellipse cx="125.5" cy="552.3983" fill="#84BE84" rx="3" ry="3" style="stroke:#038048;stroke-width:1.0;"/><text fill="#000000" font-family="sans-serif" font-size="14" lengthAdjust="spacing" textLength="57" x="134.5" y="559.3983">Destroy()</text><ellipse cx="125.5" cy="569.1982" fill="#84BE84" rx="3" ry="3" style="stroke:#038048;stroke-width:1.0;"/><text fill="#000000" font-family="sans-serif" font-size="14" lengthAdjust="spacing" textLength="150" x="134.5" y="576.1982">GetButtonDefinitionFile()</text><ellipse cx="125.5" cy="585.9982" fill="#84BE84" rx="3" ry="3" style="stroke:#038048;stroke-width:1.0;"/><text fill="#000000" font-family="sans-serif" font-size="14" lengthAdjust="spacing" textLength="148" x="134.5" y="592.9981">SetButtonDefinitionFile()</text><ellipse cx="125.5" cy="602.7981" fill="#84BE84" rx="3" ry="3" style="stroke:#038048;stroke-width:1.0;"/><text fill="#000000" font-family="sans-serif" font-size="14" lengthAdjust="spacing" textLength="144" x="134.5" y="609.798">AuthorizationUpdated()</text></g><!--MD5=[0598474d39ed4a9017b81a2a55acc3b1]
class TAFBaseGUI--><g id="elem_TAFBaseGUI"><rect fill="#FFFFFF" height="48" id="TAFBaseGUI" rx="2.5" ry="2.5" style="stroke:#555555;stroke-width:0.5;" width="114" x="7" y="7"/><rect fill="#808080" height="32" rx="2.5" ry="2.5" style="stroke:#808080;stroke-width:0.5;" width="114" x="7" y="7"/><rect fill="#808080" height="2.5" style="stroke:#808080;stroke-width:0.5;" width="114" x="7" y="36.5"/><rect fill="none" height="48" id="TAFBaseGUI" rx="2.5" ry="2.5" style="stroke:#555555;stroke-width:0.5;" width="114" x="7" y="7"/><ellipse cx="22" cy="23" fill="#ADD1B2" rx="11" ry="11" style="stroke:#181818;stroke-width:1.0;"/><path d="M21.3594,26.7813 Q22.1563,26.7813 22.7188,26.5938 Q23.2969,26.3906 23.5313,26.1719 Q23.7813,25.9375 24.0156,25.75 Q24.2656,25.5469 24.4844,25.5469 Q24.8281,25.5469 25.0781,25.8125 Q25.3438,26.0625 25.3438,26.3906 Q25.3438,27.125 24.1719,27.8125 Q23.0156,28.4844 21.3125,28.4844 Q19.1563,28.4844 17.7344,27.2188 Q16.3125,25.9531 16.3125,24.0156 L16.3125,22.8906 Q16.3125,20.8594 17.6406,19.4844 Q18.9688,18.0938 20.9375,18.0938 Q22.125,18.0938 23.3438,18.6719 L23.5156,18.75 Q23.8125,18.3438 24.2344,18.3438 Q24.7188,18.3438 24.8906,18.6406 Q25.0781,18.9219 25.0781,19.4688 L25.0781,20.8906 Q25.0781,22.0156 24.2344,22.0156 Q23.9219,22.0156 23.7188,21.8438 Q23.5313,21.6719 23.4844,21.5313 Q23.4531,21.375 23.4063,21.1094 Q23.2969,20.5938 22.7813,20.2813 Q22.2656,19.9688 21.8125,19.8906 Q21.375,19.7969 21,19.7969 Q19.7188,19.7969 18.8594,20.6719 Q18.0156,21.5469 18.0156,22.8906 L18.0156,23.9844 Q18.0156,25.2656 18.9219,26.0313 Q19.8281,26.7813 21.3594,26.7813 Z " fill="#000000"/><text fill="#000000" font-family="sans-serif" font-size="14" lengthAdjust="spacing" textLength="82" x="36" y="28.6">TAFBaseGUI</text><line style="stroke:#555555;stroke-width:0.5;" x1="8" x2="120" y1="39" y2="39"/><line style="stroke:#555555;stroke-width:0.5;" x1="8" x2="120" y1="47" y2="47"/></g><!--MD5=[2bb486e18dffc97c24a5fd8d709ce62f]
class IAuthorizationUpdated--><g id="elem_IAuthorizationUpdated"><rect codeLine="40" fill="#FFFFFF" height="48" id="IAuthorizationUpdated" rx="2.5" ry="2.5" style="stroke:#555555;stroke-width:0.5;" width="173" x="156.5" y="7"/><rect fill="#808080" height="32" rx="2.5" ry="2.5" style="stroke:#808080;stroke-width:0.5;" width="173" x="156.5" y="7"/><rect fill="#808080" height="2.5" style="stroke:#808080;stroke-width:0.5;" width="173" x="156.5" y="36.5"/><rect codeLine="40" fill="none" height="48" id="IAuthorizationUpdated" rx="2.5" ry="2.5" style="stroke:#555555;stroke-width:0.5;" width="173" x="156.5" y="7"/><ellipse cx="171.5" cy="23" fill="#B4A7E5" rx="11" ry="11" style="stroke:#181818;stroke-width:1.0;"/><path d="M174.1719,26.2969 Q174.7188,26.2969 175,26.4844 Q175.2813,26.6563 175.2813,27.1563 Q175.2813,28 174.1719,28 L169.0313,28 Q167.9063,28 167.9063,27.1563 Q167.9063,26.6563 168.1875,26.4844 Q168.4844,26.2969 169.0313,26.2969 L170.75,26.2969 L170.75,19.7813 L169.0313,19.7813 Q167.9063,19.7813 167.9063,18.9375 Q167.9063,18.4531 168.1875,18.2813 Q168.4844,18.0938 169.0313,18.0938 L174.1719,18.0938 Q174.7188,18.0938 175,18.2813 Q175.2813,18.4531 175.2813,18.9375 Q175.2813,19.7813 174.1719,19.7813 L172.4531,19.7813 L172.4531,26.2969 L174.1719,26.2969 Z " fill="#000000"/><text fill="#000000" font-family="sans-serif" font-size="14" font-style="italic" lengthAdjust="spacing" textLength="141" x="185.5" y="28.6">IAuthorizationUpdated</text><line style="stroke:#555555;stroke-width:0.5;" x1="157.5" x2="328.5" y1="39" y2="39"/><line style="stroke:#555555;stroke-width:0.5;" x1="157.5" x2="328.5" y1="47" y2="47"/></g><!--MD5=[279d10572fd96349ac6b0a9cb9c87a2e]
class ITAFGUIActions--><g id="elem_ITAFGUIActions"><rect codeLine="42" fill="#FFFFFF" height="48" id="ITAFGUIActions" rx="2.5" ry="2.5" style="stroke:#555555;stroke-width:0.5;" width="133" x="364.5" y="7"/><rect fill="#808080" height="32" rx="2.5" ry="2.5" style="stroke:#808080;stroke-width:0.5;" width="133" x="364.5" y="7"/><rect fill="#808080" height="2.5" style="stroke:#808080;stroke-width:0.5;" width="133" x="364.5" y="36.5"/><rect codeLine="42" fill="none" height="48" id="ITAFGUIActions" rx="2.5" ry="2.5" style="stroke:#555555;stroke-width:0.5;" width="133" x="364.5" y="7"/><ellipse cx="379.5" cy="23" fill="#B4A7E5" rx="11" ry="11" style="stroke:#181818;stroke-width:1.0;"/><path d="M382.1719,26.2969 Q382.7188,26.2969 383,26.4844 Q383.2813,26.6563 383.2813,27.1563 Q383.2813,28 382.1719,28 L377.0313,28 Q375.9063,28 375.9063,27.1563 Q375.9063,26.6563 376.1875,26.4844 Q376.4844,26.2969 377.0313,26.2969 L378.75,26.2969 L378.75,19.7813 L377.0313,19.7813 Q375.9063,19.7813 375.9063,18.9375 Q375.9063,18.4531 376.1875,18.2813 Q376.4844,18.0938 377.0313,18.0938 L382.1719,18.0938 Q382.7188,18.0938 383,18.2813 Q383.2813,18.4531 383.2813,18.9375 Q383.2813,19.7813 382.1719,19.7813 L380.4531,19.7813 L380.4531,26.2969 L382.1719,26.2969 Z " fill="#000000"/><text fill="#000000" font-family="sans-serif" font-size="14" font-style="italic" lengthAdjust="spacing" textLength="101" x="393.5" y="28.6">ITAFGUIActions</text><line style="stroke:#555555;stroke-width:0.5;" x1="365.5" x2="496.5" y1="39" y2="39"/><line style="stroke:#555555;stroke-width:0.5;" x1="365.5" x2="496.5" y1="47" y2="47"/></g><!--MD5=[fd8d403d37646ab317d446bf9804023c]
reverse link TAFBaseGUI to VerticalButtonBar--><g id="link_TAFBaseGUI_VerticalButtonBar"><path codeLine="38" d="M86.05,73.01 C94.03,87.87 103.72,105.89 114.32,125.62 " fill="none" id="TAFBaseGUI-backto-VerticalButtonBar" style="stroke:#181818;stroke-width:1.0;"/><polygon fill="none" points="79.75,76.08,76.44,55.15,92.08,69.45,79.75,76.08" style="stroke:#181818;stroke-width:1.0;"/></g><!--MD5=[2c5d602a941ade8f477ecac240090146]
reverse link IAuthorizationUpdated to VerticalButtonBar--><g id="link_IAuthorizationUpdated_VerticalButtonBar"><path codeLine="39" d="M243,75.48 C243,86.98 243,100.25 243,114.65 " fill="none" id="IAuthorizationUpdated-backto-VerticalButtonBar" style="stroke:#181818;stroke-width:1.0;stroke-dasharray:7.0,7.0;"/><polygon fill="none" points="236,75.15,243,55.15,250,75.15,236,75.15" style="stroke:#181818;stroke-width:1.0;"/></g><!--MD5=[1a2b46b0a901ac97be77ef225da1e8c8]
reverse link ITAFGUIActions to VerticalButtonBar--><g id="link_ITAFGUIActions_VerticalButtonBar"><path codeLine="41" d="M407.95,72.84 C397.91,90.61 385.29,112.96 371.53,137.34 " fill="none" id="ITAFGUIActions-backto-VerticalButtonBar" style="stroke:#181818;stroke-width:1.0;stroke-dasharray:7.0,7.0;"/><polygon fill="none" points="402,69.13,417.93,55.15,414.19,76.01,402,69.13" style="stroke:#181818;stroke-width:1.0;"/></g><!--MD5=[59178d94c89f1941a24d40efb25af53f]
@startuml
set namespaceSeparator :
skinparam ClassBackgroundColor #FFFFFF
skinparam ClassBorderColor #555555
skinparam ClassFontColor #000000
skinparam ClassHeaderBackgroundColor #808080

skinparam top to bottom direction
class "VerticalButtonBar" {
{field} -Ref : U32
{static} {method} #StartMainGUI()
{static} {method} #ExecuteAction()
{static} {method} #RequestDestroy()
{static} {method} #MainGUI()
{static} {method} #StopMainGUI()
{static} {method} #VerticalButtonBar_New()
{static} {method} #MainGUIRepository()
{static} {method} #VerticalButtonBar_GetAttributes()
{static} {method} #VerticalButtonBar_SendAndReceive()
{static} {method} +VerticalButtonBar_Create()
{static} {method} +ControlMainGUIWindow()
{method} #ReadButtonBar()
{method} #WriteButtonBar()
{method} +ReadLabels()
{method} #ReadIAuthorization()
{method} +GetPersistentConfiguration()
{method} +SetPersistentConfiguration()
{method} +GetExternalInterfaces()
{method} +SetExternalInterfaces()
{method} +ExecuteButtonAction()
{method} +GetFrontPanel()
{method} +Create()
{method} +Destroy()
{method} +GetButtonDefinitionFile()
{method} +SetButtonDefinitionFile()
{method} +AuthorizationUpdated()

}
"TAFBaseGUI" <|- - "VerticalButtonBar"
"IAuthorizationUpdated" <|.. "VerticalButtonBar"
interface "IAuthorizationUpdated" {}
"ITAFGUIActions" <|.. "VerticalButtonBar"
interface "ITAFGUIActions" {}




@enduml

PlantUML version 1.2022.5(Sat Apr 30 10:55:52 GMT 2022)
(GPL source distribution)
Java Runtime: OpenJDK Runtime Environment
JVM: OpenJDK 64-Bit Server VM
Default Encoding: UTF-8
Language: en
Country: US
--></g></svg>