<?xml version="1.0" encoding="UTF-8" standalone="no"?><svg xmlns="http://www.w3.org/2000/svg" xmlns:xlink="http://www.w3.org/1999/xlink" contentStyleType="text/css" height="1219px" preserveAspectRatio="none" style="width:802px;height:1219px;background:#FFFFFF;" version="1.1" viewBox="0 0 802 1219" width="802px" zoomAndPan="magnify"><defs/><g><!--MD5=[3fb92fba1735106d511c1d05a9f83ed2]
cluster root--><g id="cluster_root"><rect fill="none" height="225" rx="2.5" ry="2.5" style="stroke:#181818;stroke-width:1.0;" width="152" x="7" y="456"/><text fill="#000000" font-family="sans-serif" font-size="14" font-weight="bold" lengthAdjust="spacing" textLength="33" x="66.5" y="470.9951">root</text></g><!--MD5=[5cd41703091fc5e9cb58a4ea27a293ea]
cluster LoggedOn--><g id="cluster_LoggedOn"><rect fill="none" height="498" rx="2.5" ry="2.5" style="stroke:#181818;stroke-width:1.0;" width="295" x="213" y="451"/><text fill="#000000" font-family="sans-serif" font-size="14" font-weight="bold" lengthAdjust="spacing" textLength="81" x="320" y="465.9951">LoggedOn</text></g><!--MD5=[76285992a87ead5f705391faed0cffd8]
cluster ReportViewing--><g id="cluster_ReportViewing"><rect fill="none" height="116" rx="2.5" ry="2.5" style="stroke:#181818;stroke-width:1.0;" width="132" x="613.5" y="407"/><text fill="#000000" font-family="sans-serif" font-size="14" font-weight="bold" lengthAdjust="spacing" textLength="116" x="621.5" y="421.9951">ReportViewing</text></g><!--MD5=[8e0336bfcf8daa8b596d42923abe9dc8]
cluster UserManagement--><g id="cluster_UserManagement"><rect fill="none" height="116" rx="2.5" ry="2.5" style="stroke:#181818;stroke-width:1.0;" width="154" x="602.5" y="563"/><text fill="#000000" font-family="sans-serif" font-size="14" font-weight="bold" lengthAdjust="spacing" textLength="138" x="610.5" y="577.9951">UserManagement</text></g><!--MD5=[a6d799043a5311714a428209c847e127]
cluster ConfigurationManagement--><g id="cluster_ConfigurationManagement"><rect fill="none" height="116" rx="2.5" ry="2.5" style="stroke:#181818;stroke-width:1.0;" width="224" x="567.5" y="719"/><text fill="#000000" font-family="sans-serif" font-size="14" font-weight="bold" lengthAdjust="spacing" textLength="208" x="575.5" y="733.9951">ConfigurationManagement</text></g><!--MD5=[9dd75fd92da113d30380b27734fd2f01]
cluster Service--><g id="cluster_Service"><rect fill="none" height="338" rx="2.5" ry="2.5" style="stroke:#181818;stroke-width:1.0;" width="185" x="586.5" y="875"/><text fill="#000000" font-family="sans-serif" font-size="14" font-weight="bold" lengthAdjust="spacing" textLength="59" x="649.5" y="889.9951">Service</text></g><!--MD5=[1cbd687ef1b2c8db8fe945e120460989]
cluster Qualification--><g id="cluster_Qualification"><rect fill="none" height="360" rx="2.5" ry="2.5" style="stroke:#181818;stroke-width:1.0;" width="234" x="562" y="7"/><text fill="#000000" font-family="sans-serif" font-size="14" font-weight="bold" lengthAdjust="spacing" textLength="97" x="630.5" y="21.9951">Qualification</text></g><g id="elem_rootbtn1"><ellipse cx="82.8543" cy="623.2084" fill="#F1F1F1" rx="51.8543" ry="14.7084" style="stroke:#181818;stroke-width:0.5;"/><text fill="#000000" font-family="sans-serif" font-size="14" font-weight="bold" lengthAdjust="spacing" textLength="56" x="51.8543" y="626.956">Log On</text></g><g id="elem_rootbtn12"><ellipse cx="82.7843" cy="559.0236" fill="#F1F1F1" rx="31.2843" ry="14.5236" style="stroke:#181818;stroke-width:0.5;"/><text fill="#000000" font-family="sans-serif" font-size="14" font-weight="bold" lengthAdjust="spacing" textLength="28" x="68.7843" y="561.8703">Exit</text></g><g id="elem_LoggedOnbtn1"><ellipse cx="360.3822" cy="536.0764" fill="#F1F1F1" rx="100.8822" ry="22.5764" style="stroke:#181818;stroke-width:0.5;"/><text fill="#000000" font-family="sans-serif" font-size="14" font-weight="bold" lengthAdjust="spacing" textLength="166" x="277.3822" y="538.9231">Product_Qualification</text></g><g id="elem_LoggedOnbtn3"><ellipse cx="360.2532" cy="611.9506" fill="#F1F1F1" rx="77.7532" ry="17.9506" style="stroke:#181818;stroke-width:0.5;"/><text fill="#000000" font-family="sans-serif" font-size="14" font-weight="bold" lengthAdjust="spacing" textLength="113" x="301.1994" y="615.5809">Show_Reports</text></g><g id="elem_LoggedOnbtn5"><ellipse cx="360.4431" cy="686.1886" fill="#F1F1F1" rx="91.4431" ry="20.6886" style="stroke:#181818;stroke-width:0.5;"/><text fill="#000000" font-family="sans-serif" font-size="14" font-weight="bold" lengthAdjust="spacing" textLength="145" x="287.9431" y="689.0353">User_Management</text></g><g id="elem_LoggedOnbtn6"><ellipse cx="360.5909" cy="769.1182" fill="#F1F1F1" rx="123.5909" ry="27.1182" style="stroke:#181818;stroke-width:0.5;"/><text fill="#000000" font-family="sans-serif" font-size="14" font-weight="bold" lengthAdjust="spacing" textLength="215" x="253.0909" y="771.9649">Configuration_Management</text></g><g id="elem_LoggedOnbtn7"><ellipse cx="360.5937" cy="846.2277" fill="#F1F1F1" rx="54.0937" ry="14.7277" style="stroke:#181818;stroke-width:0.5;"/><text fill="#000000" font-family="sans-serif" font-size="14" font-weight="bold" lengthAdjust="spacing" textLength="59" x="328.0937" y="849.9753">Service</text></g><g id="elem_LoggedOnbtn12"><ellipse cx="360.3402" cy="910.2338" fill="#F1F1F1" rx="54.8402" ry="14.7338" style="stroke:#181818;stroke-width:0.5;"/><text fill="#000000" font-family="sans-serif" font-size="14" font-weight="bold" lengthAdjust="spacing" textLength="60" x="327.3402" y="913.9814">Log out</text></g><g id="elem_ReportViewingbtn12"><ellipse cx="679.2231" cy="484.0485" fill="#F1F1F1" rx="37.7231" ry="14.5485" style="stroke:#181818;stroke-width:0.5;"/><text fill="#000000" font-family="sans-serif" font-size="14" font-weight="bold" lengthAdjust="spacing" textLength="37" x="659.1116" y="487.4312">Back</text></g><g id="elem_UserManagementbtn12"><ellipse cx="679.2231" cy="640.0485" fill="#F1F1F1" rx="37.7231" ry="14.5485" style="stroke:#181818;stroke-width:0.5;"/><text fill="#000000" font-family="sans-serif" font-size="14" font-weight="bold" lengthAdjust="spacing" textLength="37" x="659.1116" y="643.4312">Back</text></g><g id="elem_ConfigurationManagementbtn12"><ellipse cx="679.2231" cy="796.0485" fill="#F1F1F1" rx="37.7231" ry="14.5485" style="stroke:#181818;stroke-width:0.5;"/><text fill="#000000" font-family="sans-serif" font-size="14" font-weight="bold" lengthAdjust="spacing" textLength="37" x="659.1116" y="799.4312">Back</text></g><g id="elem_Servicebtn12"><ellipse cx="679.2231" cy="1174.0485" fill="#F1F1F1" rx="37.7231" ry="14.5485" style="stroke:#181818;stroke-width:0.5;"/><text fill="#000000" font-family="sans-serif" font-size="14" font-weight="bold" lengthAdjust="spacing" textLength="37" x="659.1116" y="1177.4312">Back</text></g><g id="elem_Servicebtn1"><ellipse cx="678.8402" cy="997.2338" fill="#F1F1F1" rx="54.8402" ry="14.7338" style="stroke:#181818;stroke-width:0.5;"/><text fill="#000000" font-family="sans-serif" font-size="14" font-weight="bold" lengthAdjust="spacing" textLength="60" x="645.8402" y="1000.9814">Camera</text></g><g id="elem_Servicebtn2"><ellipse cx="679.1011" cy="1108.1202" fill="#F1F1F1" rx="68.6011" ry="16.1202" style="stroke:#181818;stroke-width:0.5;"/><text fill="#000000" font-family="sans-serif" font-size="14" font-weight="bold" lengthAdjust="spacing" textLength="89" x="631.6011" y="1111.8678">FaceDetect</text></g><g id="elem_Qualificationbtn1"><ellipse cx="679.1144" cy="134.9229" fill="#F1F1F1" rx="90.1144" ry="20.4229" style="stroke:#181818;stroke-width:0.5;"/><text fill="#000000" font-family="sans-serif" font-size="14" font-weight="bold" lengthAdjust="spacing" textLength="142" x="608.1144" y="137.7696">Start_Qualification</text></g><g id="elem_Qualificationbtn11"><ellipse cx="678.7771" cy="256.9554" fill="#F1F1F1" rx="92.7771" ry="20.9554" style="stroke:#181818;stroke-width:0.5;"/><text fill="#000000" font-family="sans-serif" font-size="14" font-weight="bold" lengthAdjust="spacing" textLength="148" x="604.7771" y="259.8021">Abort_Qualification</text></g><g id="elem_Qualificationbtn12"><ellipse cx="679.2231" cy="328.0485" fill="#F1F1F1" rx="37.7231" ry="14.5485" style="stroke:#181818;stroke-width:0.5;"/><text fill="#000000" font-family="sans-serif" font-size="14" font-weight="bold" lengthAdjust="spacing" textLength="37" x="659.1116" y="331.4312">Back</text></g><!--MD5=[de99d168ecddbf21e4731d40008a3231]
link rootbtn1 to LoggedOn--><g id="link_rootbtn1_LoggedOn"><path d="M129.37,616.39 C145.84,611.82 163.26,604.09 175,591 C203.65,559.06 164.99,525.57 197,497 C200.3375,494.0213 203.8794,491.3371 207.588,488.9226 C208.5151,488.319 209.4526,487.7322 210.4,487.1619 C210.8737,486.8767 211.3498,486.5957 211.8284,486.3187 C212.0676,486.1802 212.3075,486.0428 212.5479,485.9063 " fill="none" id="rootbtn1-to-LoggedOn" style="stroke:#181818;stroke-width:1.0;"/><polygon fill="#181818" points="212.5479,485.9063,202.7463,486.8697,208.1994,488.3742,206.695,493.8273,212.5479,485.9063" style="stroke:#181818;stroke-width:1.0;"/><text fill="#000000" font-family="sans-serif" font-size="13" lengthAdjust="spacing" textLength="4" x="184" y="504.0669"> </text></g><!--MD5=[11e787ff926dbfe686c695007d47024a]
link rootbtn12 to rootbtn12--><g id="link_rootbtn12_rootbtn12"><path d="M69.59,545.82 C58.81,529.24 63.28,509.5 83,509.5 C100.87,509.5 106.22,525.71 99.04,541.09 " fill="none" id="rootbtn12-to-rootbtn12" style="stroke:#181818;stroke-width:1.0;"/><polygon fill="#181818" points="96.41,545.82,104.2774,539.8952,98.8382,541.4492,97.2842,536.01,96.41,545.82" style="stroke:#181818;stroke-width:1.0;"/><text fill="#000000" font-family="sans-serif" font-size="13" lengthAdjust="spacing" textLength="4" x="81" y="500.5669"> </text></g><!--MD5=[4881bd49d50a33f8bebf16ecd7b7000f]
link LoggedOnbtn1 to Qualification--><g id="link_LoggedOnbtn1_Qualification"><path d="M460.83,539.15 C484.37,535.03 507.42,526.18 524,509 C526.1,506.82 537.77,404.02 538,401 C538.73,391.36 539.59,60.23 546,53 C548.4194,50.2712 551.0407,47.8063 553.83,45.5831 C555.2246,44.4715 556.6612,43.4203 558.1356,42.4268 C558.8728,41.93 559.6194,41.4476 560.3749,40.9794 C560.7527,40.7452 561.1326,40.5146 561.5148,40.2874 " fill="none" id="LoggedOnbtn1-to-Qualification" style="stroke:#181818;stroke-width:1.0;"/><polygon fill="#181818" points="561.5148,40.2874,551.7345,41.4477,557.2168,42.8422,555.8222,48.3245,561.5148,40.2874" style="stroke:#181818;stroke-width:1.0;"/><text fill="#000000" font-family="sans-serif" font-size="13" lengthAdjust="spacing" textLength="4" x="533" y="397.0669"> </text></g><!--MD5=[51478275d26ef2d1c91f59c20449aa1a]
link LoggedOnbtn3 to ReportViewing--><g id="link_LoggedOnbtn3_ReportViewing"><path d="M438.87,612.25 C469.19,608.33 501.93,598.47 524,576 C545.93,553.68 532.59,537.82 538,507 C540.1,495.05 537.4,461.56 546,453 C556.335,442.7075 569.5775,436.33 583.6705,432.5639 C590.717,430.6809 597.9761,429.4507 605.1906,428.7104 C606.9943,428.5253 608.7952,428.3708 610.5892,428.2445 C611.4863,428.1813 612.3816,428.1251 613.2747,428.0756 " fill="none" id="LoggedOnbtn3-to-ReportViewing" style="stroke:#181818;stroke-width:1.0;"/><polygon fill="#181818" points="613.2747,428.0756,604.0673,424.5795,608.2824,428.3522,604.5097,432.5673,613.2747,428.0756" style="stroke:#181818;stroke-width:1.0;"/><text fill="#000000" font-family="sans-serif" font-size="13" lengthAdjust="spacing" textLength="4" x="533" y="503.0669"> </text></g><!--MD5=[adf49955c8ccec67df734116c6cd60a2]
link LoggedOnbtn5 to UserManagement--><g id="link_LoggedOnbtn5_UserManagement"><path d="M451.01,689.12 C482.36,685.55 515.35,675.76 538,653 C552.02,638.91 531.69,622.79 546,609 C556.5025,598.8775 569.83,592.5863 583.9561,588.8536 C587.4876,587.9204 591.0691,587.1472 594.6687,586.514 C596.4686,586.1973 598.273,585.9157 600.078,585.6666 C600.5292,585.6044 600.9805,585.5441 601.4318,585.4859 C601.6574,585.4568 601.8831,585.4281 602.1087,585.4 " fill="none" id="LoggedOnbtn5-to-UserManagement" style="stroke:#181818;stroke-width:1.0;"/><polygon fill="#181818" points="602.1087,585.4,592.6829,582.5443,597.1471,586.0186,593.6727,590.4828,602.1087,585.4" style="stroke:#181818;stroke-width:1.0;"/><text fill="#000000" font-family="sans-serif" font-size="13" lengthAdjust="spacing" textLength="4" x="533" y="649.0669"> </text></g><!--MD5=[e93fba5450305e24c6dc04b5d1dcef53]
link LoggedOnbtn6 to ConfigurationManagement--><g id="link_LoggedOnbtn6_ConfigurationManagement"><path d="M479.16,776.56 C498.98,775.69 519.21,773.44 538,769 C541.87,768.09 542.21,766.19 546,765 C549.48,763.9106 553.0314,762.8834 556.6324,761.9147 C558.4328,761.4303 560.2457,760.9607 562.0681,760.5052 C562.9794,760.2774 563.893,760.0532 564.8087,759.8326 C565.2665,759.7222 565.7249,759.6127 566.1837,759.5041 C566.4132,759.4498 566.6427,759.3957 566.8724,759.3419 " fill="none" id="LoggedOnbtn6-to-ConfigurationManagement" style="stroke:#181818;stroke-width:1.0;"/><polygon fill="#181818" points="566.8724,759.3419,557.1967,757.5029,562.0045,760.4837,559.0237,765.2915,566.8724,759.3419" style="stroke:#181818;stroke-width:1.0;"/><text fill="#000000" font-family="sans-serif" font-size="13" lengthAdjust="spacing" textLength="4" x="533" y="765.0669"> </text></g><!--MD5=[d67bb461b4b986dcad6f2ee03f9d6d86]
link LoggedOnbtn7 to Service--><g id="link_LoggedOnbtn7_Service"><path d="M414.83,846.27 C448.61,848.79 491.83,856.53 524,878 C529.33,881.56 526.48,886.75 532,890 C545.805,898.1325 561.6575,902.9888 577.7136,905.6889 C579.7206,906.0264 581.7308,906.3303 583.7406,906.6026 C584.243,906.6707 584.7454,906.7368 585.2478,906.801 C585.4989,906.833 585.7501,906.8647 586.0012,906.8958 " fill="none" id="LoggedOnbtn7-to-Service" style="stroke:#181818;stroke-width:1.0;"/><polygon fill="#181818" points="586.0012,906.8958,577.5616,901.8191,581.0392,906.2807,576.5775,909.7583,586.0012,906.8958" style="stroke:#181818;stroke-width:1.0;"/><text fill="#000000" font-family="sans-serif" font-size="13" lengthAdjust="spacing" textLength="4" x="533" y="886.0669"> </text></g><!--MD5=[de8ce37d6baad66686e3a298bb55735a]
link LoggedOnbtn12 to root--><g id="link_LoggedOnbtn12_root"><path d="M305.54,910.63 C271.5,908.48 228.23,900.81 197,878 C155.645,847.805 127.625,797.6725 109.8313,754.5425 C100.9344,732.9775 94.5941,713.1631 90.4217,698.4669 C89.3786,694.7928 88.471,691.4386 87.6929,688.457 C87.3038,686.9661 86.9471,685.5684 86.622,684.2704 C86.4594,683.6214 86.3047,682.9973 86.1579,682.399 C86.0844,682.0998 86.013,681.8071 85.9434,681.5209 C85.9086,681.3778 85.8744,681.2363 85.8406,681.0965 " fill="none" id="LoggedOnbtn12-to-root" style="stroke:#181818;stroke-width:1.0;"/><polygon fill="#181818" points="85.8406,681.0965,84.0675,690.7845,87.0155,685.9565,91.8435,688.9045,85.8406,681.0965" style="stroke:#181818;stroke-width:1.0;"/><text fill="#000000" font-family="sans-serif" font-size="13" lengthAdjust="spacing" textLength="4" x="184" y="867.0669"> </text></g><!--MD5=[93ffa297095ef689d67f83a9171383a6]
link ReportViewingbtn12 to LoggedOn--><g id="link_ReportViewingbtn12_LoggedOn"><path d="M641.29,483.3 C620.6575,482.91 593.0969,482.3881 563.302,481.8236 C548.4046,481.5413 532.9486,481.2484 517.5208,480.956 C515.5924,480.9194 513.6643,480.8829 511.7379,480.8463 C510.7747,480.8281 509.8118,480.8098 508.8495,480.7916 " fill="none" id="ReportViewingbtn12-to-LoggedOn" style="stroke:#181818;stroke-width:1.0;"/><polygon fill="#181818" points="508.8495,480.7916,517.7721,484.9614,513.8486,480.8863,517.9237,476.9629,508.8495,480.7916" style="stroke:#181818;stroke-width:1.0;"/><text fill="#000000" font-family="sans-serif" font-size="13" lengthAdjust="spacing" textLength="4" x="533" y="478.0669"> </text></g><!--MD5=[e68b7b1463f66f4993033f20d66595ac]
link UserManagementbtn12 to LoggedOn--><g id="link_UserManagementbtn12_LoggedOn"><path d="M642.14,643.07 C613.69,643.69 574.15,640.33 546,621 C535.5,613.79 535.71,608.18 532,596 C525.57,574.89 539.33,512.88 524,497 C520.8938,493.7806 517.5546,490.8855 514.0231,488.2868 C512.2573,486.9875 510.4434,485.7623 508.5865,484.6078 " fill="none" id="UserManagementbtn12-to-LoggedOn" style="stroke:#181818;stroke-width:1.0;"/><polygon fill="#181818" points="508.5865,484.6078,514.1177,492.7568,512.8327,487.2478,518.3417,485.9629,508.5865,484.6078" style="stroke:#181818;stroke-width:1.0;"/><text fill="#000000" font-family="sans-serif" font-size="13" lengthAdjust="spacing" textLength="4" x="533" y="592.0669"> </text></g><!--MD5=[b8001b1b9293fd7de11cf12d71a53524]
link ConfigurationManagementbtn12 to LoggedOn--><g id="link_ConfigurationManagementbtn12_LoggedOn"><path d="M643.86,801.34 C613.89,803.93 571.25,802.17 546,777 C538.44,769.47 533.01,692.62 532,682 C531.03,671.76 531,504.54 524,497 C520.9544,493.7231 517.6684,490.7775 514.1833,488.1349 C512.4407,486.8136 510.6483,485.568 508.8113,484.3946 C508.5816,484.2479 508.3513,484.1023 508.1203,483.9579 " fill="none" id="ConfigurationManagementbtn12-to-LoggedOn" style="stroke:#181818;stroke-width:1.0;"/><polygon fill="#181818" points="508.1203,483.9579,513.6312,492.1206,512.3599,486.6084,517.8721,485.3372,508.1203,483.9579" style="stroke:#181818;stroke-width:1.0;"/><text fill="#000000" font-family="sans-serif" font-size="13" lengthAdjust="spacing" textLength="4" x="533" y="678.0669"> </text></g><!--MD5=[46e0ad570b9ce076533c1ea1e361a2c8]
link Servicebtn12 to LoggedOn--><g id="link_Servicebtn12_LoggedOn"><path d="M641.82,1176.24 C611.15,1175.94 568.64,1169.94 546,1142 C536.45,1130.21 538.84,884.15 538,869 C536.19,836.5 533.77,828.51 532,796 C531.55,787.7 529.61,503.13 524,497 C520.9819,493.6981 517.72,490.7306 514.2559,488.0689 C512.5238,486.738 510.7412,485.4835 508.9132,484.3019 C508.6846,484.1542 508.4554,484.0077 508.2255,483.8622 " fill="none" id="Servicebtn12-to-LoggedOn" style="stroke:#181818;stroke-width:1.0;"/><polygon fill="#181818" points="508.2255,483.8622,513.6933,492.0539,512.4511,486.5351,517.9699,485.2929,508.2255,483.8622" style="stroke:#181818;stroke-width:1.0;"/><text fill="#000000" font-family="sans-serif" font-size="13" lengthAdjust="spacing" textLength="4" x="533" y="792.0669"> </text></g><!--MD5=[47ff7d06d8143b4c532709f77d46d23a]
link Servicebtn1 to Servicebtn1--><g id="link_Servicebtn1_Servicebtn1"><path d="M659.62,983.32 C644.98,966.84 651.44,947.5 679,947.5 C704.19,947.5 711.76,963.66 701.69,979.02 " fill="none" id="Servicebtn1-to-Servicebtn1" style="stroke:#181818;stroke-width:1.0;"/><polygon fill="#181818" points="698.38,983.32,707.0289,978.6087,701.421,979.351,700.6786,973.7431,698.38,983.32" style="stroke:#181818;stroke-width:1.0;"/><text fill="#000000" font-family="sans-serif" font-size="13" lengthAdjust="spacing" textLength="4" x="677" y="938.5669"> </text></g><!--MD5=[0f5872f50a8851fa3bcfd5ef5dd6b47d]
link Servicebtn2 to Servicebtn2--><g id="link_Servicebtn2_Servicebtn2"><path d="M658.54,1092.6 C645.32,1075.93 652.14,1057 679,1057 C703.55,1057 711.36,1072.81 702.42,1088.26 " fill="none" id="Servicebtn2-to-Servicebtn2" style="stroke:#181818;stroke-width:1.0;"/><polygon fill="#181818" points="699.46,1092.6,707.8466,1087.4362,702.286,1088.4752,701.2469,1082.9146,699.46,1092.6" style="stroke:#181818;stroke-width:1.0;"/><text fill="#000000" font-family="sans-serif" font-size="13" lengthAdjust="spacing" textLength="4" x="677" y="1048.0669"> </text></g><!--MD5=[2822a674858686f09cfa92c66e87bc63]
link Qualificationbtn1 to Qualificationbtn1--><g id="link_Qualificationbtn1_Qualificationbtn1"><path d="M656.46,115.08 C646.17,97.79 653.69,79.5 679,79.5 C702.14,79.5 710.4,94.78 703.8,110.62 " fill="none" id="Qualificationbtn1-to-Qualificationbtn1" style="stroke:#181818;stroke-width:1.0;"/><polygon fill="#181818" points="701.54,115.08,709.1746,108.858,703.7989,110.6194,702.0375,105.2437,701.54,115.08" style="stroke:#181818;stroke-width:1.0;"/><text fill="#000000" font-family="sans-serif" font-size="13" lengthAdjust="spacing" textLength="4" x="677" y="70.5669"> </text></g><!--MD5=[0738a662f456ec1dfef1597c9f5be78a]
link Qualificationbtn11 to Qualificationbtn11--><g id="link_Qualificationbtn11_Qualificationbtn11"><path d="M656.29,236.61 C646.26,219.25 653.83,201 679,201 C701.81,201 710.17,215.99 704.07,231.72 " fill="none" id="Qualificationbtn11-to-Qualificationbtn11" style="stroke:#181818;stroke-width:1.0;"/><polygon fill="#181818" points="701.71,236.61,709.2238,230.2427,703.8829,232.1069,702.0188,226.766,701.71,236.61" style="stroke:#181818;stroke-width:1.0;"/><text fill="#000000" font-family="sans-serif" font-size="13" lengthAdjust="spacing" textLength="4" x="677" y="192.0669"> </text></g><!--MD5=[c48775ae0395fe6fd054b7a236ba5367]
link Qualificationbtn12 to LoggedOn--><g id="link_Qualificationbtn12_LoggedOn"><path d="M647.34,335.94 C617.27,344.22 570.47,358.43 532,376 C492.465,394.055 450.545,419.0475 418.165,439.7738 C414.1175,442.3645 410.2191,444.8887 406.493,447.3242 C404.6299,448.542 402.81,449.7377 401.036,450.9085 " fill="none" id="Qualificationbtn12-to-LoggedOn" style="stroke:#181818;stroke-width:1.0;"/><polygon fill="#181818" points="401.036,450.9085,410.7509,449.2894,405.2091,448.1543,406.3442,442.6125,401.036,450.9085" style="stroke:#181818;stroke-width:1.0;"/><text fill="#000000" font-family="sans-serif" font-size="13" lengthAdjust="spacing" textLength="4" x="533" y="371.0669"> </text></g><!--MD5=[d9e4bfca65095c99f64accd8d6c8388e]
@startuml
left to right direction
rectangle "**root**" as root {
usecase "**Log On**" as rootbtn1
usecase "**Exit**" as rootbtn12
}
rectangle "**LoggedOn**" as LoggedOn {
usecase "**Product_Qualification**" as LoggedOnbtn1
usecase "**Show_Reports**" as LoggedOnbtn3
usecase "**User_Management**" as LoggedOnbtn5
usecase "**Configuration_Management**" as LoggedOnbtn6
usecase "**Service**" as LoggedOnbtn7
usecase "**Log out**" as LoggedOnbtn12
}
rectangle "**ReportViewing**" as ReportViewing {
usecase "**Back**" as ReportViewingbtn12
}
rectangle "**UserManagement**" as UserManagement {
usecase "**Back**" as UserManagementbtn12
}
rectangle "**ConfigurationManagement**" as ConfigurationManagement {
usecase "**Back**" as ConfigurationManagementbtn12
}
rectangle "**Service**" as Service {
usecase "**Back**" as Servicebtn12
usecase "**Camera**" as Servicebtn1
usecase "**FaceDetect**" as Servicebtn2
}
rectangle "**Qualification**" as Qualification {
usecase "**Start_Qualification**" as Qualificationbtn1
usecase "**Abort_Qualification**" as Qualificationbtn11
usecase "**Back**" as Qualificationbtn12
}
rootbtn1 - -> LoggedOn : ""
rootbtn12 -right-> rootbtn12 : ""
LoggedOnbtn1 - -> Qualification : ""
LoggedOnbtn3 - -> ReportViewing : ""
LoggedOnbtn5 - -> UserManagement : ""
LoggedOnbtn6 - -> ConfigurationManagement : ""
LoggedOnbtn7 - -> Service : ""
LoggedOnbtn12 - -> root : ""
ReportViewingbtn12 - -> LoggedOn : ""
UserManagementbtn12 - -> LoggedOn : ""
ConfigurationManagementbtn12 - -> LoggedOn : ""
Servicebtn12 - -> LoggedOn : ""
Servicebtn1 -right-> Servicebtn1 : ""
Servicebtn2 -right-> Servicebtn2 : ""
Qualificationbtn1 -right-> Qualificationbtn1 : ""
Qualificationbtn11 -right-> Qualificationbtn11 : ""
Qualificationbtn12 - -> LoggedOn : ""
@enduml

PlantUML version 1.2022.12(Sun Oct 23 18:12:26 GMT 2022)
(GPL source distribution)
Java Runtime: OpenJDK Runtime Environment
JVM: OpenJDK 64-Bit Server VM
Default Encoding: UTF-8
Language: en
Country: US
--></g></svg>