<?xml version="1.0" encoding="UTF-8" standalone="no"?><svg xmlns="http://www.w3.org/2000/svg" xmlns:xlink="http://www.w3.org/1999/xlink" contentStyleType="text/css" height="610px" preserveAspectRatio="none" style="width:527px;height:610px;background:#FFFFFF;" version="1.1" viewBox="0 0 527 610" width="527px" zoomAndPan="magnify"><defs/><g><!--MD5=[92d969802a199faa4a67206ffe617705]
class VerticalButtonBar--><g id="elem_VerticalButtonBar"><rect codeLine="8" fill="#FFFFFF" height="488.0156" id="VerticalButtonBar" rx="2.5" ry="2.5" style="stroke:#555555;stroke-width:0.5;" width="281" x="112" y="115"/><rect fill="#808080" height="32" rx="2.5" ry="2.5" style="stroke:#808080;stroke-width:0.5;" width="281" x="112" y="115"/><rect fill="#808080" height="2.5" style="stroke:#808080;stroke-width:0.5;" width="281" x="112" y="144.5"/><rect codeLine="8" fill="none" height="488.0156" id="VerticalButtonBar" rx="2.5" ry="2.5" style="stroke:#555555;stroke-width:0.5;" width="281" x="112" y="115"/><ellipse cx="188.25" cy="131" fill="#ADD1B2" rx="11" ry="11" style="stroke:#181818;stroke-width:1.0;"/><path d="M191.2188,136.6406 Q190.6406,136.9375 190,137.0781 Q189.3594,137.2344 188.6563,137.2344 Q186.1563,137.2344 184.8281,135.5938 Q183.5156,133.9375 183.5156,130.8125 Q183.5156,127.6875 184.8281,126.0313 Q186.1563,124.375 188.6563,124.375 Q189.3594,124.375 190,124.5313 Q190.6563,124.6875 191.2188,124.9844 L191.2188,127.7031 Q190.5938,127.125 190,126.8594 Q189.4063,126.5781 188.7813,126.5781 Q187.4375,126.5781 186.75,127.6563 Q186.0625,128.7188 186.0625,130.8125 Q186.0625,132.9063 186.75,133.9844 Q187.4375,135.0469 188.7813,135.0469 Q189.4063,135.0469 190,134.7813 Q190.5938,134.5 191.2188,133.9219 L191.2188,136.6406 Z " fill="#000000"/><text fill="#000000" font-family="sans-serif" font-size="14" lengthAdjust="spacing" textLength="120" x="208.75" y="135.8467">VerticalButtonBar</text><line style="stroke:#555555;stroke-width:0.5;" x1="113" x2="392" y1="147" y2="147"/><rect fill="none" height="6" style="stroke:#C82930;stroke-width:1.0;" width="6" x="120" y="157.6484"/><text fill="#000000" font-family="sans-serif" font-size="14" lengthAdjust="spacing" textLength="64" x="132" y="163.9951">Ref : U32</text><line style="stroke:#555555;stroke-width:0.5;" x1="113" x2="392" y1="171.2969" y2="171.2969"/><polygon fill="#FFFF44" points="123,179.9453,127,183.9453,123,187.9453,119,183.9453" style="stroke:#B38D22;stroke-width:1.0;"/><text fill="#000000" font-family="sans-serif" font-size="14" lengthAdjust="spacing" text-decoration="underline" textLength="98" x="132" y="188.292">StartMainGUI()</text><polygon fill="#FFFF44" points="123,196.2422,127,200.2422,123,204.2422,119,200.2422" style="stroke:#B38D22;stroke-width:1.0;"/><text fill="#000000" font-family="sans-serif" font-size="14" lengthAdjust="spacing" text-decoration="underline" textLength="109" x="132" y="204.5889">ExecuteAction()</text><polygon fill="#FFFF44" points="123,212.5391,127,216.5391,123,220.5391,119,216.5391" style="stroke:#B38D22;stroke-width:1.0;"/><text fill="#000000" font-family="sans-serif" font-size="14" lengthAdjust="spacing" text-decoration="underline" textLength="123" x="132" y="220.8857">RequestDestroy()</text><polygon fill="#FFFF44" points="123,228.8359,127,232.8359,123,236.8359,119,232.8359" style="stroke:#B38D22;stroke-width:1.0;"/><text fill="#000000" font-family="sans-serif" font-size="14" lengthAdjust="spacing" text-decoration="underline" textLength="66" x="132" y="237.1826">MainGUI()</text><polygon fill="#FFFF44" points="123,245.1328,127,249.1328,123,253.1328,119,249.1328" style="stroke:#B38D22;stroke-width:1.0;"/><text fill="#000000" font-family="sans-serif" font-size="14" lengthAdjust="spacing" text-decoration="underline" textLength="98" x="132" y="253.4795">StopMainGUI()</text><polygon fill="#FFFF44" points="123,261.4297,127,265.4297,123,269.4297,119,265.4297" style="stroke:#B38D22;stroke-width:1.0;"/><text fill="#000000" font-family="sans-serif" font-size="14" lengthAdjust="spacing" text-decoration="underline" textLength="167" x="132" y="269.7764">VerticalButtonBar_New()</text><polygon fill="#FFFF44" points="123,277.7266,127,281.7266,123,285.7266,119,281.7266" style="stroke:#B38D22;stroke-width:1.0;"/><text fill="#000000" font-family="sans-serif" font-size="14" lengthAdjust="spacing" text-decoration="underline" textLength="140" x="132" y="286.0732">MainGUIRepository()</text><polygon fill="#FFFF44" points="123,294.0234,127,298.0234,123,302.0234,119,298.0234" style="stroke:#B38D22;stroke-width:1.0;"/><text fill="#000000" font-family="sans-serif" font-size="14" lengthAdjust="spacing" text-decoration="underline" textLength="229" x="132" y="302.3701">VerticalButtonBar_GetAttributes()</text><polygon fill="#FFFF44" points="123,310.3203,127,314.3203,123,318.3203,119,314.3203" style="stroke:#B38D22;stroke-width:1.0;"/><text fill="#000000" font-family="sans-serif" font-size="14" lengthAdjust="spacing" text-decoration="underline" textLength="255" x="132" y="318.667">VerticalButtonBar_SendAndReceive()</text><ellipse cx="123" cy="331.6172" fill="#84BE84" rx="3" ry="3" style="stroke:#038048;stroke-width:1.0;"/><text fill="#000000" font-family="sans-serif" font-size="14" lengthAdjust="spacing" text-decoration="underline" textLength="183" x="132" y="334.9639">VerticalButtonBar_Create()</text><ellipse cx="123" cy="347.9141" fill="#84BE84" rx="3" ry="3" style="stroke:#038048;stroke-width:1.0;"/><text fill="#000000" font-family="sans-serif" font-size="14" lengthAdjust="spacing" text-decoration="underline" textLength="170" x="132" y="351.2607">ControlMainGUIWindow()</text><polygon fill="#FFFF44" points="123,359.2109,127,363.2109,123,367.2109,119,363.2109" style="stroke:#B38D22;stroke-width:1.0;"/><text fill="#000000" font-family="sans-serif" font-size="14" lengthAdjust="spacing" textLength="116" x="132" y="367.5576">ReadButtonBar()</text><polygon fill="#FFFF44" points="123,375.5078,127,379.5078,123,383.5078,119,379.5078" style="stroke:#B38D22;stroke-width:1.0;"/><text fill="#000000" font-family="sans-serif" font-size="14" lengthAdjust="spacing" textLength="115" x="132" y="383.8545">WriteButtonBar()</text><ellipse cx="123" cy="396.8047" fill="#84BE84" rx="3" ry="3" style="stroke:#038048;stroke-width:1.0;"/><text fill="#000000" font-family="sans-serif" font-size="14" lengthAdjust="spacing" textLength="90" x="132" y="400.1514">ReadLabels()</text><polygon fill="#FFFF44" points="123,408.1016,127,412.1016,123,416.1016,119,412.1016" style="stroke:#B38D22;stroke-width:1.0;"/><text fill="#000000" font-family="sans-serif" font-size="14" lengthAdjust="spacing" textLength="140" x="132" y="416.4482">ReadIAuthorization()</text><ellipse cx="123" cy="429.3984" fill="#84BE84" rx="3" ry="3" style="stroke:#038048;stroke-width:1.0;"/><text fill="#000000" font-family="sans-serif" font-size="14" lengthAdjust="spacing" textLength="197" x="132" y="432.7451">GetPersistentConfiguration()</text><ellipse cx="123" cy="445.6953" fill="#84BE84" rx="3" ry="3" style="stroke:#038048;stroke-width:1.0;"/><text fill="#000000" font-family="sans-serif" font-size="14" lengthAdjust="spacing" textLength="195" x="132" y="449.042">SetPersistentConfiguration()</text><ellipse cx="123" cy="461.9922" fill="#84BE84" rx="3" ry="3" style="stroke:#038048;stroke-width:1.0;"/><text fill="#000000" font-family="sans-serif" font-size="14" lengthAdjust="spacing" textLength="158" x="132" y="465.3389">GetExternalInterfaces()</text><ellipse cx="123" cy="478.2891" fill="#84BE84" rx="3" ry="3" style="stroke:#038048;stroke-width:1.0;"/><text fill="#000000" font-family="sans-serif" font-size="14" lengthAdjust="spacing" textLength="156" x="132" y="481.6357">SetExternalInterfaces()</text><ellipse cx="123" cy="494.5859" fill="#84BE84" rx="3" ry="3" style="stroke:#038048;stroke-width:1.0;"/><text fill="#000000" font-family="sans-serif" font-size="14" lengthAdjust="spacing" textLength="156" x="132" y="497.9326">ExecuteButtonAction()</text><ellipse cx="123" cy="510.8828" fill="#84BE84" rx="3" ry="3" style="stroke:#038048;stroke-width:1.0;"/><text fill="#000000" font-family="sans-serif" font-size="14" lengthAdjust="spacing" textLength="109" x="132" y="514.2295">GetFrontPanel()</text><ellipse cx="123" cy="527.1797" fill="#84BE84" rx="3" ry="3" style="stroke:#038048;stroke-width:1.0;"/><text fill="#000000" font-family="sans-serif" font-size="14" lengthAdjust="spacing" textLength="56" x="132" y="530.5264">Create()</text><ellipse cx="123" cy="543.4766" fill="#84BE84" rx="3" ry="3" style="stroke:#038048;stroke-width:1.0;"/><text fill="#000000" font-family="sans-serif" font-size="14" lengthAdjust="spacing" textLength="64" x="132" y="546.8232">Destroy()</text><ellipse cx="123" cy="559.7734" fill="#84BE84" rx="3" ry="3" style="stroke:#038048;stroke-width:1.0;"/><text fill="#000000" font-family="sans-serif" font-size="14" lengthAdjust="spacing" textLength="170" x="132" y="563.1201">GetButtonDefinitionFile()</text><ellipse cx="123" cy="576.0703" fill="#84BE84" rx="3" ry="3" style="stroke:#038048;stroke-width:1.0;"/><text fill="#000000" font-family="sans-serif" font-size="14" lengthAdjust="spacing" textLength="168" x="132" y="579.417">SetButtonDefinitionFile()</text><ellipse cx="123" cy="592.3672" fill="#84BE84" rx="3" ry="3" style="stroke:#038048;stroke-width:1.0;"/><text fill="#000000" font-family="sans-serif" font-size="14" lengthAdjust="spacing" textLength="160" x="132" y="595.7139">AuthorizationUpdated()</text></g><!--MD5=[0598474d39ed4a9017b81a2a55acc3b1]
class TAFBaseGUI--><g id="elem_TAFBaseGUI"><rect fill="#FFFFFF" height="48" id="TAFBaseGUI" rx="2.5" ry="2.5" style="stroke:#555555;stroke-width:0.5;" width="117" x="7" y="7"/><rect fill="#808080" height="32" rx="2.5" ry="2.5" style="stroke:#808080;stroke-width:0.5;" width="117" x="7" y="7"/><rect fill="#808080" height="2.5" style="stroke:#808080;stroke-width:0.5;" width="117" x="7" y="36.5"/><rect fill="none" height="48" id="TAFBaseGUI" rx="2.5" ry="2.5" style="stroke:#555555;stroke-width:0.5;" width="117" x="7" y="7"/><ellipse cx="22" cy="23" fill="#ADD1B2" rx="11" ry="11" style="stroke:#181818;stroke-width:1.0;"/><path d="M24.9688,28.6406 Q24.3906,28.9375 23.75,29.0781 Q23.1094,29.2344 22.4063,29.2344 Q19.9063,29.2344 18.5781,27.5938 Q17.2656,25.9375 17.2656,22.8125 Q17.2656,19.6875 18.5781,18.0313 Q19.9063,16.375 22.4063,16.375 Q23.1094,16.375 23.75,16.5313 Q24.4063,16.6875 24.9688,16.9844 L24.9688,19.7031 Q24.3438,19.125 23.75,18.8594 Q23.1563,18.5781 22.5313,18.5781 Q21.1875,18.5781 20.5,19.6563 Q19.8125,20.7188 19.8125,22.8125 Q19.8125,24.9063 20.5,25.9844 Q21.1875,27.0469 22.5313,27.0469 Q23.1563,27.0469 23.75,26.7813 Q24.3438,26.5 24.9688,25.9219 L24.9688,28.6406 Z " fill="#000000"/><text fill="#000000" font-family="sans-serif" font-size="14" lengthAdjust="spacing" textLength="85" x="36" y="27.8467">TAFBaseGUI</text><line style="stroke:#555555;stroke-width:0.5;" x1="8" x2="123" y1="39" y2="39"/><line style="stroke:#555555;stroke-width:0.5;" x1="8" x2="123" y1="47" y2="47"/></g><!--MD5=[2bb486e18dffc97c24a5fd8d709ce62f]
class IAuthorizationUpdated--><g id="elem_IAuthorizationUpdated"><rect codeLine="40" fill="#FFFFFF" height="48" id="IAuthorizationUpdated" rx="2.5" ry="2.5" style="stroke:#555555;stroke-width:0.5;" width="186" x="159.5" y="7"/><rect fill="#808080" height="32" rx="2.5" ry="2.5" style="stroke:#808080;stroke-width:0.5;" width="186" x="159.5" y="7"/><rect fill="#808080" height="2.5" style="stroke:#808080;stroke-width:0.5;" width="186" x="159.5" y="36.5"/><rect codeLine="40" fill="none" height="48" id="IAuthorizationUpdated" rx="2.5" ry="2.5" style="stroke:#555555;stroke-width:0.5;" width="186" x="159.5" y="7"/><ellipse cx="174.5" cy="23" fill="#B4A7E5" rx="11" ry="11" style="stroke:#181818;stroke-width:1.0;"/><path d="M170.4219,18.7656 L170.4219,16.6094 L177.8125,16.6094 L177.8125,18.7656 L175.3438,18.7656 L175.3438,26.8438 L177.8125,26.8438 L177.8125,29 L170.4219,29 L170.4219,26.8438 L172.8906,26.8438 L172.8906,18.7656 L170.4219,18.7656 Z " fill="#000000"/><text fill="#000000" font-family="sans-serif" font-size="14" font-style="italic" lengthAdjust="spacing" textLength="154" x="188.5" y="27.8467">IAuthorizationUpdated</text><line style="stroke:#555555;stroke-width:0.5;" x1="160.5" x2="344.5" y1="39" y2="39"/><line style="stroke:#555555;stroke-width:0.5;" x1="160.5" x2="344.5" y1="47" y2="47"/></g><!--MD5=[279d10572fd96349ac6b0a9cb9c87a2e]
class ITAFGUIActions--><g id="elem_ITAFGUIActions"><rect codeLine="42" fill="#FFFFFF" height="48" id="ITAFGUIActions" rx="2.5" ry="2.5" style="stroke:#555555;stroke-width:0.5;" width="139" x="381" y="7"/><rect fill="#808080" height="32" rx="2.5" ry="2.5" style="stroke:#808080;stroke-width:0.5;" width="139" x="381" y="7"/><rect fill="#808080" height="2.5" style="stroke:#808080;stroke-width:0.5;" width="139" x="381" y="36.5"/><rect codeLine="42" fill="none" height="48" id="ITAFGUIActions" rx="2.5" ry="2.5" style="stroke:#555555;stroke-width:0.5;" width="139" x="381" y="7"/><ellipse cx="396" cy="23" fill="#B4A7E5" rx="11" ry="11" style="stroke:#181818;stroke-width:1.0;"/><path d="M391.9219,18.7656 L391.9219,16.6094 L399.3125,16.6094 L399.3125,18.7656 L396.8438,18.7656 L396.8438,26.8438 L399.3125,26.8438 L399.3125,29 L391.9219,29 L391.9219,26.8438 L394.3906,26.8438 L394.3906,18.7656 L391.9219,18.7656 Z " fill="#000000"/><text fill="#000000" font-family="sans-serif" font-size="14" font-style="italic" lengthAdjust="spacing" textLength="107" x="410" y="27.8467">ITAFGUIActions</text><line style="stroke:#555555;stroke-width:0.5;" x1="382" x2="519" y1="39" y2="39"/><line style="stroke:#555555;stroke-width:0.5;" x1="382" x2="519" y1="47" y2="47"/></g><!--MD5=[fd8d403d37646ab317d446bf9804023c]
reverse link TAFBaseGUI to VerticalButtonBar--><g id="link_TAFBaseGUI_VerticalButtonBar"><path codeLine="38" d="M89,72.97 C95.98,85.13 104.17,99.41 113.11,114.99 " fill="none" id="TAFBaseGUI-backto-VerticalButtonBar" style="stroke:#181818;stroke-width:1.0;"/><polygon fill="none" points="82.68,76.02,78.8,55.18,94.82,69.05,82.68,76.02" style="stroke:#181818;stroke-width:1.0;"/></g><!--MD5=[2c5d602a941ade8f477ecac240090146]
reverse link IAuthorizationUpdated to VerticalButtonBar--><g id="link_IAuthorizationUpdated_VerticalButtonBar"><path codeLine="39" d="M252.5,75.19 C252.5,86.85 252.5,100.35 252.5,114.99 " fill="none" id="IAuthorizationUpdated-backto-VerticalButtonBar" style="stroke:#181818;stroke-width:1.0;stroke-dasharray:7.0,7.0;"/><polygon fill="none" points="245.5,75.18,252.5,55.18,259.5,75.18,245.5,75.18" style="stroke:#181818;stroke-width:1.0;"/></g><!--MD5=[1a2b46b0a901ac97be77ef225da1e8c8]
reverse link ITAFGUIActions to VerticalButtonBar--><g id="link_ITAFGUIActions_VerticalButtonBar"><path codeLine="41" d="M425.9,72.51 C416.67,87.7 405.41,106.24 393.09,126.52 " fill="none" id="ITAFGUIActions-backto-VerticalButtonBar" style="stroke:#181818;stroke-width:1.0;stroke-dasharray:7.0,7.0;"/><polygon fill="none" points="420.05,68.64,436.42,55.18,432.02,75.91,420.05,68.64" style="stroke:#181818;stroke-width:1.0;"/></g><!--MD5=[6260b1913da7428f132471341d3e1ae4]
@startuml
set namespaceSeparator :
skinparam ClassBackgroundColor #FFFFFF
skinparam ClassBorderColor #555555
skinparam ClassFontColor #000000
skinparam ClassHeaderBackgroundColor #808080

skinparam top to bottom direction
class "VerticalButtonBar" {
{field} -Ref : U32
{static} {method} #StartMainGUI()
{static} {method} #ExecuteAction()
{static} {method} #RequestDestroy()
{static} {method} #MainGUI()
{static} {method} #StopMainGUI()
{static} {method} #VerticalButtonBar_New()
{static} {method} #MainGUIRepository()
{static} {method} #VerticalButtonBar_GetAttributes()
{static} {method} #VerticalButtonBar_SendAndReceive()
{static} {method} +VerticalButtonBar_Create()
{static} {method} +ControlMainGUIWindow()
{method} #ReadButtonBar()
{method} #WriteButtonBar()
{method} +ReadLabels()
{method} #ReadIAuthorization()
{method} +GetPersistentConfiguration()
{method} +SetPersistentConfiguration()
{method} +GetExternalInterfaces()
{method} +SetExternalInterfaces()
{method} +ExecuteButtonAction()
{method} +GetFrontPanel()
{method} +Create()
{method} +Destroy()
{method} +GetButtonDefinitionFile()
{method} +SetButtonDefinitionFile()
{method} +AuthorizationUpdated()

}
"TAFBaseGUI" <|- - "VerticalButtonBar"
"IAuthorizationUpdated" <|.. "VerticalButtonBar"
interface "IAuthorizationUpdated" {}
"ITAFGUIActions" <|.. "VerticalButtonBar"
interface "ITAFGUIActions" {}




@enduml

PlantUML version 1.2022.12(Sun Oct 23 18:12:26 GMT 2022)
(GPL source distribution)
Java Runtime: OpenJDK Runtime Environment
JVM: OpenJDK 64-Bit Server VM
Default Encoding: UTF-8
Language: en
Country: US
--></g></svg>