<?xml version="1.0" encoding="UTF-8" standalone="no"?><svg xmlns="http://www.w3.org/2000/svg" xmlns:xlink="http://www.w3.org/1999/xlink" contentStyleType="text/css" height="398px" preserveAspectRatio="none" style="width:239px;height:398px;background:#FFFFFF;" version="1.1" viewBox="0 0 239 398" width="239px" zoomAndPan="magnify"><defs/><g><!--MD5=[0598474d39ed4a9017b81a2a55acc3b1]
class TAFBaseGUI--><g id="elem_TAFBaseGUI"><rect codeLine="8" fill="#FFFFFF" height="276.1563" id="TAFBaseGUI" rx="2.5" ry="2.5" style="stroke:#555555;stroke-width:0.5;" width="223" x="9" y="115"/><rect fill="#808080" height="32" rx="2.5" ry="2.5" style="stroke:#808080;stroke-width:0.5;" width="223" x="9" y="115"/><rect fill="#808080" height="2.5" style="stroke:#808080;stroke-width:0.5;" width="223" x="9" y="144.5"/><rect codeLine="8" fill="none" height="276.1563" id="TAFBaseGUI" rx="2.5" ry="2.5" style="stroke:#555555;stroke-width:0.5;" width="223" x="9" y="115"/><ellipse cx="73.75" cy="131" fill="#ADD1B2" rx="11" ry="11" style="stroke:#181818;stroke-width:1.0;"/><path d="M76.7188,136.6406 Q76.1406,136.9375 75.5,137.0781 Q74.8594,137.2344 74.1563,137.2344 Q71.6563,137.2344 70.3281,135.5938 Q69.0156,133.9375 69.0156,130.8125 Q69.0156,127.6875 70.3281,126.0313 Q71.6563,124.375 74.1563,124.375 Q74.8594,124.375 75.5,124.5313 Q76.1563,124.6875 76.7188,124.9844 L76.7188,127.7031 Q76.0938,127.125 75.5,126.8594 Q74.9063,126.5781 74.2813,126.5781 Q72.9375,126.5781 72.25,127.6563 Q71.5625,128.7188 71.5625,130.8125 Q71.5625,132.9063 72.25,133.9844 Q72.9375,135.0469 74.2813,135.0469 Q74.9063,135.0469 75.5,134.7813 Q76.0938,134.5 76.7188,133.9219 L76.7188,136.6406 Z " fill="#000000"/><text fill="#000000" font-family="sans-serif" font-size="14" lengthAdjust="spacing" textLength="85" x="94.25" y="135.8467">TAFBaseGUI</text><line style="stroke:#555555;stroke-width:0.5;" x1="10" x2="231" y1="147" y2="147"/><rect fill="none" height="6" style="stroke:#C82930;stroke-width:1.0;" width="6" x="17" y="157.6484"/><text fill="#000000" font-family="sans-serif" font-size="14" lengthAdjust="spacing" textLength="64" x="29" y="163.9951">Ref : U32</text><line style="stroke:#555555;stroke-width:0.5;" x1="10" x2="231" y1="171.2969" y2="171.2969"/><polygon fill="#FFFF44" points="20,179.9453,24,183.9453,20,187.9453,16,183.9453" style="stroke:#B38D22;stroke-width:1.0;"/><text fill="#000000" font-family="sans-serif" font-size="14" lengthAdjust="spacing" text-decoration="underline" textLength="118" x="29" y="188.292">UnknownAction()</text><polygon fill="#FFFF44" points="20,196.2422,24,200.2422,20,204.2422,16,200.2422" style="stroke:#B38D22;stroke-width:1.0;"/><text fill="#000000" font-family="sans-serif" font-size="14" lengthAdjust="spacing" text-decoration="underline" textLength="132" x="29" y="204.5889">TAFBaseGUI_New()</text><polygon fill="#FFFF44" points="20,212.5391,24,216.5391,20,220.5391,16,216.5391" style="stroke:#B38D22;stroke-width:1.0;"/><text fill="#000000" font-family="sans-serif" font-size="14" lengthAdjust="spacing" text-decoration="underline" textLength="194" x="29" y="220.8857">TAFBaseGUI_GetAttributes()</text><ellipse cx="20" cy="233.8359" fill="#84BE84" rx="3" ry="3" style="stroke:#038048;stroke-width:1.0;"/><text fill="#000000" font-family="sans-serif" font-size="14" lengthAdjust="spacing" text-decoration="underline" textLength="148" x="29" y="237.1826">TAFBaseGUI_Create()</text><ellipse cx="20" cy="250.1328" fill="#84BE84" rx="3" ry="3" style="stroke:#038048;stroke-width:1.0;"/><text fill="#000000" font-family="sans-serif" font-size="14" lengthAdjust="spacing" textLength="56" x="29" y="253.4795">Create()</text><ellipse cx="20" cy="266.4297" fill="#84BE84" rx="3" ry="3" style="stroke:#038048;stroke-width:1.0;"/><text fill="#000000" font-family="sans-serif" font-size="14" lengthAdjust="spacing" textLength="73" x="29" y="269.7764">SetName()</text><ellipse cx="20" cy="282.7266" fill="#84BE84" rx="3" ry="3" style="stroke:#038048;stroke-width:1.0;"/><text fill="#000000" font-family="sans-serif" font-size="14" lengthAdjust="spacing" textLength="75" x="29" y="286.0732">GetName()</text><ellipse cx="20" cy="299.0234" fill="#84BE84" rx="3" ry="3" style="stroke:#038048;stroke-width:1.0;"/><text fill="#000000" font-family="sans-serif" font-size="14" lengthAdjust="spacing" textLength="197" x="29" y="302.3701">GetPersistentConfiguration()</text><ellipse cx="20" cy="315.3203" fill="#84BE84" rx="3" ry="3" style="stroke:#038048;stroke-width:1.0;"/><text fill="#000000" font-family="sans-serif" font-size="14" lengthAdjust="spacing" textLength="195" x="29" y="318.667">SetPersistentConfiguration()</text><ellipse cx="20" cy="331.6172" fill="#84BE84" rx="3" ry="3" style="stroke:#038048;stroke-width:1.0;"/><text fill="#000000" font-family="sans-serif" font-size="14" lengthAdjust="spacing" textLength="64" x="29" y="334.9639">Destroy()</text><ellipse cx="20" cy="347.9141" fill="#84BE84" rx="3" ry="3" style="stroke:#038048;stroke-width:1.0;"/><text fill="#000000" font-family="sans-serif" font-size="14" lengthAdjust="spacing" textLength="158" x="29" y="351.2607">GetExternalInterfaces()</text><ellipse cx="20" cy="364.2109" fill="#84BE84" rx="3" ry="3" style="stroke:#038048;stroke-width:1.0;"/><text fill="#000000" font-family="sans-serif" font-size="14" lengthAdjust="spacing" textLength="156" x="29" y="367.5576">SetExternalInterfaces()</text><ellipse cx="20" cy="380.5078" fill="#84BE84" rx="3" ry="3" style="stroke:#038048;stroke-width:1.0;"/><text fill="#000000" font-family="sans-serif" font-size="14" lengthAdjust="spacing" textLength="109" x="29" y="383.8545">GetFrontPanel()</text></g><!--MD5=[fa9f007be859bf43007ba002c5b16515]
class ITAFObject--><g id="elem_ITAFObject"><rect codeLine="26" fill="#FFFFFF" height="48" id="ITAFObject" rx="2.5" ry="2.5" style="stroke:#555555;stroke-width:0.5;" width="108" x="66.5" y="7"/><rect fill="#808080" height="32" rx="2.5" ry="2.5" style="stroke:#808080;stroke-width:0.5;" width="108" x="66.5" y="7"/><rect fill="#808080" height="2.5" style="stroke:#808080;stroke-width:0.5;" width="108" x="66.5" y="36.5"/><rect codeLine="26" fill="none" height="48" id="ITAFObject" rx="2.5" ry="2.5" style="stroke:#555555;stroke-width:0.5;" width="108" x="66.5" y="7"/><ellipse cx="81.5" cy="23" fill="#B4A7E5" rx="11" ry="11" style="stroke:#181818;stroke-width:1.0;"/><path d="M77.4219,18.7656 L77.4219,16.6094 L84.8125,16.6094 L84.8125,18.7656 L82.3438,18.7656 L82.3438,26.8438 L84.8125,26.8438 L84.8125,29 L77.4219,29 L77.4219,26.8438 L79.8906,26.8438 L79.8906,18.7656 L77.4219,18.7656 Z " fill="#000000"/><text fill="#000000" font-family="sans-serif" font-size="14" font-style="italic" lengthAdjust="spacing" textLength="76" x="95.5" y="27.8467">ITAFObject</text><line style="stroke:#555555;stroke-width:0.5;" x1="67.5" x2="173.5" y1="39" y2="39"/><line style="stroke:#555555;stroke-width:0.5;" x1="67.5" x2="173.5" y1="47" y2="47"/></g><!--MD5=[b6bb2ebe61e871c36fc9ded3c375f573]
reverse link ITAFObject to TAFBaseGUI--><g id="link_ITAFObject_TAFBaseGUI"><path codeLine="25" d="M120.5,75.58 C120.5,87.4 120.5,100.86 120.5,114.95 " fill="none" id="ITAFObject-backto-TAFBaseGUI" style="stroke:#181818;stroke-width:1.0;stroke-dasharray:7.0,7.0;"/><polygon fill="none" points="113.5,75.13,120.5,55.13,127.5,75.13,113.5,75.13" style="stroke:#181818;stroke-width:1.0;"/></g><!--MD5=[571b046d362c2783bed72312c997f4c4]
@startuml
set namespaceSeparator :
skinparam ClassBackgroundColor #FFFFFF
skinparam ClassBorderColor #555555
skinparam ClassFontColor #000000
skinparam ClassHeaderBackgroundColor #808080

skinparam top to bottom direction
class "TAFBaseGUI" {
{field} -Ref : U32
{static} {method} #UnknownAction()
{static} {method} #TAFBaseGUI_New()
{static} {method} #TAFBaseGUI_GetAttributes()
{static} {method} +TAFBaseGUI_Create()
{method} +Create()
{method} +SetName()
{method} +GetName()
{method} +GetPersistentConfiguration()
{method} +SetPersistentConfiguration()
{method} +Destroy()
{method} +GetExternalInterfaces()
{method} +SetExternalInterfaces()
{method} +GetFrontPanel()

}
"ITAFObject" <|.. "TAFBaseGUI"
interface "ITAFObject" {}




@enduml

PlantUML version 1.2022.12(Sun Oct 23 18:12:26 GMT 2022)
(GPL source distribution)
Java Runtime: OpenJDK Runtime Environment
JVM: OpenJDK 64-Bit Server VM
Default Encoding: UTF-8
Language: en
Country: US
--></g></svg>