<?xml version="1.0" encoding="UTF-8" standalone="no"?><svg xmlns="http://www.w3.org/2000/svg" xmlns:xlink="http://www.w3.org/1999/xlink" contentStyleType="text/css" height="626px" preserveAspectRatio="none" style="width:378px;height:626px;background:#FFFFFF;" version="1.1" viewBox="0 0 378 626" width="378px" zoomAndPan="magnify"><defs/><g><!--MD5=[36b646c945f5a836f61c707856d30646]
class YAFTAF--><g id="elem_YAFTAF"><rect codeLine="8" fill="#FFFFFF" height="504.3125" id="YAFTAF" rx="2.5" ry="2.5" style="stroke:#555555;stroke-width:0.5;" width="282" x="32.5" y="115"/><rect fill="#808080" height="32" rx="2.5" ry="2.5" style="stroke:#808080;stroke-width:0.5;" width="282" x="32.5" y="115"/><rect fill="#808080" height="2.5" style="stroke:#808080;stroke-width:0.5;" width="282" x="32.5" y="144.5"/><rect codeLine="8" fill="none" height="504.3125" id="YAFTAF" rx="2.5" ry="2.5" style="stroke:#555555;stroke-width:0.5;" width="282" x="32.5" y="115"/><ellipse cx="143.25" cy="131" fill="#ADD1B2" rx="11" ry="11" style="stroke:#181818;stroke-width:1.0;"/><path d="M146.2188,136.6406 Q145.6406,136.9375 145,137.0781 Q144.3594,137.2344 143.6563,137.2344 Q141.1563,137.2344 139.8281,135.5938 Q138.5156,133.9375 138.5156,130.8125 Q138.5156,127.6875 139.8281,126.0313 Q141.1563,124.375 143.6563,124.375 Q144.3594,124.375 145,124.5313 Q145.6563,124.6875 146.2188,124.9844 L146.2188,127.7031 Q145.5938,127.125 145,126.8594 Q144.4063,126.5781 143.7813,126.5781 Q142.4375,126.5781 141.75,127.6563 Q141.0625,128.7188 141.0625,130.8125 Q141.0625,132.9063 141.75,133.9844 Q142.4375,135.0469 143.7813,135.0469 Q144.4063,135.0469 145,134.7813 Q145.5938,134.5 146.2188,133.9219 L146.2188,136.6406 Z " fill="#000000"/><text fill="#000000" font-family="sans-serif" font-size="14" lengthAdjust="spacing" textLength="52" x="163.75" y="135.8467">YAFTAF</text><line style="stroke:#555555;stroke-width:0.5;" x1="33.5" x2="313.5" y1="147" y2="147"/><rect fill="none" height="6" style="stroke:#C82930;stroke-width:1.0;" width="6" x="40.5" y="157.6484"/><text fill="#000000" font-family="sans-serif" font-size="14" lengthAdjust="spacing" textLength="107" x="52.5" y="163.9951">None : Boolean</text><line style="stroke:#555555;stroke-width:0.5;" x1="33.5" x2="313.5" y1="171.2969" y2="171.2969"/><rect fill="#F24D5C" height="6" style="stroke:#C82930;stroke-width:1.0;" width="6" x="40.5" y="181.9453"/><text fill="#000000" font-family="sans-serif" font-size="14" lengthAdjust="spacing" text-decoration="underline" textLength="137" x="52.5" y="188.292">YAFTAF_ClassCast()</text><ellipse cx="43.5" cy="201.2422" fill="#84BE84" rx="3" ry="3" style="stroke:#038048;stroke-width:1.0;"/><text fill="#000000" font-family="sans-serif" font-size="14" lengthAdjust="spacing" text-decoration="underline" textLength="151" x="52.5" y="204.5889">YAFTAF_Constructor()</text><ellipse cx="43.5" cy="217.5391" fill="#84BE84" rx="3" ry="3" style="stroke:#038048;stroke-width:1.0;"/><text fill="#000000" font-family="sans-serif" font-size="14" lengthAdjust="spacing" text-decoration="underline" textLength="143" x="52.5" y="220.8857">YAFTAF_Destructor()</text><ellipse cx="43.5" cy="233.8359" fill="#84BE84" rx="3" ry="3" style="stroke:#038048;stroke-width:1.0;"/><text fill="#000000" font-family="sans-serif" font-size="14" lengthAdjust="spacing" text-decoration="underline" textLength="161" x="52.5" y="237.1826">YAFTAF_UserInterface()</text><ellipse cx="43.5" cy="250.1328" fill="#84BE84" rx="3" ry="3" style="stroke:#038048;stroke-width:1.0;"/><text fill="#000000" font-family="sans-serif" font-size="14" lengthAdjust="spacing" text-decoration="underline" textLength="254" x="52.5" y="253.4795">YAFTAF_SetPersistentConfiguration()</text><ellipse cx="43.5" cy="266.4297" fill="#84BE84" rx="3" ry="3" style="stroke:#038048;stroke-width:1.0;"/><text fill="#000000" font-family="sans-serif" font-size="14" lengthAdjust="spacing" text-decoration="underline" textLength="120" x="52.5" y="269.7764">CastVariantData()</text><ellipse cx="43.5" cy="282.7266" fill="#84BE84" rx="3" ry="3" style="stroke:#038048;stroke-width:1.0;"/><text fill="#000000" font-family="sans-serif" font-size="14" lengthAdjust="spacing" text-decoration="underline" textLength="256" x="52.5" y="286.0732">YAFTAF_GetPersistentConfiguration()</text><ellipse cx="43.5" cy="299.0234" fill="#84BE84" rx="3" ry="3" style="stroke:#038048;stroke-width:1.0;"/><text fill="#000000" font-family="sans-serif" font-size="14" lengthAdjust="spacing" text-decoration="underline" textLength="217" x="52.5" y="302.3701">YAFTAF_GetExternalInterfaces()</text><ellipse cx="43.5" cy="315.3203" fill="#84BE84" rx="3" ry="3" style="stroke:#038048;stroke-width:1.0;"/><text fill="#000000" font-family="sans-serif" font-size="14" lengthAdjust="spacing" text-decoration="underline" textLength="215" x="52.5" y="318.667">YAFTAF_SetExternalInterfaces()</text><polygon fill="#FFFF44" points="43.5,326.6172,47.5,330.6172,43.5,334.6172,39.5,330.6172" style="stroke:#B38D22;stroke-width:1.0;"/><text fill="#000000" font-family="sans-serif" font-size="14" lengthAdjust="spacing" textLength="92" x="52.5" y="334.9639">Constructor()</text><polygon fill="#FFFF44" points="43.5,342.9141,47.5,346.9141,43.5,350.9141,39.5,346.9141" style="stroke:#B38D22;stroke-width:1.0;"/><text fill="#000000" font-family="sans-serif" font-size="14" lengthAdjust="spacing" textLength="84" x="52.5" y="351.2607">Destructor()</text><polygon fill="#FFFF44" points="43.5,359.2109,47.5,363.2109,43.5,367.2109,39.5,363.2109" style="stroke:#B38D22;stroke-width:1.0;"/><text fill="#000000" font-family="sans-serif" font-size="14" lengthAdjust="spacing" textLength="66" x="52.5" y="367.5576">MainGUI()</text><polygon fill="#FFFF44" points="43.5,375.5078,47.5,379.5078,43.5,383.5078,39.5,379.5078" style="stroke:#B38D22;stroke-width:1.0;"/><text fill="#000000" font-family="sans-serif" font-size="14" lengthAdjust="spacing" textLength="207" x="52.5" y="383.8545">WritePersistentConfiguration()</text><polygon fill="#FFFF44" points="43.5,391.8047,47.5,395.8047,43.5,399.8047,39.5,395.8047" style="stroke:#B38D22;stroke-width:1.0;"/><text fill="#000000" font-family="sans-serif" font-size="14" lengthAdjust="spacing" textLength="208" x="52.5" y="400.1514">ReadPersistentConfiguration()</text><polygon fill="#FFFF44" points="43.5,408.1016,47.5,412.1016,43.5,416.1016,39.5,412.1016" style="stroke:#B38D22;stroke-width:1.0;"/><text fill="#000000" font-family="sans-serif" font-size="14" lengthAdjust="spacing" textLength="169" x="52.5" y="416.4482">ReadExternalInterfaces()</text><polygon fill="#FFFF44" points="43.5,424.3984,47.5,428.3984,43.5,432.3984,39.5,428.3984" style="stroke:#B38D22;stroke-width:1.0;"/><text fill="#000000" font-family="sans-serif" font-size="14" lengthAdjust="spacing" textLength="168" x="52.5" y="432.7451">WriteExternalInterfaces()</text><ellipse cx="43.5" cy="445.6953" fill="#84BE84" rx="3" ry="3" style="stroke:#038048;stroke-width:1.0;"/><text fill="#000000" font-family="sans-serif" font-size="14" lengthAdjust="spacing" textLength="75" x="52.5" y="449.042">GetName()</text><ellipse cx="43.5" cy="461.9922" fill="#84BE84" rx="3" ry="3" style="stroke:#038048;stroke-width:1.0;"/><text fill="#000000" font-family="sans-serif" font-size="14" lengthAdjust="spacing" textLength="73" x="52.5" y="465.3389">SetName()</text><ellipse cx="43.5" cy="478.2891" fill="#84BE84" rx="3" ry="3" style="stroke:#038048;stroke-width:1.0;"/><text fill="#000000" font-family="sans-serif" font-size="14" lengthAdjust="spacing" textLength="56" x="52.5" y="481.6357">Create()</text><ellipse cx="43.5" cy="494.5859" fill="#84BE84" rx="3" ry="3" style="stroke:#038048;stroke-width:1.0;"/><text fill="#000000" font-family="sans-serif" font-size="14" lengthAdjust="spacing" textLength="109" x="52.5" y="497.9326">GetFrontPanel()</text><ellipse cx="43.5" cy="510.8828" fill="#84BE84" rx="3" ry="3" style="stroke:#038048;stroke-width:1.0;"/><text fill="#000000" font-family="sans-serif" font-size="14" lengthAdjust="spacing" textLength="76" x="52.5" y="514.2295">DoCreate()</text><ellipse cx="43.5" cy="527.1797" fill="#84BE84" rx="3" ry="3" style="stroke:#038048;stroke-width:1.0;"/><text fill="#000000" font-family="sans-serif" font-size="14" lengthAdjust="spacing" textLength="64" x="52.5" y="530.5264">Destroy()</text><ellipse cx="43.5" cy="543.4766" fill="#84BE84" rx="3" ry="3" style="stroke:#038048;stroke-width:1.0;"/><text fill="#000000" font-family="sans-serif" font-size="14" lengthAdjust="spacing" textLength="115" x="52.5" y="546.8232">YAFTAF_Create()</text><ellipse cx="43.5" cy="559.7734" fill="#84BE84" rx="3" ry="3" style="stroke:#038048;stroke-width:1.0;"/><text fill="#000000" font-family="sans-serif" font-size="14" lengthAdjust="spacing" textLength="195" x="52.5" y="563.1201">SetPersistentConfiguration()</text><ellipse cx="43.5" cy="576.0703" fill="#84BE84" rx="3" ry="3" style="stroke:#038048;stroke-width:1.0;"/><text fill="#000000" font-family="sans-serif" font-size="14" lengthAdjust="spacing" textLength="197" x="52.5" y="579.417">GetPersistentConfiguration()</text><ellipse cx="43.5" cy="592.3672" fill="#84BE84" rx="3" ry="3" style="stroke:#038048;stroke-width:1.0;"/><text fill="#000000" font-family="sans-serif" font-size="14" lengthAdjust="spacing" textLength="158" x="52.5" y="595.7139">GetExternalInterfaces()</text><ellipse cx="43.5" cy="608.6641" fill="#84BE84" rx="3" ry="3" style="stroke:#038048;stroke-width:1.0;"/><text fill="#000000" font-family="sans-serif" font-size="14" lengthAdjust="spacing" textLength="156" x="52.5" y="612.0107">SetExternalInterfaces()</text></g><!--MD5=[349db771d7c839fab66b4fdca2f48b90]
class YActor--><g id="elem_YActor"><rect fill="#FFFFFF" height="48" id="YActor" rx="2.5" ry="2.5" style="stroke:#555555;stroke-width:0.5;" width="77" x="7" y="7"/><rect fill="#808080" height="32" rx="2.5" ry="2.5" style="stroke:#808080;stroke-width:0.5;" width="77" x="7" y="7"/><rect fill="#808080" height="2.5" style="stroke:#808080;stroke-width:0.5;" width="77" x="7" y="36.5"/><rect fill="none" height="48" id="YActor" rx="2.5" ry="2.5" style="stroke:#555555;stroke-width:0.5;" width="77" x="7" y="7"/><ellipse cx="22" cy="23" fill="#ADD1B2" rx="11" ry="11" style="stroke:#181818;stroke-width:1.0;"/><path d="M24.9688,28.6406 Q24.3906,28.9375 23.75,29.0781 Q23.1094,29.2344 22.4063,29.2344 Q19.9063,29.2344 18.5781,27.5938 Q17.2656,25.9375 17.2656,22.8125 Q17.2656,19.6875 18.5781,18.0313 Q19.9063,16.375 22.4063,16.375 Q23.1094,16.375 23.75,16.5313 Q24.4063,16.6875 24.9688,16.9844 L24.9688,19.7031 Q24.3438,19.125 23.75,18.8594 Q23.1563,18.5781 22.5313,18.5781 Q21.1875,18.5781 20.5,19.6563 Q19.8125,20.7188 19.8125,22.8125 Q19.8125,24.9063 20.5,25.9844 Q21.1875,27.0469 22.5313,27.0469 Q23.1563,27.0469 23.75,26.7813 Q24.3438,26.5 24.9688,25.9219 L24.9688,28.6406 Z " fill="#000000"/><text fill="#000000" font-family="sans-serif" font-size="14" lengthAdjust="spacing" textLength="45" x="36" y="27.8467">YActor</text><line style="stroke:#555555;stroke-width:0.5;" x1="8" x2="83" y1="39" y2="39"/><line style="stroke:#555555;stroke-width:0.5;" x1="8" x2="83" y1="47" y2="47"/></g><!--MD5=[163b904ce3f0cc2f7db427f2921361dd]
class IFrontPanel--><g id="elem_IFrontPanel"><rect codeLine="41" fill="#FFFFFF" height="48" id="IFrontPanel" rx="2.5" ry="2.5" style="stroke:#555555;stroke-width:0.5;" width="109" x="119" y="7"/><rect fill="#808080" height="32" rx="2.5" ry="2.5" style="stroke:#808080;stroke-width:0.5;" width="109" x="119" y="7"/><rect fill="#808080" height="2.5" style="stroke:#808080;stroke-width:0.5;" width="109" x="119" y="36.5"/><rect codeLine="41" fill="none" height="48" id="IFrontPanel" rx="2.5" ry="2.5" style="stroke:#555555;stroke-width:0.5;" width="109" x="119" y="7"/><ellipse cx="134" cy="23" fill="#B4A7E5" rx="11" ry="11" style="stroke:#181818;stroke-width:1.0;"/><path d="M129.9219,18.7656 L129.9219,16.6094 L137.3125,16.6094 L137.3125,18.7656 L134.8438,18.7656 L134.8438,26.8438 L137.3125,26.8438 L137.3125,29 L129.9219,29 L129.9219,26.8438 L132.3906,26.8438 L132.3906,18.7656 L129.9219,18.7656 Z " fill="#000000"/><text fill="#000000" font-family="sans-serif" font-size="14" font-style="italic" lengthAdjust="spacing" textLength="77" x="148" y="27.8467">IFrontPanel</text><line style="stroke:#555555;stroke-width:0.5;" x1="120" x2="227" y1="39" y2="39"/><line style="stroke:#555555;stroke-width:0.5;" x1="120" x2="227" y1="47" y2="47"/></g><!--MD5=[fa9f007be859bf43007ba002c5b16515]
class ITAFObject--><g id="elem_ITAFObject"><rect codeLine="43" fill="#FFFFFF" height="48" id="ITAFObject" rx="2.5" ry="2.5" style="stroke:#555555;stroke-width:0.5;" width="108" x="263.5" y="7"/><rect fill="#808080" height="32" rx="2.5" ry="2.5" style="stroke:#808080;stroke-width:0.5;" width="108" x="263.5" y="7"/><rect fill="#808080" height="2.5" style="stroke:#808080;stroke-width:0.5;" width="108" x="263.5" y="36.5"/><rect codeLine="43" fill="none" height="48" id="ITAFObject" rx="2.5" ry="2.5" style="stroke:#555555;stroke-width:0.5;" width="108" x="263.5" y="7"/><ellipse cx="278.5" cy="23" fill="#B4A7E5" rx="11" ry="11" style="stroke:#181818;stroke-width:1.0;"/><path d="M274.4219,18.7656 L274.4219,16.6094 L281.8125,16.6094 L281.8125,18.7656 L279.3438,18.7656 L279.3438,26.8438 L281.8125,26.8438 L281.8125,29 L274.4219,29 L274.4219,26.8438 L276.8906,26.8438 L276.8906,18.7656 L274.4219,18.7656 Z " fill="#000000"/><text fill="#000000" font-family="sans-serif" font-size="14" font-style="italic" lengthAdjust="spacing" textLength="76" x="292.5" y="27.8467">ITAFObject</text><line style="stroke:#555555;stroke-width:0.5;" x1="264.5" x2="370.5" y1="39" y2="39"/><line style="stroke:#555555;stroke-width:0.5;" x1="264.5" x2="370.5" y1="47" y2="47"/></g><!--MD5=[c5d9d6f7e3740deecc0dfc203c59dec2]
reverse link YActor to YAFTAF--><g id="link_YActor_YAFTAF"><path codeLine="39" d="M61.7,74.27 C66.24,86.11 71.52,99.89 77.27,114.89 " fill="none" id="YActor-backto-YAFTAF" style="stroke:#181818;stroke-width:1.0;"/><polygon fill="none" points="55.02,76.4,54.4,55.22,68.09,71.39,55.02,76.4" style="stroke:#181818;stroke-width:1.0;"/></g><!--MD5=[5bf9fac56fdcb74f3e383b79b5b0db31]
reverse link IFrontPanel to YAFTAF--><g id="link_IFrontPanel_YAFTAF"><path codeLine="40" d="M173.5,75.61 C173.5,87.14 173.5,100.45 173.5,114.89 " fill="none" id="IFrontPanel-backto-YAFTAF" style="stroke:#181818;stroke-width:1.0;stroke-dasharray:7.0,7.0;"/><polygon fill="none" points="166.5,75.22,173.5,55.22,180.5,75.22,166.5,75.22" style="stroke:#181818;stroke-width:1.0;"/></g><!--MD5=[36abacc60cedeb7eda46a52f21a38db0]
reverse link ITAFObject to YAFTAF--><g id="link_ITAFObject_YAFTAF"><path codeLine="42" d="M299.47,73.83 C294.32,85.76 288.31,99.7 281.76,114.89 " fill="none" id="ITAFObject-backto-YAFTAF" style="stroke:#181818;stroke-width:1.0;stroke-dasharray:7.0,7.0;"/><polygon fill="none" points="293.14,70.82,307.49,55.22,306,76.36,293.14,70.82" style="stroke:#181818;stroke-width:1.0;"/></g><!--MD5=[63ef548e789ca21990bb42de84b7d960]
@startuml
set namespaceSeparator :
skinparam ClassBackgroundColor #FFFFFF
skinparam ClassBorderColor #555555
skinparam ClassFontColor #000000
skinparam ClassHeaderBackgroundColor #808080

skinparam top to bottom direction
class "YAFTAF" {
{field} -None : Boolean
{static} {method} -YAFTAF_ClassCast()
{static} {method} +YAFTAF_Constructor()
{static} {method} +YAFTAF_Destructor()
{static} {method} +YAFTAF_UserInterface()
{static} {method} +YAFTAF_SetPersistentConfiguration()
{static} {method} +CastVariantData()
{static} {method} +YAFTAF_GetPersistentConfiguration()
{static} {method} +YAFTAF_GetExternalInterfaces()
{static} {method} +YAFTAF_SetExternalInterfaces()
{method} #Constructor()
{method} #Destructor()
{method} #MainGUI()
{method} #WritePersistentConfiguration()
{method} #ReadPersistentConfiguration()
{method} #ReadExternalInterfaces()
{method} #WriteExternalInterfaces()
{method} +GetName()
{method} +SetName()
{method} +Create()
{method} +GetFrontPanel()
{method} +DoCreate()
{method} +Destroy()
{method} +YAFTAF_Create()
{method} +SetPersistentConfiguration()
{method} +GetPersistentConfiguration()
{method} +GetExternalInterfaces()
{method} +SetExternalInterfaces()

}
"YActor" <|- - "YAFTAF"
"IFrontPanel" <|.. "YAFTAF"
interface "IFrontPanel" {}
"ITAFObject" <|.. "YAFTAF"
interface "ITAFObject" {}




@enduml

PlantUML version 1.2022.12(Sun Oct 23 18:12:26 GMT 2022)
(GPL source distribution)
Java Runtime: OpenJDK Runtime Environment
JVM: OpenJDK 64-Bit Server VM
Default Encoding: UTF-8
Language: en
Country: US
--></g></svg>