<?xml version="1.0" encoding="UTF-8" standalone="no"?><svg xmlns="http://www.w3.org/2000/svg" xmlns:xlink="http://www.w3.org/1999/xlink" contentStyleType="text/css" height="505px" preserveAspectRatio="none" style="width:243px;height:505px;background:#FFFFFF;" version="1.1" viewBox="0 0 243 505" width="243px" zoomAndPan="magnify"><defs/><g><!--MD5=[99c704f2bf9547bdb3c83ffcf3167ba6]
class AppConfigJSON--><g id="elem_AppConfigJSON"><rect codeLine="8" fill="#FFFFFF" height="383.9985" id="AppConfigJSON" rx="2.5" ry="2.5" style="stroke:#555555;stroke-width:0.5;" width="227" x="9" y="115"/><rect fill="#808080" height="32" rx="2.5" ry="2.5" style="stroke:#808080;stroke-width:0.5;" width="227" x="9" y="115"/><rect fill="#808080" height="2.5" style="stroke:#808080;stroke-width:0.5;" width="227" x="9" y="144.5"/><rect codeLine="8" fill="none" height="383.9985" id="AppConfigJSON" rx="2.5" ry="2.5" style="stroke:#555555;stroke-width:0.5;" width="227" x="9" y="115"/><ellipse cx="67.25" cy="131" fill="#ADD1B2" rx="11" ry="11" style="stroke:#181818;stroke-width:1.0;"/><path d="M66.6094,134.7813 Q67.4063,134.7813 67.9688,134.5938 Q68.5469,134.3906 68.7813,134.1719 Q69.0313,133.9375 69.2656,133.75 Q69.5156,133.5469 69.7344,133.5469 Q70.0781,133.5469 70.3281,133.8125 Q70.5938,134.0625 70.5938,134.3906 Q70.5938,135.125 69.4219,135.8125 Q68.2656,136.4844 66.5625,136.4844 Q64.4063,136.4844 62.9844,135.2188 Q61.5625,133.9531 61.5625,132.0156 L61.5625,130.8906 Q61.5625,128.8594 62.8906,127.4844 Q64.2188,126.0938 66.1875,126.0938 Q67.375,126.0938 68.5938,126.6719 L68.7656,126.75 Q69.0625,126.3438 69.4844,126.3438 Q69.9688,126.3438 70.1406,126.6406 Q70.3281,126.9219 70.3281,127.4688 L70.3281,128.8906 Q70.3281,130.0156 69.4844,130.0156 Q69.1719,130.0156 68.9688,129.8438 Q68.7813,129.6719 68.7344,129.5313 Q68.7031,129.375 68.6563,129.1094 Q68.5469,128.5938 68.0313,128.2813 Q67.5156,127.9688 67.0625,127.8906 Q66.625,127.7969 66.25,127.7969 Q64.9688,127.7969 64.1094,128.6719 Q63.2656,129.5469 63.2656,130.8906 L63.2656,131.9844 Q63.2656,133.2656 64.1719,134.0313 Q65.0781,134.7813 66.6094,134.7813 Z " fill="#000000"/><text fill="#000000" font-family="sans-serif" font-size="14" lengthAdjust="spacing" textLength="102" x="87.75" y="136.6">AppConfigJSON</text><line style="stroke:#555555;stroke-width:0.5;" x1="10" x2="235" y1="147" y2="147"/><rect fill="none" height="6" style="stroke:#C82930;stroke-width:1.0;" width="6" x="17" y="155"/><text fill="#000000" font-family="sans-serif" font-size="14" lengthAdjust="spacing" textLength="59" x="29" y="164.9999">Ref : U32</text><line style="stroke:#555555;stroke-width:0.5;" x1="10" x2="235" y1="171.7999" y2="171.7999"/><polygon fill="#FFFF44" points="20,177.7999,24,181.7999,20,185.7999,16,181.7999" style="stroke:#B38D22;stroke-width:1.0;"/><text fill="#000000" font-family="sans-serif" font-size="14" lengthAdjust="spacing" text-decoration="underline" textLength="147" x="29" y="189.7999">AppConfigJSON_New()</text><polygon fill="#FFFF44" points="20,194.5999,24,198.5999,20,202.5999,16,198.5999" style="stroke:#B38D22;stroke-width:1.0;"/><text fill="#000000" font-family="sans-serif" font-size="14" lengthAdjust="spacing" text-decoration="underline" textLength="201" x="29" y="206.5998">AppConfigJSON_GetAttributes()</text><ellipse cx="20" cy="216.3998" fill="#84BE84" rx="3" ry="3" style="stroke:#038048;stroke-width:1.0;"/><text fill="#000000" font-family="sans-serif" font-size="14" lengthAdjust="spacing" text-decoration="underline" textLength="161" x="29" y="223.3997">AppConfigJSON_Create()</text><ellipse cx="20" cy="233.1997" fill="#84BE84" rx="3" ry="3" style="stroke:#038048;stroke-width:1.0;"/><text fill="#000000" font-family="sans-serif" font-size="14" lengthAdjust="spacing" textLength="57" x="29" y="240.1996">Destroy()</text><ellipse cx="20" cy="249.9996" fill="#84BE84" rx="3" ry="3" style="stroke:#038048;stroke-width:1.0;"/><text fill="#000000" font-family="sans-serif" font-size="14" lengthAdjust="spacing" textLength="155" x="29" y="256.9996">GetObjectConfiguration()</text><ellipse cx="20" cy="266.7996" fill="#84BE84" rx="3" ry="3" style="stroke:#038048;stroke-width:1.0;"/><text fill="#000000" font-family="sans-serif" font-size="14" lengthAdjust="spacing" textLength="153" x="29" y="273.7995">SetObjectConfiguration()</text><ellipse cx="20" cy="283.5995" fill="#84BE84" rx="3" ry="3" style="stroke:#038048;stroke-width:1.0;"/><text fill="#000000" font-family="sans-serif" font-size="14" lengthAdjust="spacing" textLength="44" x="29" y="290.5994">Open()</text><ellipse cx="20" cy="300.3994" fill="#84BE84" rx="3" ry="3" style="stroke:#038048;stroke-width:1.0;"/><text fill="#000000" font-family="sans-serif" font-size="14" lengthAdjust="spacing" textLength="51" x="29" y="307.3994">Create()</text><ellipse cx="20" cy="317.1993" fill="#84BE84" rx="3" ry="3" style="stroke:#038048;stroke-width:1.0;"/><text fill="#000000" font-family="sans-serif" font-size="14" lengthAdjust="spacing" textLength="117" x="29" y="324.1993">GetAllObjectData()</text><ellipse cx="20" cy="333.9993" fill="#84BE84" rx="3" ry="3" style="stroke:#038048;stroke-width:1.0;"/><text fill="#000000" font-family="sans-serif" font-size="14" lengthAdjust="spacing" textLength="184" x="29" y="340.9992">GetObjectExternalInterfaces()</text><ellipse cx="20" cy="350.7992" fill="#84BE84" rx="3" ry="3" style="stroke:#038048;stroke-width:1.0;"/><text fill="#000000" font-family="sans-serif" font-size="14" lengthAdjust="spacing" textLength="158" x="29" y="357.7991">SetApplicationBasePath()</text><ellipse cx="20" cy="367.5991" fill="#84BE84" rx="3" ry="3" style="stroke:#038048;stroke-width:1.0;"/><text fill="#000000" font-family="sans-serif" font-size="14" lengthAdjust="spacing" textLength="175" x="29" y="374.5991">GetConfigurationBasePath()</text><ellipse cx="20" cy="384.399" fill="#84BE84" rx="3" ry="3" style="stroke:#038048;stroke-width:1.0;"/><text fill="#000000" font-family="sans-serif" font-size="14" lengthAdjust="spacing" textLength="192" x="29" y="391.399">GetObjectConfigurationString()</text><ellipse cx="20" cy="401.199" fill="#84BE84" rx="3" ry="3" style="stroke:#038048;stroke-width:1.0;"/><text fill="#000000" font-family="sans-serif" font-size="14" lengthAdjust="spacing" textLength="190" x="29" y="408.1989">SetObjectConfigurationString()</text><ellipse cx="20" cy="417.9989" fill="#84BE84" rx="3" ry="3" style="stroke:#038048;stroke-width:1.0;"/><text fill="#000000" font-family="sans-serif" font-size="14" lengthAdjust="spacing" textLength="174" x="29" y="424.9988">GetExternalInterfaceString()</text><ellipse cx="20" cy="434.7988" fill="#84BE84" rx="3" ry="3" style="stroke:#038048;stroke-width:1.0;"/><text fill="#000000" font-family="sans-serif" font-size="14" lengthAdjust="spacing" textLength="152" x="29" y="441.7988">GetConfigurationString()</text><ellipse cx="20" cy="451.5988" fill="#84BE84" rx="3" ry="3" style="stroke:#038048;stroke-width:1.0;"/><text fill="#000000" font-family="sans-serif" font-size="14" lengthAdjust="spacing" textLength="122" x="29" y="458.5987">ListConfigurations()</text><ellipse cx="20" cy="468.3987" fill="#84BE84" rx="3" ry="3" style="stroke:#038048;stroke-width:1.0;"/><text fill="#000000" font-family="sans-serif" font-size="14" lengthAdjust="spacing" textLength="150" x="29" y="475.3986">SetConfigurationString()</text><ellipse cx="20" cy="485.1986" fill="#84BE84" rx="3" ry="3" style="stroke:#038048;stroke-width:1.0;"/><text fill="#000000" font-family="sans-serif" font-size="14" lengthAdjust="spacing" textLength="102" x="29" y="492.1985">GetObjectData()</text></g><!--MD5=[49827e1bab8626e5ec2fb4ad52723fa5]
class IApplicationConfiguration--><g id="elem_IApplicationConfiguration"><rect codeLine="32" fill="#FFFFFF" height="48" id="IApplicationConfiguration" rx="2.5" ry="2.5" style="stroke:#555555;stroke-width:0.5;" width="190" x="27.5" y="7"/><rect fill="#808080" height="32" rx="2.5" ry="2.5" style="stroke:#808080;stroke-width:0.5;" width="190" x="27.5" y="7"/><rect fill="#808080" height="2.5" style="stroke:#808080;stroke-width:0.5;" width="190" x="27.5" y="36.5"/><rect codeLine="32" fill="none" height="48" id="IApplicationConfiguration" rx="2.5" ry="2.5" style="stroke:#555555;stroke-width:0.5;" width="190" x="27.5" y="7"/><ellipse cx="42.5" cy="23" fill="#B4A7E5" rx="11" ry="11" style="stroke:#181818;stroke-width:1.0;"/><path d="M45.1719,26.2969 Q45.7188,26.2969 46,26.4844 Q46.2813,26.6563 46.2813,27.1563 Q46.2813,28 45.1719,28 L40.0313,28 Q38.9063,28 38.9063,27.1563 Q38.9063,26.6563 39.1875,26.4844 Q39.4844,26.2969 40.0313,26.2969 L41.75,26.2969 L41.75,19.7813 L40.0313,19.7813 Q38.9063,19.7813 38.9063,18.9375 Q38.9063,18.4531 39.1875,18.2813 Q39.4844,18.0938 40.0313,18.0938 L45.1719,18.0938 Q45.7188,18.0938 46,18.2813 Q46.2813,18.4531 46.2813,18.9375 Q46.2813,19.7813 45.1719,19.7813 L43.4531,19.7813 L43.4531,26.2969 L45.1719,26.2969 Z " fill="#000000"/><text fill="#000000" font-family="sans-serif" font-size="14" font-style="italic" lengthAdjust="spacing" textLength="158" x="56.5" y="28.6">IApplicationConfiguration</text><line style="stroke:#555555;stroke-width:0.5;" x1="28.5" x2="216.5" y1="39" y2="39"/><line style="stroke:#555555;stroke-width:0.5;" x1="28.5" x2="216.5" y1="47" y2="47"/></g><!--MD5=[fe363408e6ff03cf5797c24f9f639834]
reverse link IApplicationConfiguration to AppConfigJSON--><g id="link_IApplicationConfiguration_AppConfigJSON"><path codeLine="31" d="M122.5,75.42 C122.5,87.07 122.5,100.45 122.5,114.76 " fill="none" id="IApplicationConfiguration-backto-AppConfigJSON" style="stroke:#181818;stroke-width:1.0;stroke-dasharray:7.0,7.0;"/><polygon fill="none" points="115.5,75.36,122.5,55.36,129.5,75.36,115.5,75.36" style="stroke:#181818;stroke-width:1.0;"/></g><!--MD5=[c55378e4d77d0bf08d87d275f24aaf4e]
@startuml
set namespaceSeparator :
skinparam ClassBackgroundColor #FFFFFF
skinparam ClassBorderColor #555555
skinparam ClassFontColor #000000
skinparam ClassHeaderBackgroundColor #808080

skinparam top to bottom direction
class "AppConfigJSON" {
{field} -Ref : U32
{static} {method} #AppConfigJSON_New()
{static} {method} #AppConfigJSON_GetAttributes()
{static} {method} +AppConfigJSON_Create()
{method} +Destroy()
{method} +GetObjectConfiguration()
{method} +SetObjectConfiguration()
{method} +Open()
{method} +Create()
{method} +GetAllObjectData()
{method} +GetObjectExternalInterfaces()
{method} +SetApplicationBasePath()
{method} +GetConfigurationBasePath()
{method} +GetObjectConfigurationString()
{method} +SetObjectConfigurationString()
{method} +GetExternalInterfaceString()
{method} +GetConfigurationString()
{method} +ListConfigurations()
{method} +SetConfigurationString()
{method} +GetObjectData()

}
"IApplicationConfiguration" <|.. "AppConfigJSON"
interface "IApplicationConfiguration" {}




@enduml

PlantUML version 1.2022.5(Sat Apr 30 10:55:52 GMT 2022)
(GPL source distribution)
Java Runtime: OpenJDK Runtime Environment
JVM: OpenJDK 64-Bit Server VM
Default Encoding: UTF-8
Language: en
Country: US
--></g></svg>