<?xml version="1.0" encoding="UTF-8" standalone="no"?><svg xmlns="http://www.w3.org/2000/svg" xmlns:xlink="http://www.w3.org/1999/xlink" contentStyleType="text/css" height="522px" preserveAspectRatio="none" style="width:279px;height:522px;background:#FFFFFF;" version="1.1" viewBox="0 0 279 522" width="279px" zoomAndPan="magnify"><defs/><g><!--MD5=[25bfacd57ab5138815bfc5258a6e5a01]
cluster YAFFooter.lvlib--><g id="cluster_YAFFooter.lvlib"><path d="M8.5,80 L127.5,80 A3.75,3.75 0 0 1 130,82.5 L137,102.2969 L269.5,102.2969 A2.5,2.5 0 0 1 272,104.7969 L272,420.5 A2.5,2.5 0 0 1 269.5,423 L8.5,423 A2.5,2.5 0 0 1 6,420.5 L6,82.5 A2.5,2.5 0 0 1 8.5,80 " fill="none" style="stroke:#000000;stroke-width:1.5;"/><line style="stroke:#000000;stroke-width:1.5;" x1="6" x2="137" y1="102.2969" y2="102.2969"/><text fill="#000000" font-family="sans-serif" font-size="14" font-weight="bold" lengthAdjust="spacing" textLength="118" x="10" y="94.9951">YAFFooter.lvlib</text></g><!--MD5=[6c6e3c89f53898dad28ece4e1bcc1fe4]
class YAFFooter.lvlib:YAFFooter--><g id="elem_YAFFooter.lvlib:YAFFooter"><rect codeLine="8" fill="#FFFFFF" height="292.4531" id="YAFFooter.lvlib:YAFFooter" rx="2.5" ry="2.5" style="stroke:#555555;stroke-width:0.5;" width="234" x="22" y="115"/><rect fill="#808080" height="32" rx="2.5" ry="2.5" style="stroke:#808080;stroke-width:0.5;" width="234" x="22" y="115"/><rect fill="#808080" height="2.5" style="stroke:#808080;stroke-width:0.5;" width="234" x="22" y="144.5"/><rect codeLine="8" fill="none" height="292.4531" id="YAFFooter.lvlib:YAFFooter" rx="2.5" ry="2.5" style="stroke:#555555;stroke-width:0.5;" width="234" x="22" y="115"/><ellipse cx="99.25" cy="131" fill="#ADD1B2" rx="11" ry="11" style="stroke:#181818;stroke-width:1.0;"/><path d="M102.2188,136.6406 Q101.6406,136.9375 101,137.0781 Q100.3594,137.2344 99.6563,137.2344 Q97.1563,137.2344 95.8281,135.5938 Q94.5156,133.9375 94.5156,130.8125 Q94.5156,127.6875 95.8281,126.0313 Q97.1563,124.375 99.6563,124.375 Q100.3594,124.375 101,124.5313 Q101.6563,124.6875 102.2188,124.9844 L102.2188,127.7031 Q101.5938,127.125 101,126.8594 Q100.4063,126.5781 99.7813,126.5781 Q98.4375,126.5781 97.75,127.6563 Q97.0625,128.7188 97.0625,130.8125 Q97.0625,132.9063 97.75,133.9844 Q98.4375,135.0469 99.7813,135.0469 Q100.4063,135.0469 101,134.7813 Q101.5938,134.5 102.2188,133.9219 L102.2188,136.6406 Z " fill="#000000"/><text fill="#000000" font-family="sans-serif" font-size="14" lengthAdjust="spacing" textLength="71" x="119.75" y="135.8467">YAFFooter</text><line style="stroke:#555555;stroke-width:0.5;" x1="23" x2="255" y1="147" y2="147"/><rect fill="none" height="6" style="stroke:#C82930;stroke-width:1.0;" width="6" x="30" y="157.6484"/><text fill="#000000" font-family="sans-serif" font-size="14" lengthAdjust="spacing" textLength="185" x="42" y="163.9951">ExternalInterfaces : Cluster</text><rect fill="none" height="6" style="stroke:#C82930;stroke-width:1.0;" width="6" x="30" y="173.9453"/><text fill="#000000" font-family="sans-serif" font-size="14" lengthAdjust="spacing" textLength="97" x="42" y="180.292">Local : Cluster</text><rect fill="none" height="6" style="stroke:#C82930;stroke-width:1.0;" width="6" x="30" y="190.2422"/><text fill="#000000" font-family="sans-serif" font-size="14" lengthAdjust="spacing" textLength="132" x="42" y="196.5889">Persistent : Cluster</text><line style="stroke:#555555;stroke-width:0.5;" x1="23" x2="255" y1="203.8906" y2="203.8906"/><rect fill="#F24D5C" height="6" style="stroke:#C82930;stroke-width:1.0;" width="6" x="30" y="214.5391"/><text fill="#000000" font-family="sans-serif" font-size="14" lengthAdjust="spacing" text-decoration="underline" textLength="171" x="42" y="220.8857">YAFFooter_CastUIEvent()</text><rect fill="#F24D5C" height="6" style="stroke:#C82930;stroke-width:1.0;" width="6" x="30" y="230.8359"/><text fill="#000000" font-family="sans-serif" font-size="14" lengthAdjust="spacing" text-decoration="underline" textLength="156" x="42" y="237.1826">YAFFooter_ClassCast()</text><polygon fill="#FFFF44" points="33,245.1328,37,249.1328,33,253.1328,29,249.1328" style="stroke:#B38D22;stroke-width:1.0;"/><text fill="#000000" font-family="sans-serif" font-size="14" lengthAdjust="spacing" text-decoration="underline" textLength="176" x="42" y="253.4795">YAFFooter_SendUiEvent()</text><ellipse cx="33" cy="266.4297" fill="#84BE84" rx="3" ry="3" style="stroke:#038048;stroke-width:1.0;"/><text fill="#000000" font-family="sans-serif" font-size="14" lengthAdjust="spacing" text-decoration="underline" textLength="206" x="42" y="269.7764">YAFFooter_TemplateMethod()</text><polygon fill="#FFFF44" points="33,277.7266,37,281.7266,33,285.7266,29,281.7266" style="stroke:#B38D22;stroke-width:1.0;"/><text fill="#000000" font-family="sans-serif" font-size="14" lengthAdjust="spacing" textLength="92" x="42" y="286.0732">Constructor()</text><polygon fill="#FFFF44" points="33,294.0234,37,298.0234,33,302.0234,29,298.0234" style="stroke:#B38D22;stroke-width:1.0;"/><text fill="#000000" font-family="sans-serif" font-size="14" lengthAdjust="spacing" textLength="84" x="42" y="302.3701">Destructor()</text><polygon fill="#FFFF44" points="33,310.3203,37,314.3203,33,318.3203,29,314.3203" style="stroke:#B38D22;stroke-width:1.0;"/><text fill="#000000" font-family="sans-serif" font-size="14" lengthAdjust="spacing" textLength="207" x="42" y="318.667">WritePersistentConfiguration()</text><polygon fill="#FFFF44" points="33,326.6172,37,330.6172,33,334.6172,29,330.6172" style="stroke:#B38D22;stroke-width:1.0;"/><text fill="#000000" font-family="sans-serif" font-size="14" lengthAdjust="spacing" textLength="208" x="42" y="334.9639">ReadPersistentConfiguration()</text><polygon fill="#FFFF44" points="33,342.9141,37,346.9141,33,350.9141,29,346.9141" style="stroke:#B38D22;stroke-width:1.0;"/><text fill="#000000" font-family="sans-serif" font-size="14" lengthAdjust="spacing" textLength="169" x="42" y="351.2607">ReadExternalInterfaces()</text><polygon fill="#FFFF44" points="33,359.2109,37,363.2109,33,367.2109,29,363.2109" style="stroke:#B38D22;stroke-width:1.0;"/><text fill="#000000" font-family="sans-serif" font-size="14" lengthAdjust="spacing" textLength="168" x="42" y="367.5576">WriteExternalInterfaces()</text><ellipse cx="33" cy="380.5078" fill="#84BE84" rx="3" ry="3" style="stroke:#038048;stroke-width:1.0;"/><text fill="#000000" font-family="sans-serif" font-size="14" lengthAdjust="spacing" textLength="128" x="42" y="383.8545">TemplateMethod()</text><polygon fill="#FFFF44" points="33,391.8047,37,395.8047,33,399.8047,29,395.8047" style="stroke:#B38D22;stroke-width:1.0;"/><text fill="#000000" font-family="sans-serif" font-size="14" lengthAdjust="spacing" textLength="66" x="42" y="400.1514">MainGUI()</text></g><!--MD5=[36b646c945f5a836f61c707856d30646]
class YAFTAF--><g id="elem_YAFTAF"><rect fill="#FFFFFF" height="48" id="YAFTAF" rx="2.5" ry="2.5" style="stroke:#555555;stroke-width:0.5;" width="84" x="97" y="7"/><rect fill="#808080" height="32" rx="2.5" ry="2.5" style="stroke:#808080;stroke-width:0.5;" width="84" x="97" y="7"/><rect fill="#808080" height="2.5" style="stroke:#808080;stroke-width:0.5;" width="84" x="97" y="36.5"/><rect fill="none" height="48" id="YAFTAF" rx="2.5" ry="2.5" style="stroke:#555555;stroke-width:0.5;" width="84" x="97" y="7"/><ellipse cx="112" cy="23" fill="#ADD1B2" rx="11" ry="11" style="stroke:#181818;stroke-width:1.0;"/><path d="M114.9688,28.6406 Q114.3906,28.9375 113.75,29.0781 Q113.1094,29.2344 112.4063,29.2344 Q109.9063,29.2344 108.5781,27.5938 Q107.2656,25.9375 107.2656,22.8125 Q107.2656,19.6875 108.5781,18.0313 Q109.9063,16.375 112.4063,16.375 Q113.1094,16.375 113.75,16.5313 Q114.4063,16.6875 114.9688,16.9844 L114.9688,19.7031 Q114.3438,19.125 113.75,18.8594 Q113.1563,18.5781 112.5313,18.5781 Q111.1875,18.5781 110.5,19.6563 Q109.8125,20.7188 109.8125,22.8125 Q109.8125,24.9063 110.5,25.9844 Q111.1875,27.0469 112.5313,27.0469 Q113.1563,27.0469 113.75,26.7813 Q114.3438,26.5 114.9688,25.9219 L114.9688,28.6406 Z " fill="#000000"/><text fill="#000000" font-family="sans-serif" font-size="14" lengthAdjust="spacing" textLength="52" x="126" y="27.8467">YAFTAF</text><line style="stroke:#555555;stroke-width:0.5;" x1="98" x2="180" y1="39" y2="39"/><line style="stroke:#555555;stroke-width:0.5;" x1="98" x2="180" y1="47" y2="47"/></g><!--MD5=[131dfa876bc571c892ddb67ee9c95570]
class ITAFFilteredTrace--><g id="elem_ITAFFilteredTrace"><rect fill="#FFFFFF" height="48" id="ITAFFilteredTrace" rx="2.5" ry="2.5" style="stroke:#555555;stroke-width:0.5;" width="151" x="63.5" y="467"/><rect fill="#808080" height="32" rx="2.5" ry="2.5" style="stroke:#808080;stroke-width:0.5;" width="151" x="63.5" y="467"/><rect fill="#808080" height="2.5" style="stroke:#808080;stroke-width:0.5;" width="151" x="63.5" y="496.5"/><rect fill="none" height="48" id="ITAFFilteredTrace" rx="2.5" ry="2.5" style="stroke:#555555;stroke-width:0.5;" width="151" x="63.5" y="467"/><ellipse cx="78.5" cy="483" fill="#ADD1B2" rx="11" ry="11" style="stroke:#181818;stroke-width:1.0;"/><path d="M81.4688,488.6406 Q80.8906,488.9375 80.25,489.0781 Q79.6094,489.2344 78.9063,489.2344 Q76.4063,489.2344 75.0781,487.5938 Q73.7656,485.9375 73.7656,482.8125 Q73.7656,479.6875 75.0781,478.0313 Q76.4063,476.375 78.9063,476.375 Q79.6094,476.375 80.25,476.5313 Q80.9063,476.6875 81.4688,476.9844 L81.4688,479.7031 Q80.8438,479.125 80.25,478.8594 Q79.6563,478.5781 79.0313,478.5781 Q77.6875,478.5781 77,479.6563 Q76.3125,480.7188 76.3125,482.8125 Q76.3125,484.9063 77,485.9844 Q77.6875,487.0469 79.0313,487.0469 Q79.6563,487.0469 80.25,486.7813 Q80.8438,486.5 81.4688,485.9219 L81.4688,488.6406 Z " fill="#000000"/><text fill="#000000" font-family="sans-serif" font-size="14" lengthAdjust="spacing" textLength="119" x="92.5" y="487.8467">ITAFFilteredTrace</text><line style="stroke:#555555;stroke-width:0.5;" x1="64.5" x2="213.5" y1="499" y2="499"/><line style="stroke:#555555;stroke-width:0.5;" x1="64.5" x2="213.5" y1="507" y2="507"/></g><!--MD5=[fb6d470e8abf4e9f511998c233c65d86]
reverse link YAFTAF to YAFFooter.lvlib:YAFFooter--><g id="link_YAFTAF_YAFFooter.lvlib:YAFFooter"><path codeLine="26" d="M139,75.52 C139,87.32 139,100.78 139,114.94 " fill="none" id="YAFTAF-backto-YAFFooter.lvlib:YAFFooter" style="stroke:#181818;stroke-width:1.0;"/><polygon fill="none" points="132,75.12,139,55.12,146,75.12,132,75.12" style="stroke:#181818;stroke-width:1.0;"/></g><!--MD5=[4e95545e6977ce15fb6bc963564d41b1]
reverse link YAFFooter.lvlib:YAFFooter to ITAFFilteredTrace--><g id="link_YAFFooter.lvlib:YAFFooter_ITAFFilteredTrace"><path codeLine="27" d="M139,420.12 C139,438.17 139,454.47 139,466.78 " fill="none" id="YAFFooter.lvlib:YAFFooter-backto-ITAFFilteredTrace" style="stroke:#181818;stroke-width:1.0;"/><polygon fill="#181818" points="139,407.04,135,413.04,139,419.04,143,413.04,139,407.04" style="stroke:#181818;stroke-width:1.0;"/></g><!--MD5=[6fb7f0c9e76a4180ba41f3fb09275298]
@startuml
set namespaceSeparator :
skinparam ClassBackgroundColor #FFFFFF
skinparam ClassBorderColor #555555
skinparam ClassFontColor #000000
skinparam ClassHeaderBackgroundColor #808080

skinparam top to bottom direction
class "YAFFooter.lvlib:YAFFooter" {
{field} -ExternalInterfaces : Cluster
{field} -Local : Cluster
{field} -Persistent : Cluster
{static} {method} -YAFFooter_CastUIEvent()
{static} {method} -YAFFooter_ClassCast()
{static} {method} #YAFFooter_SendUiEvent()
{static} {method} +YAFFooter_TemplateMethod()
{method} #Constructor()
{method} #Destructor()
{method} #WritePersistentConfiguration()
{method} #ReadPersistentConfiguration()
{method} #ReadExternalInterfaces()
{method} #WriteExternalInterfaces()
{method} +TemplateMethod()
{method} #MainGUI()

}
"YAFTAF" <|- - "YAFFooter.lvlib:YAFFooter"
"YAFFooter.lvlib:YAFFooter" *- - "ITAFFilteredTrace"



@enduml

PlantUML version 1.2022.12(Sun Oct 23 18:12:26 GMT 2022)
(GPL source distribution)
Java Runtime: OpenJDK Runtime Environment
JVM: OpenJDK 64-Bit Server VM
Default Encoding: UTF-8
Language: en
Country: US
--></g></svg>