<?xml version="1.0" encoding="UTF-8" standalone="no"?><svg xmlns="http://www.w3.org/2000/svg" xmlns:xlink="http://www.w3.org/1999/xlink" contentStyleType="text/css" height="203px" preserveAspectRatio="none" style="width:216px;height:203px;background:#FFFFFF;" version="1.1" viewBox="0 0 216 203" width="216px" zoomAndPan="magnify"><defs/><g><!--MD5=[600f101a63f5e877d81a226e38956775]
class IPersistentData--><g id="elem_IPersistentData"><rect codeLine="8" fill="#FFFFFF" height="81.5999" id="IPersistentData" rx="2.5" ry="2.5" style="stroke:#555555;stroke-width:0.5;" width="202" x="7" y="115"/><rect fill="#808080" height="32" rx="2.5" ry="2.5" style="stroke:#808080;stroke-width:0.5;" width="202" x="7" y="115"/><rect fill="#808080" height="2.5" style="stroke:#808080;stroke-width:0.5;" width="202" x="7" y="144.5"/><rect codeLine="8" fill="none" height="81.5999" id="IPersistentData" rx="2.5" ry="2.5" style="stroke:#555555;stroke-width:0.5;" width="202" x="7" y="115"/><ellipse cx="55.25" cy="131" fill="#B4A7E5" rx="11" ry="11" style="stroke:#181818;stroke-width:1.0;"/><path d="M57.9219,134.2969 Q58.4688,134.2969 58.75,134.4844 Q59.0313,134.6563 59.0313,135.1563 Q59.0313,136 57.9219,136 L52.7813,136 Q51.6563,136 51.6563,135.1563 Q51.6563,134.6563 51.9375,134.4844 Q52.2344,134.2969 52.7813,134.2969 L54.5,134.2969 L54.5,127.7813 L52.7813,127.7813 Q51.6563,127.7813 51.6563,126.9375 Q51.6563,126.4531 51.9375,126.2813 Q52.2344,126.0938 52.7813,126.0938 L57.9219,126.0938 Q58.4688,126.0938 58.75,126.2813 Q59.0313,126.4531 59.0313,126.9375 Q59.0313,127.7813 57.9219,127.7813 L56.2031,127.7813 L56.2031,134.2969 L57.9219,134.2969 Z " fill="#000000"/><text fill="#000000" font-family="sans-serif" font-size="14" font-style="italic" lengthAdjust="spacing" textLength="97" x="75.75" y="136.6">IPersistentData</text><line style="stroke:#555555;stroke-width:0.5;" x1="8" x2="208" y1="147" y2="147"/><line style="stroke:#555555;stroke-width:0.5;" x1="8" x2="208" y1="155" y2="155"/><ellipse cx="18" cy="166" fill="#84BE84" rx="3" ry="3" style="stroke:#038048;stroke-width:1.0;"/><text fill="#000000" font-family="sans-serif" font-size="14" lengthAdjust="spacing" textLength="176" x="27" y="172.9999">GetPersistentConfiguration()</text><ellipse cx="18" cy="182.7999" fill="#84BE84" rx="3" ry="3" style="stroke:#038048;stroke-width:1.0;"/><text fill="#000000" font-family="sans-serif" font-size="14" lengthAdjust="spacing" textLength="174" x="27" y="189.7999">SetPersistentConfiguration()</text></g><!--MD5=[065ef51c0b83ac26c2e8b4ca504d0938]
class IInterface--><g id="elem_IInterface"><rect codeLine="14" fill="#FFFFFF" height="48" id="IInterface" rx="2.5" ry="2.5" style="stroke:#555555;stroke-width:0.5;" width="92" x="62" y="7"/><rect fill="#808080" height="32" rx="2.5" ry="2.5" style="stroke:#808080;stroke-width:0.5;" width="92" x="62" y="7"/><rect fill="#808080" height="2.5" style="stroke:#808080;stroke-width:0.5;" width="92" x="62" y="36.5"/><rect codeLine="14" fill="none" height="48" id="IInterface" rx="2.5" ry="2.5" style="stroke:#555555;stroke-width:0.5;" width="92" x="62" y="7"/><ellipse cx="77" cy="23" fill="#B4A7E5" rx="11" ry="11" style="stroke:#181818;stroke-width:1.0;"/><path d="M79.6719,26.2969 Q80.2188,26.2969 80.5,26.4844 Q80.7813,26.6563 80.7813,27.1563 Q80.7813,28 79.6719,28 L74.5313,28 Q73.4063,28 73.4063,27.1563 Q73.4063,26.6563 73.6875,26.4844 Q73.9844,26.2969 74.5313,26.2969 L76.25,26.2969 L76.25,19.7813 L74.5313,19.7813 Q73.4063,19.7813 73.4063,18.9375 Q73.4063,18.4531 73.6875,18.2813 Q73.9844,18.0938 74.5313,18.0938 L79.6719,18.0938 Q80.2188,18.0938 80.5,18.2813 Q80.7813,18.4531 80.7813,18.9375 Q80.7813,19.7813 79.6719,19.7813 L77.9531,19.7813 L77.9531,26.2969 L79.6719,26.2969 Z " fill="#000000"/><text fill="#000000" font-family="sans-serif" font-size="14" font-style="italic" lengthAdjust="spacing" textLength="60" x="91" y="28.6">IInterface</text><line style="stroke:#555555;stroke-width:0.5;" x1="63" x2="153" y1="39" y2="39"/><line style="stroke:#555555;stroke-width:0.5;" x1="63" x2="153" y1="47" y2="47"/></g><!--MD5=[b12b931da950b35239ad4964ced1910e]
reverse link IInterface to IPersistentData--><g id="link_IInterface_IPersistentData"><path codeLine="13" d="M108,75.6 C108,88.28 108,102.06 108,114.53 " fill="none" id="IInterface-backto-IPersistentData" style="stroke:#181818;stroke-width:1.0;stroke-dasharray:7.0,7.0;"/><polygon fill="none" points="101,75.14,108,55.14,115,75.14,101,75.14" style="stroke:#181818;stroke-width:1.0;"/></g><!--MD5=[ecf4bd458c5ff24f39dc71338f7b06ff]
@startuml
set namespaceSeparator :
skinparam ClassBackgroundColor #FFFFFF
skinparam ClassBorderColor #555555
skinparam ClassFontColor #000000
skinparam ClassHeaderBackgroundColor #808080

skinparam top to bottom direction
interface "IPersistentData" {
{method} +GetPersistentConfiguration()
{method} +SetPersistentConfiguration()

}
"IInterface" <|.. "IPersistentData"
interface "IInterface" {}




@enduml

PlantUML version 1.2022.5(Sat Apr 30 10:55:52 GMT 2022)
(GPL source distribution)
Java Runtime: OpenJDK Runtime Environment
JVM: OpenJDK 64-Bit Server VM
Default Encoding: UTF-8
Language: en
Country: US
--></g></svg>