<?xml version="1.0" encoding="UTF-8" standalone="no"?><svg xmlns="http://www.w3.org/2000/svg" xmlns:xlink="http://www.w3.org/1999/xlink" contentStyleType="text/css" height="264px" preserveAspectRatio="none" style="width:284px;height:264px;background:#FFFFFF;" version="1.1" viewBox="0 0 284 264" width="284px" zoomAndPan="magnify"><defs/><g><!--MD5=[6be743dc3575b5259ff4514d23aff424]
class ButtonCollection--><g id="elem_ButtonCollection"><rect codeLine="8" fill="#FFFFFF" height="243.5625" id="ButtonCollection" rx="2.5" ry="2.5" style="stroke:#555555;stroke-width:0.5;" width="263" x="7" y="7"/><rect fill="#808080" height="32" rx="2.5" ry="2.5" style="stroke:#808080;stroke-width:0.5;" width="263" x="7" y="7"/><rect fill="#808080" height="2.5" style="stroke:#808080;stroke-width:0.5;" width="263" x="7" y="36.5"/><rect codeLine="8" fill="none" height="243.5625" id="ButtonCollection" rx="2.5" ry="2.5" style="stroke:#555555;stroke-width:0.5;" width="263" x="7" y="7"/><ellipse cx="76.75" cy="23" fill="#ADD1B2" rx="11" ry="11" style="stroke:#181818;stroke-width:1.0;"/><path d="M79.7188,28.6406 Q79.1406,28.9375 78.5,29.0781 Q77.8594,29.2344 77.1563,29.2344 Q74.6563,29.2344 73.3281,27.5938 Q72.0156,25.9375 72.0156,22.8125 Q72.0156,19.6875 73.3281,18.0313 Q74.6563,16.375 77.1563,16.375 Q77.8594,16.375 78.5,16.5313 Q79.1563,16.6875 79.7188,16.9844 L79.7188,19.7031 Q79.0938,19.125 78.5,18.8594 Q77.9063,18.5781 77.2813,18.5781 Q75.9375,18.5781 75.25,19.6563 Q74.5625,20.7188 74.5625,22.8125 Q74.5625,24.9063 75.25,25.9844 Q75.9375,27.0469 77.2813,27.0469 Q77.9063,27.0469 78.5,26.7813 Q79.0938,26.5 79.7188,25.9219 L79.7188,28.6406 Z " fill="#000000"/><text fill="#000000" font-family="sans-serif" font-size="14" lengthAdjust="spacing" textLength="115" x="97.25" y="27.8467">ButtonCollection</text><line style="stroke:#555555;stroke-width:0.5;" x1="8" x2="269" y1="39" y2="39"/><rect fill="none" height="6" style="stroke:#C82930;stroke-width:1.0;" width="6" x="15" y="49.6484"/><text fill="#000000" font-family="sans-serif" font-size="14" lengthAdjust="spacing" textLength="237" x="27" y="55.9951">ButtonDefinitions : Array of Cluster</text><rect fill="none" height="6" style="stroke:#C82930;stroke-width:1.0;" width="6" x="15" y="65.9453"/><text fill="#000000" font-family="sans-serif" font-size="14" lengthAdjust="spacing" textLength="117" x="27" y="72.292">Buttons : Cluster</text><rect fill="none" height="6" style="stroke:#C82930;stroke-width:1.0;" width="6" x="15" y="82.2422"/><text fill="#000000" font-family="sans-serif" font-size="14" lengthAdjust="spacing" textLength="103" x="27" y="88.5889">Active : Cluster</text><rect fill="none" height="6" style="stroke:#C82930;stroke-width:1.0;" width="6" x="15" y="98.5391"/><text fill="#000000" font-family="sans-serif" font-size="14" lengthAdjust="spacing" textLength="112" x="27" y="104.8857">ActiveIndex : I32</text><line style="stroke:#555555;stroke-width:0.5;" x1="8" x2="269" y1="112.1875" y2="112.1875"/><ellipse cx="18" cy="125.8359" fill="#84BE84" rx="3" ry="3" style="stroke:#038048;stroke-width:1.0;"/><text fill="#000000" font-family="sans-serif" font-size="14" lengthAdjust="spacing" text-decoration="underline" textLength="43" x="27" y="129.1826">Load()</text><ellipse cx="18" cy="142.1328" fill="#84BE84" rx="3" ry="3" style="stroke:#038048;stroke-width:1.0;"/><text fill="#000000" font-family="sans-serif" font-size="14" lengthAdjust="spacing" text-decoration="underline" textLength="117" x="27" y="145.4795">ManualWriteFile()</text><ellipse cx="18" cy="158.4297" fill="#84BE84" rx="3" ry="3" style="stroke:#038048;stroke-width:1.0;"/><text fill="#000000" font-family="sans-serif" font-size="14" lengthAdjust="spacing" text-decoration="underline" textLength="43" x="27" y="161.7764">Save()</text><ellipse cx="18" cy="174.7266" fill="#84BE84" rx="3" ry="3" style="stroke:#038048;stroke-width:1.0;"/><text fill="#000000" font-family="sans-serif" font-size="14" lengthAdjust="spacing" textLength="166" x="27" y="178.0732">ReadButtonDefinitions()</text><ellipse cx="18" cy="191.0234" fill="#84BE84" rx="3" ry="3" style="stroke:#038048;stroke-width:1.0;"/><text fill="#000000" font-family="sans-serif" font-size="14" lengthAdjust="spacing" textLength="68" x="27" y="194.3701">CleanUp()</text><ellipse cx="18" cy="207.3203" fill="#84BE84" rx="3" ry="3" style="stroke:#038048;stroke-width:1.0;"/><text fill="#000000" font-family="sans-serif" font-size="14" lengthAdjust="spacing" textLength="138" x="27" y="210.667">SetButtonControls()</text><ellipse cx="18" cy="223.6172" fill="#84BE84" rx="3" ry="3" style="stroke:#038048;stroke-width:1.0;"/><text fill="#000000" font-family="sans-serif" font-size="14" lengthAdjust="spacing" textLength="43" x="27" y="226.9639">SetN()</text><ellipse cx="18" cy="239.9141" fill="#84BE84" rx="3" ry="3" style="stroke:#038048;stroke-width:1.0;"/><text fill="#000000" font-family="sans-serif" font-size="14" lengthAdjust="spacing" textLength="96" x="27" y="243.2607">PressButton()</text></g><!--MD5=[24d3b1ea60f0ae5db4a9a1102110ee2a]
@startuml
set namespaceSeparator :
skinparam ClassBackgroundColor #FFFFFF
skinparam ClassBorderColor #555555
skinparam ClassFontColor #000000
skinparam ClassHeaderBackgroundColor #808080

skinparam top to bottom direction
class "ButtonCollection" {
{field} -ButtonDefinitions : Array of Cluster
{field} -Buttons : Cluster
{field} -Active : Cluster
{field} -ActiveIndex : I32
{static} {method} +Load()
{static} {method} +ManualWriteFile()
{static} {method} +Save()
{method} +ReadButtonDefinitions()
{method} +CleanUp()
{method} +SetButtonControls()
{method} +SetN()
{method} +PressButton()

}



@enduml

PlantUML version 1.2022.12(Sun Oct 23 18:12:26 GMT 2022)
(GPL source distribution)
Java Runtime: OpenJDK Runtime Environment
JVM: OpenJDK 64-Bit Server VM
Default Encoding: UTF-8
Language: en
Country: US
--></g></svg>