<?xml version="1.0" encoding="UTF-8" standalone="no"?><svg xmlns="http://www.w3.org/2000/svg" xmlns:xlink="http://www.w3.org/1999/xlink" contentStyleType="text/css" height="476px" preserveAspectRatio="none" style="width:274px;height:476px;background:#FFFFFF;" version="1.1" viewBox="0 0 274 476" width="274px" zoomAndPan="magnify"><defs/><g><!--MD5=[0b4e4b4980470ea387cc45de9bd14b5b]
class Application--><g id="elem_Application"><rect codeLine="8" fill="#FFFFFF" height="455.4219" id="Application" rx="2.5" ry="2.5" style="stroke:#555555;stroke-width:0.5;" width="253" x="7" y="7"/><rect fill="#808080" height="32" rx="2.5" ry="2.5" style="stroke:#808080;stroke-width:0.5;" width="253" x="7" y="7"/><rect fill="#808080" height="2.5" style="stroke:#808080;stroke-width:0.5;" width="253" x="7" y="36.5"/><rect codeLine="8" fill="none" height="455.4219" id="Application" rx="2.5" ry="2.5" style="stroke:#555555;stroke-width:0.5;" width="253" x="7" y="7"/><ellipse cx="91.75" cy="23" fill="#ADD1B2" rx="11" ry="11" style="stroke:#181818;stroke-width:1.0;"/><path d="M94.7188,28.6406 Q94.1406,28.9375 93.5,29.0781 Q92.8594,29.2344 92.1563,29.2344 Q89.6563,29.2344 88.3281,27.5938 Q87.0156,25.9375 87.0156,22.8125 Q87.0156,19.6875 88.3281,18.0313 Q89.6563,16.375 92.1563,16.375 Q92.8594,16.375 93.5,16.5313 Q94.1563,16.6875 94.7188,16.9844 L94.7188,19.7031 Q94.0938,19.125 93.5,18.8594 Q92.9063,18.5781 92.2813,18.5781 Q90.9375,18.5781 90.25,19.6563 Q89.5625,20.7188 89.5625,22.8125 Q89.5625,24.9063 90.25,25.9844 Q90.9375,27.0469 92.2813,27.0469 Q92.9063,27.0469 93.5,26.7813 Q94.0938,26.5 94.7188,25.9219 L94.7188,28.6406 Z " fill="#000000"/><text fill="#000000" font-family="sans-serif" font-size="14" lengthAdjust="spacing" textLength="75" x="112.25" y="27.8467">Application</text><line style="stroke:#555555;stroke-width:0.5;" x1="8" x2="259" y1="39" y2="39"/><rect fill="none" height="6" style="stroke:#C82930;stroke-width:1.0;" width="6" x="15" y="49.6484"/><text fill="#000000" font-family="sans-serif" font-size="14" lengthAdjust="spacing" textLength="64" x="27" y="55.9951">Ref : U32</text><line style="stroke:#555555;stroke-width:0.5;" x1="8" x2="259" y1="63.2969" y2="63.2969"/><polygon fill="#FFFF44" points="18,71.9453,22,75.9453,18,79.9453,14,75.9453" style="stroke:#B38D22;stroke-width:1.0;"/><text fill="#000000" font-family="sans-serif" font-size="14" lengthAdjust="spacing" text-decoration="underline" textLength="182" x="27" y="80.292">GetApplicationReference()</text><polygon fill="#FFFF44" points="18,88.2422,22,92.2422,18,96.2422,14,92.2422" style="stroke:#B38D22;stroke-width:1.0;"/><text fill="#000000" font-family="sans-serif" font-size="14" lengthAdjust="spacing" text-decoration="underline" textLength="176" x="27" y="96.5889">Application_GetInstance()</text><polygon fill="#FFFF44" points="18,104.5391,22,108.5391,18,112.5391,14,108.5391" style="stroke:#B38D22;stroke-width:1.0;"/><text fill="#000000" font-family="sans-serif" font-size="14" lengthAdjust="spacing" text-decoration="underline" textLength="175" x="27" y="112.8857">RouteExternalInterfaces()</text><polygon fill="#FFFF44" points="18,120.8359,22,124.8359,18,128.8359,14,124.8359" style="stroke:#B38D22;stroke-width:1.0;"/><text fill="#000000" font-family="sans-serif" font-size="14" lengthAdjust="spacing" text-decoration="underline" textLength="122" x="27" y="129.1826">Application_New()</text><polygon fill="#FFFF44" points="18,137.1328,22,141.1328,18,145.1328,14,141.1328" style="stroke:#B38D22;stroke-width:1.0;"/><text fill="#000000" font-family="sans-serif" font-size="14" lengthAdjust="spacing" text-decoration="underline" textLength="184" x="27" y="145.4795">Application_GetAttributes()</text><ellipse cx="18" cy="158.4297" fill="#84BE84" rx="3" ry="3" style="stroke:#038048;stroke-width:1.0;"/><text fill="#000000" font-family="sans-serif" font-size="14" lengthAdjust="spacing" text-decoration="underline" textLength="112" x="27" y="161.7764">Application_Init()</text><ellipse cx="18" cy="174.7266" fill="#84BE84" rx="3" ry="3" style="stroke:#038048;stroke-width:1.0;"/><text fill="#000000" font-family="sans-serif" font-size="14" lengthAdjust="spacing" text-decoration="underline" textLength="150" x="27" y="178.0732">Application_CleanUp()</text><ellipse cx="18" cy="191.0234" fill="#84BE84" rx="3" ry="3" style="stroke:#038048;stroke-width:1.0;"/><text fill="#000000" font-family="sans-serif" font-size="14" lengthAdjust="spacing" text-decoration="underline" textLength="82" x="27" y="194.3701">AddObject()</text><ellipse cx="18" cy="207.3203" fill="#84BE84" rx="3" ry="3" style="stroke:#038048;stroke-width:1.0;"/><text fill="#000000" font-family="sans-serif" font-size="14" lengthAdjust="spacing" text-decoration="underline" textLength="185" x="27" y="210.667">SetInterfaceConfiguration()</text><ellipse cx="18" cy="223.6172" fill="#84BE84" rx="3" ry="3" style="stroke:#038048;stroke-width:1.0;"/><text fill="#000000" font-family="sans-serif" font-size="14" lengthAdjust="spacing" text-decoration="underline" textLength="101" x="27" y="226.9639">GetBasePath()</text><ellipse cx="18" cy="239.9141" fill="#84BE84" rx="3" ry="3" style="stroke:#038048;stroke-width:1.0;"/><text fill="#000000" font-family="sans-serif" font-size="14" lengthAdjust="spacing" text-decoration="underline" textLength="170" x="27" y="243.2607">GetObjectFromMemory()</text><ellipse cx="18" cy="256.2109" fill="#84BE84" rx="3" ry="3" style="stroke:#038048;stroke-width:1.0;"/><text fill="#000000" font-family="sans-serif" font-size="14" lengthAdjust="spacing" text-decoration="underline" textLength="101" x="27" y="259.5576">CreateObject()</text><ellipse cx="18" cy="272.5078" fill="#84BE84" rx="3" ry="3" style="stroke:#038048;stroke-width:1.0;"/><text fill="#000000" font-family="sans-serif" font-size="14" lengthAdjust="spacing" text-decoration="underline" textLength="160" x="27" y="275.8545">LoadAllPersistentData()</text><ellipse cx="18" cy="288.8047" fill="#84BE84" rx="3" ry="3" style="stroke:#038048;stroke-width:1.0;"/><text fill="#000000" font-family="sans-serif" font-size="14" lengthAdjust="spacing" text-decoration="underline" textLength="152" x="27" y="292.1514">GetAllObjectsOfType()</text><ellipse cx="18" cy="305.1016" fill="#84BE84" rx="3" ry="3" style="stroke:#038048;stroke-width:1.0;"/><text fill="#000000" font-family="sans-serif" font-size="14" lengthAdjust="spacing" text-decoration="underline" textLength="193" x="27" y="308.4482">GetConfigurationBasePath()</text><ellipse cx="18" cy="321.3984" fill="#84BE84" rx="3" ry="3" style="stroke:#038048;stroke-width:1.0;"/><text fill="#000000" font-family="sans-serif" font-size="14" lengthAdjust="spacing" text-decoration="underline" textLength="133" x="27" y="324.7451">GetExistingObject()</text><ellipse cx="18" cy="337.6953" fill="#84BE84" rx="3" ry="3" style="stroke:#038048;stroke-width:1.0;"/><text fill="#000000" font-family="sans-serif" font-size="14" lengthAdjust="spacing" text-decoration="underline" textLength="79" x="27" y="341.042">DestroyAll()</text><ellipse cx="18" cy="353.9922" fill="#84BE84" rx="3" ry="3" style="stroke:#038048;stroke-width:1.0;"/><text fill="#000000" font-family="sans-serif" font-size="14" lengthAdjust="spacing" text-decoration="underline" textLength="115" x="27" y="357.3389">PreloadObjects()</text><ellipse cx="18" cy="370.2891" fill="#84BE84" rx="3" ry="3" style="stroke:#038048;stroke-width:1.0;"/><text fill="#000000" font-family="sans-serif" font-size="14" lengthAdjust="spacing" text-decoration="underline" textLength="109" x="27" y="373.6357">CreateObjects()</text><ellipse cx="18" cy="386.5859" fill="#84BE84" rx="3" ry="3" style="stroke:#038048;stroke-width:1.0;"/><text fill="#000000" font-family="sans-serif" font-size="14" lengthAdjust="spacing" text-decoration="underline" textLength="156" x="27" y="389.9326">SetExternalInterfaces()</text><ellipse cx="18" cy="402.8828" fill="#84BE84" rx="3" ry="3" style="stroke:#038048;stroke-width:1.0;"/><text fill="#000000" font-family="sans-serif" font-size="14" lengthAdjust="spacing" text-decoration="underline" textLength="160" x="27" y="406.2295">SaveAllPersistentData()</text><ellipse cx="18" cy="419.1797" fill="#84BE84" rx="3" ry="3" style="stroke:#038048;stroke-width:1.0;"/><text fill="#000000" font-family="sans-serif" font-size="14" lengthAdjust="spacing" text-decoration="underline" textLength="130" x="27" y="422.5264">GetClassLocation()</text><polygon fill="#FFFF44" points="18,430.4766,22,434.4766,18,438.4766,14,434.4766" style="stroke:#B38D22;stroke-width:1.0;"/><text fill="#000000" font-family="sans-serif" font-size="14" lengthAdjust="spacing" textLength="227" x="27" y="438.8232">Do_SetApplicationConfiguration()</text><polygon fill="#FFFF44" points="18,446.7734,22,450.7734,18,454.7734,14,450.7734" style="stroke:#B38D22;stroke-width:1.0;"/><text fill="#000000" font-family="sans-serif" font-size="14" lengthAdjust="spacing" textLength="199" x="27" y="455.1201">Do_GetObjectConfiguration()</text></g><!--MD5=[4763aa55fb543841cda81e67f8f7b97f]
@startuml
set namespaceSeparator :
skinparam ClassBackgroundColor #FFFFFF
skinparam ClassBorderColor #555555
skinparam ClassFontColor #000000
skinparam ClassHeaderBackgroundColor #808080

skinparam top to bottom direction
class "Application" {
{field} -Ref : U32
{static} {method} #GetApplicationReference()
{static} {method} #Application_GetInstance()
{static} {method} #RouteExternalInterfaces()
{static} {method} #Application_New()
{static} {method} #Application_GetAttributes()
{static} {method} +Application_Init()
{static} {method} +Application_CleanUp()
{static} {method} +AddObject()
{static} {method} +SetInterfaceConfiguration()
{static} {method} +GetBasePath()
{static} {method} +GetObjectFromMemory()
{static} {method} +CreateObject()
{static} {method} +LoadAllPersistentData()
{static} {method} +GetAllObjectsOfType()
{static} {method} +GetConfigurationBasePath()
{static} {method} +GetExistingObject()
{static} {method} +DestroyAll()
{static} {method} +PreloadObjects()
{static} {method} +CreateObjects()
{static} {method} +SetExternalInterfaces()
{static} {method} +SaveAllPersistentData()
{static} {method} +GetClassLocation()
{method} #Do_SetApplicationConfiguration()
{method} #Do_GetObjectConfiguration()

}



@enduml

PlantUML version 1.2022.12(Sun Oct 23 18:12:26 GMT 2022)
(GPL source distribution)
Java Runtime: OpenJDK Runtime Environment
JVM: OpenJDK 64-Bit Server VM
Default Encoding: UTF-8
Language: en
Country: US
--></g></svg>