<?xml version="1.0" encoding="UTF-8" standalone="no"?><svg xmlns="http://www.w3.org/2000/svg" xmlns:xlink="http://www.w3.org/1999/xlink" contentStyleType="text/css" height="252px" preserveAspectRatio="none" style="width:493px;height:252px;background:#FFFFFF;" version="1.1" viewBox="0 0 493 252" width="493px" zoomAndPan="magnify"><defs/><g><!--MD5=[dcbc9abe882e85abecdd550587c97beb]
class ImaginaryCar--><g id="elem_ImaginaryCar"><rect codeLine="2" fill="#F1F1F1" height="105.1563" id="ImaginaryCar" rx="2.5" ry="2.5" style="stroke:#181818;stroke-width:0.5;" width="336" x="29.94" y="7"/><ellipse cx="149.69" cy="27.1328" fill="#ADD1B2" rx="11" ry="11" style="stroke:#181818;stroke-width:1.0;"/><path d="M152.6588,32.7734 Q152.0806,33.0703 151.44,33.2109 Q150.7994,33.3672 150.0963,33.3672 Q147.5963,33.3672 146.2681,31.7266 Q144.9556,30.0703 144.9556,26.9453 Q144.9556,23.8203 146.2681,22.1641 Q147.5963,20.5078 150.0963,20.5078 Q150.7994,20.5078 151.44,20.6641 Q152.0963,20.8203 152.6588,21.1172 L152.6588,23.8359 Q152.0338,23.2578 151.44,22.9922 Q150.8463,22.7109 150.2213,22.7109 Q148.8775,22.7109 148.19,23.7891 Q147.5025,24.8516 147.5025,26.9453 Q147.5025,29.0391 148.19,30.1172 Q148.8775,31.1797 150.2213,31.1797 Q150.8463,31.1797 151.44,30.9141 Q152.0338,30.6328 152.6588,30.0547 L152.6588,32.7734 Z " fill="#000000"/><text fill="#000000" font-family="sans-serif" font-size="12" font-style="italic" lengthAdjust="spacing" textLength="82" x="173.19" y="23.1387">«Car.lvclass »</text><text fill="#000000" font-family="sans-serif" font-size="14" lengthAdjust="spacing" textLength="88" x="170.19" y="38.9639">ImaginaryCar</text><line style="stroke:#181818;stroke-width:0.5;" x1="30.94" x2="364.94" y1="47.2656" y2="47.2656"/><line style="stroke:#181818;stroke-width:0.5;" x1="30.94" x2="364.94" y1="55.2656" y2="55.2656"/><text fill="#000000" font-family="sans-serif" font-size="14" lengthAdjust="spacing" textLength="260" x="35.94" y="72.2607">(IBreakSystem.lvclass) Break: MyFeed</text><text fill="#000000" font-family="sans-serif" font-size="14" lengthAdjust="spacing" textLength="252" x="35.94" y="88.5576">(ISpeedSystem.lvclass) Gas: MyFeed</text><text fill="#000000" font-family="sans-serif" font-size="14" lengthAdjust="spacing" textLength="324" x="35.94" y="104.8545">(ISteeringSystem.lvclass) Steering: ThatJoystick</text></g><!--MD5=[856c6ead59128aee14aadc7140e5acb3]
class MyFeed--><g id="elem_MyFeed"><rect codeLine="3" fill="#F1F1F1" height="56.2656" id="MyFeed" rx="2.5" ry="2.5" style="stroke:#181818;stroke-width:0.5;" width="154" x="32.94" y="189"/><ellipse cx="47.94" cy="209.1328" fill="#ADD1B2" rx="11" ry="11" style="stroke:#181818;stroke-width:1.0;"/><path d="M50.9088,214.7734 Q50.3306,215.0703 49.69,215.2109 Q49.0494,215.3672 48.3463,215.3672 Q45.8463,215.3672 44.5181,213.7266 Q43.2056,212.0703 43.2056,208.9453 Q43.2056,205.8203 44.5181,204.1641 Q45.8463,202.5078 48.3463,202.5078 Q49.0494,202.5078 49.69,202.6641 Q50.3463,202.8203 50.9088,203.1172 L50.9088,205.8359 Q50.2838,205.2578 49.69,204.9922 Q49.0963,204.7109 48.4713,204.7109 Q47.1275,204.7109 46.44,205.7891 Q45.7525,206.8516 45.7525,208.9453 Q45.7525,211.0391 46.44,212.1172 Q47.1275,213.1797 48.4713,213.1797 Q49.0963,213.1797 49.69,212.9141 Q50.2838,212.6328 50.9088,212.0547 L50.9088,214.7734 Z " fill="#000000"/><text fill="#000000" font-family="sans-serif" font-size="12" font-style="italic" lengthAdjust="spacing" textLength="126" x="59.94" y="205.1387">«UsingFeed.lvclass »</text><text fill="#000000" font-family="sans-serif" font-size="14" lengthAdjust="spacing" textLength="54" x="95.94" y="220.9639">MyFeed</text><line style="stroke:#181818;stroke-width:0.5;" x1="33.94" x2="185.94" y1="229.2656" y2="229.2656"/><line style="stroke:#181818;stroke-width:0.5;" x1="33.94" x2="185.94" y1="237.2656" y2="237.2656"/></g><!--MD5=[7e717e73ce501b6d60b5e76221216092]
class ThatJoystick--><g id="elem_ThatJoystick"><rect codeLine="4" fill="#F1F1F1" height="56.2656" id="ThatJoystick" rx="2.5" ry="2.5" style="stroke:#181818;stroke-width:0.5;" width="135" x="311.44" y="189"/><ellipse cx="326.44" cy="209.1328" fill="#ADD1B2" rx="11" ry="11" style="stroke:#181818;stroke-width:1.0;"/><path d="M329.4088,214.7734 Q328.8306,215.0703 328.19,215.2109 Q327.5494,215.3672 326.8463,215.3672 Q324.3463,215.3672 323.0181,213.7266 Q321.7056,212.0703 321.7056,208.9453 Q321.7056,205.8203 323.0181,204.1641 Q324.3463,202.5078 326.8463,202.5078 Q327.5494,202.5078 328.19,202.6641 Q328.8463,202.8203 329.4088,203.1172 L329.4088,205.8359 Q328.7838,205.2578 328.19,204.9922 Q327.5963,204.7109 326.9713,204.7109 Q325.6275,204.7109 324.94,205.7891 Q324.2525,206.8516 324.2525,208.9453 Q324.2525,211.0391 324.94,212.1172 Q325.6275,213.1797 326.9713,213.1797 Q327.5963,213.1797 328.19,212.9141 Q328.7838,212.6328 329.4088,212.0547 L329.4088,214.7734 Z " fill="#000000"/><text fill="#000000" font-family="sans-serif" font-size="12" font-style="italic" lengthAdjust="spacing" textLength="107" x="338.44" y="205.1387">«joystick.lvclass »</text><text fill="#000000" font-family="sans-serif" font-size="14" lengthAdjust="spacing" textLength="82" x="350.94" y="220.9639">ThatJoystick</text><line style="stroke:#181818;stroke-width:0.5;" x1="312.44" x2="445.44" y1="229.2656" y2="229.2656"/><line style="stroke:#181818;stroke-width:0.5;" x1="312.44" x2="445.44" y1="237.2656" y2="237.2656"/></g><!--MD5=[1b06ef959c1bf840a76807f142c18747]
reverse link ImaginaryCar to MyFeed--><g id="link_ImaginaryCar_MyFeed"><path codeLine="5" d="M35.49,120.88 C28.87,127.23 22.94,134.25 17.94,142 C6,160.52 20.31,176.53 40.93,188.88 " fill="none" id="ImaginaryCar-backto-MyFeed" style="stroke:#181818;stroke-width:1.0;"/><polygon fill="none" points="45.64,112.02,38.4888,112.9474,36.5944,119.9052,43.7456,118.9778,45.64,112.02" style="stroke:#181818;stroke-width:1.0;"/><text fill="#000000" font-family="sans-serif" font-size="13" lengthAdjust="spacing" textLength="135" x="18.94" y="155.0669">IBreakSystem.lvclass</text></g><!--MD5=[1b06ef959c1bf840a76807f142c18747]
reverse link ImaginaryCar to MyFeed--><g id="link_ImaginaryCar_MyFeed"><path codeLine="6" d="M176.26,124.38 C171.24,136.23 165.44,148.25 158.94,159 C152.67,169.39 144.48,179.75 136.61,188.74 " fill="none" id="ImaginaryCar-backto-MyFeed-1" style="stroke:#181818;stroke-width:1.0;"/><polygon fill="none" points="181.21,112.15,175.2519,116.2122,176.7101,123.2743,182.6682,119.2121,181.21,112.15" style="stroke:#181818;stroke-width:1.0;"/><text fill="#000000" font-family="sans-serif" font-size="13" lengthAdjust="spacing" textLength="139" x="168.94" y="155.0669">ISpeedSystem.lvclass</text></g><!--MD5=[f9d89c72c80198a8dc12bc1d3907a03b]
reverse link ImaginaryCar to ThatJoystick--><g id="link_ImaginaryCar_ThatJoystick"><path codeLine="7" d="M290.39,120.05 C299.64,127.1 308.66,134.48 316.94,142 C332.46,156.08 347.6,174.05 359.04,188.76 " fill="none" id="ImaginaryCar-backto-ThatJoystick" style="stroke:#181818;stroke-width:1.0;"/><polygon fill="none" points="279.89,112.23,282.3169,119.0205,289.5184,119.392,287.0915,112.6015,279.89,112.23" style="stroke:#181818;stroke-width:1.0;"/><text fill="#000000" font-family="sans-serif" font-size="13" lengthAdjust="spacing" textLength="152" x="333.94" y="155.0669">ISteeringSystem.lvclass</text></g><!--MD5=[d9b1fe41a7b3f649ec2b1443e5ad0d4b]
@startuml
set namespaceSeparator :
class ImaginaryCar << Car.lvclass  >>
class MyFeed << UsingFeed.lvclass  >>
class ThatJoystick << joystick.lvclass  >>
ImaginaryCar o- - MyFeed : IBreakSystem.lvclass
ImaginaryCar o- - MyFeed : ISpeedSystem.lvclass
ImaginaryCar o- - ThatJoystick : ISteeringSystem.lvclass
ImaginaryCar : (IBreakSystem.lvclass) Break: MyFeed
ImaginaryCar : (ISpeedSystem.lvclass) Gas: MyFeed
ImaginaryCar : (ISteeringSystem.lvclass) Steering: ThatJoystick
@enduml

PlantUML version 1.2022.12(Sun Oct 23 18:12:26 GMT 2022)
(GPL source distribution)
Java Runtime: OpenJDK Runtime Environment
JVM: OpenJDK 64-Bit Server VM
Default Encoding: UTF-8
Language: en
Country: US
--></g></svg>