<?xml version="1.0" encoding="UTF-8" standalone="no"?><svg xmlns="http://www.w3.org/2000/svg" xmlns:xlink="http://www.w3.org/1999/xlink" contentStyleType="text/css" height="418px" preserveAspectRatio="none" style="width:636px;height:418px;background:#FFFFFF;" version="1.1" viewBox="0 0 636 418" width="636px" zoomAndPan="magnify"><defs/><g><ellipse cx="318" cy="20" fill="#222222" rx="10" ry="10" style="stroke:#222222;stroke-width:1.0;"/><rect fill="#F1F1F1" height="33.9688" rx="12.5" ry="12.5" style="stroke:#181818;stroke-width:0.5;" width="353" x="141.5" y="50"/><text fill="#000000" font-family="sans-serif" font-size="12" lengthAdjust="spacing" textLength="329" x="155.5" y="71.1387">Detect all lvclasses in memory and the project folder</text><rect fill="#F1F1F1" height="33.9688" rx="12.5" ry="12.5" style="stroke:#181818;stroke-width:0.5;" width="277" x="179.5" y="103.9688"/><text fill="#000000" font-family="sans-serif" font-size="12" lengthAdjust="spacing" textLength="253" x="193.5" y="125.1074">Read the Json InterfaceConfiguration file</text><rect fill="#F1F1F1" height="33.9688" rx="12.5" ry="12.5" style="stroke:#181818;stroke-width:0.5;" width="405" x="115.5" y="157.9375"/><text fill="#000000" font-family="sans-serif" font-size="12" lengthAdjust="spacing" textLength="381" x="129.5" y="179.0762">Load all classes from the InterfaceConfiguration into memory</text><rect fill="#F1F1F1" height="33.9688" rx="12.5" ry="12.5" style="stroke:#181818;stroke-width:0.5;" width="420" x="108" y="211.9063"/><text fill="#000000" font-family="sans-serif" font-size="12" lengthAdjust="spacing" textLength="396" x="122" y="233.0449">Create the classes that adhere to the ICreateDestroy interface</text><rect fill="#F1F1F1" height="33.9688" rx="12.5" ry="12.5" style="stroke:#181818;stroke-width:0.5;" width="431" x="102.5" y="265.875"/><text fill="#000000" font-family="sans-serif" font-size="12" lengthAdjust="spacing" textLength="407" x="116.5" y="287.0137">Set the class names as defined by the InterfaceConfiguration file</text><rect fill="#F1F1F1" height="33.9688" rx="12.5" ry="12.5" style="stroke:#181818;stroke-width:0.5;" width="614" x="11" y="319.8438"/><text fill="#000000" font-family="sans-serif" font-size="12" lengthAdjust="spacing" textLength="590" x="25" y="340.9824">Set the External Interfaces of each of the classes as defined by the InterfaceConfiguration file</text><rect fill="#F1F1F1" height="33.9688" rx="12.5" ry="12.5" style="stroke:#181818;stroke-width:0.5;" width="223" x="206.5" y="373.8125"/><text fill="#000000" font-family="sans-serif" font-size="12" lengthAdjust="spacing" textLength="199" x="220.5" y="394.9512">Start the main application class</text><line style="stroke:#181818;stroke-width:1.0;" x1="318" x2="318" y1="30" y2="50"/><polygon fill="#181818" points="314,40,318,50,322,40,318,44" style="stroke:#181818;stroke-width:1.0;"/><line style="stroke:#181818;stroke-width:1.0;" x1="318" x2="318" y1="83.9688" y2="103.9688"/><polygon fill="#181818" points="314,93.9688,318,103.9688,322,93.9688,318,97.9688" style="stroke:#181818;stroke-width:1.0;"/><line style="stroke:#181818;stroke-width:1.0;" x1="318" x2="318" y1="137.9375" y2="157.9375"/><polygon fill="#181818" points="314,147.9375,318,157.9375,322,147.9375,318,151.9375" style="stroke:#181818;stroke-width:1.0;"/><line style="stroke:#181818;stroke-width:1.0;" x1="318" x2="318" y1="191.9063" y2="211.9063"/><polygon fill="#181818" points="314,201.9063,318,211.9063,322,201.9063,318,205.9063" style="stroke:#181818;stroke-width:1.0;"/><line style="stroke:#181818;stroke-width:1.0;" x1="318" x2="318" y1="245.875" y2="265.875"/><polygon fill="#181818" points="314,255.875,318,265.875,322,255.875,318,259.875" style="stroke:#181818;stroke-width:1.0;"/><line style="stroke:#181818;stroke-width:1.0;" x1="318" x2="318" y1="299.8438" y2="319.8438"/><polygon fill="#181818" points="314,309.8438,318,319.8438,322,309.8438,318,313.8438" style="stroke:#181818;stroke-width:1.0;"/><line style="stroke:#181818;stroke-width:1.0;" x1="318" x2="318" y1="353.8125" y2="373.8125"/><polygon fill="#181818" points="314,363.8125,318,373.8125,322,363.8125,318,367.8125" style="stroke:#181818;stroke-width:1.0;"/><!--MD5=[4024d5e96ddb202989a52cc79d09c837]
@startuml
start

: Detect all lvclasses in memory and the project folder;
: Read the Json InterfaceConfiguration file;
: Load all classes from the InterfaceConfiguration into memory;
: Create the classes that adhere to the ICreateDestroy interface;
: Set the class names as defined by the InterfaceConfiguration file;
: Set the External Interfaces of each of the classes as defined by the InterfaceConfiguration file;
: Start the main application class;

@enduml

PlantUML version 1.2022.12(Sun Oct 23 18:12:26 GMT 2022)
(GPL source distribution)
Java Runtime: OpenJDK Runtime Environment
JVM: OpenJDK 64-Bit Server VM
Default Encoding: UTF-8
Language: en
Country: US
--></g></svg>