<?xml version="1.0" encoding="UTF-8" standalone="no"?><svg xmlns="http://www.w3.org/2000/svg" xmlns:xlink="http://www.w3.org/1999/xlink" contentStyleType="text/css" height="432px" preserveAspectRatio="none" style="width:714px;height:432px;background:#FFFFFF;" version="1.1" viewBox="0 0 714 432" width="714px" zoomAndPan="magnify"><defs/><g><ellipse cx="357" cy="20" fill="#222222" rx="10" ry="10" style="stroke:#222222;stroke-width:1.0;"/><rect fill="#F1F1F1" height="47.9375" rx="12.5" ry="12.5" style="stroke:#181818;stroke-width:0.5;" width="477" x="118.5" y="50"/><text fill="#000000" font-family="sans-serif" font-size="12" lengthAdjust="spacing" textLength="4" x="128.5" y="71.1387"> </text><text fill="#000000" font-family="sans-serif" font-size="12" font-weight="bold" lengthAdjust="spacing" textLength="453" x="132.5" y="71.1387">Detect all lvclasses in memory and the project folder recursively</text><text fill="#000000" font-family="sans-serif" font-size="12" lengthAdjust="spacing" textLength="25" x="128.5" y="85.1074">This</text><rect fill="#F1F1F1" height="33.9688" rx="12.5" ry="12.5" style="stroke:#181818;stroke-width:0.5;" width="313" x="200.5" y="117.9375"/><text fill="#000000" font-family="sans-serif" font-size="12" lengthAdjust="spacing" textLength="4" x="210.5" y="139.0762"> </text><text fill="#000000" font-family="sans-serif" font-size="12" font-weight="bold" lengthAdjust="spacing" textLength="289" x="214.5" y="139.0762">Read the Json InterfaceConfiguration file</text><rect fill="#F1F1F1" height="33.9688" rx="12.5" ry="12.5" style="stroke:#181818;stroke-width:0.5;" width="458" x="128" y="171.9063"/><text fill="#000000" font-family="sans-serif" font-size="12" lengthAdjust="spacing" textLength="4" x="138" y="193.0449"> </text><text fill="#000000" font-family="sans-serif" font-size="12" font-weight="bold" lengthAdjust="spacing" textLength="434" x="142" y="193.0449">Load all classes from the InterfaceConfiguration into memory</text><rect fill="#F1F1F1" height="33.9688" rx="12.5" ry="12.5" style="stroke:#181818;stroke-width:0.5;" width="472" x="121" y="225.875"/><text fill="#000000" font-family="sans-serif" font-size="12" lengthAdjust="spacing" textLength="4" x="131" y="247.0137"> </text><text fill="#000000" font-family="sans-serif" font-size="12" font-weight="bold" lengthAdjust="spacing" textLength="440" x="135" y="247.0137">Create the classes that adhere to the ICreateDestroy interfac</text><text fill="#000000" font-family="sans-serif" font-size="12" lengthAdjust="spacing" textLength="8" x="575" y="247.0137">e</text><rect fill="#F1F1F1" height="33.9688" rx="12.5" ry="12.5" style="stroke:#181818;stroke-width:0.5;" width="486" x="114" y="279.8438"/><text fill="#000000" font-family="sans-serif" font-size="12" lengthAdjust="spacing" textLength="4" x="124" y="300.9824"> </text><text fill="#000000" font-family="sans-serif" font-size="12" font-weight="bold" lengthAdjust="spacing" textLength="462" x="128" y="300.9824">Set the class names as defined by the InterfaceConfiguration file</text><rect fill="#F1F1F1" height="33.9688" rx="12.5" ry="12.5" style="stroke:#181818;stroke-width:0.5;" width="692" x="11" y="333.8125"/><text fill="#000000" font-family="sans-serif" font-size="12" lengthAdjust="spacing" textLength="4" x="21" y="354.9512"> </text><text fill="#000000" font-family="sans-serif" font-size="12" font-weight="bold" lengthAdjust="spacing" textLength="668" x="25" y="354.9512">Set the External Interfaces of each of the classes as defined by the InterfaceConfiguration file</text><rect fill="#F1F1F1" height="33.9688" rx="12.5" ry="12.5" style="stroke:#181818;stroke-width:0.5;" width="249" x="232.5" y="387.7813"/><text fill="#000000" font-family="sans-serif" font-size="12" lengthAdjust="spacing" textLength="4" x="242.5" y="408.9199"> </text><text fill="#000000" font-family="sans-serif" font-size="12" font-weight="bold" lengthAdjust="spacing" textLength="225" x="246.5" y="408.9199">Start the main application class</text><line style="stroke:#181818;stroke-width:1.0;" x1="357" x2="357" y1="30" y2="50"/><polygon fill="#181818" points="353,40,357,50,361,40,357,44" style="stroke:#181818;stroke-width:1.0;"/><line style="stroke:#181818;stroke-width:1.0;" x1="357" x2="357" y1="97.9375" y2="117.9375"/><polygon fill="#181818" points="353,107.9375,357,117.9375,361,107.9375,357,111.9375" style="stroke:#181818;stroke-width:1.0;"/><line style="stroke:#181818;stroke-width:1.0;" x1="357" x2="357" y1="151.9063" y2="171.9063"/><polygon fill="#181818" points="353,161.9063,357,171.9063,361,161.9063,357,165.9063" style="stroke:#181818;stroke-width:1.0;"/><line style="stroke:#181818;stroke-width:1.0;" x1="357" x2="357" y1="205.875" y2="225.875"/><polygon fill="#181818" points="353,215.875,357,225.875,361,215.875,357,219.875" style="stroke:#181818;stroke-width:1.0;"/><line style="stroke:#181818;stroke-width:1.0;" x1="357" x2="357" y1="259.8438" y2="279.8438"/><polygon fill="#181818" points="353,269.8438,357,279.8438,361,269.8438,357,273.8438" style="stroke:#181818;stroke-width:1.0;"/><line style="stroke:#181818;stroke-width:1.0;" x1="357" x2="357" y1="313.8125" y2="333.8125"/><polygon fill="#181818" points="353,323.8125,357,333.8125,361,323.8125,357,327.8125" style="stroke:#181818;stroke-width:1.0;"/><line style="stroke:#181818;stroke-width:1.0;" x1="357" x2="357" y1="367.7813" y2="387.7813"/><polygon fill="#181818" points="353,377.7813,357,387.7813,361,377.7813,357,381.7813" style="stroke:#181818;stroke-width:1.0;"/><!--MD5=[a6801f2c88fb5705b65fb4056717c810]
@startuml
start

: **Detect all lvclasses in memory and the project folder recursively**
This;
: **Read the Json InterfaceConfiguration file**;
: **Load all classes from the InterfaceConfiguration into memory**;
: **Create the classes that adhere to the ICreateDestroy interfac**e;
: **Set the class names as defined by the InterfaceConfiguration file**;
: **Set the External Interfaces of each of the classes as defined by the InterfaceConfiguration file**;
: **Start the main application class**;

@enduml

PlantUML version 1.2022.12(Sun Oct 23 18:12:26 GMT 2022)
(GPL source distribution)
Java Runtime: OpenJDK Runtime Environment
JVM: OpenJDK 64-Bit Server VM
Default Encoding: UTF-8
Language: en
Country: US
--></g></svg>