<?xml version="1.0" encoding="UTF-8" standalone="no"?><svg xmlns="http://www.w3.org/2000/svg" xmlns:xlink="http://www.w3.org/1999/xlink" contentStyleType="text/css" height="300px" preserveAspectRatio="none" style="width:464px;height:300px;background:#FFFFFF;" version="1.1" viewBox="0 0 464 300" width="464px" zoomAndPan="magnify"><defs/><g><!--MD5=[fa9f007be859bf43007ba002c5b16515]
class ITAFObject--><g id="elem_ITAFObject"><rect codeLine="8" fill="#FFFFFF" height="178.375" id="ITAFObject" rx="2.5" ry="2.5" style="stroke:#555555;stroke-width:0.5;" width="223" x="121.5" y="115"/><rect fill="#808080" height="32" rx="2.5" ry="2.5" style="stroke:#808080;stroke-width:0.5;" width="223" x="121.5" y="115"/><rect fill="#808080" height="2.5" style="stroke:#808080;stroke-width:0.5;" width="223" x="121.5" y="144.5"/><rect codeLine="8" fill="none" height="178.375" id="ITAFObject" rx="2.5" ry="2.5" style="stroke:#555555;stroke-width:0.5;" width="223" x="121.5" y="115"/><ellipse cx="190.75" cy="131" fill="#B4A7E5" rx="11" ry="11" style="stroke:#181818;stroke-width:1.0;"/><path d="M186.6719,126.7656 L186.6719,124.6094 L194.0625,124.6094 L194.0625,126.7656 L191.5938,126.7656 L191.5938,134.8438 L194.0625,134.8438 L194.0625,137 L186.6719,137 L186.6719,134.8438 L189.1406,134.8438 L189.1406,126.7656 L186.6719,126.7656 Z " fill="#000000"/><text fill="#000000" font-family="sans-serif" font-size="14" font-style="italic" lengthAdjust="spacing" textLength="76" x="211.25" y="135.8467">ITAFObject</text><line style="stroke:#555555;stroke-width:0.5;" x1="122.5" x2="343.5" y1="147" y2="147"/><line style="stroke:#555555;stroke-width:0.5;" x1="122.5" x2="343.5" y1="155" y2="155"/><ellipse cx="132.5" cy="168.6484" fill="#84BE84" rx="3" ry="3" style="stroke:#038048;stroke-width:1.0;"/><text fill="#000000" font-family="sans-serif" font-size="14" lengthAdjust="spacing" textLength="56" x="141.5" y="171.9951">Create()</text><ellipse cx="132.5" cy="184.9453" fill="#84BE84" rx="3" ry="3" style="stroke:#038048;stroke-width:1.0;"/><text fill="#000000" font-family="sans-serif" font-size="14" lengthAdjust="spacing" textLength="64" x="141.5" y="188.292">Destroy()</text><ellipse cx="132.5" cy="201.2422" fill="#84BE84" rx="3" ry="3" style="stroke:#038048;stroke-width:1.0;"/><text fill="#000000" font-family="sans-serif" font-size="14" lengthAdjust="spacing" textLength="158" x="141.5" y="204.5889">GetExternalInterfaces()</text><ellipse cx="132.5" cy="217.5391" fill="#84BE84" rx="3" ry="3" style="stroke:#038048;stroke-width:1.0;"/><text fill="#000000" font-family="sans-serif" font-size="14" lengthAdjust="spacing" textLength="75" x="141.5" y="220.8857">GetName()</text><ellipse cx="132.5" cy="233.8359" fill="#84BE84" rx="3" ry="3" style="stroke:#038048;stroke-width:1.0;"/><text fill="#000000" font-family="sans-serif" font-size="14" lengthAdjust="spacing" textLength="197" x="141.5" y="237.1826">GetPersistentConfiguration()</text><ellipse cx="132.5" cy="250.1328" fill="#84BE84" rx="3" ry="3" style="stroke:#038048;stroke-width:1.0;"/><text fill="#000000" font-family="sans-serif" font-size="14" lengthAdjust="spacing" textLength="156" x="141.5" y="253.4795">SetExternalInterfaces()</text><ellipse cx="132.5" cy="266.4297" fill="#84BE84" rx="3" ry="3" style="stroke:#038048;stroke-width:1.0;"/><text fill="#000000" font-family="sans-serif" font-size="14" lengthAdjust="spacing" textLength="73" x="141.5" y="269.7764">SetName()</text><ellipse cx="132.5" cy="282.7266" fill="#84BE84" rx="3" ry="3" style="stroke:#038048;stroke-width:1.0;"/><text fill="#000000" font-family="sans-serif" font-size="14" lengthAdjust="spacing" textLength="195" x="141.5" y="286.0732">SetPersistentConfiguration()</text></g><!--MD5=[0154008576c8d5ee615f41e1a3ff350e]
class ICreateDestroy--><g id="elem_ICreateDestroy"><rect codeLine="20" fill="#FFFFFF" height="48" id="ICreateDestroy" rx="2.5" ry="2.5" style="stroke:#555555;stroke-width:0.5;" width="136" x="7" y="7"/><rect fill="#808080" height="32" rx="2.5" ry="2.5" style="stroke:#808080;stroke-width:0.5;" width="136" x="7" y="7"/><rect fill="#808080" height="2.5" style="stroke:#808080;stroke-width:0.5;" width="136" x="7" y="36.5"/><rect codeLine="20" fill="none" height="48" id="ICreateDestroy" rx="2.5" ry="2.5" style="stroke:#555555;stroke-width:0.5;" width="136" x="7" y="7"/><ellipse cx="22" cy="23" fill="#B4A7E5" rx="11" ry="11" style="stroke:#181818;stroke-width:1.0;"/><path d="M17.9219,18.7656 L17.9219,16.6094 L25.3125,16.6094 L25.3125,18.7656 L22.8438,18.7656 L22.8438,26.8438 L25.3125,26.8438 L25.3125,29 L17.9219,29 L17.9219,26.8438 L20.3906,26.8438 L20.3906,18.7656 L17.9219,18.7656 Z " fill="#000000"/><text fill="#000000" font-family="sans-serif" font-size="14" font-style="italic" lengthAdjust="spacing" textLength="104" x="36" y="27.8467">ICreateDestroy</text><line style="stroke:#555555;stroke-width:0.5;" x1="8" x2="142" y1="39" y2="39"/><line style="stroke:#555555;stroke-width:0.5;" x1="8" x2="142" y1="47" y2="47"/></g><!--MD5=[163b904ce3f0cc2f7db427f2921361dd]
class IFrontPanel--><g id="elem_IFrontPanel"><rect codeLine="22" fill="#FFFFFF" height="48" id="IFrontPanel" rx="2.5" ry="2.5" style="stroke:#555555;stroke-width:0.5;" width="109" x="178.5" y="7"/><rect fill="#808080" height="32" rx="2.5" ry="2.5" style="stroke:#808080;stroke-width:0.5;" width="109" x="178.5" y="7"/><rect fill="#808080" height="2.5" style="stroke:#808080;stroke-width:0.5;" width="109" x="178.5" y="36.5"/><rect codeLine="22" fill="none" height="48" id="IFrontPanel" rx="2.5" ry="2.5" style="stroke:#555555;stroke-width:0.5;" width="109" x="178.5" y="7"/><ellipse cx="193.5" cy="23" fill="#B4A7E5" rx="11" ry="11" style="stroke:#181818;stroke-width:1.0;"/><path d="M189.4219,18.7656 L189.4219,16.6094 L196.8125,16.6094 L196.8125,18.7656 L194.3438,18.7656 L194.3438,26.8438 L196.8125,26.8438 L196.8125,29 L189.4219,29 L189.4219,26.8438 L191.8906,26.8438 L191.8906,18.7656 L189.4219,18.7656 Z " fill="#000000"/><text fill="#000000" font-family="sans-serif" font-size="14" font-style="italic" lengthAdjust="spacing" textLength="77" x="207.5" y="27.8467">IFrontPanel</text><line style="stroke:#555555;stroke-width:0.5;" x1="179.5" x2="286.5" y1="39" y2="39"/><line style="stroke:#555555;stroke-width:0.5;" x1="179.5" x2="286.5" y1="47" y2="47"/></g><!--MD5=[600f101a63f5e877d81a226e38956775]
class IPersistentData--><g id="elem_IPersistentData"><rect codeLine="24" fill="#FFFFFF" height="48" id="IPersistentData" rx="2.5" ry="2.5" style="stroke:#555555;stroke-width:0.5;" width="135" x="322.5" y="7"/><rect fill="#808080" height="32" rx="2.5" ry="2.5" style="stroke:#808080;stroke-width:0.5;" width="135" x="322.5" y="7"/><rect fill="#808080" height="2.5" style="stroke:#808080;stroke-width:0.5;" width="135" x="322.5" y="36.5"/><rect codeLine="24" fill="none" height="48" id="IPersistentData" rx="2.5" ry="2.5" style="stroke:#555555;stroke-width:0.5;" width="135" x="322.5" y="7"/><ellipse cx="337.5" cy="23" fill="#B4A7E5" rx="11" ry="11" style="stroke:#181818;stroke-width:1.0;"/><path d="M333.4219,18.7656 L333.4219,16.6094 L340.8125,16.6094 L340.8125,18.7656 L338.3438,18.7656 L338.3438,26.8438 L340.8125,26.8438 L340.8125,29 L333.4219,29 L333.4219,26.8438 L335.8906,26.8438 L335.8906,18.7656 L333.4219,18.7656 Z " fill="#000000"/><text fill="#000000" font-family="sans-serif" font-size="14" font-style="italic" lengthAdjust="spacing" textLength="103" x="351.5" y="27.8467">IPersistentData</text><line style="stroke:#555555;stroke-width:0.5;" x1="323.5" x2="456.5" y1="39" y2="39"/><line style="stroke:#555555;stroke-width:0.5;" x1="323.5" x2="456.5" y1="47" y2="47"/></g><!--MD5=[b2f43849723185dce544a3b30e728282]
reverse link ICreateDestroy to ITAFObject--><g id="link_ICreateDestroy_ITAFObject"><path codeLine="19" d="M110.17,70.06 C122.48,83.39 136.88,98.97 151.39,114.67 " fill="none" id="ICreateDestroy-backto-ITAFObject" style="stroke:#181818;stroke-width:1.0;stroke-dasharray:7.0,7.0;"/><polygon fill="none" points="104.74,74.5,96.31,55.06,115.02,65,104.74,74.5" style="stroke:#181818;stroke-width:1.0;"/></g><!--MD5=[91a7a66002fc8f870dbc2ed7a6982b0d]
reverse link IFrontPanel to ITAFObject--><g id="link_IFrontPanel_ITAFObject"><path codeLine="21" d="M233,75.45 C233,87.5 233,101.04 233,114.67 " fill="none" id="IFrontPanel-backto-ITAFObject" style="stroke:#181818;stroke-width:1.0;stroke-dasharray:7.0,7.0;"/><polygon fill="none" points="226,75.06,233,55.06,240,75.06,226,75.06" style="stroke:#181818;stroke-width:1.0;"/></g><!--MD5=[54b6c3faa3136269813ad1812ca1a9ec]
reverse link IPersistentData to ITAFObject--><g id="link_IPersistentData_ITAFObject"><path codeLine="23" d="M355.06,70.06 C342.82,83.39 328.51,98.97 314.09,114.67 " fill="none" id="IPersistentData-backto-ITAFObject" style="stroke:#181818;stroke-width:1.0;stroke-dasharray:7.0,7.0;"/><polygon fill="none" points="350.14,65.06,368.83,55.06,360.46,74.53,350.14,65.06" style="stroke:#181818;stroke-width:1.0;"/></g><!--MD5=[4b09fcc064ff9c511a3471baf6133229]
@startuml
set namespaceSeparator :
skinparam ClassBackgroundColor #FFFFFF
skinparam ClassBorderColor #555555
skinparam ClassFontColor #000000
skinparam ClassHeaderBackgroundColor #808080

skinparam top to bottom direction
interface "ITAFObject" {
{method} +Create()
{method} +Destroy()
{method} +GetExternalInterfaces()
{method} +GetName()
{method} +GetPersistentConfiguration()
{method} +SetExternalInterfaces()
{method} +SetName()
{method} +SetPersistentConfiguration()

}
"ICreateDestroy" <|.. "ITAFObject"
interface "ICreateDestroy" {}
"IFrontPanel" <|.. "ITAFObject"
interface "IFrontPanel" {}
"IPersistentData" <|.. "ITAFObject"
interface "IPersistentData" {}




@enduml

PlantUML version 1.2022.12(Sun Oct 23 18:12:26 GMT 2022)
(GPL source distribution)
Java Runtime: OpenJDK Runtime Environment
JVM: OpenJDK 64-Bit Server VM
Default Encoding: UTF-8
Language: en
Country: US
--></g></svg>