<?xml version="1.0" encoding="UTF-8" standalone="no"?><svg xmlns="http://www.w3.org/2000/svg" xmlns:xlink="http://www.w3.org/1999/xlink" contentStyleType="text/css" height="284px" preserveAspectRatio="none" style="width:1042px;height:284px;background:#FFFFFF;" version="1.1" viewBox="0 0 1042 284" width="1042px" zoomAndPan="magnify"><defs/><g><!--MD5=[3f0ef310aaa84a542276992c5216544d]
class Car--><g id="elem_Car"><rect codeLine="7" fill="#FFFFFF" height="129.4844" id="Car" rx="2.5" ry="2.5" style="stroke:#555555;stroke-width:0.5;" width="186" x="7" y="148"/><rect fill="#808080" height="32" rx="2.5" ry="2.5" style="stroke:#808080;stroke-width:0.5;" width="186" x="7" y="148"/><rect fill="#808080" height="2.5" style="stroke:#808080;stroke-width:0.5;" width="186" x="7" y="177.5"/><rect codeLine="7" fill="none" height="129.4844" id="Car" rx="2.5" ry="2.5" style="stroke:#555555;stroke-width:0.5;" width="186" x="7" y="148"/><ellipse cx="84.25" cy="164" fill="#ADD1B2" rx="11" ry="11" style="stroke:#181818;stroke-width:1.0;"/><path d="M87.2188,169.6406 Q86.6406,169.9375 86,170.0781 Q85.3594,170.2344 84.6563,170.2344 Q82.1563,170.2344 80.8281,168.5938 Q79.5156,166.9375 79.5156,163.8125 Q79.5156,160.6875 80.8281,159.0313 Q82.1563,157.375 84.6563,157.375 Q85.3594,157.375 86,157.5313 Q86.6563,157.6875 87.2188,157.9844 L87.2188,160.7031 Q86.5938,160.125 86,159.8594 Q85.4063,159.5781 84.7813,159.5781 Q83.4375,159.5781 82.75,160.6563 Q82.0625,161.7188 82.0625,163.8125 Q82.0625,165.9063 82.75,166.9844 Q83.4375,168.0469 84.7813,168.0469 Q85.4063,168.0469 86,167.7813 Q86.5938,167.5 87.2188,166.9219 L87.2188,169.6406 Z " fill="#000000"/><text fill="#000000" font-family="sans-serif" font-size="14" lengthAdjust="spacing" textLength="23" x="104.75" y="168.8467">Car</text><line style="stroke:#555555;stroke-width:0.5;" x1="8" x2="192" y1="180" y2="180"/><text fill="#000000" font-family="sans-serif" font-size="14" lengthAdjust="spacing" textLength="138" x="13" y="196.9951">IBreakSystem Break</text><text fill="#000000" font-family="sans-serif" font-size="14" lengthAdjust="spacing" textLength="130" x="13" y="213.292">ISpeedSystem Gas</text><text fill="#000000" font-family="sans-serif" font-size="14" lengthAdjust="spacing" textLength="174" x="13" y="229.5889">ISteeringSystem Steering</text><line style="stroke:#555555;stroke-width:0.5;" x1="8" x2="192" y1="236.8906" y2="236.8906"/><text fill="#000000" font-family="sans-serif" font-size="14" lengthAdjust="spacing" textLength="30" x="13" y="253.8857">On()</text><text fill="#000000" font-family="sans-serif" font-size="14" lengthAdjust="spacing" textLength="29" x="13" y="270.1826">Off()</text></g><!--MD5=[8b4349d44eaa49606e46fe912a7a9b1f]
class IBreakSystem--><g id="elem_IBreakSystem"><rect codeLine="15" fill="#FFFFFF" height="64.2969" id="IBreakSystem" rx="2.5" ry="2.5" style="stroke:#555555;stroke-width:0.5;" width="142" x="239" y="15.5"/><rect fill="#808080" height="32" rx="2.5" ry="2.5" style="stroke:#808080;stroke-width:0.5;" width="142" x="239" y="15.5"/><rect fill="#808080" height="2.5" style="stroke:#808080;stroke-width:0.5;" width="142" x="239" y="45"/><rect codeLine="15" fill="none" height="64.2969" id="IBreakSystem" rx="2.5" ry="2.5" style="stroke:#555555;stroke-width:0.5;" width="142" x="239" y="15.5"/><ellipse cx="260.75" cy="31.5" fill="#B4A7E5" rx="11" ry="11" style="stroke:#181818;stroke-width:1.0;"/><path d="M256.6719,27.2656 L256.6719,25.1094 L264.0625,25.1094 L264.0625,27.2656 L261.5938,27.2656 L261.5938,35.3438 L264.0625,35.3438 L264.0625,37.5 L256.6719,37.5 L256.6719,35.3438 L259.1406,35.3438 L259.1406,27.2656 L256.6719,27.2656 Z " fill="#000000"/><text fill="#000000" font-family="sans-serif" font-size="14" font-style="italic" lengthAdjust="spacing" textLength="95" x="276.25" y="36.3467">IBreakSystem</text><line style="stroke:#555555;stroke-width:0.5;" x1="240" x2="380" y1="47.5" y2="47.5"/><line style="stroke:#555555;stroke-width:0.5;" x1="240" x2="380" y1="55.5" y2="55.5"/><text fill="#000000" font-family="sans-serif" font-size="14" lengthAdjust="spacing" textLength="130" x="245" y="72.4951">BreakPercentage()</text></g><!--MD5=[3f8296c6c6f74a94cfd3b031904365e8]
class ISpeedSystem--><g id="elem_ISpeedSystem"><rect codeLine="16" fill="#FFFFFF" height="64.2969" id="ISpeedSystem" rx="2.5" ry="2.5" style="stroke:#555555;stroke-width:0.5;" width="132" x="498" y="15.5"/><rect fill="#808080" height="32" rx="2.5" ry="2.5" style="stroke:#808080;stroke-width:0.5;" width="132" x="498" y="15.5"/><rect fill="#808080" height="2.5" style="stroke:#808080;stroke-width:0.5;" width="132" x="498" y="45"/><rect codeLine="16" fill="none" height="64.2969" id="ISpeedSystem" rx="2.5" ry="2.5" style="stroke:#555555;stroke-width:0.5;" width="132" x="498" y="15.5"/><ellipse cx="513" cy="31.5" fill="#B4A7E5" rx="11" ry="11" style="stroke:#181818;stroke-width:1.0;"/><path d="M508.9219,27.2656 L508.9219,25.1094 L516.3125,25.1094 L516.3125,27.2656 L513.8438,27.2656 L513.8438,35.3438 L516.3125,35.3438 L516.3125,37.5 L508.9219,37.5 L508.9219,35.3438 L511.3906,35.3438 L511.3906,27.2656 L508.9219,27.2656 Z " fill="#000000"/><text fill="#000000" font-family="sans-serif" font-size="14" font-style="italic" lengthAdjust="spacing" textLength="100" x="527" y="36.3467">ISpeedSystem</text><line style="stroke:#555555;stroke-width:0.5;" x1="499" x2="629" y1="47.5" y2="47.5"/><line style="stroke:#555555;stroke-width:0.5;" x1="499" x2="629" y1="55.5" y2="55.5"/><text fill="#000000" font-family="sans-serif" font-size="14" lengthAdjust="spacing" textLength="55" x="504" y="72.4951">Speed()</text></g><!--MD5=[839a9ba2e4984e689f89cf473293394b]
class ISteeringSystem--><g id="elem_ISteeringSystem"><rect codeLine="17" fill="#FFFFFF" height="64.2969" id="ISteeringSystem" rx="2.5" ry="2.5" style="stroke:#555555;stroke-width:0.5;" width="145" x="822.5" y="15.5"/><rect fill="#808080" height="32" rx="2.5" ry="2.5" style="stroke:#808080;stroke-width:0.5;" width="145" x="822.5" y="15.5"/><rect fill="#808080" height="2.5" style="stroke:#808080;stroke-width:0.5;" width="145" x="822.5" y="45"/><rect codeLine="17" fill="none" height="64.2969" id="ISteeringSystem" rx="2.5" ry="2.5" style="stroke:#555555;stroke-width:0.5;" width="145" x="822.5" y="15.5"/><ellipse cx="837.5" cy="31.5" fill="#B4A7E5" rx="11" ry="11" style="stroke:#181818;stroke-width:1.0;"/><path d="M833.4219,27.2656 L833.4219,25.1094 L840.8125,25.1094 L840.8125,27.2656 L838.3438,27.2656 L838.3438,35.3438 L840.8125,35.3438 L840.8125,37.5 L833.4219,37.5 L833.4219,35.3438 L835.8906,35.3438 L835.8906,27.2656 L833.4219,27.2656 Z " fill="#000000"/><text fill="#000000" font-family="sans-serif" font-size="14" font-style="italic" lengthAdjust="spacing" textLength="113" x="851.5" y="36.3467">ISteeringSystem</text><line style="stroke:#555555;stroke-width:0.5;" x1="823.5" x2="966.5" y1="47.5" y2="47.5"/><line style="stroke:#555555;stroke-width:0.5;" x1="823.5" x2="966.5" y1="55.5" y2="55.5"/><text fill="#000000" font-family="sans-serif" font-size="14" lengthAdjust="spacing" textLength="107" x="828.5" y="72.4951">SteeringAngle()</text></g><!--MD5=[4bd7caa3e348e14c162eed3fe72951ad]
class ICarControl--><g id="elem_ICarControl"><rect codeLine="18" fill="#FFFFFF" height="80.5938" id="ICarControl" rx="2.5" ry="2.5" style="stroke:#555555;stroke-width:0.5;" width="109" x="45.5" y="7"/><rect fill="#808080" height="32" rx="2.5" ry="2.5" style="stroke:#808080;stroke-width:0.5;" width="109" x="45.5" y="7"/><rect fill="#808080" height="2.5" style="stroke:#808080;stroke-width:0.5;" width="109" x="45.5" y="36.5"/><rect codeLine="18" fill="none" height="80.5938" id="ICarControl" rx="2.5" ry="2.5" style="stroke:#555555;stroke-width:0.5;" width="109" x="45.5" y="7"/><ellipse cx="60.5" cy="23" fill="#B4A7E5" rx="11" ry="11" style="stroke:#181818;stroke-width:1.0;"/><path d="M56.4219,18.7656 L56.4219,16.6094 L63.8125,16.6094 L63.8125,18.7656 L61.3438,18.7656 L61.3438,26.8438 L63.8125,26.8438 L63.8125,29 L56.4219,29 L56.4219,26.8438 L58.8906,26.8438 L58.8906,18.7656 L56.4219,18.7656 Z " fill="#000000"/><text fill="#000000" font-family="sans-serif" font-size="14" font-style="italic" lengthAdjust="spacing" textLength="77" x="74.5" y="27.8467">ICarControl</text><line style="stroke:#555555;stroke-width:0.5;" x1="46.5" x2="153.5" y1="39" y2="39"/><line style="stroke:#555555;stroke-width:0.5;" x1="46.5" x2="153.5" y1="47" y2="47"/><text fill="#000000" font-family="sans-serif" font-size="14" lengthAdjust="spacing" textLength="30" x="51.5" y="63.9951">On()</text><text fill="#000000" font-family="sans-serif" font-size="14" lengthAdjust="spacing" textLength="29" x="51.5" y="80.292">Off()</text></g><!--MD5=[81ae48864a1d1579635bdd769611c8ad]
class UsingFeed--><g id="elem_UsingFeed"><rect codeLine="28" fill="#FFFFFF" height="80.5938" id="UsingFeed" rx="2.5" ry="2.5" style="stroke:#555555;stroke-width:0.5;" width="142" x="417" y="172"/><rect fill="#808080" height="32" rx="2.5" ry="2.5" style="stroke:#808080;stroke-width:0.5;" width="142" x="417" y="172"/><rect fill="#808080" height="2.5" style="stroke:#808080;stroke-width:0.5;" width="142" x="417" y="201.5"/><rect codeLine="28" fill="none" height="80.5938" id="UsingFeed" rx="2.5" ry="2.5" style="stroke:#555555;stroke-width:0.5;" width="142" x="417" y="172"/><ellipse cx="448.2" cy="188" fill="#ADD1B2" rx="11" ry="11" style="stroke:#181818;stroke-width:1.0;"/><path d="M451.1688,193.6406 Q450.5906,193.9375 449.95,194.0781 Q449.3094,194.2344 448.6063,194.2344 Q446.1063,194.2344 444.7781,192.5938 Q443.4656,190.9375 443.4656,187.8125 Q443.4656,184.6875 444.7781,183.0313 Q446.1063,181.375 448.6063,181.375 Q449.3094,181.375 449.95,181.5313 Q450.6063,181.6875 451.1688,181.9844 L451.1688,184.7031 Q450.5438,184.125 449.95,183.8594 Q449.3563,183.5781 448.7313,183.5781 Q447.3875,183.5781 446.7,184.6563 Q446.0125,185.7188 446.0125,187.8125 Q446.0125,189.9063 446.7,190.9844 Q447.3875,192.0469 448.7313,192.0469 Q449.3563,192.0469 449.95,191.7813 Q450.5438,191.5 451.1688,190.9219 L451.1688,193.6406 Z " fill="#000000"/><text fill="#000000" font-family="sans-serif" font-size="14" lengthAdjust="spacing" textLength="74" x="465.8" y="192.8467">UsingFeed</text><line style="stroke:#555555;stroke-width:0.5;" x1="418" x2="558" y1="204" y2="204"/><line style="stroke:#555555;stroke-width:0.5;" x1="418" x2="558" y1="212" y2="212"/><text fill="#000000" font-family="sans-serif" font-size="14" lengthAdjust="spacing" textLength="55" x="423" y="228.9951">Speed()</text><text fill="#000000" font-family="sans-serif" font-size="14" lengthAdjust="spacing" textLength="130" x="423" y="245.292">BreakPercentage()</text></g><!--MD5=[21f3ecaffea0af574e0a496fda47eba4]
class UsingEngine--><g id="elem_UsingEngine"><rect codeLine="35" fill="#FFFFFF" height="64.2969" id="UsingEngine" rx="2.5" ry="2.5" style="stroke:#555555;stroke-width:0.5;" width="119" x="594.5" y="180.5"/><rect fill="#808080" height="32" rx="2.5" ry="2.5" style="stroke:#808080;stroke-width:0.5;" width="119" x="594.5" y="180.5"/><rect fill="#808080" height="2.5" style="stroke:#808080;stroke-width:0.5;" width="119" x="594.5" y="210"/><rect codeLine="35" fill="none" height="64.2969" id="UsingEngine" rx="2.5" ry="2.5" style="stroke:#555555;stroke-width:0.5;" width="119" x="594.5" y="180.5"/><ellipse cx="609.5" cy="196.5" fill="#ADD1B2" rx="11" ry="11" style="stroke:#181818;stroke-width:1.0;"/><path d="M612.4688,202.1406 Q611.8906,202.4375 611.25,202.5781 Q610.6094,202.7344 609.9063,202.7344 Q607.4063,202.7344 606.0781,201.0938 Q604.7656,199.4375 604.7656,196.3125 Q604.7656,193.1875 606.0781,191.5313 Q607.4063,189.875 609.9063,189.875 Q610.6094,189.875 611.25,190.0313 Q611.9063,190.1875 612.4688,190.4844 L612.4688,193.2031 Q611.8438,192.625 611.25,192.3594 Q610.6563,192.0781 610.0313,192.0781 Q608.6875,192.0781 608,193.1563 Q607.3125,194.2188 607.3125,196.3125 Q607.3125,198.4063 608,199.4844 Q608.6875,200.5469 610.0313,200.5469 Q610.6563,200.5469 611.25,200.2813 Q611.8438,200 612.4688,199.4219 L612.4688,202.1406 Z " fill="#000000"/><text fill="#000000" font-family="sans-serif" font-size="14" lengthAdjust="spacing" textLength="87" x="623.5" y="201.3467">UsingEngine</text><line style="stroke:#555555;stroke-width:0.5;" x1="595.5" x2="712.5" y1="212.5" y2="212.5"/><line style="stroke:#555555;stroke-width:0.5;" x1="595.5" x2="712.5" y1="220.5" y2="220.5"/><text fill="#000000" font-family="sans-serif" font-size="14" lengthAdjust="spacing" textLength="55" x="600.5" y="237.4951">Speed()</text></g><!--MD5=[52c12cc54386af3a3ae5014135719776]
class UsingWheelBreak--><g id="elem_UsingWheelBreak"><rect codeLine="39" fill="#FFFFFF" height="64.2969" id="UsingWheelBreak" rx="2.5" ry="2.5" style="stroke:#555555;stroke-width:0.5;" width="154" x="228" y="180.5"/><rect fill="#808080" height="32" rx="2.5" ry="2.5" style="stroke:#808080;stroke-width:0.5;" width="154" x="228" y="180.5"/><rect fill="#808080" height="2.5" style="stroke:#808080;stroke-width:0.5;" width="154" x="228" y="210"/><rect codeLine="39" fill="none" height="64.2969" id="UsingWheelBreak" rx="2.5" ry="2.5" style="stroke:#555555;stroke-width:0.5;" width="154" x="228" y="180.5"/><ellipse cx="243" cy="196.5" fill="#ADD1B2" rx="11" ry="11" style="stroke:#181818;stroke-width:1.0;"/><path d="M245.9688,202.1406 Q245.3906,202.4375 244.75,202.5781 Q244.1094,202.7344 243.4063,202.7344 Q240.9063,202.7344 239.5781,201.0938 Q238.2656,199.4375 238.2656,196.3125 Q238.2656,193.1875 239.5781,191.5313 Q240.9063,189.875 243.4063,189.875 Q244.1094,189.875 244.75,190.0313 Q245.4063,190.1875 245.9688,190.4844 L245.9688,193.2031 Q245.3438,192.625 244.75,192.3594 Q244.1563,192.0781 243.5313,192.0781 Q242.1875,192.0781 241.5,193.1563 Q240.8125,194.2188 240.8125,196.3125 Q240.8125,198.4063 241.5,199.4844 Q242.1875,200.5469 243.5313,200.5469 Q244.1563,200.5469 244.75,200.2813 Q245.3438,200 245.9688,199.4219 L245.9688,202.1406 Z " fill="#000000"/><text fill="#000000" font-family="sans-serif" font-size="14" lengthAdjust="spacing" textLength="122" x="257" y="201.3467">UsingWheelBreak</text><line style="stroke:#555555;stroke-width:0.5;" x1="229" x2="381" y1="212.5" y2="212.5"/><line style="stroke:#555555;stroke-width:0.5;" x1="229" x2="381" y1="220.5" y2="220.5"/><text fill="#000000" font-family="sans-serif" font-size="14" lengthAdjust="spacing" textLength="130" x="234" y="237.4951">BreakPercentage()</text></g><!--MD5=[ad83d6982eaa72c6138b29e52690d36c]
class SteeringWheel--><g id="elem_SteeringWheel"><rect codeLine="43" fill="#FFFFFF" height="64.2969" id="SteeringWheel" rx="2.5" ry="2.5" style="stroke:#555555;stroke-width:0.5;" width="133" x="748.5" y="180.5"/><rect fill="#808080" height="32" rx="2.5" ry="2.5" style="stroke:#808080;stroke-width:0.5;" width="133" x="748.5" y="180.5"/><rect fill="#808080" height="2.5" style="stroke:#808080;stroke-width:0.5;" width="133" x="748.5" y="210"/><rect codeLine="43" fill="none" height="64.2969" id="SteeringWheel" rx="2.5" ry="2.5" style="stroke:#555555;stroke-width:0.5;" width="133" x="748.5" y="180.5"/><ellipse cx="763.5" cy="196.5" fill="#ADD1B2" rx="11" ry="11" style="stroke:#181818;stroke-width:1.0;"/><path d="M766.4688,202.1406 Q765.8906,202.4375 765.25,202.5781 Q764.6094,202.7344 763.9063,202.7344 Q761.4063,202.7344 760.0781,201.0938 Q758.7656,199.4375 758.7656,196.3125 Q758.7656,193.1875 760.0781,191.5313 Q761.4063,189.875 763.9063,189.875 Q764.6094,189.875 765.25,190.0313 Q765.9063,190.1875 766.4688,190.4844 L766.4688,193.2031 Q765.8438,192.625 765.25,192.3594 Q764.6563,192.0781 764.0313,192.0781 Q762.6875,192.0781 762,193.1563 Q761.3125,194.2188 761.3125,196.3125 Q761.3125,198.4063 762,199.4844 Q762.6875,200.5469 764.0313,200.5469 Q764.6563,200.5469 765.25,200.2813 Q765.8438,200 766.4688,199.4219 L766.4688,202.1406 Z " fill="#000000"/><text fill="#000000" font-family="sans-serif" font-size="14" lengthAdjust="spacing" textLength="101" x="777.5" y="201.3467">SteeringWheel</text><line style="stroke:#555555;stroke-width:0.5;" x1="749.5" x2="880.5" y1="212.5" y2="212.5"/><line style="stroke:#555555;stroke-width:0.5;" x1="749.5" x2="880.5" y1="220.5" y2="220.5"/><text fill="#000000" font-family="sans-serif" font-size="14" lengthAdjust="spacing" textLength="107" x="754.5" y="237.4951">SteeringAngle()</text></g><!--MD5=[f929ce5cfb02a705447030ec5fa34c24]
class Joystick--><g id="elem_Joystick"><rect codeLine="47" fill="#FFFFFF" height="64.2969" id="Joystick" rx="2.5" ry="2.5" style="stroke:#555555;stroke-width:0.5;" width="119" x="916.5" y="180.5"/><rect fill="#808080" height="32" rx="2.5" ry="2.5" style="stroke:#808080;stroke-width:0.5;" width="119" x="916.5" y="180.5"/><rect fill="#808080" height="2.5" style="stroke:#808080;stroke-width:0.5;" width="119" x="916.5" y="210"/><rect codeLine="47" fill="none" height="64.2969" id="Joystick" rx="2.5" ry="2.5" style="stroke:#555555;stroke-width:0.5;" width="119" x="916.5" y="180.5"/><ellipse cx="947.7" cy="196.5" fill="#ADD1B2" rx="11" ry="11" style="stroke:#181818;stroke-width:1.0;"/><path d="M950.6688,202.1406 Q950.0906,202.4375 949.45,202.5781 Q948.8094,202.7344 948.1063,202.7344 Q945.6063,202.7344 944.2781,201.0938 Q942.9656,199.4375 942.9656,196.3125 Q942.9656,193.1875 944.2781,191.5313 Q945.6063,189.875 948.1063,189.875 Q948.8094,189.875 949.45,190.0313 Q950.1063,190.1875 950.6688,190.4844 L950.6688,193.2031 Q950.0438,192.625 949.45,192.3594 Q948.8563,192.0781 948.2313,192.0781 Q946.8875,192.0781 946.2,193.1563 Q945.5125,194.2188 945.5125,196.3125 Q945.5125,198.4063 946.2,199.4844 Q946.8875,200.5469 948.2313,200.5469 Q948.8563,200.5469 949.45,200.2813 Q950.0438,200 950.6688,199.4219 L950.6688,202.1406 Z " fill="#000000"/><text fill="#000000" font-family="sans-serif" font-size="14" lengthAdjust="spacing" textLength="51" x="965.3" y="201.3467">Joystick</text><line style="stroke:#555555;stroke-width:0.5;" x1="917.5" x2="1034.5" y1="212.5" y2="212.5"/><line style="stroke:#555555;stroke-width:0.5;" x1="917.5" x2="1034.5" y1="220.5" y2="220.5"/><text fill="#000000" font-family="sans-serif" font-size="14" lengthAdjust="spacing" textLength="107" x="922.5" y="237.4951">SteeringAngle()</text></g><!--MD5=[9a1f83fb3898e41e702b69d424886b06]
reverse link ICarControl to Car--><g id="link_ICarControl_Car"><path codeLine="22" d="M100,108.39 C100,121.26 100,134.9 100,147.91 " fill="none" id="ICarControl-backto-Car" style="stroke:#181818;stroke-width:1.0;stroke-dasharray:7.0,7.0;"/><polygon fill="none" points="93,108.37,100,88.37,107,108.37,93,108.37" style="stroke:#181818;stroke-width:1.0;"/></g><!--MD5=[57a5a6c8153df57c19ce9ecb97bb3453]
reverse link ISpeedSystem to UsingFeed--><g id="link_ISpeedSystem_UsingFeed"><path codeLine="32" d="M541,97.84 C529.94,121.56 516.86,149.61 506.46,171.91 " fill="none" id="ISpeedSystem-backto-UsingFeed" style="stroke:#181818;stroke-width:1.0;stroke-dasharray:7.0,7.0;"/><polygon fill="none" points="534.73,94.71,549.53,79.54,547.42,100.63,534.73,94.71" style="stroke:#181818;stroke-width:1.0;"/></g><!--MD5=[e09c077446928df51adf190d1a9f53d7]
reverse link IBreakSystem to UsingFeed--><g id="link_IBreakSystem_UsingFeed"><path codeLine="33" d="M358.91,93.29 C385.79,117.9 418.84,148.17 444.77,171.91 " fill="none" id="IBreakSystem-backto-UsingFeed" style="stroke:#181818;stroke-width:1.0;stroke-dasharray:7.0,7.0;"/><polygon fill="none" points="353.92,98.21,343.9,79.54,363.38,87.89,353.92,98.21" style="stroke:#181818;stroke-width:1.0;"/></g><!--MD5=[1aba252c5313076ec1dce008d7f4d3f8]
reverse link ISpeedSystem to UsingEngine--><g id="link_ISpeedSystem_UsingEngine"><path codeLine="37" d="M590.83,97.09 C605.71,124.04 623.78,156.76 636.77,180.3 " fill="none" id="ISpeedSystem-backto-UsingEngine" style="stroke:#181818;stroke-width:1.0;stroke-dasharray:7.0,7.0;"/><polygon fill="none" points="584.68,100.43,581.14,79.54,596.94,93.67,584.68,100.43" style="stroke:#181818;stroke-width:1.0;"/></g><!--MD5=[ed471e3d54744ea7ca36ce5b52a0c917]
reverse link IBreakSystem to UsingWheelBreak--><g id="link_IBreakSystem_UsingWheelBreak"><path codeLine="41" d="M308.43,99.83 C307.62,126.24 306.65,157.55 305.96,180.3 " fill="none" id="IBreakSystem-backto-UsingWheelBreak" style="stroke:#181818;stroke-width:1.0;stroke-dasharray:7.0,7.0;"/><polygon fill="none" points="301.44,99.32,309.05,79.54,315.43,99.75,301.44,99.32" style="stroke:#181818;stroke-width:1.0;"/></g><!--MD5=[cdf194c1c75c2e6690cfc170cd7d0a65]
reverse link ISteeringSystem to SteeringWheel--><g id="link_ISteeringSystem_SteeringWheel"><path codeLine="45" d="M870.77,97.87 C857.61,124.67 841.75,156.99 830.32,180.3 " fill="none" id="ISteeringSystem-backto-SteeringWheel" style="stroke:#181818;stroke-width:1.0;stroke-dasharray:7.0,7.0;"/><polygon fill="none" points="864.67,94.41,879.76,79.54,877.24,100.58,864.67,94.41" style="stroke:#181818;stroke-width:1.0;"/></g><!--MD5=[ff0d828fe0e43fd6e2bfe1e22fcfbe89]
reverse link ISteeringSystem to Joystick--><g id="link_ISteeringSystem_Joystick"><path codeLine="49" d="M919.34,97.48 C932.7,124.36 948.86,156.88 960.49,180.3 " fill="none" id="ISteeringSystem-backto-Joystick" style="stroke:#181818;stroke-width:1.0;stroke-dasharray:7.0,7.0;"/><polygon fill="none" points="913.06,100.57,910.43,79.54,925.6,94.34,913.06,100.57" style="stroke:#181818;stroke-width:1.0;"/></g><!--MD5=[8b2964494ed9188b339cdcf5d4167d1f]
@startuml
set namespaceSeparator :
skinparam ClassBackgroundColor #FFFFFF
skinparam ClassBorderColor #555555
skinparam ClassFontColor #000000
skinparam ClassHeaderBackgroundColor #808080

class Car
Car : IBreakSystem Break
Car : ISpeedSystem Gas
Car : ISteeringSystem Steering

Car : On()
Car : Off()

interface IBreakSystem
interface ISpeedSystem
interface ISteeringSystem
interface ICarControl

ICarControl : On()
ICarControl : Off()
ICarControl <|.. Car

ISpeedSystem : Speed()
IBreakSystem : BreakPercentage()
ISteeringSystem : SteeringAngle()

class UsingFeed
UsingFeed : Speed()
UsingFeed : BreakPercentage()

ISpeedSystem <|.. UsingFeed
IBreakSystem <|.. UsingFeed

class UsingEngine
UsingEngine : Speed()
ISpeedSystem <|.. UsingEngine

class UsingWheelBreak
UsingWheelBreak : BreakPercentage()
IBreakSystem <|.. UsingWheelBreak

class SteeringWheel
SteeringWheel : SteeringAngle()
ISteeringSystem <|.. SteeringWheel

class Joystick
Joystick : SteeringAngle()
ISteeringSystem <|.. Joystick


@enduml

PlantUML version 1.2022.12(Sun Oct 23 18:12:26 GMT 2022)
(GPL source distribution)
Java Runtime: OpenJDK Runtime Environment
JVM: OpenJDK 64-Bit Server VM
Default Encoding: UTF-8
Language: en
Country: US
--></g></svg>