<?xml version="1.0" encoding="UTF-8" standalone="no"?><svg xmlns="http://www.w3.org/2000/svg" xmlns:xlink="http://www.w3.org/1999/xlink" contentStyleType="text/css" height="418px" preserveAspectRatio="none" style="width:714px;height:418px;background:#FFFFFF;" version="1.1" viewBox="0 0 714 418" width="714px" zoomAndPan="magnify"><defs/><g><ellipse cx="357" cy="20" fill="#222222" rx="10" ry="10" style="stroke:#222222;stroke-width:1.0;"/><rect fill="#F1F1F1" height="33.9688" rx="12.5" ry="12.5" style="stroke:#181818;stroke-width:0.5;" width="477" x="118.5" y="50"/><text fill="#000000" font-family="sans-serif" font-size="12" lengthAdjust="spacing" textLength="4" x="128.5" y="71.1387"> </text><text fill="#000000" font-family="sans-serif" font-size="12" font-weight="bold" lengthAdjust="spacing" textLength="453" x="132.5" y="71.1387">Detect all lvclasses in memory and the project folder recursively</text><rect fill="#F1F1F1" height="33.9688" rx="12.5" ry="12.5" style="stroke:#181818;stroke-width:0.5;" width="313" x="200.5" y="103.9688"/><text fill="#000000" font-family="sans-serif" font-size="12" lengthAdjust="spacing" textLength="4" x="210.5" y="125.1074"> </text><text fill="#000000" font-family="sans-serif" font-size="12" font-weight="bold" lengthAdjust="spacing" textLength="289" x="214.5" y="125.1074">Read the Json InterfaceConfiguration file</text><rect fill="#F1F1F1" height="33.9688" rx="12.5" ry="12.5" style="stroke:#181818;stroke-width:0.5;" width="458" x="128" y="157.9375"/><text fill="#000000" font-family="sans-serif" font-size="12" lengthAdjust="spacing" textLength="4" x="138" y="179.0762"> </text><text fill="#000000" font-family="sans-serif" font-size="12" font-weight="bold" lengthAdjust="spacing" textLength="434" x="142" y="179.0762">Load all classes from the InterfaceConfiguration into memory</text><rect fill="#F1F1F1" height="33.9688" rx="12.5" ry="12.5" style="stroke:#181818;stroke-width:0.5;" width="472" x="121" y="211.9063"/><text fill="#000000" font-family="sans-serif" font-size="12" lengthAdjust="spacing" textLength="4" x="131" y="233.0449"> </text><text fill="#000000" font-family="sans-serif" font-size="12" font-weight="bold" lengthAdjust="spacing" textLength="440" x="135" y="233.0449">Create the classes that adhere to the ICreateDestroy interfac</text><text fill="#000000" font-family="sans-serif" font-size="12" lengthAdjust="spacing" textLength="8" x="575" y="233.0449">e</text><rect fill="#F1F1F1" height="33.9688" rx="12.5" ry="12.5" style="stroke:#181818;stroke-width:0.5;" width="486" x="114" y="265.875"/><text fill="#000000" font-family="sans-serif" font-size="12" lengthAdjust="spacing" textLength="4" x="124" y="287.0137"> </text><text fill="#000000" font-family="sans-serif" font-size="12" font-weight="bold" lengthAdjust="spacing" textLength="462" x="128" y="287.0137">Set the class names as defined by the InterfaceConfiguration file</text><rect fill="#F1F1F1" height="33.9688" rx="12.5" ry="12.5" style="stroke:#181818;stroke-width:0.5;" width="692" x="11" y="319.8438"/><text fill="#000000" font-family="sans-serif" font-size="12" lengthAdjust="spacing" textLength="4" x="21" y="340.9824"> </text><text fill="#000000" font-family="sans-serif" font-size="12" font-weight="bold" lengthAdjust="spacing" textLength="668" x="25" y="340.9824">Set the External Interfaces of each of the classes as defined by the InterfaceConfiguration file</text><rect fill="#F1F1F1" height="33.9688" rx="12.5" ry="12.5" style="stroke:#181818;stroke-width:0.5;" width="249" x="232.5" y="373.8125"/><text fill="#000000" font-family="sans-serif" font-size="12" lengthAdjust="spacing" textLength="4" x="242.5" y="394.9512"> </text><text fill="#000000" font-family="sans-serif" font-size="12" font-weight="bold" lengthAdjust="spacing" textLength="225" x="246.5" y="394.9512">Start the main application class</text><line style="stroke:#181818;stroke-width:1.0;" x1="357" x2="357" y1="30" y2="50"/><polygon fill="#181818" points="353,40,357,50,361,40,357,44" style="stroke:#181818;stroke-width:1.0;"/><line style="stroke:#181818;stroke-width:1.0;" x1="357" x2="357" y1="83.9688" y2="103.9688"/><polygon fill="#181818" points="353,93.9688,357,103.9688,361,93.9688,357,97.9688" style="stroke:#181818;stroke-width:1.0;"/><line style="stroke:#181818;stroke-width:1.0;" x1="357" x2="357" y1="137.9375" y2="157.9375"/><polygon fill="#181818" points="353,147.9375,357,157.9375,361,147.9375,357,151.9375" style="stroke:#181818;stroke-width:1.0;"/><line style="stroke:#181818;stroke-width:1.0;" x1="357" x2="357" y1="191.9063" y2="211.9063"/><polygon fill="#181818" points="353,201.9063,357,211.9063,361,201.9063,357,205.9063" style="stroke:#181818;stroke-width:1.0;"/><line style="stroke:#181818;stroke-width:1.0;" x1="357" x2="357" y1="245.875" y2="265.875"/><polygon fill="#181818" points="353,255.875,357,265.875,361,255.875,357,259.875" style="stroke:#181818;stroke-width:1.0;"/><line style="stroke:#181818;stroke-width:1.0;" x1="357" x2="357" y1="299.8438" y2="319.8438"/><polygon fill="#181818" points="353,309.8438,357,319.8438,361,309.8438,357,313.8438" style="stroke:#181818;stroke-width:1.0;"/><line style="stroke:#181818;stroke-width:1.0;" x1="357" x2="357" y1="353.8125" y2="373.8125"/><polygon fill="#181818" points="353,363.8125,357,373.8125,361,363.8125,357,367.8125" style="stroke:#181818;stroke-width:1.0;"/><!--MD5=[cbc5f19da96b90cbb7509539766d6e95]
@startuml
start

: **Detect all lvclasses in memory and the project folder recursively**;
: **Read the Json InterfaceConfiguration file**;
: **Load all classes from the InterfaceConfiguration into memory**;
: **Create the classes that adhere to the ICreateDestroy interfac**e;
: **Set the class names as defined by the InterfaceConfiguration file**;
: **Set the External Interfaces of each of the classes as defined by the InterfaceConfiguration file**;
: **Start the main application class**;

@enduml

PlantUML version 1.2022.12(Sun Oct 23 18:12:26 GMT 2022)
(GPL source distribution)
Java Runtime: OpenJDK Runtime Environment
JVM: OpenJDK 64-Bit Server VM
Default Encoding: UTF-8
Language: en
Country: US
--></g></svg>