<?xml version="1.0" encoding="UTF-8" standalone="no"?><svg xmlns="http://www.w3.org/2000/svg" xmlns:xlink="http://www.w3.org/1999/xlink" contentStyleType="text/css" height="284px" preserveAspectRatio="none" style="width:1055px;height:284px;background:#FFFFFF;" version="1.1" viewBox="0 0 1055 284" width="1055px" zoomAndPan="magnify"><defs/><g><!--MD5=[3f0ef310aaa84a542276992c5216544d]
class Car--><g id="elem_Car"><rect codeLine="7" fill="#FFFFFF" height="129.4844" id="Car" rx="2.5" ry="2.5" style="stroke:#555555;stroke-width:0.5;" width="186" x="7" y="148"/><rect fill="#808080" height="32" rx="2.5" ry="2.5" style="stroke:#808080;stroke-width:0.5;" width="186" x="7" y="148"/><rect fill="#808080" height="2.5" style="stroke:#808080;stroke-width:0.5;" width="186" x="7" y="177.5"/><rect codeLine="7" fill="none" height="129.4844" id="Car" rx="2.5" ry="2.5" style="stroke:#555555;stroke-width:0.5;" width="186" x="7" y="148"/><ellipse cx="84.25" cy="164" fill="#ADD1B2" rx="11" ry="11" style="stroke:#181818;stroke-width:1.0;"/><path d="M87.2188,169.6406 Q86.6406,169.9375 86,170.0781 Q85.3594,170.2344 84.6563,170.2344 Q82.1563,170.2344 80.8281,168.5938 Q79.5156,166.9375 79.5156,163.8125 Q79.5156,160.6875 80.8281,159.0313 Q82.1563,157.375 84.6563,157.375 Q85.3594,157.375 86,157.5313 Q86.6563,157.6875 87.2188,157.9844 L87.2188,160.7031 Q86.5938,160.125 86,159.8594 Q85.4063,159.5781 84.7813,159.5781 Q83.4375,159.5781 82.75,160.6563 Q82.0625,161.7188 82.0625,163.8125 Q82.0625,165.9063 82.75,166.9844 Q83.4375,168.0469 84.7813,168.0469 Q85.4063,168.0469 86,167.7813 Q86.5938,167.5 87.2188,166.9219 L87.2188,169.6406 Z " fill="#000000"/><text fill="#000000" font-family="sans-serif" font-size="14" lengthAdjust="spacing" textLength="23" x="104.75" y="168.8467">Car</text><line style="stroke:#555555;stroke-width:0.5;" x1="8" x2="192" y1="180" y2="180"/><text fill="#000000" font-family="sans-serif" font-size="14" lengthAdjust="spacing" textLength="138" x="13" y="196.9951">IBreakSystem Break</text><text fill="#000000" font-family="sans-serif" font-size="14" lengthAdjust="spacing" textLength="139" x="13" y="213.292">IThrottleSystem Gas</text><text fill="#000000" font-family="sans-serif" font-size="14" lengthAdjust="spacing" textLength="174" x="13" y="229.5889">ISteeringSystem Steering</text><line style="stroke:#555555;stroke-width:0.5;" x1="8" x2="192" y1="236.8906" y2="236.8906"/><text fill="#000000" font-family="sans-serif" font-size="14" lengthAdjust="spacing" textLength="30" x="13" y="253.8857">On()</text><text fill="#000000" font-family="sans-serif" font-size="14" lengthAdjust="spacing" textLength="29" x="13" y="270.1826">Off()</text></g><!--MD5=[8b4349d44eaa49606e46fe912a7a9b1f]
class IBreakSystem--><g id="elem_IBreakSystem"><rect codeLine="15" fill="#FFFFFF" height="64.2969" id="IBreakSystem" rx="2.5" ry="2.5" style="stroke:#555555;stroke-width:0.5;" width="142" x="407" y="15.5"/><rect fill="#808080" height="32" rx="2.5" ry="2.5" style="stroke:#808080;stroke-width:0.5;" width="142" x="407" y="15.5"/><rect fill="#808080" height="2.5" style="stroke:#808080;stroke-width:0.5;" width="142" x="407" y="45"/><rect codeLine="15" fill="none" height="64.2969" id="IBreakSystem" rx="2.5" ry="2.5" style="stroke:#555555;stroke-width:0.5;" width="142" x="407" y="15.5"/><ellipse cx="428.75" cy="31.5" fill="#B4A7E5" rx="11" ry="11" style="stroke:#181818;stroke-width:1.0;"/><path d="M424.6719,27.2656 L424.6719,25.1094 L432.0625,25.1094 L432.0625,27.2656 L429.5938,27.2656 L429.5938,35.3438 L432.0625,35.3438 L432.0625,37.5 L424.6719,37.5 L424.6719,35.3438 L427.1406,35.3438 L427.1406,27.2656 L424.6719,27.2656 Z " fill="#000000"/><text fill="#000000" font-family="sans-serif" font-size="14" font-style="italic" lengthAdjust="spacing" textLength="95" x="444.25" y="36.3467">IBreakSystem</text><line style="stroke:#555555;stroke-width:0.5;" x1="408" x2="548" y1="47.5" y2="47.5"/><line style="stroke:#555555;stroke-width:0.5;" x1="408" x2="548" y1="55.5" y2="55.5"/><text fill="#000000" font-family="sans-serif" font-size="14" lengthAdjust="spacing" textLength="130" x="413" y="72.4951">BreakPercentage()</text></g><!--MD5=[5ab70281682546b1965d230b94fcb4b7]
class IThrottleSystem--><g id="elem_IThrottleSystem"><rect codeLine="16" fill="#FFFFFF" height="64.2969" id="IThrottleSystem" rx="2.5" ry="2.5" style="stroke:#555555;stroke-width:0.5;" width="141" x="587.5" y="15.5"/><rect fill="#808080" height="32" rx="2.5" ry="2.5" style="stroke:#808080;stroke-width:0.5;" width="141" x="587.5" y="15.5"/><rect fill="#808080" height="2.5" style="stroke:#808080;stroke-width:0.5;" width="141" x="587.5" y="45"/><rect codeLine="16" fill="none" height="64.2969" id="IThrottleSystem" rx="2.5" ry="2.5" style="stroke:#555555;stroke-width:0.5;" width="141" x="587.5" y="15.5"/><ellipse cx="602.5" cy="31.5" fill="#B4A7E5" rx="11" ry="11" style="stroke:#181818;stroke-width:1.0;"/><path d="M598.4219,27.2656 L598.4219,25.1094 L605.8125,25.1094 L605.8125,27.2656 L603.3438,27.2656 L603.3438,35.3438 L605.8125,35.3438 L605.8125,37.5 L598.4219,37.5 L598.4219,35.3438 L600.8906,35.3438 L600.8906,27.2656 L598.4219,27.2656 Z " fill="#000000"/><text fill="#000000" font-family="sans-serif" font-size="14" font-style="italic" lengthAdjust="spacing" textLength="109" x="616.5" y="36.3467">IThrottleSystem</text><line style="stroke:#555555;stroke-width:0.5;" x1="588.5" x2="727.5" y1="47.5" y2="47.5"/><line style="stroke:#555555;stroke-width:0.5;" x1="588.5" x2="727.5" y1="55.5" y2="55.5"/><text fill="#000000" font-family="sans-serif" font-size="14" lengthAdjust="spacing" textLength="55" x="593.5" y="72.4951">Speed()</text></g><!--MD5=[839a9ba2e4984e689f89cf473293394b]
class ISteeringSystem--><g id="elem_ISteeringSystem"><rect codeLine="17" fill="#FFFFFF" height="64.2969" id="ISteeringSystem" rx="2.5" ry="2.5" style="stroke:#555555;stroke-width:0.5;" width="145" x="763.5" y="15.5"/><rect fill="#808080" height="32" rx="2.5" ry="2.5" style="stroke:#808080;stroke-width:0.5;" width="145" x="763.5" y="15.5"/><rect fill="#808080" height="2.5" style="stroke:#808080;stroke-width:0.5;" width="145" x="763.5" y="45"/><rect codeLine="17" fill="none" height="64.2969" id="ISteeringSystem" rx="2.5" ry="2.5" style="stroke:#555555;stroke-width:0.5;" width="145" x="763.5" y="15.5"/><ellipse cx="778.5" cy="31.5" fill="#B4A7E5" rx="11" ry="11" style="stroke:#181818;stroke-width:1.0;"/><path d="M774.4219,27.2656 L774.4219,25.1094 L781.8125,25.1094 L781.8125,27.2656 L779.3438,27.2656 L779.3438,35.3438 L781.8125,35.3438 L781.8125,37.5 L774.4219,37.5 L774.4219,35.3438 L776.8906,35.3438 L776.8906,27.2656 L774.4219,27.2656 Z " fill="#000000"/><text fill="#000000" font-family="sans-serif" font-size="14" font-style="italic" lengthAdjust="spacing" textLength="113" x="792.5" y="36.3467">ISteeringSystem</text><line style="stroke:#555555;stroke-width:0.5;" x1="764.5" x2="907.5" y1="47.5" y2="47.5"/><line style="stroke:#555555;stroke-width:0.5;" x1="764.5" x2="907.5" y1="55.5" y2="55.5"/><text fill="#000000" font-family="sans-serif" font-size="14" lengthAdjust="spacing" textLength="107" x="769.5" y="72.4951">SteeringAngle()</text></g><!--MD5=[4bd7caa3e348e14c162eed3fe72951ad]
class ICarControl--><g id="elem_ICarControl"><rect codeLine="18" fill="#FFFFFF" height="80.5938" id="ICarControl" rx="2.5" ry="2.5" style="stroke:#555555;stroke-width:0.5;" width="109" x="45.5" y="7"/><rect fill="#808080" height="32" rx="2.5" ry="2.5" style="stroke:#808080;stroke-width:0.5;" width="109" x="45.5" y="7"/><rect fill="#808080" height="2.5" style="stroke:#808080;stroke-width:0.5;" width="109" x="45.5" y="36.5"/><rect codeLine="18" fill="none" height="80.5938" id="ICarControl" rx="2.5" ry="2.5" style="stroke:#555555;stroke-width:0.5;" width="109" x="45.5" y="7"/><ellipse cx="60.5" cy="23" fill="#B4A7E5" rx="11" ry="11" style="stroke:#181818;stroke-width:1.0;"/><path d="M56.4219,18.7656 L56.4219,16.6094 L63.8125,16.6094 L63.8125,18.7656 L61.3438,18.7656 L61.3438,26.8438 L63.8125,26.8438 L63.8125,29 L56.4219,29 L56.4219,26.8438 L58.8906,26.8438 L58.8906,18.7656 L56.4219,18.7656 Z " fill="#000000"/><text fill="#000000" font-family="sans-serif" font-size="14" font-style="italic" lengthAdjust="spacing" textLength="77" x="74.5" y="27.8467">ICarControl</text><line style="stroke:#555555;stroke-width:0.5;" x1="46.5" x2="153.5" y1="39" y2="39"/><line style="stroke:#555555;stroke-width:0.5;" x1="46.5" x2="153.5" y1="47" y2="47"/><text fill="#000000" font-family="sans-serif" font-size="14" lengthAdjust="spacing" textLength="30" x="51.5" y="63.9951">On()</text><text fill="#000000" font-family="sans-serif" font-size="14" lengthAdjust="spacing" textLength="29" x="51.5" y="80.292">Off()</text></g><!--MD5=[81ae48864a1d1579635bdd769611c8ad]
class UsingFeed--><g id="elem_UsingFeed"><rect codeLine="28" fill="#FFFFFF" height="80.5938" id="UsingFeed" rx="2.5" ry="2.5" style="stroke:#555555;stroke-width:0.5;" width="142" x="228" y="172"/><rect fill="#808080" height="32" rx="2.5" ry="2.5" style="stroke:#808080;stroke-width:0.5;" width="142" x="228" y="172"/><rect fill="#808080" height="2.5" style="stroke:#808080;stroke-width:0.5;" width="142" x="228" y="201.5"/><rect codeLine="28" fill="none" height="80.5938" id="UsingFeed" rx="2.5" ry="2.5" style="stroke:#555555;stroke-width:0.5;" width="142" x="228" y="172"/><ellipse cx="259.2" cy="188" fill="#ADD1B2" rx="11" ry="11" style="stroke:#181818;stroke-width:1.0;"/><path d="M262.1688,193.6406 Q261.5906,193.9375 260.95,194.0781 Q260.3094,194.2344 259.6063,194.2344 Q257.1063,194.2344 255.7781,192.5938 Q254.4656,190.9375 254.4656,187.8125 Q254.4656,184.6875 255.7781,183.0313 Q257.1063,181.375 259.6063,181.375 Q260.3094,181.375 260.95,181.5313 Q261.6063,181.6875 262.1688,181.9844 L262.1688,184.7031 Q261.5438,184.125 260.95,183.8594 Q260.3563,183.5781 259.7313,183.5781 Q258.3875,183.5781 257.7,184.6563 Q257.0125,185.7188 257.0125,187.8125 Q257.0125,189.9063 257.7,190.9844 Q258.3875,192.0469 259.7313,192.0469 Q260.3563,192.0469 260.95,191.7813 Q261.5438,191.5 262.1688,190.9219 L262.1688,193.6406 Z " fill="#000000"/><text fill="#000000" font-family="sans-serif" font-size="14" lengthAdjust="spacing" textLength="74" x="276.8" y="192.8467">UsingFeed</text><line style="stroke:#555555;stroke-width:0.5;" x1="229" x2="369" y1="204" y2="204"/><line style="stroke:#555555;stroke-width:0.5;" x1="229" x2="369" y1="212" y2="212"/><text fill="#000000" font-family="sans-serif" font-size="14" lengthAdjust="spacing" textLength="64" x="234" y="228.9951">Throttle()</text><text fill="#000000" font-family="sans-serif" font-size="14" lengthAdjust="spacing" textLength="130" x="234" y="245.292">BreakPercentage()</text></g><!--MD5=[3f8296c6c6f74a94cfd3b031904365e8]
class ISpeedSystem--><g id="elem_ISpeedSystem"><rect fill="#FFFFFF" height="48" id="ISpeedSystem" rx="2.5" ry="2.5" style="stroke:#555555;stroke-width:0.5;" width="131" x="233.5" y="23.5"/><rect fill="#808080" height="32" rx="2.5" ry="2.5" style="stroke:#808080;stroke-width:0.5;" width="131" x="233.5" y="23.5"/><rect fill="#808080" height="2.5" style="stroke:#808080;stroke-width:0.5;" width="131" x="233.5" y="53"/><rect fill="none" height="48" id="ISpeedSystem" rx="2.5" ry="2.5" style="stroke:#555555;stroke-width:0.5;" width="131" x="233.5" y="23.5"/><ellipse cx="248.5" cy="39.5" fill="#ADD1B2" rx="11" ry="11" style="stroke:#181818;stroke-width:1.0;"/><path d="M251.4688,45.1406 Q250.8906,45.4375 250.25,45.5781 Q249.6094,45.7344 248.9063,45.7344 Q246.4063,45.7344 245.0781,44.0938 Q243.7656,42.4375 243.7656,39.3125 Q243.7656,36.1875 245.0781,34.5313 Q246.4063,32.875 248.9063,32.875 Q249.6094,32.875 250.25,33.0313 Q250.9063,33.1875 251.4688,33.4844 L251.4688,36.2031 Q250.8438,35.625 250.25,35.3594 Q249.6563,35.0781 249.0313,35.0781 Q247.6875,35.0781 247,36.1563 Q246.3125,37.2188 246.3125,39.3125 Q246.3125,41.4063 247,42.4844 Q247.6875,43.5469 249.0313,43.5469 Q249.6563,43.5469 250.25,43.2813 Q250.8438,43 251.4688,42.4219 L251.4688,45.1406 Z " fill="#000000"/><text fill="#000000" font-family="sans-serif" font-size="14" lengthAdjust="spacing" textLength="99" x="262.5" y="44.3467">ISpeedSystem</text><line style="stroke:#555555;stroke-width:0.5;" x1="234.5" x2="363.5" y1="55.5" y2="55.5"/><line style="stroke:#555555;stroke-width:0.5;" x1="234.5" x2="363.5" y1="63.5" y2="63.5"/></g><!--MD5=[21f3ecaffea0af574e0a496fda47eba4]
class UsingEngine--><g id="elem_UsingEngine"><rect codeLine="35" fill="#FFFFFF" height="64.2969" id="UsingEngine" rx="2.5" ry="2.5" style="stroke:#555555;stroke-width:0.5;" width="119" x="598.5" y="180.5"/><rect fill="#808080" height="32" rx="2.5" ry="2.5" style="stroke:#808080;stroke-width:0.5;" width="119" x="598.5" y="180.5"/><rect fill="#808080" height="2.5" style="stroke:#808080;stroke-width:0.5;" width="119" x="598.5" y="210"/><rect codeLine="35" fill="none" height="64.2969" id="UsingEngine" rx="2.5" ry="2.5" style="stroke:#555555;stroke-width:0.5;" width="119" x="598.5" y="180.5"/><ellipse cx="613.5" cy="196.5" fill="#ADD1B2" rx="11" ry="11" style="stroke:#181818;stroke-width:1.0;"/><path d="M616.4688,202.1406 Q615.8906,202.4375 615.25,202.5781 Q614.6094,202.7344 613.9063,202.7344 Q611.4063,202.7344 610.0781,201.0938 Q608.7656,199.4375 608.7656,196.3125 Q608.7656,193.1875 610.0781,191.5313 Q611.4063,189.875 613.9063,189.875 Q614.6094,189.875 615.25,190.0313 Q615.9063,190.1875 616.4688,190.4844 L616.4688,193.2031 Q615.8438,192.625 615.25,192.3594 Q614.6563,192.0781 614.0313,192.0781 Q612.6875,192.0781 612,193.1563 Q611.3125,194.2188 611.3125,196.3125 Q611.3125,198.4063 612,199.4844 Q612.6875,200.5469 614.0313,200.5469 Q614.6563,200.5469 615.25,200.2813 Q615.8438,200 616.4688,199.4219 L616.4688,202.1406 Z " fill="#000000"/><text fill="#000000" font-family="sans-serif" font-size="14" lengthAdjust="spacing" textLength="87" x="627.5" y="201.3467">UsingEngine</text><line style="stroke:#555555;stroke-width:0.5;" x1="599.5" x2="716.5" y1="212.5" y2="212.5"/><line style="stroke:#555555;stroke-width:0.5;" x1="599.5" x2="716.5" y1="220.5" y2="220.5"/><text fill="#000000" font-family="sans-serif" font-size="14" lengthAdjust="spacing" textLength="64" x="604.5" y="237.4951">Throttle()</text></g><!--MD5=[52c12cc54386af3a3ae5014135719776]
class UsingWheelBreak--><g id="elem_UsingWheelBreak"><rect codeLine="39" fill="#FFFFFF" height="64.2969" id="UsingWheelBreak" rx="2.5" ry="2.5" style="stroke:#555555;stroke-width:0.5;" width="154" x="405" y="180.5"/><rect fill="#808080" height="32" rx="2.5" ry="2.5" style="stroke:#808080;stroke-width:0.5;" width="154" x="405" y="180.5"/><rect fill="#808080" height="2.5" style="stroke:#808080;stroke-width:0.5;" width="154" x="405" y="210"/><rect codeLine="39" fill="none" height="64.2969" id="UsingWheelBreak" rx="2.5" ry="2.5" style="stroke:#555555;stroke-width:0.5;" width="154" x="405" y="180.5"/><ellipse cx="420" cy="196.5" fill="#ADD1B2" rx="11" ry="11" style="stroke:#181818;stroke-width:1.0;"/><path d="M422.9688,202.1406 Q422.3906,202.4375 421.75,202.5781 Q421.1094,202.7344 420.4063,202.7344 Q417.9063,202.7344 416.5781,201.0938 Q415.2656,199.4375 415.2656,196.3125 Q415.2656,193.1875 416.5781,191.5313 Q417.9063,189.875 420.4063,189.875 Q421.1094,189.875 421.75,190.0313 Q422.4063,190.1875 422.9688,190.4844 L422.9688,193.2031 Q422.3438,192.625 421.75,192.3594 Q421.1563,192.0781 420.5313,192.0781 Q419.1875,192.0781 418.5,193.1563 Q417.8125,194.2188 417.8125,196.3125 Q417.8125,198.4063 418.5,199.4844 Q419.1875,200.5469 420.5313,200.5469 Q421.1563,200.5469 421.75,200.2813 Q422.3438,200 422.9688,199.4219 L422.9688,202.1406 Z " fill="#000000"/><text fill="#000000" font-family="sans-serif" font-size="14" lengthAdjust="spacing" textLength="122" x="434" y="201.3467">UsingWheelBreak</text><line style="stroke:#555555;stroke-width:0.5;" x1="406" x2="558" y1="212.5" y2="212.5"/><line style="stroke:#555555;stroke-width:0.5;" x1="406" x2="558" y1="220.5" y2="220.5"/><text fill="#000000" font-family="sans-serif" font-size="14" lengthAdjust="spacing" textLength="130" x="411" y="237.4951">BreakPercentage()</text></g><!--MD5=[ad83d6982eaa72c6138b29e52690d36c]
class SteeringWheel--><g id="elem_SteeringWheel"><rect codeLine="43" fill="#FFFFFF" height="64.2969" id="SteeringWheel" rx="2.5" ry="2.5" style="stroke:#555555;stroke-width:0.5;" width="133" x="761.5" y="180.5"/><rect fill="#808080" height="32" rx="2.5" ry="2.5" style="stroke:#808080;stroke-width:0.5;" width="133" x="761.5" y="180.5"/><rect fill="#808080" height="2.5" style="stroke:#808080;stroke-width:0.5;" width="133" x="761.5" y="210"/><rect codeLine="43" fill="none" height="64.2969" id="SteeringWheel" rx="2.5" ry="2.5" style="stroke:#555555;stroke-width:0.5;" width="133" x="761.5" y="180.5"/><ellipse cx="776.5" cy="196.5" fill="#ADD1B2" rx="11" ry="11" style="stroke:#181818;stroke-width:1.0;"/><path d="M779.4688,202.1406 Q778.8906,202.4375 778.25,202.5781 Q777.6094,202.7344 776.9063,202.7344 Q774.4063,202.7344 773.0781,201.0938 Q771.7656,199.4375 771.7656,196.3125 Q771.7656,193.1875 773.0781,191.5313 Q774.4063,189.875 776.9063,189.875 Q777.6094,189.875 778.25,190.0313 Q778.9063,190.1875 779.4688,190.4844 L779.4688,193.2031 Q778.8438,192.625 778.25,192.3594 Q777.6563,192.0781 777.0313,192.0781 Q775.6875,192.0781 775,193.1563 Q774.3125,194.2188 774.3125,196.3125 Q774.3125,198.4063 775,199.4844 Q775.6875,200.5469 777.0313,200.5469 Q777.6563,200.5469 778.25,200.2813 Q778.8438,200 779.4688,199.4219 L779.4688,202.1406 Z " fill="#000000"/><text fill="#000000" font-family="sans-serif" font-size="14" lengthAdjust="spacing" textLength="101" x="790.5" y="201.3467">SteeringWheel</text><line style="stroke:#555555;stroke-width:0.5;" x1="762.5" x2="893.5" y1="212.5" y2="212.5"/><line style="stroke:#555555;stroke-width:0.5;" x1="762.5" x2="893.5" y1="220.5" y2="220.5"/><text fill="#000000" font-family="sans-serif" font-size="14" lengthAdjust="spacing" textLength="107" x="767.5" y="237.4951">SteeringAngle()</text></g><!--MD5=[f929ce5cfb02a705447030ec5fa34c24]
class Joystick--><g id="elem_Joystick"><rect codeLine="47" fill="#FFFFFF" height="64.2969" id="Joystick" rx="2.5" ry="2.5" style="stroke:#555555;stroke-width:0.5;" width="119" x="929.5" y="180.5"/><rect fill="#808080" height="32" rx="2.5" ry="2.5" style="stroke:#808080;stroke-width:0.5;" width="119" x="929.5" y="180.5"/><rect fill="#808080" height="2.5" style="stroke:#808080;stroke-width:0.5;" width="119" x="929.5" y="210"/><rect codeLine="47" fill="none" height="64.2969" id="Joystick" rx="2.5" ry="2.5" style="stroke:#555555;stroke-width:0.5;" width="119" x="929.5" y="180.5"/><ellipse cx="960.7" cy="196.5" fill="#ADD1B2" rx="11" ry="11" style="stroke:#181818;stroke-width:1.0;"/><path d="M963.6688,202.1406 Q963.0906,202.4375 962.45,202.5781 Q961.8094,202.7344 961.1063,202.7344 Q958.6063,202.7344 957.2781,201.0938 Q955.9656,199.4375 955.9656,196.3125 Q955.9656,193.1875 957.2781,191.5313 Q958.6063,189.875 961.1063,189.875 Q961.8094,189.875 962.45,190.0313 Q963.1063,190.1875 963.6688,190.4844 L963.6688,193.2031 Q963.0438,192.625 962.45,192.3594 Q961.8563,192.0781 961.2313,192.0781 Q959.8875,192.0781 959.2,193.1563 Q958.5125,194.2188 958.5125,196.3125 Q958.5125,198.4063 959.2,199.4844 Q959.8875,200.5469 961.2313,200.5469 Q961.8563,200.5469 962.45,200.2813 Q963.0438,200 963.6688,199.4219 L963.6688,202.1406 Z " fill="#000000"/><text fill="#000000" font-family="sans-serif" font-size="14" lengthAdjust="spacing" textLength="51" x="978.3" y="201.3467">Joystick</text><line style="stroke:#555555;stroke-width:0.5;" x1="930.5" x2="1047.5" y1="212.5" y2="212.5"/><line style="stroke:#555555;stroke-width:0.5;" x1="930.5" x2="1047.5" y1="220.5" y2="220.5"/><text fill="#000000" font-family="sans-serif" font-size="14" lengthAdjust="spacing" textLength="107" x="935.5" y="237.4951">SteeringAngle()</text></g><!--MD5=[9a1f83fb3898e41e702b69d424886b06]
reverse link ICarControl to Car--><g id="link_ICarControl_Car"><path codeLine="22" d="M100,108.39 C100,121.26 100,134.9 100,147.91 " fill="none" id="ICarControl-backto-Car" style="stroke:#181818;stroke-width:1.0;stroke-dasharray:7.0,7.0;"/><polygon fill="none" points="93,108.37,100,88.37,107,108.37,93,108.37" style="stroke:#181818;stroke-width:1.0;"/></g><!--MD5=[57a5a6c8153df57c19ce9ecb97bb3453]
reverse link ISpeedSystem to UsingFeed--><g id="link_ISpeedSystem_UsingFeed"><path codeLine="32" d="M299,91.87 C299,116.75 299,147.75 299,171.96 " fill="none" id="ISpeedSystem-backto-UsingFeed" style="stroke:#181818;stroke-width:1.0;stroke-dasharray:7.0,7.0;"/><polygon fill="none" points="292,91.51,299,71.51,306,91.51,292,91.51" style="stroke:#181818;stroke-width:1.0;"/></g><!--MD5=[e09c077446928df51adf190d1a9f53d7]
reverse link IBreakSystem to UsingFeed--><g id="link_IBreakSystem_UsingFeed"><path codeLine="33" d="M428.81,93.29 C401.78,117.9 368.55,148.17 342.48,171.91 " fill="none" id="IBreakSystem-backto-UsingFeed" style="stroke:#181818;stroke-width:1.0;stroke-dasharray:7.0,7.0;"/><polygon fill="none" points="424.41,87.83,443.91,79.54,433.84,98.18,424.41,87.83" style="stroke:#181818;stroke-width:1.0;"/></g><!--MD5=[ae8b850936e910f865ef9fd0293c0ed6]
reverse link IThrottleSystem to UsingEngine--><g id="link_IThrottleSystem_UsingEngine"><path codeLine="37" d="M658,99.83 C658,126.24 658,157.55 658,180.3 " fill="none" id="IThrottleSystem-backto-UsingEngine" style="stroke:#181818;stroke-width:1.0;stroke-dasharray:7.0,7.0;"/><polygon fill="none" points="651,99.54,658,79.54,665,99.54,651,99.54" style="stroke:#181818;stroke-width:1.0;"/></g><!--MD5=[ed471e3d54744ea7ca36ce5b52a0c917]
reverse link IBreakSystem to UsingWheelBreak--><g id="link_IBreakSystem_UsingWheelBreak"><path codeLine="41" d="M479.26,99.83 C479.91,126.24 480.68,157.55 481.23,180.3 " fill="none" id="IBreakSystem-backto-UsingWheelBreak" style="stroke:#181818;stroke-width:1.0;stroke-dasharray:7.0,7.0;"/><polygon fill="none" points="472.25,99.71,478.76,79.54,486.25,99.36,472.25,99.71" style="stroke:#181818;stroke-width:1.0;"/></g><!--MD5=[cdf194c1c75c2e6690cfc170cd7d0a65]
reverse link ISteeringSystem to SteeringWheel--><g id="link_ISteeringSystem_SteeringWheel"><path codeLine="45" d="M833.48,99.83 C832.18,126.24 830.65,157.55 829.53,180.3 " fill="none" id="ISteeringSystem-backto-SteeringWheel" style="stroke:#181818;stroke-width:1.0;stroke-dasharray:7.0,7.0;"/><polygon fill="none" points="826.5,99.18,834.48,79.54,840.49,99.86,826.5,99.18" style="stroke:#181818;stroke-width:1.0;"/></g><!--MD5=[ff0d828fe0e43fd6e2bfe1e22fcfbe89]
reverse link ISteeringSystem to Joystick--><g id="link_ISteeringSystem_Joystick"><path codeLine="49" d="M879.08,94.39 C904.83,121.83 936.88,155.97 959.71,180.3 " fill="none" id="ISteeringSystem-backto-Joystick" style="stroke:#181818;stroke-width:1.0;stroke-dasharray:7.0,7.0;"/><polygon fill="none" points="873.72,98.92,865.14,79.54,883.93,89.33,873.72,98.92" style="stroke:#181818;stroke-width:1.0;"/></g><!--MD5=[3698d7dc9e118396aff988a1c92fae01]
@startuml
set namespaceSeparator :
skinparam ClassBackgroundColor #FFFFFF
skinparam ClassBorderColor #555555
skinparam ClassFontColor #000000
skinparam ClassHeaderBackgroundColor #808080

class Car
Car : IBreakSystem Break
Car : IThrottleSystem Gas
Car : ISteeringSystem Steering

Car : On()
Car : Off()

interface IBreakSystem
interface IThrottleSystem
interface ISteeringSystem
interface ICarControl

ICarControl : On()
ICarControl : Off()
ICarControl <|.. Car

IThrottleSystem : Speed()
IBreakSystem : BreakPercentage()
ISteeringSystem : SteeringAngle()

class UsingFeed
UsingFeed : Throttle()
UsingFeed : BreakPercentage()

ISpeedSystem <|.. UsingFeed
IBreakSystem <|.. UsingFeed

class UsingEngine
UsingEngine : Throttle()
IThrottleSystem <|.. UsingEngine

class UsingWheelBreak
UsingWheelBreak : BreakPercentage()
IBreakSystem <|.. UsingWheelBreak

class SteeringWheel
SteeringWheel : SteeringAngle()
ISteeringSystem <|.. SteeringWheel

class Joystick
Joystick : SteeringAngle()
ISteeringSystem <|.. Joystick


@enduml

PlantUML version 1.2022.12(Sun Oct 23 18:12:26 GMT 2022)
(GPL source distribution)
Java Runtime: OpenJDK Runtime Environment
JVM: OpenJDK 64-Bit Server VM
Default Encoding: UTF-8
Language: en
Country: US
--></g></svg>