<?xml version="1.0" encoding="UTF-8" standalone="no"?><svg xmlns="http://www.w3.org/2000/svg" xmlns:xlink="http://www.w3.org/1999/xlink" contentStyleType="text/css" height="378px" preserveAspectRatio="none" style="width:640px;height:378px;background:#FFFFFF;" version="1.1" viewBox="0 0 640 378" width="640px" zoomAndPan="magnify"><defs/><g><ellipse cx="320" cy="20" fill="#222222" rx="10" ry="10" style="stroke:#222222;stroke-width:1.0;"/><rect fill="#F1F1F1" height="33.9688" rx="12.5" ry="12.5" style="stroke:#181818;stroke-width:0.5;" width="353" x="143.5" y="50"/><text fill="#000000" font-family="sans-serif" font-size="12" lengthAdjust="spacing" textLength="329" x="157.5" y="71.1387">Detect all lvclasses in memory and the project folder</text><rect fill="#F1F1F1" height="33.9688" rx="12.5" ry="12.5" style="stroke:#181818;stroke-width:0.5;" width="277" x="181.5" y="103.9688"/><text fill="#000000" font-family="sans-serif" font-size="12" lengthAdjust="spacing" textLength="253" x="195.5" y="125.1074">Read the Json InterfaceConfiguration file</text><rect fill="#F1F1F1" height="33.9688" rx="12.5" ry="12.5" style="stroke:#181818;stroke-width:0.5;" width="405" x="117.5" y="157.9375"/><text fill="#000000" font-family="sans-serif" font-size="12" lengthAdjust="spacing" textLength="381" x="131.5" y="179.0762">Load all classes from the InterfaceConfiguration into memory</text><rect fill="#F1F1F1" height="33.9688" rx="12.5" ry="12.5" style="stroke:#181818;stroke-width:0.5;" width="420" x="110" y="211.9063"/><text fill="#000000" font-family="sans-serif" font-size="12" lengthAdjust="spacing" textLength="396" x="124" y="233.0449">Create the classes that adhere to the ICreateDestroy interface</text><rect fill="#F1F1F1" height="47.9375" rx="12.5" ry="12.5" style="stroke:#181818;stroke-width:0.5;" width="618" x="11" y="265.875"/><text fill="#000000" font-family="sans-serif" font-size="12" lengthAdjust="spacing" textLength="407" x="25" y="287.0137">Set the class names as defined by the InterfaceConfiguration file</text><text fill="#000000" font-family="sans-serif" font-size="12" lengthAdjust="spacing" textLength="598" x="21" y="300.9824">: Set the External Interfaces of each of the classes as defined by the InterfaceConfiguration file</text><rect fill="#F1F1F1" height="33.9688" rx="12.5" ry="12.5" style="stroke:#181818;stroke-width:0.5;" width="223" x="208.5" y="333.8125"/><text fill="#000000" font-family="sans-serif" font-size="12" lengthAdjust="spacing" textLength="199" x="222.5" y="354.9512">Start the main application class</text><line style="stroke:#181818;stroke-width:1.0;" x1="320" x2="320" y1="30" y2="50"/><polygon fill="#181818" points="316,40,320,50,324,40,320,44" style="stroke:#181818;stroke-width:1.0;"/><line style="stroke:#181818;stroke-width:1.0;" x1="320" x2="320" y1="83.9688" y2="103.9688"/><polygon fill="#181818" points="316,93.9688,320,103.9688,324,93.9688,320,97.9688" style="stroke:#181818;stroke-width:1.0;"/><line style="stroke:#181818;stroke-width:1.0;" x1="320" x2="320" y1="137.9375" y2="157.9375"/><polygon fill="#181818" points="316,147.9375,320,157.9375,324,147.9375,320,151.9375" style="stroke:#181818;stroke-width:1.0;"/><line style="stroke:#181818;stroke-width:1.0;" x1="320" x2="320" y1="191.9063" y2="211.9063"/><polygon fill="#181818" points="316,201.9063,320,211.9063,324,201.9063,320,205.9063" style="stroke:#181818;stroke-width:1.0;"/><line style="stroke:#181818;stroke-width:1.0;" x1="320" x2="320" y1="245.875" y2="265.875"/><polygon fill="#181818" points="316,255.875,320,265.875,324,255.875,320,259.875" style="stroke:#181818;stroke-width:1.0;"/><line style="stroke:#181818;stroke-width:1.0;" x1="320" x2="320" y1="313.8125" y2="333.8125"/><polygon fill="#181818" points="316,323.8125,320,333.8125,324,323.8125,320,327.8125" style="stroke:#181818;stroke-width:1.0;"/><!--MD5=[2e3259df3e338e8001c61b93fcf3b22d]
@startuml
start

: Detect all lvclasses in memory and the project folder;
: Read the Json InterfaceConfiguration file;
: Load all classes from the InterfaceConfiguration into memory;
: Create the classes that adhere to the ICreateDestroy interface;
: Set the class names as defined by the InterfaceConfiguration file
: Set the External Interfaces of each of the classes as defined by the InterfaceConfiguration file;
: Start the main application class;

@enduml

PlantUML version 1.2022.12(Sun Oct 23 18:12:26 GMT 2022)
(GPL source distribution)
Java Runtime: OpenJDK Runtime Environment
JVM: OpenJDK 64-Bit Server VM
Default Encoding: UTF-8
Language: en
Country: US
--></g></svg>